<?xml version="1.0" encoding="UTF-8"?>
<svg id="_레이어_1" xmlns="http://www.w3.org/2000/svg" version="1.1" viewBox="0 0 1024 1024">
  <!-- Generator: Adobe Illustrator 30.1.0, SVG Export Plug-In . SVG Version: 2.1.1 Build 136)  -->
  <defs>
    <style>
      .st0 {
        fill: #014a4a;
      }

      .st1 {
        fill: #4cdfd2;
      }

      .st2 {
        fill: #c0fff3;
      }

      .st3 {
        fill: #29aba6;
      }

      .st4 {
        fill: #fefefe;
      }

      .st5 {
        fill: #072628;
      }
    </style>
  </defs>
  <g>
    <path class="st0" d="M150,110v1h31v-32c42.3.3,84.7,0,127-1v-31h-126l125,1v29h-126v1c-.4,10.3-1.8,20.6-1,31l-30,1Z"/>
    <path class="st0" d="M725,591h63c.2-10.7-.2-21.3,0-32v-1c-42.7.2-85.3-.2-128,0-10,0-20,0-30,0h-2v1h158v30l-61,2Z"/>
    <path class="st0" d="M756,846c-10.6.2-21.3,0-32,0v32c0,10.2-.8,20.9,1,31v-62h30l1,10v-11Z"/>
    <path class="st0" d="M788,846v-64c0-21.3-.3-42.7,0-64h-2v127h-29l-1-62c0,21-.2,42,0,63,10.7,0,21.3,0,32,0Z"/>
    <path class="st0" d="M820,79v-2h-159v1c9.8,0,20,1,30,1,43,.2,86-.2,129,0Z"/>
    <path class="st0" d="M149,463v-1l-1-127h-1l1,158c0-10.1.5-19.9,1-30Z"/>
    <path class="st0" d="M373,143l-1-32v30l-62,1v-62l29-1h-30v64h64Z"/>
    <path class="st0" d="M181,335c.1-10.6-.3-21.4,0-32v-31c0-10.6.2-21.4,0-32v-1h-1c-10.1,1.9-20.8,1-31,1v6c.2-1.2,1.7-3,1-5h30v92h-30c.8-5-.6-10.2-1-15v16l31,1h1Z"/>
    <path class="st0" d="M915,815l-30.8.2c-2,1.2-1.2,26.5-1.2,30.8v1l31-2h-29v-29h29v29l2-.7v-28.3c0,0-1-.4-1-1Z"/>
    <path class="st0" d="M662,48l156-1h-157v27c1.5-8.7,1-17.2,1-26Z"/>
    <path class="st0" d="M820,464h30v61h-30v2h31v-64c-10.2,0-20.9-.8-31,1Z"/>
    <path class="st0" d="M883,341c0-1.3,0-2.7,0-4l-1-2c-10-.1-20,0-30,0v95c.7-31.3,1.6-62.7,1-94h28v7l2-2Z"/>
    <path class="st0" d="M852,207c-.2,10.3,0,20.7,0,31l1-127h-1c-.5,32,.5,64,0,96Z"/>
    <path class="st0" d="M850.6,285.6l.4-39.6c-1.3,12.6-1,26-.4,39.6Z"/>
    <path class="st0" d="M850,335h1c1.2-15.7.2-32.6-.4-49.4l-.6,49.4Z"/>
    <polygon class="st0" points="724 941 724 910 722 910.6 724 941"/>
    <path class="st0" d="M724,622v-31h-2v31h2Z"/>
    <path class="st0" d="M216.8,591.8c8.5-.3,19.4,2.1,25.2-1.8l-25.2,1.8Z"/>
    <path class="st0" d="M216.8,591.8c-1,0-1.9,0-2.8.2l2.8-.2Z"/>
    <polygon class="st0" points="149 79 149 80 178 79.5 149 79"/>
    <path class="st0" d="M87,910h27c-9,0-18,0-27,0Z"/>
    <path class="st0" d="M149,275c0,6.3,0,12.7,0,19v-19Z"/>
    <path class="st0" d="M149,313v-7.5c0,2.5-.1,5.1,0,7.5Z"/>
    <path class="st0" d="M149,302v3.5c0-1.2,0-2.3,0-3.5Z"/>
    <path class="st0" d="M469,782h30c.5-.2,1.4,0,2,0,.2-10.6,0-21.3,0-32,20.6-.2,41.3.2,62,0,10.3,0,20.7,0,31,0l-92-1v-29l30-2h-31c0,.4-.4,1.2-1,1v31h-31c0,.4-.4,1.2-1,1l-1,31h-31c-.3,21.2.1,42.7,0,64,0,11,.2,22,0,33l1-96h30l1.2,96.6c.4-32.5,1.2-65.1.8-97.6ZM470,751h29v30h-29v-30Z"/>
    <path class="st0" d="M532,664.9v-9.9c0,3.3,0,6.6,0,9.9Z"/>
    <path class="st0" d="M468,910c0,4.9.4,9.9.8,14.9l-.6-45.3c-.1,10.1-.2,20.3-.2,30.4Z"/>
    <path class="st0" d="M532,707.8v-21.8c-.1,7.3,0,14.5,0,21.8Z"/>
    <path class="st0" d="M532,664.9v21.1c.1-7,0-14.1,0-21.1Z"/>
    <path class="st0" d="M532,707.8v10.2c0-3.4,0-6.8,0-10.2Z"/>
    <path class="st0" d="M469,941c.5-5.3.2-10.7-.2-16.1l.2,16.1Z"/>
    <path class="st0" d="M154,942l186.5,2-.5-2c-62-.5-124,.6-186,0Z"/>
    <path class="st0" d="M488.3,942.2l-14.3-.2c4.3.5,9.3.4,14.3.2Z"/>
    <path class="st0" d="M501,942h-2c-3.3,0-7,.1-10.7.2l107.1,1.8.6-2h-33c-20.6,0-41.4.3-62,0Z"/>
    <path class="st0" d="M342,910h-2c-.5,10.2.8,20.8,0,31,3,.5,2-1.6,2-3.5.3-9.1-.2-18.3,0-27.5Z"/>
    <path class="st0" d="M842,335h5c1-3.3-6.3-2.9-5,0Z"/>
    <path class="st0" d="M611.9,110.1l-233.9.9h27c63.6,0,127.4.5,191,0,5.2,0,10.5-.6,15.9-.9Z"/>
    <path class="st0" d="M611.9,110.1h15.1c-5-.5-10.1-.3-15.1,0Z"/>
    <path class="st0" d="M659,142l-26,1c9-.1,18,0,27,0h1c-2.5-10.7,0-21.5,0-32s-2-21.4-1-32h-286l285,1v62Z"/>
    <path class="st0" d="M629,143h1c.4-2.8-1.4-2.8-1,0Z"/>
    <path class="st0" d="M661,814h62c1.9-1.9,1-27.1,1-32-10.7,0-21.3,0-32,0-17.7-.2-35.3,0-53,0,27.9.2,56.1,2.3,84,1v30l-62,1Z"/>
    <path class="st0" d="M629,751.9c-3-.5-2,1.6-2,3.5-.3,8.5.2,17.1,0,25.6-10.4-.7-20.7.5-31,1h32c.3,0,.7,0,1,0v-30h0Z"/>
    <path class="st0" d="M629,782c3.3,0,6.7,0,10,0-3.3,0-6.7,0-10,0h0Z"/>
    <path class="st0" d="M755,782l-30-1-1-127v1c0,31.7.2,63.4,0,95,0,10.7.2,21.4,0,32,10.3,0,20.7,0,31,0Z"/>
    <path class="st0" d="M245,176v-1l-1,30h-30v-61h62c.1,10.3-.2,20.7,0,31h1v-32c-21.6,0-43.4-.3-65,0v64h33c.2-10.3-.2-20.7,0-31Z"/>
    <path class="st0" d="M149,207c.6-29.6-.7-59.4,0-89v-1c0-1.3-.2-2.7,0-4-.6-.5-1.5-1.9-2-2l1,127c0-10.4.8-20.7,1-31Z"/>
    <path class="st0" d="M756,879h40.1c-13.4,0-26.7-.1-40.1,0Z"/>
    <path class="st0" d="M850,879h-53.9c18,0,36,.2,53.9,0Z"/>
    <path class="st0" d="M756,865c0,1.2-.2,1.6,0,4v-4Z"/>
    <path class="st0" d="M212,782c11,0,22,0,33,0v32c20.3.3,40.7-.2,61,0h2c-.2-21.3.3-42.7,0-64h-1l-30-1c0-9.3.1-18.7,0-28-.3-22.3,0-44.7,0-67v-32c-1.1,42.5-2,85.4-1,128,.2,8,1.2,16.1,1.3,24.2l.7-23.2h29v62h-61c-.3-10.3.4-20.7,0-31-.4-10.3-.9-20.6-1-31v-1h-1v31l-126,1c9.7,0,19.4.2,29,0h1c21.3-.3,42.7-.3,64,0Z"/>
    <path class="st0" d="M277.3,774.2l-.3,7.8c.2-2.6.3-5.2.3-7.8Z"/>
    <polygon class="st0" points="244 622 245 622 245 591 244 622"/>
    <path class="st0" d="M246,623l28-1h-29v32c0,32-.4,64,0,96h1v-127Z"/>
    <path class="st0" d="M242,750h-51c16.9.5,34.1,0,51,0Z"/>
    <path class="st0" d="M186,750h-4c1.5,2.3,3.7,0,4,0Z"/>
    <path class="st0" d="M628,590c21,0,42,0,63,0l-63-1v1Z"/>
    <path class="st0" d="M692,622h1l-1-32v32Z"/>
    <path class="st0" d="M248,590c9.3,0,18.7.2,28,0h1c10.3-.2,20.7,0,31,0v-32c-7.8-.1-16.8.3-25.9.6l24.9.4v30l-59,1Z"/>
    <path class="st0" d="M282.1,558.6l-32.1-.6c9.3,1.2,20.8.9,32.1.6Z"/>
    <path class="st0" d="M245,558v-32h-33l32,2,1,30Z"/>
    <path class="st0" d="M130.3,111h15.7c-5-.5-10.4-.2-15.7,0Z"/>
    <path class="st0" d="M130.3,111h-12.3c3.9.3,8.1.2,12.3,0Z"/>
    <path class="st0" d="M117,878v-64c0,21.3,0,42.7,0,64Z"/>
    <path class="st0" d="M853,878v-31c2.4.9,4.5-.8,6-1h-7c0,10.6-.8,21.5,1,32Z"/>
    <polygon class="st0" points="820 240 820 241 850 240 820 240"/>
    <path class="st0" d="M181,495h-27l26,1v30c1.8-10.1,1-20.8,1-31Z"/>
    <path class="st0" d="M629,797c-1.6,5.5-1,11.4-1,17-.2,21,0,42,0,63,.6,0,1.4,0,2,0-.7-26.6,1.4-53.4-1-80Z"/>
    <polygon class="st0" points="660 878 660 815 659 878 660 878"/>
    <path class="st0" d="M468,558h1v-31l-1-1h-127c-2-2.2-.8-25-1-30v-1h-31v31s30.9,1.2,31,1.2v30.8c2.4,0,1.9,1,2,1,31.6-2.1,63.4-.6,95-1,10.3,0,20.7,0,31,0ZM339,525h-29v-29h29v29ZM342,557v-29h125v29h-125Z"/>
    <path class="st0" d="M788,151v-1c-.2-2,0-4,0-6l-1-1c-11,0-22,0-33,0-10-.1-20-.1-30,0l1,32v-31h61v63h2c0-10.6,0-21.4,0-32,0-7.9.5-16.1,0-24Z"/>
    <path class="st0" d="M564,676v24.7c0-8.2.2-16.5,0-24.7Z"/>
    <path class="st0" d="M564,700.7c0,5.5,0,10.9,0,16.3v-16.3Z"/>
    <polygon class="st0" points="596 749 595 718 595 750 596 749"/>
    <path class="st0" d="M564,663c-3-1.5-3.3,8.2,0,7,0-2.3,0-4.7,0-7Z"/>
    <path class="st0" d="M437,336v-2c-32-.4-64,.3-96,0h-1v65h32v32h32l1-1c-.9-10.3.8-20.8,1-31,0-.5-1-1.5-1-2v-30h-2l-1,62h-27l-1-32h-32v-61h95Z"/>
    <path class="st0" d="M308,429c.1-20.3.1-40.7,0-61v-1c0-21.3,0-42.7,0-64v-1h-63v97h32l-31-2v-94h61v190h-29l-.7-62.1c-.7,21.4-2.3,43.4-.3,63.1h1l30,1c0-21.6,0-43.4,0-65v-1Z"/>
    <path class="st0" d="M277,399l.3,31.9c.3-10.9.4-21.6-.3-31.9Z"/>
    <path class="st0" d="M596,302h-64v96c.9-.1,2.8-.2,3,1h61v-97ZM595,397h-61v-94h61v94Z"/>
    <path class="st0" d="M270.5,173c-7.5-.2-17.8-1.2-24.5,2,9.3-.1,18.7,0,28,0,.5-3-1.6-2-3.5-2Z"/>
  </g>
  <g>
    <path class="st4" d="M788.6,142.9c-1.4-1.7-28.1-.9-32.6-.9h-2v1c11,0,22,0,33,0l1,1c0,2-.2,4,0,6v1c.5,7.9,0,16.1,0,24l.6-32.1Z"/>
    <path class="st4" d="M532,686c.1-7,0-14.1,0-21.1v21.1Z"/>
    <path class="st4" d="M532,664.9v-9.9c0,3.3,0,6.6,0,9.9Z"/>
    <path class="st4" d="M452.5,334h-15.5c5.2,0,10.3,0,15.5,0Z"/>
    <path class="st4" d="M382,334h-41c13.7.1,27.3,0,41,0Z"/>
    <path class="st4" d="M452.5,334h15.5c-5.1,0-10.3,0-15.5,0Z"/>
    <path class="st4" d="M382,334h55c-18.3-.2-36.7,0-55,0Z"/>
    <polygon class="st4" points="371 400 372 431 372 399 340 399 371 400"/>
    <path class="st4" d="M405,430l1-30,30-1h-30c-.2,10.2-1.9,20.7-1,31Z"/>
  </g>
  <g>
    <path class="st5" d="M629,942v-32h-33v2c-.2,10,0,20,0,30l-.6,2-121.4-2c-1.7-.2-3.5.5-5-1l-2-158h-30l-1,96c-.2,10.3-.8,20.6,0,31h-94c-.2,9.1.3,18.3,0,27.5,0,2,1,4.1-2,3.5v1l.5,2-186.5-2h-5c.1,11,0,22,0,33h223v-33h96v33h223c1.8-10.9.8-22,1-33-21,.3-42-.2-63,0Z"/>
    <path class="st5" d="M149,910h-32c.2,10.6,0,21.3,0,32,10.6,0,21.4,0,32,0,0-10.6,0-21.4,0-32Z"/>
    <path class="st5" d="M117,783l1-1,126-1v-31h-53c-1.7,0-3.4,0-5,0-.3,0-2.5,2.3-4,0h-1v-63l32-1c.3-21.3-.4-42.7,0-64-10.6.2-21.4,0-32,0v64h-32v64h-32v32h-31v128h31v-127Z"/>
    <path class="st5" d="M756,869c-.2-2.4,0-2.8,0-4v-8l-1-10h-30v62c-1.8-10.1-1-20.8-1-31h-32c-.2,21.3.3,42.7,0,64,4.4,0,31,.8,32-1l-2-30.4,2-.6h127v-31h-95c-.2-3.3.3-6.7,0-10Z"/>
    <path class="st5" d="M244,622l1-31,3-1,59-1v-30l-57-1c-1.6-.2-3.4,0-5,0l-1-30-32-2c-10.4,0-20.8,1-31,1v32h64.1v30.5c-.4,1.2-2.7.2-3.1.5-6.4,4.3-19.3.9-28,2-2.2,4.4-.9,23.7-1,30h31Z"/>
    <path class="st5" d="M374,111h4l249-1,1,33h1c-.4-2.8,1.4-2.8,1,0h3l26-1v-62l-285-1-1,31c.2.3.7,1,1,1Z"/>
    <path class="st5" d="M724,622v32l1,127,30,1,1,1,1,62h29v-127c-10.3-.2-20.7,0-31,0v-96c-10.3,0-20.7.2-31,0Z"/>
    <polygon class="st5" points="786 559 628 559 628 589 691 590 692 590 693 622 706 622 707 622 722 622 722 591 724 591 725 591 786 589 786 559"/>
    <path class="st5" d="M148,495v-2l-1-158h-30v160c10.3,0,20.7-.1,31,0Z"/>
    <path class="st5" d="M661,77h159v-30h-2l-156,1c0,8.8.5,17.3-1,26-.2.9,0,2,0,3Z"/>
    <path class="st5" d="M820,241v31c.7,20.3-.5,40.7,0,61l.6,2c7.2,0,14.3-.2,21.4,0-1.3-2.9,6-3.3,5,0h3l1-89c.2-2-.2-4,0-6h32V111h-17v-1c-4.5,0-9.4,1-13,1l-1,127-2,2-30,1Z"/>
    <path class="st5" d="M148,240v-2l-1-127h-30v129c10.3,0,20.7-.1,31,0Z"/>
    <path class="st5" d="M883,341l-2,2v-7h-28c.6,31.3-.3,62.7-1,94-.2,11,.2,22,0,33,10.3-.1,20.7,0,31,0-2.8-39.2,3.7-83.4,0-122Z"/>
    <path class="st5" d="M181,77h126v-29l-125-1c-1.9,1-.8,25.7-1,30Z"/>
    <path class="st5" d="M883,654h-62c0,10.7.2,21.3,0,32h2c20-.2,40-.2,60,0-.2-10.7,0-21.3,0-32Z"/>
    <path class="st5" d="M916,718c0,10.3,0,20.7,0,31v33c0,10.6.8,21.5-1,32v1c0,.6,1,1,1,1l31-1v-97h-31Z"/>
    <path class="st5" d="M788,686c0,10.6.2,21.3,0,32h32c1.9-1.9,1-27.2,1-32-11,0-22,0-33,0Z"/>
    <path class="st5" d="M916,686c-11,0-22,0-33,0,.2,10.7.8,21.4,1,32h32c-.2-10.6,0-21.3,0-32Z"/>
    <path class="st5" d="M149,259v5c0,3.6,0,7.4,0,11v38c0,1.7,0,3.4,0,5,.4,4.8,1.8,10,1,15h30v-92h-30c.7,2-.8,3.8-1,5-.6,3.7.2,9,0,13Z"/>
    <polygon class="st5" points="372 111 370 111 340 111 340 110 339 79 310 80 310 142 372 141 372 111"/>
    <path class="st5" d="M820,526h-32c0,10.6.2,21.3,0,32v1h32c0-10.6,0-21.3,0-32v-1Z"/>
    <path class="st5" d="M820,111c10.3,0,20.7,0,31,0v-33h-31v33Z"/>
    <path class="st5" d="M883,847v-1c-7.3.8-17-1.2-24,0-1.5.3-3.6,1.9-6,1v32c10-.2,20,0,30,0,0-10.6-.2-21.3,0-32Z"/>
    <path class="st5" d="M149,527c10.3,0,20.7,0,31,0v-31l-26-1h-5v32Z"/>
    <path class="st5" d="M180,109c-.8-10.4.6-20.7,1-31l-32,1,29,.5-29,.5v30h1l30-1Z"/>
    <path class="st5" d="M850,525v-61h-30c-.2,20.3.2,40.7,0,61h30Z"/>
    <path class="st5" d="M180,207v32h1c0-4.9.9-30.1-1-32Z"/>
    <path class="st5" d="M181,495v-32h-31l30,1v31h1Z"/>
    <rect class="st5" x="885" y="816" width="29" height="29"/>
    <path class="st5" d="M630,877c9.7,1.7,19.3.8,29,1l1-63,1-1,62-1v-30c-31.6,1.4-63.5-1.4-95-1-.7,5.1.5,10,1,15,2.4,26.6.3,53.4,1,80Z"/>
    <path class="st5" d="M595,750v-32l-31-1v-47c-3.3,1.2-3-8.5,0-7-.2-3.3,0-6.7,0-10h-32v65l-30,2v29l92,1h1Z"/>
    <rect class="st5" x="470" y="751" width="29" height="30"/>
    <path class="st5" d="M501,718l-1,1c.6.2,1-.6,1-1Z"/>
    <path class="st5" d="M277,591v-1h-1v31.4l-2,.6-28,1v127h28c.5-.2,1.4,0,2,0-1-42.6,0-85.5,1-128v-31Z"/>
    <path class="st5" d="M788,241h31c-10.1-1.9-20.8-1-31-1v1Z"/>
    <polygon class="st5" points="213 272 213 240 182 240 212 241 213 272"/>
    <path class="st5" d="M276,144h-62v61h30l1-30h.9c6.8-3.2,17.1-2.2,24.6-2,2,0,4.1-1,3.5,2h2c-.2-10.3.1-20.7,0-31Z"/>
    <polygon class="st5" points="118 813 118 814 148 814 148 782 147 782 147 813 118 813"/>
    <path class="st5" d="M629,752v-2h-32c0,.4-1,1-1,3.1v21c0,2.2.8,5.4-1,7l-31,1h32c10.3-.5,20.6-1.7,31-1,.2-8.5-.3-17.1,0-25.6,0-2-1-4.1,2-3.5Z"/>
    <path class="st5" d="M533,495v-96h2c-.2-1.2-2.1-1.1-3-1-10.4,1.7-20.6.9-31,1l30,1v93h-30v2c10.6-.2,21.4,0,32,0Z"/>
    <path class="st5" d="M469,367l-1-33c-10.3-.1-20.7,0-31,0v1c.5,0,.9,1,1,1,7.3,1.4,21.2-.3,29-1v31c-5.7-.8-11.4.6-17,1h18c.1,10.6,0,21.4,0,32h2v-31h31l-32-1Z"/>
    <path class="st5" d="M277,495l1-1h-1v1Z"/>
    <path class="st5" d="M246,813h61v-62h-29l-1,31h-31c.4,10.3-.3,20.7,0,31Z"/>
    <polygon class="st5" points="786 144 725 144 725 175 756 175 757 207 786 207 786 144"/>
    <rect class="st5" x="342" y="528" width="125" height="29"/>
    <rect class="st5" x="310" y="496" width="29" height="29"/>
    <path class="st5" d="M342,336v61h32l1,32h27l1-62h34c2-.1,4,0,6,0l-5-1c-1.8-1.4-1-25.8-1-30h-95Z"/>
    <polygon class="st5" points="307 493 307 303 246 303 246 397 277 399 278 493 307 493"/>
    <rect class="st5" x="534" y="303" width="61" height="94"/>
  </g>
  <g>
    <path class="st1" d="M309,78v1h29c-9.3-1.7-19.5-1.2-29-1Z"/>
    <path class="st1" d="M340,910l-1,31h-189v-31h126v-32h33v-64h-3c-19.9.2-40,2-60,1l-1,62-1,1-95,1c0,10.3.1,20.7,0,31,0,10.6,0,21.4,0,32h5c62,.6,124-.5,186,0v-1c.8-10.2-.5-20.8,0-31Z"/>
    <path class="st1" d="M469,910h-1c0,10.2,1.9,20.7,1,31,1.5,1.5,3.3.8,5,1,7.4.9,17.2,0,25,0l-29-1-1-31Z"/>
    <path class="st1" d="M596,912l-1,29h-32v1h33c0-10-.2-20,0-30Z"/>
    <path class="st1" d="M788,303h31l1,30c-.5-20.3.7-40.7,0-61l-32-1-1-30-30-1-1-32-32-1v-32h-32l1-32c20.2-1.6,40.7-1.3,61-1h2v-31c-21.6.6-43.4-.8-65,0h-1c-9.3.4-18.6,1.8-28,1l-1,31h-33c-10.7-.2-21.4,0-32,0v-31h-191v31h158v32h65v32h32v33h32v63h32v96h-32v64h-32v32h-32v31c-42.3-.3-84.7.4-127,0-10.2,0-20.9-.8-31,1l-1,31h-1l-30,2-1,29-1,1-159,1v63h31v-32h224v-32c21.3,0,42.7,0,64,0l1-32h33l29-1,1-31h32v-31h32v-32h32v-32h32v-128Z"/>
    <path class="st1" d="M403,111h-29c9.6.5,19.4,2.6,29,0Z"/>
    <path class="st1" d="M692,654v-63h-64v31h32v128h-30v31h62v-31h31l1-95v-25l-1,24h-31Z"/>
    <path class="st1" d="M706,622h-13l31,1v-1h-18Z"/>
    <path class="st1" d="M819,241c-.8,9.7.6,19.4,1,29v-62l1-1,29-1v-31h-61c1,21.3-.8,42.8-1,64v1c10.2,0,20.9-.9,31,1Z"/>
    <path class="st1" d="M820,111v-31h-32v31c10.7,0,21.3,0,32,0Z"/>
    <rect class="st1" x="820" y="112" width="30" height="31"/>
    <path class="st1" d="M181,239v1h63v-32l-31-1h-1v-64c-10.6,0-21.4-.1-32,0v32h-30v31l30,1c1.9,1.9,1,27.1,1,32Z"/>
    <polygon class="st1" points="277 111 307 111 307 80 276 80 276 111 212 111 212 142 276 142 277 111"/>
    <path class="st1" d="M277,175c20.6-.2,41.4.2,62,0v-31l-29-1h-33v32Z"/>
    <path class="st1" d="M245,654l-2,96h2c-.4-32,0-64,0-96Z"/>
    <path class="st1" d="M274,750h-29v1c9.2-1,20,1.7,29-1Z"/>
    <path class="st1" d="M118,782l-1,1v31h1v-31h29v-1c-9.7.2-19.3,0-29,0Z"/>
    <path class="st1" d="M916,782l-1-32h-31c-3-3,0-26.8,0-32-.2-10.6-.8-21.3-1-32-20-.2-40-.2-60,0l59,1v31h-29v32h-32l-1,32-31,1v63h63v-31h31v-33h32c.3,10.6-.4,21.4,0,32,1.8-10.5,1-21.4,1-32Z"/>
    <path class="st1" d="M916,749c0-10.3,0-20.7,0-31h-31l30,1,1,30Z"/>
    <path class="st1" d="M789,718h-1c-.3,21.3,0,42.7,0,64h1v-64Z"/>
    <path class="st1" d="M181,495h32v-64h-32l-1-95h-30c-.2,42,.8,84-1,126v1h32v32Z"/>
    <path class="st1" d="M181,301v2h31v-30h-30c.8,8-.6,16.1-1,24v4Z"/>
    <path class="st1" d="M340,781l-1-30-12-1c-1.6,0-3.4,0-5,0-3.6.3-7.9,1.9-12,1v63c10,0,20,0,30,0v32h94v-63l-93-1-1-1Z"/>
    <path class="st1" d="M596,783c10,1,20.2-.8,30-1h-30c-10.3.5-20.7,2.5-31,0h-2v32h33l-1,64h-31c-1.8,1-1,27.7-1,32h33c.2-10.6,0-21.3,0-32h31v-63l-30-1-1-31Z"/>
    <polygon class="st1" points="660 815 660 878 662 877.4 662 815 723 814 661 814 660 815"/>
    <path class="st1" d="M501,782c-.6,0-1.5-.2-2,0-9,2.7-19.8,0-29,1v31h31c.1-10.7-.2-21.4,0-32Z"/>
    <path class="st1" d="M436,782h31v-32h-31c0,10.7.1,21.3,0,32Z"/>
    <path class="st1" d="M502,718l29-1v-31h-31c-.3,10.8,0,21.3,1,32h1Z"/>
    <path class="st1" d="M470,750l29-1v-31h-31c-.3,10.8,0,21.3,1,32h1Z"/>
    <path class="st1" d="M563,751h32v30c1.8-1.6,1-4.8,1-7v-15c0-2,0-3.9,0-6s1-2.7,1-3c0-.3-.6-.9-1-1l-1,1h-1c-10.3,0-20.7,0-31,0v1Z"/>
    <path class="st1" d="M245,176c-.2,10.3.2,20.7,0,31,4.2-.1,31.2.8,32-1-1.9-9.8-1-20.1-1-30h-31Z"/>
    <path class="st1" d="M212,782h0v31.6c11,.9,22.2.2,33.1.4v-32c-11,0-22,0-33,0Z"/>
    <rect class="st1" x="565" y="686" width="31" height="31"/>
    <path class="st1" d="M277,749h30v-31c-9,1.5-23.5-3.4-30,3,.1,9.3,0,18.7,0,28Z"/>
    <path class="st1" d="M339,558v-30l-30-2-2-30-30-1-2.5-9-.5,9h0c0,0-60,.9-60,.9v29l31,1v2c3-.5,2,1.6,2,3.5.3,8.5-.2,17.1,0,25.6l91,1h1Z"/>
    <rect class="st1" x="118" y="847" width="29" height="31"/>
    <path class="st1" d="M628,782h-1v32h1c0-5.6-.6-11.5,1-17-.5-5-1.7-9.9-1-15Z"/>
    <rect class="st1" x="502" y="910" width="60" height="31"/>
    <rect class="st1" x="502" y="751" width="60" height="30"/>
    <path class="st1" d="M470,910h31v-31h-31v31Z"/>
    <path class="st1" d="M342,559c31.5.5,63.4,2.5,95,0v-1c-31.6.4-63.4-1.1-95,1Z"/>
    <path class="st1" d="M341,526l126-1,1-30c11-.1,22,.2,33,0v-2c-.7-31.3-1.6-62.6-1-94h-32c.3,21.3-.2,42.7,0,64l-31,1-1,30-1,1h-93c-.6,0-1.4.8-2,1,.2,5-1,27.8,1,30Z"/>
    <path class="st1" d="M339,464h-29v29l24,2h5l1-1v-1c-.4-9.6-1.8-19.3-1-29Z"/>
    <path class="st1" d="M406,368c9.7.7,19.4-.5,29-1h-30v30c.4-9.6,1.8-19.3,1-29Z"/>
    <path class="st1" d="M438,336c0,0-.5-1-1-1v1c0,4.2-.8,28.6,1,30v-30Z"/>
    <rect class="st1" x="310" y="368" width="29" height="31"/>
  </g>
  <g>
    <path class="st2" d="M852,111h-1c-10.3,0-20.3,0-31,0s-21.3,0-32,0v-31h32v-1c-43-.2-86,.2-129,0v32c21.6-.8,43.4.6,65,0v31c4.5,0,31.3-.9,32.6.9l-.6,32.1c0,10.6,0,21.4,0,32v32c.2-21.2,2-42.7,1-64h61v31l-29,1h31c.5-32-.5-64,0-96ZM850,143h-30v-31h30v31Z"/>
    <path class="st2" d="M149,207h31l-30-1v-31h30v-32c10.6-.1,21.4,0,32,0,21.6-.3,43.4,0,65,0h32v-65h-1c-42.3,1-84.7,1.3-127,1v32h-31c-.5.6-.9,1.2-1,2-.2,1.3,0,2.7,0,4v1c-.7,29.6.6,59.4,0,89ZM212,111h64v-31h31v31h-30l-1,31h-64v-31Z"/>
    <path class="st2" d="M150,336h30v-1l-31-1-1,1,1,127c1.8-42,.8-84,1-126Z"/>
    <path class="st2" d="M660,526l-1,31-29,1c10,0,20,0,30,0v-32Z"/>
    <path class="st2" d="M660,143h-13.5c4.5,0,9,0,13.5,0Z"/>
    <path class="st2" d="M633,143h13.5c-4.5,0-9,0-13.5,0Z"/>
    <path class="st2" d="M628,590h-32c-21.3,0-42.7,0-64,0v32h-224v32h-31c0,22.3-.3,44.7,0,67,6.5-6.4,21-1.5,30-3,1.8,1,1,27.6,1,32,.3,21.3-.2,42.7,0,64h2v-63l12-1c1.6,0,3.4,0,5,0h13v31l1,1,93,1v63h2c.1-21.3-.3-42.8,0-64,.1-10.7,0-21.3,0-32h31v32l1-31,1-1c-1-10.7-1.3-21.2-1-32h31v31l-29,1h30v-31l1-1c-1-10.7-1.3-21.2-1-32h31v31l-29,1h30c0-10.7-.2-21.3,0-32v-33h32c0,3.3-.2,6.7,0,10,0,2.3,0,4.7,0,7v6c.3,13.6-.2,27.4,0,41l31,1,1,31c.4,0,1,.7,1,1h32v32c21,0,42-.2,63,0v-1h-62v-31h30v-128h-32v-31h64v-1h-1c-21,0-42,0-63,0ZM596,717h-31v-31h31v31Z"/>
    <path class="st2" d="M245,528h0v30.1c1.6,0,3.4-.2,5,0,16.7,2.1,40.3-.3,58,0,10,.2,20-.2,30,0l-91-1c-.2-8.5.3-17.1,0-25.6,0-2,1-4.1-2-3.5Z"/>
    <path class="st2" d="M788,846h1v-63l31-1h-32v64Z"/>
    <polygon class="st2" points="915 750 916 782 916 750 915 750"/>
    <path class="st2" d="M662,112c9.3.8,18.7-.6,28-1h-29c0,10.6-2.5,21.3,0,32l1-31Z"/>
    <path class="st2" d="M339,558s1,0,.9,0v-30.8l-30.9-1.2,30,2v30Z"/>
    <path class="st2" d="M724,303h-32v-63h-32v-33h-32v-32h-65v-32h-253l29,1v31c-20.6.2-41.4-.2-62,0v31c-.8,1.8-27.8,1-32,1,0,4.5.9,32-1,33h-31v32c0,10.2.8,20.9-1,31h-31c-.3,10.6.1,21.4,0,32-.4,32,.3,64,0,96h32v95h32l-31-1v-29l60-1,.5-9,2.5,9v-1c-3-29.8,2.3-64.6,0-95h-32v-97h63v1c0,21.3,0,42.7,0,64l31,1v31h-29v-31h-2c.1,20.3.1,40.7,0,61v1c0,21.6,0,43.4,0,65l-30-1-1,1,30,1,2,30v-31h25l-24-2v-29l30-1v33c.6-.2,1.4-1,2-1,28.1-3.7,64.1,2.8,93,0l1-1v-31h32c-.2-21.3.3-42.7,0-64,0-10.6,0-21.4,0-32h-18c-2.3.2-4.7-.2-7,0-2,0-4-.1-6,0l-1,32-30,1-1,30-1,1h-32l-1-31-31-1v-65h128l1,33,32,1v31c10.4-.1,20.6.7,31-1v-96h64v97h-63v96c-10.6,0-21.4-.1-32,0,.2,10.3-.2,20.7,0,31,42.3.4,84.7-.3,127,0v-31h32v-32h32v-64h32v-96Z"/>
    <path class="st2" d="M181,272v25c.4-7.9,1.8-16,1-24h30l-31-1Z"/>
    <path class="st2" d="M628,814h-31l30,1v63l1-1c0-21-.2-42,0-63Z"/>
    <path class="st2" d="M245,814c-10.9-.1-22.1.5-33-.4v-31.6c-21.3-.3-42.7-.3-64,0v32h-31c0,21.3,0,42.7,0,64h1v-31l30-1v32h96l1-1,1-62c20,1,40.1-.8,60-1-20.3-.2-40.7.3-61,0Z"/>
    <path class="st2" d="M563,782v-32c-20.6.2-41.3-.2-62,0,0,10.6.2,21.4,0,32s.1,21.3,0,32h-31v-31c9.2-1,20,1.7,29-1h-30c.5,42.6-1,85.4-1,128h2v-31h31v63c20.6.3,41.4,0,62,0v-32c0-4.3-.8-31,1-32h31l1-64h-33v-32ZM562,941h-60v-31h60v31ZM562,781h-60v-30h60v30Z"/>
    <path class="st2" d="M596,111c-63.6.5-127.4,0-191,0v1h191v-1Z"/>
    <path class="st2" d="M308,590c-10.3,0-20.7-.2-31,0v1l159-1c-42.6.2-85.4-.3-128,0Z"/>
    <path class="st2" d="M437,589l1-29,30-2c-10.3,0-20.7,0-31,0v31Z"/>
    <path class="st2" d="M693,143c10.3-.1,21,0,31,0,10-.1,20-.1,30,0v-1c-20.3-.3-40.8-.6-61,1Z"/>
    <path class="st2" d="M788,241v-1h-31l30,1,1,30v-30Z"/>
    <polygon class="st2" points="469 558 470 527 469 527 469 558"/>
    <path class="st2" d="M597,558h9.5c-3.2,0-6.4,0-9.5,0Z"/>
    <path class="st2" d="M627,558h-20.5c6.8,0,13.6.1,20.5,0Z"/>
    <path class="st2" d="M723,750h1c.2-31.6,0-63.3,0-95l-1,95Z"/>
    <path class="st2" d="M244,208v-1h-31l31,1Z"/>
    <path class="st2" d="M246,175h-1v1h31v-1h-2c-9.3,0-18.7-.1-28,0Z"/>
    <polygon class="st2" points="307 750 307 749 277 749 307 750"/>
    <polygon class="st2" points="468 495 467 525 341 526 468 526 468 495"/>
    <path class="st2" d="M596,782h-31c10.3,2.5,20.7.5,31,0Z"/>
  </g>
  <g>
    <path class="st3" d="M660,558c42.7-.2,85.3.2,128,0,.2-10.7,0-21.4,0-32h32v-1c.2-20.3-.2-40.7,0-61,10.1-1.8,20.8-1,31-1h1c.2-11-.2-22,0-33v-95h-10c-7.1-.2-14.3,0-21.4,0l-.6-2-1-30h-31v128h-32v32h-32v32h-32v31h-32v32Z"/>
    <path class="st3" d="M563,941h32l1-29v-2h-33v31Z"/>
    <path class="st3" d="M756,783l-1-1c-10.3,0-20.7,0-31,0,0,4.9.9,30.1-1,32l-61,1v62.4l-2,.6h-1c-9.7-.2-19.3.7-29-1-.6,0-1.4,0-2,0l-1,1h-31c0,10.6.2,21.3,0,32h33v32c21-.2,42,.3,63,0,.3-21.3-.2-42.7,0-64h32v-32c10.6,0,21.3,0,32,0-.2-21,0-42,0-63Z"/>
    <path class="st3" d="M724,750h-32v32c10.7,0,21.3,0,32,0,.2-10.6,0-21.3,0-32Z"/>
    <path class="st3" d="M915,782h-32v33h-31v31h7c7-1.2,16.7.8,24,0,.2-4.2-.8-29.5,1.2-30.8l30.8-.2v-1c-.4-10.6.3-21.4,0-32Z"/>
    <path class="st3" d="M788,846c-10.7,0-21.3,0-32,0v23c.3,3.3-.2,6.7,0,10,31.3-.3,62.7.4,94,0h3v-1c-1.8-10.5-1-21.4-1-32h-64Z"/>
    <path class="st3" d="M661,111h30v-32c-10,0-20.2-1-30-1-95.6-.4-191.4-.5-287,1h286c-1,10.6,1,21.5,1,32Z"/>
    <path class="st3" d="M148,238v2h1c10.2,0,20.9.9,31-1v-32h-31c-.2,10.3-1,20.6-1,31Z"/>
    <path class="st3" d="M212,526h1v-31h-32c0,10.2.8,20.9-1,31v1h1c10.2,0,20.6-1,31-1Z"/>
    <path class="st3" d="M180,464l-30-1h-1c-.5,10.1-1,19.9-1,30v2h32v-31Z"/>
    <path class="st3" d="M146,111h1c.5,0,1.4,1.5,2,2,.1-.8.5-1.4,1-2v-1h-1c-10.6.2-21.5-1-32,1h1c9,.7,19.1-.9,28,0Z"/>
    <path class="st3" d="M373,143h32v-32h-2c-9.6,2.6-19.4.5-29,0-.3,0-.8-.7-1-1h-33v1h32l1,32Z"/>
    <path class="st3" d="M866,110v1h17c-1-1.8-14.2-1-17-1Z"/>
    <path class="st3" d="M340,846v-32c-10,0-20,0-30,0h-1v64h-33v32h-126v31h189l1-31h96c-.8-10.4-.2-20.7,0-31,.2-11,0-22,0-33h-96Z"/>
    <path class="st3" d="M627,110c-10.3-1-20.8,1-31,1v32c10.6,0,21.3-.1,32,0l-1-33Z"/>
    <path class="st3" d="M692,654h31l1-24v-7l-31-1h-1v32Z"/>
    <path class="st3" d="M852,238c0-10.3-.2-20.7,0-31h-31l-1,1v32h30l2-2Z"/>
    <path class="st3" d="M191,750c16.9.5,34.1,0,51,0h1l2-96v-32h-32c-.4,21.3.3,42.7,0,64l-32,1v63h5c1.6,0,3.3,0,5,0Z"/>
    <path class="st3" d="M276,621.4v-31.4c-9.3.2-18.7,0-28,0l-3,1v31h29l2-.6Z"/>
    <path class="st3" d="M628,558h-1c-10,.2-20,0-30,0l-1,32h32v-32Z"/>
    <path class="st3" d="M244,878h-96v-32l-30,1h29v31h-30v32h32c.1-10.3,0-20.7,0-31l95-1Z"/>
    <path class="st3" d="M915,719l-30-1h-1c0,5.2-3,29,0,32h32v-1l-1-30Z"/>
    <path class="st3" d="M788,241v30l32,1v-2c-.4-9.6-1.8-19.3-1-29h-31Z"/>
    <path class="st3" d="M789,718v64h31l1-32h32v-32h29v-31l-59-1h-2c0,4.8.9,30.1-1,32h-31Z"/>
    <path class="st3" d="M212,273v30c1.8-10.1,1-20.8,1-31l-1-31-30-1h-1c.2,10.6,0,21.4,0,32l31,1Z"/>
    <path class="st3" d="M180,335v1l1,95c.3-32-.4-64,0-96h-1Z"/>
    <path class="st3" d="M468,751c.6.2,1-.6,1-1l-1,1Z"/>
    <path class="st3" d="M470,941l29,1h2v-32h-32l1,31Z"/>
    <path class="st3" d="M342,559c0,0,.4-1-2-1h-2c-10-.2-20,.2-30,0v32c42.6-.3,85.4.2,128,0l1-1v-30c-31.6,2.5-63.5.5-95,0Z"/>
    <path class="st3" d="M724,207l32,1,1,32h31v-33h-31l-1-32h-31l-1-32c-10.3,0-20.7-.1-31,0l-1,32h32v32Z"/>
    <path class="st3" d="M501,495c-11,.2-22-.1-33,0v31l1,1h1c10.1-1.8,20.8-1,31-1-.2-10.3.2-20.7,0-31Z"/>
    <path class="st3" d="M245,207h-1v33c1.9-1,.9-28.5,1-33Z"/>
    <path class="st3" d="M277,175h-1v1c0,9.9-.9,20.2,1,30v-31Z"/>
    <path class="st3" d="M277,782c.9-10.7-.8-21.4-1-32-.6,0-1.5-.2-2,0-9,2.7-19.8,0-29,1,.1,10.4.6,20.7,1,31h31Z"/>
    <rect class="st3" x="118" y="783" width="29" height="30"/>
    <polygon class="st3" points="340 750 327 750 339 751 340 781 340 750"/>
    <path class="st3" d="M307,718v32h1c0-4.4.8-31-1-32Z"/>
    <path class="st3" d="M310,751c4.1.9,8.4-.7,12-1l-12,1Z"/>
    <path class="st3" d="M501,368h-31v31h30c-.6,31.3.3,62.7,1,94h30v-93l-30-1v-31Z"/>
    <polygon class="st3" points="308 367 308 368 339 368 308 367"/>
    <path class="st3" d="M596,783l1,31h30v-32h-1c-9.8.2-20,2-30,1Z"/>
    <path class="st3" d="M564,782l31-1v-30h-32v31h1Z"/>
    <path class="st3" d="M340,494l-1,1h1v-1Z"/>
    <path class="st3" d="M437,367h-2c-9.6.5-19.3,1.7-29,1,.8,9.7-.6,19.4-1,29,0,.5,1,1.5,1,2h30l1-32Z"/>
    <path class="st3" d="M438,366l5,1c2.3-.2,4.7.2,7,0,5.6-.4,11.3-1.8,17-1v-31c-7.8.7-21.7,2.4-29,1v30Z"/>
    <path class="st3" d="M435,495h-40.1c13.9.7,27.6,1.2,40.1,0Z"/>
    <path class="st3" d="M342,495h52.9c-18.4-.9-36.9-2.1-52.9,0Z"/>
    <polygon class="st3" points="436 463 436 494 437 464 468 463 436 463"/>
    <path class="st3" d="M340,463l-30,1h29c-.8,9.7.6,19.4,1,29v-30Z"/>
  </g>
</svg>