<svg width="80" height="80" viewBox="0 0 80 80" fill="none" xmlns="http://www.w3.org/2000/svg">
<path d="M35 21.667H38.333V28.334H41.667V31.667H45V35H48.333V38.334H51.667V41.667H55V45H61.667V48.334H65V51.667H71.667V55H68.333V58.334H60.833V55H55V51.667H51.667V55H48.333V61.667H41.667V58.334H45V55H38.333V61.667H31.667V58.334H35V55H31.667V51.667H28.333V48.334H25V45H21.667V35H8.33301V28.334H11.667V25H15V21.667H21.667V18.334H35V21.667ZM38.333 48.334H48.333V45H38.333V48.334ZM35 45H38.333V41.667H35V45ZM31.667 41.667H35V38.334H31.667V41.667ZM15 31.667H21.667V28.334H15V31.667ZM25 28.334H28.333V25H25V28.334Z" fill="#F3F4F6"/>
</svg>
