<?xml version="1.0" encoding="UTF-8"?>
<svg id="_레이어_1" xmlns="http://www.w3.org/2000/svg" version="1.1" viewBox="0 0 1024 1024">
  <!-- Generator: Adobe Illustrator 30.1.0, SVG Export Plug-In . SVG Version: 2.1.1 Build 136)  -->
  <defs>
    <style>
      .st0 {
        fill: #014a4a;
      }

      .st1 {
        fill: #4cdfd2;
      }

      .st2 {
        fill: #c0fff3;
      }

      .st3 {
        fill: #29aba6;
      }

      .st4 {
        fill: #072628;
      }
    </style>
  </defs>
  <g>
    <path class="st4" d="M927,640v-32h-95v32h-31v32h-32v64h-33v-63l-1-1c-10.3-.1-20.7.2-31,0,0-3.7,0-7.3,0-11v-2c0-3.6-.2-7.4,0-11v-2c0-.7,0-1.3,0-2-.4-1.7-.3-2.7,1-4h31v-31h32v-32h31l1-1c0-10-.1-20,0-30-.5-1.9-1-2.7-2-1-9.5-.6-19-.7-28.6-.4-.4-2.3-1.1-1.9-1.4.4l-2,1.4c-.9,2.7-1.1,25.5-.9,29.7,0,.6,1.2.9,2,1-10-.4-20-.4-30,0-10.6-.5-21.3-.5-32,0-.9.4-.9.7,0,1l-2,1.4v26.5c-10.1-.8-19.8,0-29,2.1-.6-1.9-1.4-1.9-2,0-2.9,10.8-2.9,22.2,0,33-.5.7-1,1.3-1.3,2.1-.8,1.7-1.1,24.3-.5,27,.9,4.2,6,5.8,7.8,2,1.3,1.4,3.3,1.4,6,0,.6,1.9,1.4,1.9,2,0h6c.6,1.9,1.4,1.9,2,0,3.4.4,6.7.4,10,0l-1.2.8c1.8,9.5,2,20.4.2,30.2-1.9.6-1.9,1.4,0,2,.6,10.2,1.3,20.6,2,31-.9.5-.9.8,0,1,.4.9.7.9,1,0,9.4.7,18.9.9,28.6.7,1.2.5,1.6,3,1.4,7.3,0,7.2,0,14.3,0,21.5l1,.5c-1.9.6-1.9,1.4,0,2-1.5,21.2-1.6,42.8,0,64l-1,.7c.9,31.5.6,63-1,94.3l-1.4-2c-3.9-.3-28.6-.5-29.8,1-.6.7-.8,1.5-.7,2.4.5,10.4.2,20.6-1,30.5-1-2.5-2.4-2.9-2.9,0-9.3-.8-18.3-.8-27.1,0-20.9.2-41.7-.2-62.5-1.4l-.5-29.6c.9-1.8.4-2.3-1-1h-15l-2,1.5c-.7,2.6-.4,23.7,0,29.1-3.5-1-10.4-1-13-.7v-58.8c5.6.7,24.6-.3,30.2-1,.6,0,.8-1.2.8-2v-63c.3-10.6.7-21.3,1-32,9,3,20.1,3.2,29,0,.6,1.9,1.4,1.9,2,0,.8-10.6.8-21.4,0-32-.6-1.9-1.4-1.9-2,0-9.3-3-20.8-3.2-30,0l-2,1.4c-.7,5.1-.7,20.9-.1,27.5-6.3-.5-24.3-.8-29,0-.6.1-.8,1.2-.9,2-3.2,10.3-3,22.6,0,33-2.1,9.6-2.9,19.6-2.1,30h-28l-.9,2c-.4-.9-.7-.9-1,0-.8,21-.8,42,0,63-3.3,9.8-2.3,20.7-1.1,30.9-10.2-1.2-21-2.2-30.9,1.1-15.8-.3-31.7-.5-47.5-.9l-.5-30.1c.9-.4.9-.7,0-1h-17c-.9.4-.9.7,0,1l-.5,29.6c-1.4.2-1.8.6-1.2.9h-27.8c0-.3,0-.5-.1-.6-1.4-19.1-1.4-42.8,0-61.1,0,0,0-.1.1-.2l30.5-.5c.9-.4.9-.7,0-1,.2-10.3.6-20.4,1.3-30.2l-1.3-.8c.4-10.5.4-21.2,0-32-.4-.9-.7-.9-1,0l-.7-1-28.9.5c-.8-10.7-1.3-21.5-1.4-32.5-.4-.9-.7-.9-1,0h-31c-1.8-.9-2.3-.4-1,1l-.5,125.8c-10,1-20.2,1.4-30.5,1.2-1.8-.9-2.3-.4-1,1l-.5,29.6c-1.4.2-1.8.6-1.2.9h-43.8c0-.3-.1-.6-.2-.8-.7-10-1.1-20.3-1.3-30.7h-16c-.4-.9-.7-.9-1,0l-.5,30.5c-1.4.2-1.8.6-1.2,1h-27.8c0-.3,0-.5-.1-.6-1.4-19.1-1.4-42.8,0-61.1,0,0,0-.1.1-.2l30.5-.5c.9-.4.9-.7,0-1,.4-21,.4-42,0-63,.9-11,.7-22.1,0-33,.7-21,.7-42,0-63,.7-21.7.7-43.3,0-65,3.2-9.4,3-20.5,0-30,10.4-.3,20.7-.7,31-1l2-1.5c1-5.2.5-24.8,0-30.6,0-.6-1.2-.8-2-.9-10.3-.5-20.7-.5-31,0-6-3.2-16.7-2.8-23,0h-7c-.4-.9-.7-.9-1,0v-30c.3.8.7,1.7,1.5,2,1.3.5,24.6-.6,27.7-.9.5,0,.8-1.2.8-2l-61.5-.5c-1-1.4-1.8-28.7-1-30.1,2.2-.4,1.8-1.1-.5-1.5-.9-1.8-1.7-1.9-2,0l-28.6-.5c-.4-2.2-1.1-1.7-1.4.5.7-10.7.7-21.3,0-32l.5-30.6c2.2-.4,1.8-1.1-.5-1.5l-1.1-2c-9.6.6-19.3.7-28.9.5v-92.4c4.1.5,24.7.2,28.1-.1.5,0,.8-1.2.9-2,.4.9.7.9,1,0,.4-21.3.4-42.7,0-64,.9-.5.9-.8,0-1,.7-21.3.7-42.3,0-63l.9-159.5,30.1-.5c.4.9.7.9,1,0l.5-30.5c1.4-.2,1.8-.6,1.2-1h27.8c.3,1.4.6,1.7,1,1.2l.5,29.3c-.9.4-.9.7,0,1l30.5.5c.2,1.5.5,2,1,1l.5,29.6c-.9.4-.9.7,0,1l30.5.5c.9,10,1.4,20.2,1.5,30.5l1.4,2,28.5.4,1.1,28.7,2,.9c10.2,1.7,20.8,1.6,31,0,10.9,1.6,22.1,1.5,33,0,10.3,1.5,20.7,1.5,31,0,32.3,2.8,64.7,2.8,97,0,.2,1.2.6,1.7,1.5,1h30.2l.3-1,1.5,2c5.8.8,23.6.7,29.7,0,.6,0,.8-1.2.9-2,.2,1.2.6,1.7,1.4,1h28.7s.9-1,.9-1l1-.6,1-31.4,1.4,2c5.1.5,24.3.9,28.7,0,.6-.1.8-1.2.9-2,.8-9.3.8-18.7,0-28,2.5-.8,2.7-1.7,0-2l32-1c.9-.4.9-.7,0-1l.5-29.6c.2,0,.5,0,.6-.1,9.8-.7,19.7-1.1,29.9-1.3.6-.2,1-.4,1-.6.5-10,.5-20.8,0-30.4v-1l.7,1.3c4-1.2,29.8-1.5,29.8.1l.5,29.6c-.9.4-.9.7,0,1l32,1c-3,52.9-3.1,106.1,0,159-2.7,21.3-2.8,42.7,0,64-2.5,10.7-2.5,21.3,0,32-3.1,20.6-3.4,42.4,0,63-3,10.5-3.1,22.5,0,33,10,.6,20.2.8,30.5.5.2,1.4.6,1.7.9,1.3l-.5,29.2c-2.6-1.7-6.3-1.7-8,1-5.9-1.4-15.2-1.7-21,0-.6-1.9-1.4-1.9-2,0-3.2,10.1-3,21.8,0,32-3.1,10.2-3,21.8,0,32h32v-33h31v-128h-31V64h-32v-32h-96l-.5,32h-30.5v30.5l-1.5,1.5h-30.5v32h-32v32h-225v-32h-32v-32h-32v-32h-33v-32h-94v32h-32v320h-33v128h33v33c0,1.6,29.2,0,32,0h0c0,21.4,0,42.7,0,64h32v31h30.5l1.5,1.5v254.5h-32v97h512l-1-32h32v-32h64v-32h31v-32h32.5l.5-32h31v-64h32v-129h-32Z"/>
    <path class="st4" d="M769,514c9.8.1,20.4.8,30-1h-36c1.3,1.7,4.1,1,6,1Z"/>
    <path class="st4" d="M321,225c.4-11.2.4-22.2,0-33h-1c-10.3-.2-20.7,0-31,0v-32h-1l-29.6-.5c-.3-1.4-.6-1.8-1-1.2l-.5-29.3-1-1h0s-32,0-32,0v1c0,10.3.1,20.7,0,31h33v97c.3,1.5.8,1.8,1.4.5l29.6-.5,1-1,.5-29.6c1.5-.2,2-.5,1-1l29.6-.5h1Z"/>
    <path class="st4" d="M737,288l2-1.4c.4-3.8,1.3-28.7.3-30.1-1.2-1.6-3.2-1.7-3.3.5-.4,10.3,0,20.6,1,31Z"/>
    <path class="st4" d="M765,161.9l1.9,96.4,2,.7v-2c.4-43,.4-86,0-129h-1,0c-10.5-.4-20.9-.4-31.2,0-1.9,10.4-1.4,21.5-.8,32.1l-.7-1.3c-9.9.7-20,1.2-30.3,1.3-1.1.9-1.4,2.5-1,4.7-.3,7.7-.3,16.7,0,24.5,0,.1.4.2,1,.3-7.8,2.3-16.7,3-26.7,2l-5.3.5h-1v31l33,2v32l29.6.5c.8,1.4,1.4,1.2,1.4-.5.9-4.9,1.8-9.9,1.8-14.9.2-22.4.1-44.8,0-67.2,0-5-.8-10-1.7-14.9,9.6,1.5,19.3,2.3,29,1.9Z"/>
    <path class="st4" d="M768,321c.2,10.6.6,21.4,1,32h20c-6.3-.4-12.6-1.8-19-1v-31h-2Z"/>
    <polygon class="st4" points="737 576 738 576 737 546 737 576"/>
  </g>
  <path class="st2" d="M927,672l-30-1-1-28.8-1-.2c-9.3-.8-19.9-.8-29,0-.7,9.9-1.1,19.9-1,30h0s-33,0-33,0c0,11,.1,22,0,33-3,10.4-3,21.6,0,32l-1.4-2c-3.4-.8-23.3-.4-27.7,0-.6,0-.8,1.2-.9,2-.8,10.5-1.1,21.2-1,32h-1l-2,1.4c-.8,5.4-.7,23,0,28.7,0,.6,1.2.8,2,.9l1.5,2c1.8.6,26.1.3,29.7,0,.2,0,.3-.1.4-.3-2.5,9.5-2.7,21.2.5,30.3,10.1.6,20.4.8,30.8.5v-28.2c.6.9.9.5,1.2-1.3,0-.7,0-1.3,0-2,1.9-.6,1.9-1.4,0-2v-27c2.5-.8,2.7-1.7,0-2,.6-1.7.3-2.3-1-1l-1.4-2c-5.1-.9-22.4-1.4-27.7-.9-.6,0-.8,1.2-1,2,.5-10.5.1-20.8-1-31,1.1,1.9,2.1,2.6,2.4.4,9.6-.3,19.1-.3,28.7,0,.4,2,1.3,1.5,1.9-.4l.5,31.5,5.5.5c1.2.6,3,.8,4,0l20.6-.5.4-1c-.5-10.5-.2-20.6,1-30.5h1l1.8-.7c8.3-.2,17.5-.4,27.7-.7l-.4-63.6Z"/>
  <g>
    <path class="st3" d="M704,644l1-4c-3.7,1.1-1,3.8-1,4Z"/>
    <path class="st3" d="M704,646.4v1.6c0-.6,0-1.2,0-1.6Z"/>
    <path class="st3" d="M704,646.4v-.4c0,.1,0,.3,0,.4Z"/>
    <path class="st3" d="M521,672h150l1,33h31c0-.7,0-1.3,0-2,1.4-10,1.5-20.1.5-30.3l-9.5-.7c-.7,0-1.3,0-2,0h-6c-.7,0-1.3,0-2,0-2.7.9-4.8,1.4-6,0-2-.2-4,.1-6,0,.7-10.2,0-20.7,0-31l-1.1-2-28.4-1,.5-29-2-.9c-10-3-21-3.1-31,0h-1c-.6-1.9-1.4-1.9-2,0l-29.5.6-.5,30.4-1.2-2-189,1c.8-7.1.7-14.2-.3-21.2l-2.5-1.8-.5-6.5-29.5-.5h0s-2,0-2,0l-2,1.5v29.4h-25.8c0,0-4.2,2.1-4.2,2.1-10.2,0-20.9-.9-31,1l1.4,2h27.4c0,9.2.2,18.2.6,27.3l116.6.7h86Z"/>
    <path class="st3" d="M832,832c-.3-10.6.2-21.4,0-32h-32v-31h-1c-9.9,0-19.6.3-29,1-.9,41.3-.9,85.2,0,126,9.9.4,19.9.4,30,0l1-31h3c.7,0,1.3,0,2,0,8.7.1,17.4-.2,26-1,2.1-10.4.1-20.7,0-31,.9-.5.9-.8,0-1Z"/>
    <path class="st3" d="M735,834h0c-9.5-.6-19.1-.7-28.8-.4l-1.2,62.4-1,1-30.5.8-.5,32.2v2c0,4,0,8,0,12,0,.7,0,1.3,0,2,.4,3,0,5-1,6,0,2.3,0,4.7,0,7,9.5-1.2,20.9,1.2,30,1,1,0,2,0,3,0v-32h30c2-30.9,1.8-62.9,1-93.8,0,0-.4-.1-1-.2Z"/>
    <path class="st3" d="M481,800h0c-11,0-22,0-33,0-2,10.3-2,20.7,0,31v2h1c0,10.9.3,21.6,1,32,.9.7,2.2.7,4,0h27c.1-21.7-.1-43.4,0-65Z"/>
    <path class="st3" d="M259,522.7c0-.5-1.3-.7-2-.7-.1-3-.7-5.8-1.8-8.4l-23.2-.6h0c-.9-1.9-2.1-1.9-3,0l-35,1c-.7,10-.8,20.2-.3,30.5l29.3.5c.7,0,1.3,0,2,0,10.3.4,20.6.4,31,0l2.3-.4c1.2-2.8,1.2-18.3.7-22Z"/>
    <path class="st3" d="M545,928c-.8-2.5-1.7-2.7-2,0h-31v31c0,.5.2.9,1,1,10.7-.1,21.4,0,32,0,0-10.7-.1-21.4,0-32Z"/>
    <path class="st3" d="M897,769c-.6-1.9-1.5-2-2,0-9.9.8-20.7,1.2-30.2-.4l-.8,1.4v31l32.1-.4c1.7-1.3.9-27.2.9-31.6Z"/>
    <path class="st3" d="M577,833h-31c-.7,10.6-1.1,21.9,0,32h31c0-10.7-.1-21.4,0-32Z"/>
    <path class="st3" d="M639,769c.6-.2,1-.4,1-.7.1-3.9.7-30.1-.6-30.8s-28.9-.9-29.9.2l-.5,5.3c-.8,4.8,1.5,23.5-1,26l-30.5.6-.5,29.4v1h32v-31c10-.1,20,.2,30,0Z"/>
    <path class="st3" d="M639,801c-9.7.2-19.3-.1-29,0v30.9c7.3,1.3,14.7,1.4,22,1.1h6c.3,0,.7,0,1,0,.5-.2,1-.4,1-.7.4-9,.8-22.2,0-31,0-.1-.5-.2-1-.3Z"/>
    <path class="st3" d="M735.4,737.7c-10.1-.3-19.9-.2-29.4.3h0c-.7,9.9-1.1,19.9-1,30l1,1,28.9.5c.6,2.4,1.8,1.8,2.1-.5,0-.7,0-1.3,0-2l-.7-1.8c0-8.2-.3-17.4-.9-27.5Z"/>
    <path class="st3" d="M831,705h-30v30c.4-9.6,1.8-19.3,1-29l29-1h0Z"/>
    <path class="st3" d="M290,738h0c.8,20.7-.7,41.4-1,62-.2,11,.2,22,0,33h1l2-1.5c.9-5.1.6-22.4,0-29.4,4,.4,22.9.2,26-.1.6,0,.8-1.2.9-2,.5-.2.9-.5.9-.7.2-20.2-.3-41.7-.9-61.3-9.5-.4-19.2-.4-29,0Z"/>
    <path class="st3" d="M261.6,608h-2.6c.9,0,1.7,0,2.6,0Z"/>
    <path class="st3" d="M261.6,608h4.4c-1.5,0-2.9,0-4.4,0Z"/>
    <path class="st3" d="M447.5,194.7l.5,93.3,1,1h64l.5-62.5c.8-.1,1.2-.4,1-1l30.5-.5v-1l.5-29.9c2.4-.6,1.9-1.8-.5-2.1h0c-32.3,0-64.7,0-97,0-2.3.9-3,1.9-.5,2.7Z"/>
    <path class="st3" d="M194.4,481.5l29.6-.5,1-1,.5-29.6c1.5-.2,2-.5,1-1l29.6-.5,1-33-64-1c0-10.3-.3-20.3-1-30h-31v96c0,1.6,29.2,0,32,0,.3,1.5.8,1.8,1.4.5Z"/>
    <path class="st3" d="M768,481c10.7.1,21.3-.1,32,0,2.9-10.3,2.9-20.7,0-31,.2.9.7,1.5,1.4,2,1.1.8,21.6.3,27.5,0-.6,5.8-.6,22,0,27,0,.6,1.2.8,2,.9l1-31h-32c0-11,.1-22,0-33h-31c-.7,0-1.3,0-2,0h-4c-.7,0-1.3,0-2,0h0s-6,0-6,0c-.3,0-.7,0-1,0l-16.4.5-.6,31.5,31,1v32Z"/>
    <path class="st3" d="M768,321c.8,2.5,1.7,2.7,2,0,10,2,20,2,30,0,0-21.3,0-42.7,0-64h-30c-.4-.9-.7-.9-1,0v2c-3.2,8.7-4.2,21.3-1,30,0,10.6-.2,21.4,0,32Z"/>
    <path class="st3" d="M577,194c0,8.2-1.5,60.2,0,63h25c2.8.2,4.8-.4,6-1.6l1-61.4c2.5-.8,2.7-1.7,0-2h-32c-2.5.8-2.7,1.7,0,2Z"/>
    <path class="st3" d="M194,321h31c.4-10.7.4-21.4,0-32,2.9-9.9,2.2-22.2-1-32-.4-.9-.7-.9-1,0-9.9,0-19.6.3-29,1-.5,20.6-.8,41.3-1,62v1c.4.9.7.9,1,0Z"/>
    <path class="st3" d="M321,192c.5.9.8.9,1,0,10,.1,20,0,30,0,.5.9.8.9,1,0l-.9-31.6-32.1-.4c-.8,10.6-.8,21.3,0,32,.5.8.8.9,1,0Z"/>
    <path class="st3" d="M672,192c.5.9.8.9,1,0,.9-.4.9-.7,0-1v-31h0s-31,0-31,0v32c10,0,20-.2,30,0Z"/>
    <path class="st3" d="M823,481l1.5-2c-6.3.2-12.7-.2-19,0-1.9,0-4-1-3.5,2h0c6.4,0,15,.5,21,0Z"/>
    <path class="st3" d="M705,608v-30h-31v30c10.3-.2,20.7,0,31,0Z"/>
    <path class="st3" d="M737,576v1c10-.2,20,.1,30,0l-29-1c-.4-.9-.7-.9-1,0Z"/>
    <path class="st3" d="M769,544v-30c-1.9-.3-3.9-.6-6-1-5.7,0-11.3,0-17,0h-24c-.7,0-1.3,0-2,0l-14.4.5.4,31.5c10.3,0,20.7-.1,31,0s20.7,0,31,0h30c-5.6-2.3-28,0-29-1Z"/>
    <path class="st3" d="M673,770c-10.1-.8-21.2-.8-31,0v31c9.9.4,19.9.4,30,0l1-31Z"/>
    <path class="st3" d="M512,737h-31c0,20.7.1,41.4,0,62l1-61,30-1h0Z"/>
    <path class="st3" d="M385,735c-3-.6-1.9,1.5-2,3.5-.2,5.9-1,24.2,1,28.5,1.8-10.5.9-21.4,1-32Z"/>
    <polygon class="st3" points="833 768 863 769 863 738 834 738 833 768"/>
    <path class="st3" d="M417,194h-33v63h33v-63Z"/>
  </g>
  <g>
    <path class="st0" d="M800,513c-.4-.9-.7-.9-1,0-10,.4-20,.7-30,1l-2,1.4.2,28.8c10.3.2,20.5.4,30.8.8.7.3,1.3.7,2,1v-1c.1-10.7,0-21.3,0-32Z"/>
    <polygon class="st0" points="289 642 289 642 289 642 289 642"/>
    <path class="st0" d="M319.9,642.1h-30.9c0,9.9.1,20,0,29.9.4.9.7.9,1,0h145l-115-1v-28.9Z"/>
    <path class="st0" d="M352,641v-33h-17c-.6-1.9-1.4-1.9-2,0h0s-13,0-13,0v33c10.7,0,21.3-.7,32,0Z"/>
    <path class="st0" d="M875,769c-1.3,0-2.7.2-4,0l-5.5-.5-.5-31.5h0c-4.6-1.3-26.3,0-33,0-.2-10.6-.1-21.4,0-32h-1l-29.5.7-.5,29.3c0,.7,0,1.3,0,2,.4.9.7.9,1,0h30c.2,10.4.8,20.7,1,31,.8-.3,1.7-.6,2-1.4.5-1.2,1-22.1.9-27,4.6.6,20,.6,25,.4-.6,6.2-.7,22.9,0,28,0,.6,1.2.8,2,.9l1,1c9.6-1,21.8,1.7,31-1-6.6-.4-13.3-.4-20,0Z"/>
    <path class="st0" d="M289.5,606.6l-.5-29.6c-.4-.9-.7-.9-1,0l-30,1v30h8c7.6.5,15.4,0,23,0,1.5-.3,1.8-.8.5-1.4Z"/>
    <path class="st0" d="M639,738v31c.7,0,1.3,0,2,0,.2-10.5.2-21.2,0-32h0s-32,0-32,0v6c.2-1.2,1.7-3,1-5h29Z"/>
    <path class="st0" d="M641,801c-.7,0-1.3,0-2,0v32h2l.5-30.5c2.2-.4,1.8-1.1-.5-1.5Z"/>
    <path class="st0" d="M545,864v1h1v-32c-1.8,10.1-1,20.8-1,31Z"/>
    <path class="st0" d="M706,738v-1h-1c-1.3,2.8-2.1,7.8,0,10v21l1-30Z"/>
    <path class="st0" d="M789,353c3.6.2,7.4-.2,11,0,0-10.7,0-21.4,0-32h-30c-.5.2-1,.4-1,.7,0,10.3.2,20.6.7,30.8l19.3.5Z"/>
    <path class="st0" d="M802,481c5.6-1.8,12.6-1.8,21,0,2.7-.2,5.5.6,8-1v-30h-31c.1,10.3.1,20.7,0,31h2Z"/>
    <polygon class="st0" points="193 415 193 386 193 385 192 385 193 415"/>
    <path class="st0" d="M672,608c-10.3.1-20.7,0-31,0l-.6,32.1,31.6.9c0-10.9,0-22,0-33Z"/>
    <path class="st0" d="M676,606.6v-26.5h28.1c0,0,.9-2.1.9-2.1v-1h-6c-.7,0-1.3,0-2,0h-10c-.7,0-1.3,0-2,0h0s-11,0-11,0l-2,4.5c0,8.8,0,17.7,0,26.5h2l2-1.4Z"/>
    <path class="st0" d="M737,545c-.9.4-.9.7,0,1,0,10.3.3,20.3,1,30,9.5.7,19.2,1.1,29,1l1-32c-10-3-21-2.9-31,0Z"/>
    <path class="st0" d="M320,737l-30,1h29v62h-29v33h31c.1-20-.2-40-1-60-.3-12,.7-24,0-36Z"/>
    <path class="st0" d="M521,672h93c-31-.2-62,0-93,0Z"/>
    <path class="st0" d="M705,896l1-62h29v-1h-29l-1,63Z"/>
    <path class="st0" d="M673,930c0-10.5,2-21.4,1-32l30-1h-30.9c0,0,0,33,0,33Z"/>
    <path class="st0" d="M577,799l1-29,30-1h0s-31,0-31,0c0,10,.2,20,0,30Z"/>
    <path class="st0" d="M647.9,672h23.1c-7.7,0-15.4,0-23.1,0Z"/>
    <path class="st0" d="M647.9,672h-32.9c10.9,0,21.9,0,32.9,0Z"/>
    <path class="st0" d="M472,672h47c-15.6,0-31.3,0-47,0Z"/>
    <path class="st0" d="M648,769c-1,0-2,0-3,0s-2,0-3,0v1h31l-2-1h-23Z"/>
    <path class="st0" d="M673,944c2.9-3.2,0-9.3,0-12-2.3,4-.4,8,0,12Z"/>
    <path class="st0" d="M672,952c4.2.7,1.2-4.1,1-6-.7,2-.9,3.9-1,6Z"/>
    <path class="st0" d="M638,833h-4.6c1.6,0,3.3.2,4.6,0Z"/>
    <path class="st0" d="M632,833h1.4c-.5,0-.9,0-1.4,0Z"/>
    <path class="st0" d="M607,608h0c-10,.1-20-.1-30,0v31l1-30,29-1Z"/>
    <path class="st0" d="M384,615v-7c-8.3-.1-16.7.2-25,0h0s-5,0-5,0l29,1c-.8,2.5.5,4.2,1,6Z"/>
    <path class="st0" d="M864,799v-15.8c0,5.3,0,10.6,0,15.8Z"/>
    <path class="st0" d="M864,772v11.2c0-3.7,0-7.4,0-11.2Z"/>
    <path class="st0" d="M255.8,513.2c-7.9-.3-15.9-.2-23.8-.2l23,1,2,8c-.2-3,.4-6.1-1.2-8.8Z"/>
    <path class="st0" d="M223.6,513.2l5.4-.2c-1.8,0-3.6,0-5.4.2Z"/>
    <path class="st0" d="M223.6,513.2l-29.6.8c9.8.9,19.8-.4,29.6-.8Z"/>
    <path class="st0" d="M257,257l2-1.2v-95.1l-2-.7c-11-2-22-2-33,0-.4,32.3-.3,64.7,0,97,0,10.7.8,21.4,1,32,.3,1.5.8,1.8,1.4.5l28.6-.5h2l.5-30.5c2.2-.4,1.8-1.1-.5-1.5Z"/>
    <path class="st0" d="M738,257.6l-1,30.4,31,1c0-9.8,1-20,1-30l-2-99h-31c-.7,32.1-.5,64.8,0,97l2,.6Z"/>
    <polygon class="st0" points="609 256 609 194 607 256 602 257 608 257 609 256"/>
    <path class="st0" d="M737,448l1-31c5.4.8,10.8-.6,16-1h0s-17,0-17,0v32Z"/>
    <path class="st0" d="M706,514c4.7.9,9.7-.7,14-1h0s-15,0-15,0l1,32v-31Z"/>
    <path class="st0" d="M746,513h-5.7c1.9,0,3.8,0,5.7,0Z"/>
    <path class="st0" d="M722,513h18.3c-6.1,0-12.3-.4-18.3,0Z"/>
    <path class="st0" d="M775,416c-2,0-4,0-6,0h6Z"/>
    <path class="st0" d="M755,416h3.6c-1.2,0-2.4,0-3.6,0Z"/>
    <path class="st0" d="M761,416h-2.4c.8,0,1.6,0,2.4,0Z"/>
    <polygon class="st0" points="194 257 194 258 223 257 194 257"/>
  </g>
  <g>
    <path class="st1" d="M481,799c0-20.5.3-41,.9-61.5l30.1-.5v-32h-127c0,10,0,20,0,30h0s-1.1,1.5-1.1,1.5v30.5c0,0,2.1,2,2.1,2h30c1.8,1,.9,26.7,1,31,.2,11-.1,22,0,33h31c2.5-.8,2.7-1.7,0-2l-1.5-2c-4.8-.5-20.1,0-26.4.7.7-6.4.5-23.1,0-28.9,0-.2-.1-.3-.3-.4,9.2,2.5,19.2,2.4,28.3-.5,10.7,2.9,22.3,3.1,33,0v-1Z"/>
    <path class="st1" d="M706,769l29,1v62l-29,1c9.7.7,19.3.7,29,0h2c0-21.3.4-42.7,0-64h-31Z"/>
    <polygon class="st1" points="383 927 353 928 384 928 384 801 383 927"/>
    <polygon class="st1" points="258 959 258 898 289 897 257 897 257 960 288 960 288 928 287 959 258 959"/>
    <polygon class="st1" points="449 897 417 897 417 960 448 960 448 929 447 959 418 959 418 898 449 897"/>
    <path class="st1" d="M286.8,575c-19.6-.3-39.2-.6-58.7-1,.3-3.4.2-20.8,0-26,4.3.5,23.4-.5,27.1-1,.5,0,.8-1.2.8-2h0c-10.3-.2-20.7.3-31,0v32h63l-1.2-2Z"/>
    <path class="st1" d="M545,864l-2,64h2c.3-21,0-42,0-63,.6-.5.7-.8,0-1Z"/>
    <path class="st1" d="M927,672v63c-8.5.2-17.1-.3-25.6,0-1.9,0-4-1-3.5,2h29l1-1h0s-1-64-1-64Z"/>
    <polygon class="st1" points="895 642 897 671 897 641 865 641 865 672 866 642 895 642"/>
    <polygon class="st1" points="289 928 305 928.5 305 928 289 928"/>
    <polygon class="st1" points="306 959 306 928.5 305 928.5 305 960 352 960 352 929 351 959 306 959"/>
    <path class="st1" d="M290,834l30-1h0l-1.4-2c-3.4-.8-23.3-.4-27.7,0-.6,0-.8,1.2-.9,2-.4-.9-.7-.9-1,0-.3,21,.2,42,0,63l1-62Z"/>
    <path class="st1" d="M609,929h0s0,31,0,31h63l-62-1-1-30Z"/>
    <path class="st1" d="M862,806.5c-.3,8.5.2,17.1,0,25.5h-30v1h32c0-9.9-.2-20,0-30h0c-3-.6-1.9,1.5-2,3.5Z"/>
    <path class="st1" d="M897,737h-2v31l-20,1c6.6.3,13.4-.2,20,0,.5-.2,1.4.1,2,0,0-10.6,0-21.4,0-32Z"/>
    <path class="st1" d="M512,959c-6.7-1-44.4,1.6-46,0l-1-30h0v31c16-.2,32,.2,48,0-.2-.4-.6-.9-1-1Z"/>
    <path class="st1" d="M331.9,606l-40-1.1-.9-27-2-.8h0v31c10.3.1,20.7,0,31,0,4.3,0,8.7,0,13,0l-1.1-2Z"/>
    <path class="st1" d="M289,737c.3-21.6,1.9-43.3,1-65h-1c-.3,21.6.2,43.4,0,65Z"/>
    <path class="st1" d="M703,732.5c0,1.9-1,4,2,3.5,0-10.3,0-20.7,0-31h-2c0,9.1-.3,18.4,0,27.5Z"/>
    <path class="st1" d="M449,865c0,3.1.3,9.8.5,16.1l.5-14.6,4.1-1.6h-4c-.4-.9-.7-.9-1,0Z"/>
    <path class="st1" d="M449.5,881.1l-.5,14.9c.6-2.2.6-8.4.5-14.9Z"/>
    <path class="st1" d="M801,769l1-32h-1c-.2,10.6.2,21.4,0,32Z"/>
    <path class="st1" d="M224,160c3.2-9.8,3-21.2,0-31l-1,127h-29V98l30-1h0s-31,0-31,0v160c.4.9.7.9,1,0,9.5.4,19.2.4,29,0h1c2.9-32.1,2.8-64.9,0-97Z"/>
    <path class="st1" d="M418,194h29l1,94v-96c-10.3,0-20.7,0-31,0v2c-2,21-2,42,0,63l1-63Z"/>
    <path class="st1" d="M288,129l31,1v61h-29l-1-31-2,1.5c-.2,3.5-.6,28.3,0,29.7.4.8.7,1.6,1.3,2.2,10.5.9,21.6,1.9,31.7-1.3,0-10.7,0-21.7,0-32,0-10.3,0-20.7,0-31h-32Z"/>
    <path class="st1" d="M610,194h29.4s.6-2,.6-2h-31v2c-.8,20.7-.8,41.3,0,62l1-62Z"/>
    <polygon class="st1" points="735.5 98 738 97 738 66 767 66 768 96 768 65 737 65 737 66 736 97 705 97 705 128 706 98 735.5 98"/>
    <polygon class="st1" points="545 224 546 194 577 194 577 192 545 192 545 224"/>
    <polygon class="st1" points="255 66 256 96 256 65 225 65 225 97 226 66 255 66"/>
    <path class="st1" d="M194,321h-1c-.2,21.3,0,42.7,0,64-.6.4-.6.7,0,1l1-65Z"/>
    <path class="st1" d="M355.5,194c9.5.3,19.1,0,28.5,0v-2c-10.3,0-20.7,0-31,0h-1c-.6,3,1.5,1.9,3.5,2Z"/>
    <polygon class="st1" points="193 513 194 482 224 481 193 481 193 513"/>
    <polygon class="st1" points="287 98 288 128 288 97 256 97 287 98"/>
    <path class="st1" d="M673,132v28l2-.6-2-27.4Z"/>
    <path class="st1" d="M737,576c.4-9.9.4-19.9,0-30v-1c-9.8-3.2-21.2-3-31,0l29,1v30l-36,1c2,0,4,0,6,0,10.7-.2,21.4.2,32,0,.9-.4.9-.7,0-1Z"/>
    <path class="st1" d="M320,773l1,60c.4-20-.5-40-1-60Z"/>
    <polygon class="st1" points="641 801 641 833 642 802 672 801 642 801 641 801"/>
    <path class="st1" d="M642,769c1,.7,2,.7,3,0l-3.1-2.4-.9-29.6c-.9,10.6,0,21.4,0,32h1Z"/>
    <path class="st1" d="M661.5,769h9.5c-3.2,0-6.3,0-9.5,0Z"/>
    <path class="st1" d="M661.5,769h-13.5c4.5,0,9,0,13.5,0Z"/>
    <path class="st1" d="M705,747v-10c-3.1,1.3-3.2,11.3,0,10Z"/>
    <path class="st1" d="M359,608c-1.7,0-3.3,0-5,0h5Z"/>
    <path class="st1" d="M340.9,608h-5.9c2,0,3.9,0,5.9,0Z"/>
    <path class="st1" d="M340.9,608h11.1c-3.7,0-7.4,0-11.1,0Z"/>
    <path class="st1" d="M865,737h0s0,32,0,32c2,.2,4-.2,6,0l-5-1-1-31Z"/>
    <polygon class="st1" points="593 384 593 385.4 640 384 593 384"/>
    <polygon class="st1" points="591 385.5 591 480.5 593 480.5 593 385.4 591 385.5"/>
    <polygon class="st1" points="640 481 593 480.5 593 481 640 481"/>
    <path class="st1" d="M463,482l1,46v-46c.6-.4.6-.7,0-1-5.2-.5-10.7.4-16,0l15,1Z"/>
    <polygon class="st1" points="369 385 369 481 320 481 369.6 481.1 369 385"/>
    <polygon class="st1" points="513 225 513 289 514 226 545 225 513 225"/>
    <path class="st1" d="M736.2,276.4c-.2-6.5-.1-12.9-.2-19.4h-31l30,1,1.2,18.4Z"/>
    <path class="st1" d="M736.2,276.4c.1,3.9.3,7.7.8,11.6l-.8-11.6Z"/>
    <polygon class="st1" points="498 482 512 481 497 481 497 529 498 482"/>
    <polygon class="st1" points="257 289 258 258 288 257 257 257 257 289"/>
    <polygon class="st1" points="290 226 320 225 289 225 289 256 290 226"/>
    <path class="st1" d="M225,321l1-31,29-1h-30c.2,10.6-.2,21.4,0,32Z"/>
    <polygon class="st1" points="225 480 226 450 256 449 225 449 225 480"/>
    <path class="st1" d="M321,192v33l1-33h-1Z"/>
    <path class="st1" d="M448,472v-13.2c0,4.4-.2,8.8,0,13.2Z"/>
    <path class="st1" d="M448,458.8c0-3.3.1-6.6,0-9.8v9.8Z"/>
    <path class="st1" d="M685,577h-6.5c2.2,0,4.3.1,6.5,0Z"/>
    <path class="st1" d="M674,577h4.5c-1.5,0-3,0-4.5,0Z"/>
    <path class="st1" d="M687,577h7.1c-2.4,0-4.7-.1-7.1,0Z"/>
    <path class="st1" d="M697,577h-2.9c1,0,2,0,2.9,0Z"/>
    <path class="st1" d="M448,479v-1.9c0,.6,0,1.3,0,1.9Z"/>
    <path class="st1" d="M448,474v3.1c0-1,0-2.1,0-3.1Z"/>
    <path class="st1" d="M769,257h1l-1-129c-.1,43,0,86,0,129Z"/>
    <path class="st1" d="M735,129.5v29.5h-29.5l-2.5,1v31h-30v1c10.7,0,21.4,0,32,0v-32h31c.2-10.6.2-21.4,1-32h31l-30.5-1.1-2.5,2.6Z"/>
    <polygon class="st1" points="258 159 257 129 257 160 288 160 258 159"/>
  </g>
  <g>
    <path class="st2" d="M736,831.1c.5-19.5,1-41.5,0-60.8,0-.1-.5-.2-1-.3-9.5-.7-19.2-1.1-29-1,.9-1.8.4-2.3-1-1v-21c-2-2.9-1.2-6.9,0-10v-1l-.7-1.8c0-8.8-.3-18.6-1.3-29.2-.4-.9-.7-.9-1,0h-30l2-1.5c.8-4.9-.3-25-.9-30.6,0-.6-1.2-.8-2-.8h-56c-.5-.9-.8-.9-1,0h-93c-.6-1.9-1.4-1.9-2,0h-47c-.8-2.5-1.7-2.7-2,0h-8l-1.5-2c-6.8-.5-17.9-.5-24.6,0-.5,0-.8,1.2-.9,2h0s-114.2-.5-114.2-.5l-1.2-1.5h-28.9l-.7,2c-.5,21.6-.8,43.3-1,65-.2,21,.2,42,0,63,.5-1,1-2.1,1.4-3.2s.7-2.2.8-3.2c.8-16.3,1.1-32.7,1-49-.3-2.3-1-4.5-2.2-6.5l28.6-.5,1,1.8c-.2,11.3,0,22.5.4,33.7l1,60c-.4-.9-.7-.9-1,0l-30.5.6-.5,62.4v1c-10.6,0-20.9.3-31,1-.8,19.8-.9,41.4,0,61,9.3.8,19.9.8,29,0,.7-10.2,1.1-20.5,1-31h1l15.6.5c.2,2.7.9,2.6,1.4,0-.8,9.8-.8,20.9,0,30.5,14.5.8,31,.8,45,0,.7-9.9,1.1-19.9,1-30l1-1,30.5-.6.5-126.4,1-1h32l2-1.4c.3-3.6.8-29.9-1.6-29.9-.5,0-.9.2-1.4.4h-30c1.4-2.4-.1-4.2-2-2v-30.7c.4.9.8.5,1-1.3,3-9.8,2.9-20.2,0-30l1.2,2h123.7c-.7,6.4-.6,23.2,0,29.1,0,.6,1.2.8,2,.9l-30.5.6-.5,61.4c-.9.5-.9.8,0,1-3.4,21.1-2.3,42.6-1.1,63.8-8.7-1.2-17.3-.5-25.9,1.2l-4.5,1-.5,30v1c-10.6,0-20.9.3-31,1-.8,19.8-.9,41.4,0,61,9.3.8,19.9.8,29,0,.7-9.9,1.1-19.9,1-30v-1h17v1l.5,30.5c15.4.5,31.4.3,46.5-.5l2-1.5v-28.1c9.7,1.2,19.4,0,29-1.4l1-.7,1-63.3c.3-10.3.6-20.6,1-31,.8,2.5,1.7,2.7,2,0h25c.4.9.7.9,1,0h1c.8,2.5,1.7,2.7,2,0,.2-11-.2-22,0-33,.8-.5.9-.8,0-1l.8-29.5,30.2-.5c2.5-.2,3.6-2,3.2-5.6l-.3-19-1.9-1.5c.1-2.2.6-4,1.5-5.5h28.4c.6,2.4,1.8,1.9,2.1-.5l.4,29.8c.4,1.2,1.6,2,3.6,2.2,1,.7,2,.7,3,0h23c.2.6.9,1,2,1-.8.3-1.7.6-2,1.4-.5,1.3-1.1,25.4-.9,28.7,0,.6,1.2.9,2,1l-30.4.6c.1,0,.3-.2.4-.6.9-.2,1.5-.7,2-1.4.8-1.2.2-25.4,0-28.7,0-.5-1.2-.8-2-.9h0c.9-.4.9-.7,0-1-.5-.9-.8-.9-1,0,0,10.7,0,21.3,0,32,.2.4.4.6.5.6l-.5,31.4c-.8-2.5-1.7-2.7-2,0-.4-.9-.8-.9-1,0h-6l-3.2-1.9c-5.6.2-11.1-.1-16.7-.8v-28.4c-.1,0-2.1-.9-2.1-.9-1.8,10.5-1,21.4-1,32v63l-33,1v63h17v-32h15l1,1,.6,30.5,62.4.5h30l-2.1-2c-8.6-.8-17.2-1.2-25.8-1.2,0-2-.2-3.6-2.1-4.8,1.2-1.2,1.6-3.2,1-6,1.9-.6,1.9-1.4,0-2,0-4,0-8,0-12,1.9-.6,1.9-1.4,0-2,.2-10.8.6-21.3.9-31.5l.6-1,29.5-.5c1.8.9,2.3.4,1-1l1-61.5c2.7-.3,2.6-1,0-1.5,9.9,0,19.6-.3,29-1,0,0,.1,0,.2,0,0,.3-.2.6-.2,1.1-.9.4-.9.7,0,1v94c4.4-1.9,2-84.2,2-95-.3-1.1-.7-1.7-1-1.9Z"/>
    <polygon class="st2" points="770 770 799 769 769 769 769 897 800 896 770 896 770 770"/>
    <path class="st2" d="M736,737.4l-30.1-.4c-.6.4-.7.7,0,1h29c.2,8.5-.3,17.1,0,25.6,0,1.9-1,4,2,3.5h0c0-4.2.8-28.2-.9-29.6Z"/>
    <path class="st2" d="M703,703c4.6-8.3,1.2-21.8,1-31h0c-3.3,0-6.7,0-10,0l9,1c.1,10-.2,20,0,30Z"/>
    <path class="st2" d="M800,481c-10.1-3.2-21.8-3-32,0l2-1.5c.6-1.8.3-26.1,0-29.6,0-.6-1.2-.8-2-.9-.3-.8-.6-1.7-1.4-2-1.3-.5-25.4-1.1-28.7-.9-.6,0-.9,1.2-1,2l.5-30.5c4.4-.9,9.9-1.4,16.5-1.5.3.9.7.9,1,0h6c.9,1.8,1.7,1.9,2,0h4c.9,1.8,1.7,1.9,2,0h6c1.3,1.9,2.7,1.9,4,0h5c.5,2.8,4.9,3,5,0h4c.8,2.5,1.7,2.7,2,0h4c.4.9.7.9,1,0-.2-21,0-42,0-63-2.1-3.1-8.7-2.8-11,0l-18.8-.5c-.5-10.5-1.2-21-2.2-31.5,2.9-10.4,3-21.7,0-32l-1.4-2c-5.3-1-23-1.4-28.7-.9-.6,0-.8,1.2-1,2l-1.6-30.5-30.4-.5,2-1.4c.3-4,.5-30.5-1-31.8-1.3-1.1-29-2.7-33-2.7-.6,0-.9,1.2-1,1.9v-30c.9-.4.9-.7,0-1-8.9-2.2-18.2-2.9-28-2.1v-29l-2-.9h0l-2,32c-1.9.4-3.2,1-1.5,1h-28.5c-.7,20.9-1,41.9-.9,63-1.4-.7-1.8-.2-1,1h-31l1.7-1.5c0-20.6-.2-41-.4-61.2l-1.3-.3c-.2-.6-.4-1-.7-1-4-.1-30.1-.8-30.8.6l-.5,30.4c-.9.4-.9.7,0,1l-31.5.6-.5,63.4c-.4-.9-.7-.9-1,0h-63c.9-1.8.4-2.3-1-1,.1-31.7-.2-63-1-94-.2-.5-.4-1-.7-1-6.5-.9-20.1-.4-27.4,0,.2-.4-.4-.8-1.9-1-11,0-22,0-33,0-2.5.8-2.7,1.7,0,2,11,2,22,2,33,0,.4-.1.8-.3,1.1-.4,0,.1,0,.3,0,.4-.8,20.9-1.1,41.9-1,63-.4-.9-.7-.9-1,0h-32c2-21,2-42,0-63-10.2-1.1-20.4-1.4-30.7-.9.9-.5.5-.8-1.3-1.1-9.6-3-20.3-2.9-30,0-.8,10.9-1.1,21.9-1,33-.4-.9-.7-.9-1,0l-30.5.6-.5,30.4c-1.8-.9-2.3-.4-1,1l-30.5.6-.5,31.4c-.8-2.5-1.7-2.7-2,0l-29.5.6-.5,31.4-1.4-2c-5.5-.6-23.5-.8-28.7,0-.6,0-.8,1.2-.9,2-.8,21.5-1.2,43.2-1,65-.4,9.5-.4,19.2,0,29l1.2,2,60.8,1-.9,30,2,1-30.5.6-.5,30.4c-1.8-.9-2.3-.4-1,1l-30.5.6-.5,31.4v32h30c-9.6-.3-19.3-1.8-29-1v-30l35-1h3c7.9,0,15.7.3,23.5.9l1.5,8.1c.2,3.5.6,21.4-1,23l-30,1v30l62,1h1l1,30,43,1h26l24.5.8.5,6.2c2,7.8,1.4,17.1,0,25l193-1,.5-29.6c9.7-1.3,19.5-1.7,29.5-1.4.7,0,1.3,0,2,0h1c10.3-.1,20.7,0,31,0,10,3,21,3.1,31,0,.6-10.1,1.1-19.9,1.7-29.6,1.2-.9,1.5-1.4.8-1.4h10.5c.8.7,1.6.9,2,0h10c.7.7,1.4.7,2,0,12.2,0,24.2-.2,36-1,.6-.2,1-.4,1-.7.3-7.8.2-16.4,0-24.2.5-2.8.1-4.5-1-5.2-9.5-.8-19.2-1.1-29-1l-.5-30.6c3.6-.9,8.4-1.4,14.5-1.4.8,1.9,1.8,2,2,0h24c5.4,2.8,11.7,2.9,17,0,11.9,1,24.1.7,36,0h1c0-10.7-.2-21.4,0-32Z"/>
    <polygon class="st2" points="449 833 449 865 450 865 449 833"/>
    <path class="st2" d="M832,864l-24.4.9c6.3,0,23.3.9,24.4-.9Z"/>
    <path class="st2" d="M807.6,864.9c-.7,0-1.2,0-1.6,0h1.6Z"/>
    <path class="st2" d="M768,97v-1c0-10.3-.2-20.3-1-30-9.3-.8-19.9-.8-29,0-.8,9.7-1.2,20.1-1,30.1-.6,0-1.2,1.1-1.5,1.9-9.5-.8-20.2-.8-29.5,0-.7,9.9-1.1,19.9-1,30v1l-32,1v2l1,26.3c-.4-.7-.7-.1-1,1.7-2,10.3-2,20.7,0,31,9.6.8,20.6.8,30,0,.6-.2,1-.4,1-.7.3-9.5.3-19.9,0-29.4.6,0,1.2-1.1,1.5-1.9,9.5.8,20.2.8,29.5,0,.7-9.4,1.1-19.6.9-29.2,0,0-.2-.1-.5-.2.6,0,1.4-.7,2.2-2.1l30.4.5c.4.9.7.9,1,0-.1,43.3.2,86.3,1,129l1.4,2c5.1.7,22.4.6,27.7,0,.6,0,.8-1.2.9-2,0-53,0-106,0-159l-32-1Z"/>
    <path class="st2" d="M223,256c.6-42.2,1-84.5,1-127,.9-.4.9-.7,0-1h32c-.9,1.8-.4,2.3,1,1l.6,30.5,30.4.5c.4.9.7.9,1,0,0,10.6.2,20.9,1,31,9.3.9,19.9.8,29,0,.9-19.8.9-41.4,0-61-10.2-.8-20.5-1.1-31-1v-1l-.6-30.5-31.4-.5v-1c0-10.3-.3-20.3-1-30-9.3-.8-19.9-.8-29,0-.7,10.2-1.1,20.5-1,31h-1c-10.3,0-20.3.2-30,1-.9,51.7-.9,106.7,0,158,9.3.8,19.9.8,29,0Z"/>
    <path class="st2" d="M194,258c.9-.4.9-.7,0-1h-1v63c.2-20.6,1.9-41.4,1-62Z"/>
    <path class="st2" d="M684,672c-2,0-4,.2-6,0-.9,3.7,4.2,1.6,6,0Z"/>
    <path class="st2" d="M686,672c2,0,4,0,6,0h-6Z"/>
    <path class="st2" d="M448,800c-10,0-20,0-30,0v32l30-1v-31Z"/>
  </g>
  <g>
    <polygon class="st4" points="368 384 321 384 320 384 320 480 320 481 369 481 369 385 368 384"/>
    <path class="st4" d="M640,384h-47c.1,1,0,1.6-1,1.9v94.4l1,.7h48v-97h-1Z"/>
    <path class="st4" d="M448,448v24c0,.7,0,1.3,0,2v7c5.4.4,10.8.4,16,0,.5.2.5.6,0,1-.4,15.2-.4,30.5,0,46l1,1h32l.5-46.5c4.3-1.3,9.1-1.8,14.5-1.5l1-1v-32h-65Z"/>
  </g>
</svg>