<svg width="96" height="96" viewBox="0 0 96 96" fill="none" xmlns="http://www.w3.org/2000/svg">
<rect x="30.0684" y="8" width="2.75862" height="2.75862" fill="#FFD700"/>
<rect x="32.8271" y="10.7586" width="2.75862" height="2.75862" fill="#FFD700"/>
<rect x="43.8613" y="10.7586" width="2.75862" height="2.75862" fill="#629BF8"/>
<rect x="63.1729" y="10.7586" width="2.75862" height="2.75862" fill="#FF6B9D"/>
<rect x="71.4482" y="10.7586" width="2.75862" height="2.75862" fill="#00E7D2"/>
<rect x="30.0684" y="13.5172" width="2.75862" height="2.75862" fill="#FFD700"/>
<rect x="41.1035" y="13.5172" width="2.75862" height="2.75862" fill="#629BF8"/>
<rect x="54.8965" y="13.5172" width="2.75862" height="2.75862" fill="#03E8D3"/>
<rect x="68.6895" y="13.5172" width="2.75862" height="2.75862" fill="#02EBD5"/>
<rect x="32.8271" y="16.276" width="2.75862" height="2.75862" fill="#FFD700"/>
<rect x="43.8613" y="16.276" width="2.75862" height="2.75862" fill="#629BF8"/>
<rect x="52.1387" y="16.276" width="2.75862" height="2.75862" fill="#00E7D5"/>
<rect x="68.6895" y="16.276" width="2.75862" height="2.75862" fill="#00E6D4"/>
<rect x="79.7246" y="16.276" width="2.75862" height="2.75862" fill="#3676E0"/>
<rect x="30.0684" y="19.0345" width="2.75862" height="2.75862" fill="#FFD700"/>
<rect x="41.1035" y="19.0345" width="2.75862" height="2.75862" fill="#629BF8"/>
<rect x="60.4141" y="19.0345" width="2.75862" height="2.75862" fill="#FF6B9D"/>
<rect x="65.9316" y="19.0345" width="2.75862" height="2.75862" fill="#00E7DD"/>
<rect x="32.8271" y="21.7931" width="2.75862" height="2.75862" fill="#FFD700"/>
<rect x="43.8613" y="21.7931" width="2.75862" height="2.75862" fill="#629BF8"/>
<rect x="60.4141" y="21.7931" width="2.75862" height="2.75862" fill="#FF6B9D"/>
<rect x="63.1729" y="21.7931" width="2.75862" height="2.75862" fill="#00E5CE"/>
<rect x="74.207" y="21.7931" width="2.75862" height="2.75862" fill="#FFD700"/>
<rect x="30.0684" y="24.5517" width="2.75862" height="2.75862" fill="#FFD700"/>
<rect x="41.1035" y="24.5517" width="2.75862" height="2.75862" fill="#629BF8"/>
<rect x="52.1387" y="24.5517" width="2.75862" height="2.75862" fill="#02E7D3"/>
<rect x="57.6553" y="24.5517" width="2.75862" height="2.75862" fill="#FF6B9D"/>
<rect x="63.1729" y="24.5517" width="2.75862" height="2.75862" fill="#01E6D2"/>
<rect x="32.8271" y="27.3103" width="2.75862" height="2.75862" fill="#FFD700"/>
<rect x="46.6211" y="27.3103" width="2.75862" height="2.75862" fill="#FFD700"/>
<rect x="52.1387" y="27.3103" width="2.75862" height="2.75862" fill="#03E9DC"/>
<rect x="57.6553" y="27.3103" width="2.75862" height="2.75862" fill="#FF6B9D"/>
<rect x="60.4141" y="27.3103" width="2.75862" height="2.75862" fill="#01B4AE"/>
<rect x="82.4824" y="27.3103" width="2.75862" height="2.75862" fill="#FFD700"/>
<rect x="27.3105" y="30.0689" width="2.75862" height="2.75862" fill="#FF6B9D"/>
<rect x="38.3447" y="30.0689" width="2.75862" height="2.75862" fill="#00E4D3"/>
<rect x="49.3789" y="30.0689" width="2.75862" height="2.75862" fill="#00A9A1"/>
<rect x="54.8965" y="30.0689" width="2.75862" height="2.75862" fill="#FF6B9D"/>
<rect x="76.9658" y="30.0689" width="2.75862" height="2.75862" fill="#FFD700"/>
<rect x="79.7246" y="30.0689" width="2.75862" height="2.75862" fill="#FFD700"/>
<rect x="49.3789" y="32.8277" width="2.75862" height="2.75862" fill="#00A7A2"/>
<rect x="54.8965" y="32.8277" width="2.75862" height="2.75862" fill="#FF6B9D"/>
<rect x="74.207" y="32.8277" width="2.75862" height="2.75862" fill="#FFD700"/>
<rect x="27.3105" y="35.5863" width="2.75862" height="2.75862" fill="#02A39B"/>
<rect x="30.0684" y="35.5863" width="2.75862" height="2.75862" fill="#00A59B"/>
<rect x="32.8271" y="35.5863" width="2.75862" height="2.75862" fill="#01A69F"/>
<rect x="35.5859" y="35.5863" width="2.75862" height="2.75862" fill="#04A8A7"/>
<rect x="46.6211" y="35.5863" width="2.75862" height="2.75862" fill="#03A7A0"/>
<rect x="52.1387" y="35.5863" width="2.75862" height="2.75862" fill="#FF6B9D"/>
<rect x="68.6895" y="35.5863" width="2.75862" height="2.75862" fill="#FFD700"/>
<rect x="71.4482" y="35.5863" width="2.75862" height="2.75862" fill="#FFD700"/>
<rect x="85.2412" y="35.5863" width="2.75862" height="2.75862" fill="#00E8DA"/>
<rect x="24.5518" y="38.3448" width="2.75862" height="2.75862" fill="#00A797"/>
<rect x="27.3105" y="38.3448" width="2.75862" height="2.75862" fill="#05E8D4"/>
<rect x="30.0684" y="38.3448" width="2.75862" height="2.75862" fill="#06EBD7"/>
<rect x="32.8271" y="38.3448" width="2.75862" height="2.75862" fill="#06EBD7"/>
<rect x="35.5859" y="38.3448" width="2.75862" height="2.75862" fill="#00EED7"/>
<rect x="38.3447" y="38.3448" width="2.75862" height="2.75862" fill="#01A398"/>
<rect x="41.1035" y="38.3448" width="2.75862" height="2.75862" fill="#00A9A0"/>
<rect x="46.6211" y="38.3448" width="2.75862" height="2.75862" fill="#01A7A3"/>
<rect x="52.1387" y="38.3448" width="2.75862" height="2.75862" fill="#FF6B9D"/>
<rect x="65.9316" y="38.3448" width="2.75862" height="2.75862" fill="#FFD700"/>
<rect x="79.7246" y="38.3448" width="2.75862" height="2.75862" fill="#00E1CD"/>
<rect x="82.4824" y="38.3448" width="2.75862" height="2.75862" fill="#00E4D4"/>
<rect x="21.793" y="41.1034" width="2.75862" height="2.75862" fill="#00A093"/>
<rect x="24.5518" y="41.1034" width="2.75862" height="2.75862" fill="#09EDDC"/>
<rect x="38.3447" y="41.1034" width="2.75862" height="2.75862" fill="#00EED7"/>
<rect x="41.1035" y="41.1034" width="2.75862" height="2.75862" fill="#03E5CD"/>
<rect x="43.8613" y="41.1034" width="2.75862" height="2.75862" fill="#00BAB3"/>
<rect x="60.4141" y="41.1034" width="2.75862" height="2.75862" fill="#FFD700"/>
<rect x="76.9658" y="41.1034" width="2.75862" height="2.75862" fill="#00E6D0"/>
<rect x="21.793" y="43.862" width="2.75862" height="2.75862" fill="#00A99D"/>
<rect x="24.5518" y="43.862" width="2.75862" height="2.75862" fill="#07EFDF"/>
<rect x="32.8271" y="43.862" width="2.75862" height="2.75862" fill="#629BF8"/>
<rect x="43.8613" y="43.862" width="2.75862" height="2.75862" fill="#02BAAE"/>
<rect x="46.6211" y="43.862" width="2.75862" height="2.75862" fill="#0BA59B"/>
<rect x="52.1387" y="43.862" width="2.75862" height="2.75862" fill="#FFD700"/>
<rect x="57.6553" y="43.862" width="2.75862" height="2.75862" fill="#FFD700"/>
<rect x="74.207" y="43.862" width="2.75862" height="2.75862" fill="#0DE2CE"/>
<rect x="21.793" y="46.6206" width="2.75862" height="2.75862" fill="#00A59D"/>
<rect x="24.5518" y="46.6206" width="2.75862" height="2.75862" fill="#09EDDC"/>
<rect x="41.1035" y="46.6206" width="2.75862" height="2.75862" fill="#189F98"/>
<rect x="46.6211" y="46.6206" width="2.75862" height="2.75862" fill="#09E2CF"/>
<rect x="49.3789" y="46.6206" width="2.75862" height="2.75862" fill="#1AA39C"/>
<rect x="68.6895" y="46.6206" width="2.75862" height="2.75862" fill="#22E3D2"/>
<rect x="71.4482" y="46.6206" width="2.75862" height="2.75862" fill="#1FE3CF"/>
<rect x="76.9658" y="46.6206" width="2.75862" height="2.75862" fill="#FF6B9D"/>
<rect x="79.7246" y="46.6206" width="2.75862" height="2.75862" fill="#FF6B9D"/>
<rect x="19.0342" y="49.3794" width="2.75862" height="2.75862" fill="#005555"/>
<rect x="21.793" y="49.3794" width="2.75862" height="2.75862" fill="#00A7A0"/>
<rect x="24.5518" y="49.3794" width="2.75862" height="2.75862" fill="#06EED6"/>
<rect x="27.3105" y="49.3794" width="2.75862" height="2.75862" fill="#038F8C"/>
<rect x="41.1035" y="49.3794" width="2.75862" height="2.75862" fill="#00A29D"/>
<rect x="46.6211" y="49.3794" width="2.75862" height="2.75862" fill="#1E8E80"/>
<rect x="49.3789" y="49.3794" width="2.75862" height="2.75862" fill="#01C1B4"/>
<rect x="52.1387" y="49.3794" width="2.75862" height="2.75862" fill="#006162"/>
<rect x="63.1729" y="49.3794" width="2.75862" height="2.75862" fill="#629BF8"/>
<rect x="74.207" y="49.3794" width="2.75862" height="2.75862" fill="#FF6B9D"/>
<rect x="16.2754" y="52.138" width="2.75862" height="2.75862" fill="#00201D"/>
<rect x="19.0342" y="52.138" width="2.75862" height="2.75862" fill="#01A49F"/>
<rect x="21.793" y="52.138" width="2.75862" height="2.75862" fill="#00A59F"/>
<rect x="24.5518" y="52.138" width="2.75862" height="2.75862" fill="#02EED8"/>
<rect x="27.3105" y="52.138" width="2.75862" height="2.75862" fill="#05F3DC"/>
<rect x="35.5859" y="52.138" width="2.75862" height="2.75862" fill="#BA9D4E"/>
<rect x="41.1035" y="52.138" width="2.75862" height="2.75862" fill="#1F7970"/>
<rect x="49.3789" y="52.138" width="2.75862" height="2.75862" fill="#2CAA9C"/>
<rect x="52.1387" y="52.138" width="2.75862" height="2.75862" fill="#00C0AF"/>
<rect x="54.8965" y="52.138" width="2.75862" height="2.75862" fill="#004A44"/>
<rect x="57.6553" y="52.138" width="2.75862" height="2.75862" fill="#629BF8"/>
<rect x="60.4141" y="52.138" width="2.75862" height="2.75862" fill="#629BF8"/>
<rect x="68.6895" y="52.138" width="2.75862" height="2.75862" fill="#FF6B9D"/>
<rect x="71.4482" y="52.138" width="2.75862" height="2.75862" fill="#FF6B9D"/>
<rect x="85.2412" y="52.138" width="2.75862" height="2.75862" fill="#FFD700"/>
<rect x="16.2754" y="54.8966" width="2.75862" height="2.75862" fill="#001F1C"/>
<rect x="19.0342" y="54.8966" width="2.75862" height="2.75862" fill="#00A39C"/>
<rect x="21.793" y="54.8966" width="2.75862" height="2.75862" fill="#00A8A3"/>
<rect x="24.5518" y="54.8966" width="2.75862" height="2.75862" fill="#02F0D6"/>
<rect x="27.3105" y="54.8966" width="2.75862" height="2.75862" fill="#01EFCF"/>
<rect x="35.5859" y="54.8966" width="2.75862" height="2.75862" fill="#FFD700"/>
<rect x="52.1387" y="54.8966" width="2.75862" height="2.75862" fill="#00EBD5"/>
<rect x="54.8965" y="54.8966" width="2.75862" height="2.75862" fill="#629BF8"/>
<rect x="19.0342" y="57.6552" width="2.75862" height="2.75862" fill="#00A69F"/>
<rect x="21.793" y="57.6552" width="2.75862" height="2.75862" fill="#00A79F"/>
<rect x="24.5518" y="57.6552" width="2.75862" height="2.75862" fill="#00A29C"/>
<rect x="27.3105" y="57.6552" width="2.75862" height="2.75862" fill="#05ECD8"/>
<rect x="30.0684" y="57.6552" width="2.75862" height="2.75862" fill="#00F0DA"/>
<rect x="35.5859" y="57.6552" width="2.75862" height="2.75862" fill="#FFD700"/>
<rect x="43.8613" y="57.6552" width="2.75862" height="2.75862" fill="#07C4BD"/>
<rect x="52.1387" y="57.6552" width="2.75862" height="2.75862" fill="#629BF8"/>
<rect x="54.8965" y="57.6552" width="2.75862" height="2.75862" fill="#00E1CF"/>
<rect x="65.9316" y="57.6552" width="2.75862" height="2.75862" fill="#FF6B9D"/>
<rect x="79.7246" y="57.6552" width="2.75862" height="2.75862" fill="#3676E0"/>
<rect x="13.5176" y="60.4137" width="2.75862" height="2.75862" fill="#00403B"/>
<rect x="16.2754" y="60.4137" width="2.75862" height="2.75862" fill="#00B2A6"/>
<rect x="19.0342" y="60.4137" width="2.75862" height="2.75862" fill="#0BE5D4"/>
<rect x="21.793" y="60.4137" width="2.75862" height="2.75862" fill="#00A49D"/>
<rect x="24.5518" y="60.4137" width="2.75862" height="2.75862" fill="#00A9A4"/>
<rect x="27.3105" y="60.4137" width="2.75862" height="2.75862" fill="#01EAD5"/>
<rect x="30.0684" y="60.4137" width="2.75862" height="2.75862" fill="#01EDD6"/>
<rect x="32.8271" y="60.4137" width="2.75862" height="2.75862" fill="#03EBD5"/>
<rect x="49.3789" y="60.4137" width="2.75862" height="2.75862" fill="#629BF8"/>
<rect x="54.8965" y="60.4137" width="2.75862" height="2.75862" fill="#05DFCE"/>
<rect x="57.6553" y="60.4137" width="2.75862" height="2.75862" fill="#01A59C"/>
<rect x="13.5176" y="63.1723" width="2.75862" height="2.75862" fill="#00433C"/>
<rect x="16.2754" y="63.1723" width="2.75862" height="2.75862" fill="#00B0A3"/>
<rect x="19.0342" y="63.1723" width="2.75862" height="2.75862" fill="#09ECD9"/>
<rect x="21.793" y="63.1723" width="2.75862" height="2.75862" fill="#00ABA2"/>
<rect x="24.5518" y="63.1723" width="2.75862" height="2.75862" fill="#01A59E"/>
<rect x="27.3105" y="63.1723" width="2.75862" height="2.75862" fill="#00A19A"/>
<rect x="30.0684" y="63.1723" width="2.75862" height="2.75862" fill="#03EAD6"/>
<rect x="32.8271" y="63.1723" width="2.75862" height="2.75862" fill="#03EFD9"/>
<rect x="35.5859" y="63.1723" width="2.75862" height="2.75862" fill="#04F0DA"/>
<rect x="46.6211" y="63.1723" width="2.75862" height="2.75862" fill="#629BF8"/>
<rect x="54.8965" y="63.1723" width="2.75862" height="2.75862" fill="#02E5D2"/>
<rect x="57.6553" y="63.1723" width="2.75862" height="2.75862" fill="#02A89E"/>
<rect x="65.9316" y="63.1723" width="2.75862" height="2.75862" fill="#00E6D4"/>
<rect x="71.4482" y="63.1723" width="2.75862" height="2.75862" fill="#01EDD6"/>
<rect x="76.9658" y="63.1723" width="2.75862" height="2.75862" fill="#00E7DA"/>
<rect x="82.4824" y="63.1723" width="2.75862" height="2.75862" fill="#04EBD9"/>
<rect x="13.5176" y="65.9311" width="2.75862" height="2.75862" fill="#00413A"/>
<rect x="16.2754" y="65.9311" width="2.75862" height="2.75862" fill="#00B0A8"/>
<rect x="19.0342" y="65.9311" width="2.75862" height="2.75862" fill="#06EFDA"/>
<rect x="21.793" y="65.9311" width="2.75862" height="2.75862" fill="#08E9D7"/>
<rect x="24.5518" y="65.9311" width="2.75862" height="2.75862" fill="#00A79D"/>
<rect x="27.3105" y="65.9311" width="2.75862" height="2.75862" fill="#02A7A1"/>
<rect x="30.0684" y="65.9311" width="2.75862" height="2.75862" fill="#00A79F"/>
<rect x="32.8271" y="65.9311" width="2.75862" height="2.75862" fill="#00ECD6"/>
<rect x="35.5859" y="65.9311" width="2.75862" height="2.75862" fill="#01EAD5"/>
<rect x="38.3447" y="65.9311" width="2.75862" height="2.75862" fill="#05F0DF"/>
<rect x="41.1035" y="65.9311" width="2.75862" height="2.75862" fill="#00A59B"/>
<rect x="43.8613" y="65.9311" width="2.75862" height="2.75862" fill="#00A297"/>
<rect x="54.8965" y="65.9311" width="2.75862" height="2.75862" fill="#00E1CF"/>
<rect x="57.6553" y="65.9311" width="2.75862" height="2.75862" fill="#00A49D"/>
<rect x="68.6895" y="65.9311" width="2.75862" height="2.75862" fill="#00EAD4"/>
<rect x="74.207" y="65.9311" width="2.75862" height="2.75862" fill="#00E7D4"/>
<rect x="79.7246" y="65.9311" width="2.75862" height="2.75862" fill="#03E7D6"/>
<rect x="85.2412" y="65.9311" width="2.75862" height="2.75862" fill="#02E4D8"/>
<rect x="10.7588" y="68.6897" width="2.75862" height="2.75862" fill="#005757"/>
<rect x="13.5176" y="68.6897" width="2.75862" height="2.75862" fill="#00A59F"/>
<rect x="16.2754" y="68.6897" width="2.75862" height="2.75862" fill="#00B0A8"/>
<rect x="19.0342" y="68.6897" width="2.75862" height="2.75862" fill="#03ECD7"/>
<rect x="21.793" y="68.6897" width="2.75862" height="2.75862" fill="#04EBD7"/>
<rect x="24.5518" y="68.6897" width="2.75862" height="2.75862" fill="#03F0DC"/>
<rect x="27.3105" y="68.6897" width="2.75862" height="2.75862" fill="#03A7A0"/>
<rect x="30.0684" y="68.6897" width="2.75862" height="2.75862" fill="#00A49D"/>
<rect x="32.8271" y="68.6897" width="2.75862" height="2.75862" fill="#03A79C"/>
<rect x="35.5859" y="68.6897" width="2.75862" height="2.75862" fill="#03EFD8"/>
<rect x="38.3447" y="68.6897" width="2.75862" height="2.75862" fill="#04EBD9"/>
<rect x="41.1035" y="68.6897" width="2.75862" height="2.75862" fill="#03ECD7"/>
<rect x="43.8613" y="68.6897" width="2.75862" height="2.75862" fill="#01DCC6"/>
<rect x="54.8965" y="68.6897" width="2.75862" height="2.75862" fill="#05E2D0"/>
<rect x="57.6553" y="68.6897" width="2.75862" height="2.75862" fill="#02A89E"/>
<rect x="10.7588" y="71.4483" width="2.75862" height="2.75862" fill="#005251"/>
<rect x="13.5176" y="71.4483" width="2.75862" height="2.75862" fill="#01A49F"/>
<rect x="16.2754" y="71.4483" width="2.75862" height="2.75862" fill="#01A59E"/>
<rect x="19.0342" y="71.4483" width="2.75862" height="2.75862" fill="#00A79F"/>
<rect x="21.793" y="71.4483" width="2.75862" height="2.75862" fill="#03F0DC"/>
<rect x="24.5518" y="71.4483" width="2.75862" height="2.75862" fill="#04EDD8"/>
<rect x="27.3105" y="71.4483" width="2.75862" height="2.75862" fill="#04E9D5"/>
<rect x="30.0684" y="71.4483" width="2.75862" height="2.75862" fill="#02A89E"/>
<rect x="32.8271" y="71.4483" width="2.75862" height="2.75862" fill="#01A8A0"/>
<rect x="35.5859" y="71.4483" width="2.75862" height="2.75862" fill="#00A59E"/>
<rect x="38.3447" y="71.4483" width="2.75862" height="2.75862" fill="#02A89E"/>
<rect x="41.1035" y="71.4483" width="2.75862" height="2.75862" fill="#05EED8"/>
<rect x="43.8613" y="71.4483" width="2.75862" height="2.75862" fill="#04DFCB"/>
<rect x="46.6211" y="71.4483" width="2.75862" height="2.75862" fill="#04DDCC"/>
<rect x="49.3789" y="71.4483" width="2.75862" height="2.75862" fill="#01DECC"/>
<rect x="52.1387" y="71.4483" width="2.75862" height="2.75862" fill="#01E2D0"/>
<rect x="54.8965" y="71.4483" width="2.75862" height="2.75862" fill="#07A79D"/>
<rect x="65.9316" y="71.4483" width="2.75862" height="2.75862" fill="#FFD700"/>
<rect x="79.7246" y="71.4483" width="2.75862" height="2.75862" fill="#FF6B9D"/>
<rect x="10.7588" y="74.2069" width="2.75862" height="2.75862" fill="#005350"/>
<rect x="13.5176" y="74.2069" width="2.75862" height="2.75862" fill="#02A19C"/>
<rect x="16.2754" y="74.2069" width="2.75862" height="2.75862" fill="#00A8A0"/>
<rect x="19.0342" y="74.2069" width="2.75862" height="2.75862" fill="#01A8A1"/>
<rect x="21.793" y="74.2069" width="2.75862" height="2.75862" fill="#00A69E"/>
<rect x="24.5518" y="74.2069" width="2.75862" height="2.75862" fill="#04EBD7"/>
<rect x="27.3105" y="74.2069" width="2.75862" height="2.75862" fill="#03EFD8"/>
<rect x="30.0684" y="74.2069" width="2.75862" height="2.75862" fill="#00EED6"/>
<rect x="32.8271" y="74.2069" width="2.75862" height="2.75862" fill="#00A59E"/>
<rect x="35.5859" y="74.2069" width="2.75862" height="2.75862" fill="#01A79D"/>
<rect x="38.3447" y="74.2069" width="2.75862" height="2.75862" fill="#01A59E"/>
<rect x="41.1035" y="74.2069" width="2.75862" height="2.75862" fill="#01A59E"/>
<rect x="43.8613" y="74.2069" width="2.75862" height="2.75862" fill="#03A7A0"/>
<rect x="46.6211" y="74.2069" width="2.75862" height="2.75862" fill="#00A79D"/>
<rect x="49.3789" y="74.2069" width="2.75862" height="2.75862" fill="#01A59C"/>
<rect x="52.1387" y="74.2069" width="2.75862" height="2.75862" fill="#04A59F"/>
<rect x="8" y="76.9655" width="2.75862" height="2.75862" fill="#108B86"/>
<rect x="10.7588" y="76.9655" width="2.75862" height="2.75862" fill="#00C0B2"/>
<rect x="13.5176" y="76.9655" width="2.75862" height="2.75862" fill="#07EEDA"/>
<rect x="16.2754" y="76.9655" width="2.75862" height="2.75862" fill="#15EAD8"/>
<rect x="19.0342" y="76.9655" width="2.75862" height="2.75862" fill="#00A49D"/>
<rect x="21.793" y="76.9655" width="2.75862" height="2.75862" fill="#00A59E"/>
<rect x="24.5518" y="76.9655" width="2.75862" height="2.75862" fill="#00A69F"/>
<rect x="27.3105" y="76.9655" width="2.75862" height="2.75862" fill="#02DBC6"/>
<rect x="30.0684" y="76.9655" width="2.75862" height="2.75862" fill="#01D8C6"/>
<rect x="32.8271" y="76.9655" width="2.75862" height="2.75862" fill="#04DBC9"/>
<rect x="35.5859" y="76.9655" width="2.75862" height="2.75862" fill="#02DDC9"/>
<rect x="38.3447" y="76.9655" width="2.75862" height="2.75862" fill="#00A49D"/>
<rect x="41.1035" y="76.9655" width="2.75862" height="2.75862" fill="#00A59F"/>
<rect x="43.8613" y="76.9655" width="2.75862" height="2.75862" fill="#009E9D"/>
<rect x="8" y="79.724" width="2.75862" height="2.75862" fill="#118582"/>
<rect x="10.7588" y="79.724" width="2.75862" height="2.75862" fill="#00CCBF"/>
<rect x="13.5176" y="79.724" width="2.75862" height="2.75862" fill="#04F2DB"/>
<rect x="16.2754" y="79.724" width="2.75862" height="2.75862" fill="#07E9D3"/>
<rect x="19.0342" y="79.724" width="2.75862" height="2.75862" fill="#05D4C2"/>
<rect x="21.793" y="79.724" width="2.75862" height="2.75862" fill="#02A7A0"/>
<rect x="24.5518" y="79.724" width="2.75862" height="2.75862" fill="#00A49D"/>
<rect x="27.3105" y="79.724" width="2.75862" height="2.75862" fill="#01A79D"/>
<rect x="30.0684" y="79.724" width="2.75862" height="2.75862" fill="#01A8A0"/>
<rect x="32.8271" y="79.724" width="2.75862" height="2.75862" fill="#01A29C"/>
<rect x="35.5859" y="79.724" width="2.75862" height="2.75862" fill="#01A29A"/>
<rect x="8" y="82.4828" width="2.75862" height="2.75862" fill="#108B86"/>
<rect x="10.7588" y="82.4828" width="2.75862" height="2.75862" fill="#00BAAC"/>
<rect x="13.5176" y="82.4828" width="2.75862" height="2.75862" fill="#01D8C6"/>
<rect x="16.2754" y="82.4828" width="2.75862" height="2.75862" fill="#04DDCA"/>
<rect x="19.0342" y="82.4828" width="2.75862" height="2.75862" fill="#06DFCC"/>
<rect x="21.793" y="82.4828" width="2.75862" height="2.75862" fill="#00A39C"/>
<rect x="24.5518" y="82.4828" width="2.75862" height="2.75862" fill="#00A39E"/>
<rect x="27.3105" y="82.4828" width="2.75862" height="2.75862" fill="#06A7A1"/>
<rect x="10.7588" y="85.2414" width="2.75862" height="2.75862" fill="#005451"/>
<rect x="13.5176" y="85.2414" width="2.75862" height="2.75862" fill="#00A8A1"/>
<rect x="16.2754" y="85.2414" width="2.75862" height="2.75862" fill="#00AAA1"/>
<rect x="19.0342" y="85.2414" width="2.75862" height="2.75862" fill="#0A9D95"/>
</svg>
