<?xml version="1.0" encoding="UTF-8"?>
<svg id="_레이어_1" xmlns="http://www.w3.org/2000/svg" version="1.1" viewBox="0 0 1024 1024">
  <!-- Generator: Adobe Illustrator 30.1.0, SVG Export Plug-In . SVG Version: 2.1.1 Build 136)  -->
  <defs>
    <style>
      .st0 {
        fill: #014a4a;
      }

      .st1 {
        fill: #4cdfd2;
      }

      .st2 {
        fill: #c0fff3;
      }

      .st3 {
        fill: #29aba6;
      }

      .st4 {
        fill: #267a74;
      }

      .st5 {
        fill: #fefefe;
      }

      .st6 {
        fill: #072628;
      }
    </style>
  </defs>
  <g>
    <path class="st5" d="M676,193h0c-.8-2.5-1.7-2.7-2,0-.4.5-.4,1.2,0,2-1.1,9.3-1.9,20.3-.7,29.7.4,3.1,50.9.7,57.8.4,1,0,1.9-.3,3-.7,1.1-.4,2-.9,3-1.4v-30c-20.3-2-40.7-2-61,0Z"/>
    <path class="st5" d="M324,799l-1-63v64h32c-5.1-2.8-29.8.2-31-1Z"/>
    <path class="st5" d="M674.1,225.5c-9.7-1-19.4-.4-29.1-.5h0c-.6-1.9-1.4-1.9-2,0h-1c-1.2.2-1.6.6-1,1.5v29.4c.8.9,3.6,1,4,.1,4.3.7,8.8,1,13,0,.5.7,1.7.8,2,0,4.8.5,9.4.5,14,0,.2-4.6-.2-9.4,0-14v-2c0-2.3.6-14.1,0-14.5Z"/>
    <path class="st5" d="M228,385h-1c.2,10.3,0,20.7,0,31,1.5.7,3.2,1,5,1,2.4.3,5.4-.1,8,0h10c2.6,0,5.4-.1,8,0l-30-2v-30Z"/>
    <path class="st5" d="M259,480c-.6.4-.6.7,0,1h1l-1-64v63Z"/>
    <path class="st5" d="M195,545h1l-1-32c0,10.7,0,21.4,0,32Z"/>
    <path class="st5" d="M258,545v-32h-1c.1,4.5-.9,30.5,1,32Z"/>
    <polygon class="st5" points="482 417 481.4 513.1 546 513 482 513 482 417"/>
    <polygon class="st5" points="323 481 323 545 324 481 323 481"/>
    <path class="st5" d="M706,258c4.6-.1,29.3.9,31-1h-31v1Z"/>
  </g>
  <g>
    <path class="st0" d="M865.9,640h-32l-1-24c.3,6.3-2.3,16-1,23h-28v-29.1h27.4l1.6,4.1-.6-6h-30.3c-.2,5.3.2,10.7,0,16h0v8c-.2,2.6.2,5.4,0,8l-31,1c-.6.2-1,.9-1,2-1.2,8.7.9,20,0,29h2v-30h28l1,61-30,1c.2.6.5,1,.7,1,7.7.4,21.7,1,29,0,0,0,.3-.5.3-1,.4.6.7.6,1,0l.5-61.5c1.4-.3,1.8-.7,1.2-1h27.8c.3,1.4.6,1.7.9,1.2l.5,29.3c.4.9.7.9,1,0l1.5,2h28.4l.2,51.2c.2,4,.9,7.9,1.9,11.8-2,9.5-2.8,19.4-2.2,29.7l-.8,1.3c-1.1-2.5-1.9-2.7-2.2,0l-25.4-.5c-.5-2-1.2-1.6-1.5.5-2.5.8-2.7,1.7,0,2-.7,10-1,20-1,30v1l32.1-.4c2.5-2,.2-25.7.4-30.2,0-.9,1.6-1.3,1.6-1.4,1.1-31,1-66,0-97-.3-10.6-1.8-21.3-1-32Z"/>
    <path class="st0" d="M258,545c.4.9.7.9,1,0h63c.4.9.7.9,1,0,.4-21.6.4-42.9,0-64-.9-1.9-2.1-1.9-3,0-9.2-1.7-18.9-1.7-28,0-.6-1.9-1.4-1.9-2,0-8.8-3.1-21-2.8-30,0-.4-.8-.8-.9-1,0-.5-.2-.5-.5,0-1,.4-20.9.4-41.9,0-63-.4-.9-.7-.9-1,0h-18c-1.9-1-6.4-1.3-8,0-1.9,0-3.5-.3-5-1,.8-10.3.9-20.7,0-31,.7-10.6.8-21.4,0-32h-32l30,1v63l2.5,1h29.5v61h-60v-93.4l-2-.6,1,95c20.3,1.6,40.7,2.1,61.3,1.5l.7,31.5c-.8,10.7-.9,21.3,0,32Z"/>
    <path class="st0" d="M258.1,129c.9-20.8,1.5-41.6,1.8-62.5h28.7c.3,1.4.6,1.7.9,1.2-.3,20.7,0,41.1.5,61.3.5.9.8.9,1,0,10.4,2.5,20.6,2.5,31,0l-30-2-2-61-30-2v-30h61v62.4l2,.6h.1l-1-64.6-63-.4-2,33,1,95c3-9.6,3.2-21.4,0-31Z"/>
    <path class="st0" d="M802,433c0-5.3-.8-11.4-1-17-.5-.9-.8-.9-1,0-31.3-.5-62.7-.5-94,0-9.6-3-22.4-2.2-32,1-1.5.4-1.8.8-.5,1.2l.5,61.8c-.9.4-.9.7,0,1-2.5,8.4-2.5,16.6,0,25l2-88h124c1,4.1-2.2,15.2,2,15Z"/>
    <path class="st0" d="M673,671.9c.5.9.8.9,1,0,10.3-.2,20.7,0,31,0-1-3.7.8-8,1-11v-2l-1-3c0-2.7.2-5.4,0-8v-7l-2-1h-93c0-10.3,0-20.7,0-31v-1c-1.3-2.8-13.2-1.9-16-1.1l-1,2.1,1.4,2.2,11.8,1.1,1.8,27,2,.8,1.2,2c30.2.7,60.5,1.3,90.7,2-.6,4.8-.5,19.3,0,25h-120.9v-60.1l-2-.9h0c-.6,1.1-1.2,2.2-1.6,3.4s-.9,2.3-.9,3.5c-1.2,16.4-.9,33.5-.6,50,0,1.1.3,2.3.7,3.5s.9,2.3,1.4,3.5c31.4,3.5,63.6,3.5,95,0Z"/>
    <path class="st0" d="M229,610h93v-1c-4.1-2.8-9.9-2.8-14,0l-3-1c-1.6-2.9-4.4-2.8-6,0h-3c-1.6-2-3.4-2-5,0h-11c-.6-1.9-1.4-1.9-2,0h-5c-15.2-.1-30.4-.6-45.5-1.4l-.5-29.6c-.5-1.9-.9-3.2-2-1l-28.6-.5c-1.2-9.7-1.7-19.5-1.4-29.5.9-.5.9-.8,0-1,.4-10.7.4-21.3,0-32,.5-10.2.7-20.5.5-30.9,2.4-.6,1.8-1.8-.5-2.1h-1c-.6,32.1-2.6,64.9-1,97,0,.1,2.7.1,2.7,1.4.3,5.2-2.1,27.1-.7,29.6l2-30h26.5l1.5-1v32h2v2c.1,4.3-.2,8.7,0,13v8c.1,2,0,4,0,6l1,3h92l-91-2v-29Z"/>
    <path class="st0" d="M611.4,162.6c0,0,.1-.1.2-.2.2,0,.4-.3.7-.8l28.6-.5c1.8.9,2.3.4,1-1l.5-29.6,1.5-.6c9-.3,19-.6,30-.9.8-.2,1.7-.6,2.1-1.3.6-1.3,1.8-25.4,1.8-28.7s-1.1-.9-1.9-1l2-1.2v-60.8h55.9c-.6,5.4-.6,19.9,0,25.9-5.9-.6-22-.6-27,0-.6,0-.9,1.2-.9,2l-2,1.4c-1.1,6.1-1.3,24.8-.9,31.4,0,.6,1.2,1,2,1.2l2-1.4c.3-3.6,1.5-28.4.3-29.3-.3-.3-.8-.3-1.3-.3h32c-2.7.7-2.9,3,0,3v3c-2.8.9-2.9,5.2,0,6v10c-2.5,1.5-2.5,2.5,0,4v5c-1.9.9-1.9,2.1,0,3-.4,9-.4,18,0,27,2.3-20.9.8-42.1,0-63h0c-.4-10.6,1.5-22.5-1.5-32.9h-61l-1.5,3.5c-.4,20.4.6,41,0,61.5-.3,10.2-1.8,20.7-1,31l-1.5-1h-29l-2.5,1v31l-29,2-1,31,1-.6.5-28.9Z"/>
    <path class="st0" d="M225,224h2c-.2-10.4,1.4-22-1.5-32h-94.5l1,129v-127h93v30Z"/>
    <path class="st0" d="M323,792v-1c.6-7.7.4-15.3,0-23v-32c.4-20.8.7-41.6.9-62.4l31.1-1.6,1-30.7-1-.3h-1v30h-29c-.2-7.4.2-15,0-22.5,0-2,1-4.1-2-3.5-.5,8.9,2,18,1,27h-3v128c.6-.2,1.4-2.3,2-3,.7-1.6.7-3.3,0-5Z"/>
    <path class="st0" d="M291,800h-32v64h1l2-1.2v-58.7c3.3.4,20,.2,25,0v57.3c-1.6-.8-3.6-1-6-.6-5,0-13.5,0-17,3.2h26c.9-21.2,1.6-42.8,2-64,.7-38.2.3-76.8-1-115-3.1,36.7,2.3,77.8,0,115Z"/>
    <path class="st0" d="M324,255.5c.5-1.4.2-27.1,0-30.6,0-.5-1.2-.9-2-.9l-1,31h-27.5l-1.5,1v-62l30-1-1.4-2c-5.5-.8-23.1-.6-28.7,0-.6,0-.9,1.2-.9,2,0,21.1,0,41.9-1,63-.5,11-1.7,22-1,33h1c.4.9.7.9,1,0l.5-30.5c10-1.2,20.1-1.7,30.5-1.5.8-.4,1.7-.7,2-1.5Z"/>
    <path class="st0" d="M770,980v-3c.2-5.3,0-10.7,0-16h0c-6.7-.9-13.4-1.8-20.2-1.8-53.9-.4-107.9-.6-161.7.4l-10.1,1.4,190,1v30h1l1-2c0-2.3-.2-4.7,0-7v-3Z"/>
    <path class="st0" d="M548,160v-62h28l2,8c-.2-1.9.5-8.1-1.7-9h-29.3l-1,3v62h31l-29-2Z"/>
    <path class="st0" d="M770,66c0,2.1,0,4.3,0,6.4v-6.4c.1,0,0,0,0,0Z"/>
    <path class="st0" d="M769,161c.7-.8,1-1.8,1-3,.4-2.7-.2-6.1,0-9v-4c0-4,0-8,0-12v-4c.3-18.9-.1-37.7,0-56.6l-1.9,87.6c-6.9.2-13.8-.2-20.6,0-2,0-4.1-1-3.5,2,6.4-.4,19.9,1.4,25-1Z"/>
    <path class="st0" d="M739,192h-1c0-10.3-.3-20.3-1-30l-2.5,1.7c-1,9.1-.9,18.2.4,27.3l2.1,2c-2.8,1.9-2.9,5.1,0,7v1c-2.7,2.2-2.7,4.8,0,7v1c-3,.9-3.2,10.3,0,11,3,.6,2-1.5,2-3.4.3-7.5-.2-15.1,0-22.6l157-1-157-1Z"/>
    <path class="st0" d="M752.8,672.7c5.3,0,10.5-.3,15.2-.7l-15.2.7Z"/>
    <path class="st0" d="M709,672c-1.3,0-2.3.3-3,1,0,6.2-1.1,26.9,1,31l29.6,1c.5,1.7,1.1.9,1.4-1l-30-1-.6-28.1,45.4-2.2c-14.5.2-30.4-.7-43.8-.7Z"/>
    <path class="st0" d="M387,130v-64h-.9l-1,62c-7.9.2-15.8-.3-23.6,0-2,0-4.1-1-3.5,2,4.6-.5,27.6.8,29,0Z"/>
    <path class="st0" d="M456,961h88c-26.4-2.5-60.7,0-88,0Z"/>
    <path class="st0" d="M674,545h0c-8.1-2.2-25.3-4.1-32.5-.8-.2,0-1.2,1.8-1.5,2.3-.5,1.1.6,20.8.9,23.4,0,.6,1.2.9,2,1.1.6-8.3,1.6-16.6,1-25h28v29l-24,2c8.7,0,17.4-.2,26,0,0-10-.2-20,0-30v-2Z"/>
    <path class="st0" d="M866,355c0-.4-1-1.3-1-2h.1c-.2-.5-.4-1-.7-1.3-1.1-1.1-25.9-.9-29.5-.7-.6,0-.9,1.2-.9,2-.2,10.3.2,20.7,0,31l1-30h29v29l-24,2c8.6-.3,17.4,0,26,0-1-9.3,1.3-21.1,0-30Z"/>
    <path class="st0" d="M834,387c0-.5-1.4-1.8-1-3l-31,1v31c.2,0,1.2,1,2,1v-31h28v29l-5,2c2.4-.2,4.7-.6,7,0-.9-9.3,1.3-21,0-30Z"/>
    <polygon class="st0" points="229 865 229 864 228 991 229 865"/>
    <polygon class="st0" points="355 130 353 130.6 353 191.4 355 192 355 130"/>
    <polygon class="st0" points="163 576 164 482 192 482 163 481 163 576"/>
    <path class="st0" d="M163.1,321v62.8c1.6,2.5,25.3.6,29.9,1.2.6-3-1.5-2-3.4-2-8.5-.3-17.1.2-25.6,0v-62h-.9Z"/>
    <path class="st0" d="M231,161l-3-95v92c-.6,1-1,2.1,0,3,.7.2,2.1-.1,3,0Z"/>
    <path class="st0" d="M293,672l-2,1v10c.3-2.5,1.9-5.7,1-9l28-2c-8.6.8-18.3-.6-27,0Z"/>
    <path class="st0" d="M642,576c-.8-2.5-1.7-2.7-2,0v32l2-2c.4-9.6-.6-19.4,0-29v-1Z"/>
    <polygon class="st0" points="578 192 579 192 580 162.6 578 162 578 192"/>
    <path class="st0" d="M546,984v1c0,1.3,0,2.7,0,4l1,3h1v-31h-2c.3,7.6-.5,15.4,0,23Z"/>
    <path class="st0" d="M449,969.5c-.3,7.4.2,15,0,22.5h1l1-3c1-5.3,0-16.8,0-23-3-.5-2,1.6-2,3.5Z"/>
    <path class="st0" d="M578,108l-2,20.4,2,.6c-.3-6.9.5-14.1,0-21Z"/>
    <path class="st0" d="M736,131.4c-.7,5.2-.7,22.5,0,27.7,0,.6,1.2.9,2,.9-2.5.8-2.7,1.7,0,2h2l-2-32-2,1.4Z"/>
    <polygon class="st0" points="355 65 355 96 357 65 355 65"/>
    <path class="st0" d="M359,65h14.3c-4.9-.2-9.7-.5-14.3,0Z"/>
    <path class="st0" d="M384,65h-10.7c3.6.1,7.2.3,10.7,0Z"/>
    <path class="st0" d="M808,417h10c1.7-3-11.2-3.4-10,0Z"/>
    <path class="st0" d="M451,964v-3h-2c0,2.4-.7,3.5,2,3Z"/>
    <path class="st0" d="M387,959v-31c0,10.3,0,20.7,0,31Z"/>
    <path class="st0" d="M451,862c.6-5.7,0-13.1,0-19v-10l-33-1c-.1,10.7,0,21.3,0,32-.9-2-3.2-2.6-6.8-1.9-17.4-.5-37.9,0-55.3.9-.6,0-.9,1.2-.9,2v1h62v28h-30v3l30-1,1-1,1-.6.5-27.9,1-1,30.5-.5v-3Z"/>
    <path class="st0" d="M387,897v31c.1-10.3,0-20.7,0-31Z"/>
    <path class="st0" d="M803.4,799.5c-.8-10.4-1.4-20.9-1.4-31.5v-31c-.6-1.9-1.4-1.9-2,0-9.8,0-19.5-.5-29.2-1.5l-.3-29.1c2.3-.4,1.8-1.1-.5-1.4l-1,30h-30l-1-30h0c-.4,7.2-.4,14.5,0,21.9v9c9.5.5,19.1-.5,28.6,0,2.9.2,3.2,2.1,3.4,2.1,9.9.6,20.1-.4,30,0v61l-30-2v3c10.7-.9,21.5.8,32,1,9.7.2,20.5.7,30-1-9.4-.5-18.9-.7-28.6-.5Z"/>
    <path class="st0" d="M642,824v-24h-2c0,0-30,0-30,0v31c-1,1.8-27.6,1-32,1v63h32v-63c10.6,0,21.3,0,32,0v-4l-2.1-.8c-7.9,2.3-16.5,2.8-25.8,1.8.4-5.4.7-20.2,0-25.8,3.9.4,22.5.2,25.8,0-2.5,6-1.3,16.3,2.1,21Z"/>
    <path class="st0" d="M483.9,928v-31h29v31h2l2-1.5-.9-29.7c-.2-2.1-1.5-2.4-4-.8h0l-.6-1h-29.4l-1,33c-10,0-20,0-30,0l1,32v-31h29.5l2.5-1Z"/>
    <polygon class="st0" points="577 256 577 193 356 193 576 194 577 256"/>
    <path class="st0" d="M323,224c11,0,22,0,33,0h-33Z"/>
    <path class="st0" d="M357,224h-1c.5.9.8.9,1,0Z"/>
    <path class="st0" d="M514,224h-156c51.9,1.4,104.1,1.6,156,0Z"/>
    <path class="st0" d="M323,193c.9-1.3,0-27.7,0-32v32Z"/>
    <path class="st0" d="M323,930l1-33,30-1h-31c0,11.3.2,22.7,0,34Z"/>
    <path class="st0" d="M546,895c0-.8,1-1.7,1-2,.6-20.3-1-40.8-1-61h-1l-1.4-2c-5.2-.7-22.5-.7-27.7,0-.6,0-.9,1.2-.9,2-.2,18.3.8,43.7-1,61,8.4,4.6,22.2.7,32,2Z"/>
    <path class="st0" d="M866.1,224v-.6c-43-.6-86.1-.6-129.1-.4-20.9,0-42,2-63,1,0-9.6.2-19.4,0-29,0-1.5-.5-2.2-1-2-2.2-.4-4.5-.4-7,0-3.4-2.5-6.6-2.5-10,0v.2c0,0-13.9,0-13.9,0l1.4,2.1c2.8.3,21.6,1.4,26.5,1.1-.5,4,0,23.2.2,25.9,0,0,0,0,0,0-6.8-2-25.5-2-26.4.2-.4,1,.2,2.7,1.4,2.7,1,1,2.2,1.7,3.6,2l23.3.2c.3,3.8.4,7.8,0,11.8l2,.9v2c-3.2,3.2-3,10.7,0,14-1.2.2-1.6.5-1,1l-2,1.4v26.5l-27.2,2-.8,2h29l2-1v-31h32c10,1,20.8.8,31,0l1-33c10.3-.1,20.7,0,31,0,.5.9.8.9,1,0,32-.4,64.1.3,96,0Z"/>
    <path class="st0" d="M866.1,265v55c.2-18.3,0-36.7,0-55Z"/>
    <path class="st0" d="M866.1,352v-32c-.2,10.6,0,21.4,0,32Z"/>
    <path class="st0" d="M866.1,265v-41c-.1,13.7,0,27.3,0,41Z"/>
    <path class="st0" d="M355,864c.2-10.6.1-21.4,0-32,0-10.3.1-20.7,0-31v-1c-10.1-.6-20.3-.8-30.5-.4-.4-2.3-1.1-1.9-1.5.4v64h30c-8.9-2.7-19.8,0-29-1v-62h30v63h1Z"/>
    <path class="st0" d="M320,800h-26c7.5,0,19.1,1,26,0Z"/>
    <path class="st0" d="M162,259c.1-11.6,0-23.4,0-35l-1,96c1.9-10.1,1-20.8,1-31,1.6-9.8,1.6-20.2,0-30Z"/>
    <path class="st0" d="M163,224c10.2,0,20.3,0,30.5,0h-30.5Z"/>
    <path class="st0" d="M193.5,224h30.5c-10.1-.1-20.3,0-30.5,0Z"/>
    <path class="st0" d="M610,226h30v31h32c-3.8-.8-7.8-1-12-1h-2c-4.3,1-8.7.7-13,0-.7-.3-2.6.7-3-.6v-30.4c-10.6,0-21.5-.8-32,1Z"/>
    <polygon class="st0" points="578 257 578 288 579 258 609 257 578 257"/>
    <path class="st0" d="M643,224l-1-1c0,.4.6.8,1,1Z"/>
    <path class="st0" d="M674,193h2v-31l29.4,1,.6-2c-10.3-.4-20.7-.4-31,0-1.8-.9-2.3-.4-1,1-.4,10.2-.4,20.2,0,30-.4.4-.5.7,0,1Z"/>
    <path class="st0" d="M227,352l31,1c.8-21.3.4-42.7,0-64-10.3,0-20.7,0-31,0v63Z"/>
  </g>
  <g>
    <path class="st2" d="M707.4,351.9v-29.9l1.1-1.1h29.6l.3-1c.9-.4.9-.7,0-1,.7-9.5.8-19.1.5-28.6.2,0,.4,0,.6-.1,10.1-.7,20.5-1.1,30.9-1.3l1-.7v-29.9c1.7-.6.9-1.2-1-1.5,21.2,1.6,42.7,1.7,63.9,0-.7.5-1.2,1.1-1.4,1.8-.8,3.1.8,14.4,1.4,18.2-.9,4.4-.9,8.4,0,12l-1.5-2c-6-.8-23.7-.7-29.7,0-.6,0-.9,1.2-.9,2-3.1,10.1-3,21.8,0,32-3,10.4-3,21.6,0,32,9.4,3.2,20.5,3,30,0l-2,1.4c-.7,4.9-.7,20.3-.1,26.6-5.2-.3-24.8-.6-27,0-.2,0-.3.2-.4.3,2.5-9.1,2.5-19.4-.5-28.3-9.6-3.2-21.3-3-31,0l2-1.4c.8-4.9.6-21.3,0-27.7l18.1.4c4.5.6,7.4-.5,8.7-3.2l-1.4-2c-5.2-.7-22.5-.7-27.7,0-.6,0-.9,1.2-.9,2l-2,1.2v30.8c.7.3,1.2.7,1.2,1,.4,10.3.8,20.7.8,31l31,1c-3,8.9-3.5,21.3,0,30h1l1-.7v-28.2c0-.1,1.1-1.6,1.1-1.6,1.2-.9,26.2-.9,27.5-.5.6,1.8,1.2.9,1.4-1,.4.9.7.9,1,0,.4-10.4.4-20.7,0-31,1.8-.9,1.9-1.7,0-2l.5-28.6c.5-.6.7-1,.8-1.2,9.5.5,19.1.3,28.6,0,.9,1.2,1.5.9,2-1v-96c-32-.8-64-.8-96,0-1.1,10.4-.7,21.4,0,32l-1.5-1.9c-5.1-.6-20.8,0-27.4.7.6-5.6.5-20.5,0-26.7,4.1.3,24.1,0,27-.1.6,0,.9-1.2.9-2,.7-.5.8-1.7,0-2h.4c-10.8-.9-21.8-.9-32.5,0-1.2,1.1-1.6,28.3-1.5,32.1,0,.6,1.2.9,2,1-10.4.4-20.7.8-30.8,1,.7-.3.6-.6-.2-.9-9.2-1.5-31.5-4-32.5.4v29.1c-1.4.7-1.2,1.4.5,1.4l-2,1-.7-.9-28.3.9c-.8.3-1.7.6-2,1.4-.5,1.4-1.1,25.5-.9,28.7,0,.6,1.2.9,2,1l2-1.4,1-26.6h27l.9-2v62l-1.5-2c-3.4,0-27.4.3-28.7.9-.8.3-1.5.7-2.2,1.3-1.2,10.9-.3,21.9,1.4,32.7,10.5.4,21.2.4,32,0l1-.7v-29.6c.4.4.8,0,1.1-1.3l28.9-.5c1.8,2,3.1,1.6,2-1ZM831.8,318.9c-8.7.7-17.4.4-26-.9l-2.7,1.4,2-1.5c.7-4.2.6-19.9.1-26,4.6.2,22.4.4,27.3-.4-.3,2.6-1,22.1-.2,27.7l-.5-.4ZM864,227.6c0-.1,0-.3,0-.4,0,0,.2,0,.3.1l-.3.3ZM835.8,227.8h27.8l-1.3,1c-.7,3.7-.5,21.4,0,25.6,0,.4.6.7,1.2.8-10-1.3-19.7-.8-29.1,1.6,3.3-9.4,3-21.5,0-31l1.4,2ZM703.9,287c-4.3-.7-19.5-.6-25.5-.1.2-5.1.4-26.4-.6-28.4,8.7,2.6,19.2,2.6,27.6-.4.5.9.8.9,1,0-.7,10.2-1,20.4-1,30.9l-1.5-2Z"/>
    <path class="st2" d="M609.3,515c.6,0,.9-1.2.9-2l2-1.2v-126.1l-2-.7-1.5-2c-2.5-.7-22.3-.4-28.5,0,.4-4,0-25.9,0-29,0-.6-1.2-.9-2-.9-.3-.9-.8-1.5-1.5-2-1.2-.7-22.5-.3-28.5,0,.5-4,.2-25.7,0-29,0-.6-1.2-.9-2-.9-.9-2-3.1-2.7-6.8-2-17.4-.8-37.9-.6-55.3,0-.5,0-.9,1.2-.9,2-.5.2-1,.4-1.3.7-1,1-.9,22.9-.7,29.2-3.9-.6-25.9,0-29.1.1-.5,0-.9,1.2-.9,2l-2,1.5c-.8,3.9-.5,21.8,0,28.4-4.4-.5-26.1-.2-30,.1-.5,0-.9,1.2-.9,2h.1v31.1c-.3-.8-.7-1.7-1.5-2-1.4-.5-25.5.5-28.7.9-.5,0-.8,1.2-.8,2l-2,1.5c-.7,2.4-.4,22.2,0,28.4-4.3-.6-25-.2-29,.1-.6,0-.9,1.2-.9,2l-2,1.5c-.8,2.6-.3,25.4,0,29.6,0,.1,0,.3.2.4-9.4-2.5-20-2.5-29.2.5-.8,21.2-1.1,42.5-1,64h-65c-.4-10.8-.8-21.5-1-32l-1.2-2h-57.7c.4-5.4.8-21.4.1-27h57.9l.9-2c-3,9.5-3.3,21.6,0,31,.4.9.7.9,1,0v-32c-20.7.8-41.4-.6-62-1h-1v33c-.1,10.9.2,21.6,1,32l1.4,2c5.2.7,20.9.7,27.5.1-.7,5.3-.3,23.3.1,28,.1.6,1.2.9,2,.9,0,.4.2.7.4,1-.1,0-.3,0-.4,0v31h78l3,1c4.6.2,9.4.2,14,0,64-2.4,129-1.9,193-1,10,.2,20,0,30,0l1,64c3.3-20.8,3-43.1,0-64,3.3-9.8,2.3-20.7,1.2-30.9,9.7,1.2,20.5,2.3,29.8-1.1.5.9.8.9,1,0l2-1.2v-59.7c3.8.4,26.1.1,29.2,0ZM230.1,604.9c.5-5.2-.3-21.6-.9-26.7,3.7.5,21.4.1,26.8,0-.7,4.8-.3,20.9,0,26.9-5.5-.6-20-.6-25.9,0Z"/>
    <path class="st2" d="M450,704h-94l-1,1-.5,29.6c-1.4.2-1.9.5-.9.9l-29.6-.5v-61l30.9-2-31.7,1.2c-.3,20.9,0,41.9,0,62.8l.5,63.5c10.5-.3,21,0,31.5.5v1c-.8,10.3-.9,20.7,0,31,.8,2.5,1.7,2.7,2,0,20,0,40,.2,60,1-.8.3-1.7.7-2,1.5-.5,1.4.5,25.5.9,28.7,0,.5,1.2.8,2,.8,3.1-10.1,3-21.8,0-32,.3-21.3-.2-42.7,0-64h33v-31h31v-65h-31l-1,32Z"/>
    <polygon class="st2" points="355.1 641 355.1 670.4 357 641 355.1 641"/>
    <polygon class="st2" points="355.1 670.4 355 672 354.9 672 355.1 672 355.1 670.4"/>
    <polygon class="st2" points="546 737 546 704 514 704 515 737 546 737"/>
    <path class="st2" d="M705,832c-20.7-.4-41.3-.4-62,0h-1c-1.3-.3-2.7-.7-4-.7-8.9-.2-19.3-.2-28.2.4-.6,0-1.3.9-1.8,1.5v60.9l2,.9h31l-29-1v-61l93-1Z"/>
    <path class="st2" d="M514.9,832l2-1.7c-1-9.2-1.3-18.5-1.3-27.7l-1.6-1.6h-.1c.9-.4.9-.7,0-1l-1,94-30,1,29,1c3.6.2,5.4-.9,2-3l2.3-2.8c.9-18.4,1.1-36.7.7-55.1l-2-3.1Z"/>
    <polygon class="st2" points="418 895 417 896 387 897 420 896 420 866 451 865 419 865 418 895"/>
    <path class="st2" d="M738,704h-31l30,2,1,21c0-7.3,0-14.7,0-22v-1Z"/>
    <path class="st2" d="M700,800c-16.6-1.7-39.7-.2-57,0h57Z"/>
    <path class="st2" d="M738,892l-32,3h32c0-1-.2-2.1,0-3Z"/>
    <path class="st2" d="M547,800l.3,9c0-3,0-6-.3-9Z"/>
    <path class="st2" d="M546,832h2l-.7-23c-.2,7.7-1.3,15.4-1.3,23Z"/>
    <path class="st2" d="M640,800h-29c9.7,0,19.3,0,29,0Z"/>
    <path class="st2" d="M451,864c1.5-.9,0-1.8,0-2v2Z"/>
    <path class="st2" d="M288,159c.1.6,1.2.9,2,1-.9.4-.9.7,0,1h33v-32h-1.1c-10.3,0-20.7,0-31,0l-2,1.4c-.9,5.3-1.4,23.1-.9,28.7Z"/>
    <polygon class="st2" points="614 191.5 614 164.1 640.2 163 641 161 641 160.9 611 160.9 610 191.9 610 192.9 612 192.9 614 191.5"/>
    <polygon class="st2" points="546 289 546 257 515 257 545 258 546 289"/>
    <path class="st2" d="M866,672h-32.1s-2,1.2-2,1.2v60.6c-9,0-17.9.3-26.9,1.1l-3.1,2.1v63h31c.2-10,1-19.9,1-30-.6,0-1.1.3-1.4.6-1,.8-2.4,20.7-2.6,26.3-4.4-.7-19.3-.5-25,0,.7-5.7.5-21.5,0-27.4,4.4.3,28.3,1.1,28.8-.2.2-.4.2-.8.2-1.3h29l-1.9-2-18.5-1.3c-3.6-.7-6.2,0-7.5,2.3l-.5-28.6c5.8-1.1,12.8-1.4,20.9-.8l8.6-.6c.5,1.9,1.4,1.9,2,0,.3-21.7-.2-43.4,0-65Z"/>
    <path class="st2" d="M773.1,733.1c.4-3.5.2-23.3,0-26.2,0,0,0,0,0-.1,7.4,2.1,28.8,2.3,30,.2,1.2-2,.8-3.2-1-3.1l1-61.9h29l1,30v-31h-31v62.9c-.3,0-.6,0-1,.1h0s-30,0-30,0l-1,1,.2,30.8c1.2,1.9,25.6,1.2,29.8,1.2l-1.3-2.1c-4.4-.9-19.7-2-25.6-1.8Z"/>
    <path class="st2" d="M706,129h32v-1h0v-27l-2,1.4-1,23.6h-28l-.9,2c-.6.4-.7.8,0,1Z"/>
    <path class="st2" d="M228,385.3c-.5,10-.7,20-.5,30,10.1,1.1,20.3,1.7,30.5,1.7h1c0,21.6.2,42.9,1,64,9.9.4,20.1,0,30,0v-160h-30v-31l30-1h-1,.2c-10.3-.1-20.7-.2-31-.1l-1.3,4.6c-.2,19.2-.5,38.3-.8,57.4l-28-.9-1,2v1c0,10.6-.2,21.4,0,32,.4.8.6.9.9.3ZM256.1,356l.9-2v31l-1.5-2c-4.3-.4-23-.8-26.6,0-.2,0-.4.2-.5.5,1.7-9,2.3-18.2,1.8-27.5h25.9Z"/>
    <path class="st2" d="M195,288v-31c-9.3,1.2-21.9-1.9-30.6,1h29.6c-.8,10,.6,20.1,1,30Z"/>
    <path class="st2" d="M164,258.1c.1,0,.3,0,.4-.1h-.4Z"/>
    <path class="st2" d="M162,289h2v-30.9c-.7.3-1.4.5-2,.9,0,10,0,20,0,30Z"/>
    <path class="st2" d="M288,129l-.4-.6,1.4.6h1v-63h-31c-.7,20.9-1.3,42-1,63h30ZM287,69.1v58.4l-.4-.6c-1.2-.5-19.5-1-24.6-.9v-56.9c3.3.4,20,.2,25,0Z"/>
    <path class="st2" d="M706,415v1c31.3-.4,62.7-.2,94,0l-94-1Z"/>
    <polygon class="st2" points="674 417 643 417 673 418 674 480 674 417"/>
    <path class="st2" d="M737.1,69c.6,0,.9-1.2.9-2h-32.1l1.5,2c5.8.8,23.7.7,29.7,0Z"/>
    <path class="st2" d="M195,546c.1,10,0,20,0,30h30l-29-1-1-29Z"/>
    <path class="st2" d="M291,257v32l1-31,63-1h-33c-10.3,0-20.7-.3-31,0Z"/>
    <path class="st2" d="M609,576l1-30c.9-.4.9-.7,0-1l-1,31Z"/>
    <path class="st2" d="M356,226h157l1,30v-32c-51.9,0-104-.5-156,0h-2c0,.6.2,1.5,0,2Z"/>
    <path class="st2" d="M673,193c.2,0,.6-.8,1-1v-30l-1,30-7,1c2.2,0,4.8.2,7,0Z"/>
    <path class="st2" d="M674,129h-32v31l1-30c10.3.8,20.7-.6,31-1Z"/>
    <polygon class="st2" points="738 384 739 354 769 354 738 353 738 384"/>
    <path class="st2" d="M316.6,479c-6.9-.2-14.2-.3-21.1,0-2,0-4.1-1-3.5,2h.1c9.3,0,18.7,0,28,0,.5-3-1.6-2-3.5-2Z"/>
    <path class="st2" d="M706,160l-31,1h31v-1Z"/>
    <path class="st2" d="M738,89c0-3.3,0-6.7,0-10v10Z"/>
  </g>
  <g>
    <path class="st1" d="M770.2,799.6c2.7-.7,2.9-2.8,0-3l2-1.5c.6-1.9.3-23.3,0-26.6,0-.6-1.2-.9-2-.9l-1.4-2c-2.7-.9-25.5-1.1-29.7-.9-.6,0-.9,1.2-1,2v-8c2-2.3,2-4.7,0-7v-1c2.7-.7,2.9-3,0-3v-14c.7-2.2.6-4.7,0-7l-.5-21.6c-10.1-.8-20.3-1.3-30.5-1.4-.3-9.5-.3-19.1-.3-28.8,2-.9,1.5-1.8-.7-2.2.9-.4.9-.7,0-1v-11c-1.4,2.6-1.9,5.8-1.6,9.5-10,1-20.1,1.5-30.4,1.5-.5,10-.7,20.2-.5,30.5-2.2.5-1.8,1.1.5,1.5l-2,1c-.4,3.8-1.6,30.7.5,31.1.5.2,1,0,1.5,0l1.5,2c1.7.6,22.5.3,28.5,0-.7,6.1-.6,21.4,0,28-5.6-.4-26.1-.7-29.1,0-.6.2-.9,1.2-.9,2l-1-31-1.4-2c-5.2-.6-21.2-.8-27.5-.1.5-4.7,0-26.6-.2-29.9,0-.6-1.2-.9-2-.9l-63.5-.8-.5-29.2c1.9-.6,1.9-1.4,0-2-10.1-3.2-21.8-3-32,0l-.5-64.9c-9.9-1.7-20.8-2.1-30.5.9l.3-.3-2,1.4c-.9,6.3-1.5,24.2-.9,30.6,0,.6,1.2.9,2,1h-156c-.4-.9-.7-.9-1,0l-1,.6-1,30.4-31.4,1.7c-.4,20.7-.2,41.1.4,61.3l30.5.4.5-30.4c1.8.9,2.3.4,1-1h94l2-1.4c.6-1.7,1-22.7.9-28.6,5.1.7,20.9.4,27,0v60.9c-6.2-.6-23-.7-28.1,0-.6,0-.9,1.2-.9,2l-2,1.4c-.8,3.8-.5,21.2-.1,27.5-4.8-.7-25.5-.3-30,.1-.6,0-.9,1.2-.9,2-3.3,20.8-3,43.1,0,64l1.4,2c5.1,1.1,24.7,1.2,30.6.9.6,0,.9-1.2,1-2v10s-1.9,2-1.8,2v15.1l1.8,2c.3.7.5,1.3,0,2-.9.4-.9.7,0,1-10.6,0-20.9.2-31,1-.6,9.3-1,18.7-1.2,28.1-.5,0-1,.6-1.7,1.9l-30.1,1v31c.8,2.5,1.7,2.7,2,0h60c.6,1.9,1.4,1.9,2,0,9.9.8,20.1.9,30,0l1-33c.4.9.7.9,1,0,10.3.4,20.4.2,30.4-.7,1-31.5,1.2-62.9.6-94.3,10.2.5,20.5.7,30.9.5.6,2.4,1.8,1.8,2.1-.5v31.7l1,.3c9.7,3,20.4,3.1,30,0l1.4,2c4,.4,27.6.7,29.8-.5.3-.2.8-1.8.8-2.5v-31c.4.9.7.9,1,0h29c1.4,1.7,2,1.7,2,0,.5.9.8.9,1,0h57c1.6.5,3.4.7,5.4.5l-.4,30c-1.7.7-1.8,1.4,0,1.5-31.3,0-62.3.2-93,1-.6.2-1,.5-1,.7-.3,19.8-.3,40.2,0,60,0,0,.4.3,1,.3,9.5.7,19.2,1,29,1l-1.9,1.6c-.6,2.9,1.3,26.2,1.9,30.6,0,.6,1.2.8,2,.8h62l2-1.4c1.1-5.4,1.3-24.6.9-30.6,0-.6-1.2-.9-2-1l31.2-1.5c.8,0,1-.6.8-1.5v-26c.5,1.8,1,1.7,1.5,0l30.5-1,2.2-1c.8-20.8.4-42.1-.2-63,0-.6-1.2-1-2-1ZM610.9,765.9c-.6.2-.9,1.2-.9,2v-31l1.5,2c3.2,0,23.9,0,28.7-.7h-.1c-.6,5.3-.8,21.3-.1,27.6-5.6-.4-26.1-.7-29.1,0Z"/>
    <path class="st1" d="M705,648v-1.3c0,.5,0,.9,0,1.3Z"/>
    <path class="st1" d="M705,641v5.7c0-2,.3-4.6,0-5.7Z"/>
    <path class="st1" d="M705,656l1,3c0-2.2-1-2.8-1-3Z"/>
    <path class="st1" d="M866,352v-32c-.9-.1-1.5.8-2,1-9.9,0-19.7.4-29.5.8l-.5,29.2v2h31l1-1Z"/>
    <path class="st1" d="M418,864l-1-31c-20-.8-40-1.1-60-1h-2c-.7,10.6-.7,21.4,0,32v1l63-1Z"/>
    <path class="st1" d="M801,416c-.3-10,.2-20,0-30l-31.1-.4-.9-31.6-30.5-.4-.5,30.4-1,1-31,1v29c31.2.6,62.5,1,94,1h1Z"/>
    <path class="st1" d="M802,383h30v-30c-10-.1-20,0-30,0,.2,10,0,20,0,30Z"/>
    <path class="st1" d="M802,353c-.2-10.6,0-21.4,0-32-.6,0-1.5-.2-2,0-9,2.7-19.8,0-29,1v31c10.3,0,20.7-.2,31,0Z"/>
    <path class="st1" d="M834,321c0-2.7,1.5-31,0-31h-31v29.5c9.5,2.7,21.1,1.5,31,1.5Z"/>
    <path class="st1" d="M834,257h31l-1-1.5v-28l1-1.5h-31c-.2,10.3.2,20.7,0,31Z"/>
    <path class="st1" d="M769,226h-30v31l31-1c-.4-10.1-.7-20.1-1-30Z"/>
    <path class="st1" d="M355,481v-32h32v-32l31-1v-31h33v-32h32v-32h63v32h32v32h32v128h-32v63c10.3-.2,20.7,0,31,0l1-31c10.2.4,20.5.4,31,0l2-64h31v-1l-.6-62.5-30.4-.5-1-1v-30c.9-.5.9-.8,0-1v-32l31-1v-62h-30l-1,30c-1.8-.9-2.3-.4-1,1h-63l-1-31-30-1h-1l-.6-31.5-30.4-.5-1-1-.5-30.7c-51.9-.5-105.3-.6-157.3-.3,0,0-.2.4-.2,1-2.7,9.2,0,21.4-1,31l-63.5.6-.5,31.4h-1c-10.3-.1-20.3.2-30,1-.6.2-1,.5-1,.7-.2,9.9-.2,21.3,1,30.3l1.4,2c7.8.5,19.2.6,27.1,0-.9,1.8-1.1,4.3-.5,7.5-1,49.5-.7,100.5,0,149.8,0,.5,1.2.7,2,.7h2c2.7-1.5,6.9-1.8,12.8-1.1,6.9-.7,12-.4,15.2,1.1h3c.5.9.8.9,1,0,10.3-.1,20.7,0,31,0Z"/>
    <path class="st1" d="M290,161v-1l-26,1c7.6.9,18,0,26,0Z"/>
    <path class="st1" d="M194,258c-9.8-.6-20.1-1.2-30,0-1.5,9.2-1.5,20.9-1,30.7,0,0,.4.3,1,.3h31v-1c-.2-10-.5-20-1-30Z"/>
    <path class="st1" d="M195,321h32l2-1.5c.8-5.7.7-23.6,0-29.6,0-.6-1.2-.9-2-.9h-32c.4,10.6-.2,21.4,0,32Z"/>
    <path class="st1" d="M832,642c-9.3-.8-19.9-.8-29,0-.8,20.5-1,41.2-1,62h-1c1.8,2.7,1,2-1.5,2-9.5.4-19-.3-28.5,0v29l29,2h2c10.5-.2,21.4-1.9,32-1v-64h-1c0-10.3-.3-20.3-1-30Z"/>
    <path class="st1" d="M227,545h-31c-.4-.9-.7-.9-1,0v1l.6,29.5,29.4.5,2,1,1,30h30v-31h-31v-31Z"/>
    <path class="st1" d="M866,737c-.6,0-1.5-.2-2,0-9.8.6-19.6.8-29.5.5l.5,29.5c8.9-1.2,19.6,1.2,28,1h3c0-10.3,0-20.7,0-31Z"/>
    <path class="st1" d="M803,768v31h29l2-29v-2c-2.7,0-31-1.5-31,0Z"/>
    <path class="st1" d="M257,482h-61v31h61c-.2-10.3.1-20.7,0-31Z"/>
    <path class="st1" d="M577,608v-32c-10.3.2-20.7,0-31,0,0,10.6,0,21.3,0,32h31Z"/>
    <path class="st1" d="M355,800v1c.9-.6,1-.5,0-1Z"/>
    <path class="st1" d="M736,160l-29,1c8.7,0,20.8,1.5,29-1Z"/>
    <path class="st1" d="M257,354h-29v31h29v-31Z"/>
    <path class="st1" d="M705,258c-9.7.2-19.3-.1-29,0v31h29c.4-10.6.4-20.9,0-31Z"/>
  </g>
  <path class="st2" d="M482,257h-64.1v31l-31,1v32h-32v32h-33l1,32h64v-32h31v-33l33-1,.5-28.6c1.5,0,2-.4,1-.9l29.6-.5v-32Z"/>
  <g>
    <path class="st3" d="M355,864c-.4-.9-.7-.9-1,0-.4-.8-.7-.8-1,0-9.5-.7-19.1-.8-28.6-.5-.2-1.6-.5-2-.9-.7v-61.3c2.2-.4,1.8-1.1-.5-1.5.7-1,.7-2,0-3-1-.3-1.7.7-2,3-.5-.9-.8-.9-1,0h-26c-.8-2.5-1.7-2.7-2,0l-1.5,7.1c0,18.8-.6,37.6-1.4,56.4l-25.1.5c-1-2.8-3-2.8-4,0-.5-.9-.8-.9-1,0h-2v1l1,63h33v33h30.5c2.9-9.6,1.4-21,1.5-31l.8-33.5,30.2-.5c1.9-1.9.9-25.3,1-30,.9-.5.9-.8,0-1,.9-.5.9-.8,0-1Z"/>
    <path class="st3" d="M451,928h-64v33h62c.4,2.1,2,2.1,2,0h1v-1l-.5-30.6c2.3-.4,1.8-1.1-.5-1.4Z"/>
    <path class="st3" d="M226.9,352l2-1.4c.8-5.2.6-23.2,0-28.7-.1-.6-1.2-.9-2-.9l-1.4-2c-5.3-.9-23.8-.6-29.6,0-.1,0-.3.1-.4.2,2-7.3,2.6-17.7,1.6-24.9-.2-1.9-1-3.7-2.1-5.3-10.3-2-20.7-2-31,0h0c-.8-2.5-1.7-2.7-2,0l-1,31v1h2c.5.9.8.9,1,0,10.3,0,20.7,0,31,0,.2,10.6-.1,21.4,0,32l29.9.5c.5,2.4,1.8,1.9,2.1-.5.9-.5.9-.8,0-1Z"/>
    <path class="st3" d="M164.2,258.1c10.4-.8,20.5-1,30.4-.5l.5,30.4c-.9.5-.9.8,0,1l1.4,2c5.8.6,24.3.9,29.6,0,.6-.1.8-1.2.9-2,10,3,21,3.1,31,0-.2-10.3.1-20.7,0-31l-31-1c0-11,.2-22,0-33-.6-1.9-1.4-1.9-2,0h-62.9v35c1.2,1.6,1.6.8,2.1-.9Z"/>
    <path class="st3" d="M738,162c-.4-.9-.7-.9-1,0l1,30v-30Z"/>
    <path class="st3" d="M227,624v2.6c0-.9,0-1.7,0-2.6Z"/>
    <path class="st3" d="M227,632v-5.4c0,1.8-.1,3.7,0,5.4Z"/>
    <polygon class="st3" points="229 865 230 864 229 864 229 865"/>
    <polygon class="st3" points="386 65 386 66 387 66 386 65"/>
    <path class="st3" d="M800.5,799.7c-2.1-.7-20.1-1-24.1-1-2.9-.6-5-.2-6.4,1.4,0,8.4,1.5,62.2,0,65l-31,1c-.7,9.5-1,19.2-1,29-.2-1-.6-1.5-1.5-1.4l-30.5,1.4-1,33h-62l-2-33-28.9-.5c-.6-2.4-1.8-1.9-2.1.5-10.6-2-21.4-2-32,0l2-1.2v-60.9l-2-.9c-10,0-20,0-30,0-.6-1.9-1.4-1.9-2,0-.5,1-1,2.1-1.3,3.2s-.6,2.1-.6,3.2c.2,16,.6,32.1,1.1,48.1,0,1.1.3,2.1.6,3.2s.7,2.1,1.2,3.2c-.5,3,1.6,2,3.5,2,9.1.4,18.4,0,27.5,0,0,8.5-1.6,63.1,0,66,64-.6,128,.8,192,0,.2-11,0-22,0-33h32v-126.9c-.4-.6-.9-1.2-1.5-1.4Z"/>
    <path class="st3" d="M546,672c10.7,0,21.3,0,32,0-.3-21.3-.6-42.8,1-64,1.1,2,3.5,3.4,5,1h1c1.2,3,6.7,2.8,8,0l17-1v-32h32c0-1.5.9-3.2,1-5l-1-26c10.6-.2,21.3.2,32,0,.2-13,0-26,0-39v-25c-.4-.9-.7-.9-1,0h-30.1l-2,1.1c-.6,20.6-1.3,41.3-1.9,61.9l2,1c-10.6,0-20.9.3-31,1l-1,30c-9.8-3-21.2-3.2-31,0h-1s-2,1.5-2.1,1.5v28.5h-28l-.9,2c-.3,21.3.2,42.7,0,64Z"/>
    <path class="st3" d="M642,832c.4.4.8.5,1,0,20.9,0,41.6-.2,62-1,.4-10.2.4-20.2,0-30-20.5-1.2-41.2-1.5-62-1h-1c-1.5.3-1.7.8-.5,1.5l.5,22.5c-2.7.8-2.8,3.2,0,4-1.3,1.7-2,3,0,4Z"/>
    <path class="st3" d="M770,738c.5-.5.4-1.3-.5-2.3-10.4-.5-21.1-.5-31.5.3v31l32,1v-30Z"/>
    <polygon class="st3" points="355 705 354 735 324 735 355 736 355 705"/>
    <path class="st3" d="M356,226c2-.5,1.9-1.4,0-2h-34v33h33l1.4-.9c.4-9.1.7-18.4,1.1-27.9l-1.5-2.2Z"/>
    <path class="st3" d="M546,895c-.4-1.2-.9-2.4-2.2-2.2l-19.9.5c-3.9-1-7.2-1.1-9.9-.3h0c-.2,1.8-.3,2.1-2,3h2l1,32h31c.3-11-.3-22,0-33Z"/>
    <path class="st3" d="M834,321v30c.3-9.6,1.8-19.3,1-29,1-1,23.5,1.4,29-1-9.9-1.2-20,0-30,0Z"/>
    <path class="st3" d="M770,224h-1v2c0,9.9-.8,20.2,1,30v-32Z"/>
    <path class="st3" d="M243.2,417h6.8c-2.3-.1-4.5,0-6.8,0Z"/>
    <path class="st3" d="M243.2,417h-3.2c1,0,2.1,0,3.2,0Z"/>
    <path class="st3" d="M232,417l-5-1c.8,1.9,3.5.8,5,1Z"/>
    <path class="st3" d="M259,481v-1c-1.2.4-1.4.8,0,1Z"/>
    <path class="st3" d="M308,609c-.6-1.2-1.9-1-3-1,.6,1.2,1.9,1,3,1Z"/>
    <path class="st3" d="M357,832l60,1c-19.9-1.8-40-1-60-1Z"/>
    <path class="st3" d="M545,832v-31h-31c-1.7,4.2,1,25.2,1,31h30Z"/>
    <polygon class="st3" points="673 257 674 256 660 256 672 257 673 257"/>
    <polygon class="st3" points="451 319 452 290 482 289 451 289 451 319"/>
    <path class="st3" d="M658,256h-13c3.8,1.4,9.3,1.9,13,0Z"/>
    <path class="st3" d="M705,99c.4,9.9.8,19.6,1,29h31l1-27v-22c0-2,.2-4.1,0-6v-6h-32l-1,31h-25c8.4,1.5,16.5,1,25,1Z"/>
    <path class="st3" d="M835,767v-29c9.2-1,20,1.7,29-1h-30l1,30Z"/>
    <polygon class="st3" points="705 258 705 289 706 258 705 258"/>
  </g>
  <g>
    <path class="st6" d="M448,961h-61c2.5-.8,2.7-1.7,0-2v-61.9c1.4-.2,2.1-.9,2.1-1.5,5.5.5,24.5-.4,27.6-.6,0,0,.3-.4.3-1,.9-8.9,1.2-18.6,1-27.7,0,0-.5-.3-1-.3-.2-.6-.5-1-.7-1-20.2-.2-41.6,0-61.3,1l-2,1.3c.4,9.1.3,18.2-.5,27.2l1.5,1.5-30.5.6-.5,33.4-2,2.3c.6,8.7.3,17.4-.9,26.1l1.4,2.6-1.5-2c-4.9-.7-20.4-.7-26.9-.1.5-4.2,0-26.6-.1-30,0-.6-1.2-.9-2-.9l-1.5-2c-9-.6-21.6-.6-30.6,0-.5,0-.9,1.2-.9,2l-1-63c.9-.4.9-.7,0-1h0c-9,.3-18-.3-27,0-.7,0-.9.4-1,1l-1,126,221,1c1.4-8,1.7-16.3.9-24.7.5.9.9.5,1.1-1.3v-2c-.6-1-1.2-2-2-3-.4-.9-.7-.9-1,0Z"/>
    <path class="st6" d="M578,960.9l1.7-1.5c-.2-21.6-.3-42.9-.4-64.1l-1.3-.3c-1.5-1-3.2-1.7-5-2h-26v-.2c-1-.2-1.6-.3-2-.1v-59.7h-29v61h29v-.3c.2.3.6.6,1,1.1-3.5,9.7-3,23.1,0,33h-30c-.4-.9-.7-.9-1,0l-1-2.1c0-9.9-.3-19.5-1-28.9-9.2-.8-19.2-1.2-28.7-1,0,0-.2.5-.3,1l-1,.7-.5,29.1c-.8-.2-1.3.7-1,2.3-9.5-.8-20.3-.9-29.5,0-.4,10.2-.4,20.5,0,31-.9.4-.9.7,0,1h94l1,2.1c-.5,10-.2,19.6,1,28.9h220c1.4-3.4,1.7-29.7.4-30.5l-190.4-.5Z"/>
    <path class="st6" d="M896,193h0c0-.1-157.3-.1-157.3-.1-.8,8.4-1,16.9-.6,25.8-.5-.9-.9-.5-1.1,1.3-2.7.7-2.9,3,0,3,42.9.4,85.9.7,129,.7v48.2c-1,.4-1.8.8-2,1.4-.3.7-.3,14.3,0,15.1.2.6,1.1,1,2,1.4v62.2c-1.8-.9-2.3-.4-1,1-.8,1.2-.5,2.5,1,2l31-2-1-160Z"/>
    <path class="st6" d="M547.1,159.7l1,.3.6,1,28.4,1h1l.5,2c.2,8.8.3,18.2.5,28,9.2,3.3,21.8,4.1,31,1,.9-.4.9-.7,0-1l1-31,28.8-1,.2-1,1-.7v-28.9c.8-.2,1.1-.5.9-.8.5-.3.9-.9.7-1.4.2.5.4.8.6.8,9,.3,19,.3,28,0,0,0,0,0,.1-.1.1.6,1.1.7,2.2.4l1.4-29.6-1-1.7h-12c-1.9,0-20,1-20,0v-32h-30.5l-.5,64h-32.9c-.8-6.8-.8-13.8,0-21v-2c0-3.5-.7-6.2-2-8-8.9-.8-19.2-.8-28,0-.8.5-1.2,1.4-1,2.6v59.1Z"/>
    <path class="st6" d="M195,321h0c-10-2.9-21-2.8-31,0-.6,20.7-.7,41.5-.3,62.5l7.3.5c9.3-1,16.6-.6,22,.9h2l.5,1.9c.5,29.9,1,60.6,1.5,92.1,19.8,1,39.6,1.4,59.7,1l.3-1c.6-.2,1-.5,1-.7.3-19.9.3-40.2,0-60,0,0-.4-.2-1-.3-9.4-.9-20.4-.7-29.5,0-.5-1.5-1-2.3-1.4-2.5.3-20.2.3-41-.1-61.2,0,0-.4-.2-1-.3-9.9-.7-19.9-1-30-1,3-10,3.2-22.1,0-32Z"/>
    <path class="st6" d="M802,433c-1.1-5-1.8-10-2-15-.2-.6-.5-1-.7-1-40.5-.9-83.4-.3-123.3,1l-1,.7-1,87.3c-3.1,12.6-2.9,26.4,0,39,10.4-.2,22,1.4,32-1.5v-94.5h96v-16Z"/>
    <path class="st6" d="M224,224c.5.9.8.9,1,0,.6-.3,1-.5,1-.7.6-9.4.4-20.4-1-29.3l-.7-1h-91.6c-.7,0-.8,0-.7,1-.4,42.2-.4,84.5,0,127,9.6,0,19.4-.1,29,0,.9-.4.9-.7,0-1,.8-32,1.1-64,1-96,.4.9.7.9,1,0h61Z"/>
    <path class="st6" d="M833.1,800c-.4-.9-.7-.9-1,0-10,.4-20,.7-30,1l-2,1.2v123.7c-5.2-.8-24.2-.4-29.2,0-.6,0-.9,1.2-.9,2-3.2,10.3-3,22.6,0,33,10.7,0,21.3,0,32,0v-32h31c.7-42.6-.9-85.4,0-128h.1c.8-.5.9-.8,0-1Z"/>
    <path class="st6" d="M801,642.3l-1-.3c-.2-.6-.5-1-.7-1-9,0-18.8.2-27.3,1l-.9.7c.2,9.6,0,19-.8,28l-.3,1.3h0c-.7,0-1.3,0-2,0-20.3.7-40.6,1.3-60.8,1.8-.8,3.1-.9,28.9.4,29.7l30.4.5c-.9.4-.9.7,0,1,0,10.3.2,20.3,1,30,9.5,1,21.1.5,30,0,.8-9.8,1.1-19.8,1-30,1.7.5,2.2.2,1-1l30.5-.7-.5-61.1Z"/>
    <path class="st6" d="M231,160.9c9.1,1.3,17.9,1.1,27,1v31h33c0,.1,30.8.1,30.8.1-10.3,0-20.3.3-30,1-.5,20.4-.9,41-1,61.7l1,.3c1,.4,1.9.3,1.9-.2.1.1.2.2.3.2,8.4.3,18,.3,26.4,0,.2,0,.4-.4.5-1,.7-10.2,1-20.5,1-31,.4.9.7.9,1,0h222l-1.5,1.5c.8,10.2,1,20.4.5,30.6l2,.9,1.4,2c3.7.4,30,.8,30-1.6s-.2-.9-.4-1.4l-.6-62.5-220.4-.5c.9-.4.9-.7,0-1h-1c-.4-2.2-1-3.4-1-1.1v-59.4c.3,1.1.6.6,1-1.5,1,0,2,.1,3,0,1.6-.3,2-.7,1.4-1.1l26.4.2c.8-21.3.9-42.3.3-63.1v-1h-29l-1,.6-1,30.4-32,1-.5-1.9c-.5-19.6-1-39.9-1.5-61.1-19.4-1.3-40.7-1.3-60.7-1,0,0-.2.4-.3,1-1,9.7-1.4,19.6-1.3,29.7l1.3.3.6,1,29.4,1h-.2l1.2,62,30.8,1c.4.9.7.9,1,0v32c-10.5-2-21.3-2-31.8,0-.5-.9-.8-.9-1,0-3.7,0-7.3-.1-11-.1,3.7-.2,7.4-.5,11-.9l1-31h-1c-.4-.9-.7-.9-1,0-.4-.9-.7-.9-1,0l-27.9-.5c-.6-2.4-1.8-1.9-2.1.5.2,10.3,0,20.7,0,31-.3-31.3-.3-62.5,0-93.8,1.7-.5.9-1.2-1-1.2h0c0-.1-29,.9-29,.9l1.5,94.4c0,.6.6.8,1.5.6Z"/>
    <path class="st6" d="M291,685c.2,38.3.6,76.7,1,115h29c0-.1,1.1-3.7,1.1-3.7v-123.1c1.6-.5.8-1.2-1.1-1.2h-1c-9.6,0-19.1.6-28.5,1.7l-.5,9.3v2Z"/>
    <path class="st6" d="M867,769h29l1-1v-96h-30c-.3,32.3-.2,64.7,0,97Z"/>
    <path class="st6" d="M163,481c.2,1.2.5,1.5,1,1-.8,31.2-1.1,62.5-1,94l30,1c1.2-32.1,1.2-64.7,1-97-10.2-.2-20.9-.7-31,1ZM164.4,481.5l11.9.2c-4.1,0-8.2.1-12.3.3.1-.1.2-.3.4-.5Z"/>
    <path class="st6" d="M229,639l.7,1,90.3,1h4c-.2,1.3-1,2.7-1,4l.7,1.8c.4,7.1.9,15.2,1.3,24.2.2.5.5,1,.7,1,9.3.2,19.5-.2,28.3-1,.8-9.6.8-20.6,0-30,.5.9.8.9,1,0,.6,1.9,1.4,1.9,2,0h157l1-33h0c-2.9-.6-5.8-1.1-8.7-1.5s-5.8-.8-8.7-.8c-55.6-.7-111.4-1.4-166.9,1.6l-8.7,1.7c-.9.4-.9.7,0,1h0c-30.3-1.3-62.2-1.4-92.8-1,0,0-.2.4-.2,1-.6.2-1,.5-1,.7-.3,3.1-.9,27,.1,28,.2.2.5.3.9.3Z"/>
    <path class="st6" d="M289,289c1.6-10.5,1.4-22.2,1-33h-31v-32c-10.6-.1-21.4,0-32,0-3,10.4-3.2,22.7,0,33l31,1c-3,9.7-3.2,21.4,0,31,10.3.4,20.6.4,31,0Z"/>
    <path class="st6" d="M610,608c-.9.5-.9.8,0,1h29.5l2.5-3c-.6-.8-1.1-.4-1.5.2.7-6.5.5-28.2.5-29.9s-.4-.3-1-.3c-10.2-1.7-20.4-2.8-30.5-.6-2.3,10.8-2.1,21.9.5,32.6Z"/>
    <path class="st6" d="M223.2,577.2c0-.1-.2-.2-.3-.2-8.1-.3-17.3-.3-25.4,0-.2,0-.4.4-.5,1-1.6,9.5-1.9,20.1-2,30l30,1h0c.5-.1,1.1-.2,1.3-.6.9-1.3.3-31.2-1.2-31.8-.6-.3-1.9,0-2,.6Z"/>
    <path class="st6" d="M835,354c-.8,9.9-1,19.9-1,30h-1c-1.4.3-1.4,1.3-.9,2,0,0,0,0,0,0-.2-.6-.5-1-.7-1-9-.1-18.8.2-27.3,1-.6.2-1,.5-1,.7-.3,9.7-.5,21.1,1,30.3h4c2.8-1.7,7.2-1.7,10,0,3,0,6.1.2,9,0,2.7-.3,4.4-.9,5-2,1-2.4,1.8-24.2,1-28.1.3.2.7.2,1,.1-.9-3.2,3.2-2,6-2l23.6-1,.4-1c1.2-8.6,2.3-20.6,0-29-9.3-.8-19.9-.8-29,0Z"/>
    <path class="st6" d="M642,576c-.9.3-.9.7,0,1h6l23.6-1,.4-1c1-1.1,1.4-2.8,1-5.3.2-7.4.3-16,0-23.4,0,0-.4-.3-1-.3-9-.7-19.3-.9-28,0-.8,8.1-1.2,16.5-1,25-2.8.9-3.9,3.8-1,5Z"/>
    <path class="st6" d="M804,639c.2.6.5,1,.7,1,3.3,0,25.8.6,27,0,.3,0,.3-.5.3-1,.9-7.3,1.2-15,1-23h.1v-1.9l-1.2-5.1c-1.2-.8-24.1,0-27.4,0-.2,0-.4.4-.5,1-.5.2-1,.5-1,.7-.3,7.3-.2,15.6,0,23-.5,2.8,0,4.5,1,5.3Z"/>
    <path class="st6" d="M802,624v8c.2-2.6,0-5.4,0-8Z"/>
    <path class="st6" d="M228,161v-3c-1.1,1-2.1,2.3,0,3Z"/>
    <path class="st6" d="M769,161c2-.9.8-1.3,1-3l-1,3Z"/>
    <path class="st6" d="M771,641c-1.5-2.6-.9,1.1-1,2l1-2Z"/>
    <polygon class="st6" points="706 672 706 673 709 672 706 672"/>
    <path class="st6" d="M704.9,640.9h.1s0,0-.1,0Z"/>
    <path class="st6" d="M703,640c.2.5,1.5.8,1.9.9l-1.9-.9Z"/>
    <path class="st6" d="M706,736h-32c-1.6,0,0-29.2,0-32v-32h-1v30.7c-1.5.1-3.1.2-4.6.3h-89.4l-1-29c.2,10,0,20,0,30h64v32l-32,1v31h32v-31h31l1,31h32v-32Z"/>
    <path class="st6" d="M801.2,800l-.2-62.1c-10.1-.5-20.9-.7-31,0h0s-2,1.4-2,1.4c-.7,5.2-.7,22.5,0,27.7,0,.6,1.2.9,2,.9v29l.6,1.4c10.2.5,20.5,1,30.7,1.6Z"/>
    <path class="st6" d="M643,832c20.6-.2,41.3.2,62,0l1-32c-2-.2-4,.2-6,0-19-1-38-1-57,0l62,1v30l-62,1Z"/>
    <path class="st6" d="M545,832c.4.9.7.9,1,0,1.5-10.4,1.8-21.1,1-32h-33.1v1l1.5,2h27.6v28.1l2,.9Z"/>
    <path class="st6" d="M738,895l1-29,31-1-32,1v22c0,1.3.2,2.8,0,4-2.7.9-2.8,2.6,0,3Z"/>
    <path class="st6" d="M449,928h-60c20,0,40,.2,60,0Z"/>
    <path class="st6" d="M324,801c-.9,20.2-.9,42.1,0,62,9.6.3,19.2.6,29,1h1c1-20.5.8-42.8,0-63-9.6-.8-20.6-.8-30,0Z"/>
    <path class="st6" d="M264,864c8.3-.4,16.6-1.8,25-1v-61h-29v62h4Z"/>
    <path class="st6" d="M609,257l-30.5.6-.5,30.4,32,1v32h31l1-1,1-31,30-2v-30c-.4-.6-.7-.7-1,0-10,0-20-.2-29.9-.6-.2-.7-.4-1.1-.6-1.3.3-5.2-.4-25.3-.5-28.8,0,0-.4-.3-1-.3-9.9-.9-19.9-.9-30,0l-1,31Z"/>
    <path class="st6" d="M648.5,223c7.8-.3,15.7.2,23.5,0v-29l-30-1h-1c-9.4-2.9-19.6-2.8-29,0h-1l31,1c1,1-.6,24.6,0,29l1,1v1h2c-.5-3,1.6-2,3.5-2Z"/>
    <path class="st6" d="M706,160c-.9.4-.9.7,0,1-9.5,1-19.7,1.2-30.6.6-.4,10.1-.7,20.8-.4,31.1,0,0,.4.3,1,.3h61c-.2-10.1-2.7-20.9,0-31h1v-32h0l1,31.8,1,.2h4l1.8-.7c6.5,0,14-.3,22.6-.7,1.1-31.5,1.6-63,1.6-94.6h0l-32-1c.8,21,.8,42,0,63-.2,0-.3.2-.4.3l-.3-.6c-10.3.7-20.8,1.1-31.3,1.3-2.9,9.8-3.1,21.2,0,31ZM738,129h0,0ZM736,160c-9.6,1-19.3,1.3-29,1,9.7.3,19.4-.1,29-1Z"/>
    <rect class="st6" x="835" y="642" width="29" height="29"/>
    <path class="st6" d="M608,610c-5.1.8-10.1-.6-15-1-2.6-.2-5.4,0-8,0h-1c-.5,0-3.2-2-5-1v63h125v-29l-94-2-2-30Z"/>
    <path class="st6" d="M705,129h1v-1c0-4.1.8-28-1-29-3.3-.2-6.6-.3-10-.4,3.3,0,6.7-.2,10-.6l1-34h30v-30h-60v64l-2,31c9.5,2.8,21.7,3.1,31,0Z"/>
    <rect class="st6" x="835" y="770" width="29" height="29"/>
    <polygon class="st6" points="547 416 482 417 481.7 513 546 513 547 513 547 416"/>
    <path class="st6" d="M612,801v30c9-1.5,23.5,3.4,30-3,0-1.3,0-2.7,0-4-.7-7.7-1.6-15.2-1-23h-29Z"/>
    <polygon class="st6" points="449 861.5 449 833 420 833 420 863 450 863 449 861.5"/>
    <rect class="st6" x="579" y="833" width="30" height="61"/>
    <path class="st6" d="M674,193v-1c-.9,0-1.5.3-1,1l1,2v-2Z"/>
    <rect class="st6" x="676" y="226" width="60" height="29"/>
    <path class="st6" d="M706,320l1,32v-3c0,0,0,3.1,0,3.1l-2,1c-1.1,0-2.1,0-3.2,0h3.1c0-.1-31-.1-31-.1v32h-32v1h3.5c-1.1,0-2.3,0-3.4,0v30c-.9,1.8-.4,2.3,1,1,10.3.4,20.7.4,31,0,10.7,0,21.4-.9,32-1,.9-.4.9-.7,0-1l2-1.5c.6-1.9.3-23.3,0-26.6,0-.5-1.2-.9-2-.9l31-1c1.8.9,2.3.4,1-1l.5-29.6c1.4-.2,1.9-.5.9-.9l29.6.5-2,1.2c-.2,4,.4,30.4,1.9,31.6,1.3,1.1,27.3,1.3,31.1,1.1.5,0,.9-1.2.9-2l-31-1v-64h30c.5,1.9,1.4,1.9,2,0,0-10.6,0-21.4,0-32h32c0-4-.2-8,0-12,.3-6.6,0-13.4,0-20-21.3.2-42.7-.1-64,0v32s0,0,0,0h-32v30h0c0,.4,0,.9,0,1.1,0,0,0,0,0,0h0c0-.1-32-.1-32-.1ZM672.5,385.1h1.5s0,0,0,0c-.5,0-1,0-1.5,0ZM676,354.1h0c0-.1,3.4-.3,3.4-.3-1.1,0-2.2.1-3.3.2,0,0,0,0,0,0ZM739,290c0,2.1-.1,4.2-.2,6.3,0-2.2,0-4.3.2-6.3Z"/>
    <polygon class="st6" points="610 545 610 546 641 545 610 545"/>
    <polygon class="st6" points="319.5 543 321 482 260 482 260 541.5 261.5 543 319.5 543"/>
    <rect class="st6" x="228" y="290" width="29" height="61"/>
  </g>
  <g>
    <path class="st4" d="M545.1,224.2h-31c-2.2.9-2.8,1.6-.5,2.1l.5,29.9c-.9,1.8-.4,2.3,1,1l29.6.5c.4,2.2,1,1.8,1.4-.5,0-4.8.8-31.1-1-33Z"/>
    <rect class="st4" x="292" y="130" width="29" height="30"/>
    <path class="st4" d="M706,129c-.5-.9-.8-.9-1,0-10.3,0-20.7-.4-31,0l-31.3.5-.7,30.5-1,1-29,1v31c-.3,0-.7,0-1,0-.5-.9-.8-.9-1,0-10.3-.1-20.8-1-31-1-.5-.9-.8-.9-1,0v.2c0,0-221.9,0-221.9,0v1l219.8.5c1,20.6,1.4,41.4,1.2,62.5-1,1.8-26.8,1-31,1-.4,10.7-.4,21.3,0,32,.4.9.7.9,1,0l30,1-2,1.5c-.8,4.1.3,23.8.9,28.7,0,.5,1.2.8,2,.8h30c.8,2.5,1.7,2.7,2,0l2-1.5c.3-4.1.5-30.5-1-31.8-1.3-1.1-28.1-1.8-32-1.7-.6,0-.9,1.2-1,2l.5-29.6c1.5-.2,2-.5,1-1l29.6-.5,2-1.4c.9-4.6,1.2-23.5.9-28.7,0-.6-1.2-.9-2-1,10.4-1.1,20.5-1,30.5.3l1.5-1.3c.5.9.8.9,1,0,.9-.4.9-.7,0-1l-1-1,1.9-1.2.3-27.4c-7.5-.8-15.2-1.3-22.9-1.4h44.7c3.3.3,5.8-.3,7.5-1.6l.5-29.4,1-1c10.6,0,20.9-.2,31-1,0-10.3.2-20.7,0-31Z"/>
    <polygon class="st4" points="260 128 288 129 289 129 289 67 260 67 260 128"/>
  </g>
  <path class="st3" d="M579,703c30.6.9,63.7.9,94,0,.8-9.9.8-21.3,0-31-31.6.4-63.4.4-95,0v2c0,9.9.3,19.6,1,29Z"/>
</svg>