<?xml version="1.0" encoding="UTF-8"?>
<svg id="_레이어_1" xmlns="http://www.w3.org/2000/svg" version="1.1" viewBox="0 0 1024 1024">
  <!-- Generator: Adobe Illustrator 30.1.0, SVG Export Plug-In . SVG Version: 2.1.1 Build 136)  -->
  <defs>
    <style>
      .st0 {
        fill: #014a4a;
      }

      .st1 {
        fill: #4cdfd2;
      }

      .st2 {
        fill: #c0fff3;
      }

      .st3 {
        fill: #29aba6;
      }

      .st4 {
        fill: #fefefe;
      }

      .st5 {
        fill: #072628;
      }
    </style>
  </defs>
  <g>
    <path class="st5" d="M802,161c10.8,0,21.3.6,32,1,9.8.4,19.7-.3,29.5,0l-.5-2c-1.7,0-3.3,0-5,0h-10c-4.6-.2-9.3,0-14,0v-32h-2c-8.9,1.9-18.9,1-28,1h-2c.2,10.6,0,21.4,0,32ZM804,130h28v29h-28v-29Z"/>
    <path class="st5" d="M864,162c-.2,0-.3,0-.5,0l.5,1.7v-1.7Z"/>
    <path class="st5" d="M834,191l2,2h29l2,95v-94h28v93l-26,1v1c9.3-.2,18.7,0,28,0v-96.4l-2-.6h-23c-1.3-.1-2.7,0-4,0h-1c-1.9-1.6-.8-5.8-1-8v-6c0-2.3,0-4.7,0-7l-2-7.3v27.3h-30Z"/>
    <path class="st5" d="M284.5,674c2,0,4.1,1,3.5-2h-29l-1,3c.5,63-.3,126-1,189v1c-.2,20.9-.6,42.1,1,63-.8-10.7.7-21.8,1-32,.3-10.2-.4-20.6.1-30.8l28.9-1.2-28-1v-189c8.1-.2,16.3.3,24.5,0Z"/>
    <path class="st5" d="M800,927h-29v-189l9-2c-3.3-.2-6.7,0-10,0v-31l-1,30h-30l-2-30h0v31l32.5.9c1,10.7.4,21.4.5,32.1.3,21,0,42,0,63,0,30-2,64.2,0,93.6.2,1.9.2,2.5,2.1,3.4,4.2,0,28.3.8,29.6-.9l.4-64.1-2,.6v62.4Z"/>
    <path class="st5" d="M172.5,385.3l-7.5-.3c1,.2,3.9.2,7.5.3Z"/>
    <path class="st5" d="M194,480c-.5-31.6.3-63.3.1-95h31.9l1-1c-.2-42.3.2-84.7,0-127h-32v32l1-31h29v125h-29v-61.4l-2-.6v63c-1,1-13.1,1.3-21.5,1.3l20.5.7c.4,42.3-1,84.7,1,127,.5,9.7,1.4,19.3,1,29,.9-11,.4-19.2,0-30-.4-10.7-.8-21.3-1-32Z"/>
    <path class="st5" d="M322,928c-10.3,0-20.5-.2-31,0-6.5.1-13.3.8-19.9,1.1l80.9.9v29h-124l-1-28c.1,10,0,20,0,30l126-1,1-1c.1-10-.2-20,0-30-10.6,0-21.5-1-32-1Z"/>
    <path class="st5" d="M271.1,929.1h-12.1c4,.2,8,.2,12.1,0Z"/>
    <path class="st5" d="M356.6,927.1l-2.6-3.1v5h31l-28.4-1.9Z"/>
    <path class="st5" d="M651.5,95c-2,0-4.1-1-3.5,2,28.3-2.6,60.3,1.9,89,0v31l1,1h31c10.3,0,20.7-.5,31,0,.5-.2,1.1-1,2-1,0-4.8.9-29.1-1-31l-63-1-1-2c-.9.5-1.9,1-3,1-26.5,1.9-55.5-1.1-82.5,0ZM739,98h61v29h-61v-29Z"/>
    <path class="st5" d="M834,321h-2v30h-62.5l-2.5,1v127c-4.1,1-15.2-2.2-15,2,5.3-.1,12.3,1.3,17-1.5v-126.5l64-1,1-2v-29Z"/>
    <polygon class="st5" points="548 929 547 960 768.4 961 769 959 548 959 548 929"/>
    <path class="st5" d="M928.5,639h-29.5v-95h-2c-9.9-.4-20-1.8-30-1l-1-30v31l3,1h21c1.7,0,3.4,0,5,0h1c.7,0,.8.8,1,1,.5.5,1.1.3,0,1v61c0,8.3-.2,16.7,0,25l1,7c10,.2,20,0,30,0,1.8,1,1,27.7,1,32v32h-32v32c0,11,0,22,0,33,10.6-.4,21.4.3,32,0-1-21.6.9-43.5,1-65s1.1-44.2-1.5-65ZM927,767h-28l1-61h27v61Z"/>
    <path class="st5" d="M706,928h-1c-42.3-.2-84.7.3-127,0l189,2,2,27c1.1-8,0-19.8-1-28-20.7.3-41.4-1-62-1Z"/>
    <path class="st5" d="M610,896v-32c-10.6-.2-21.3.2-32,0v-63h32l1-32h63v-32l-1-1h-63l-.4,32.1-29.6.9h-2c10.1,0,20.8,2.1,31,1v29h-30.5l-2.5,1v64l2.5,1h30.5v30h-30.5l-2.6,2.5,2.1,30.5v-31c10.6,1,21.5-.8,32-1ZM612,738h61v29h-61v-29Z"/>
    <path class="st5" d="M771,704h31v-96h-33c-.2,2,.2,4,0,6v58l2-.6v-61.4h29v93l-29,1Z"/>
    <path class="st5" d="M194,126c0,.2,2.5,2.5,3,3,20.3-.2,40.8,0,61,0h1v-31c-.6-.2-1.5-1-2-1v30h-61v-29c20-.5,40.1,1.2,60-1h-62c1.2,8.4-1.6,21.2,0,29Z"/>
    <path class="st5" d="M578,577v32h61l1-2h-60v-29h60v29l2-4v-26c-21.3.2-42.7,0-64,0Z"/>
    <path class="st5" d="M323,609v-32h-32l30,1v93h-30v1c1.6,0,4-.6,5,1,8.4-.8,16.6-1.5,25-1h1l1-2c0-10,0-19.7,0-30,.1-10.3,0-20.7,0-31Z"/>
    <path class="st5" d="M162,510l1-123c-2.2,31.2-4.9,93.4-1,123Z"/>
    <path class="st5" d="M832,834v29c-9.1,1-20.2-1.9-29,1l31,1c0-10.6,0-21.3,0-32h-32l30,1Z"/>
    <path class="st5" d="M834,800c0,11,.2,22,0,33,4.3,0,29.8.6,31.1-.4l.9-31.6c-4.4,0-30.8-2.2-32-1ZM864,831h-28v-29h28v29Z"/>
    <path class="st5" d="M99,194h-1v127c16,0,32-.1,48,0l-47-2v-125Z"/>
    <path class="st5" d="M129,286v-29c0-21.3-.8-42.8,1-64-4.2,0-30-.8-31,1h29c3.3,3.2-3.1,78.4,1,92Z"/>
    <path class="st5" d="M227,929l2-63,27-1v-1c-5.3.2-10.7-.2-16,0h-3c-3,.2-6,0-9,0l-1,1c.2,21.3-.3,42.7,0,64Z"/>
    <path class="st5" d="M768,672l-61,1h-1c.2,10.3,0,20.7,0,31h31l-30-1v-29l61-2Z"/>
    <path class="st5" d="M673,640v-32h-31v16c.3-4.3,1.8-9.2,1-14h28v29l-29-1v2c10.3.2,20.7-.2,31,0Z"/>
    <path class="st5" d="M690,672c5.2.4,10.8-.5,16,0,0-5,.2-10,0-15v-1c0-3.2.4-6.9,0-10l-1-5c-2.2-2-6.2-.8-9-1h-10c-4,0-8,0-12,0v32h8c-1.7-.2-4.4-2-7-1v-29h29v29c-4.5-1-10.1.9-14,1Z"/>
    <path class="st5" d="M164,159h.4c-.1,0-.2,0-.4,0h0Z"/>
    <path class="st5" d="M164,130h29v29h-28.6c7.4,1.9,28.9,2.2,29.6,1v-31c-10.6,0-21.4-.1-32,0v29c.3.3,1,.6,2,.9v-28.9Z"/>
    <path class="st5" d="M927,607.4l2,.6-1-63-24-1h-4v1l27,1v61.4Z"/>
    <path class="st5" d="M838,321c8.6-.8,17.5,1.2,26-1h2v-31c-10.6,0-21.5-.9-32,1h30v29l-26,2Z"/>
    <path class="st5" d="M259,546v-1c-4.3,0-30,.8-31-1-1.8-10.5-1-21.4-1-32h-2v31c-8.2.2-16.4-.3-24.6,0-1.9,0-4-1-3.4,2,8.4,1.2,20.9-.2,30,0,10.6.2,21.3,1.9,32,1Z"/>
    <polygon class="st5" points="643 65 643 66 735 66 643 65"/>
    <path class="st5" d="M151,321h13c.6-3.4-14.1-3.1-13,0Z"/>
    <path class="st5" d="M168,321h4c1.1-3-4.9-3.2-4,0Z"/>
    <path class="st5" d="M417.9,831.9l-30.9,1.2h32.6l1.4-63.1h27v93h-32l2,34v-33h33v-95h0s-33,0-33,0c0,21,.2,42,0,62.9Z"/>
    <path class="st5" d="M354,801c0,31.7.2,63.3,0,95,0,8.3.1,16.7,0,25l2-119h29l1,30v-32h-31c-.2,0-.8,1-1,1Z"/>
    <path class="st5" d="M547,847l1-77c9.3,1,18.8-.8,28-1h-30c-.2,21,0,42,0,63,0,4.9,1,10,1,15Z"/>
    <polygon class="st5" points="514 920 515 897 545 896 514 896 514 920"/>
    <path class="st5" d="M514,926v2c1.6-.2,1.1-1.4,0-2Z"/>
    <path class="st5" d="M290,130h31v29h-30c.8-2.3-.3-4.5-.8-6.2.5,2.9-1.1,6.2-1.2,8.2-.7,9.9.5,20.1,0,30h-29v-29l28-1-30,1v30l-32,1c-1,20.9.9,42.1,1,63l31,1h1v-64h32v-32h32c-.2-10.6.2-21.4,0-32-10.9,0-22.2-.8-33,1ZM257,255h-29v-61h29v61Z"/>
    <path class="st5" d="M609,128l-286-1v2c85,0,170,.5,255,0,10.3-.1,20.8,0,31-1Z"/>
    <path class="st5" d="M290.2,152.8c0-.3-.1-.5-.2-.8,0,.2.1.5.2.8Z"/>
    <rect class="st5" x="355" y="97" width="285" height="1"/>
    <path class="st5" d="M637,193l-25-2-2-62v32c0,10.3-.2,20.7,0,31,8.1.9,19,2,27,1Z"/>
    <path class="st5" d="M642,182.1v-21.1c-.1,7,0,14.1,0,21.1Z"/>
    <path class="st5" d="M642,122.5v-25.5c0,8.5,0,17,0,25.5Z"/>
    <path class="st5" d="M642,182.1v9.9c0-3.3,0-6.6,0-9.9Z"/>
    <path class="st5" d="M642,122.5v38.5c.2-12.8,0-25.6,0-38.5Z"/>
    <polygon class="st5" points="706 352 708 353 737 352 707 351 707 320 706 352"/>
    <path class="st5" d="M723,320h14c-4.7,0-9.4-.1-14,0Z"/>
    <path class="st5" d="M737,320h33c-11,0-22-.1-33,0Z"/>
    <path class="st5" d="M819,320c-1.4,2.9,7.3,2.5,9.6,2.1,2.1-.3,1.3-2.1,1.4-2.1h-11Z"/>
    <path class="st5" d="M866,778c.3-2.2,1.9-5,1-8,9.7.8,19.4-.6,29-1h-30v9Z"/>
    <path class="st5" d="M867,800l-1-20c-.5,5.8-.4,14.3,1,20Z"/>
    <path class="st5" d="M833,554.1v53.9c.2-17.9,0-35.9,0-53.9Z"/>
    <path class="st5" d="M833,554.1v-40.1c-.1,13.4,0,26.7,0,40.1Z"/>
    <path class="st5" d="M290,673l-1,191h2c.5-53.4-1.2-106.7,0-160,.2-8,0-16,0-24v-7h-1Z"/>
    <path class="st5" d="M674,257c0-21.6,0-43.4,0-65h-1l-31,2h31v93c-10-.7-21.2,1-31,0v2c9.1-1,22.4-.8,32-1,0-10.3,0-20.7,0-31Z"/>
    <path class="st5" d="M674,320h31v-32h-1c-10-.1-20.1-.2-30,0,0,10.6,0,21.4,0,32ZM675,290h29v29h-29v-29Z"/>
    <path class="st5" d="M291,320h-33v96l1,1h31v63l1,1h31l-31-2v-62h94v62h-29.5l-2.5,1.7-1,30.3h-26.5l-3.5-30c0,10.3.2,20.8,0,31s-1.9,20.7-1,31h-30v2h30c.2-.4.9-.7,1-1,3-7.8-.2-22.3,1-31h31v32h64v-33h-63v-31h31l1-65h-96c-2.6-.7,0-3.7,0-4-.5-9,0-18,0-27-.2-21.6.1-43.4,0-65ZM356,513l1.5,1h57l1.5,1.5v24l-1,2.5h-59v-29ZM288,414h-28v-93l1.5,1h26.5v92Z"/>
    <path class="st5" d="M320,512h-29v2.5c9.2-3.7,19.4.3,29-2.5Z"/>
    <path class="st5" d="M514,417h64v-97h-63l-1,1v87c0,1.9-.3,4.3,0,6v1c.2.4-.2,1.9,0,2ZM516,322h60v93h-60v-93Z"/>
    <path class="st5" d="M642,255.1v24c3,.5,2-1.6,2-3.5.2-5.6.2-11.5,0-17.1,0-2,1-4.1-2-3.5h0Z"/>
    <path class="st5" d="M642,250c3.2.5,2.9-2.7,0-2v2Z"/>
  </g>
  <g>
    <path class="st3" d="M642,577c0-10.6-.2-21.4,0-32-21.3,0-42.7,0-64,0l-1,32-254,1v31h255v-32c21.3,0,42.7.2,64,0Z"/>
    <path class="st3" d="M706,544v-64c10.3-1,20.8,1,31,1h2v-1l-1-127-1-1-29,1-2-1,1-32c1.6-.1,3.4.2,5,0h1c1-.1,2,0,3,0h7c4.6-.1,9.3,0,14,0v-32c-10.7-.1-21.3,0-32,0v32h-31c0-10.6,0-21.4,0-32-9.6.2-22.9,0-32,1v1c.1,4.4-.9,29.2.9,30.6l30.1.4,1,32h32v95h-33v64h-30c-1.9,1.9-1,28-1,33,21.3,0,42.8.9,64-1Z"/>
    <path class="st3" d="M704,288v-30l-29-1h-1c0,10.3,0,20.7,0,31,9.9-.2,20-.1,30,0Z"/>
    <path class="st3" d="M800,129c-5.6,2.4-28.9-.1-30,1v31h32c0-10.6.2-21.4,0-32v-1c-.9,0-1.5.8-2,1Z"/>
    <path class="st3" d="M834,193v63l-32,1v31h-31l-1,31v1h60c.7-.3,3,.3,4,0v-30c10.5-1.9,21.4-1,32-1h3v-1h-2l-2-95h-29l-2-2v-29c-10.7-.4-21.2-1-32-1v32h32Z"/>
    <path class="st3" d="M866,736l-1,33h-32v-65c-10,0-20,.2-30,0h-32l-1,1v31c3.3,0,6.7-.2,10,0,7.3.4,14.7-.3,22,0v97h32c.2-11,0-22,0-33,1.2-1.2,27.6,1,32,1h1v-1c-1.4-5.7-1.5-14.2-1-20v-11h31c0-11,0-22,0-33h-31Z"/>
    <path class="st3" d="M770,925.6c-2.1-29.4,0-63.6,0-93.6h-31.9v32h-32l-1,63,1,1c20.6,0,41.3,1.3,62,1h4c-1.9-.9-2-1.4-2.1-3.4Z"/>
    <path class="st3" d="M642,624v-21l-3,6h-29v30c1.9,1.9,27.1,1,32,1v-2c0-4.6-.3-9.4,0-14Z"/>
    <path class="st3" d="M673,640c-10.3-.2-20.7.2-31,0,0,10.6,0,21.3,0,32h32v-32h-1Z"/>
    <path class="st3" d="M706,737h31v31l1,1h32c-.2-10.7.5-21.4-.5-32.1l-32.5-.9v-32h-31c0,11,0,22,0,33Z"/>
    <path class="st3" d="M706,704c0-10.3.2-20.7,0-31v-1c-5.2-.5-10.8.4-16,0-2.4,0-5.7.3-8,0h-8v32h32Z"/>
    <path class="st3" d="M734,95c1.1,0,2.1-.5,3-1l-.2-29.3-93.8.3,92,1-1,29Z"/>
    <path class="st3" d="M257,97c.5,0,1.4.8,2,1v-1l-1-1-64,1h63Z"/>
    <path class="st3" d="M194,129h3c-.5-.5-3-2.8-3-3l-32,3c10.6-.1,21.4,0,32,0Z"/>
    <path class="st3" d="M164,384c.2.4.6,1,1,1,3.3.5,27.6.4,29-1h-30Z"/>
    <path class="st3" d="M832,128l-28,1c9.1,0,19.1.9,28-1Z"/>
    <path class="st3" d="M904,544l24,1c-1.5-2-20.1-.8-24-1Z"/>
    <path class="st3" d="M885.5,192h-13.5c4.3.4,8.9.2,13.5,0Z"/>
    <path class="st3" d="M885.5,192h9.5c-3.1-.2-6.3-.1-9.5,0Z"/>
    <path class="st3" d="M866,160h-3l3,11c-.2-3.6.2-7.4,0-11Z"/>
    <path class="st3" d="M851.2,160h6.8c-2.3-.1-4.5,0-6.8,0Z"/>
    <path class="st3" d="M851.2,160h-3.2c1,0,2.1,0,3.2,0Z"/>
    <path class="st3" d="M866,178c0,2-.2,4,0,6v-6Z"/>
    <path class="st3" d="M705,641l1,5c-.2-1.6.7-3.8-1-5Z"/>
    <path class="st3" d="M899,545h1v-1h-1v1Z"/>
    <rect class="st3" x="256" y="864" width="1" height="1"/>
    <path class="st3" d="M515,832c-1.8,21.2-1,42.7-1,64h31c.9-16.2,1.8-32.8,2-49,0-5-1-10.1-1-15h-31Z"/>
    <path class="st3" d="M482,896l-1,32c11,0,21.8,1.7,33,0v-32c-6.7,0-27.3-1.3-32,0Z"/>
    <path class="st3" d="M418,896v33c10.8-1,22.2-1.1,33-1l-1-32h-32Z"/>
    <path class="st3" d="M546,769h32v-33h-32c0,11,0,22,0,33Z"/>
    <path class="st3" d="M353,896h-31v32c10.5,0,21.4,1,32,1v-8c.1-8.3,0-16.7,0-25h-1Z"/>
    <path class="st3" d="M610,161v-32l-1-1c-10.2,1.1-20.7,1-31,1v1l1,31h31Z"/>
    <path class="st3" d="M610,223l1,2h31v-1c.2-10,0-20,0-30l31-2v-30l-29-1h-2c-.2,10.3,0,20.7,0,31-.8,1.9-3.5.8-5,1-8,1-18.9-.1-27-1,.2,10.3,0,20.7,0,31Z"/>
    <path class="st3" d="M323,127c-.4-9.9-1.8-20-1-30-10.6,0-21.4,0-32,0v1l-2,31h-30v32h-32v31l-31,1v30.5l-33,1.5v32l-33,1v28c.2.8,0,2.1,0,3h66v-32h32v-1c0-20.9-2-42.1-1-63l32-1v-30l30-1h1c.1-2.2,2-6,1-9-1-6.6.7-15.1,0-22,10.8-1.8,22.1-1,33-1v-2Z"/>
    <path class="st3" d="M832,609l-29,1v30h30c0-10.3,0-20.7,0-31h-1Z"/>
    <path class="st3" d="M259,896c-.4,10.6-1.8,21.3-1,32l1,1c10.6.9,21.5-.8,32-1v-32h-32Z"/>
    <path class="st3" d="M259,574.5c.4,3.4,3,2.2,5,2.5h24l1-32h-30v1c.2,9.5,0,19,0,28.5Z"/>
    <path class="st3" d="M195,512h30v-32h-31c.2,10.7.6,21.3,1,32Z"/>
    <path class="st3" d="M897,640h1l-1-7v7Z"/>
    <path class="st3" d="M897,546v1c1.1-.7.5-.5,0-1Z"/>
    <path class="st3" d="M322,769v31c1,1.7,26.8,1,31,1h1c.2,0,.8-1,1-1v-31h-33Z"/>
    <path class="st3" d="M611,864l-1,1v31c3.9,0,29.7,2.3,31,1v-32l-29-1h-1Z"/>
    <polygon class="st3" points="866 545 869 545 866 544 866 545"/>
    <path class="st3" d="M322,544c0,.3-.8.6-1,1h2c.2-.5-.3-1.2-1-1Z"/>
  </g>
  <g>
    <path class="st1" d="M290,672v1h1c1.6,0,3.4.2,5,0-1-1.6-3.4-1-5-1h-1Z"/>
    <path class="st1" d="M802,257l32-1-1-62-30-1h-1l-1-31-31-1v-31c1.1-1,24.4,1.4,30-1-10.3-.5-20.7,0-31,0h-31l-1-1-1-30-93-1h-1c-.2,21.3.3,42.7,0,64h2c4.6,0,28.2-.9,30,1l1,95h30v31c10.7,0,21.3,0,32,0v31h33l1-31h31v-31Z"/>
    <path class="st1" d="M227,448h32v-31l-1-1v-96h33l2,63h28v-30h30.5l3.5-1v-159h30.5l1.5-1.5v-30.5h127v32h-33v32h-31v32h-32v128h32v31h30.5l1.5,1.5v30.5h32v64h-32v31.5l-1.5,1.5h-30.5v31l118,1h4l5-1,1-31c21.3,0,42.7,0,64,0,0-5-.9-31.1,1-33l29-1,1-63h33v-95h-32l-1-32-30.1-.4c-1.7-1.5-.9-26.3-.9-30.6-.3-.2-.2-1,0-1v-2c-.2,0-.3-.8,0-1v-60l-31-1-1-2-1-61-30-1-1-31h-254l-1,31h-1l-30,1-1,31h-1l-30,1-1,63h-1l-30,1-1,126-1,1-31,1v94h32c.1-10.6,0-21.4,0-32ZM578,320v97h-64c-.2-.1.2-1.6,0-2-.3-.8,0-1,0-1-.3-1.7,0-4.1,0-6v-87l1-1h63Z"/>
    <path class="st1" d="M898,672c.8-10.7-.6-21.4-1-32h-1c-10.3-.2-20.7,0-31,0v-30.5l-32-1.5v1c0,10.3,0,20.7,0,31h-30v-30l29-1h-30v31l1,64c10,.2,20,0,30,0v65h32l1-33h27l3.1-2.4.9-29.6h1l30-1v-31h-30Z"/>
    <path class="st1" d="M737,768l-1-30-30-1c0-11,0-22,0-33h-32v-32h-32c0-10.7,0-21.3,0-32-4.9,0-30.1.9-32-1l-1-29h-285v30h157v32h-31v32h-32c0,21.7.1,43.3,0,65h33v95h-1c.5,3-1.6,2-3.5,2-9.1.4-18.4-.3-27.5,0v30h33v31h28v-31h2c4.7-1.3,25.3,0,32,0,0-21.3-.8-42.8,1-64l30-1,1-95h32l1,31h28.5l1.5,1,1-32h63l1,1v32l-62,1v31l-2.5,1h-30.5v61l32,1h1c10,.2,20,0,30,0l-1,33-62,1v29h125v-62.4l2-.6h32v-32h30v-62l-30-1-1-1Z"/>
    <polygon class="st1" points="705 928 706 928 705 927 705 928"/>
    <path class="st1" d="M277.3,577h-13.3c4,.6,8.6.2,13.3,0Z"/>
    <path class="st1" d="M288,577c-3.3-.4-7-.2-10.7,0h10.7Z"/>
    <polygon class="st1" points="195 193 226 192 226 161 258 161 258 130 195 130 194 160 162 162 161 193 131 194 131 257 162 257 162 225 195 223.5 195 193"/>
    <polygon class="st1" points="322 673 323 672 322 672 321 672 322 673"/>
    <path class="st1" d="M259,512h-31v32c1,1.8,26.7,1,31,1-.2-11,.2-22,0-33Z"/>
    <path class="st1" d="M322,800v-31h1v-65h-31l-1,160h-1c.5,3-1.6,2-3.5,2-8.8.3-17.7-.2-26.5,0v30h31l1,31h29l1-31h31v-95c-4.2,0-30,.7-31-1Z"/>
    <polygon class="st1" points="388 800 388 831 417 831 417 792 416 800 388 800"/>
    <polygon class="st1" points="290 98 260 98 260 129 288 129 290 98"/>
    <rect class="st1" x="324" y="514" width="29" height="31"/>
    <polygon class="st1" points="292.5 384 292 385 292.5 385 293 384.5 292.5 384"/>
  </g>
  <g>
    <polygon class="st4" points="833 514 865 513 833 513 833 514"/>
    <path class="st4" d="M296,673c-1.6.2-3.4,0-5,0v7c0,8,.2,16,0,24l1-30,30-1-1-1c-8.4-.5-16.6.2-25,1Z"/>
    <path class="st4" d="M323,670v-30c0,10,0,20,0,30Z"/>
    <path class="st4" d="M896,545h-1c-1.6,0-3.3,0-5,0h-24l30,1v94h1v-7c-.2-8.3,0-16.7,0-25v-62c-.2-.2-.3-.9-1-1Z"/>
    <path class="st4" d="M928,640l1,32c0-4.3.8-31-1-32Z"/>
    <path class="st4" d="M291,416h95l-94-1v-30h-1c0,9-.5,18,0,27v4Z"/>
    <polygon class="st4" points="418 544 418 512 417.5 512 418 544"/>
    <polygon class="st4" points="356 511 356 482 385.5 482 385.5 481 383.5 481 355 481 355 512 417.5 512 417.5 511 356 511"/>
    <polygon class="st4" points="387 416 385.5 481 386 481 387 416"/>
    <path class="st4" d="M291,545c1.6,1.6,31.2,1.6,32,0h-32Z"/>
    <path class="st4" d="M321,511l-30,1h29c.5-.2,1.4,0,2,0,.2-10.3,0-20.7,0-31h-32l31,1v29Z"/>
  </g>
  <g>
    <path class="st2" d="M418,769c.1-21.7,0-43.3,0-65h32v-32h31v-32h-157v-30h285l1,29v-30h-287c0,10.3.1,20.7,0,31v32l-1,1-30,1-1,30c-1.1,49.4.3,98.8,0,148.2l.9-148.2h31v65h32v31h31v32l1,1,30.9-1.1c.3-21,0-41.2,0-62.9ZM417,831h-29v-31h28l1-8v39Z"/>
    <path class="st2" d="M291.1,852.2v11.8c0-3.9,0-7.9,0-11.8Z"/>
    <path class="st2" d="M480,927h-28v-31h-2l1,32h30l1-32h-2v31Z"/>
    <path class="st2" d="M737,128v-31c-28.7,1.9-60.7-2.6-89,0-.2,0-.4,0-.7,0l88.7,1,1,30Z"/>
    <path class="st2" d="M647.3,97h-4.3c1.5,0,2.9,0,4.3,0Z"/>
    <path class="st2" d="M260,98h30v-1c-10.3,0-20.7,0-31,0v32h1v-31Z"/>
    <polygon class="st2" points="673 448 672 511 643 512 673 512 673 448"/>
    <polygon class="st2" points="834 256 834 193 803 193 833 194 834 256"/>
    <path class="st2" d="M802,161h-32l31,1,1,31v-32Z"/>
    <path class="st2" d="M770,320v-1h-33v1c11-.1,22,0,33,0Z"/>
    <path class="st2" d="M802,704h1l-1-64v64Z"/>
    <path class="st2" d="M896,546l-30-1v-32h-1l-32,1c-.3,31.3.4,62.7,0,94l32,1.5v30.5c10.3,0,20.7-.2,31,0v-94Z"/>
    <path class="st2" d="M288,864h0l-28.9,1.2c-.5,10.2.3,20.6,0,30.8h1v-30c8.9-.2,17.8.3,26.6,0,2,0,4.1,1,3.5-2h-2Z"/>
    <path class="st2" d="M704,927h-125v-29l51-.8c-8-.4-17.7-1.2-20-1.2-10.5.2-21.4,2-32,1v31c42.3.3,84.7-.2,127,0v-1l1-63-2,.6v62.4Z"/>
    <path class="st2" d="M641,897l-11,.2c5.7.3,10.5.4,11-.2Z"/>
    <path class="st2" d="M738,769l30,1v62h2c0-21,.3-42,0-63h-32Z"/>
    <path class="st2" d="M259,545h1c9.3.2,18.7,0,28,0h1l2,32h277l-118-1v-31h30.5l1.5-1.5v-31.5h32v-64h-32v-30.5l-1.5-1.5h-30.5v-31h-32v-128h32v-32h31v-32h33v-32h-127v30.5l-1.5,1.5h-30.5v159l-3.5,1h-30.5v30h-28l-2-63c.1,21.6-.2,43.4,0,65h1l.5-1,.5.5-.5.5h-.5v30l94,1h1l-1.5,66h-29.5v29h61.5l.5,33v1h-64v-32h-31c-1.2,8.7,2,23.2-1,31,.7-.2,1.2.5,1,1-.8,1.6-30.4,1.6-32,0v-33l30-1v-29l-31-1v-64h-31v31h-32c0,10.6.1,21.4,0,32,0,10.6,0,21.4,0,32s-.8,21.5,1,32v-32h31c.2,11-.2,22,0,33ZM324,514h29v31h-29v-31Z"/>
    <path class="st2" d="M129,257h2v-63l30-1h-31c-1.8,21.2-1,42.7-1,64Z"/>
    <path class="st2" d="M227,384l1-126,30-1-31-1v1c.2,42.3-.2,84.7,0,127Z"/>
    <path class="st2" d="M194,480h1v-94l27.9-.9h-28.8c.2,31.6-.6,63.3-.1,94.9Z"/>
    <polygon class="st2" points="226 385.1 226 385 222.9 385.1 226 385.1"/>
    <path class="st2" d="M292,927l-1-31v32c10.3-.2,20.7,0,31,0v-32l-1,31h-29Z"/>
    <path class="st2" d="M928,640c-10,0-20,.2-30,0h-1c.4,10.6,1.8,21.3,1,32h30v31l-30,1h31v-32l-1-32Z"/>
    <polygon class="st2" points="893 736 897 736 897 704 896.1 733.6 893 736"/>
    <path class="st2" d="M258,130v-1c-20.2,0-40.7-.2-61,0h-3v31l1-30h63Z"/>
    <path class="st2" d="M546,736l-1,95-30,1h31c0-21-.2-42,0-63,0-11,0-22,0-33Z"/>
    <path class="st2" d="M450,864h-32.1v32h1v-30c9.2-.3,18.4.4,27.6,0,2,0,4.1,1,3.5-2Z"/>
    <polygon class="st2" points="609.6 768.1 610 736 609 768 607.5 767 579 767 578 736 578 769 579 769 580 769 609.6 768.1"/>
    <path class="st2" d="M354,801h-1v95h1c.2-31.7,0-63.3,0-95Z"/>
    <path class="st2" d="M578,801v63c10.7.2,21.4-.2,32,0h1l-32-1v-61h30.5l2.5-1v-31l62-1h-63l-1,32h-32Z"/>
    <path class="st2" d="M674,257h1l-1-95v30c0,21.6,0,43.4,0,65Z"/>
    <path class="st2" d="M323,161l1-31h254v-1c-85,.5-170,0-255,0,.2,10.6-.2,21.4,0,32Z"/>
    <path class="st2" d="M610,223c0-10.3.2-20.7,0-31s0-20.7,0-31h-31l30,1,1,61Z"/>
    <polygon class="st2" points="642 225 611 225 642 226 642 225"/>
    <polygon class="st2" points="290 193 259 193 259 257 260 194 290 193"/>
    <polygon class="st2" points="322 161 291 161 291 193 292 162 322 161"/>
    <polygon class="st2" points="577 577 578 545 577 576 572 577 577 577"/>
    <path class="st2" d="M642,290v-1c-.2,0-.3.8,0,1Z"/>
    <path class="st2" d="M642,286c-.3.2-.2,1,0,1v-1Z"/>
    <path class="st2" d="M514,414s-.3.2,0,1v-1Z"/>
    <polygon class="st2" points="736 738 737 768 737 737 706 737 736 738"/>
    <path class="st2" d="M291,416v-4c0,.3-2.6,3.3,0,4Z"/>
  </g>
  <g>
    <path class="st0" d="M578,928l-2.1-30.5,2.6-2.5h30.5v-30h-30.5l-2.5-1v-64l2.5-1h30.5v-29c-10.2,1.1-20.9-1-31-1h-2c-9.2.2-18.7,2-28,1l-1,77c-.2,16.2-1.1,32.8-2,49l-30,1-1,23v6c1.1.6,1.6,1.8,0,2-11.2,1.7-23,0-33,0h-30c-10.8,0-22.2,0-33,1v-32l-2-34h32v-93h-27l-1.4,63h-32.6l-1-1-1-30h-29l-2,119v3l2.6,3.1,28.4,1.9,2.5,32h125l1.5-1.5v-30.5h32l1,31,1-31v30h221v-2l-2-27-189-2Z"/>
    <path class="st0" d="M290,97c10.6,0,21.4,0,32,0-.8,10,.6,20.1,1,30l286,1,1,1,2,62,25,2c1.5-.2,4.2.9,5-1v-95h1c1.7,0,3.4.2,5,0-.5-3,1.6-2,3.5-2,26.9-1.1,55.9,1.9,82.5,0l1-29h-92l-1,30h-288v-32h-95l-1,32,1,1c10.3,0,20.4,0,31,0ZM355,97h285v1h-285v-1Z"/>
    <path class="st0" d="M164,321h4c-.9-3.2,5.1-3,4,0,7.3.2,14.7-.1,22,0l2,.6v61.4h29v-125h-29l-1,31h-66c0-.9.2-2.2,0-3-4.1-13.6,2.2-88.8-1-92h-29v125l47,2h5c-1.1-3.1,13.6-3.4,13,0Z"/>
    <path class="st0" d="M194,160l-10.9.7c5.7.1,10.5-.1,10.9-.7Z"/>
    <path class="st0" d="M130,193h31l1-31,21.1-1.3c-6.7-.1-14.8-.7-18.8-1.7h28.6v-29h-29v28.9c-1-.3-1.7-.6-2-.9l-2,2-30,1-1,31h-32l1,2h1c1-1.8,26.8-1,31-1Z"/>
    <path class="st0" d="M830,320c-.1,0,.7,1.7-1.4,2.1-2.4.4-11.1.8-9.6-2.1h-103c-1,0-2-.1-3,0h-1c-1.6.2-3.4-.1-5,0v31l30,1,1,1,1,127v1c4.3,0,8.7,0,13,0-.2-4.2,10.9-1,15-2v-127l2.5-1h62.5v-30h2c1.3,0,2.7,0,4,0l26-2v-29h-30v30c-1,.3-3.3-.3-4,0Z"/>
    <path class="st0" d="M802,736c-7.3-.3-14.7.4-22,0l-9,2v189h29v-62.4l2-.6c.2,0,.7,0,1,0,8.8-2.9,19.9,0,29-1v-29l-30-1v-97Z"/>
    <path class="st0" d="M866,480.5l-1.5-1.5h-62.5v130h31v-96h33l1,30c10-.8,20,.6,30,1v-32h-31v-31.5Z"/>
    <path class="st0" d="M929,608l-2-.6v-61.4l-27-1h-1v94h29.5c2.6,20.8,1.6,43.5,1.5,65l31-.5v-95.5h-32Z"/>
    <polygon class="st0" points="800 703 800 610 771 610 771 671.4 769 672 768 672 707 674 707 703 737 704 737 705 739 735 769 735 770 705 771 704 800 703"/>
    <path class="st0" d="M284.5,674c-8.1.3-16.3-.2-24.5,0v189l28,1h1l1-191v-1h-2c.5,3-1.6,2-3.5,2Z"/>
    <path class="st0" d="M258,928c-1.6-20.9-1.2-42.1-1-63h-1l-27,1-2,63v2l1,28h124v-29l-93-1-1-1Z"/>
    <path class="st0" d="M321,671v-93l-30-1-2-32-1,32c-7.5-.8-16.8,1-24,0-2-.3-4.6.9-5-2.5,0-9.5.2-19,0-28.5-10.7.9-21.4-.8-32-1l.5,32h30.5v32h33v62h30Z"/>
    <path class="st0" d="M737,481c-10.2-.1-20.7-2-31-1v64c-21.2,1.9-42.7.9-64,1-.2,10.6,0,21.4,0,32,21.3-.2,42.7,0,64,0v-32h30.5l.5-64Z"/>
    <path class="st0" d="M193,386l-28-1c-.4-.1-.8-.6-1-1h-2c-.4,1,1,2.6,1,3l-1,123c.1,1,0,2,0,3h32c-2-42.3-.6-84.7-1-127Z"/>
    <path class="st0" d="M896,769c-9.6.4-19.3,1.8-29,1,.9,3-.7,5.8-1,8v2l1,20v1c10,0,20,0,30,0,0-10.6,0-21.3,0-32h-1Z"/>
    <path class="st0" d="M227,480h-2v32h2c0-10.6,0-21.4,0-32Z"/>
    <path class="st0" d="M195,542c0,.6-1.6,1.6-1,3,1,0,2,0,3,0-.6-3,1.5-2,3.4-2,8.2-.3,16.4.2,24.6,0v-31h-30c.4,10.8.9,19,0,30Z"/>
    <path class="st0" d="M689.2,640h6.8c-2.3-.1-4.5,0-6.8,0Z"/>
    <path class="st0" d="M686,640c1,0,2.1,0,3.2,0h-3.2Z"/>
    <path class="st0" d="M769,614c-.3,2.2,0,4.7,0,7v-7Z"/>
    <path class="st0" d="M706,673h1c-.2-.4-.6-1-1-1v1Z"/>
    <polygon class="st0" points="895 287 895 194 867 194 867 288 869 288 895 287"/>
    <path class="st0" d="M864,162c-10-.3-20,.4-30,0v29h30v-29Z"/>
    <path class="st0" d="M642,638l29,1v-29h-28c.8,4.8-.7,9.7-1,14-.3,4.6,0,9.4,0,14Z"/>
    <rect class="st0" x="804" y="130" width="28" height="29"/>
    <rect class="st0" x="739" y="98" width="61" height="29"/>
    <polygon class="st0" points="899 767 927 767 927 706 900 706 899 767"/>
    <path class="st0" d="M257,97h-1c-19.9,2.2-40,.5-60,1v29h61v-30Z"/>
    <rect class="st0" x="580" y="578" width="60" height="29"/>
    <polygon class="st0" points="572 577 568 577 323 577 323 578 577 577 572 577"/>
    <polygon class="st0" points="323 670 322 672 323 672 323 670"/>
    <rect class="st0" x="836" y="802" width="28" height="29"/>
    <path class="st0" d="M675,671c2.6-1,5.3.8,7,1,2.3.3,5.6,0,8,0,3.9,0,9.5-2,14-1v-29h-29v29Z"/>
    <rect class="st0" x="612" y="738" width="61" height="29"/>
    <polygon class="st0" points="611 864 610 864 610 865 611 864"/>
    <path class="st0" d="M674,192v-30c-1.8-1.9-25.4-1-30-1l29,1v30h1Z"/>
    <path class="st0" d="M705,288v-31h-30l29,1v30h1Z"/>
    <path class="st0" d="M642,224v24c2.9-.7,3.2,2.5,0,2v5c3-.6,2,1.5,2,3.4.2,5.6.2,11.5,0,17.1,0,2,1,4.1-2,3.5v8c9.8,1,21-.7,31,0v-93h-31c0,10,.2,20,0,30Z"/>
    <polygon class="st0" points="129 257 129 258 162 257 131 257 129 257"/>
    <path class="st0" d="M642,864c-10,0-20,.2-30,0l29,1v32l1-33Z"/>
    <path class="st0" d="M279.1,545h-19.1c6.3.1,12.7,0,19.1,0Z"/>
    <path class="st0" d="M288,545c-3,0-5.9,0-8.9,0h8.9Z"/>
    <polygon class="st0" points="290 481 291 481 290 480 290 481"/>
    <path class="st0" d="M290,152c.3,1.8,1.9,4.3,1,7h30v-29h-31c.7,6.9-1,15.4,0,22Z"/>
    <path class="st0" d="M288,161l-28,1v29h29c.5-9.9-.7-20.1,0-30h-1Z"/>
    <rect class="st0" x="228" y="194" width="29" height="61"/>
    <polygon class="st0" points="352 511 353 480.7 355.5 479 385 479 385 417 291 417 291 479 322 481 325.5 511 352 511"/>
    <polygon class="st0" points="288 322 261.5 322 260 321 260 414 288 414 288 322"/>
    <polygon class="st0" points="356 513 356 542 415 542 416 539.5 416 515.5 414.5 514 357.5 514 356 513"/>
    <path class="st0" d="M320,512c-9.6,2.8-19.8-1.2-29,2.5v28.5h30c-.9-10.3.8-20.8,1-31-.6,0-1.5-.2-2,0Z"/>
    <rect class="st0" x="516" y="322" width="60" height="93"/>
    <rect class="st0" x="675" y="290" width="29" height="29"/>
  </g>
</svg>