<?xml version="1.0" encoding="UTF-8"?>
<svg id="_레이어_1" xmlns="http://www.w3.org/2000/svg" version="1.1" viewBox="0 0 1024 1024">
  <!-- Generator: Adobe Illustrator 30.1.0, SVG Export Plug-In . SVG Version: 2.1.1 Build 136)  -->
  <defs>
    <style>
      .st0 {
        fill: #014a4a;
      }

      .st1 {
        fill: #4cdfd2;
      }

      .st2 {
        fill: #c0fff3;
      }

      .st3 {
        fill: #29aba6;
      }
    </style>
  </defs>
  <g>
    <path class="st1" d="M769.9,513l1.5,1h26.6l1,10v-11h-29.1Z"/>
    <polygon class="st1" points="799 545 799 544 798 545 799 545"/>
    <polygon class="st1" points="129 321 128 321 128 350.5 129 352 129 321"/>
    <path class="st1" d="M545,834h29l1-1c-9.8.6-20.4-1.3-30,1Z"/>
    <path class="st1" d="M611.5,195c-1.2,0-3.7-.8-3.5,1h63c0-.1.6-.3.7-.6l-.7-.4c-10.7,0-21.3,0-32,0s-18.4-.4-27.5,0Z"/>
    <path class="st1" d="M769,195v31h-34v32h33s0,0,0-.2c0,0,0,.1,0,.2.2.4,1,.7,1,1v30h62v-1h-32v-9c0-6.1-.8-14.3,0-20,0-.3.8-.6,1-1h31v-9c.2-7,.5-14.6,1-22l-1-1h2c5.6,0,11.5,0,17.5,0,3.8,0,7.7.1,11.5,0,.4,0,.7,0,1.1,0v-31h-94ZM768.1,257c0-.4,0-.9-.7-1h-31.4c0-.1,31.4-.1,31.4-.1.6.2.7.6.7,1.1Z"/>
    <path class="st1" d="M512,770c-1.2,7.1.5,24.9,0,31,0,.3-.6,1-1,1h-8c-.2,0-1.1,1-2.4,1-7.2.4-14.5-.3-21.6,0v-32h-93v30l18,1h0c0,0,9,0,9,0l.5-2c1,0,.3,1.3.5,2,0,0,0,0,0,0h-28.9v1h29v29.8s0,0,0,0l-28,1h29c1-1.6,3.8-1,5.5-1,17.2-.2,39.4-1.5,56.1,0,2,.2,2.1.6,3.4,1.1.8.3,1.3.2,2,1,.9,1,.9.9,1.1,2.4.5,4.3-1,27.6,0,28.6h60v-63h1v-10.5c.2-7.2,1-16.4,0-23.5l-32,1Z"/>
    <path class="st1" d="M483,928c6.2.3,12.4-.3,18.6,0,1.3,0,2.3,1,2.4,1h5l2-1v1h1v-35c9.3-.9,21.3,1.7,30-1v-26h-59v61ZM520,891h6.4l.6,2h-7v-2ZM512.5,892l.5,1h-1l.5-1Z"/>
    <path class="st1" d="M225.9,450h-33c.7,8.9-.7,18.8,0,27.6.2,2,.2,2.4,2.1,3.4h29l.5-1,.5,1h2v-31h-1.1Z"/>
    <path class="st1" d="M353,802h2v-2h-2v2Z"/>
    <path class="st1" d="M633,802c1.8,0,3.6.2,5.4,0l.6-.9c-1.9,0-4.9-.8-6,1Z"/>
    <path class="st1" d="M384,801c-8.5.6-17.9-1.3-26,1,9,.3,18,0,27,0v-1h-1Z"/>
    <path class="st1" d="M513,449.1h63v.9l-1,62h-30v31c8.8.3,17.7-.3,26.5,0,2,0,4.1-1,3.5,2h2l30,1v-33.8l33,63.8v1c11-1.1,22-1,33-1h30c1.1,1.1-.6,25.5,0,30l65,1,1,1.4v8.6c.6,7.7-.5,16.2,0,24h29v-95h-29v-2c-.5-10.1,0-20.8,0-31v-32h-34v-32h-33c14.8-.6,7.4-.5,0-.3v-.7c0-5.2,1.1-29.9,0-31h30v-31.4h-30.1v-.4l-1-31h-93c0-.3,0-.6.1-.8,0,.1,0,.3,0,.6h93l1,31v-32h-31c1.2-1.9.6-4,.9-5.8.3-1.6,1.6-3.3,1.1-5.5-.3-1.1-1.6-.3-2.1-.5-1.4-.6-.9-1.2-1-2.4-.9-7.3,0-18.3,0-26.1s-.7-4.5,1-5.5v-16h-63c0-.3,0-.6.1-.8,0,.1,0,.3,0,.6h63l-1.5-1h-30.5s0,0,0,0v-30.8c-6.8,0-13.7,0-20.5,0h-12.9c-31.1,0-62.3,0-93.5,0,0-.4,0-.6.2-.8,0,.2-.1.3,0,.6,31.1,0,62.3,0,93.5,0h12.9c6.8-.1,13.7,0,20.5,0v-1.8c-1.7-5.4-1.7-13.6,0-19v-2l-1-9c-1-1-23.4.5-27.6,0-1.4-.2-1.4-.1-2.4-1.1s-.8-1-1-2.4c-1-8.5.8-18.8,0-27.6h-95c0-.1,0-.2,0-.3,0,0,0,.1,0,.2h95l-1.5-1h-30.5c1-10.7-.3-21.1,0-31.9-39,.2-78,0-117,0,0-.1,0-.2,0-.3,0,0,0,.1,0,.2,39-.1,78,.2,117,0h1c20.3-.1,40.9.6,61-1h-62v-2h-63v-31h-1v1.2h-188.1l-1,31.8h-62.9c1,1.6,3.8,1,5.5,1,49.6.5,99.3-.4,149,0,.2-.2.3-.3.4-.4,0,.2-.2.4-.5.6-49.6-.4-99.3.5-149,0-1.7,0-4.5.7-5.5-1-8.9,0-18-.1-27,0-1.9,0-4.9-.7-6,1h32l1,1.4v30.4h-31.9c1.1,1.6,3.8,1,5.5,1,92.5,1,185.2-.7,277.7,0l.7.2c-92.8-.8-185.7,1-278.5,0-1.7,0-4.5.7-5.5-1h-1c-9.5,0-19-.1-28.5,0-1.7,0-4.5-.7-5.5,1h33.1v28.8h-32c-.6-5.4,1.3-12.1-1-17v49.2c0,0,0,1,0,1,0,0,0,0,0,0v.8l287.3-.5c10.5,0,21.1.1,31.6.2l-319,.5v15c2.2,4.2.4,10.2,1,15,.3.4.7.6,1,.9l-.9.9h64.9c0,0,0,.1,0,.2h-65v1c-.7,9.4,1.4,19.9-1,29v1c2.7.3,10.4.2,19.7,0l46.9.7c.1,0,.3.1.3.2s0,0,0,.1v29.7h1c6.4-.4,13.5,0,20,0h10c9.6,0,19.4-.4,29,0h1.6c.1,0,.2.1.3.2,1,1,.9,1,1,2.4,1,9.5-.8,20.6,0,30.4h-63.9v-1c-.3-6.3.4-12.7,0-19,0-3.6.1-7.4,0-11v-2c-43.3.2-86.7-.2-130,0h-29l-1,64h255c0-9.8.8-21.5,0-31h0v-.8c0-.1-1.2-.2-1-1l32,1c.3,0,.8,1,1,1h1c41.6.9,83.4,0,125,0h0v30.5M543,417v31M257,363.6c-.3-3.1.2-6.5,0-9.6.3,3.2-.3,6.5,0,9.6ZM331.5,353c-1.1,0-3.4-.6-3.5.7,0-1.4,2.4-.7,3.5-.7ZM328,354c27.5-.3,55.1.3,82.6,0-27.6.3-55.1-.2-82.6,0ZM482,352l-1,1c-.8,1.3-2.2,1-3.4,1.1-19,1.5-40-1.3-59.2,0-1.4.2-1.6-.4-2.4-1.1h-1c-.3,0-1,.2-1.8.5.8-.2,1.4-.5,1.8-.5v-2c0-13.3,0-26.7,0-40v-22h66l1,1v62ZM193,227.1h0c1.1-1.2,26,.5,30.6-.1.7,0,1.8.2,2.2-.4-.3.8-1.4.5-2.3.6-4.5.6-28.6-1-30.5,0Z"/>
    <path class="st1" d="M671,696c-.2-14,.9-29.2,0-43,0-.1-.9-1.1-1-2.4-.3-3.1.2-6.5,0-9.6h-31v64h-32v38c1.8,7.8,1,16.9,1,25h30c1-1-1.5-18.2,1-21v-41l1.5-1h31.5c-1.5-2.9-1-5.9-1-9Z"/>
    <path class="st1" d="M438,545l-.5,7-.5-7h-20v30l63,1v30c-9.5,1.2-21.2-.9-31,0v1h31v.5h32v-31.5h-31c0-.6,1-2.5,1-4.4.2-8.9-.2-17.8,0-26.6h-44Z"/>
    <path class="st1" d="M603,778h3v-7h-30c1.5,7.8-1.5,13.9-1,21.5.2,3.9,2.5,4.7,0,9.5h31l1-2v-21h-4v-1Z"/>
    <path class="st1" d="M415,513l-1.5-1h-27.5v31h28v-24.5c0-1.7-.7-4.5,1-5.5Z"/>
    <path class="st1" d="M608,800v2h8l-.6-2h-7.4Z"/>
    <path class="st1" d="M618,802h9l-.5-2-8.5,2Z"/>
    <path class="st1" d="M578,606c5.1.8,26.5-1.5,29,1s.8,1,1,2.4c1,8.9,0,21.2,0,30.6h62v-31h-29.4c-1.2-.2-.4-1.6-.6-2-.2-.3-1-.7-1-1l-1-29c-1.1-1-26.5,1.6-30-1l-1-1c-2.2-3.9-1.2-18.1,0-23v-1c-1.5-.3-1.6-3.6,0-4v-1h-29v60Z"/>
    <path class="st1" d="M674,577h-1v30c6.5.2,13,0,19.5,0,3.3,0,7,2.6,9.5-1h-28v-29Z"/>
  </g>
  <g>
    <path class="st0" d="M575,833l-1,1h-30c0,9.9-1,19.8-1,30v2c0,8.7,1,17.9,1,27,0,10-.8,20-1,30,1.3.2,1.8,0,2-.5-.2.5-.7.8-2,.5,0,1.9.3,3.9,0,5.8-1.5.7-3.3,1.2-4.9,1.2-8.5-.5-17.2-.8-26-1h-30v-94c-.7-.8-1.2-.7-2-1-21.6,0-43.4,0-65,0h-29c0,0-1-1.6-1-1.6l-1-25.5v-3.9h1v-1c-9,0-18,.3-27,0-1,0-2,0-3,0h-2v-2c-.2-2.5,0-5.5,0-8,.1-7.4,1.3-14.6,1-22h126v31c7.1,2.3,15.6.4,23,1h3c1.6,0,3.3,0,5,0,.3-.2.8-.7,1-1v-31h1l6.3-.2c7.5,0,15.4,1,22.3.2,1.4,0,1.4,0,2.4-1v-86c-.4,0-.7,0-1,0,.3,0,.6,0,1,0v-11h-31c0-.2-1-1.1-1-2-.2-20.6.2-41.3,0-62-1-1-1-.9-2.4-1-8.8-1-20.4,0-29.6,0h-31c-5.7,0-11.4,0-17.1,0,5.7,0,11.4,0,17.1,0v-30c-4.6.1-32.4.6-33.9-1.1-.2-10.3-.1-20.6-.1-30.9h-30v31h29c0,1.3,1.7,4,1.2,6.4,0,.2-.2.4-.2.6-.8,7.5.6,16.3,0,24h-31c3,10.9-1.6,22,1,33,2.6-1,5.6.9,7,1,4.2.4,9.6,0,14,0l.5-1,1.5,1h6v-1h1v-32h66v64h30c-1.8,31.7,1.3,65.1,0,97h-30c-.9-9.4,1.2-20.9,0-30l-116-1c36.5,0,73,.4,109.5,0,1.7,0,4.4.7,5.4-.9l-3.3-1.1c-38.5,1.9-79-2.3-117.2,0-1.9,0-2.7.4-4.4,1h0c-.5.2-1.8-.6-2,.6-.7,9.2,1.1,20,0,29,0,1.4,0,1.4-1,2.4h0c0,0-30,0-30,0v33c9.2.3,18.4-.3,27.6,0,1.8,0,3.2,1.1,3.4,1.1.4,8.9-.5,18.1,0,27v3.9c9.5.3,19.1-.3,28.6,0,1.8,0,3.2,1.1,3.4,1.1v29.5l1,1.5h62l1,1v61h-34v32h129v-31h32v-95h64v-32c-21.5.6-43.3,1-65,1v30ZM531.6,687.9c-2.7,0-5.5.6-7.6,1.1,2.1-.6,4.9-1.1,7.6-1.1ZM543.1,674.8c0-.6,0-1.2-.1-1.8.1.6.2,1.2.1,1.8ZM355,738h5c-1.2,1.8-4.2.8-6,1l1-1ZM544.8,850.8c0,15.8.5,31.7.6,47.6,0-15.8-.5-31.7-.6-47.6Z"/>
    <path class="st0" d="M289.9,576.1v5.6c-1.6,29.5,1.5,60.7,0,90.3h29.6c.1,0,.2,0,.3,0,.8.3,1.3.2,2,1,0,0,0,0,0,.1v30.8h.1c.2-.1.3-.3.5-.4-.2.2-.3.4-.6.5h62l-1-31c-17.7-1.1-37.1,1.3-54.6,0-2-.2-2.5-.9-3.4-1.1-.9-.2-2.3.3-3-1v-47c0-15.7,0-31.4,0-47v-1h0c-10.6,0-21.4,0-32,0Z"/>
    <path class="st0" d="M800,481h0s0,0,0-.1h0Z"/>
    <path class="st0" d="M901,224.9h0c.1.1.3.1.4.1-.1,0-.3,0-.4-.1Z"/>
    <path class="st0" d="M901.4,224.9c7.7,2.1,16.6.3,24.6.9h0c-8.1-.5-17.2,1.4-25-.9h-5v-29.6l-1-1.4h-31c1,1.6,3.8,1,5.5,1-1.7,0-4.5.7-5.5-1h-1v-1c-41.2.4-82.4-.4-123.6,0,41.2-.5,82.4.4,123.6,0v-1s0-.1-.2-.2c-.2-.3-.7-.9-.8-1.7.1.8.6,1.4.8,1.7,0,.1.2.2.2.2v-31h-128v26c-.2,2.2.2,4.7,0,7-21,.2-42-.3-63,0v-33c-10.2.8-21.9-1.1-32,0-.3,0-.7-.1-1,0-.3,0-.8,1-1,1,2.3,10.6.4,22.2,1,33,10.7,0,21.3,0,32,0l.7.4c-.1.4-.7.6-.7.6-.2,2.1-.6,5.8,1,7-.6,3.6-2.8,11.9.9,13.4-2.1,2.8.4,6-.9,8.6,0,0-1.2-.1-1,1h31c0,7.3-.2,14.7,0,22h0c0,3.3.5,6.7,0,9.9,9.8.4,19.8-.3,29.6,0,1.8.1,3.2,1.1,3.4,1.1v63h34v-63c0-.3-.8-.6-1-1h-33v-32h34v-3.1c-.9,2-1.4,1.9-3.4,2.1-9.4.8-20-.6-29.6,0h-1v-22h0v-7h0v-1h33v12l-8,1h8l1,5v-18h94v31h1c10.3-.3,20.7.2,31,0-.6,10.8,2,21.3,0,32h-95c-.2.4-1,.7-1,1h33v27.9l-1,1v1.3h-32.1v32.8h-29.9v6.2c0,0,0,4,0,4h0v.8l.8-.4h.2c0,0-1,.6-1,.6v2s0,0,0,.1v17.7l5.7-.4h1.2c0,.1-7,.6-7,.6v95c-11.3-.9-23.1.8-34,1v32h34v-1h-33v-31c9.8.8,21-1,30.6,0,1.4,0,1.4,0,2.4,1s0,0,0,.1v62.7h.9c0,0,0,.1,0,.2h29v32c.2,31.9,0,63.9,0,95.8h-63.9v62.2c0,0,0,1.7,0,1.7h-32.9c.8,1.7,0,3.3,0,5l2,2h0c0,0-2-1.9-2-1.9-.2,4,0,8,0,11.9,0,5-.7,10.4,1,15l-31,1c.9,4.7-.8,9.7-1,14h2c0,0-2,0-2,0-.3,6,.2,11.9,0,17.9,0,0,0,0,0,0-10.6.3-21.4-.2-32,0,.2,0,1.6,1.1,3.4,1.1,9.5.3,19.1-.3,28.6,0,0,1.2,0,2.5,0,3.7,0-1.2,0-2.4,0-3.6-9.5-.3-19.1.3-28.6,0-1.8,0-3.2-1.1-3.4-1.1h0c-10.3-.1-20.7.3-31,0h-1v1h32c-.9,9,1.2,20.2,0,28.9,0,0,0,0,0,0v1l-.6.9c-1.8.3-3.6,0-5.4,0h-89v1h31c21.7,0,43.5-.4,65-1,9.5-.3,20.2.8,29.5,0,1.1,0,2.4.5,2.5-.9,0,0,0,0,0,0v-1c-.9-4.1-1.1-8.3-1.1-12.6,0,4.2.2,8.4,1.1,12.5v-30h31v-32h32v-32.8h31.4l1.5-1-1-33h.1l1,32.8v-32h64v-191h-31.9c.6,1,1.4.9,2.3,1,8.8,1,19.5-.8,28.6,0v189h0v-188.8c-9.1-.9-19.8,1-28.6,0-1-.1-1.9-.1-2.4-1.1l-1-1c-1.7-2.9-1.7-9.3,0-12v-2c-1.5-.9-1.6-4.6-.2-5.8-1.2,1.3-1.1,4.8.3,5.7v-6s0,0,0,0v-2c-1.6-1-1-3.8-1-5.5-.2-28.9-2.5-66.1,0-94.1.2-2,.6-2.1,1.1-3.4.3-.8.2-1.3,1-2,0,0,0,0,.1,0h31.9v-64h95v-64h-25.6ZM736.1,178.9c0,1.9,0,3.8-.2,5.6.1-1.9.2-3.7.2-5.6ZM861.9,179.2c0,1.2,0,2.3,0,3.5,0-1.2,0-2.3,0-3.5ZM862,175.7c0-2.3,0-4.6,0-6.9,0,2.3,0,4.6,0,6.9ZM736,161.9c0,1.9-.1,3.7,0,5.6,0-1.9,0-3.8,0-5.6ZM702,738.9h-29c0,0,29,0,29,0h0ZM734,705.9h-30c0,0,30,0,30,0h0ZM736,642.1v-.2s62.9-1,62.9-1c0,0,0,.1,0,.2l-62.9,1ZM769.9,323.1v-.2h30.5l.4.2h-30.9Z"/>
    <path class="st0" d="M480,737s0,0,0,0h0s0,0,0,0Z"/>
    <path class="st0" d="M328.4,673c17.5,1.4,36.9-1.1,54.6,0l1,31v-63h0c0,0-31,0-31,0v7c0-.9,1.3-2.8,1.3-4.6,0,1.9-1.2,3.8-1.3,4.7-.7,7.3.5,15.6,0,23,1.6-.7,3.5.5,4.5.9h-32.5c1,.3,1.4.9,3.4,1.1ZM383,641.9h0c0,0-29,0-29,0,0,0,0,0,0,0h29Z"/>
    <path class="st0" d="M639,161v-1c0-1.3.2-2.7,0-4,0-.2-1-1.1-1-2.4,0,1.3,1,2.1,1,2.4l1-27h-64v-33h-285.4c-1.1,0-.6,1.3-.6,2h0c-1.1,8.7,0,21.7,0,30.9h-6.2c-17.6-.2-41-1.8-56.5.1-.9,0-2.3-.4-2.4,1h0c-.8,9.1,1,19.6,0,28.5-.2,1.4.2,1-1.1,2.4,0,0-.1.1-.2.2h-31.7s0,0,0,0l-1,1.4v31.6h-30c-1,8,1.8,60.2-1,63h-33v64h-30.1v30.5l-1.5,1.5h-30.5v64h32v32h64v30.5l1,1.5c.2-.3.5-.5.8-.7-.3.2-.6.4-.7.7h27.9c0,0,1.1,1.1,1.1,2.4.3,9.5-.3,19.1,0,28.6h2c20.4,1,42.4,0,63,0h2v30.5l1,1.5h63v1c1.2,8.5,0,21.9,0,31h1c7,0,14,0,21,0,2,0,4.1.2,6,0h2c1.3-.1.9-1.4,1-2.4.8-6.8.6-20.7,0-27.6v-1c1-1.6,3.8-1,5.5-1,8.8,0,17.7,0,26.5,0v-31h-126v-1c-1.5-9.8.8-20,0-30v-1c-10.6,0-21.4,0-32,0h-34c.2,0,1.4,1.5,2.4,1h61.6c0,0-61.6,0-61.6,0-1,.4-2.3-1.1-2.4-1.1-.3,0-.7-1-1-1h0c-.1,0-.3,0-.4,0,.2,0,.4,0,.5,0v-30s0,0-.2,0c0,0,.1,0,.2,0,.4-.2.7-1,1-1h1c4.4-.4,9.5,0,14,0h18c42.3-.2,84.7,0,127,0,0-.3,1-.7,1-1,1.1-8.5-1-21.8-1-31H98l1-64h29c-1.1-1.6-3.8-1-5.5-1,1.7,0,4.5-.7,5.5,1,43.3-.2,86.7.2,130,0l-129-1-1-1.5v-29.5h31.6l1.4-1v-62h31v-51c1.6-1.6,1.6-4.3,0-6,.2-1.3,0-2.6,0-3.9,0,0,0,0,0,0v-1c1.1-1.6,3.8-1,5.5-1,9.5,0,19,0,28.5,0v-32c1.1-1.7,4.1-1,6-1,0-.4-.1-.7-.1-1,0,.2,0,.5.1.9,9-.1,18.1,0,27,0h31c.1-.7,0-1.2,0-1.5.2.3.2.8,0,1.6h32l1-32h-2v30c-9.1-.8-19.7,1-28.6,0-1.4-.2-1.4,0-2.4-1.1v-30h285c2,6.1-1.5,12.4,1,18v2c-.4,3.6-1,6.9-1,11v2h63c.2,0,.7-1,1-1ZM167.5,480c4.4,0,9.4-.2,14.2-.3-4.8,0-9.8.3-14.2.3s0,0,0,0ZM189.9,450.6c.2-.6.6-.7,1-.7-.4,0-.8,0-.9.7.2,9.8-.2,19.6,0,29.4,0,0,0,0,0,0,0,0,0,0,0,0,0-9.8.2-19.6,0-29.4ZM190.1,242.9c0-9.4-.3-18.9-.3-28.3,0,9.4.3,18.9.3,28.3Z"/>
    <path class="st0" d="M798,452.5c0,1.7-.7,4.5,1,5.5h0v-103c-.5,1.3-.9,1.4-1.1,3.4-2.5,28-.3,65.2,0,94.1Z"/>
    <path class="st0" d="M192.1,450h-.1s0,0,.1,0Z"/>
    <path class="st0" d="M799,480v-12c-1.7,2.7-1.7,9.1,0,12Z"/>
    <path class="st0" d="M385,416v-30c-.2,0-.7-1-1-1-10.3-.3-20.7.2-31,0v1c.8,9.5,0,21.2,0,31h32c.1-.2,0-.7,0-1Z"/>
    <path class="st0" d="M576,545c0,.6-1,1-1,1-.3,2.3.5,12.5,0,13l-13,.5,13,.5v4l-5,.5,5,.5-1,41c-9.2-.9-19.6.6-29,0v-60h30c0,0,1-.4,1-1h-32v62h32v98h32v-65c0-9.4,1-21.7,0-30.6,0-1.4,0-1.4-1-2.4h-30v-62h-1ZM607,608v96h-30v-96h30Z"/>
    <path class="st0" d="M416,353c21.6-.2,43.4.2,65,0l1-1v-62l-1-1-62,1c-.8-.2-1.8-1.2-3-1h-1v22c0,13.3,0,26.7,0,40v2h1ZM416.9,342.7c0,3.1,0,6.2,0,9.3,0-3.1,0-6.2,0-9.3ZM421.4,291h58.6c0,0-58.6,0-58.6,0-.2,0-.4,0-.6,0,.2,0,.4,0,.6,0ZM417.1,323.9c0-3.1,0-6.2-.1-9.4,0-1.1.3-2.3,0-3,.3.7,0,1.9,0,3,.1,3.1.1,6.2.1,9.4Z"/>
    <path class="st0" d="M859.6,227.1c1.3,0,2.3-1.1,2.4-1.1-9.6.4-19.4-.5-29,0h0c-.7,0-1.3,0-2,0l1,1c9.2-.3,18.4.3,27.6,0Z"/>
    <path class="st0" d="M385,801v-30c-2.3,9.6-.4,20.2-1,30h1Z"/>
    <path class="st0" d="M639,606.1c0,.3.8.7,1,1,0,0,0,0,0,0h32c.6,11.1-.5,22-1,33h64v-32h33c-1,3.1.8,6.9,1,9v-8.6l-1-1.4h-64c-.2-.3-1-.7-1-1-.6-4.5,1.1-28.9,0-30h-30c-11,0-22,0-33,1v-.9h-1c.9,9.4-1.2,20.9,0,30ZM670.9,596.5c-.1-2.1-.2-4.5-.2-6.9,0,2.4,0,4.8.2,6.9ZM672.4,605.1s0,0,0,0c0,0,0,0,0,0ZM673,577h29v29c-2.5,3.6-6.2,1-9.5,1-6.5-.2-13,0-19.5,0h0v-3h0v-27Z"/>
    <polygon class="st0" points="258 386 259 386 258 385 258 386"/>
    <path class="st0" d="M320,353h-1l.5,1,.5-1Z"/>
    <polygon class="st0" points="607 512 607 546 607 547 607 551 607 552 607 575 608 576 607 512"/>
  </g>
  <g>
    <path class="st2" d="M799,545h-1c-9.5-1.7-19.3-.8-29-1v2h29v95h1c0-32,.2-64,0-96Z"/>
    <path class="st2" d="M213,449h-5c-4.5,0-9.6-.4-14,0h-.9c-.3,0-.6.8-1,1v30c.3,0,.7,1,1,1h2c-2-.9-1.9-1.4-2.1-3.4-.8-8.8.6-18.7,0-27.6h33v-1h-13Z"/>
    <path class="st2" d="M543,449.1v-32.1h-32v-30h.1v-1c-41.6,0-84.4.9-126,0-1.2,8.3,0,22,0,30s2.3,1,0,1h-5.9c-9.2,0-16.9-.7-26.1,0l1,31h-.1l-1,1h-2.8c-41.2,0-83-.2-124.2,0l1,32c10.6,0,20.8,0,32,0v1l.2,4.9c0,8.4-1.4,16.9-.2,25.1v1h126v32h29v-2h-28v-31h27.5l1.5,1c0,10.7-.1,21.7,0,32,0,10.3-.1,20.6,0,30.9,1.5,1.7,29.3,1.1,33.9,1.1,6.5-.1,13.4-.9,20.3-1.2l-52.3-.8v-30h65c-.2,8.9,0,17.8,0,26.6,0,1.9-1,3.7-1,4.4-.1,9.9,1,19.5,1,29.4,0,1.1-1.3.6-2,.6v1c9.2,0,20.8-.9,29.6,0,1.4,0,1.4,0,2.4,1,2.8,2.8-2,56-1,64h33.1v66l-.2,31c-1,1-1,.8-2.4,1-8.9,1-19.5-.8-28.6,0h-1v31c3-5.4-.2-22.9,1-30h30c1,7.2,1.2,14.3,1,21.5v9.5h31c1.5-3.5,2-2,2-9.6s-.2-13.2-1-21.4h30v7h-2.9v1h4v-74h-31v-98h-32v-62h31c.5-3-1.6-2-3.5-2-8.8-.3-17.7.3-26.5,0v-7.1c0,2.3-1,4.8-1,7h-31l-.5,17c-.7,0-.6-10.3-.5-15v-.9s0,0,0,0c0-.5,0-.9,0-1.1v-31.9h0v-1.1c0-9.6-.4-19.3.5-28.9h0l-.5,28.9,31-14.8h0s-31,14.8-31,14.8v1.1s32,0,32,0c-.2,7.5.9,14.2,1,21.5v-20.5h30l1-62.9h-33ZM458.1,448h-.1l-.4-7.2v-.8s.5,8,.5,8ZM415.1,448h-.1l-.4-11.7v-1.3s.5,13,.5,13ZM383.7,480.1c10.1,0,20.2,0,30.3,0-10.1,0-20.2,0-30.3,0ZM544,494.7l28.7-13.7h0l-28.7,13.7h0ZM575,479.9l-1,.5h0s1-.5,1-.5h0ZM415.1,387v29h-.1v-29h.1ZM322.9,479.9c-10.1,0-20.3,0-30.4,0,10.1,0,20.3,0,30.4,0ZM513,604.9h-29v-30h29v30Z"/>
    <rect class="st2" x="512" y="509.9" width="0" height="0" transform="translate(-169.6 270) rotate(-25.5)"/>
    <path class="st2" d="M545,532.5v3.4c0-1.1,0-2.3,0-3.4Z"/>
    <path class="st2" d="M469.3,575.8l10.7.2c-3.5-.3-7.1-.3-10.7-.2Z"/>
    <path class="st2" d="M511,129h-188v1h188v-1Z"/>
    <path class="st2" d="M482,835s0,0,0,.1h0c0-.1,0-.1,0-.1Z"/>
    <path class="st2" d="M483.1,866c-1.1-1,.5-24.3,0-28.6-.2-1.4-.2-1.4-1-2.3v93.9h22c0,0-1.1-1-2.4-1-6.2-.3-12.4.2-18.6,0v-61h59v26c.5-.2,1.4,0,2,0,0-9.2-1-18.3-1-27h-60Z"/>
    <path class="st2" d="M480,834.1h0c0,0-.2,0-.2,0,0,0,.2,0,.2,0Z"/>
    <path class="st2" d="M420.5,833c-1.7,0-4.5-.7-5.5,1,21.5,0,43.2,0,64.8,0-1.1-.5-1.3-.8-3.2-1-16.7-1.5-38.9-.2-56.1,0Z"/>
    <path class="st2" d="M511,929v-1l-2,1h2Z"/>
    <path class="st2" d="M386,771h93v32c7.2-.3,14.5.4,21.6,0,1.3,0,2.2-1,2.4-1-7.4-.6-15.9,1.3-23-1v-31h-95v32h19l-18-1v-30Z"/>
    <polygon class="st2" points="224 481 225 481 224.5 480 224 481"/>
    <path class="st2" d="M610.4,227c4.2.5,26.6-1,27.6,0l1,9v-10h-30.9c.9,1,1,.8,2.3,1Z"/>
    <path class="st2" d="M608,225.9h0c0,.1,0,.1,0,.1,0,0,0,0,0-.1Z"/>
    <path class="st2" d="M670,338.6c0,1.2-.4,1.7,1,2.4v-34c-1.6,1-1,3.8-1,5.5,0,7.8-.8,18.8,0,26.1Z"/>
    <path class="st2" d="M639,257v-19c-1.7,5.4-1.7,13.6,0,19Z"/>
    <path class="st2" d="M672,607h-32c.2.4-.6,1.8.6,2h29.4v31h-62v65h31v-64h31c.3,3.2-.3,6.5,0,9.6,0,1.3,1,2.3,1,2.4.2-4.3-.2-8.7,0-13,.5-11,1.6-21.9,1-33Z"/>
    <path class="st2" d="M638,768h-30v2c10.3.2,20.7-.2,31,0v-23c-2.5,2.8,0,20-1,21Z"/>
    <path class="st2" d="M799,288v-9l-1,9h-28l-1-11v12h30v-1Z"/>
    <path class="st2" d="M416,289h.6c-.2,0-.4,0-.6,0Z"/>
    <path class="st2" d="M416.6,289c.9.1,1.7.8,2.4,1l62-1h-64.4Z"/>
    <path class="st2" d="M416,353c.8.8,1,1.4,2.4,1.1,19.2-1.3,40.2,1.5,59.2,0,1.3,0,2.6.2,3.4-1.1-21.6.2-43.4-.2-65,0Z"/>
    <path class="st2" d="M353,385c10.3.2,20.7-.3,31,0l-32-1c-.2.8,1,1,1,1Z"/>
    <path class="st2" d="M543,830.6v-27.6c0,9.2,0,18.4,0,27.6Z"/>
    <path class="st2" d="M543,864c0-10.2,1-20.1,1-30h0c0-.2-1.1-1.6-1.1-3.4v33.4Z"/>
    <polygon class="st2" points="607 802 607 800 606 802 607 802"/>
    <path class="st2" d="M769,259v16c1.8-4.3,1.5-11.5,0-16Z"/>
    <path class="st2" d="M413.5,800l-.5,2h1c-.2-.7.5-2-.5-2Z"/>
    <path class="st2" d="M520,891v2h7l-.6-2h-6.4Z"/>
    <path class="st2" d="M512,893h1l-.5-1-.5,1Z"/>
    <path class="st2" d="M578,606v-60h29v-34l-1,33h-29v62h30c-2.5-2.5-23.9-.2-29-1Z"/>
    <path class="st2" d="M704,607h64l-65-1c0,.3.8.7,1,1Z"/>
    <path class="st2" d="M638,577l.7,19.3c.2-6.8.9-14.1.3-20.3h-31c3.5,2.6,28.9,0,30,1Z"/>
    <path class="st2" d="M639,606l-.3-9.7c0,3.4,0,6.6.3,9.7Z"/>
    <path class="st2" d="M607,575v-23c-1.2,4.9-2.2,19.1,0,23Z"/>
    <path class="st2" d="M607,547c-1.6.4-1.5,3.7,0,4v-4Z"/>
  </g>
  <g>
    <path class="st3" d="M353,671c.5-7.4-.7-15.7,0-23v-7h39c-1.4,0-4.4-2-7-1-2.6-11,2-22.1-1-33h31c.6-7.7-.8-16.5,0-24,1-2.5-.9-5.6-1-7h-29v-32c-8.8,0-17.7,0-26.5,0-1.7,0-4.5-.7-5.5,1v1c.5,7,.8,20.8,0,27.6,0,.9.3,2.3-1,2.4h-2c-1.9.2-4,0-6,0-7,0-14,0-21,0h-1v1c.1,31.3,0,62.7,0,94,.7,1.3,2.1.8,3,1h33c-.9,0-3.1-1.8-5-1Z"/>
    <path class="st3" d="M480,737c-1,1.6-3.8,1-5.5,1-36.5.4-73,0-109.5,0l116,1c0-.8,0-1.6-1-2Z"/>
    <path class="st3" d="M408,641l-1.5-1-.5,1h2Z"/>
    <polygon class="st3" points="415 640 414 640 414 641 415 640"/>
    <path class="st3" d="M702,417.1v32c11,0,22.1.2,33,0,.3,0,.7,0,1,0v30.9h33v-30c-1-1-1-.9-2.4-1-9.3-1-20.2.7-29.8,0,10.4-.3,21.5-1.8,32.2-1v-126h-34v-63c-.2,0-1.6-1.1-3.4-1.1-9.8-.3-19.8.3-29.6,0,.5-3.2,0-6.7,0-10-.2-7.3,0-14.7,0-22h-31c-.2-1.1,1-1,1-1,1.3-2.6-1.2-5.8.9-8.6-3.7-1.5-1.5-9.8-.9-13.4-1.6-1.2-1.2-4.9-1-7h-63c-.2-1.8,2.3-1,3.5-1,9.1-.4,18.4,0,27.5,0-.6-10.8,1.3-22.4-1-33h-1c-20.1,1.6-40.7.9-61,1h-1c-.3,10.8,1,21.3,0,32h30.5l1.5,1c.8,8.8-1,19,0,27.6,0,1.4,0,1.4,1,2.4h31v64h30.5l1.5,1v50c.6.2,1.8-.6,2.1.5.5,2.3-.9,3.9-1.1,5.5-.3,1.9.4,4.1-1,6h31v57.5c0,1.7.2,4.1,0,6.6M512,416,764.5,353c-7.7.3-15.5.4-23.3.4,7.9,0,15.7,0,23.3-.4Z"/>
    <rect class="st3" x="769" y="289.1" width="30" height="33"/>
    <path class="st3" d="M769,617c-.2-2.1-2-5.9-1-9h-33v32h-64c-.2,4.3.2,8.7,0,13,.9,13.8-.2,29,0,43,0,3.1-.5,6.2,1,9h-31.5l-1.5,1v64c10.6-.2,21.4.3,32,0,.2-6-.3-12,0-18,.2-4.2,1.9-9.3,1-14l31-1c-1.7-4.6-1-11-1-15s-.2-8,0-12c0-1.7.8-3.3,0-5h33v-64h34c-.5-7.8.6-16.3,0-24ZM673,699.5c0-1.1.3-2.3,0-3,.3.7,0,1.9,0,3Z"/>
    <path class="st3" d="M771.5,514l-1.5-1h-.9c0,10.2-.5,20.9,0,31,9.7.2,19.5-.7,29,1l1-1v-20l-1-10h-26.6Z"/>
    <path class="st3" d="M542,893c-8.7,2.7-20.7,0-30,1v35c8.8.2,17.5.5,26,1,1.7,0,3.4-.5,4.9-1.2.4-1.9,0-3.8,0-5.8.2-10,1-20,1-30-.6,0-1.5-.2-2,0Z"/>
    <path class="st3" d="M292.7,163.4c9.9,1.1,21.7-.9,31.8,0v-33.3h2.2v-1.1h-36.7v33.2c1.1,1.2,1.2,1,2.7,1.2Z"/>
    <path class="st3" d="M190.7,200.3c1.6,1.8,1.7,4.6,0,6.4v1.1c2.5,5.2.5,12.4,1.1,18.2h34.2v-31h34.1v-14.4c-.7-1.6-1-3.4-1.1-5.2v-4.9c.1-2.9.4-5.8.1-8.5h-33.2v32.9h-35.2v1.1c-.1,1.4.2,2.9,0,4.3Z"/>
    <path class="st3" d="M354,739c1.8-.2,4.8.8,6-1h-5l-1,1Z"/>
    <path class="st3" d="M895,226c-10.3.2-20.7-.3-31,0h0c0-.1-2-.1-2-.1-.1.1-1.1,1.1-2.4,1.1-9.2.3-18.4-.2-27.6,0-.5,7.4-.8,15-1,22v9h64c2-10.7-.6-21.2,0-32Z"/>
    <path class="st3" d="M799,279v9h32l1-1v-28h-33c-.8,5.7,0,13.9,0,20Z"/>
    <path class="st3" d="M543.9,803h-1c.2,9.2,0,18.4,0,27.6s1.1,3.2,1.1,3.4h1c9.6-2.3,20.2-.4,30-1v-30h-31.1Z"/>
    <path class="st3" d="M576,149v-2c-2.5-5.6,1-11.9-1-18h-63v31h63c0-4.1.6-7.4,1-11Z"/>
    <path class="st3" d="M639,771h-32v31h1v-2h7.4l.6,2h2l8.5-2,.5,2h6c1.1-1.8,4.1-.9,6-1v-1c1.2-8.7-.9-20,0-29Z"/>
    <path class="st3" d="M385,771v-1h-31c.3,7.4-.9,14.6-1,22,0,2.5-.2,5.5,0,8h2v2c1,0,2,0,3,0,8.1-2.3,17.5-.4,26-1,.6-9.8-1.3-20.4,1-30Z"/>
    <path class="st3" d="M384,803v4l1,25.5,1,1.5,28-1v-30h-30Z"/>
    <path class="st3" d="M768,195h-33v1h33v-1Z"/>
    <polygon class="st3" points="438 545 437 545 437.5 552 438 545"/>
    <path class="st3" d="M414,543v2h1v-32c-1.6,1-1,3.8-1,5.5,0,8.2,0,16.3,0,24.5Z"/>
    <polygon class="st3" points="576 771 606 771 575 770 576 771"/>
    <path class="st3" d="M608,768c0-8.1.8-17.2-1-25v27h1v-2Z"/>
    <path class="st3" d="M322,355.4c0-1.4,0-1.4-1-2.4h-1l-.5,1-.5-1c-9.6-.4-19.4,0-29,0h-10c-6.5,0-13.6-.4-20,0h-1c-.2,0-.5.5-.8.8.3-.3.6-.8.8-.8v-30l-67-1v-1c2.4-9.1.3-19.6,1-29v-1l1-1c-.3-.4-.7-.6-1-1-1.9-2.3-1-11.3-1-15v-16h-31v62l-1.4,1h-30.6v31l129,1v2c.1,3.6,0,7.4,0,11,.4,6.3-.3,12.7,0,19l1,1h63c-.8-9.8,1-21,0-30.6ZM191,292c0,0,0-.9-.7-1,.6,0,.7,1,.7,1ZM190,293.4c0-.8,0-1.6,0-2.4,0,.8,0,1.6,0,2.4ZM189.9,305.6c0,1.6,0,3.3,0,4.9,0,1.1-.3,2.3,0,3-.3-.7,0-1.9,0-3,0-1.6-.1-3.3,0-4.9ZM297.5,384.4c1.7-1.5,7.2.6,9,.6-1.9,0-7.2-2-9-.6Z"/>
    <path class="st3" d="M193,289c-.6-4.8,1.2-10.8-1-15,.1,3.7-.9,12.7,1,15Z"/>
    <path class="st3" d="M736,225.1c9.6-.7,20.1.8,29.6,0,2-.2,2.4-.2,3.4-2.1v-10l-1-5h-8l8-1v-10.9h-33v6.9h0v1l.9-.5h0s-1,.5-1,.5v1.9h0v11c.8-1.1,1.3-3.2,1.3-5.4,0,2.2-.4,4.3-1.3,5.5v1.9h0v6h1s0,0,0,0ZM736,224.7c0-.9.1-1.9.1-2.9,0,1-.1,2-.1,2.9Z"/>
    <polygon class="st3" points="640 576 640 512 608 512 607 512 608 576 639 576 640 576"/>
    <path class="st3" d="M607,641v-33h-30v96h30v-63Z"/>
    <path class="st3" d="M544,608c10.1.7,21.4-.9,31.4,0l1.1-44.4v-6.5c.5-.5-.3-11.6,0-14.1h-32.5v-6c.2-8.6-.2-17.4,0-26h-33v33h33v64Z"/>
    <rect class="st3" x="674" y="577" width="28" height="29"/>
    <rect class="st3" x="448.5" y="576" width="32" height="31.5"/>
  </g>
</svg>