<?xml version="1.0" encoding="UTF-8"?>
<svg id="_레이어_1" xmlns="http://www.w3.org/2000/svg" version="1.1" viewBox="0 0 1024 1024">
  <!-- Generator: Adobe Illustrator 30.1.0, SVG Export Plug-In . SVG Version: 2.1.1 Build 136)  -->
  <defs>
    <style>
      .st0 {
        fill: #154448;
      }

      .st1 {
        fill: #42a1a2;
      }

      .st2 {
        fill: #2c8183;
      }

      .st3 {
        fill: #08383c;
      }

      .st4 {
        fill: #73e2db;
      }

      .st5 {
        fill: #0b4e50;
      }

      .st6 {
        fill: #64ccc6;
      }

      .st7 {
        fill: #a1f1ea;
      }

      .st8 {
        fill: #64cbc6;
      }

      .st9 {
        fill: #246669;
      }

      .st10 {
        fill: #0a4d4f;
      }

      .st11 {
        fill: #65ccc7;
      }

      .st12 {
        fill: #041d21;
      }

      .st13 {
        fill: #fefefe;
      }

      .st14 {
        fill: #2d8384;
      }

      .st15 {
        fill: #8ce2d6;
      }
    </style>
  </defs>
  <g>
    <path class="st13" d="M547,834h0c-21.7,0-43.4,0-65,0,.3,20.7-.3,41.4,0,62,0,.7,0,1.3,0,2,9.7,0,20.5-.7,30,0,.3,0,.7,0,1,0,.4,0,.8-.1,1,0,.8.5.8.3,1,1.5,1.1,7.4-1.8,25.1,0,30.5.3,0,.7,0,1,0v-2c0-9.3.2-18.7,0-28,0-.7,0-1.3,0-2,0-.2-1-1.1-1-2-.2-9.3-.5-19.7,0-29,0-.7,0-1.3,0-2h32c1.2-3.5,0-24.3,0-30v-1Z"/>
    <polygon class="st13" points="578 866 578 897 578 898 579 898 579 867 579 866 578 866"/>
  </g>
  <g>
    <path class="st0" d="M642,898c0,10.7,0,21.3,0,32,.5-.2,1.8.6,2-.6v-29.4s28,0,28,0v59H228v-59h29c0-.5.5-.9,1-1v-1h-32v63h448v-63c-10.7,0-21.3,0-32,0Z"/>
    <path class="st0" d="M226,418h32c0-.2,1.3-.2,1-1-10.5-2-21.4-.6-32-1-.1.8-.2.9-1,1-8.8,1.7-22.6-1.2-32,0v1h31c.3.8-1,.9-1,1-1.3,8.1,1,19.5,0,28h-60v-125c8.9,2.2,18.8.4,28,1v-2c-10,0-20,0-30,0v128h64v-31Z"/>
    <path class="st0" d="M865,776c-3-.6-1.9,1.5-2,3.5-.2,6.5.2,13.1,0,19.5h-155.5c-.5,0-2.2,1.5-3.5,1v32c-9.5,0-18.5.7-28,0,0-10.3,0-20.7,0-31h-2c-.8,9.8,1.1,21.1,0,30.6-.2,1.4-.3,1.4-1.1,2.4-.3.4-.6.7-1,1v29h-32v32c.4,0,1.4.8,2,1,0-7.3,0-14.3,0-21.5s-1.7-6.2-1.1-9.5h33v-32h32v-33h159c-.2-8.3,0-16.7,0-25Z"/>
    <path class="st0" d="M226,640h-1l-29-1v-124c8.3-.6,17.4.8,25.6,0,1.3-.1,2.2-1,2.4-1-9.6-2.3-20.2-.4-30-1v128c10.7,0,21.4,0,32,0v-1Z"/>
    <path class="st0" d="M258,421c-.4,20,.3,40,0,60h1c.2,0,.7-1,1-1-.5-18.5.6-37.1,0-55.5,0-1.9,1-4-2-3.5Z"/>
    <polygon class="st0" points="547 834 547 834 547 834 547 834"/>
    <path class="st0" d="M482,896c-.3-20.7.3-41.4,0-62,21.7,0,43.4,0,65,0,0-9.4,1.1-22.8,0-31.5-.1-.8,0-1.5-1-1.5-.6,10.1,1.3,21.1-1,31l-64,.4-1,63.6c.5-.2,1.4.1,2,0Z"/>
    <path class="st0" d="M641,705c-.3,0-.7,0-1,0l.5,1,.5-1Z"/>
  </g>
  <g>
    <path class="st6" d="M418,866v30c6.6-.7,23.6-.8,30,0v-30c-10,0-20,0-30,0Z"/>
    <path class="st6" d="M482,545v32h-33v-32h-31v32h-32v32h-31l-1-32h-33v-32h-31c-.8,3.6,1.1,7.2,1.1,10.5,0,6.5-1.2,13.4-1.1,20.5h0v1c.2,10.6,1.8,21.3,1,32h30v63c.3.3.6.8,1,1,10.6.4,21.4-.5,32,0,.7,0,1.3,0,2,0v31h30c.7-2,0-10.9,0-14-1.5-2.5-1.8-14.2,0-16,1-1,1-.9,2.4-1,14.3-1.6,33.6.2,48.6,0,1.9-1.7,7.1-1.7,9,0,.7,0,1.3,0,2,0,.9-1.1-.5-24.3,0-28.6.2-1.6.6-1.5,1.1-2.4.2-.3.7-.8,1-1,.9-.5.8-.9,2.4-1.1,4.3-.5,27.6,1.1,28.6,0,.4-8.8-.6-17.8,0-26.6.1-1.9-.2-3.8,2.1-4.5,10,0,20,0,30,0h1v-1l-1-63h-31Z"/>
    <path class="st6" d="M610,769c-8.9-1.2-24.2,2.1-32-1-.5-.2-1.8.6-2-.6v-28.4s-60,0-60,0v60h32v33c6.8,1,14-1.1,20.5-1.1,13.7,0,27.7,1.1,41.5,1.1-1.8-17.9-.2-42.4,0-61v-2Z"/>
    <path class="st6" d="M320,290c-2.3,0-4.7,0-7,0h0c-7.6-.2-15.4,0-23,0v31h30v-31Z"/>
    <path class="st6" d="M292,481c.1,0,1.1,1,2.4,1,8.9,0,17.7,0,26.6,0v-32h97v-31h-126v62Z"/>
    <path class="st6" d="M568,417c3.3,0,6.7,0,10,0,0-10.3,0-20.7,0-31v-1h-32v31c7.1.6,15.2-1.3,22,1Z"/>
  </g>
  <g>
    <path class="st11" d="M322,97c1,1.7,3.8,1,5.5,1,8.8,0,17.7,0,26.5,0v-1c-10.6,0-21.3,0-32,0Z"/>
    <path class="st11" d="M771,769c17.2,1.3,35.3.5,53.3,0h-53.3Z"/>
    <path class="st11" d="M824.3,769h39.7c-12.9-.7-26.3-.4-39.7,0Z"/>
    <path class="st11" d="M736,738c-.3,10,.2,20,0,30h-60c-1.2-7.1,2-24.6-1-30h0v31h62l1-30.4c.1-1.1-1.3-.5-2-.6Z"/>
    <path class="st11" d="M642.9,513.6c-2.2-1.5-.3-26.1-.9-30.6h0c-21,0-42,0-63,0-1,5.9,1.8,26.3-1,30-.3.4-.5.9-1,1-3.6,2.6-27.9,0-29,1v92h28v-30c9.1-1.7,19.1-1.1,28.5-1,1.7,0,4.5-.6,5.5,1,1.4.1.9,1.5,1,2.5,1.2,9.6-.8,20.1-1,29.5,10.7,0,21.3,0,32,0v31c1,.8.9.9,2.4,1.1,9.1,1.1,20.3-.9,29.6,0v-64h-2c.6,3-1.5,1.9-3.5,2-7.1.3-15,.2-22.1,0-1.9,0-4,1-3.5-2-.4,0-.8,0-1,0-1.4-.7-.9-1.2-1-2.4-.6-6.5-.6-18.7,0-25.2.2-1.7-.1-1.9,1.1-3.4.3-.3.5-.9,1-1,9.9-2.3,20.9-.4,31-1-.2-10,0-20,0-30-4.3,0-29.6.6-31.1-.4Z"/>
    <path class="st11" d="M482,449v63.5c0,1.1,2.4,1.4,3.5,1.5,8.5,1,18.8-.8,27.5,0h1v-1c0-21.3-.1-42.7,0-64-10.6,0-21.3,0-32,0Z"/>
    <path class="st11" d="M641,668.5c-.1-8.8.1-17.7,0-26.5-1.1-1.1-26.3,1.6-30-1-.4,0-.8,0-1,0-.9-.4-.9-.4-1-1.5-1.3-8.7,1-20.5,0-29.5h-30v61h31.4c1.2.2.4,1.5.6,2,2.3,5.8-.1,29.9,1,31h30v-30c-1.7-1-1-3.8-1-5.5Z"/>
    <path class="st11" d="M321,351.5c0,.1,1.4,1.5,1.5,1.5h29.5v-31h-31v29.5Z"/>
  </g>
  <g>
    <path class="st2" d="M674,193c0-10.7,0-21.4,0-32h-12c-1.3.1-2.7,0-4,0-1.9,0-4.1.1-6,0-.7,0-1.3,0-2,0h-8v-32h-1c-10.3,0-20.7,0-31,0v32h32c0,10.6,0,21.3,0,32h32Z"/>
    <path class="st2" d="M577,65l1,1c-.1-.7-.3-1-1-1Z"/>
    <polygon class="st2" points="259 641 259 641 259 641 259 641"/>
    <path class="st2" d="M291,641c-10.7,0-21.4,0-32,0v64h31c0-.2,1.1-1.5,1.1-3.4,0-20.2-.2-40.4,0-60.6Z"/>
    <path class="st2" d="M706,511c0-1.7,0-3.3,0-5,0-.7,0-1.3,0-2,0-.7,0-1.3,0-2,0-2.6-.2-5.4,0-8v-12c-1.3,0-2.7,0-4,0-1,0-2,0-3,0h0c-8.3-.2-16.7,0-25,0v32c10.5,0,21.7.8,32-1,0-.7,0-1.3,0-2Z"/>
    <path class="st2" d="M898,727c-3,.6-1.9-1.5-2-3.5-.2-5.5.1-11,0-16.5l-62-1h0c-1.8.6-1,6.8-1,9,3-.6,1.9,1.5,2,3.5.2,6.5-.2,13.1,0,19.5,8.2-.2,16.4.2,24.6,0,2,0,4-1,5.5-1h1c1-1.7,3.8-1,5.5-1,6.7,0,13.4,0,20,0,1.7,0,4.5-.6,5.5,1h1c0-3.3,0-6.7,0-10Z"/>
    <path class="st2" d="M448,802h-62v5c0,8,0,16,0,24v2c.4.1.7.9,1,1h62v-2c-2.3-9.6-.4-20.2-1-30Z"/>
    <path class="st2" d="M674,801h-1,0s-31,0-31,0v33h31c.8-1,.9-1,1.1-2.4,1-9.5-.9-20.9,0-30.6Z"/>
    <path class="st2" d="M386,769c-10.6,0-21.3,0-32,0,.7,4.6-1.3,30,.9,31.6,1.5,1.1,26.7.4,31.1.4,0-10.7,0-21.3,0-32Z"/>
    <path class="st2" d="M706,674c0,10.7,0,21.3,0,32v1c0,10.3,0,20.7,0,31,2,0,4,0,6,0-.6-3,1.5-1.9,3.5-2,6.8-.2,13.7.2,20.5,0v-62c-10,0-20,0-30,0Z"/>
    <path class="st2" d="M515,609h-1c0,10.7,0,21.3,0,32h31c0-10.3,0-20.7,0-31-1.1-1.1-26.3,1.6-30-1Z"/>
    <path class="st2" d="M578,417c3-7.6-.2-22.3,1-31h30.5c.1,0,1.5-1.4,1.5-1.5v-127.5c-10.7,0-21.3,0-32,0l-1,129c0,10.3,0,20.7,0,31Z"/>
    <path class="st2" d="M610,577h0s-32,0-32,0c0,10.7,0,21.4,0,32,10.7,0,21.3,0,32,0,.2-9.4,2.2-19.9,1-29.5-.1-1,.3-2.3-1-2.5ZM609,608c-.7.3-1.2-1-1.5-1h-28.5v-28h30v29Z"/>
  </g>
  <g>
    <path class="st4" d="M448,896c-6.4-.8-23.4-.7-30,0h0c-3.2.3-1.6,1.8-2,2v30c-20.7,0-41.4.1-62,0l-2,2c22,.1,44,0,66,0,0-.3,0-.7,0-1,.7-4.7-1.1-29.9,0-31,10.3,0,20.7,0,31,0v-1c-.6,0-.9-1-1-1Z"/>
    <path class="st4" d="M642,898c-10.3,0-20.7,0-31,0-.6,3,1.5,1.9,3.5,2,8.8.3,17.7-.3,26.5,0v28h-94v2c31.7.1,63.3,0,95,0,0-10.7,0-21.3,0-32Z"/>
    <path class="st4" d="M385,898h0c-10.3,0-20.7,0-31,0v2c10.7,0,21.4,0,32,0,0-.7,0-1.3,0-2h-1Z"/>
    <path class="st4" d="M354,129h-64v1h1c18-.1,43.6,2.1,60.5,0,1-.1,2.3.3,2.5-1Z"/>
    <path class="st4" d="M547,834c10.3,0,20.7,0,31,0h33c-.2-.6-1-1.5-1-2-13.8,0-27.8-1.1-41.5-1.1s-13.7,2-20.5,1.1v-33h-32v-60h60v28.4c.2,1.2,1.5.4,2,.6v-30c-.3-.1-.7,0-1,0h-62c0,.3,0,.7,0,1-1,14.4,2.8,49.2-1,60-.2.5.1,1.4,0,2,10.7,0,21.3,0,32,0,1,0,.9.7,1,1.5,1.1,8.8,0,22.2,0,31.5Z"/>
    <path class="st4" d="M259.2,183.1l-.2-22.1c-.6,6.9-.1,14.6.2,22.1Z"/>
    <path class="st4" d="M259.2,183.1l.2,14.6c.3-4.6,0-9.6-.2-14.6Z"/>
    <path class="st4" d="M259.1,201.6c-.2,1.5-1,2.3-1.1,2.4l1,52c.3,0,.7,0,1,0l-.6-58.3c0,1.3-.2,2.6-.3,3.9Z"/>
    <path class="st4" d="M354,673v32c9.6-.9,21.2,1.2,30.5,0,1-.1,1.1,0,1.5-1h-30v-31c-.7,0-1.3,0-2,0h0Z"/>
    <path class="st4" d="M480.9,613.5c-.5,8.8.5,17.8,0,26.6-1,1-24.3-.5-28.6,0-1.6.2-1.5.6-2.4,1.1,8.9-1.2,24.2,2.1,32-1,.5-4.3-1-29.7,1-31-2.3.7-2,2.6-2.1,4.5Z"/>
    <path class="st4" d="M449,642c-.5.9-.9.8-1.1,2.4-.5,4.3.9,27.5,0,28.6,1-1,.9-1,1-2.4.9-8.9-.8-19.5,0-28.6Z"/>
    <path class="st4" d="M386,675v-1c-1.8,1.8-1.5,13.5,0,16,0-5,0-10,0-15Z"/>
    <path class="st4" d="M578,160l-128,1h128c0-.3,0-.7,0-1Z"/>
    <path class="st4" d="M387,193c20.3,0,40.7,0,61,0h1v-31c-2.6,4.8.1,28.9-1,30l-61,1Z"/>
    <path class="st4" d="M546,419c-2.3,9.2-.4,19.5-1,29-1.1,1.1-26.3-1.6-30,1,7.5,0,25.2,1.3,31-1-1-8.9,1.3-20.5,0-29Z"/>
    <path class="st4" d="M575.6,130c1.2-.1,1.8.4,2.4-1h-31c1.3,1.3,1.8.9,3.4,1.1,6.3.5,19,.7,25.2,0Z"/>
    <path class="st4" d="M446,673c-1.9-1.7-7.1-1.7-9,0,3,0,6,.2,9,0Z"/>
    <path class="st4" d="M576,607h-28v2c9.7,0,19.3,0,29,0h1c0-10.6,0-21.4,0-32h32c-1-1.7-3.8-1-5.5-1-9.4,0-19.4-.6-28.5,1v30Z"/>
    <path class="st4" d="M578,672c0,1,.7.9,1.5,1,4.7.6,30.4-1.2,31.5,0-.2-.5.6-1.8-.6-2h-31.4s-1,1-1,1Z"/>
    <polygon class="st4" points="672 577 672 577 672 577 672 577"/>
    <path class="st4" d="M672,577c-8.6,0-20.9,1.1-29,0-.6,3,1.5,1.9,3.5,2,7.1.2,15,.3,22.1,0,1.9,0,4,1,3.5-2Z"/>
  </g>
  <g>
    <path class="st1" d="M259,897h-1v33c.2,0,.6,0,1,0,9.4,1.2,21.3-.9,31,0v-32c-10.1-.6-21.1,1.3-31-1Z"/>
    <path class="st1" d="M833,715s0,0,0,0c0,0,0,0,0,0h0Z"/>
    <path class="st1" d="M835,738c-.2-6.5.2-13,0-19.5,0-1.9,1-4-2-3.5-.2,7.3.1,14.7,0,22h-63c-.2.4-.8.7-1,1v31c.2.1.6,0,1,0,.3,0,.7,0,1,0h94v-32c-1.5,0-3.4,1-5.5,1-8.2.2-16.4-.2-24.6,0Z"/>
    <path class="st1" d="M676,673c10,0,20,0,30,0,0-10.3,0-20.7,0-31h0s-30,0-30,0v31Z"/>
    <path class="st1" d="M737,620.5c0-3.5,0-7.2,0-10.5-2.3,9.6-.4,20.2-1,30h-29c-.6-9.8,1.3-20.4-1-30,0,3,0,6,0,9,0,4.7,0,9.3,0,14v8c7.5,0,25.2,1.3,31-1,.1-6.5-.1-13,0-19.5Z"/>
    <path class="st1" d="M256,257c-.4-1.7-3.1-1-4.5-1-5.2-.2-22.3,1.1-25.5,0,0,.4,0,.8,0,1,10,.2,20-.2,30,0Z"/>
    <path class="st1" d="M673,771c-1.1-1.1-25.2,1.7-30-1-.3-.2-.8-.7-1-1-.5-.9-.9-.8-1.1-2.4-1-8.8.9-19.5,0-28.6h-1c-1,1.7-3.8,1-5.5,1-6.8,0-15.6.7-22.1,0-1.6-.2-1.4-.2-2.4-1.1-.2-.1.1-.7,0-1-.4-1.1,0-.9,0-1-.1-2.3,0-4.7,0-7-3,.6-1.9-1.5-2-3.5-.2-4.6-1.2-12.1,2-15.5,0-.9.2-2.4,0-3-9,0-21.1,1-29.6,0-1.6-.2-1.5-.6-2.4-1.1-.3-.2-.8-.7-1-1-.5-.9-.9-.8-1.1-2.4-1-8.8.9-19.5,0-28.6-1.1-1.1-25.4,1.6-29-1-.4,0-.8,0-1,0-.9-.4-.9-.4-1-1.5-1.2-8,0-21.8,0-30.5h-31c0-10.7,0-21.4,0-32h-1c-3.6,2.6-27.9,0-29,1v29.4c-.2,1.2-1.5.4-2,.6-7.8,3.1-23.1-.2-32,1-.3.2-.8.7-1,1-.7,9.1,1,19.6,0,28.6-.1,1.4,0,1.4-1,2.4-3.3,3.3-53.7-1.2-62,2,0,5,0,10,0,15,0,3.1.7,12,0,14-.3,1-.4.9-1.5,1-9.3,1.2-21-.9-30.5,0-2.6-3.8.1-29.9-1-31-9.1-.8-19.7,1-28.6,0-1.6-.2-1.5-.6-2.4-1.1-.4-.2-.7-.7-1-1l-1-62c-1-1-23.4.6-27.6,0-.8-.1-1.5,0-1.5-1,.8-10.7-.8-21.4-1-32h0s-2,0-2,0c.6,3-1.5,1.9-3.5,2-8.8.3-17.7-.2-26.5,0l1,61c-1.1,1.1-27.2-1.6-31,1,10.3,0,20.3,0,31,0,10.7,0,21.4,0,32,0,0,20.2,0,40.4,0,60.6,0,1.8-1.1,3.2-1.1,3.4,0,10,.8,20.8,1,31,0,.3,0,.7,0,1,9,.7,19.2-.9,28,0,1,0,1.4.7,2,1,.5.2,1.8-.6,2,.6v29.4s63,1,63,1c0,10.7,0,21.3,0,32,21,.1,42,0,63,0,21.7,0,43.4,0,65,0,.1-.6-.2-1.5,0-2-1.5-1.6-1-3.6-1-5.5-.4-16.6-.5-34.5,0-51.1,0-1.9-1-4,2-3.5,0-.3,0-.7,0-1,.1-.7-.5-2.1.6-2,19.3.5,38.7-.6,57.9,0,1.9,0,4-1,3.5,2,.3,0,.7-.1,1,0,.9.4.9.4,1,1.5.6,4.3-1,27.5,0,28.5h31.5c1.5.3-.5.9-.5,1v2l1,61h31v-31h31c.4-10.2-1.2-19.9,0-30Z"/>
    <path class="st1" d="M674,544v1c.5.1.7.7,1,1,2.7,3.4,0,24.3,1,30,1.1,1.1,26.3-1.6,30,1,0,.3,0,.7,0,1,2.3,9.9.4,20.9,1,31h29v-63c-5.1-.8-26.4,1.6-29-1-1.7-1.7-.9-3-1-5,0-.7,0-1.3,0-2,0-1.3,0-2.7,0-4s0-2.7,0-4c0-5,0-10,0-15,0-.7,0-1.3,0-2-10.3,1.8-21.5,1-32,1,0,10-.2,20,0,30Z"/>
    <path class="st1" d="M642,483c.7,4.5-1.3,29,.9,30.6,1.5,1,26.7.4,31.1.4v-31h-32Z"/>
    <path class="st1" d="M451,193h94c.3,0,.7,0,1,0,.5.1.7.6,1,1,2.8,4.1,0,22.9,1,29h30c1.7,8.8,1.1,18.5,1,27.5,0,1.7.6,4.5-1,5.5v1h1c10.7,0,21.3,0,32,0v127.5c0,.1-1.4,1.5-1.5,1.5h-30.5c-1.2,8.7,2,23.4-1,31-.2.5.6,1.8-.6,2h-29.4s0,28.3,0,28.3c-.2,1.2-1.5.4-2,.6-5.8,2.3-23.5,1-31,1h-1c-.1,21.3,0,42.7,0,64h1c9.6-2.3,20.2-.4,30-1,1.1-1.1-1.6-26.3,1-30,.3,0,.7,0,1,0-.6-3,1.5-1.9,3.5-2,8.5-.3,17.1.2,25.5,0v-32h65l1-6c0-3.7-.7-23.4.9-24.6,2.7-1.9,25.1.5,30.1-.4.5-4.1-1.2-9.6,1-13v-90c-1.5-.3-1.6-3.6,0-4v-5c-1.7-5-1.7-12.9,0-18v-9c-1.7-4.3-1.7-12,0-16v-19c-1.5-.3-1.6-3.6,0-4v-6c-1.7-2.5-1.7-8.7,0-11v-3c-2.3-8.1-.4-17.6-1-26h-31v-32h-32v-31h-31c-1.1,1.1,1.6,27.2-1,31h-128c-.3.3-.8.6-1,1v31h2Z"/>
    <polygon class="st1" points="610 130 610 130 610 130 610 130"/>
    <path class="st1" d="M673,448h-31v1h31c.4-.2,2-1.8,2-2,.4-1.9,0-6.7,0-9,0-2,0-4,0-6,0-3.6-.9-8.5-1-13-2.6,3.6,0,27.9-1,29Z"/>
    <path class="st1" d="M891.5,736c-6.7,0-13.4,0-20,0-1.7,0-4.5-.6-5.5,1,10.3-.2,20.7,0,31,0h0c-1-1.7-3.8-1-5.5-1Z"/>
    <path class="st1" d="M257,225c.7-.7-.4-15.7,0-18.6.2-1.5,1-2.3,1.1-2.4s.9-.9,1.1-2.4c1.5-12.4-1.2-27.9,0-40.6-.3,0-.7,0-1,0h0c-8.4-1.2-21.9,0-31,0h-1c-.1,21.3,0,42.7,0,64,10.2-3,20.7.7,31,0Z"/>
    <path class="st1" d="M321,129h33l1-31h-1c-8.8,0-17.7.1-26.5,0-1.7,0-4.4.6-5.5-1h-1c0,10.3,0,20.7,0,31v1Z"/>
    <path class="st1" d="M448,834h-30v32c10,0,20,0,30,0h1v-2c-2.3-9.6-.4-20.2-1-30Z"/>
    <path class="st1" d="M546,126.6c.1,1.4,0,1.4,1,2.4h31c.2-.4,0-1.4,0-2-3,.6-1.9-1.5-2-3.5-.3-8.5.2-17.1,0-25.5-9.7,0-19.4,0-29,0h-1c.8,9.1-1,19.7,0,28.6Z"/>
    <path class="st1" d="M579,835c-.6,9.5,1.3,19.8-1,29v2h32v-32h-2c-9.2,2.3-19.5.4-29,1Z"/>
    <path class="st1" d="M258,512v2c10.6.2,21.4-.2,32,0,.2-.2,1-.9,1-1h0c1.1-5,.2-20.4,0-26.6,0-1.9-1-3.7-1-4.4-.3,0-.7,0-1,0-.2,0-1,.9-2.4,1-8.4.8-18.1-.7-26.6,0-.2,8.5.3,17.1,0,25.5,0,1.9,1,4-2,3.5Z"/>
    <path class="st1" d="M736,738c-7.1-.9-16.5.3-24,0-2,0-4,0-6,0,0-10.3,0-20.7,0-31-9-.8-19.8,1.1-28.6,0-1.5-.2-1.4-.3-2.4-1.1-.3-.3-.9-.5-1-1-2.6-3.8.1-29.9-1-31-9.5-.6-19.8,1.3-29-1h0s-2,0-2,0v32c.5.2.8.6,1,1,3,4.8-.2,23.3,1,30,1.1,1.1,25.3-1.7,30,1,.3.2.8.7,1,1,3,5.4-.2,22.9,1,30h60c.2-10-.3-20,0-30Z"/>
    <path class="st1" d="M449,832v-30h-1c.6,9.8-1.3,20.4,1,30Z"/>
    <path class="st1" d="M260,160c9.1.6,19.2-1.3,28,1,.7,0,1.5,0,2-.4,2.3-2,.2-25.7,1-30.6h-1,0c-10,0-20,0-30,0,1.5,7.2-1.9,24.1,0,30Z"/>
    <path class="st1" d="M416,321c-4.3-.6-10.4,0-15,0,0,.6.2,1.9,0,2-.8.6-11.7-.5-14,0v29h30c-.5-10.3,1.1-20.9-1-31Z"/>
    <path class="st1" d="M355,253.6c-.2,1.4,0,1.4-1,2.4-1,1-1,.9-2.4,1-6.9.8-16.3-.1-23.6,0-1.7,0-3.3,0-5,0v30c1.1,1.1,26.3-1.6,30,1,0-.1,1-1.1,1-2.4,0-9.5-.1-19.1,0-28.6,10,0,20,0,30,0,.2,0,.8-1,1-1v-30c-10,0-20,0-30,0-1,1,.5,23.4,0,27.6Z"/>
    <path class="st1" d="M388,225c-.6-3,1.5-1.9,3.5-2,18.8-.8,37.8.5,56.5,0v-29h-62c-1.3,7.1,0,22.8,0,31h2Z"/>
  </g>
  <g>
    <path class="st7" d="M290,514h0c-10.6-.2-21.4.2-32,0-.1,21,.1,42,0,63h32v-1h-30v-61c5.7-1,26.7,1.7,30-1Z"/>
    <path class="st7" d="M386,353c-10.6,0-21.3,0-32,0,9.9,2.3,20.9.4,31,1v29h-159.5c-.1,0-1.5,1.4-1.5,1.5v31.5h-29v-94h30.5c.3,0,1.5-1.3,2.5-1v-31c20.7,0,41.4,0,62,0,7.6,0,15.4-.2,23,0v-1h0c-28.9-.8-58,.6-87,0-.9,4.8,1.1,30.9,0,32-10.7,0-21.4,0-32,0,0,32,0,64,0,96,9.4-1.2,23.2,1.7,32,0v-32h160v-32Z"/>
    <path class="st7" d="M546,98h1v-1h-30c-17.6,0-35.3,0-53,0h-110v1h1c63.7,0,127.4-.2,191,0Z"/>
    <path class="st7" d="M386,866c-.4,10.6.5,21.4,0,32h1c1-5-1.4-27.4.4-30.1,1.5-2.2,26.1-.3,30.6-.9v-1h0c-10.7,0-21.4,0-32,0Z"/>
    <path class="st7" d="M579,866v1h29c.2,8.8-.3,17.7,0,26.5,0,1.9-1,4,2,3.5v-31h0s-31,0-31,0Z"/>
    <path class="st7" d="M321,898v32c10.3,0,20.7,0,31,0l2-2h-1c-10,0-20,0-30,0v-28c10.3,0,20.7,0,31,0v-2c-11,0-22,0-33,0Z"/>
    <path class="st7" d="M449,866h-1v30c0,0,.4,1,1,1v-31Z"/>
    <path class="st7" d="M516,928v2c10.2.4,20.7,0,31,0v-2h-31Z"/>
    <path class="st7" d="M450,898h-1v32h34c.8-10.7-.8-21.5-1-32-10.6,0-21.3,0-32,0ZM480.9,927c-9.8,1.3-19.9-.7-29.9,0v-27h29c1.6,8.9.9,18,.9,27Z"/>
    <path class="st7" d="M418,418l1-65h-1c.1,21.6,0,43.3,0,65Z"/>
    <path class="st7" d="M263.5,257c19.1.2,38.4,0,57.5,0h2c1.7,0,3.3,0,5,0-1-1.7-3.8-1-5.5-1-20.5-.2-42-.6-62.5,0-.3,0-.7,0-1,0-.3,0-.7,0-1,0,1,1.7,3.8,1,5.5,1Z"/>
    <path class="st7" d="M643,545c2.9-.6,28.2-.6,31,0v-1c-10.1.6-21.1-1.3-31,1Z"/>
    <path class="st7" d="M516,900h30v-2h-30c0,.7,0,1.3,0,2Z"/>
    <path class="st7" d="M294.4,482c-1.3,0-2.3-1-2.4-1-.3,0-.7,0-1,0-.2,0-.6.9-1,1,0,.7,1,2.5,1,4.4.1,6.2,1.1,21.5,0,26.6,2.6-3.7,0-28.9,1-30,8.7-.8,19.2,1.1,27.6,0,.8,0,1.5,0,1.4-1-8.8,0-17.7,0-26.6,0Z"/>
    <polygon class="st7" points="321 482 321 482 321 482 321 482"/>
    <path class="st7" d="M611,641h0c3.7,2.6,28.9,0,30,1,0,8.8-.1,17.7,0,26.5,0,1.7-.6,4.5,1,5.5v-1c0-10.7,0-21.4,0-32-1.1-1.1-26.3.6-31,0Z"/>
    <path class="st7" d="M611,673c0,10.7,0,21.3,0,32,9.5.5,19.6-.7,29,0,.3,0,.7,0,1,0,.3,0,.7,0,1,0v-1h-30c-1.1-1.1,1.3-25.2-1-31Z"/>
    <path class="st7" d="M516,320v-94h29c.6,10.1-1.3,21.1,1,31,0-1.7,0-3.3,0-5-.2-9,.2-18,0-27-10.3,0-20.7,0-31,0,0,2,.1,4,0,6v1c0,1.3,0,2.7,0,4-.3,28,.2,56,0,84h1Z"/>
    <path class="st7" d="M456.5,321c-2.2,0-4.8-1.3-6.5-1-.2,0-.6.8-1,1v1h64v-1c-16.5,1.3-39.7.7-56.5,0Z"/>
    <path class="st7" d="M513,514c-.6,10.2,1.2,21.1-1,31h2c0-10.3,0-20.7,0-31h-1Z"/>
    <path class="st7" d="M610,616c0-2.3,0-4.7,0-7-10.7,0-21.3,0-32,0,0,21,0,42,0,63l1-1v-61h30c1,9.1-1.3,20.8,0,29.5.2,1.1,0,1,1,1.5.2-8.3-.2-16.7,0-25Z"/>
    <path class="st7" d="M575,514h0c-7.5.7-16.9-1-25-1-.5,1.2-1.9,1-3,1,0,.7,0,1.3,0,2,.2,10.3,0,20.7,0,31,0,3,0,6,0,9,0,9.7,0,19.3,0,29,0,1.3,0,2.7,0,4,0,6.7,0,13.3,0,20h1v-94c1.1-1.1,25.4,1.6,29-1-.5.1-1.3,0-2,0Z"/>
    <path class="st7" d="M578,482c0,4.3,1,29.8,0,31,2.8-3.7,0-24.1,1-30h63v-1c-21.3,0-42.8.6-64-1v1Z"/>
    <path class="st7" d="M642,577v-31c-1.2,1.5-.9,1.7-1.1,3.4-.6,6.5-.6,18.7,0,25.2.1,1.2-.4,1.8,1,2.4Z"/>
    <path class="st7" d="M548.5,258c9,1.2,20.3-.9,29.5,0v-1c-9.5,0-21.9,1-31,0,.3,1,.4.9,1.5,1Z"/>
  </g>
  <g>
    <path class="st15" d="M608,893.5c-.3-8.8.2-17.7,0-26.5h-29v31c10.3,0,20.7,0,31,0v-1c-3,.6-1.9-1.5-2-3.5Z"/>
    <path class="st15" d="M387.4,867.9c-1.9,2.7.5,25.1-.4,30.1,4.1,0,27.8.8,29,0,.4-.2-1.2-1.7,2-2v-29c-4.5.7-29-1.3-30.6.9Z"/>
    <path class="st15" d="M519.4,321.1c-1.3,0-2.5,0-3.4-1.1h-1c0,.8-.4.8-1,1-.3,0-.7,0-1,0v1c.7,0,1.8-.3,2,.6,1.8,7.2-1.4,22.2,0,30.4-32,0-64,0-96,0l-1,65h-127c-.6,7.1,1.3,15.2-1,22v5l1,36c.3,0,.7,0,1,0v-62h126v31h-97v32c0,1-.7.9-1.5,1-8.4,1.1-18.9-.8-27.6,0-1.1,1.1,1.6,26.3-1,30,0,0-.8.8-1,1-3.3,2.7-24.3,0-30,1v61h30c-.1-7.1,1-14,1.1-20.5,0-3.3-1.9-6.9-1.1-10.5h31v32h33l1,32h31v-32h32v-32h31v32h33v-32h30c2.2-9.9.4-20.8,1-31-8.7-.8-19.1,1-27.5,0-1-.1-3.5-.5-3.5-1.5v-63.5c10.7,0,21.4,0,32,0,0-10.7,0-21.4,0-32,10.7,0,21.4,0,32,0,7.3,0,14.7.1,22,0-6.8-2.3-14.9-.4-22-1v-31h32c0-21.3,0-42.7,0-64-19.2-.9-39.5,1.2-58.6,0Z"/>
    <path class="st15" d="M385,354c-10.1-.6-21.1,1.3-31-1,0-.3,0-.7,0-1-.8-8.1,0-18.6,0-27l-1-4h-1c-9,0-19.1.6-28,0-.7,0-1.3,0-2,0-1.8-3-1-8.2-1-12s0-2.7,0-4c0-2.5-.8-6.3,1-8,0-2,0-4,0-6-.6-.5-1.5-1.9-2-2-1.2-.3-3.5,0-5,0h0c-.7,0-1.3,0-2,0v1c2.3,0,4.7,0,7,0v31h-30v-31c-20.6,0-41.3,0-62,0v31c-1-.3-2.2,1-2.5,1h-30.5v94h29v-31.5c0-.1,1.4-1.5,1.5-1.5h159.5v-29ZM352,353h-29.5c-.1,0-1.5-1.4-1.5-1.5v-29.5h31v31Z"/>
    <path class="st15" d="M516,928h30v-28h-30c.2,9.3,0,18.7,0,28Z"/>
    <path class="st15" d="M323,900v28c10,0,20,0,30,0,1.8-8.8,1-18.8,1-28-10.3,0-20.7,0-31,0Z"/>
    <path class="st15" d="M451,900v27c10-.7,20.2,1.2,29.9,0,0-9,.7-18.1-.9-27h-29Z"/>
    <path class="st15" d="M401,321c4.6,0,10.7-.6,15,0,.4,0,.8-.1,1,0-3.7-2.6-28.9,0-30-1-.7-.7,1.2-7.6-1-9,0,3.3.6,7-1,10h1c5,0,10,0,15,0Z"/>
    <path class="st15" d="M513,545l1,63c0-21,0-42,0-63h-1Z"/>
    <path class="st15" d="M386,267c.2-2.2,2-5.9,1-9h61l1,64v-65c-20.3,0-40.7,0-61,0-3.1-1-2,4.1-2,7v3Z"/>
    <path class="st15" d="M386,270c-.4,7.2,0,14.8,0,22,1.7-6.5,1.7-15.5,0-22Z"/>
    <path class="st15" d="M386,295c0,3,0,6,0,9,1.7-1.9,1.7-7.1,0-9Z"/>
  </g>
  <g>
    <path class="st5" d="M862.5,771c-29.6-.8-59.4,1-89.1,0-1.9,0-4,1-3.5-2-.4,0-.8.1-1,0-1.4-.8-.9-1.1-1-2.4-.6-6.5-.5-18.6,0-25.2.2-2,.2-1.8,1.1-3.4.2-.3.8-.6,1-1l62-1v-30l-62.4,1c-1.1.1-.5-1.3-.6-2,0-.3,0-.7,0-1-3,.6-1.9-1.5-2-3.5-1.7-51.1,1.3-102.5,0-153.5h-28v92.9c-.7.4-1.6,0-2,.1h0c-5.8,2.3-23.5.9-31,1v1c0,10.3,0,20.7,0,31,9.3,0,22.2-1.1,31,0,.7,0,2.1-.5,2,.6v94c.4,2-1.9,1.3-2,1.4s.6,2.4-1.4,2.1h-59.6c0,9.9,0,19.6,0,29.9s0,20.7,0,31c9.5.8,18.5,0,28,0v-32c1.3.5,3-1,3.5-1h155.5c.2-6.5-.2-13,0-19.5,0-1.9-1-4,2-3.5,0-2,0-4,0-6v-1h-1l-1.5,2Z"/>
    <path class="st5" d="M388,354c-.9,1.3.8,24.9,0,29.5-.2,1.3-.6,2.2-2,2.5h0s-159,0-159,0c-1.1,1.1.9,25.5,0,30,10.6.4,21.5-1,32,1,.3.8-1,.8-1,1-.2.8,0,2,0,3,3-.6,1.9,1.5,2,3.5.6,18.5-.5,37.1,0,55.5,9.6-.3,19.4.2,29,0,1-19.1-1.5-39.8,0-58.6.1-2,.6-2.1,1.1-3.4.2-.4-.3-1.3.1-1.9h125.9v-61.1h-26.5c-.3,0-.7-1.2-1.5-1Z"/>
    <path class="st5" d="M929,675h-94v29c7.6,1.3,59.5-1.8,61.8.2.5.4,0,1.6.2,1.8s1.4-.3,1.8.2c1.2,1.4-.4,25.7.2,29.8h28c.7-3.4-1.9-11.8,2-11,.3-14.1,1.7-36.8,0-50Z"/>
    <path class="st5" d="M224,514c-.2,0-1.1.9-2.4,1-8.2.7-17.3-.6-25.6,0v124l29,1v-126c-.3,0-.7,0-1,0Z"/>
    <path class="st5" d="M258,706l1-1v-64c-10.3,0-20.7,0-31,0h-2c0,21.3,0,42.7,0,64l32,1Z"/>
    <path class="st5" d="M320,739h-29c0-.7,0-1.3,0-2,0-.3,0-.7,0-1-.6,0-1.4,0-2,0-2.6.4-22.9.4-24.4-.1-1.2-.4-3.4-7.3-6.6-6.9,0,1.8-.6,9,1.5,9h30.5v32h31v-1c-.2-9.5-1.9-20.1-1-30Z"/>
    <polygon class="st5" points="258 729 258 729 258 729 258 729"/>
    <path class="st5" d="M256,482c-8.8,2.3-18.9.4-28,1v29c9.1.6,19.2-1.3,28,1h1c-.6-10.1,1.3-21.3-1-31Z"/>
    <path class="st5" d="M699,482c1,0,2,0,3,0l2.1-3.4V163h-28.1l-1,269c0,2,0,4,0,6,2.2,2.5.7,15.4,0,9,0,.2-1.6,1.8-2,2l-94,1v30c38.8,1,77.8-1.3,116.5,0,1.9,0,4-1,3.5,2Z"/>
    <path class="st5" d="M224,419c-8.5-1.1-22.5,2-30-1-.4-.2-1.3.3-1.9-.1-.3-31.6-.1-63.3-.1-94.9-9.2-.6-19.1,1.2-28-1v125h60c1-8.5-1.3-19.9,0-28Z"/>
    <polygon class="st5" points="386 833 386 833 386 833 386 833"/>
    <path class="st5" d="M386,831c0-8,0-16,0-24-1.8-.6-.6-4.6-1-5-1-1.1-27.9-.4-29.1.4-2.5,1.7.6,24.8-.8,29.5,1.8.2,3.7,1.1,5.4,1.2,6.2.1,20.6-1.7,25.5,0v-2Z"/>
    <polygon class="st5" points="323 799 353 800 353 771 323 771 323 799"/>
    <path class="st5" d="M650,161c.7,0,1.3,0,2,0,1-1.6,5-1.6,6,0,1.3,0,2.7.1,4,0,2.5-.2,6.5-2,10-1v-29h-28v29c2.3-1,4.9.9,6,1Z"/>
    <path class="st5" d="M704,606.5c-.1-9.2.2-18.4,0-27.5h-28,0v60c3.7-.8,28,1,29,0,.5-.5-1-5.2,1-6,0-4.7,0-9.3,0-14-4.1.6-1.2-5.7-1.2-7.5,0-1.6-.8-3.2-.8-5Z"/>
    <path class="st5" d="M675,577h-1v2h2v-2h-1Z"/>
    <path class="st5" d="M320.9,738s0,0,0,0c0,0,0,0,0,0Z"/>
    <path class="st5" d="M320.9,738c-.6-.3-1-.9-1.9-1,.3.3.6.7,1,1,.2.1.7,0,.9,0Z"/>
    <path class="st5" d="M674.9,545.8c-.2-.3-.4-.7-.9-.8,0,.2.6.5.9.8Z"/>
    <path class="st5" d="M674.9,545.8c0,0,0,.1.1.2,0,0,0-.1-.1-.2Z"/>
    <path class="st5" d="M706,674c-8.8,0-21.3,1.1-29.5,0-.8-.1-1.5,0-1.5-1h-1c1.3,9.2-1.8,23.5,0,32,.1.5.7.7,1,1h31c0-10.7,0-21.3,0-32Z"/>
    <path class="st5" d="M611,736h30v-29c-10,0-20,0-30,0,0,9.7,0,19.3,0,29Z"/>
    <path class="st5" d="M322,321c.7,0,1.3,0,2,0l-2-1c0,.3,0,.7,0,1Z"/>
    <path class="st5" d="M353,321h1v-1l-2,1h1Z"/>
    <path class="st5" d="M609,674h-30v30h30c-1.6-2.6,0-4.7,0-7.5.3-7.5-.3-15.1,0-22.5Z"/>
    <path class="st5" d="M516,609c9.7,0,19.3,0,29,0v-94h0s-29,0-29,0v94Z"/>
    <rect class="st5" x="548" y="483" width="28" height="29"/>
    <rect class="st5" x="323" y="290" width="30" height="29"/>
  </g>
  <g>
    <path class="st14" d="M258,577c.1-21-.2-42,0-63-.3,0-.8-1-1-1h-1,0c-9.3-.1-20-.4-29,0-.2,0-.7,1-1,1,0,42,0,84,0,126v1h2c3.8-2.6,29.9.1,31-1l-1-61c8.8-.2,17.7.3,26.5,0,1.9,0,4,1,3.5-2h-30Z"/>
    <path class="st14" d="M737,673h0c-8.8-1.1-21.7,0-31,0v1c10,0,20,0,30,0v62h1c.5-21-.4-42,0-63Z"/>
    <path class="st14" d="M251.5,256c1.4,0,4.1-.7,4.5,1h1c.2-.5.5-.9,1-1,.3,0,.7,0,1,0h0l-1-52c0,.1-.9.9-1.1,2.4-.4,2.9.7,17.9,0,18.6-10.3.7-20.8-3-31,0,0,9.2-1.2,22.4,0,31,3.2,1.1,20.3-.2,25.5,0Z"/>
    <path class="st14" d="M642.9,417.4c-1.7,1.2-.9,20.9-.9,24.6v6h31c1.1-1.1-1.6-25.4,1-29v-2h-1c-5,1-27.4-1.4-30.1.4Z"/>
    <path class="st14" d="M897,706h0s-63,0-63,0l62,1c.1,5.5-.2,11,0,16.5,0,1.9-1,4,2,3.5-.1-7,.8-14.2-1-21Z"/>
    <path class="st14" d="M707,640h29c.6-9.8-1.3-20.4,1-30v-1h-31v1c2.3,9.6.4,20.2,1,30Z"/>
    <path class="st14" d="M294.4,288.8l-67.4-.8c-.7,0-.9.3-1,1,22.8.5,45.6-.3,68.4-.2Z"/>
    <path class="st14" d="M294.4,288.8l15.4.2c-5.1-.1-10.2-.2-15.4-.2Z"/>
    <path class="st14" d="M315,289h-5.2c1.1,0,2.1,0,3.2,0,.7,0,1.3,0,2,0Z"/>
    <path class="st14" d="M259,129h-1v1c.8,0,1-.2,1-1Z"/>
    <path class="st14" d="M418,353c0-8.8,1.2-22.5,0-30.5-.2-1.1,0-1-1-1.5-.2-.1-.6,0-1,0,2.1,10.1.5,20.7,1,31v1h1Z"/>
    <path class="st14" d="M291,418h-1c0,7.3,0,14.7,0,22,2.3-6.8.4-14.9,1-22Z"/>
    <path class="st14" d="M290,445c0,12.3-.2,24.7,0,37,.4,0,.8-1,1-1l-1-36Z"/>
    <path class="st14" d="M322,291v-2c-.7,0-1-.3-1-1,0,.2-.8.6-1,1,.5.1,1.4,1.5,2,2Z"/>
    <path class="st14" d="M573.5,736c-19.3-.7-38.7.5-57.9,0-1.1-.1-.5,1.3-.6,2h62c.6-3-1.5-1.9-3.5-2Z"/>
    <path class="st14" d="M515,739c-3-.6-1.9,1.5-2,3.5-.6,16.6-.4,34.5,0,51.1,0,1.9-.5,3.9,1,5.5,3.8-10.8,0-45.6,1-60Z"/>
    <polygon class="st14" points="515 739 515 739 515 739 515 739"/>
    <polygon class="st14" points="291 609 291 609 291 609 291 609"/>
    <path class="st14" d="M292.5,610c4.2.5,26.6-1,27.6,0l1,62v-63h-30c0,1,.7.9,1.4,1Z"/>
    <path class="st14" d="M483,609c-2,1.3-.5,26.7-1,31,.5-.2,1.8.6,2-.6v-29.4c1-1.1,25.4,1.6,29-1-10,0-20,0-30,0Z"/>
    <path class="st14" d="M446,673c-3,.2-6,0-9,0-15,.2-34.3-1.6-48.6,0-1.4.1-1.4,0-2.4,1v1c8.3-3.2,58.7,1.3,62-2-.7,0-1.3,0-2,0Z"/>
    <path class="st14" d="M322,673c.9.5.8.9,2.4,1.1,8.9,1,19.5-.8,28.6,0,1.1,1.1-1.6,27.2,1,31v-32h0c-10.6-.5-21.4.4-32,0Z"/>
    <path class="st14" d="M610.5,768h-31.5c-1-1,.7-24.2,0-28.5-.2-1.1,0-1-1-1.5v30c7.8,3.1,23.1-.2,32,1,0,0,2-.7.5-1Z"/>
    <path class="st14" d="M610,832h1l-1-61c-.2,18.6-1.8,43.1,0,61Z"/>
    <path class="st14" d="M546,448c.5-.2,1.8.6,2-.6v-28.4s29.3,0,29.3,0c1.2-.2.4-1.5.6-2-3.3,0-6.7,0-10,0-7.3.1-14.7,0-22,0,0,.7,0,1.4,0,2,1.3,8.5-1,20.1,0,29Z"/>
    <path class="st14" d="M578.8,130.9c0-.3.1-.6.2-.9-.1.1-.2.4-.2.9Z"/>
    <path class="st14" d="M578,160c0,.3,0,.7,0,1,2.3-3.4.3-25.2.8-30.1-2.2,9.2.2,19.8-.8,29.1Z"/>
    <path class="st14" d="M261.5,161c5,.6,21.7.7,26.5,0-8.8-2.3-18.9-.4-28-1,.3,1,.4.9,1.5,1Z"/>
    <path class="st14" d="M579,835c9.5-.6,19.8,1.3,29-1h-29v1Z"/>
    <path class="st14" d="M401,323c.2-.1,0-1.4,0-2h0c-5,0-10,0-15,0v2h1c2.3-.4,13.2.6,14,0Z"/>
    <path class="st14" d="M322,320c-.6-3.4,1.2-8.3-1-11,0,3.8-.8,9,1,12,0-.3,0-.7,0-1Z"/>
    <path class="st14" d="M321,305c1.8-1.7,1-5.5,1-8-1.8,1.7-1,5.5-1,8Z"/>
    <path class="st14" d="M386,311c0-2.3,0-4.7,0-7,0-3,0-6,0-9s0-2,0-3c0-7.2-.4-14.8,0-22,0-1,0-2,0-3v-3c-3.5.9-1.5-4.1-2-7h0c-10,0-20,0-30,0,0,9.5,0,19.1,0,28.6,0,1.3-1,2.3-1,2.4v1c0,9.7,1,20.8,1,31v1h1c9.7,0,19.4,0,29,0h1c1.6-3,1-6.7,1-10Z"/>
    <path class="st14" d="M545,610c0,10.3,0,20.7,0,31h1c0-10.3.9-20.9,1-31v-1h-2c-9.7,0-19.3,0-29,0h-1c3.7,2.6,28.9-.1,30,1Z"/>
    <path class="st14" d="M355,226c10,0,20,0,30,0h1v-1c-10.6,0-21.3,0-32,0v31c1-1,.9-1,1-2.4.5-4.2-1-26.6,0-27.6Z"/>
    <path class="st14" d="M387,193c-.7,0-.9.3-1,1h62v-1c-20.3,0-40.7,0-61,0Z"/>
    <path class="st14" d="M576,482h2v-1c-.8,0-1.9,0-2,1Z"/>
    <path class="st14" d="M579,607h28.5c.3,0,.8,1.3,1.5,1v-29h-30v28Z"/>
  </g>
  <g>
    <path class="st9" d="M321,68c0-.4,1.6-1.7,1-3l-1,3Z"/>
    <path class="st9" d="M833,676c0-.4,1.6-1.7,1-3l-1,3Z"/>
    <path class="st9" d="M321.1,800.4l.9.6-1-3c0,.8-.1,1.6,0,2.4Z"/>
    <path class="st9" d="M898,766c0-.7,0-1.3,0-2l-1,1.5,1,.5Z"/>
    <path class="st9" d="M898,737v1l1-1h-1Z"/>
    <path class="st9" d="M515,899.5c-.2-1.2-.2-1-1-1.5v32c.3,0,.7,0,1,0-1.8-5.5,1.1-23.1,0-30.5Z"/>
    <path class="st9" d="M449,97h7c-1.3-1.7-5.7-1.7-7,0Z"/>
    <path class="st9" d="M384,97h7c-1.3-1.7-5.7-1.7-7,0Z"/>
    <path class="st9" d="M460,97h4c-.3-1.5-3.6-1.6-4,0Z"/>
    <path class="st9" d="M360,97h3c-.1-1.5-2.9-1.5-3,0Z"/>
    <path class="st9" d="M371,97h2l-.5-1-1.5,1Z"/>
    <path class="st9" d="M517,97h1l-.5-1-.5,1Z"/>
    <path class="st9" d="M403.5,96l-.5,1h1l-.5-1Z"/>
    <path class="st9" d="M543,97h1l-.5-1-.5,1Z"/>
    <path class="st9" d="M413.5,96l-.5,1h1l-.5-1Z"/>
    <path class="st9" d="M449,801c-21,0-42,.1-63,0v1h63v-1Z"/>
    <polygon class="st9" points="321 128 320 129 321 129 321 128"/>
    <path class="st9" d="M449,898h1v-32h-1v32Z"/>
    <path class="st9" d="M715.5,736c-1.9,0-4-1-3.5,2,7.5.3,16.9-.9,24,0,0-.5,1-1.5,1-2h-1c-6.8.2-13.7-.2-20.5,0Z"/>
    <path class="st9" d="M578,258c0,21,0,42,0,63s0,42.7,0,64v1l1-129h-1v1Z"/>
    <path class="st9" d="M547,194c-.3-.4-.5-.9-1-1l1,2v-1Z"/>
    <path class="st9" d="M515,320c.2-28-.3-56,0-84l-1,85c.6-.2,1-.2,1-1Z"/>
    <path class="st9" d="M575,514c.7,0,1.5.1,2,0s.7-.6,1-1c-.1.1-2.5-.2-3,1Z"/>
    <path class="st9" d="M547,257c-.3-1,.4-3-.2-4.3l-.8-.7c0,1.7,0,3.3,0,5,.3,0,.7,0,1,0Z"/>
    <path class="st9" d="M547,514c1.1,0,2.5.2,3-1h-3v1Z"/>
    <path class="st9" d="M449,321c.4-.2.8-1,1-1v-63h-1v64Z"/>
    <path class="st9" d="M515,231c0,.5,0,.7,0,1v-1Z"/>
    <path class="st9" d="M388,257c-.1,0-1-1-2-1h-1c-.2,0-.8,1-1,1,.5,2.9-1.5,7.9,2,7,0-2.9-1.1-8,2-7Z"/>
    <path class="st9" d="M547,589c-2.3,6.1-.4,13.6-1,20h1c0-6.7,0-13.3,0-20Z"/>
    <path class="st9" d="M546,521.5c0,6.7,0,13.4,0,20,0,1.7-.6,4.5,1,5.5h0c0-10.3.2-20.7,0-31-1.7,1-1,3.8-1,5.5Z"/>
    <path class="st9" d="M547,585c0-9.7,0-19.3,0-29-1.8,7.2-1.1,16-1,23.5,0,1.7-.6,4.5,1,5.5Z"/>
  </g>
  <g>
    <path class="st10" d="M644,929.4c-.2,1.2-1.5.4-2,.6-1.3.5-1.4.9-3.4,1.1-39.2,2.7-81.6-2.2-121.2,0-1.1-.1-2,.4-2.5-1-.3,0-.7,0-1,0-1.7-1-1-3.8-1-5.5-.1-8.8.1-17.7,0-26.5-.3,0-.7,0-1,0,.6,3-1.5,1.9-3.5,2-7.9.3-17,.6-24.5-1v30.5c0,1.1-2.4,1.4-3.5,1.5-9.7,1.1-21.6-1-31.5,0-1.6-.5-1.9-3-2-4.5-.9-8.6.7-18.7,0-27.5h-28c-1.1,1.1,1.6,26.3-1,30,0,.3,0,.7,0,1l-98,1v-32.5c0-1.1,2.4-1.4,3.5-1.5,13.4-1.6,46.9-1.3,60.5,0v-31l-126,1h0c-.1.9,0,2,0,3,3-.6,1.9,1.5,2,3.5.2,4.9.2,10.2,0,15.1,0,1.9,1,4-2,3.5,0,1.7,0,3.3,0,5h1c9.3.9,20.5-1.2,29.5,0,.8.1,1.5,0,1.5,1v32c-.1,1.4-1.5.9-2.5,1-6.3.8-16.3,0-23.1,0-1.7,0-4.4.6-5.5-1-.4,0-.8,0-1,0-.9-.4-.8-.4-1-1.5-.9-5.8-.6-22.4,0-28.5h-29v59h444v-59h-28v29.4Z"/>
    <path class="st10" d="M227,287h93v-29c-19.8-.4-39.8.5-59.6,0-1.8,0-3.2-1.1-3.4-1.1h-1c0,1.6-3.2,1-4.5,1-7,.2-16.3.6-23.1,0-1.2-.1-1.8.3-2.4-1,0-.2,0-.6,0-1-4.4-1.5,2-83-2-93h-25.5c-.3,0-1.4-1.4-2.5-1-.9,29.1,1.2,58.5,0,87.5,0,1.9,1,4-2,3.5h0v3c3-.6,1.9,1.5,2,3.5.7,19.8-.5,39.8,0,59.5h28c1.4-8.3-1.8-22.8,0-30.3.3-1.1,2.2-1.1,3-1.7Z"/>
    <path class="st10" d="M738,483h-31c-.2,2.8.3,5.8,0,8.6-.1,1.3-1,2.3-1,2.4-.2,2.6,0,5.4,0,8l1,.5-1,1.5c0,.7,0,1.3,0,2,1.6.7,1.6,4.3,0,5,0,.7,0,1.3,0,2s0,1.3,0,2c2.3,3.2,2.1,7.8,2,11.5,0,1.9,1,4-2,3.5,0,1.3,0,2.7,0,4,3.2-.9,3,5.1,0,4,0,.7,0,1.3,0,2,3.2-.9,1.3,2.8,2.5,3.1,7,1.7,21.5-1.4,29.5,0,.2-19.5.9-40.7,0-60h0Z"/>
    <path class="st10" d="M320,127v-29l-62,1c-1,7.9,0,19.5,0,28h62Z"/>
    <path class="st10" d="M642,120c0-.7,0-1.3,0-2-3,1.7-2.3-7.6-2-8,.1-.2,1.4,0,2,0,0-1.3,0-2.7,0-4-4,.9-1.1-6.1-2-7-2.2-2.2-53.6,2.3-61-1v29h61c.5,0-1.6-8.7,2-7Z"/>
    <path class="st10" d="M897,765.5l1-1.5c.3-8.6,0-17.4,0-26v-1h-1c-10.3,0-20.7-.2-31,0h-1v1c1.7,1,1,3.8,1,5.5,0,7.9.7,16.9-1,24.5v2h33c0-1.3,0-2.7,0-4l-1-.5Z"/>
    <path class="st10" d="M258,729c3.2-.4,5.4,6.4,6.6,6.9,1.5.5,21.8.5,24.4.1v-31h-30l-1,1c.2,7.6-.2,15.4,0,23Z"/>
    <path class="st10" d="M227,161c9.6-2.3,20.2-.4,30-1v-28.5c0-1.1-2.4-1.4-3.5-1.5-2.8-.3-24.6-.9-25.6,0-.7.7,1.8,5.9-2,5-.5,8.3,0,17.5,0,26h1Z"/>
    <path class="st10" d="M387,834c-.3,0-.6-.9-1-1v31c10.3-.3,20.7.2,31,0v-29c-9.2-.9-21.5,1.7-30-1Z"/>
    <path class="st10" d="M227,129l-1,3c.1-.5,1.6-1.7,1-3Z"/>
    <path class="st10" d="M738,545v-1l-1,1h1Z"/>
    <path class="st10" d="M258,129h1c0-.8-.2-1.1-1-1v1Z"/>
    <rect class="st10" x="323" y="67" width="253" height="28"/>
    <path class="st10" d="M611,897c8.5-.3,17.1.3,25.6,0,1.9,0,2.9-1,3.4-1.1v-32h32v-29h-61v62Z"/>
    <path class="st10" d="M578,897v-62h-31c0,5.7,1.2,26.5,0,30-.3,1-.4.9-1.5,1-9.6,1.2-21-1.7-30.5,1-.5,9.3-.2,19.7,0,29l63,1Z"/>
    <rect class="st10" x="644" y="739" width="29" height="29"/>
    <path class="st10" d="M449,193v1l1-1h-1Z"/>
    <path class="st10" d="M480,896l1-63.6,64-.4v-30h-94c0,21.3-.1,42.7,0,64,0,10.3,0,20.7,0,31,9.1-.9,20.6,1.6,29-1Z"/>
    <path class="st10" d="M644,642v30c.7.3,1.2-1,1.5-1h26c.3,0,.8,1.3,1.5,1v-30c-9.8.3-19.3,1.1-29,0Z"/>
    <path class="st10" d="M568,673c2.1-2.1,5.3-2,8-2v-61c-8.9.9-19-.6-28,0v62c2.7-1.4,5.6-1.1,8.5-1,1.9,0,4-1,3.5,2,2.7,0,5.3,0,8,0Z"/>
    <path class="st10" d="M449,257h1l1,62h61l1-1v-91.6c-.4-2,1.8-1.3,2-1.4s-.3-1.3.2-1.8c1.4-1.2,25.7.4,29.8-.2v-29h-94c-.2,8.8.3,17.7,0,26.5,0,1.9,1,4-2,3.5,0,.4.1.8,0,1-.7,1.4-1.2.9-2.4,1-18.4,1.6-41.5-.2-60.6,0v29h62.4s.6,2,.6,2Z"/>
    <rect class="st10" x="548" y="226" width="28" height="29"/>
    <path class="st10" d="M384,351v-30c-9.6,0-19.3,0-29,0-1,9.3,1.3,21,0,30h29Z"/>
    <rect class="st10" x="644" y="547" width="29" height="29"/>
    <path class="st10" d="M641,610c-7.1,1.4-23.1-1.9-29,0h0c0,0-1,.9-1,1-.2.8,0,3.9,0,5,0,.2,1,1.1,1,2.4.2,6.9-.2,13.8,0,20.6h29c-.9-4.3,1-28,0-29Z"/>
  </g>
  <g>
    <path class="st3" d="M674,193c0,8.6,0,17.3,0,26v97c0,28-.1,56,0,84v4c0,4.3,0,8.7,0,13v2c0,4.5.9,9.4,1,13l1-269h28v315.6c0,0-2,3.4-2,3.4,1.3,0,2.7,0,4,0v12c0-.2.9-1.1,1-2.4.3-2.8-.3-5.8,0-8.6h31c0-.7,0-1.3,0-2h-32V161h-32c0,10.6,0,21.3,0,32Z"/>
    <polygon class="st3" points="674 161 674 161 674 161 674 161 674 161"/>
    <path class="st3" d="M642,161h8c-1.1-.1-3.7-2-6-1v-29h28v29c-3.5-1-7.5.8-10,1h12c0-10.7,0-21.4,0-32-10.7,0-21.3,0-32,0v32Z"/>
    <path class="st3" d="M642,129s0,0,0,0h0s0,0,0,0Z"/>
    <path class="st3" d="M323,95v-28h253v28l2-1c0-7.4,1.2-21.6,0-28l-1-1h-255c.6,1.3-.9,2.6-1,3-1.2,7.2,0,20,0,28l2-1Z"/>
    <path class="st3" d="M929,725c-3.9-.8-1.3,7.6-2,11h-28c-.7-4.1,1-28.4-.2-29.8-.4-.5-1.6,0-1.8-.2,1.8,6.8.9,14,1,21,0,3.3,0,6.7,0,10h1c9.6,0,19.3.2,28.9-.1,1.8-3.7,1-7.9,1.1-11.9Z"/>
    <path class="st3" d="M896.8,704.2c-2.3-2-54.2,1-61.8-.2v-29h94c0-.7.5-2.1-.6-2h-94.4c.6,1.3-.9,2.6-1,3-.7,4.4,1,28,0,29h-64c.1.7-.5,2.1.6,2l62.4-1v30l-62,1h63c.1-7.3-.2-14.7,0-22,0-2.2-.8-8.4,1-9h63c-.1-.1.3-1.4-.2-1.8Z"/>
    <path class="st3" d="M769,545h-31c-.2,21.2-1,42.6-1,64v1c0,3.3,0,6.9,0,10.5,0,6.5.1,13,0,19.5.4-.1,1.3.3,1.9-.1v-92.9h28.1c1.3,51.1-1.7,102.5,0,153.5,0,1.9-1,4,2,3.5v-159Z"/>
    <path class="st3" d="M387,834c8.5,2.7,20.8,0,30,1v29c-10.3.2-20.7-.3-31,0-.2,0-1.6,1-3.4,1.1-41.3.9-82.7-.8-124,0-1.1-.1-.5,1.3-.6,2l126-1v31c.5,0,.9.5,1,1h1c.5-10.6-.4-21.4,0-32,10.7,0,21.4,0,32,0v-32h0s-31,0-31,0Z"/>
    <path class="st3" d="M196,249.5c1.1-29.1-.9-58.4,0-87.5,1.1-.4,2.2,1,2.5,1h25.5c4,10-2.4,91.5,2,93-1.2-8.6,0-21.8,0-31,0-21.3-.1-42.7,0-64-10.6,0-21.3,0-32,0,0,30.6,0,61.3,0,92,3,.6,1.9-1.5,2-3.5Z"/>
    <path class="st3" d="M321,798l1,3h32v33h32v-1c-4.9-1.7-19.3.2-25.5,0-1.8,0-3.6-.9-5.4-1.2,1.4-4.7-1.7-27.7.8-29.5,1.2-.8,28.1-1.5,29.1-.4.4.4-.8,4.4,1,5v-6c-4.4,0-29.5.6-31.1-.4-2.2-1.5-.3-27-.9-31.6-10.6,0-21.3,0-32,0h-1v1c.3,9.2-.6,18.9,0,28ZM323,771h30v29l-30-1v-28Z"/>
    <polygon class="st3" points="354 769 354 769 354 769 354 769"/>
    <path class="st3" d="M578,97h-1c1.2,9.1,1.8,20.8,1,30,0,.6.2,1.6,0,2h32c10.3,0,20.7,0,31,0,1.6-2.8,1-6,1-9-3.6-1.7-1.5,7-2,7h-61v-29c7.5,3.3,58.9-1.2,61,1,.9.9-2,7.9,2,7,0-3,0-6,0-9-21.3,0-42.7,0-64,0h0Z"/>
    <path class="st3" d="M258,99l62-1v29h-62v1c.8,0,1,.2,1,1,10.3,0,21,0,31,0h30l1-1c0-10.3,0-20.7,0-31-20.8,0-41.6,0-62.4,0-1.1-.1-.5,1.3-.6,2Z"/>
    <path class="st3" d="M226,321c1.1-1.1-.9-27.3,0-32,.1-.7.3-1,1-1v-1c-.8.6-2.8.6-3,1.7-1.8,7.5,1.4,22,0,30.3h-28c-.5-19.8.7-39.8,0-59.5,0-1.9,1-4-2-3.5h0c0,21.7,0,43.4,0,65,10.7,0,21.4,0,32,0Z"/>
    <path class="st3" d="M192,323c0,31.6-.1,63.3.1,94.9.6.4,1.5,0,1.9.1v-1c0-32,0-64,0-96h-2v2Z"/>
    <path class="st3" d="M226,481c.8,10.5-1.3,21.6,1,32,9-.4,19.7-.1,29,0-8.8-2.3-18.9-.4-28-1v-29c9.1-.6,19.2,1.3,28-1v-1c-10,.3-20-.2-30,0Z"/>
    <path class="st3" d="M226,514c-.3,0-.7,0-1,0v126h1c0-42,0-84,0-126Z"/>
    <path class="st3" d="M226,135c3.8.8,1.2-4.3,2-5,.9-.9,22.8-.4,25.6,0,1,.1,3.5.4,3.5,1.5v28.5c-9.8.6-20.4-1.3-30,1,9.1,0,22.6-1.2,31,0v-32c-10.3,0-20.7,0-31,0,.6,1.3-.9,2.5-1,3-.2.9,0,2,0,3Z"/>
    <path class="st3" d="M737,545l1-1v-1c-7.9-1.4-22.5,1.8-29.5,0-1.3-.3.7-4-2.5-3.1.1,2-.7,3.3,1,5h30Z"/>
    <path class="st3" d="M258,870h0c-.3,7.3,0,14.7,0,22,3,.6,1.9-1.5,2-3.5.2-4.9.2-10.2,0-15.1,0-1.9,1-4-2-3.5Z"/>
    <path class="st3" d="M640,110c-.3.4-1,9.7,2,8,0-2.7,0-5.3,0-8h0c-.6,0-1.9-.2-2,0Z"/>
    <path class="st3" d="M447,926.5c.2,1.4.4,4,2,4.5v-32h-2c.7,8.8-.9,18.9,0,27.5Z"/>
    <path class="st3" d="M739,673.6c.1-1.1-1.3-.5-2-.6h0c-.4,21,.5,42,0,63,0,.5-1,1.5-1,2,.7,0,2.1-.5,2,.6l-1,30.4h-62v-31c-.2-.3-.7-.8-1-1h-32v1c0,10.3.1,20.7,0,31,.2.3.7.8,1,1l31,.5c1.3.8,0,3.3,0,5-.1,8.5-.4,17.2,1,25.6h1c0-10,0-20,0-30h59.6c2,.4,1.3-1.8,1.4-2s2.4.6,2.1-1.4v-94ZM673,768h-29v-29h29v29Z"/>
    <polygon class="st3" points="864 769 864 769 864 769 864 769"/>
    <path class="st3" d="M771,769c-.3,0-.7,0-1,0-.6,3,1.5,1.9,3.5,2,29.6,1,59.4-.8,89.1,0l1.5-2c-30.3-1.6-63,2.2-93,0Z"/>
    <rect class="st3" x="386" y="353" height="0"/>
    <path class="st3" d="M385,321h-1v30h-29c0,.5-.5.9-1,1,0,.3,0,.7,0,1,10.6,0,21.3,0,32,0v-32h-1Z"/>
    <path class="st3" d="M418,353h-1c-10.3,0-20.7,0-31,0v33c1.4-.3,1.8-1.2,2-2.5.8-4.6-.9-28.2,0-29.5.8-.2,1.2,1,1.5,1h26.5v61h-125.9c-.4.7,0,1.6-.1,2h128c0-21.7.1-43.4,0-65Z"/>
    <path class="st3" d="M260,480c-.3,0-.8,1-1,1v1h30c0-.7,0-1.3,0-2-9.6.2-19.4-.3-29,0Z"/>
    <path class="st3" d="M226,257c.7,1.4,1.2.9,2.4,1,6.7.6,16.1.2,23.1,0,1.3,0,4.5.6,4.5-1h0c-10-.3-20,.2-30,0Z"/>
    <path class="st3" d="M706,530c3,.6,1.9-1.5,2-3.5.1-3.8.3-8.3-2-11.5,0,5,0,10,0,15Z"/>
    <path class="st3" d="M706,534c0,1.3,0,2.7,0,4,3,1.1,3.2-4.9,0-4Z"/>
    <path class="st3" d="M706,511c1.6-.7,1.6-4.3,0-5,0,1.7,0,3.3,0,5Z"/>
    <path class="st3" d="M707,502.5l-1-.5c0,.7,0,1.3,0,2l1-1.5Z"/>
    <path class="st3" d="M319,737h0c-8.8-.9-19,.7-28,0,0,.7,0,1.3,0,2h29v-1c-.4-.3-.7-.7-1-1Z"/>
    <path class="st3" d="M515,867c9.5-2.7,21,.2,30.5-1,1-.1,1.1,0,1.5-1h-32c0,.7,0,1.3,0,2Z"/>
    <path class="st3" d="M706,619c0-3,0-6,0-9v-1c0-9.6,1-21.8,0-31,0-.3,0-.7,0-1h0c-10,0-20,0-30,0v2h28c.1,9.2-.2,18.4,0,27.5,0,1.8.8,3.4.8,5,0,1.8-2.9,8.1,1.2,7.5Z"/>
    <path class="st3" d="M642,673h33v-32c10.3,0,20.7,0,31,0v-8c-2,.9-.5,5.5-1,6-1,1-25.3-.8-29,0v-60h0s-2,0-2,0v62c-9.3-.9-20.5,1.1-29.6,0-1.5-.2-1.4-.3-2.4-1.1-.3-.3-.9-.5-1-1h-29c-.2-6.8.3-13.7,0-20.6,0-1.3-1-2.2-1-2.4h-1c-.2,8.3.2,16.7,0,25,.2,0,.6,0,1,0,4.7.6,29.9-1.1,31,0,0,10.7,0,21.4,0,32ZM644,642c9.7,1.1,19.2.3,29,0v30c-.7.3-1.2-1-1.5-1h-26c-.3,0-.8,1.3-1.5,1v-30Z"/>
    <path class="st3" d="M579.5,673c-.8-.1-1.5,0-1.5-1,0-21,0-42,0-63h-1c-.1.5-.5,1-1,1v61c-2.7,0-5.9,0-8,2,2.4,0,6.4-.5,8.3,0,2.6.6,2.1,28,.7,32,.2.3.7.8,1,1,9.6.9,21.2-1.2,30.5,0,1.1.1,1.1,0,1.5,1h1v-2c0-10.7,0-21.3,0-32-1.1-1.1-26.8.6-31.5,0ZM609,696.5c-.1,2.7-1.6,4.9,0,7.5h-30v-30h30c-.3,7.5.4,15.1,0,22.5Z"/>
    <path class="st3" d="M556.5,671c-2.9,0-5.8-.4-8.5,1v-62h-1c-.1,10.1-1,20.3-1,31s0,21.3,0,32c.2,0,.6,0,1,0,3.8.5,9,0,13,0,.6-3-1.5-1.9-3.5-2Z"/>
    <path class="st3" d="M699,482c.6-3-1.5-1.9-3.5-2-38.8-1.3-77.8,1-116.5,0v-30l94-1h-31,0c-21.3,0-42.7,0-64,0,0,10.7,0,21.4,0,32,21.2,1.6,42.7,1,64,1,10.7,0,21.3,0,32,0,8.3,0,16.7-.2,25,0Z"/>
    <path class="st3" d="M516,515h29v-1h0c-9.9-1-19.9-1.3-30-1h-1v1c0,10.3,0,20.7,0,31,0,21,0,42,0,63v1h2v-94Z"/>
    <path class="st3" d="M547,257c9.1,1,21.5,0,31,0v-1c0-10.3,0-20.7,0-31-8.5,0-17,0-25.6,0-2,0-3.9-1-5.4-1-.3,0-.8,1-1,1,.2,9-.2,18,0,27l.8.7c.6,1.3-.1,3.3.2,4.3ZM548,226h28v29h-28v-29Z"/>
    <polygon class="st3" points="547 224 547 224 547 224 547 224"/>
    <path class="st3" d="M675,438c0,2.3.4,7.1,0,9,.7,6.4,2.2-6.5,0-9Z"/>
    <path class="st3" d="M652,161c1.9.1,4.1,0,6,0-1-1.6-5-1.6-6,0Z"/>
    <path class="st3" d="M451,802h-2v64h2c-.1-21.3,0-42.7,0-64Z"/>
    <path class="st3" d="M675,546c0-.2-1-.8-1-1-2.8-.6-28.1-.6-31,0-.5.1-.7.7-1,1v31c.2,0,.6,0,1,0,8,1.1,20.4,0,29,0h3c-.2-10.3.3-20.7,0-31ZM673,576h-29v-29h29v29Z"/>
    <path class="st3" d="M612,610c0,0-1,.9-1,1l1-1Z"/>
  </g>
  <g>
    <path class="st8" d="M675,641v32h1v-31h30v-1h0c-10.3,0-20.7,0-31,0Z"/>
    <path class="st8" d="M674,316c0,28-.1,56,0,84v-84Z"/>
    <path class="st8" d="M674,219c0-8.7,0-17.4,0-26h-1c.6,8.5-1.3,17.9,1,26Z"/>
    <path class="st8" d="M674,305v-18c-1.7,5.1-1.7,13,0,18Z"/>
    <path class="st8" d="M674,278v-16c-1.7,4-1.7,11.7,0,16Z"/>
    <path class="st8" d="M674,417c0-4.3,0-8.7,0-13-2.2,3.4-.5,8.9-1,13h1Z"/>
    <path class="st8" d="M674,222c-1.7,2.3-1.7,8.5,0,11v-11Z"/>
    <path class="st8" d="M674,310c-1.6.4-1.5,3.7,0,4v-4Z"/>
    <path class="st8" d="M674,239c-1.6.4-1.5,3.7,0,4v-4Z"/>
    <path class="st8" d="M259,161l1,95c20.5-.6,42-.2,62.5,0,1.7,0,4.4-.6,5.5,1,7.3,0,16.7.8,23.6,0,1.4-.2,1.4,0,2.4-1v-31c10.7,0,21.4,0,32,0,0-8.2-1.3-23.9,0-31,.1-.7.3-1,1-1l61-1c1.1-1.1-1.7-25.2,1-30,.2-.4.7-.7,1-1l128-1c1-9.6-1.6-20.6,1-30h31v-1h-32c-.6,1.4-1.2.9-2.4,1-6.1.7-18.9.5-25.2,0-1.6-.1-2.1.3-3.4-1.1-1-1-.9-1-1-2.4-1-8.9.8-19.5,0-28.6h0c-63.7-.1-127.4,0-191,0l-1,31c-.1,1.4-1.5.9-2.5,1-16.9,2.1-42.5-.1-60.5,0-.7,4.8,1.4,28.6-1,30.6-.5.4-1.4.3-2,.4-4.8.7-21.6.7-26.5,0-1-.1-1.1,0-1.5-1-1.9-5.9,1.5-22.8,0-30,10,0,20,0,30,0v-1c-10.3,0-20.7,0-31,0,0,.8-.2,1.1-1,1v31c.3,0,.7,0,1,0Z"/>
    <path class="st8" d="M737,545h-30c2.6,2.5,23.9.2,29,1v63h1c0-21.3.8-42.8,1-64h-1Z"/>
    <path class="st8" d="M674,775.4c0-1.7,1.4-4.2,0-5l-31-.5c4.7,2.7,28.9-.1,30,1-1.2,10.1.4,19.8,0,30h2c-1.5-8.3-1.2-17.1-1-25.6Z"/>
    <path class="st8" d="M576,98c.2,8.5-.3,17.1,0,25.5,0,1.9-1,4,2,3.5.8-9.2.2-20.9-1-30h0c-10,0-20,0-30,0v1c9.7,0,19.4,0,29,0Z"/>
    <polygon class="st8" points="321 738 321 738 321 738 321 738"/>
    <path class="st8" d="M386,769l-63-1v-29.4c-.2-1.2-1.5-.4-2-.6,1.1,3-.3,20.4,0,25.5,0,1.9.5,3.7,1,5.5,10.6,0,21.3,0,32,0,10.6,0,21.3,0,32,0Z"/>
    <path class="st8" d="M614.5,900c-1.9,0-4,1-3.5-2h-1c-10.3,0-20.7,0-31,0h-33v30h95v-28c-8.8-.3-17.7.3-26.5,0Z"/>
    <path class="st8" d="M610,832c0,.5.8,1.4,1,2h31v-2h-32Z"/>
    <path class="st8" d="M259,482c-1.3,10-.9,20-1,30,3,.6,1.9-1.5,2-3.5.3-8.5-.2-17.1,0-25.5,8.6-.6,18.2.8,26.6,0,1.4-.1,2.3-1,2.4-1h-30Z"/>
    <polygon class="st8" points="416 898 416 898 416 898 416 898"/>
    <path class="st8" d="M387,898h-1c0,.7,0,1.3,0,2-10.7,0-21.4,0-32,0,0,9.2.8,19.2-1,28h1c20.7,0,41.4,0,62,0v-30c-1.3.8-24.9,0-29,0Z"/>
    <path class="st8" d="M643,706c-1.8,9.9-1,20.8-1,31h32c-4.8-2.7-28.9.1-30-1-1.1-6.7,2-25.2-1-30Z"/>
    <path class="st8" d="M641,738c.8,9.1-1.1,19.8,0,28.6.2,1.6.6,1.5,1.1,2.4.1-10.3,0-20.7,0-31h-1Z"/>
    <path class="st8" d="M387,323h-1v30c10.3,0,20.7,0,31,0v-1h-30v-29Z"/>
    <path class="st8" d="M321,288c0,.7.3.9,1,1,9.9.8,20.9-.6,31,0v-1c-3.7-2.6-28.9,0-30-1v-30h-2c-1.2,9.2,1.6,22.3,0,31Z"/>
    <path class="st8" d="M575.9,702.6c.2,1.6.6,1.5,1.1,2.4,1.5-4,2-31.4-.7-32-2-.5-5.9.1-8.3,0-2.7,0-5.3,0-8,0h0c-4,0-9.2.5-13,0,3.6,2.6,27.9,0,29,1,.8,9.1-1.1,19.8,0,28.6Z"/>
    <path class="st8" d="M610,729c0-6.2.4-12.9,0-19-3.2,3.5-2.2,11-2,15.5,0,1.9-1,4,2,3.5Z"/>
    <path class="st8" d="M546,641h-1c0,8.8-1.2,22.5,0,30.5.2,1.1,0,1,1,1.5,0-10.7,0-21.3,0-32Z"/>
    <path class="st8" d="M610,707c-.4-1-.4-.9-1.5-1-9.3-1.2-21,.9-30.5,0,.9.5.8.9,2.4,1.1,8.6,1,20.6,0,29.6,0Z"/>
    <path class="st8" d="M634.5,739c1.7,0,4.5.6,5.5-1h-30c1,.9.8.9,2.4,1.1,6.5.6,15.3,0,22.1,0Z"/>
    <path class="st8" d="M610,736c0,.1-.4-.1,0,1v-1Z"/>
    <path class="st8" d="M675,577h1c10,0,20,0,30,0-3.7-2.6-28.9.1-30-1-1-5.7,1.8-26.6-1-30,.3,10.3-.2,20.7,0,31Z"/>
    <path class="st8" d="M706,578c1,9.2,0,21.4,0,31h1c-.6-10.1,1.3-21.1-1-31Z"/>
    <path class="st8" d="M642,483h32v-1c-10.7,0-21.3,0-32,0v1Z"/>
    <path class="st8" d="M515,449c3.7-2.6,28.9,0,30-1,.6-9.5-1.3-19.8,1-29,0-.6,0-1.4,0-2h0c-10.7,0-21.4,0-32,0,0,10.7,0,21.4,0,32h1Z"/>
    <path class="st8" d="M576,480c-8.5.2-17.1-.3-25.5,0-1.9,0-4-1-3.5,2,8.6-.9,20,0,29,0,0-1,1.2-1.1,2-1,0-10.7,0-21.4,0-32h64v-1h0s0-6,0-6l-1,6h-65v32Z"/>
    <path class="st8" d="M451,193h94c-31.3,0-62.7,0-94,0Z"/>
    <path class="st8" d="M547,194h0v30c1.5,0,3.4,1,5.5,1,8.5,0,17.1-.1,25.6,0,0,10.3,0,20.7,0,31,1.7-1,1-3.8,1-5.5,0-9,.6-18.7-1-27.5h-30c-1-6.1,1.8-25-1-29Z"/>
    <path class="st8" d="M547,514v-1c0-1.5-1-3.4-1-5.5-.2-8.5.2-17.1,0-25.5-2.6,3.7.1,28.9-1,30-9.8.6-20.5-1.3-30,1,10.1-.3,20.1,0,30,1,.7,0,1.3,0,2,0Z"/>
    <path class="st8" d="M449,864v-30h-1c.6,9.8-1.3,20.4,1,30Z"/>
    <path class="st8" d="M579,835v-1h-1v30c2.3-9.2.4-19.5,1-29Z"/>
    <path class="st8" d="M674,673h-30c9.2,2.3,19.5.4,29,1,1.1,1.1-1.6,27.2,1,31-1.8-8.5,1.3-22.8,0-32Z"/>
    <path class="st8" d="M677.4,707.1c8.8,1,19.6-.9,28.6,0v-1h-31c1,.8.9.9,2.4,1.1Z"/>
    <path class="st8" d="M515,322.6c-.2-1-1.3-.7-2-.6h-64l-1-64h-61c1,3.1-.8,6.8-1,9h0c0,1,0,2,0,3,1.7,6.5,1.7,15.5,0,22,0,1,0,2,0,3,1.7,1.9,1.7,7.1,0,9,0,2.3,0,4.7,0,7,2.2,1.4.3,8.3,1,9,1.1,1.1,26.3-1.6,30,1,.9.4.8.3,1,1.5,1.2,8.1,0,21.7,0,30.5h1c32,0,64,0,96,0-1.4-8.2,1.9-23.1,0-30.4Z"/>
    <path class="st8" d="M519.4,321.1c19.1,1.1,39.4-1,58.6,0,0-21,0-42,0-63-9.3-.9-20.6,1.2-29.5,0-1-.1-1.1,0-1.5-1-.3,0-.7,0-1,0-2.3-9.9-.4-20.9-1-31h-29v94c.9,1.1,2.1,1,3.4,1.1Z"/>
    <path class="st8" d="M354,325v-4h-1l1,4Z"/>
    <path class="st8" d="M449,194h0v-1h-1v30c-18.8.5-37.8-.7-56.5,0-1.9,0-4-1-3.5,2,20.3,0,40.7,0,61,0,.1-.2,0-.6,0-1,1.1-8.2,0-21.1,0-30Z"/>
    <path class="st8" d="M386,256v-30h-1v30h1Z"/>
  </g>
  <g>
    <path class="st12" d="M354,97h6c.1-1.5,2.9-1.5,3,0h8l1.5-1,.5,1h11c1.3-1.7,5.7-1.7,7,0h12l.5-1,.5,1h9l.5-1,.5,1h35c1.3-1.7,5.7-1.7,7,0h4c.4-1.6,3.7-1.5,4,0,17.7,0,35.4,0,53,0l.5-1,.5,1h25l.5-1,.5,1h3c10,0,20,0,30,0h1v-3l-2,1h-253l-2,1v1h1c10.7,0,21.4,0,32,0Z"/>
    <path class="st12" d="M611,834h-1v64h1c10.3,0,20.7,0,31,0v-1c-.6-.2-1.6-1-2-1-.5,0-1.5,1-3.4,1.1-8.5.3-17.1-.3-25.6,0v-62h61c.3-.3.7-.6,1-1h-62Z"/>
    <path class="st12" d="M259,482v-1h-1c-.7,0-1.3,0-2,0v1c2.3,9.7.4,20.9,1,31,.2,0,.7,1,1,1v-2c0-10-.3-20,1-30Z"/>
    <path class="st12" d="M352,930c-10.3,0-20.7,0-31,0v-32c11,0,22,0,33,0,10.3,0,20.7,0,31,0,0-.5-.5-1-1-1-13.7-1.3-47.1-1.6-60.5,0-1,.1-3.5.5-3.5,1.5v32.5l98-1c-22,0-44,.1-66,0Z"/>
    <path class="st12" d="M547,930c-10.3,0-20.8.4-31,0-.3,0-.7,0-1,0,.5,1.5,1.3.9,2.5,1,39.5-2.2,82,2.8,121.2,0,2-.1,2.1-.5,3.4-1.1-31.7,0-63.3.1-95,0Z"/>
    <path class="st12" d="M482,898c.2,10.6,1.9,21.3,1,32h-34v1c10-.9,21.8,1.2,31.5,0,1-.1,3.5-.5,3.5-1.5v-30.5c7.5,1.6,16.7,1.3,24.5,1,1.9,0,4,1,3.5-2-9.5-.7-20.3,0-30,0Z"/>
    <path class="st12" d="M480,896c-8.5,2.6-19.9.2-29,1,0-10.3,0-20.7,0-31h-1v32c10.7,0,21.4,0,32,0,0-.7,0-1.3,0-2-.6.1-1.5-.2-2,0Z"/>
    <polygon class="st12" points="449 898 449 898 449 898 449 898"/>
    <path class="st12" d="M418,898c-1.1,1.1.7,26.3,0,31,2.6-3.7,0-28.9,1-30h30v-1c-10.3,0-20.7,0-31,0Z"/>
    <path class="st12" d="M513,898c0,8.8-.1,17.7,0,26.5,0,1.7-.6,4.5,1,5.5v-32c-.2-.1-.6,0-1,0Z"/>
    <path class="st12" d="M259,930c1,1.7,3.8,1,5.5,1,6.8,0,16.7.8,23.1,0,1-.1,2.3.3,2.5-1h0c-9.7-.9-21.6,1.2-31,0Z"/>
    <path class="st12" d="M257,900c-.6,6.2-.9,22.8,0,28.5.2,1.1,0,1,1,1.5v-31c-.5,0-1,.5-1,1Z"/>
    <path class="st12" d="M288.5,897c-9-1.1-20.3.9-29.5,0,9.9,2.3,20.9.4,31,1,0-1-.7-.9-1.5-1Z"/>
    <path class="st12" d="M768,766.6c.1,1.3-.3,1.7,1,2.4v-31c-.9,1.6-.9,1.4-1.1,3.4-.5,6.6-.6,18.6,0,25.2Z"/>
    <path class="st12" d="M227,386h159v-1h0s-160,0-160,0v32c.8-.1.9-.2,1-1,.9-4.5-1.1-28.9,0-30Z"/>
    <path class="st12" d="M290,440c0-7.3,0-14.7,0-22-.5,1.3-.9,1.4-1.1,3.4-1.4,18.9,1.1,39.5,0,58.6,0,.7,0,1.3,0,2,.3,0,.7,0,1,0-.2-12.3,0-24.7,0-37v-5Z"/>
    <path class="st12" d="M320,289c.2-.4,1-.8,1-1,1.6-8.7-1.2-21.8,0-31-19.1,0-38.4.3-57.5,0-1.7,0-4.4.6-5.5-1-.5.1-.8.5-1,1,.2,0,1.5,1,3.4,1.1,19.9.4,39.8-.5,59.6,0v29h-93v1l88,1c1.5,0,3.8-.3,5,0Z"/>
    <path class="st12" d="M866,743.5c0-1.7.6-4.5-1-5.5v30c1.8-7.6,1.1-16.6,1-24.5Z"/>
    <path class="st12" d="M289,705v31c.6,0,1.4,0,2,0-.2-10.2-1-21-1-31h-1Z"/>
    <path class="st12" d="M322,769c-.6-1.8-1-3.6-1-5.5-.2-5.2,1.1-22.5,0-25.5,0-.2-.8.1-1,0v1c-.9,9.9.8,20.5,1,30h1Z"/>
    <path class="st12" d="M194,418c7.5,3,21.5-.1,30,1,0,0,1.3-.2,1-1h-31Z"/>
    <path class="st12" d="M578,898v-1l-63-1c0,.9,1,1.8,1,2h62Z"/>
    <path class="st12" d="M578,834c-10.3,0-20.7,0-31,0v1h31v-1Z"/>
    <path class="st12" d="M676,673h-1c0,1,.7.9,1.5,1,8.3,1,20.7,0,29.5,0v-1c-10,0-20,0-30,0Z"/>
    <path class="st12" d="M610,737c.1.3-.2.9,0,1h32v-1c0-10.2-.8-21.1,1-31-.2-.4-.5-.8-1-1-.3,0-.7,0-1,0l-.5,1-.5-1c-9.4-.7-19.5.5-29,0v2c10,0,20,0,30,0v29h-30c0-9.7,0-19.3,0-29h-1c.2.6,0,2.1,0,3,.4,6.1,0,12.8,0,19,0,2.3-.1,4.7,0,7v1Z"/>
    <path class="st12" d="M545,832c2.3-9.9.4-20.9,1-31-10.7,0-21.3,0-32,0h0c-21.6-.1-43.3,0-65,0v1h96v30Z"/>
    <path class="st12" d="M451,220.5c.3-8.8-.2-17.7,0-26.5h94v29c-4.1.7-28.4-1-29.8.2-.5.4,0,1.6-.2,1.8,10.3,0,20.7,0,31,0,.2,0,.7-1,1-1v-29l-1-2c-.3,0-.7,0-1,0-31.3,0-62.7,0-94,0h-1l-1,1c0,8.9,1.1,21.8,0,30,3,.6,1.9-1.5,2-3.5Z"/>
    <path class="st12" d="M512.9,226.4v91.6c0,0-.9,1-.9,1h-61l-1-62v63c1.7-.2,4.3,1,6.5,1,16.8.7,40,1.2,56.5,0,.3,0,.7,0,1,0l1-85c0-1.3,0-2.7,0-4,0-.3,0-.5,0-1,.1-2,0-4,0-6-.2.2-2.4-.6-2.1,1.4Z"/>
    <path class="st12" d="M578,482h-2c-9,0-20.4-.9-29,0-.3,0-.7,0-1,0,.2,8.5-.2,17,0,25.5,0,2,1,4,1,5.5h3c8.1,0,17.5,1.7,25,1,.5-1.2,2.9-.9,3-1,1-1.2,0-26.7,0-31ZM576,512h-28v-29h28v29Z"/>
    <path class="st12" d="M322,320l2,1c8.9.6,19,0,28,0l2-1c0-10.2-1-21.3-1-31-10.1-.6-21.1.8-31,0v2c0,2,0,4,0,6,0,2.5.8,6.3-1,8,0,1.3,0,2.7,0,4,2.2,2.7.4,7.6,1,11ZM323,290h30v29h-30v-29Z"/>
    <path class="st12" d="M355,351c1.3-9-1-20.7,0-30h-1v4c0,8.4-.8,18.9,0,27,.5-.1.9-.5,1-1Z"/>
    <path class="st12" d="M547,610h1c9-.6,19.1.9,28,0,.5,0,.9-.5,1-1-9.7,0-19.3,0-29,0h-1v1Z"/>
    <path class="st12" d="M610,616h1c0-1.1-.2-4.2,0-5l1-1c5.9-1.9,21.9,1.4,29,0,1,1-.9,24.7,0,29,.1.5.7.7,1,1v-31c-10.7,0-21.4,0-32,0h0c0,2.3,0,4.7,0,7Z"/>
    <path class="st12" d="M547,516c0-.7,0-1.3,0-2-.7,0-1.3,0-2,0v95h1c.6-6.4-1.3-13.9,1-20,0-1.3,0-2.7,0-4-1.7-1-1-3.8-1-5.5,0-7.6-.7-16.3,1-23.5,0-3,0-6,0-9-1.7-1-1-3.8-1-5.5,0-6.7,0-13.4,0-20,0-1.7-.6-4.5,1-5.5Z"/>
    <path class="st12" d="M449,225c-20.3,0-40.7,0-61,0h-2v1c19,0,42.1,1.7,60.6,0,1.2-.1,1.8.3,2.4-1Z"/>
    <path class="st12" d="M386,256c1,0,1.9,1,2,1,20.3,0,40.7,0,61,0l-.6-2h-62.4v1Z"/>
  </g>
</svg>