<?xml version="1.0" encoding="UTF-8"?>
<svg id="_레이어_1" xmlns="http://www.w3.org/2000/svg" version="1.1" viewBox="0 0 1024 1024">
  <!-- Generator: Adobe Illustrator 30.1.0, SVG Export Plug-In . SVG Version: 2.1.1 Build 136)  -->
  <defs>
    <style>
      .st0 {
        fill: #014a4a;
      }

      .st1 {
        fill: #4cdfd2;
      }

      .st2 {
        fill: #c0fff3;
      }

      .st3 {
        fill: #29aba6;
      }

      .st4 {
        fill: #fefefe;
      }

      .st5 {
        fill: #072628;
      }
    </style>
  </defs>
  <g>
    <path class="st4" d="M835,418v31l1-30h29c-.8,20.7.7,41.4,1,62v-63h-31Z"/>
    <polygon class="st4" points="803 513 804 451 835 450 803 450 803 513"/>
    <polygon class="st4" points="771 546 772 515 803 514 771 514 771 546"/>
    <path class="st4" d="M548,385h-1v65c.7-21.6,1.5-43.3,1-65Z"/>
    <path class="st4" d="M522,609h-2c.5,1.9,1.4,1.9,2,0Z"/>
    <path class="st4" d="M520,609h-5c.5.9,2.2.9,5,0Z"/>
    <path class="st4" d="M536,609h-9c1.6,2.8,7.5,3,9,0Z"/>
    <path class="st4" d="M546,609h32c-10.6,0-21.4-.2-32,0Z"/>
    <path class="st4" d="M546,609h-2c.6,1.9,1.4,1.9,2,0Z"/>
    <path class="st4" d="M357,546h29c-9.6,0-19.4,0-29,0Z"/>
    <path class="st4" d="M355,546h2c-.6-1.9-1.4-1.9-2,0Z"/>
    <path class="st4" d="M482,417v-32l-1,1c-.9,10.3.8,20.8,1,31Z"/>
    <path class="st4" d="M546,385v-1l-1.2-2h-60.9l-.9,2-1,1c21.3.5,42.7-.6,64,0Z"/>
    <path class="st4" d="M290,482c-10.3-.4-20.7-.4-31,0l29,1,3-1c-.4-.9-.7-.9-1,0Z"/>
    <polygon class="st4" points="259 384 259 385 322 385 259 384"/>
  </g>
  <g>
    <path class="st5" d="M194,321.9c-4.6-2-9.4-2-14,0-3.5-1.7-7.5-1.7-11,0-1.3-2-2.7-1.9-4,0-.6-1.9-1.4-1.9-2,0,1.7-32.3,1.6-64.8,0-97,1.6-21.2,1.6-42.8,0-64,0,0,0,0,0,0h-.2c-2.8,0-32-1.6-32,0v161c10.6,0,21.4-.1,32,0,0,21,0,42,0,63h-32v64h-63v65c10.7,0,21.4-.2,32,0v32h31v32h32v32h64v32h32v128h32v127h-32v65h479l1-1v-63h95v-32h32c0-10.7-.2-21.4,0-32l-1.2-2c-10.2-.5-20.3-.3-30.4.7l-.4,2.3v26c-1.2,1.4-1.9,2.7-2,4l-59.5-.5c-1.3-41.7-1.8-83.5-1.5-125.5,1.9-.6,1.9-1.4,0-2-.6-1.9-1.4-1.9-2,0l-29.5-.6c-.6-19.8-.8-39.6-.5-59.4l-1-3c1.5-31.9,1.6-64.1,0-96,1.6-1.3,1.7-8.3,0-10,.6-7.2,1.1-15.2,0-22-.2-.5-.3-1.1-.7-1.3-1.2-.9-26,0-28.9.3-.6,0-1,.5-1.4,1-.8.5-.9.8,0,1-1.8,9.5-1.5,20.5,0,30l-1,1c-10.6-.8-21.4-.9-32,0-10.3-.8-20.7-.8-31,0-.9.4-.9.7,0,1-.8.2-1.5.7-2,1.4-.8,1.1-1,23.6-.9,26.6,0,.6,1.2.9,2,1-10.7.4-21.4.7-32,1-10.9-.7-21.6-.7-32,0l-2,1.5c-.8,6-.7,23.7,0,29.7,0,.6,1.2.9,2,.9h32c9.8.7,19.8.7,30,0,.3.8.7,1.3,1,1.6-.4,5.4-.7,31.1,1.6,31.5.4,0,.9,0,1.4-.2l28.6.5c0,.2,0,.4.1.6.7,10.2,1.1,20.6,1.3,30.9,10,.5,20.2.7,30.5.5.5,2.2,1.1,1.8,1.5-.5v28.5l1.1,1.5c-1.9.6-1.9,1.4,0,2,.5.9.8.9,1,0,9.2.4,18.5.4,28,0,.4.9.7.9,1,0l1,3.6c-.5,41.2,0,82.3,1,123.4l-2,1.1c.4,9.9.2,19.8-.5,29.7l-23.3.2c-2.2.3-4.3.9-6.2,2l-3.1-2c-4.8-.5-25.9-.8-28.5,1.4-.6.5-1,1-1.4,1.6l1.4,2c5.2.8,23.2.6,28.7,0,.6,0,.9-1.2.9-2v30c-.4-.9-.7-.9-1,0l-29.9-.5c-.6-2.4-1.8-1.9-2.1.5-31.4-1-62.7-1-94,0-10.1-3.2-21.8-3-32,0,.9-.2,1.5-.7,2-1.4.8-1.2.2-25.4,0-28.7,0-.2,0-.3-.2-.4,9.8,2.5,20.7,2.5,30.2-.5,21.3,1.3,42.7.9,64,0,1.8.9,2.3.4,1-1v-30c.9-.4.9-.7,0-1-.6-.7-1.6-1-3-1-2.5-1-5.4-.8-8,0h-21c-10.5-.6-21-.7-31.5-.6-.3-20.8-.5-41.6-.5-62.4,3.2-10.3,3-22.6,0-33-10.8-2.8-22.2-2.9-33,0v33c-.8,10.6-.8,21.4,0,32-.8.5-.9.8,0,1l-.5,29.5c-10.2-.3-20.4,0-30.5.5,1.2-.2,1.5-.5,1-1h0c.8-.3,1.7-.7,2-1.5.5-1.3-.6-24.6-.9-27.7,0-.5-1.2-.8-2-.8l-1,1.5v29.5c.4.8.7.9.9.3-3.1,10.2-2.9,22.4,0,32.7l-2,1.5c.4,9,.2,18.1-.5,27.1l1.5,1.4c-10.7.4-21.4.7-32,1-21.4-.3-42.7-.3-64,0-.5-.8-.8-.9-1,0-10-.4-20-.4-30,0,1.5-.2,1.7-.7.5-1.4v-28.1c1.4-.3,1.7-.6,1.2-.9l28.3-.5,2-1.4.9-28.4,30.2-.2.9-2c.9-.5.9-.8,0-1,.8-2.9.8-6.1,0-9,.1-7.6-.2-14.9-1-22-10.4-.8-21.9-.8-32,0-10.4-.4-20.7-.4-31,0-.5-.8-.8-.9-1,0-.8,9.9-.8,21.3,0,31-1.5,10.2-2.6,20.6-1.5,31l-29.7.9-.8,2-.5,28.6c-1.6.2-2,.5-.7.9l-60.8.5,2-1.5-.9-27.5,29.1-1,.8-2v-30c2.5-.8,2.7-1.7,0-2,.7-21,.7-42,0-63,2.8-10.9,2.8-22.1,0-33,3-10.5,3.2-22.5,0-33-2-1.8-2.8-1.5-2,1l-2,1.4c-.6,5.6-.8,23.5,0,28.7.1.6,1.2.9,2,.9-8.3.8-16.6,1.2-25,1-.9-1.6-1.5-2.4-3.1-2,1-10.4.3-20.4-1.9-30,.8-9.9.8-19.9,0-30,1.9-.6,1.9-1.4,0-2,1.5-10.3,1.5-20.7,0-31,3.1-10.5,2.9-22.5,0-33,3.2-10.1,3-21.8,0-32-10.6-.8-21.4-.8-32,0-.6-1.9-1.4-1.9-2,0-10,.2-20-.2-30-1l2-1.5v-26.1c10,1.1,20.1,0,30-1.5.9-.4.9-.7,0-1l-5.3-1.4c-19.5-.4-39.1,0-58.7,1.4-.9-1.9-2.1-1.9-3,0h-15c-1.4-3.1-6.5-2.9-8,0-2.4,0-3.9-.9-4.5-2.3.5-10.2,0-20.1-1.5-29.7.9-.5.9-.8,0-1-9.8-.5-19.7-.7-29.6-.5,0-.3,0-.5-.1-.7-.7-9.8-1.1-19.8-1.3-29.8-9.9-3.2-22-3-32,0,1.8-10.5,2.7-21.2,2.5-32l1.5,2c2,.6,22.3.3,25.6,0,.6,0,.9-1.2.9-2,1.5,1.3,2.5-.3,1.5-1.5.6-9.5.8-19.2.5-29,2.2-.4,1.8-1.1-.5-1.5,9.9.8,20.1.9,30,0,.5.9.8.9,1,0,.9-.5.9-.8,0-1v-1c3.2-9.2,3-20.7,0-30l2-3.2c.5-5.9.9-19.6.5-25.4,0-1.3-.8-2.4-1.5-3.4l1.4,2c4.1.8,21.4.5,27.1,0-1,1.9-1.2,4.1-.7,6.8,0,5.8,0,14.7,3.2,19.1.9-9.3.7-18.8,0-28,1.9-.6,1.9-1.4,0-2,.7-10,.7-20,0-30,1.9-.6,1.9-1.4,0-2l.5-28.6c2.2-.4,1.7-1-.5-1.4-.5-.9-.8-.9-1,0ZM677,671c.7-6.4.6-23.3,0-29.1,0-.6-1.2-.9-2-.9-10.2-3-21.9-3.2-32,0,3.2-9.8,3-21.1,0-30.9l1.2,2h58.8c.4,0,.7,0,1,0v58.9c-5.8-.5-20.8-.7-26.9,0Z"/>
    <path class="st5" d="M291.1,129s0,0,0,0c0,0,0,0,0,0,0,0,0,0,0,0Z"/>
    <path class="st5" d="M291,97h-32v-32h-64v32h-32c0,21.3,0,42.6,0,63.9.9,2.2,1.6,2.8,2.1.5l26.9-.5c.8,2.5,1.7,2.7,2,0,.4,21.4.7,42.7,1,64,10.1,2.9,20.9,2.9,31,0l-2,1.2v61.8c-5.2-.3-25.7-.6-28.1,0-.6.2-.8,1.2-.9,2-.8,10.3-.8,21.9,0,32,9.9.3,19.9.6,30,1-.8.3-1.7.6-2,1.4-.5,1.4-.2,25.5,0,28.7,0,.6,1.2.9,2,.9.8,2.5,1.7,2.7,2,0,.5-10.6.8-21.4,0-32,1.9-.6,1.9-1.4,0-2l.8-29.5,29.2-.5c1.7,1.4,3.5-1,2-2,.4-10.4.4-20.8,0-31l2-1.5c.5-5.6.9-24.5,0-29.6,0-.6-1.2-.8-2-.9,1.5-.2,1.8-.7.5-1.4l-.5-30.6c-10-.5-20.2-.7-30.5-.5-.8-10.4-1.3-20.9-1.4-31.5.8-10.2,1-20.8,0-31-3.2-5.4-6.7,5.3-2,6l-.7,24.5-28.3.5,2-1.2c-.4-19.9-.7-39.8-1-59.7,5.7.5,22.6.8,27.6,0-1.1,2.2-1.4,4.8-.8,7.8,0,6.5,0,15.9,3.2,21.1.2,1.5.7,1.7,1.4.5l30.6-.5c9.6.7,19.3.7,29,0,1.1,2.5,1.9,2.5,3,0,0,0,0,0,0,0,0-10.7.1-21.3,0-32Z"/>
    <path class="st5" d="M864.8,800.9c-2.3,2.4-1,27.6,1.2,33.1,10.3-.2,20.7.2,31,0v-1c.2-10.3-.3-20.7,0-31-5.3-2.2-29.9-3.4-32.2-1.1Z"/>
    <path class="st5" d="M930,609v-128h-33v-96h-62v32h-32v32h-32v-32h-32v-63h32v-64h32v-161c-10.7-.1-21.3,0-32,0,0-21.3,0-42.7,0-64h-65v32h-63c0,10.7,0,21.3,0,32-10.6,0-21.3,0-32,0,0,10.6,0,21.4,0,32-10.6,0-21.3,0-32,0-.4,10.6.3,21.4,0,32-74.6.4-149.4-.3-224,0v-32h-32v-32c-10.6,0-21.4,0-31.9,0-3,10.2-3.2,21.8,0,31.9.4.9.7.9,1,0,9.3.6,18.6.6,28,0,.7,2.3,1.3,2.1,3,1-.4,10.6-.4,20.9,0,31,.4.9.7.9,1,0,9.2.4,18.5.4,28,0-.5,2.7.6,3.4,2,1-.4,10.6-.4,20.9,0,31,.4.9.7.9,1,0,13,.5,26,.5,39,0,50.7.8,101.4.8,152,0,5.7,2,30.7,3.6,33,1.3,2.6-2.6,2.9-28.5,0-33.3,10.2,3,21.9,3.2,32,0,3-10.3,2.9-21.6,0-32,10.2,2.9,21.9,3.2,32,0,3.2-10.1,3-21.8,0-32,10.4,2.9,21.7,3,32,0,9.5.7,19.2.7,29,0,.6,1.9,1.4,1.9,2,0l2-1.4c.2-3,.4-21.7-.3-27.5,6.2.6,22.2.8,29.2.1-.8,6-1.3,22.6-.8,28,0,.6,1.2.9,2,1,.5.9.8.9,1,0h28c1.3,1.9,2.7,1.9,4,0-2.4,22-2.7,44.1-1,66.2v92.8h-27.9l-.7-69.1c-.4-4.4-1.2-8.7-2.5-12.9-.8.3-1.7.6-2,1.4s-.2,15.2,0,16.7c0,.6,1.2.8,2,.9-1.6,32.2-1.4,64.8,0,97l-2,1.1c.4,9.7.2,19.2-.5,28.9h-23.3c-2.2.2-4.3.9-6.2,2l-1,.7v60.8l1,1.5,1.4,2,28.4.9.2,61.1,2,.9c10.2.4,21.3.5,31,0h1c-.9,0-1.2,1-1,2.9v26.7c-1.7.5-.9,1.1,1,1.4l-1,1c-.4-.9-.7-.9-1,0h-1c-.2-.6-.5-1-.7-1-9-.3-19-.3-28,0,0,0-.3.4-.3,1v1c-1.5,10.3-1.5,20.7,0,31l.7,1.3c10.3-.7,20.8-1.1,31.3-1.3l.5-30.5c1.5-.2,2-.5,1-1l30.5-.5c.9-.4.9-.7,0-1l.5-61.5c1.2-.1,1.7-.4,1-1l30.5-.5c.9-.4.9-.7,0-1l.5-29.6c1.4-.3,1.7-.6,1.2-.9h27.8c.3,1.4.6,1.7.9,1.2l.5,61.3c-.8,11-.4,22,0,33,.4.9.7.9,1,0l29.6.5c1.2,2.5,1.6,5.7,1.4,9.5-2.8,2.1-3,7,0,9v6c-1.9.9-1.9,2.1,0,3v2c-1.9.6-1.9,1.4,0,2-.7,31.6-.8,63.4,0,95,.5.8.8.9,1,0h30l-2,1.2c.4,31.7.7,63.3,1,94.8h-29c-1.2,3-2.3,6-2.5,9.2-1.3,18.2-2,37.9.5,55.8,11-.2,22,.2,33,0v-64h32v-129h-32Z"/>
    <polygon class="st5" points="163 160.9 163 160.9 163 160.9 163 160.9"/>
    <path class="st5" d="M547,385h-1c-21.2-1.1-42.7-.6-64,0-.7,10.6-.7,21.3,0,32,.5,21.6-.4,43.4,0,65h65c.3-10.6-.3-21.4,0-32,.8-21.9.8-43.6,0-65Z"/>
    <path class="st5" d="M387,482l-1-1h0c0,.1-63,.1-63,.1v65h32c.8-.7,1.5-1.7,2-2.9v-27.7c9.4,1.1,18.7,0,28-1.5.8,2.5,1.7,2.7,2,0v-32Z"/>
    <path class="st5" d="M355,770.9v-1l-.6,32.1,32.6.9v-1c-10.2,0-20.7.2-30.9,0-1.8-1.8-1.1-26.3-1.1-30.9h0Z"/>
    <path class="st5" d="M195,416l-2,2h2v-2Z"/>
    <path class="st5" d="M488.7,898.8c-2.3,0-4.5,0-6.7.2l6.7-.2Z"/>
    <path class="st5" d="M513,898l-24.3.8c8.2.1,17.2,1.3,24.3-.8Z"/>
    <path class="st5" d="M705.9,198l.9-3.5c.7-.3.7-.9.5-1.5,9.9.4,20.1.4,30.7,0,0-1.6-.2-3.4,0-5,1.3-8.7,1.6-17.7,1-27h-1c-10.5-.4-20.9-.4-31,0l-1,.7v29.9c0,0-.2,0-.3,0-.5,0-1,.1-1.2.8l-30.5.5h0v1l-.5,29.6c-1.5.1-2,.4-1,.9l-29.6.5v32c10.5-.2,21.5-.6,32,1,.8-.5.9-.8,0-1,.5-10.5.8-20.9.5-31.4,9.8.1,19.7,0,29.5-.6.5.9.8.9,1,0,0-8.2,1-19.2,0-27Z"/>
    <polygon class="st5" points="675 290 704.1 291 704 290 675 290"/>
    <polygon class="st5" points="704.1 291 706 322 705 291 704.1 291"/>
    <path class="st5" d="M735,322h-27c6.3,1.2,19.7,0,27,0Z"/>
    <path class="st5" d="M707,322h1c-.4-.9-.7-.9-1,0Z"/>
    <path class="st5" d="M290,482h1v-31l31-1,1-1v-64c-.4-.9-.7-.9-1,0-21.2-.4-42.2-.4-63,0l-1,6.8,1,88.2v1c10.2.8,20.5,1,31,1Z"/>
    <polygon class="st5" points="291 225 290 225 291 257 291 225"/>
  </g>
  <g>
    <path class="st0" d="M772.2,673.3c0-.9-15.9-3.2-16.2-.3-5.4-.6-10.8-.6-16,0l-1,1.2c-.3,20.8-.1,41.5.6,62.3l29.4.5h2c2.3-20.7,3.4-42.9,1.2-63.7Z"/>
    <path class="st0" d="M929,641h.1c0,0-31,0-31,0-3.1,31.9-3,64.1,0,96-.3-.8-.7-1.6-1.5-2-1.4-.7-26.3-.2-29.7,0-.6,0-.9,1.2-.9,2l-2,1.5c-.8,2.6-.3,23.4,0,29-5.5-.7-25.8-.5-29.1-.4-.6,0-.9,1.2-.9,2l-2,1.5c-.6,8.6-.6,20.5,0,29.4-3.9-.3-22.7-.1-27.3,0,.8-1.7.9-3.9.4-6.9.5-17.9.6-37.4,0-55.2,0-.5-1.2-.9-2-.9-10.1-3.1-21.8-2.9-32,0v2l.7,125.5,60.3.5h2c0-1.3-.2-2.7,0-4v-26c1.9-1.9,27.1-.9,32-1,.2-10.6,0-21.3,0-32,10.3,0,20.7.2,31,0,.7-21.6.7-43.4,2-65h29l2-.6-1-95.4Z"/>
    <path class="st0" d="M385,865l-1.2-2h-58.9l-.9,2c-.4-.9-.7-.9-1,0v32l-32,1,1,31,61.5-.6.5-29.4,32-1v-33c-.4-.9-.7-.9-1,0Z"/>
    <path class="st0" d="M611,769c.9-.5.9-.8,0-1,2.7-4.5,3.4-17.7,2.2-22.9-.3-1.3-1.2-2.3-2.2-3.1.4-1,.7-2,0-3,.9-.4.9-.7,0-1h0s-.7-1-.7-1h-64.3c-.9.4-.9.7,0,1v31h33c3.2-9.4,3-20.5,0-30l1.4,2c4.9.8,21,.6,27.5.1-.4,5.5-.7,23.7,0,27,0,.2.2.4.4.5-9.8-2.3-19.6-2.3-29.4.4-.2,11,0,22,0,33,.4.9.7.9,1,0l1.4,2c3.4.2,27.5.8,28.7,0,.4-.2,1.8-1.4,1.8-1.5,2.4-10.1,1.7-23.4-.9-33.5Z"/>
    <path class="st0" d="M483,801v-32c-10.6-.8-22.3-.8-33,0-.2,10.7.1,21.3,0,32l-1.7-1.4c-9.8.6-19.6.8-29.5.4l-.8,2c-2.5,10.3-3,21.1-.9,31.5,0,0,2.9.3,2.9-.5.8-.3,1.7-.6,2-1.4.5-1.2.2-22,0-27,4.7.6,19.8.6,24.9.4-.7,4.8-.3,22.9.1,27.1,0,.6,1.2.9,2,.9,0,.8.4.9,1,1l1,22c.5-17.8.7-35.7.9-53.5l30.1-.5c1.8.9,2.3.4,1-1Z"/>
    <path class="st0" d="M737,865h-30v33c10.2-.2,20.5,0,30.8-.2,2-1.2,1.2-28.2,1.2-32.8-.8-2.5-1.7-2.7-2,0Z"/>
    <path class="st0" d="M418,866l-1,32c-9.9,0-19.6.3-29,1-.8,9.3-.8,19.9,0,29,9.5.7,19.2,1,29,1h1c.9-.4.9-.7,0-1v-30h33c-1.2-10.5-.2-21.4,0-32h-33Z"/>
    <path class="st0" d="M291,641h32v-32h-32c0,10.7.1,21.3,0,32Z"/>
    <path class="st0" d="M546,641h32v-32h0s-32,0-32,0c-.5.2-1,.4-1.3.7-1.1,1.1-.9,26.7-.7,30.4,0,.6,1.2.9,2,.9Z"/>
    <path class="st0" d="M387,833c.9-.4.9-.7,0-1v-29c-10.5-.4-21-.9-31.4-1.5-1-9.6-1.2-20-.6-31.5.9-.4.9-.7,0-1h0c0-.1-32-.1-32-.1v33c.4.9.7.9,1,0l1.4,2c4.7.7,20.3.6,26.6.1-.4,5.9-.8,25.3,0,29.1.1.6,1.2.9,2,.9,9.8,3.1,21.2,2.9,31,0,.5.9.8.9,1,0h1c.9-.4.9-.7,0-1Z"/>
    <path class="st0" d="M579,928v-29c0-.5-.2-.9-1-1-10.7,0-21.3,0-32,0v31c10.7,0,21.3,0,32,0,1.2-.3,1.5-.6,1-1Z"/>
    <path class="st0" d="M513,898c-10.3.8-20.6,1.1-31,1v29h32c1.8-1,1-25.8,1-30-.6,0-1.5-.2-2,0Z"/>
    <path class="st0" d="M296,769c8.4.2,16.7-.2,25-1v-31l-27.7-.6c-1-1.3-1.8-1-2.3.6.1,10.6,0,21.3,0,32,1.6.2,3.4-.2,5,0Z"/>
    <path class="st0" d="M227,608c10,.8,20,1.2,30,1h2v-30h-32v29Z"/>
    <polygon class="st0" points="674 928 704 929 705 929 705 899 674 899 674 928"/>
    <polygon class="st0" points="545 803 545 803 545 803 545 803"/>
    <path class="st0" d="M545,834l-1.5-2c-7.1-.5-17.8-.5-25.3,0,.5-3.9,0-22.6-.1-27.3,5.2.7,23.2.6,26.1.4.6,0,.9-1.2.9-2l-1.4-2c-1.9-.6-24.3-.3-27.7,0-.6,0-.9,1.2-.9,2-1.6,10.3-1.6,20.7,0,31l1,30h29l1-29v-1c-.4-.9-.7-.9-1,0Z"/>
    <path class="st0" d="M707,834l1-95c.9-.4.9-.7,0-1h-1c.5,32-.4,64,0,96Z"/>
    <path class="st0" d="M707,546c0-.5,1-1.5,1-2,1-1.3,1.7-2.7,2.1-4.4v-22.6h26l.9-2h.1c-9.8-1.8-20.1-1-30-1l-1,31-1,1c-10.3,1-20.9-.9-31-1-1.9.6-1.9,1.5,0,2l1.5,1.7,28.3.3,1.1-2h2v-1Z"/>
    <path class="st0" d="M610,578c-.9.4-.9.7,0,1h33v-1c-11,0-22,0-33,0Z"/>
    <path class="st0" d="M738,568c1.8-6.8,1-14.9,1-22h-1v22Z"/>
    <path class="st0" d="M643,866v-1h-3l3,1Z"/>
    <path class="st0" d="M704.9,353.9c.6,1.9,1.4,1.9,2,0,10.2-.1,20.5.3,30.8-.1,2-1.3,1.2-27.4,1.2-31.9-.8-2.5-1.7-2.7-2,0h-30c-.4-.9-.7-.9-1,0l-1-31c-9.9-.7-19.9-1-30-1,.8-10.6.8-21.4,0-32-.5-.6-1-1.2-1.6-1.6-2.9-2.2-22-2-26.9-1.5l-3.5,2.1-1.4-1.9-28.5,1.3v-62.4l-2-.9c5.9,2,30.7,3.6,33.2,1.1s.9-27.3-1.2-33.1c9.6,2.2,23.2,3.5,32.8,1.3,1.7-.4,1.4-28,1.2-31.4,0-.5-1.2-.9-2-.9.9-.4.9-.7,0-1h-.2c-10.7,0-21.4-.1-32,0,0,10.6,0,21.4,0,32-10.7,0-21.3-.1-32,0,0,10.6,0,21.4,0,32-10.7,0-21.3,0-32,0-.3,10.7,0,21.4-1,32-10.7,0-21.3-.1-32,0-.9.4-.9.7,0,1l-2,1.4c-.5,4.6-.8,20.9-.2,26.6h-154.3c.2-4.3-1-18.7-1.4-21.1,0-.6-1.3-.9-2.1-1-.8,7.6-.6,16,0,23.8,0,.4.5.8,1.1,1.2v1l157.8.5c1,10,1.4,20.1,1.2,30.5,2.3,2.3,56.1.9,64,1,10.5,3.2,22.5,3,33,0-.9.3-1.5.8-2,1.5-.8,1.2-.2,26.2,0,29.6,0,.5,1.2.9,2,.9l1.4,2c4.3.8,21,.5,27.5,0-.6,4.4-.2,25,.1,29,0,.6,1.2.9,2,.9,9.8,3.1,21.2,3,31,0Z"/>
    <path class="st0" d="M739,206c1.1,28,1.2,56,1,84h30v-2l-1-95h-22l-6.9-.5c-.6-1.3-.9-1-1.1.5-3,3.5-3.1,9.7,0,13Z"/>
    <path class="st0" d="M325,225l-1-31c.9-.4.9-.7,0-1h-1c0,4.8-.9,30.1,1,32h1Z"/>
    <path class="st0" d="M195.5,322.7l-.5,29.3v2c.4.9.7.9,1,0h29v-31c-9.8-.8-19.7-.8-29.5-.3Z"/>
    <path class="st0" d="M163,450h-1.1v1s-2,1.5-2.1,1.5v25.5h-25.9l-.9,2v2h30c.1-10.6,0-21.4,0-32Z"/>
    <path class="st0" d="M224.5,160.4l.5-24.4c.1-2.8-1.2-6.9,2-6,.9-.5.9-.8,0-1-.4-10.3-1.8-20.7-1-31h-31l1,63,28.5-.6Z"/>
    <path class="st0" d="M165,225h29c1.1-20.9.6-42.9,0-64h-2l-27.7.5c-.3,20.9-.6,42.3-.3,63.2,0,0,.4.2,1,.3Z"/>
    <path class="st0" d="M738,129l1-31h-33v31c10.6-.2,21.4,0,32,0Z"/>
    <path class="st0" d="M320,193l-28-1v-30c.9-.4.9-.7,0-1h-1c.1,10.6,0,21.4,0,32h29Z"/>
    <path class="st0" d="M357,546h29c1.9-1.9,1-27.2,1-32h-2l-2,1.4v26.5h-25.2c-2,.3-2.8,3.7-.8,4.1Z"/>
    <path class="st0" d="M195,418c-.2-.5-.4-.7-.6-.7.3-.3.5-.8.6-1.3v-2c-.4-9.3-1.8-18.6-1-28h-30c-1.7,10.6-.8,21.3-1,32,.3.8.6,1.7,1.4,2,1.3.5,24.6.2,27.7,0,.6,0,.9-1.2.9-2,.5,0,.9-.2,1.2-.4,0,.1-.1.2-.2.4v30c-8.5.2-17.1-.3-25.6,0-1.9,0-4-1-3.4,2,10-.2,20,0,30,0,0-10.6.1-21.4,0-32Z"/>
    <path class="st0" d="M163,514h-30v1l1.5,2h25.5v26.1l2,.9,1,1c-.4-10.2.3-20.7,0-31Z"/>
    <path class="st0" d="M767,578c-2.2-.3-4.7,0-7,0h-20v1h31l-1-1h-3Z"/>
    <path class="st0" d="M739,514h-1c.3.4.7.7,1,1v-1Z"/>
    <path class="st0" d="M259,225v32c.2,1,.5,1.3,1,1,8.8,1.1,20.8-1.8,30-1v32l-30,1h31v-33c.1-10.9-.3-21.6-1-32l-29.6-.5c-.4-2.2-1-1.8-1.4.5Z"/>
    <path class="st0" d="M260,160v-30l-1,31h30l-29-1Z"/>
    <path class="st0" d="M259,177c0-5.3.5-10.8-1-16h-30v1h29c1.2,1.2-2.5,14.7,2,15Z"/>
    <polygon class="st0" points="259 482 290 482 259 481 259 482"/>
    <path class="st0" d="M195,290h31v-65h-31c.1,21.6,0,43.4,0,65Z"/>
    <path class="st0" d="M520,609h-5v31l.9-29.4c0-.3,3.4-1.4,4.1-1.6Z"/>
    <path class="st0" d="M527,609h-1.6c.5,0,1.1,0,1.6,0Z"/>
    <path class="st0" d="M522,609h3.4c-1.2,0-2.4-.1-3.4,0Z"/>
    <polygon class="st0" points="833 705 835 705 835 674 803 674 833 675 833 705"/>
    <path class="st0" d="M676,256c-.6.4-.7.7,0,1l30,1v-33h-1c-.9.4-.9.7,0,1l-2,1.4v26.6h-26.1l-.9,2Z"/>
  </g>
  <g>
    <path class="st2" d="M673.9,514c.8-.3,1.7-.7,2-1.5.6-1.4.2-26.3,0-29.7,0-.5-1.2-.9-2-.9-.3-.8-.6-1.7-1.4-2-1.3-.5-21.7-.2-27.5,0,.4-3.9,0-25.9,0-29,0-.6-1.2-.9-2-.9-1.5-2-4.5-2.8-8.9-2-17.5-.5-36.7-.6-54.1,0v-61.1l-2-.9-3.2-1.8-23.5-1-3.2,1.9-.4-.2c-.4,21.6-.8,43.3-1,65-3.5,9.3-3,22.5,0,32h-65c.5-1.4,1-2.9,1.3-4.3.3-1.4.6-2.9.6-4.3.4-17.3.6-34.8-.5-52l-1.4-4.3c-.2-10.4-.5-20.7-1-31l-1.4-2c-1.9-.6-24.3-.3-27.7,0-.6,0-.9,1.2-.9,2-.5.2-1,.4-1.3.7-1.1,1.1-.9,25.9-.7,29.5,0,.5,1.2.9,2,.9l1.4,2c4.7.5,20.8.8,26.6.1v60.7c-4.7-.7-22.9-.3-27.1.1-.6,0-.9,1.2-.9,2l-2,1.5c-.9,4-.5,22.2,0,28.6-1.2-.4-2.7-.5-4.7,0-17-.8-37-.6-54.1,0,.4-4-.6-25.7-1-29.1,0-.5-1.2-.8-2-.8-2.8,10.6-2.7,21.4,0,32l-1,.5-.2,29c-1.3.9-1.3,1.7.2,2.4h-63c.9-.4.9-.7,0-1v-31c2-11,2-22,0-33l-2,1.4c-.8,3-1.1,23.1-.9,29.5-3.7-.3-21.7-.1-26.9,0,.2-5.1.6-23,0-25.6-.9-3.4-1.5-3.7-5.1-3.3-9.5-.7-19.2-1-29-1-10.6-2-21.4-2-32,0l2-1.5c.8-5.7.7-23.6,0-29.6-.1-.6-1.2-.9-2-.9-.2-.5-.4-1-.7-1.3-.9-1-22.3-.9-28.3-.7v-58.9c3.7.3,24.3-.6,27.2-1,.5,0,.8-1.2.8-2l-1.4-2c-5.5-.8-23.1-.6-28.7,0-.6,0-.9,1.2-.9,2-.2,9.3.2,18.7,0,28-1.8.9-1.9,1.7,0,2-.8,1-.8,1.7,0,2-.3,10.4-.6,20.7-1,31-9.8-.5-19.5-.2-29,1-.6-1.9-1.4-1.9-2,0,0,10.5-.5,20.8-1.4,31h-28.2l-.3,1c-2.7,5.4-3.8,24.9-1.4,29.8.4.8.9,1.5,1.4,2.2,9.4.5,18.9.7,28.6.5l1,1.9c-.3,9.6,0,19.1.5,28.6v1c.8,2.5,1.7,2.7,2,0,9.3,3.1,20.8,3.3,30,0l3.3,1.9c5.9.2,20-.2,25.5-1.1.5,0,1-.3,1.4-.5h-.1c-.8,3.9-.5,21.5,0,27.7l-27,.8-.9-27-2-.8-2,1.4c-.4,4.9-.9,24.7,0,28.7,0,.6,1.2.9,2,.9,21.3.3,42.7-.3,64,0,10.5.4,21,.7,31.5.8l-.5,29.2-1.4-2h-26.6v-26.1l-2-.9c-.5-.6-.8-.7-1,0l-2,1.4c-.6,1.9-.3,24.3,0,27.7,0,.6,1.2.9,2,.9,10.6,0,21.4,0,32,0h65c20.2,2.5,40.6,3,61,1.5v28.6c-6.4-.6-23.6-.7-29.1,0-.6,0-.9,1.2-.9,2l-2,1.5c-.9,3.8-.4,24.3,0,29.1,0,.1,0,.2.1.3-.4,0-.6.1-.6.4l-.2-.3h-58.2c.7-5.9.6-21.2,0-28,4,.5,25-.8,28.1-1,.5,0,.8-1.2.8-2l-1.5-2c-5.9-.6-23.9-.8-29.6,0-.6,0-.9,1.2-.9,2-3,10.7-2.9,22.3,0,33-3.2,9.4-3,20.5,0,30l-1.4-2c-4-.4-21.1-.7-26.5-.2.6-5.9.5-22,0-26.9-.1-.6-1.2-.9-2-.9-.8-2.5-1.7-2.7-2,0v31l1.5,2h28.4c-.8,10.1,0,19.8,2.1,29,0,11,0,22.1,0,33,10.6,2,21.4,2,32,0,10.6,2,21.4,2,32,0l-2,1.4c-.8,3.4-.5,21.3,0,27.5-5.5-.6-20.1-.6-26,0,.4-5.3-1-21.5-1.8-26.2,0-.6-1.3-.8-2.1-.8-.4,10.1-.4,20.2,0,30.2,10.3,1.4,20.9,1.6,31.9.8,10.1,3,20.9,3,31,0,2.7-10.9,2.8-22.1,0-33l1.4,2c4.3.8,21.1.5,27.5,0-.5,4.5.5,25.1,1,29.1,0,.5,1.2.8,2,.8,3.2-10,3-22,0-32,.9-.5.9-.8,0-1,2.1-9.2,2.8-18.9,2.1-29h30l.9-2c.5-8.8.9-18.5-1-27,1.7-1.7,1.7-2.7,0-3,1.9-.6,1.9-1.4,0-2,3.1-10.3,2.9-21.7,0-32l1.5,2c5.1,1,24.7.5,30.6,0,.6,0,.9-1.2.9-2l2-1.5c.6-5.9.9-24.4,0-29.7,0-.6-1.2-.9-2-.9l-1.5-2c-2.6-.7-23-.4-29.4,0,.4-3.9.2-23.7,0-28.5,4.4.3,28.3,1.1,28.9-.2.2-.4.2-.8.2-1.3h97c-5.5-3.2-15.5-3.4-22.3-3.2-3.1-.6-5.6-.3-7.7.8.5-1.3.2-24.6,0-27.7,0-.2,0-.3-.2-.4,9.8,2.5,20.7,2.5,30.2-.5,11,.8,22.1.8,33,0,10.3,0,20.7,0,31,0,.9-.4.9-.7,0-1l2-1.4c.8-4.3.5-22.8,0-27.7,0-.6-1.2-.9-2-.9-2.7,1.5-3.7,4.5-3.2,9.1l.4,18.8h0c-4.6-.3-20.9-.6-26.2,0,.5-6.4.8-24.1,0-29,0-.2-.1-.3-.2-.4,9.5,2.6,19.8,2.2,29.2-.5,9.8,1.5,20.9,2,31,1l1-1,.9-.6c0-10.6.4-20.6,1.4-30l-1.3-.3c-11-2-22-2-33,0ZM579,449.3c0,.2,0,.4,0,.6-.4.1-.7.3-1,.5,0-.2,0-.3,0-.5l1.1-.6ZM550,479.8c.4-3.6.1-22.2,0-27.8,4.4.6,23.4.3,27-.1.1,0,.2,0,.3-.1-.7,4.8-.6,22.5-.4,28-3.7-.3-21.5-.1-26.9,0Z"/>
    <path class="st2" d="M502.5,862.7c-15.7-.6-32.9-1.2-48.5-.8v-56.9c3.7.3,24.3-.7,27.2-1,.5,0,.8-1.2.8-2h0c0,0-31,0-31,0,0,18,.2,36,0,54v9c20.3-.2,40.7.2,61,0-1.7-2.2-4.9-2.9-9.5-2.2Z"/>
    <path class="st2" d="M516.9,639c-.6,0-.9,1.2-.9,2h30l-1.4-2c-5.3-.6-22.6-.7-27.7,0Z"/>
    <path class="st2" d="M632,865h8c1.1.4,2.1.4,3,0,10.3-.2,20.7,0,31,0v-3l-63,3h21Z"/>
    <path class="st2" d="M546,769c0-10.3,0-20.7,0-31v31Z"/>
    <path class="st2" d="M546,802v-33c0,11,0,22,0,33Z"/>
    <path class="st2" d="M387,834c10.3,0,20.7,0,31,0l-31-1v1Z"/>
    <path class="st2" d="M735,321.3l2,.7h2c.5-32.3,0-64.7,0-97h-2l-2,1.2v95.1Z"/>
    <path class="st2" d="M770,514l1-1v-31h-1c-2-.8-26.3,0-31,0h-32l63,1-1,1.5v27.5h-32c-.6,1.9.8,1.7,1,2h32Z"/>
    <path class="st2" d="M898,546h0s-30,0-30,0l1.4,2,25.4.9.2,90.6-.4-.6-27.1-.9c1.5-30.7,1-61.4-1.5-92-10.1-2.9-20.9-2.9-31,0l2-1.2v-61.7c4.9.6,20.4.4,26.2,0-.4,1.2-.4,2.7,0,4.7-.6,17.3,0,38,.9,55.3,0,.6,1.2.9,2,.9,2.9-9.7,3.1-20.4,0-30,0-11,.2-22,0-33-.2-20.7-.5-41.4-1-62-9.3-.8-19.9-.8-29,0-.7,9.9-1,19.9-1,30l-.2-.2v1l-31.5.6-.5,62.4v1l-31.5.6-.5,31.4h-32c-.3,7.2-.6,14.6-1,22v10c.8,2.5,1.7,2.7,2,0,1.9.8,5.2.8,7,0-.1-2-2.9-3.1-4.9-2.7.7-4.5.5-20.2,0-26.2,5.7.4,20.9.8,26.8.1-.3,4.4,0,25,.1,27.9,0,.6,1.2.9,2,.9l1.5,2c5.5.6,22,.9,28.5.2-.3,4.4,0,25,.1,27.9,0,.6,1.2.9,2,.9l1.5,2c4.1.4,22.9.7,28.5.2-.6,4.6-.2,25.1.1,29,0,.6,1.2.9,2,.9,9.8,3.1,21.2,2.9,31,0,9.4,3.2,20.5,3,30,0l-.2-.3,1.2.4c.5.8.8.9,1,0,0-31.6.3-63.4,0-95Z"/>
    <path class="st2" d="M385,253.6c.1,1.9-1,4,2,3.4.1-8.3-1.9-16.6-1-25,2.4-.5,2.2-1.7,2-3.7,3,.2,5-.5,6-2.3v-1h-39l30,1c.3,9.2-.4,18.4,0,27.6Z"/>
    <polygon class="st2" points="354 194 353 225 354 225 354 194"/>
    <path class="st2" d="M227,161h1c10,0,19.9.6,29.7,1.3l.3-1.3-30-1v-30c10.3.9,20.8-.7,31-1h-32v1c.3,10.3-.2,20.7,0,31Z"/>
    <path class="st2" d="M515,803l-2,1.5v60.5h1c1.8-10.2,1-20.7,1-31v-31Z"/>
    <polygon class="st2" points="546 737 611 738 610.4 736 546 737"/>
    <polygon class="st2" points="611 768 611 769 643 769 611 768"/>
    <path class="st2" d="M611,739v3c0-.3,1.9-1.7,0-3Z"/>
    <path class="st2" d="M514,738h-31v31c0,10.7,0,21.3,0,32l1-62,30-1Z"/>
    <polygon class="st2" points="643 706 673 707 674 737 674 707 673 706 643 706"/>
    <polygon class="st2" points="546 258 387 258 545 259 546 289 546 258"/>
    <path class="st2" d="M704,290l-28-2v-29l30-1-.6-1.4c-10,0-19.8.2-29.4.4-.4-.9-.7-.9-1,0v33c9.9.4,19.6.4,29,0Z"/>
    <polygon class="st2" points="707 481 707 452 707 451 707 450 675 450 705 451 707 481"/>
    <path class="st2" d="M706,226c10-.4,20,1,30-1h-30c-.6.4-.7.8,0,1Z"/>
    <path class="st2" d="M259,384c20.9.8,41.9,1.1,63,1h1c0-10.3.1-20.7,0-31h-64c0,10,.1,20,0,30Z"/>
    <rect class="st2" x="483" y="354" width="63" height="30"/>
    <path class="st2" d="M257,385.6l2,94.4c.3-31.6-.4-63.4,0-95l-2,.6Z"/>
    <path class="st2" d="M227,385l1-62,30-1h-31c0,10.6.2,21.4,0,32-.2,10.3.1,20.7,0,31Z"/>
    <path class="st2" d="M259,225h31c.4.9.7.9,1,0l-31-1-1-31v32Z"/>
    <path class="st2" d="M323,449v-25.1c0,8.4,0,16.7,0,25.1Z"/>
    <path class="st2" d="M323,423.9c0-12.6.2-25.3,0-37.9v37.9Z"/>
    <path class="st2" d="M836,704.1l-1-30c-1.2.1-1.7.6-1,1.4v29.2l1,.3h31v-62.9l-1,62h-29Z"/>
    <polygon class="st2" points="771 579 771 641 802 641 772 640 771 579"/>
    <path class="st2" d="M753,578h7c-2.3,0-4.7,0-7,0Z"/>
    <path class="st2" d="M770,578h-3c1,0,2,0,3,0Z"/>
    <polygon class="st2" points="708 322 707.5 320 707 322 708 322"/>
  </g>
  <g>
    <path class="st1" d="M163.1,545c-.2-1.2-.6-1.5-1-1l-1.5-2h-25.4v-22.6c-.3-1.6-1-3.1-2.1-4.4.9-.5.9-.8,0-1-.4-11.1-.4-20.9,0-32,1.8-.9,1.9-1.7,0-2,1-1.3,1.7-2.8,2.1-4.4v-22.6h25.9l.9-2c.6-.4.7-.7,0-1-10,0-19.9-.1-29.9,0v30.5l-1.5,1.5h-28c-.4,0-1.5-1.4-2.5-1v33c10.6.2,21.3,0,32,0v31h31Z"/>
    <path class="st1" d="M162,450s0,0,0,0c0,0,0,0,0,0h-.1Z"/>
    <path class="st1" d="M739,741.5l-2-3.5v127h2c.7-41.1-.6-82.3,0-123.5Z"/>
    <path class="st1" d="M742,670.2v-90.5l-2-.7c.9-.4.9-.7,0-1h0c0,0-2,0-2,0,0,32-.2,64,0,96,.9,1.5,1.5,1.2,2-1,4.4-.4,11.5-.3,16,0l-1.2-2.1-12.8-.8Z"/>
    <path class="st1" d="M674,737l-.8-30.2c.2.4.5.4.8,0h31c.2,8.5-.3,17.1,0,25.6,0,2-1,4.1,2,3.5-.2-10,.7-20.1-1-30h-32v-32h-27.1l26.1.9v31c0,.3,0,.6.2.8l-30.2-.7v-31l-33-1v-32c10,.8,20.1-.6,30-1h-124c.9-1.8.4-2.3-1-1l.5-28.9c1.2-1.7,1-2.4-.5-2.1h-2c-2.7,0-31-1.5-31,0v32h33v32h-33c0,10.7.1,21.3,0,32,.4.9.7.9,1,0h31c-.7,1.7-.3,2.3,1,1v32c-.4-.9-.7-.9-1,0l-30.5.6-.5,62.4-1,1-30,1v61l60,1h1c1.2-19.6,1.6-39.5,1-59.6l1-2.4h30l-2,1.4c-.2,3.3-.5,27.4,0,28.7.2.7,1.2.9,2,.9h1c0-10.7,0-21.3,0-32v-65h63.5c-1,.3-.5.6,1.5,1v1c.6,1,.4,1.9,0,3,.5,8.2,0,17.6,0,26,10.5.8,21.2,1,32,1l-2,1.5-.2,29.6-29,.9-.8,2-1,61-1.4-2h-26.6v-59.1l-2-.9h-1c-.2,21-1.8,42,0,63,10.6,0,21.3-.2,32,0l62.2-1.5c.8,0,1-.6.8-1.5v-28h33c.5-32,.5-64,0-96-4.4,0-32,.8-33-1Z"/>
    <path class="st1" d="M321.9,514.2l1-33c.4.9.7.9,1,0h62c-.9,1.8-.4,2.3,1,1l1,32h63v-32h30v-65h-30v-31h30c1.8-1,2.5-1.6,2-2l2-1.4c.7-4,.5-20.5,0-26.6h58.9c-.5,5.6-.7,23,0,27.1,0,.6,1.2.8,2,.9-.9.4-.9.7,0,1,.5.9.8.9,1,0,.5.9.8.9,1,0,9.9.4,20,1.8,30,1v64h-30v32h31v-32h64v32h31v32h33c9.9.3,19.9.6,30,1l-2,1.5v25.5h-26.1l-.9,2c-1.4-.3-1.8,1-1,2h31c.5.9.8.9,1,0v-31l-1-1c-.2-.9.1-1.5.7-1.5,9.6.6,20.1.8,30,.5,0,0,.3-.4.3-1,.5-.2,1-.5,1-.7.3-6.9.8-19.9,0-26.4,0-.2-.5-.4-1-.5,2.5,0,2-2.6-.8-2.1l-61.2-.4c.9-.4.9-.7,0-1l-1-30.1c-10.2-.6-20.6-.9-31-.9l2-1.2c0-21.1-.5-42.1-1.3-63.1-.2-.4-.4-.8-.7-1-1.2-1.1-27.2-1.8-31-1.7-.6,0-.9,1.2-1,2v-62l-1.4-2-29.6-1.1v-29l-2-.9-1.3-2c-20.5.7-41,.5-61.4-.6l-1.2,1.6-.6-30.5-158.4-.5c.9-.4.9-.7,0-1l-.7-1.8c-1-7.8-1-20.2-.5-29.8l-30.8-.5h-1c-.4-.9-.7-.9-1,0-.4-.9-.7-.9-1,0h-28c0-10.8-.4-21.5-1-32v-31l-2,1.4-1,29.6-27.5-.5c-.9-10.4-1.5-20.9-1.5-31.5-.6-1.9-1.4-1.9-2,0-9.9,0-19.7-.3-29.5-.9l.5-30.1c2.1,2.2,5.1,3,8.9,2.2,5.6,0,14.1,0,18.6-2.9-9.4.2-19.1-.2-28.5,0-10.4.2-20.7.5-31,1-.7,9.6-.9,20.6,0,30,9.9.7,19.9,1,30,1-.5,5.6-.2,11,1,16-2,5-2,10,0,15l-1.4-2c-5.2-.8-21-.6-27.5-.1.5-5.8.7-22.7,0-27,0-.6-1.2-.8-2-.9.9-.4.9-.7,0-1-.4-.9-.7-.9-1,0,.2,10.6,0,21.4,0,32h32l.6,31.5,31.4.5c-.4,10.5-.4,21.2,0,32,0,10.9-.6,21.7-1.4,32.5l-29.6.5-2.1,1.3c-1,2.6-1.9,25.4-1.9,29.6s1.1.9,1.9,1l-30.5.6-.5,62.4c-1.8-.9-2.3-.4-1,1l-30,1v63h31v32h32c.9-.4.9-.7,0-1,.9-.4.9-.7,0-1l-1-93.2c.2.9.6.3,1-1.8.9-.5.9-.8,0-1,3.2-9.4,3-20.5,0-30l1.2,2h61.9l.9-2c-3,9.8-3.2,21.2,0,31-.9.5-.9.8,0,1v63c-1.8-.9-2.3-.4-1,1l-31,1-2,1.4c-.8,5.5-.6,23.1,0,28.7,0,.6,1.2.9,2,.9-1.7,0-2.7.4-3,1l3,2.4v28.6h31Z"/>
    <path class="st1" d="M288,129c-.1.1-.3.2-.5.3.2,0,.3,0,.5,0v-.3Z"/>
    <path class="st1" d="M579,928c-.4,0-.8.6-1,1,31.3.4,62.7,0,94,0-29.3.3-64.2-3.9-93-1Z"/>
    <path class="st1" d="M706,578l1-1c.3-10-.4-20,0-30,0-2-1.3-1.3-2,0l-2,1.4v26.6h-28.1l-.9,2v1c10.7,0,21.3,0,32,0Z"/>
    <path class="st1" d="M291,707c0,10,0,20.1,0,30,9.4-.9,20.9,1.2,30,0l-28-1-2-29Z"/>
    <polygon class="st1" points="644 674 646.9 674 644 673.9 644 674"/>
    <path class="st1" d="M418,929c21.3.3,42.7,0,64,0l-64-1v1Z"/>
    <path class="st1" d="M579,899c5.8.9,60.3.6,63-1-21.3.2-42.7-.3-64,0,.2.4.6,1,1,1Z"/>
    <polygon class="st1" points="323 802 323 865 324 865 324 865 326 863.8 326 802.9 324 802 323 802"/>
    <path class="st1" d="M165,546h-2c.4,10.4,1.7,20.9,1,31.4l5,.6-4-1.6v-30.4Z"/>
    <path class="st1" d="M578,578v30c10.7-.9,21.5.8,32,1s21.6.7,32-1h-32v-30c-10.7,0-21.3,0-32,0Z"/>
    <path class="st1" d="M418,834h32l-1-1-1.5-2c-4.6-.7-21.8-.6-26.6,0-.6,0-.8,1.2-.9,2h-2v-31c-10.3,0-20.7,0-31,0-.9.4-.9.7,0,1v30c10.2.8,20.5,1.1,31,1Z"/>
    <path class="st1" d="M450,801l-1-32h-31v33c4.4,0,31,.8,32-1Z"/>
    <path class="st1" d="M383,835.4c-.5,1.4-.2,25.5,0,28.7,0,.6,1.2.9,2,.9h1v-31h-1c-.8.3-1.7.6-2,1.4Z"/>
    <polygon class="st1" points="708 739 736 738 708 738 708 739"/>
    <path class="st1" d="M192,578h-15c4.9.3,10.1,0,15,0Z"/>
    <polygon class="st1" points="704.9 415.5 707 417 707 354 704.9 354 704.9 415.5"/>
    <path class="st1" d="M898,514h-31l30,1,1,9c-.2-3.3,0-6.7,0-10Z"/>
    <path class="st1" d="M394,225.9c2.5.8,5.1,1.6,7.7,1.6,39.1,0,78.2,0,117.3,1.1,9.5.9,18.5,0,27-2.6v-1h0c-50.6.5-101.4-.1-152-.1-.9.4-.9.7,0,1Z"/>
    <polygon class="st1" points="324 193 324 194 352 193 324 193"/>
    <path class="st1" d="M165,322v-96h29v96h1v-32c2.9-21.5,3-43.4,0-65-.5-.9-.8-.9-1,0-9.6-2-19.4-2-29,0-.8-2.5-1.7-2.7-2,0,0,32.3.2,64.7,0,97h2Z"/>
    <path class="st1" d="M196,354h-1c-.2,10,.2,20,0,30,.2-9.9,1.9-20,1-30Z"/>
    <path class="st1" d="M169,322h11c1.8-3-12.2-3.4-11,0Z"/>
    <path class="st1" d="M704,129h-29v1c9.7.9,19.5-.8,29-1Z"/>
    <path class="st1" d="M739,129h28c-9.3-.1-18.7,0-28,0Z"/>
    <path class="st1" d="M320,161h-28v1c8.9,1.2,19.5-1.1,28-1Z"/>
    <path class="st1" d="M387,672.5v-31.5h32v-32c-21,0-42,0-63,0h-1v32l-31,1v32h61.5l1.5-1.5Z"/>
    <path class="st1" d="M195,546v1l1,30,31-1v-31c-10.6-.9-21.4.8-32,1Z"/>
    <path class="st1" d="M674,545c-10.3,0-20.7,0-31,0v32h30c1-9.7-1.7-20.6,1-30,.2-.5,0-1.4,0-2Z"/>
    <rect class="st1" x="450" y="705" width="31" height="31"/>
    <rect class="st1" x="324" y="737" width="31" height="31"/>
    <polygon class="st1" points="387 769 355 769 355 771 357 800 387 800 387 769"/>
    <path class="st1" d="M293,674v30h30c.1-10,0-20,0-30h-30Z"/>
    <rect class="st1" x="165" y="514" width="30" height="30"/>
    <rect class="st1" x="450" y="768" width="33" height="1"/>
    <path class="st1" d="M835,641v-32h-32v-31h-32v-31h-31v30l7,1c1.5.7,4.9.9,6,0h7c1.9.9,5.1.7,7,0h3c0,.8.3.9,1,1l.6,61.5,30.4.5,1,33,29.9.5c.6,2.4,1.8,1.9,2.1-.5,0,10.3.3,20.3,1,30,9.3.8,19.9.8,29,0,.8-20.5,1-41.2,1-62v-1c-10.3-.2-20.7,0-31,0Z"/>
    <path class="st1" d="M865,481h-30v65h31v-2l-1-63Z"/>
    <path class="st1" d="M866,546c.2,31.3-.2,62.7,0,94l30,1h1v-94l-29-1h-2Z"/>
    <path class="st1" d="M260,579v29h30v-29c-10,0-20,0-30,0Z"/>
    <path class="st1" d="M708,322c9,.6,18,.6,27,0h2.1v-97h-1c-10.1.3-20.1.6-30,1-.8,10.6-.8,21.4,0,32h-29.7l-.3,1c-.8,9.3-.8,19.9,0,29l.6,1,27.4,1c-1.8.6-1.8,1.1,0,1.5l1.9,30.5h1c.3-2.4.6-2.4,1,0Z"/>
    <path class="st1" d="M706,198l2-4,30-1h-31v-32h31l-33-1v32l-31,1h32c.2,1.6-.2,3.4,0,5Z"/>
    <polygon class="st1" points="674 194 673 224 643 225 674 225 674 194"/>
    <path class="st1" d="M739,193h8l-7-1-1-31c-.3,8.6,0,18.5-1,27,1.6,1.1,1,3.4,1,5Z"/>
    <path class="st1" d="M676,257v-1l2-1.4v-26.6h26.1l.9-2v-1h-30c0,10.6,0,21.4,0,32h1Z"/>
    <path class="st1" d="M228,291l29-1h-30c0,10,.2,20,0,30l1-29Z"/>
    <path class="st1" d="M259,257v31l1-30c0,0-.5-1-1-1Z"/>
  </g>
  <g>
    <path class="st3" d="M736.1,738.2c-9.6,0-18.9.3-28,1-.7,31.5-1,63.2-1,95l-1.5-2c-4.2-.3-31.5-.6-32.8,1-1,1.3-1,24.5-.7,28,0,.6,1.2.9,2,.9l-3.5,1.6c-9.2-.2-18.4.3-27.5,1.4-.9.4-.9.7,0,1v31l-1,1c-21.2.6-42.2,1-63,1l-2,1.5c-.7,4.6-.6,21.8,0,26.6,0,.6,1.2.9,2,.9,31,.2,62,.5,93,1h32l-1.4-2-26.5-.9-.2-26.2-2-.9c10.8-1.9,22.1-1,33-1l2-1.5v-30.1c9.4,1.1,18.7,0,28-1.5v.2c.1,0,1.1-.7,1.1-.7v-122.7l-1-3.6h-1Z"/>
    <path class="st3" d="M513,865c-.5-.9-.8-.9-1,0h0c-20.4-.4-40.7-.4-61,0v1l-2.1,3.3c-.6,4.5-1.2,22.7.3,26.7-9-.6-21.4-.6-30.3,0-.5,0-.9,1.2-.9,2l-2,1.4c-.6,1.9-.3,24.3,0,27.7,0,.6,1.2.9,2,.9,21.2.8,42.5,1.2,64,1,10.6,0,21.5.8,32-1l-1.5-2h-28.5v-26.1l-2-.9c10.4,0,20.7-.2,31-1,.5,1.9,1.4,1.9,2,0,.2-11,0-22,0-33h-1c-.5-.9-.8-.9-1,0Z"/>
    <path class="st3" d="M546,835l-2,1.4-1.1,25.6h-26l-.9,2-1,1c10.3-.2,20.7,0,31,0,0-10-.2-20,0-30Z"/>
    <path class="st3" d="M673,706c.6-10.4.8-20.9.4-31.5l-29.4-.5c-1.8-1.8-1-28.3-1-33h0c-1,0-2,0-3,0-10.6.2-21.2.5-31.6,1-1,1.2-.6,27.5-.4,31.1,0,.6,1.2.9,2,.9l33,1-2,1.4c-.8,5.5-.7,23.1,0,28.7,0,.6,1.2.9,2,.9,10.2.4,20.2.4,30,0Z"/>
    <path class="st3" d="M293,674.1c10,2,20,2,30,0,.2-11,0-22,0-33h32l2-1.5c.8-5.8.7-23.7,0-29.7,0-.6-1.2-.9-2-.9h-32l-2,1.5c-.7,2.5-.4,22.4,0,28.5-6.4-.6-23.5-.7-29,0-.6,0-.9,1.2-.9,2,0,11,0,22,0,33h2Z"/>
    <path class="st3" d="M674.1,738.7c.6,2.2,27.6,1.7,31.8,1.4l1.1-2v-2l-.7-1.8c-.2-8.2-.5-17.4-.8-27.6-10.7-.5-21.3-.4-31.5.3h.1c-.4,10-.4,20,0,30.1,0,.6,0,1.1,0,1.6Z"/>
    <path class="st3" d="M642,608l1-29c-10.6-.8-22.6-.9-33,0l-2,1.5c-.2,9.3,0,18.6.4,27.8,11.2.5,22.4.5,33.6-.3Z"/>
    <path class="st3" d="M195,546c-10,.2-19.9,0-29.9,0l-1,.7.4,30.1,4.5,1.2c2.6,0,5.4-.2,8,0h18v-31c.9-.4.9-.7,0-1Z"/>
    <path class="st3" d="M195,546s0,0,0,0c0,0,0,0,0,0h-.1Z"/>
    <path class="st3" d="M321,737c.6,0,1.4-.8,2-1,0-10.3,0-20.7,0-31h-32v2l1,29.1,29,.9Z"/>
    <path class="st3" d="M771,739c.2,42-.2,84,0,126h61l-60-1-1-125Z"/>
    <path class="st3" d="M740,673c-.5,0-1.4.8-2,1,0,21-.9,42.1,1,63,10,0,20,0,30,0l-29-1v-63Z"/>
    <polygon class="st3" points="292 929 354 929 354 899 353 928 292 929"/>
    <path class="st3" d="M388,899l29-1h-30v31c10,0,20-.2,30,0l-29-1v-29Z"/>
    <path class="st3" d="M259,578v1h1c8.9,2.1,18.2,2.8,28,2.1v26l2,.9,1-30c-10.6,0-21.4,0-32,0Z"/>
    <path class="st3" d="M257,609l-30-1c1,1.8,25.8,1,30,1Z"/>
    <path class="st3" d="M834,861c.5-4.6.2-9.6,0-14.6v14.6Z"/>
    <path class="st3" d="M834,846.4v-11.4c-.3,3.6-.2,7.5,0,11.4Z"/>
    <path class="st3" d="M321,768l-25,1c3.1.4,24.2.5,25-1Z"/>
    <path class="st3" d="M643,256.9c.8-.3,1.7-.6,2-1.4.5-1.3.2-26.2,0-29.6,0-.6-1.2-.9-2-.9l30.5-.6.5-30.4c.9-.4.9-.7,0-1,10.6,0,20.9-.3,31-1l1-.7v-29.5c.4.3.8,0,1.1-1.3l30.9.5c.4.9.7.9,1,0-.2,9.3,0,18.7.4,28-.3-.7-.7-1.2-1.4-1-3,.4-2.8,4.4,0,5l-30.4.5c-.9,1.1-1.5,2.6-1.6,4.5l-1.8,2.2-.2,22.7,2,2.1c9.7.9,20.1.7,30,0,.5.9.8.9,1,0,.8,2.5,1.6,2.6,2,0v-19c-.2-4.3,0-8.7,0-13,.2,0,.4-.1.6-.5l7.4.5c6.6,1.5,13.3,2.3,20,1.9l1,92.4,2,.7c1-53,1.3-106,1-159h-33c-9.8-3.1-22.2-3.3-32,0h0c-.7-.1-1.3-.1-2-.1-9.7.2-19.4.5-29,1v31c-10.6.1-21.3,0-32,0,0,10.6,0,21.4,0,32-10.6.1-21.3,0-32,0v65c1.2,1.3,28.1-1,32-1Z"/>
    <path class="st3" d="M739,418l-32-1c-.2-1.1-.5-1.7-1-1.9v-60.8l-1-.3c-10.3-.1-20.7,0-31,0v-32h-31v-32c-11-.1-22,0-33,0v32l33,1v62l31,1,1,64,29.9.5c.6,2.4,1.8,1.9,2.1-.5v32h32v-64Z"/>
    <path class="st3" d="M866,546c.6,1.9,1.4,1.9,2,0l28.6.5c.4,2.2,1,1.8,1.4-.5v-13c0-3,.2-6,0-9l-.6-9.5-30.4-.5h-1v30c-1.9.6-1.9,1.4,0,2Z"/>
    <path class="st3" d="M919.5,641h9.5c-3.2,0-6.4,0-9.5,0Z"/>
    <path class="st3" d="M899,641c6.8.1,13.6,0,20.5,0h-20.5Z"/>
    <path class="st3" d="M320,193h2l1-31c0-1.5-1.9-1-3-1-9.4.2-18.7.5-28,1-.6,10-.8,20.2-.4,30.5l28.4.5Z"/>
    <path class="st3" d="M353,225c.7-10.2,1-20.5,1-31l-2-1c-9.6-.1-18.9.3-28,1-.6,9.9-1.1,21.3,1,31h28Z"/>
    <path class="st3" d="M165,226l-1,.7v95.1l1,.2h4c3.1-1.7,8-1.8,11,0h14c.9-31.3.9-65.1,0-96-9.3-.8-19.9-.8-29,0Z"/>
    <path class="st3" d="M227,354h-2c-9.6-2-19.4-2-29,0-.5,10-.8,20-1,30v2h31l1-1v-31Z"/>
    <path class="st3" d="M163,450.1h2c1.6-.4,2-.7,1.4-1.1l28.1-.2c.3-10.6.1-20.8-.5-30.8h-1c0,0-30,0-30,0-.2,10,.1,20,0,30v2Z"/>
    <path class="st3" d="M195,322v30c.3-9.6,1.9-19.3,1-29h29c-9.8-1.9-20.1-1-30-1Z"/>
    <path class="st3" d="M291,161c0-10.6.1-21.4,0-32h-3c-9.3.4-18.6,1.8-28,1l-.4,30.5,29.4.5h2Z"/>
    <path class="st3" d="M165,225v-63l27-1h-29c0,21.3,0,42.7,0,64h2Z"/>
    <path class="st3" d="M194,161v64h1c0-21.3.9-42.8-1-64Z"/>
    <path class="st3" d="M705,547c-4.2,0-29.9-1.1-31,0v30h31v-30Z"/>
    <path class="st3" d="M484.4,738.5l29.6-.5h1v-32l-1-1h-32v5c0,9,1,18.2,1,27h-33c0,10.3.1,20.7,0,31,10.6.8,22.6.8,33,0,.5-10,.8-20,0-30,.3,1.5.7,1.8,1.4.5Z"/>
    <path class="st3" d="M897.1,640.9c-.5-.9-.8-.9-1,0-10,0-20,.2-30,0-.9.4-.9.7,0,1l-.5,61.5c-1.3,1-27.8,1.8-29.1,1-.5-2.2-1.1-1.8-1.5.5-1.2-9.9-1.5-19.9-1-30.1-10.2-.6-20.6-.9-31-.9l2-1.5c.9-4.9-.2-24.9-.9-30.6,0-.5-1.2-.8-2-.8l-29.6-.5c-.3-1.6-.6-2-1-.7l-.5-60.8h0c-10.1-1-21.2-.9-31-.1v93l16,1c4.6.3,9.9,1.8,15,1,0,21,0,42,0,63,10.7.2,21.3,0,32,0v65h31v-33h32v-32h32c0-32,0-64,0-96h-1Z"/>
    <path class="st3" d="M354,834v-32h-30v63h61v-31c-10.3-.2-20.7,0-31,0Z"/>
    <path class="st3" d="M611,803l32-1v-33c-10.9-.4-21.6-.4-32,0-.2,11,0,22,0,33h-31v62h30l1-61Z"/>
    <path class="st3" d="M610,769v-30h-31c0,10,0,20,0,30h31Z"/>
    <rect class="st3" x="418" y="802" width="33" height="32"/>
    <path class="st3" d="M133,480h29v-29h-29c-.3,9.6.4,19.4,0,29Z"/>
    <path class="st3" d="M546,609h-10c-3,0-6-.2-9,0h-5c-.6,0-1.5-.2-2,0-1.8,0-3.4.5-4.5,1.3l-.5,29.7,1,1h30v-32Z"/>
    <rect class="st3" x="516" y="803" width="29" height="31"/>
    <path class="st3" d="M737,544v-29h-29c-.3,9.6.4,19.4,0,29h29Z"/>
    <path class="st3" d="M133,544h29v-29h-29c.4,9.6-.3,19.4,0,29Z"/>
    <path class="st3" d="M388,256h158v-30c-49.7,2.5-102.7-3.4-152,0-2.6.2-5.4-.1-8,0,0,2,.2,4,0,6l2,24Z"/>
    <rect class="st3" x="548" y="257" width="62" height="32"/>
    <path class="st3" d="M290.1,289c.8-10.3.8-21.9,0-32-.5-.8-1.1-1.7-2-2.1-1.2-.5-23.8.8-26,1.3l-2.1,1.8h.1c-.7,9.9-1,19.9-1,30l-2,2-29.5.6-.5,29.4v2c.3,1.5.7,1.8,1.4.5l29.6-.5,2-32c10.3,0,20.3-.2,30-1Z"/>
    <path class="st3" d="M259,177c-.9-4.9-1.5-10.1-1.7-15.5-10-.3-19.8-.1-29.3.5v30h31v-15Z"/>
    <path class="st3" d="M225,136l-1,24-28,1h29c.2-8.3-.3-16.7,0-25Z"/>
    <path class="st3" d="M355,546h2c-.5-3,1.6-2,3.5-2,8.1-.3,16.4.2,24.5,0v-30h-30v32Z"/>
    <rect class="st3" x="676" y="226" width="29" height="30"/>
  </g>
</svg>