<?xml version="1.0" encoding="UTF-8"?>
<svg id="_레이어_1" xmlns="http://www.w3.org/2000/svg" version="1.1" viewBox="0 0 1024 1024">
  <!-- Generator: Adobe Illustrator 30.1.0, SVG Export Plug-In . SVG Version: 2.1.1 Build 136)  -->
  <defs>
    <style>
      .st0 {
        fill: #014a4a;
      }

      .st1 {
        fill: #4cdfd2;
      }

      .st2 {
        fill: #c0fff3;
      }

      .st3 {
        fill: #29aba6;
      }

      .st4 {
        fill: #fefefe;
      }

      .st5 {
        fill: #072628;
      }
    </style>
  </defs>
  <g>
    <polygon class="st5" points="158 336 121 336 121 449 84 449 84 561 47 561 47 671 84 671 84 708 121 708 121 744 195 744 197 740.6 197.5 711.6 196 708 158 707 155.6 705 124.4 705.8 124 673.1 122 672 122 671 120.9 668.9 85.9 666.7 86 597.3 86 595 86 564.7 120.9 563.3 121 562 122 486 124.1 452 156.8 452 158 450 159 449 159 448 160.4 446 160.9 416 191.8 416 193 414 195 413 196 412 198 410.8 197.5 377.7 226.9 376.2 233 374 233 337 230 337 195 336 196 298 195 262 158 262 158 336"/>
    <polygon class="st5" points="235 782.8 235 746.7 233 746 233 745 230.2 743.1 198 743.5 195 745 195 820 233 820 233 784 235 782.8"/>
    <polygon class="st5" points="901 224 789 224 789 112 642 112 642 149 569 149 569 76 457 76 457 111.5 454.5 114 418.5 114 417 113 417 149 343 149 344 112 270 112 270 115 270 117 270 120 270 128 270 149 271.1 151.1 305.1 152.9 307 186 342.1 187.3 340.8 193.6 341.9 254.4 342.6 258.2 344 262 345.1 264 381.3 265 383.3 263.9 384.9 228 412.6 228 413.5 226 418 223.5 420 222.3 420 188 456.3 188 457 186 459 184.6 460.2 152.9 491.9 151.1 493 149 493.5 114.5 493 112 494.2 113 526.8 113 526.5 113.2 526.3 148.8 528.3 151.3 528 223.8 528 225 526.1 226.3 529 263.5 531 264 532.3 265.9 569.3 263.9 571.8 259.9 572.3 227 571 225 573 223.5 571.7 187.8 605 186 641 186 642 185 643 185 643 154 643.9 152.8 675.7 152.3 678 151 752.5 150.5 753.5 151.4 753 185 751.4 183.1 719 184.9 718 187 717 192 717.1 223.8 718 225 719.5 227 751.6 227.4 752 256.8 754 262 755 262 760 262 777 262 780 262 783 262 792 262 838 262 840 262 865 263 865 298 901 298 901 224"/>
    <polygon class="st5" points="491.6 927 421.5 927.5 420 929 419 897.2 418 897 418 896 420.5 896 456 895 457 880 457 874 457 872 457 865 457 864 457 859 457 858 457 848 457 846 457 834 456.5 819 417 820 415 824.4 414.8 854 383.3 854 382 856 348.6 855 343 857 343 894 341.4 927.5 309.1 927 308 929 304.6 927.8 235.4 927.5 235 898 268.8 897.5 272.4 895.7 273 821.9 271 821 233 820 233 896 195 895 195 970 343 970 344 930 381 930 381 970 530 970 530 930 493 929 491.6 927"/>
    <polygon class="st5" points="975.5 450 977 448.5 977 375 939 375 939 336 865 336 865 298 826 298 825.5 334.8 821 336 787 338.4 787.7 374.9 789 375 865 376 867.3 377.3 896.4 377.8 901 376 899 377.2 899 410.8 901 411.5 902 414 903.5 416 936 415.3 936 445.8 938 446.5 936.5 448 935.3 446 865.9 446 865 448 865 485 867.8 487 898.9 487.9 902 486.5 900 488 900 519.3 902 520.5 903.5 522 905.3 524 936 524 936 560 864.7 561.4 863.7 562.1 864 595.9 866 597 866.6 598 900.3 598.6 901 670 902.4 672 934.8 673 936 671 937.1 707.2 935.5 709 934.8 708 902.2 708 902 709 901 709.7 901 743.8 902 745 899.8 744.5 868.5 744.5 866 746 864 747.2 862.9 817.9 826.8 818 826 820 826 894 826 895 824.5 894.5 790 895 787.9 896.4 786.5 927.6 756.1 928 755 930 754 930 647.8 929.5 642 930 641 930 606.5 929.5 604 930 605.3 929.3 605.3 895.5 604 895 642 895 678 895 680 893.9 680.9 858.6 679 856 678 856 654 856 648 856 645.5 856 643 856 642.3 854.1 642 782 640.8 780 604.7 780 604 782 602 783.2 602 855 571.2 855 570 857 570 819 568 820 565.8 818.2 534.1 818 532 820 530 820 530 857 530 858 530 895 530 930 567 930 567 970 789 970 789 930 826 930 826 897 861.5 897 864 896 864 857 866.5 858 899.5 858 901 856.5 901 782 939 782 939 744 977 744 977 635 939 635 939 597 977 597 977 486.5 975.5 485 939 485 939 450 975.5 450"/>
    <polygon class="st5" points="233 187 195 187 195 262 233 262 233 261 234.9 227.9 269.4 227 270 225 271.3 156.6 270 149 233 149 233 187"/>
    <path class="st5" d="M568,522c-1.6-.9-31.1,0-36,0h36Z"/>
    <path class="st5" d="M643.3,374.1c-13.2-1.3-26.3-1.6-39.3.9h0c-1.7.5-1.5.9-.5,2v69.6c-11.4,1.1-22.9,1.6-34.6,1.5v70.3c2.8.3,3.7,3.7,4,3.7h32v-35h29c.5,0,2-1.8,8-2l1.3-.7c-.5-11.5-.6-23.5,0-34.9l-1.3-.5c1.7-24.9,2.6-49.9,1.3-74.9Z"/>
    <path class="st5" d="M529,375l-36,1v37c.5.9.8.9,1,0,12,.2,24-.1,36,0,0-3.5,1-8.7,1-13-1.1-.6-1.1-1.6,0-3v-21c.9-1.8.4-2.3-1-1-.4-.9-.7-.9-1,0Z"/>
    <path class="st5" d="M719,449l106-1c-21.7-.4-43.3-.4-65,0-1.6-2-3.4-2-5,0-.5-.9-.8-.9-1,0-12,0-24,0-36,0-.2,8,.3,16,0,24l1-23Z"/>
    <path class="st5" d="M828,413h-2v35h2v-35Z"/>
    <path class="st5" d="M679.1,298l-2,1.2v35.3c-24,.6-48.2.8-72.8.5l-1.5,1h-71.6l-.2,1,149-.5v-36.5h37v74h-54c4.6,1.9,11,1,16,1,.5.9.8.9,1,0h37c1.8-25.6,1-51.4,1-77-13,0-25.9,0-38.9,0Z"/>
    <path class="st5" d="M718,298h0s0,0,0,0h0Z"/>
    <path class="st5" d="M754,263v4.4c0-.5,0-1,0-1.4v-3Z"/>
    <path class="st5" d="M753.7,274.6l.2-7.2c-.2,2.3-.2,4.7-.2,7.2Z"/>
    <path class="st5" d="M754,298c.6-7.4-.3-15.6-.3-23.4l-.7,22.4h-34l-1-35v36c12-.1,24,0,36,0Z"/>
    <path class="st5" d="M788,337h-33l-1,38c11.3.3,22.7-.4,34,0l-33-1v-36c11,.6,22-.4,33-1Z"/>
  </g>
  <g>
    <path class="st0" d="M196,708c-1.8,11.8-1,24.1-1,36v1c12.6,2.7,25.5.2,38,0,12.3.7,24.7.8,37,0l2-1.4c-.3-11.6-.7-23.1-1-34.6-24.6-3.3-50.3-4-75-1Z"/>
    <path class="st0" d="M270,120c-.2,2.6,0,5.3,0,8v-8Z"/>
    <path class="st0" d="M528.5,894.5l-33.5.5c2.7-1.3.8-8.3-2-7,0,13.7.1,27.3,0,41,12.2,0,24.7.8,37,1v-35c-.3-1.5-.8-1.8-1.5-.5Z"/>
    <path class="st0" d="M788,375h1v-37l32-2c-11-.2-22,0-33,1-11,.2-22,.6-33,1-.4,12.2-.4,24.2,0,36,10.8.7,21.8,1,33,1Z"/>
    <polygon class="st0" points="938 671 936 671 901 670 900.3 598.6 867.4 598 866 597 865 563 938 562 938 522 903.5 522 902 520.5 902 486.5 865 485 863 490.7 863.2 520.1 830 521 830 485.7 828 485 838.9 487.4 865 485 865 448 936.5 448 938 446.5 938 414 902 414 901 411.5 901 376 865 376 863 377.5 862.8 409.9 832.2 410.8 828 413 827 413.7 826 448 825 448 718.5 448.6 718 472 717 485 642 485 634 487 632.5 485 605.9 485 605 487 603 488.5 603 520 573.9 520 573 522 571 516.5 571 448.9 569 448 536 448 532 445.9 530 413 494 413 492 414.4 491 447.8 493 449 494 450 496 451.4 498 452 528.7 449.9 530 486 528.1 493.9 530 522 532 522 568 522 570.5 562 602.5 562 604 563.5 604 597 642 597 642 636 677.5 636 679 635 679 668.5 680 671 718 671 719 673.5 719 708 752.5 708 755 745 756.1 747 787.2 748.1 786 780.6 788 782 789 820 825 820 826 820 865.1 819.4 866 746 902 745 902 709 935.5 709 938.1 706.5 938 671"/>
    <path class="st0" d="M531,782c.8,12.7-.7,25.4-1,38h2v-37l1.5,1h34.5v6l-13,.5,13,.5v29c.6,0,1.4-.8,2-1,0-12.3,0-24.7,0-37h-39Z"/>
    <path class="st0" d="M787.6,856h-32.6c-1.8,23.9-1,48-1,72v2h1v-72l34-1c-.1-1.3-.5-1.7-1.4-1Z"/>
    <path class="st0" d="M493,298h38v-34l-3-39h0c-11.2-.5-22.5-.5-34-.1l-1,1c-.2,12.1-.4,23.9-.5,35.4l-35.1.5-.4,1v35h-40v38.5l-1.5,1.5h-71l-1.5-1v36.5l-1.5,1.5h-34.5v39l35-1v35h-72c-1.1,1.9,1.5,4,3.1,4,20.4.5,41.1.4,61.5.2,1.6,0,3.1-.3,4.7-.7,1.6-.4,3.2-.9,4.7-1.4,2.5-.8,2.7-1.6,0-2l1.7-2.8c-.3-9.5-.2-19.1.3-28.6l-2-2.6c.9,0,2.6-.8,2.4-.9h-1.3c11.6-.4,23.8-.4,35.1,1.3l1.8-1.3c.4-12.5.7-25,.8-37.5l72.2-.5,2-37h31.5l4.5-2.5v-37.5Z"/>
    <path class="st0" d="M232.9,337v37c5.6-.1,33.1,2.9,36.1.6l1-37.6h37v-39h37c.3-11.9.1-24,0-36-.2-25.3-1.9-50.7-1-76h-36c0-11.6,0-23.4,0-35l-37-2c-.2,25.3.2,50.7,0,76,1.6,2.7,3.2,1.4,4-1.3l-.3-35.3c10.7-.6,21.4-.8,32.1-.4l1.1-2c-2.1,24.3-2.8,48.6-1.9,73.1l-34,.9-1.1,2-.5,34.8-36.5,1.2c-2.5,13-2.5,26,0,39Z"/>
    <path class="st0" d="M232.9,298c.4-12,.4-24,0-36h-38c0,12,.8,24,1,36,12.3,2,24.7,2,37,0Z"/>
    <path class="st0" d="M642,262h76c0,11.9.2,23.5,1,35,11,.8,23.2.9,34,0,.7-11.2,1-22.5,1-34,.7-.4.7-.7,0-1,0-12,.4-24.1-.4-36.1-1.4-1.7-30.9-.9-35.6-.9-25-.4-50-.4-75,0l-1,37Z"/>
    <path class="st0" d="M605,224l.5-35.5c2.4-.6,2-2.5-.5-2.5-11.6,0-23.3,0-35,0-1.4,1.4,1,34.3,1,39l34-1Z"/>
    <path class="st0" d="M642.9,185c0,0-.7-.1-1,0-.4.4-.4.7,0,1,.2.6.5,1,.7,1,11.1.3,23.1.3,34.2,0,.7,0,1-.4,1.2-1l1-35h-1.1c-12.3,0-24.7.3-37-1-.6,1.9,1.8,2.9,2,4,.9,10.4.9,20.7,0,31Z"/>
    <rect class="st0" x="459" y="78" width="104" height="1"/>
    <path class="st0" d="M718,187h-1c0,1.6,0,3.4,0,5,3.3.8,2.2-2.6,1-5Z"/>
    <polygon class="st0" points="566.5 78 566.5 79 567 78.5 566.5 78"/>
    <path class="st0" d="M122.9,707.6c11.4,2,24.1-.8,35.1-.6v-35h-36c0,4.7-.9,34.3.9,35.6Z"/>
    <path class="st0" d="M193,374c.8-11.6.9-24.5,0-36-10.6-.8-22.6-.8-33,0-1.2,1.9-1.5,4.6-1,8l-1,1c-.2,3.5-.6,27.2,1,28,11.5,0,22.9-.2,34-1Z"/>
    <path class="st0" d="M195,413c-.7,0-1.5.6-2,1v34h-34v1s35.9-.1,36-.1v-35.9Z"/>
    <path class="st0" d="M202.3,336.2l-7.3-.2c2.4.2,4.8.2,7.3.2Z"/>
    <path class="st0" d="M230,337c-8.8-2.2-18.4-.9-27.7-.8l27.7.8Z"/>
    <path class="st0" d="M384,820h0c-25.7-1-51.4-.9-77,0v37c11.9-2.7,24.1-.2,36,0,13.1.2,26-.7,39-1,1.3-.5,2.4-1.1,2.2-2.5-1-10.7-.7-21.1,1-31.2l-1.2-2.2Z"/>
    <path class="st0" d="M457,834v-52l-40,1c-.4,12.3-.4,24.7,0,37,13,0,26,0,39,0l1,14Z"/>
    <path class="st0" d="M308,929c4.3,0,33.1,1.9,35,0v-35l-35,1.4v33.6Z"/>
    <path class="st0" d="M456,895c1.9-1,1-12.4,1-15l-1,15Z"/>
    <path class="st0" d="M644,746h33l2,14c-.2-5,0-10,0-15h-37c0,3.3.2,6.7,0,10l2-9Z"/>
    <path class="st0" d="M679,775l-1,6-35,1c.4.2,1,.6,1,1l35-1c.2-2.3-.2-4.7,0-7Z"/>
    <path class="st0" d="M717,374c.9-24.9.9-49.6,0-74-.2-.6-.5-1-.7-1-10.3-.3-21.7-.3-32,0-2.7-.4-4.1-.1-4.3,1-.8,11.7-.8,25.1,0,36.5-.5-1.7-.9-1.7-1.2,0l-147.8.5c-.5.2-1,.4-1,.6-.5,12.3-.5,25.7,0,37.4l1,1c22.6-1,45.4-1,68-1h43v74h36l1-1c.4-24.6.4-48.9,0-73-5.2-.3-10.6-.6-16-1,17.7.9,36.7.9,54,0Z"/>
    <path class="st0" d="M122,597c0-11.2.8-22.9-1-34-.4,11,.3,22,0,33h-35v1h35l1,35v-35Z"/>
    <path class="st0" d="M528,401l3-1v-3l-3,.5v3.5Z"/>
    <polygon class="st0" points="233 670 269 670 269 635 233 636 233 670"/>
  </g>
  <g>
    <path class="st3" d="M865,412.1v-36c-25.3-.2-50.6-.2-76-1-.5-.9-.8-.9-1,0l-33.5-.8.5-36.1c2.7-.2,2.5-.9,0-1.2,23.5-.1,47-.7,70.5-1.6l.5-37.4c13-.1,26,0,39,0-.2-11.6.2-23.4,0-35-8.3-.8-16.6-1.1-25-1h-85l-1,4c-2.3,2.9-4.3,7-.5,9.5v21.7c-11.8,0-23.7.3-35.5.8-.3,25.6-.6,51.3-1,77h-7c-10-.8-20-.8-30,0-.8,24.2-1,48.5-1,73-1.8-.9-2.3-.4-1,1-11.5-.1-22.9.2-34,1-.5.2-1,.5-1,.7-.9,9.2-.4,23.4,0,32.9,0,.2.4.4,1,.5,24.2.7,48.6,1,73,1,1.8-1,1-10.6,1-13l.5-23.4,35.5-.6c.2-11.6.6-23.1,1.2-34.5l68.8-.5c.5.9.8.9,1,0,.5.9.8.9,1,0,.9,1.8,1.7,1.9,2,0,12.3-.6,24.6-1.6,37-1Z"/>
    <path class="st3" d="M718.5,296.5l-.5-34.5-1.2-2h-72.5l.7-34.3c-.3-.4-.6-.6-1-.7l72.7-.5c.4-12.4.5-24.9.3-37.5.4.9.7.9,1,0l35-2,.3-34.5-74.3.5h0s-2,1.4-2,1.4c-.9,9.7-1.2,22.7-.9,32.4,0,.6,1.2,1,2,1.2-1.8.3-3,.9-1.7,1h-70.3c-.6,12.2-.9,24.6-.9,37l-1.5-2c-5.2-.9-25.4.2-31.4.9-.6,0-.9,1.2-1.1,2-.2,12.1-1.8,24.6-1.2,36.8l-38.8,2.2-2,1.5c.3,10.4,0,20.5-.5,30.5h-34.8l-.7,2-2,1.2c-.7,1.6-.3,30.7,0,35.4-1.6,0-3.1,1.2-2.8,2.6-.1-.2-.2-.4-.4-.5-1.1-1.1-26.3-.9-29.9-.7-.5,0-.9,1.2-.9,2l-2.1,1.1c-.6,5-2.7,32-1.9,35.1.2.6,1.2.8,2,.8l-72.5.6c-.2,12.9-.1,25.3.5,37.4,24.5,3.2,49.5,3.1,74,0,11.6,3,24.4,2.9,36,0,2.5-.8,2.7-1.7,0-2v-35l1.5,2c7,.9,26,0,33.4-.9.6,0,.9-1.2,1.1-2,.8-12.4,1-24.9,1-37.5.3-.2.5-.3.7-.5.3,0,.6-.4.9-1h72.1l.3-1,2-1.1.9-34c24.1,1,48.1.4,72-1.9,12.8,1.6,26.2,1.7,39,0,1.5-.3,1.7-.8.5-1.5Z"/>
    <path class="st3" d="M789,820c-.8,12.3-.8,24.7,0,37l-33.8.3c-1.2,24-1.2,49.2-.2,72.7,4.6,0,32.3.9,33.6-.9l1.4-34.1,35.5-.6c.3-25,0-49.9-.5-74.4h-36Z"/>
    <path class="st3" d="M683.4,858.1c-3.2,0-1.8-2-4.4-2.1l-1,39c13.1-.2,27.2,1.4,40-1.5v-37.5c-9.6,3.2-24,2.5-34.6,2.1Z"/>
    <path class="st3" d="M678.5,781.4l.5-6.5v-15l-1-14c-4.2-.5-34-1.2-35.1.3l-.9,8.8h0c-.5,8.8.3,17.9,0,26.9-.7,24.1-1.5,48.4-1.1,72.6l2.1,1.4h5c-1.2-.6-2.7-.7-4.1-.3.6-.3.4-.6-.5-.9.2-24.4,0-48.6-.4-72.8,11.8.3,23.6,0,35.5-.5Z"/>
    <path class="st3" d="M493,857c0,10.3.1,20.7,0,31l2,7,34.5-.6.5-36.4v-1c-12,.8-25.8,2.9-37,0Z"/>
    <path class="st3" d="M567.4,783h-33.7c-.2-.5-1.1-.5-2.2-.4l-.5,37.4h1.1c10.6,0,26.1,1.4,36,0l1-1.5v-34.3l-1-.3-.7-1Z"/>
    <path class="st3" d="M642,929v-33c-11.6-.8-24.5-.9-36,0l-1,.7v32l1,.3c11.6.5,23.3.8,35,1h1c.9-.4.9-.7,0-1Z"/>
    <path class="st3" d="M654,856l22.5,2,1.5-2c-8-.4-16,.3-24,0Z"/>
    <path class="st3" d="M268.1,447.1l2,1.2,3.6,1h68.1l.3-1c.6-.2,1-.5,1-.7.3-10.8.4-23.2.1-33.9,0-.2-.5-.4-1.1-.5l-1.5-2c-9.4-.3-21.8,0-31.4.8.7-8.7,1-26,0-34.8,7.5.8,24.8.6,31.6-.1.5,0,.7-1.2.7-2,2.4,1.4,3.5.4,1.5-1.5,1.4-.3,1.6-.9,2-1.8.6-1.5.7-27.4.2-32.6l.5.9h68.9l.9-2c2.4,1.4,3.5.4,1.5-1.5l2-1.2c.9-3.1.4-27.5,0-35.2,9.3,1,28.2.7,37.2,0,.5,0,.7-1.2.7-2l2-1.5c.7-7.1,1-25.8,0-32.4,0-.7-1.2-1-2-1.2,11.6-1.2,23.5-1.7,35.5-1.5l.5-35.5c1.8.9,2.3.4,1-1,11.8,0,23.4-.2,35-1v-110c-.2-.6-.5-1-.7-1-9.5-.3-19.1-.2-28.5,0-2.8-.4-4.8,0-5.9,1-.8,11.5-1,23.2-1,35v.4c.1,0-34.9,2-34.9,2l-1,35h-39v37.5l-4.5,2.5h-30.5l-1,37-38-1c-3,11.3-2.8,24.7,0,36l-1.2-2c-1.7-.7-35.2-1-35.8.7v1.3l-2,1.2c-.8,1.5-.3,28.5,0,35.8h-34.3c-1.3.3-2.3,1.2-2.7,2.5l-1.1,35.6c-10.8.2-21.7-.2-32.5-1.2l-1.4,2c-12.4.2-25.2,1.1-37.6,1.9l.6,36.1,5.4,1.9c22.2.9,44.4,1.3,66.6,1.2v31.7ZM344.7,338.2s0,0-.1,0c0,0,0,0,0-.1h0Z"/>
    <path class="st3" d="M643,154v31c2.3-3.3,1-26,0-31Z"/>
    <path class="st3" d="M642,185c-.4.2-.7.7-1,1h1v-1Z"/>
    <path class="st3" d="M121,597c-3.4-.2-7-.4-10.6-.5,3.6,0,7.2-.3,10.6-.5.8-11,.8-22,0-33,.8-.5.9-.8,0-1h-37.1v106.5l38.1,2.5c-.2-13,0-26,0-39,0-11.9-.2-23.5-1-35ZM86,596c3.4.2,7,.4,10.6.5-3.6,0-7.2.3-10.6.5.9-.4.9-.7,0-1Z"/>
    <path class="st3" d="M230,337c.8.2,2.1-.1,3,0v-39h-37c.2,12.5,0,25.5-1,38,11.7-.1,23.4.2,35,1Z"/>
    <path class="st3" d="M158,450h-36c0,12,0,24,0,36l36-1c.3-11.6-.3-23.4,0-35Z"/>
    <path class="st3" d="M193,414h0c0,0-35,0-35,0,1.6,11.1,1.3,22.8,1,34,11.4.5,22.9.7,34.5.4.5-11.1.8-22.8.5-34,0-.2-.4-.4-1-.5Z"/>
    <path class="st3" d="M158,347l2,2v-11h33v36l-34,1h35v-38h-36c0,3.3.2,6.7,0,10Z"/>
    <path class="st3" d="M309,854.5v-33.8c-.5-.7-1.2-.9-2-.7h0c-11.8-.5-24.3-.8-36.1,1.1v73.8c-1.3,2-32.9,1.2-37.9,1.2,0,4.6-.9,32.3.9,33.6,24.7,1.4,49.5,0,74.1-.6l2-1.2.2-30.5,31.7-1.3,1.1-2v-37l-2.4-2.1c-10.5-1.3-21.1-1.4-31.6-.5Z"/>
    <path class="st3" d="M417,820c-11-.8-22-.8-33,0-4.6,9.8-.7,24.8-2,36,5.2-.1,31.7,2.8,34.6-.9.9-11.7.3-23.4.4-35.1Z"/>
    <path class="st3" d="M234,297c11.3.8,23.8.9,35,0,.8-11.5,1-23.2,1-35l36.6-.9c.6-25,.7-50.1.4-75.1-4.7,0-34.2-.7-35.6,1l.6,37.4-2,.6-37,1c0,11.6.1,23.4,0,35,0,12.2.2,24.2,1,36Z"/>
    <rect class="st3" x="233" y="709" width="36" height="35"/>
    <polygon class="st3" points="271 782 234 784 234 819 271 819 271 782"/>
    <path class="st3" d="M755,782h33,0c0-5.6,2.8-33.3.6-36.2l-33.6-.9c.1,2.9-2.1,8.8-1.1,12.5l3.1,1.5-3,1.5,3.1,6.1-3.1,1,1.1,14.5Z"/>
    <polygon class="st3" points="571 821.5 571 855 603 855 603 821 574.5 820 571 821.5"/>
    <path class="st3" d="M369.6,708.8l-24.5.2c8.2,0,16.3,0,24.5-.2Z"/>
    <path class="st3" d="M342,718h-24v1h24l2,3v-13h1.1c-1,0-2.1,0-3.1,0v9Z"/>
    <path class="st3" d="M369.6,708.8l122.4-.8c-40.8-.8-81.7.4-122.4.8Z"/>
    <polygon class="st3" points="569 563 569 633 570 597 603 597 603 596 570 596 569 563"/>
    <path class="st3" d="M343,735c-1.5.4-5.9-1.1-6,1,1.5-.4,5.9,1.1,6-1Z"/>
    <path class="st3" d="M576,634c-1.6.3-5.2-1-5,1,1.4-.4,5,1,5-1Z"/>
    <path class="st3" d="M342,738c.2,1.5-.8,4.3,1,4-.2-1.5.8-4.3-1-4Z"/>
    <polygon class="st3" points="500.5 697 501 696.5 500.5 696 500.5 697"/>
    <polygon class="st3" points="500.5 681 500.5 682 501 681.5 500.5 681"/>
    <path class="st3" d="M865,485c-12.3,0-24.7.9-37,0v38l37-1c.5-12.4,0-24.7,0-37Z"/>
    <path class="st3" d="M494,450l-1,36h37c0-12.3,0-24.7,0-37-12-.4-24,1.2-36,1Z"/>
  </g>
  <polygon class="st3" points="789 635 789 597 718 597 718 634 754 634 754 671 827 671 826 635 789 635"/>
  <g>
    <path class="st2" d="M606,929v-33h36v-1c-12.7,0-25.3,0-38,0v35h37c-11.6-.3-23.3-1.8-35-1Z"/>
    <path class="st2" d="M754,928l-112,1v1c36.7,1,75.2.6,112,0,.7-.5.8-1.7,0-2Z"/>
    <path class="st2" d="M648,856c1.8.2,4.1,0,6,0,8.2.9,16.2.9,24,0l-34-1c-2.5-2.5,1.5-61.8,0-72,.2-.8-.2-1-1-1v74c1.6.2,3.4-.2,5,0Z"/>
    <path class="st2" d="M569.6,595.5l-.5-32.5-38.8-2.2c-.5-12.9,0-25.9-.2-38.8-.2-10.5,0-21.1,0-31.6s-2.1-.9-2.1-1.9,2,.5,2-2.5l-1.2-2.1h-33.8l.9-32.7-2-1.2c-.2,0-.8-1-1-1-11.2-2.1-22.9-2.9-34.9-2.1l.9-32.7-2-1.2c-24.6,0-49.4.2-74,0-.5-.9-.8-.9-1,0-1,11.4-1.4,23-1,34.7-12.3.7-24.7,1.4-37,2.3-23.4.5-47-.5-70.5,0l-3.4-2v-35c-24.5,1.5-49.6-1.6-74-1l.2.2c-.4,0-.9,1-1,1l-1.1,1.5v33.6c0-1.8-.7-1.7-1.2.3-11.4-.3-22.6,0-33.7.5,0,.2-1,.8-1,1-.5.9-1,1.9-1.4,2.9-2.5,7.2-.5,24.3,1.4,32.1-.6,1.8-1.1,3.5-1.5,5.3-.4,1.8-.8,3.5-.8,5.3-1.2,33.1-2,66.3-1.8,99.4h-30.7l-1.2,2c-.4,11.7-.4,23.3,0,35-3.1,12.6-3.2,26.4,0,39v1s1.5,2,1.5,2.1h32.5v31.7l2,1.2c12.6.2,25.3,1,38,1,24.9.2,50.1,1,75,1,.5.9.8.9,1,0h70l150-1,1-1c-.1-9,.5-17.6,1.9-25.8-1.5.4-1.5-.5,0-2.6-2-.8-2-4.5-1.1-6.5,0,0,.2-.2.2-.4,0,0,.1-.2.2-.3,12.6.3,24.7,0,36.7-.5,0-12.1.3-23.8.8-35l.7-1.5,35.5-.5,1-1,.5-35.5c2-.6,2-1.3,0-2Z"/>
    <path class="st2" d="M457,834v46c.2,5.1-.2,10.1-1,15l-38,1v1l2,32v-33h38l-1-114v52Z"/>
    <path class="st2" d="M417,783l-1,36h-144l-1-37h0c0,.1-2,1.3-2,1.3-.4,1.5-.9,26,0,33.6-4.3-.7-26.2-.7-33,.3,1-6.3.4-25.6,0-32,0-.7-1.2-1-2-1.2h-1v36c12.6.2,25.5,1,38,1s24-1,36-1c25.6,0,51.4,0,77,0h33c.2-12.3,0-24.7,0-37Z"/>
    <path class="st2" d="M344,745c-24.7-.6-49.4-.6-74,0-12.3,0-24.7-.2-37,0v1h174.5l-63.5-1Z"/>
    <path class="st2" d="M788,855l-33,1,34,1v-37c0-5,.8-36.7-1-38-.2,24.3,0,48.7,0,73Z"/>
    <path class="st2" d="M604,375c-1.6-2-3.4-2-5,0l4,1.6v70.4l-67,1c9.2,1.1,23.2,0,33,0,11.7-.1,23.3,0,35,0v-73Z"/>
    <path class="st2" d="M827,413.5c0-.2-.4-.4-1-.5h-1l-2,1.5c.3,10.5,0,20.7-.7,30.6l-61.4.9-.9,2c21.7-.2,43.3,0,65,0h1c.6-.1,1-.4,1-.6.3-11,.3-22.9,0-33.9Z"/>
    <path class="st2" d="M755,414c23,.4,46-.1,69-1h-70v35h1v-34Z"/>
  </g>
  <polygon class="st4" points="195 522 196 596 269 597 195 597 195 522"/>
  <g>
    <path class="st1" d="M786,782h-31l1.9-1.5-.9-11.4.8-7.4-1.1-5.6,1.2-9.3-1.9-1.8,1.9-3.7-2.8-31.7-1.6-1.6-1.8-2h-29.7v-31.8l-2-.7-1-2.5-1.2-2h-36.1l-.7,2-1-2.5,2-1.2v-31.6l-2-.7-1.5,1-1.2-2h-32.3v-36.3l-2-.7-1.2-2h-34.8v-30.8l-2-.7-1.5-1.5-1.5-2h-28.6l-2.4-37.5-2-.5h-38l-1.2,39.7,2.4,1.2,37.6,1.4.2-1.3,1,33h33v1h-33l-1,36-1,1h-38l1,37h-38v36l-1,1-148,1-1,.5-1,9.5h-24v-1h24v-9h-71l-1,36c24.6-.2,49.4,0,74,0l-111,1v38h1l1.3,1.9,35.1-1.9.6-2,1,37,.7,1,143.3-1,1-36,1.2,2,38.2-1,.6-2,.3,112.1.7,1.9-2.5-.5-35.5.5-1,.7,1,32.3h73v-41l1.2-30.2.8,1.7,32.6-.3,2.4-2.2v-37l1-38,2.5,1h34l2.5-1v75h34v-75h38v-37l2.5.5h32l2.5-.5v30l-.5,6.5-34.5,1.5-.5,72.3,34.5.7h1l1.1,2.9,35.9-.4v34.1l-1.2-.5-33.9.9-2.9,2h-36v1l-2,1.5v30.6l2,.9h111.8l.2-1,1-72h33.2l-.2-74h-2Z"/>
    <path class="st1" d="M755,337c10.8.7,21.8.7,33,0,10.7-.6,22.7.3,33-1,1.6-.2,3.4,0,5,0v-38l-1,37-70,2Z"/>
    <polygon class="st1" points="825 894 790 895 826 895 826 894 826 820 825 820 825 894"/>
    <path class="st1" d="M529,894l-34,1h35c0-12.3,0-24.7,0-37l-1,36Z"/>
    <polygon class="st1" points="528 225 528 224 494 225 528 225"/>
    <polygon class="st1" points="528.5 114 528.5 112 493 112 493 149 494 114 528.5 114"/>
    <polygon class="st1" points="529 224 529 114 528.5 114 528 224 529 224"/>
    <path class="st1" d="M677.4,188.1l.6-2.1h-37c-12,0-24-.1-36,0v38l1-35.9h71.4Z"/>
    <path class="st1" d="M717,187l-1,37-73,1c25,.3,50-.4,75,0,1.5-10.4-1.7-23.1-1-33,1.8-.8,1.1-3.6,0-5Z"/>
    <polygon class="st1" points="753 185 754 150 678 151 753 151 753 185"/>
    <path class="st1" d="M792,262h46c-15.3-.2-30.7,0-46,0Z"/>
    <path class="st1" d="M840,262l25,1c-1-1.8-21.2-1-25-1Z"/>
    <path class="st1" d="M754,266c0-.6,1.7-2.5,1-4h-1v4Z"/>
    <path class="st1" d="M158,485.1l-1.5-2c-2.3-.7-29,.5-33.4.9-.6,0-.9,1.2-1.1,2-.3,25.4-.2,50.6-1,76v1c.4,11.4.7,22.7,1,34h34c-.8-37.4,1.1-74.6,2-111.9Z"/>
    <path class="st1" d="M158,485s0,0,0,0h0s0,0,0,0Z"/>
    <path class="st1" d="M270,298v-36l-1,35h-35l-1-36v1c0,12,0,24,0,36h37Z"/>
    <path class="st1" d="M530.1,446.4c1.1,2.5,3.9,1.4,5.9,1.6l67.5-.6v-71.2c-1.3-.7-2.8-1.1-4.5-1.2-18.5-3.2-38.6-2.4-57.6-1.4-1.7,0-3.4.5-5.2.9-1.8.4-3.5.9-5.2,1.5-3,6.5-2.9,14.5,0,21-2.1.7-2.1,2.3,0,3-2.9,1.6-4.3,11.5-1,13-.1,11.2-.1,22.3,0,33.4Z"/>
    <polygon class="st1" points="754 522 679 522 679 563 754 562 754 522"/>
    <path class="st1" d="M493,449l1-36h-1c-12.1-.2-24,0-36,0l-1,36c12.3,0,24.7-.2,37,0Z"/>
    <path class="st1" d="M678,449h.1l-1.5-2c-2.3-.8-29-.3-33.4,0-.6,0-1,1.2-1.2,2v36c24.9-1,50.1.7,75,0l-73-1v-34l34-1Z"/>
    <path class="st1" d="M825,413h-1l-69.3.5c-.5,11.7-.4,23.2.3,34.5h5l65-1v-34Z"/>
    <polygon class="st1" points="679 448 680 375 679 375 679 448"/>
    <polygon class="st1" points="493 226 492 261 457 261 457 263 493 262 493 226"/>
    <path class="st1" d="M529,375h1l1-38h148v-39c-24.7,0-49.4-.1-74,0l-1,37h-75v40Z"/>
    <path class="st1" d="M383,376l72-1h-73c0,12.6.2,25.4,0,38h1v-37Z"/>
    <path class="st1" d="M344,448.1v1.9c12.7-.3,25.3-.5,38-1,.5-12-.2-24,0-36-12.3-.1-25-2-37.4-1l-.6,2h0c.3,10.8-1.5,23.6,0,34.1Z"/>
    <path class="st1" d="M194,597h-35.9c0,.6,2,.7,2,1.5s-2.1-.2-2.1,1.9v35.6l36-1c-.2-12.7.1-25.4,0-38Z"/>
    <path class="st1" d="M761,767c1.5-.4,6,1.1,6-1-1.5.4-6-1.1-6,1Z"/>
  </g>
  <g>
    <path class="st5" d="M196.5,596.5c-.3-1.6-.6-2-1-.7l-.5-73.8h-37c.1,25-.2,50,0,75,1.3.2,2.1.8,2.1,2h32.1c-1.1,12.4-.6,24.4,1.8,36,.2,12,0,24,0,36h76l2.1-37.5v-32.1l-3.1-4.4-72.5-.5Z"/>
    <polygon class="st5" points="381.5 522 380 523.5 380 596.5 381.5 598 419 598 419 522 381.5 522"/>
  </g>
</svg>