<?xml version="1.0" encoding="UTF-8"?>
<svg id="_레이어_1" xmlns="http://www.w3.org/2000/svg" version="1.1" viewBox="0 0 1024 1024">
  <!-- Generator: Adobe Illustrator 30.0.0, SVG Export Plug-In . SVG Version: 2.1.1 Build 123)  -->
  <defs>
    <style>
      .st0 {
        fill: #45b6b2;
      }

      .st1 {
        fill: #6ee5db;
      }

      .st2 {
        fill: #4cdfd2;
      }

      .st3 {
        fill: #c0fff3;
      }

      .st4 {
        fill: #29aba6;
      }

      .st5 {
        fill: #203c3e;
      }

      .st6 {
        fill: #2c4748;
      }

      .st7 {
        fill: #163335;
      }

      .st8 {
        fill: #fefefe;
      }

      .st9 {
        fill: #072628;
      }

      .st10 {
        fill: #70e5db;
      }

      .st11 {
        fill: #7acbc8;
      }
    </style>
  </defs>
  <path class="st6" d="M773,551c.3,1,1.2.8,2,1l1,160c.4,1,1.2.9,2,1,9.2,1.2,20.6-.9,30,0,2.3,9.3.4,20.2,1,30h-32c-1.6,8.8-1.1,18.5-1,27.5,0,1.7-.6,4.5,1,5.5,0,.2.8.6,1,1l62.5,1.1,1.3-.2c.2-.7,1.2-2,1.2-2.3v-29.5c8.8-.3,17.7.3,26.5,0,1.9,0,4,1,3.5-2,.3,0,.7,0,1,0,1.7-1,1-3.8,1-5.5,0-7.3.8-17.1,0-24.1-.1-1.4,0-1.5-1.1-2.4s-3-.9-4.4-1c-18.1-1.3-41.1-.3-59.6,0,.4-8.3-.5-16.8,0-25l1-3c0-.3-.1-.7,0-1l92-1v94h-31v32h-95.5c-.1,0-1.5,1.4-1.5,1.5v30.5l-94,1c1.6-8.6-1.2-21.9,0-31-10.3,0-20.7,0-31,0,2.2-9.9.4-20.8,1-31h29c.6,9.8-1.3,20.4,1,30,0,.4.6.8,1,1h63c0-.3,0-.7,0-1,3,.6,1.9-1.5,2-3.5,1.4-41.2-1.1-82.7,0-123.9-.6-2.6-23.7-1.7-27.6-1.7-1.7,0-4.5-.6-5.5,1h-1v-30c4.3-.7,30.4,1,31.8-.2.5-.4,0-1.6.2-1.8s2.4.6,2.1-1.4v-94.6c-.2-.3,0-.8,0-1,8.7.1,17.3-.2,26,0h0Z"/>
  <path class="st6" d="M691,167l-3,2c7.5-.5,15.8,1.2,23-1v64c.3.4,1.5-.9,2-1,6.2-.7,23.4-.8,29.5,0,1,.1,2.3-.3,2.5,1-3-.6-1.9,1.5-2,3.4-2.3,58.4-2,125.5,0,184.1,0,1.9-1,4,2,3.5,0,1-.7.9-1.5,1-9.3,1.2-21.2-1.2-30.5,0-.7,0-2.1-.5-2,.6v94.4c-20.6,0-41.3,0-62,0-21,0-42,0-63,0v-29h93.6c2,.4,1.3-1.8,1.4-2s2.4.6,2.1-1.4l-1.1-63.6h30c2.2-52.5.4-105.4,1-158h-30v-98c2.7,0,5.3,0,8,0h0Z"/>
  <path class="st6" d="M199,168v288c-5-.1-10.1.3-15,0-.1,0-1.1-1-2.4-1-4.1-.3-8.4.3-12.6,0V168c8.2-.8,21.6-.4,30,0h0Z"/>
  <path class="st6" d="M296,94c0-.2,1-1.1,1-2.4.3-6.5-.3-13.1,0-19.6h286c.2,7.2-.3,14.4,0,21.6,0,1.3,1,2.3,1,2.4,0,1.7,0,3.3,0,5h-287c0-1.6.6-4.2-1-5,0-.7,0-1.3,0-2Z"/>
  <path class="st6" d="M200,551c0,.7-1,2.5-1,4.4-.3,41.2.3,82.4,0,123.6h-30l-1-127c0-1,.6-.9,1.4-1,9.3-1.2,21,.9,30.6,0Z"/>
  <path class="st6" d="M328,810v31c10.6,0,21.4,0,32,0h1c-.1.6.2,1.5,0,2-.7,2.3-.9,2.3-1,5-4.9-7.7-10.9-4.1-17.5-4.2-2.3,0-13.5-1.8-14.5-.8.1,1.6-.2,3.4,0,5h-1c0-2.3,0-4.7,0-7h-31v-32h1c.4.9.4.8,1.5,1,7.8,1.2,21,0,29.5,0h0Z"/>
  <path class="st6" d="M648,135c11,0,22,0,33,0,0,10.6,0,21.4,0,32h-1c-1-1.7-3.8-1-5.5-1-8.5-.1-17,0-25.5,0,1.1-10.2-1-21.1-1-31h0Z"/>
  <path class="st6" d="M391,872v31h-30c-.6-9.1,1.3-19.2-1-28v-3c10.3,0,20.7,0,31,0Z"/>
  <path class="st5" d="M811,682c.2-.6-.6-2.2.6-2h93.4v96h-31v33h-97v32h-96v31h-64v33h32v64l-384,1,1-65,1,1v62c10,0,20,0,30,0s20,0,30,0c43,0,86,0,129,0h32c53,0,106,0,159,0v-62c-3.7-1.1-32,3.1-32-1.5v-32.5c1,.3,2.2-1,2.5-1h61.5l1-30c.7,0,.9-.3,1-1l94-1v-30.5c0-.1,1.4-1.5,1.5-1.5h95.5v-32h31v-94l-92,1h0Z"/>
  <path class="st5" d="M296,94v-24h288v26c0-.1-1-1.1-1-2.4-.3-7.2.3-14.4,0-21.6h-286c-.3,6.5.4,13.1,0,19.6,0,1.3-1,2.2-1,2.4Z"/>
  <path class="st9" d="M521,101v2h-1c-74.3,0-148.7,0-223,0-.9,9.8,1.2,21.5,0,31-.4.2-.9.6-1,1h-63v-1h62v-30c.8,0,.8-.4,1-1,.1-.5,0-1.3,0-2h225Z"/>
  <path class="st9" d="M201,169c0,2.3,0,4.7,0,7l-1,1.5,1,.5c0,29,0,58,0,87v158c0,8.3,0,16.7,0,25,0,.7,0,1.3,0,2,0,2,0,4,0,6h-2V168c.3,0,.7,0,1,0,.2,0,.6.8,1,1Z"/>
  <path class="st7" d="M201,552c0,42.7,0,85.3,0,128h-33v-128l1,127h30c.3-41.2-.4-82.4,0-123.6,0-1.9,1-3.7,1-4.4h1v1h0Z"/>
  <path class="st7" d="M745,232v191c-3,.6-1.9-1.5-2-3.5-2-58.5-2.3-125.6,0-184.1,0-1.9-1-4,2-3.4h0Z"/>
  <path class="st7" d="M777,552v160h-1l-1-160c.6.1,1.4,0,2,0Z"/>
  <path class="st7" d="M169,168v287c4.1.2,8.4-.3,12.6,0,1.3,0,2.3,1,2.4,1h-16V168c.3,0,.7,0,1,0h0Z"/>
  <path class="st7" d="M713,424c0,32,0,64.1,0,96v1c-6-.1-13.3-1-18.5-1h-28c-5.7,0-11.4.5-17.5,0v-1c20.7,0,41.3,0,62,0v-94.4c-.1-1.1,1.3-.5,2-.6h0Z"/>
  <path class="st7" d="M648,103l1,1c1.1,5.9,0,18.7,0,25.6,0,2-1,4-1,5.4-10.3,0-20.7,0-31,0-9.4,0-21.7,1-30.6,0-1.4-.2-1.4,0-2.4-1.1-.2-10.3.2-20.7,0-31,21.3,0,42.7,0,64,0ZM647,104h-61v30h61v-30Z"/>
  <path class="st9" d="M874,712v1h-63l-1,30.3c-.2.7-2.3,1.7-2.5,1.7h-30.5c.6,10.1-.8,21.1,0,31-1.7-1-1-3.8-1-5.5-.1-9-.6-18.7,1-27.5h32c-.6-9.8,1.3-20.7-1-30v-1c.9,0,1.8-1,2-1,18.5-.4,41.5-1.4,59.6,0,1.4,0,3.4.1,4.4,1Z"/>
  <path class="st7" d="M266,776l31,1c.8,9.7-1.2,21.7,0,31,0,.4-.1.8,0,1h-1c-9.2,0-20.1.8-29,0l-2-1c-.9-3.7-.3-22,0-27,0-.9,1.1-2.3,1-5ZM295,778h-28v26.5c0,.3-1.4,1.4-1,2.5h29v-29Z"/>
  <path class="st7" d="M683,167v98h-2c0-32.3.2-64.7,0-97v-1h2Z"/>
  <path class="st5" d="M712,167l1,1v63c-.5,0-1.7,1.4-2,1v-64c-7.2,2.2-15.5.5-23,1l3-2c5.8,0,16-.9,21,0h0Z"/>
  <path class="st5" d="M296,103c-.2.6-.2,1-1,1h-62c0,10,0,20,0,30v3c-.6-.2-1.5-.9-2-1-9.5-.9-20.4.7-30,0,0,10,0,20,0,30v1c-.2,0-.7.8-1,1-.3,0-.7,0-1,0-8.4-.4-21.9-.8-30,0-.3,0-.7,0-1,0,1-1.7,3.8-1,5.5-1,8.8-.1,17.7.1,26.5,0v-32h32v-32h64Z"/>
  <path class="st5" d="M713,520h32c1.1,1.1-1.1,26.2,0,30.4.3,1.1,1.9.5,2,.6.1.2,0,.7,0,1-.7,0-1.3,0-2,0-10.4-1.3-21.8,2-32-2h30v-29c-10-.1-20,.2-30,0v-1h0Z"/>
  <path class="st7" d="M233,680v64h-2v-64h2Z"/>
  <path class="st5" d="M584,101c0,.7,0,1.3,0,2-21,0-42,0-63,0v-2h63Z"/>
  <path class="st7" d="M392,903v2c-10.6,0-21.4,0-32,0,0,9.4-1.2,23.3,0,32-1,0-.9-.7-1-1.5-.6-4.5,1.1-28.5,0-29.6h-92l-1-1c31.3,0,62.7,0,94,0,0-10,0-20,0-30,2.3,8.8.4,18.9,1,28h30v-31h1v31h0Z"/>
  <path class="st5" d="M219,680c-.1,0-1.1,1-2.4,1-5.2.3-10.4-.3-15.6,0v62h30v1c-10.3,0-20.7,0-31,0v-64h19Z"/>
  <path class="st5" d="M208,456v2c-2.3,0-4.7,0-7,0,0,31,0,62,0,93h-1c.2-31.7-.2-63.4,0-95h1c2.3,0,4.7,0,7,0h0Z"/>
  <path class="st5" d="M328,848c0,.2,1,1.1,1,2.4.4,6.8-.4,13.8,0,20.6,10.2-.6,21.1,1.2,31-1v2c-8.5,0-24.6,1.4-32,0l-1-1c-1.1-5.7.2-16.5,0-23h1,0Z"/>
  <path class="st6" d="M236,744v2c-1,0-2,0-3,0v29h32v1h-33v-32h4Z"/>
  <path class="st5" d="M808,712v1c-9.4-.9-20.8,1.2-30,0v-1c10,0,20,.2,30,0Z"/>
  <path class="st4" d="M266,776c.1,2.7-.9,4.1-1,5v-7c.9.3,1,1.2,1,2Z"/>
  <path class="st5" d="M297,101h-1c0-1.6-.2-3.4,0-5,1.6.8.9,3.4,1,5Z"/>
  <path class="st4" d="M777,552c-.6,0-1.4.1-2,0-.8-.2-1.7,0-2-1,1.3,0,3.3-.5,4,1Z"/>
  <path class="st0" d="M810,686c.1-2.1.8-2.5,1-3l-1,3Z"/>
  <path class="st4" d="M778,712v1c-.8-.1-1.6,0-2-1h2Z"/>
  <path class="st6" d="M267,809c-1,0-1.7.3-2-1l2,1Z"/>
  <path class="st6" d="M713,168l-1-1c.7.1,1,.3,1,1Z"/>
  <path class="st6" d="M649,104l-1-1c.7,0,.9.3,1,1Z"/>
  <path class="st6" d="M328,872c-.8-.1-.9-.2-1-1l1,1Z"/>
  <path class="st2" d="M713,680h2c-.6,3,1.5,1.9,3.5,2,8.5.3,17.1-.2,25.5,0v61c-9.1.6-19.2-1.3-28,1-.3,0-.7,0-1,0-1.4-8.6,1.9-23.6,0-31.3-.1-.6-2.2-1.7-2.5-1.7h-29.5c-.6-9.8,1.3-20.4-1-30,9.6-1.8,20.9-1,31-1Z"/>
  <path class="st0" d="M648,809h2c10.3,0,20.7,0,31,0-1.2,9.2,1.6,22.4,0,31-.1.7-.3,1-1,1h-63v-32c10.3,0,20.7,0,31,0h0Z"/>
  <path class="st0" d="M713,648v32c-10.1,0-21.4-.8-31,1h-1v-1c0-10.6,1-21.7,1-32h31Z"/>
  <path class="st2" d="M874,713v31c-.3,0-.7,0-1,0-9.4,1-20.7-1.1-30,0-.3,0-.7,0-1,0,7.5-3,21.5.1,30-1v-29h-60v31c-1-.3-2.2,1-2.5,1h-30.5v29h61v-30.4c.2-1.2,1.5-.4,2-.6,0,.3,0,.7,0,1-1.2,9.5.9,21.2,0,31-20.6,1.5-41.3,1-62,1h-2c-.2-.4-1-.8-1-1-.8-9.9.6-20.9,0-31h30.5c.3,0,2.3-1,2.5-1.7l1-30.3h63Z"/>
  <path class="st2" d="M681,777c.1,0,.7-1.4,2-1v32c.4.5,1.3-1,1.5-1h59.5v-29h-29.4c-1.2-.2-.4-1.5-.6-2l31,1c0,9.1,1.2,22.5,0,31,0,.3,0,.7,0,1h-63c-.4-.2-.9-.6-1-1-1.7-8.5,1.2-21.9,0-31Z"/>
  <path class="st7" d="M714,680c1-1.7,3.8-1,5.5-1,3.9,0,27-.9,27.6,1.7-1.1,41.2,1.3,82.7,0,123.9,0,1.9,1,4-2,3.5,1.2-8.5,0-21.9,0-31,0-11,0-22,0-33,0-21,0-42,0-63-.3-2.1-.9,0-1,0-8.8.1-19.6-.9-29-1h-1Z"/>
  <path class="st7" d="M747,552v94.6c.4,2-1.8,1.3-2,1.4-.1.1.3,1.3-.2,1.8-1.4,1.2-27.5-.4-31.8.2v-2h-31v-1l-1-3v-3c1.7-2,1.7-7.8,0-10,0-3.7.5-8.6,0-12l1-.5-1-.5c-1.4-2.9-26.6.4-31-1-1-.3-.9-.4-1-1.5-1.2-9.3.9-21,0-30.6,10.3.2,20.7-.2,31,0,.3,0,.7,0,1,0,1.2,9.2-1.6,22.4,0,31,.1.8.2.9,1,1,4.6.9,29.9-1.1,31,0,0,10.3,0,20.7,0,31,4.3,0,30.9,1.1,32,0v-96c.7,0,1.3,0,2,0h0ZM680,586h-29v29h29v-29ZM712,618h-29v29h29v-29Z"/>
  <path class="st9" d="M873,744c.6,3-1.5,1.9-3.5,2-8.8.3-17.7-.3-26.5,0v29.5c0,.4-1,1.6-1.2,2.3l-1.3.2-62.5-1.1h2c20.7,0,41.4.5,62-1,.9-9.8-1.2-21.5,0-31l1-1c9.3-1.1,20.6,1,30,0Z"/>
  <path class="st7" d="M874,744v-32c1.1.9.9,1,1.1,2.4.7,7,0,16.8,0,24.1,0,1.7.6,4.5-1,5.5Z"/>
  <path class="st0" d="M683,265h30c-.6,52.6,1.2,105.5-1,158h-31c0-52.6,0-105.4,0-158h2Z"/>
  <path class="st9" d="M587,488h94c-.2.2.6,2.4-1.4,2.1h-93.6c0,0,0,28.9,0,28.9,21,0,42,0,63,0v1c-1.3-.1-3.4-.4-4,1-1,0-2,0-3,0l-57-1v-32h1l.5,1,.5-1Z"/>
  <path class="st7" d="M682,423l1.1,63.6c.3,2-1.9,1.3-2.1,1.4,0-21.6,0-43.4,0-65h1Z"/>
  <path class="st2" d="M550,648c.3,1,1.2,1,2,1-.8,3.8.9,8,.9,11.4,0,6.1-.9,13-.9,19.6-1.7,1-1,3.8-1,5.5,0,7,0,14,0,21,0,1.7-.6,4.5,1,5.5,0,.4,0,.8,0,1,.4.9.3.8,1.5,1,4.5.7,28.5-1.1,29.5,0,1.2,7.1-2,24.6,1,30,.2.3.7.8,1,1,.9.5.8.9,2.4,1.1,8.8,1,19.5-.9,28.6,0,1.1,1.1-1.6,26.3,1,30,.3,0,.7,0,1,0-.6,3,1.5,1.9,3.5,2,8.8.3,17.7-.2,26.5,0v31c-10.3,0-20.7,0-31,0v31c-10.1.6-21.1-1.3-31,1h-2c0-10.5.5-21.6,0-32,0-.7,0-1.3,0-2h-30c-.2-8.8.3-17.7,0-26.5,0-1.9,1-4-2-3.5,0-.3,0-.7,0-1h-64v64l-127,1h-1v-32c-10.6,0-21.4,0-32,0s-20.7,0-31,0c-.1-.2,0-.6,0-1,1.7-1,1-3.8,1-5.5.1-8.8,0-17.6-.2-26.3-.7-.2-2-1.2-2.3-1.2h-28.5v-31c-.7,0-1.3,0-2,0-2.3-.1-4.7,0-7,0-7.3-.1-14.7,0-22,0h-3v-94h31v61.4c-.1,1.1,1.3.5,2,.6,8.7,1.1,22.1-1.7,30,0,.5.1.7.7,1,1,.9,9.8-1.2,21.5,0,31,0,.7-.5,2.1.6,2,40.7-1.2,82.3,1.6,122.9,0,1.9,0,4,1,3.5-2,.3,0,.7.1,1,0,.9-.4.9-.3,1-1.5.6-4.3-1-27.5,0-28.5h29.4c1.2-.2.4-1.5.6-2,3.1-7.8-.2-23.1,1-32,20.1-1,41.7,0,62,0h3c9.7,0,19.3,0,29,0v-30c-6.5-.2-13,.2-19.5,0-1.9,0-4,1-3.5-2,7.3.2,14.7,0,22,0h0Z"/>
  <path class="st4" d="M408,843h16c-.6,4.2,1.2,26-.9,27.6s-22.7-.2-27.6.4c-1,.1-1.1,0-1.5,1h-3c-10.3,0-20.7,0-31,0v-2c0-7.3-.4-14.8,0-22,.1-2.7.3-2.7,1-5h47Z"/>
  <path class="st0" d="M328,810c10.3,0,20.7,0,31,0,1.1,1.1-1.6,26.5,1,30v1c-10.6,0-21.4,0-32,0v-31h0Z"/>
  <path class="st6" d="M360,848c-.4,7.2,0,14.7,0,22-9.9,2.2-20.8.4-31,1-.3-6.8.5-13.8,0-20.6,0-1.3-1-2.2-1-2.4-.2-1.6.1-3.4,0-5,1-1,12.2.8,14.5.8,6.6.1,12.6-3.5,17.5,4.2h0Z"/>
  <path class="st6" d="M408,841v2h-47c.2-.5-.1-1.4,0-2,15.6,0,31.4,0,47,0Z"/>
  <path class="st9" d="M328,809v1c-8.5,0-21.8,1.2-29.5,0-1.1-.2-1,0-1.5-1,10.3,0,20.7,0,31,0Z"/>
  <path class="st2" d="M522,104c20.3,0,40.7,0,61,0,1,1-.5,23.4,0,27.6.2,1.4,0,1.4,1,2.4s1,.9,2.4,1.1c8.9,1,21.2-.1,30.6,0,0,5.6,0,11.4,0,17,0,3.9-.3,8.2,0,12,0,.6-.2,1.6,0,2,.4,1,.4.8,1.5,1,7.2,1.3,22.3,0,30.5,0,10.3,0,20.7,0,31,0h1v1l-1,319c-32,0-64,0-96,0-31.3,0-62.7,0-94,0v-29h62.5c.1,0,1.5-1.4,1.5-1.5v-31.5c8.5-1.1,22.5,2,30-1,.5-.2,1.8.6,2-.6v-30.4c9.1-.9,21.5,1.7,30-1,.3,0,.7-.7,1-1,.2-.2,1.9.6,2-.6v-90.9c.4-2.2-1.8-1.2-2-1.4s-.8-.7-1-1c-.2-.2.6-1.7-.6-2-4.1-1-28.3,1.1-29.4,0v-30c-.7,0-1.3,0-2,0-20.4-1-42.4,0-63,0h-2c-5.8-1.7-14.3-1.7-20,0-6,0-12,0-18,0-.7-1.6-4.3-1.6-5,0-1.7,0-3.3,0-5,0-3.3-1.8-8.9-1-13-1v-30c19.5-.6,39.1.8,58.5,0,1.9,0,4,1,3.5-2,.3,0,.7.1,1,0,.9-.4.8-.4,1-1.4.7-4.5-1.1-28.5,0-29.6,8.8-.9,20.1,1.3,28.5,0,1.1-.2,1,0,1.5-1,.1-.3,0-.7,0-1,3,.6,1.9-1.5,2-3.4.6-15.7,1.8-42.2,0-57.1-.2-1.5-.3-1.4-1.1-2.4-.3-.4-.5-.9-1-1-3.7-2.6-28.9.1-30-1v-30h0Z"/>
  <path class="st0" d="M648,135c0,9.9,2.1,20.8,1,31h-32c-.2-.4,0-1.4,0-2,1.7-2.7,1.7-9.1,0-12,0-5.6,0-11.4,0-17,10.3,0,20.7,0,31,0Z"/>
  <path class="st9" d="M680,167c-10.3,0-20.7,0-31,0v-1c8.5,0,17-.1,25.5,0,1.7,0,4.5-.6,5.5,1Z"/>
  <path class="st6" d="M680,841l-1,30h-61.5c-.3,0-1.5,1.3-2.5,1v32.5c0,4.6,28.3.4,32,1.5v62c-53,0-106,0-159,0v-30h-32v30c-43,0-86,0-129,0,.5-10-1.1-20.3,1-30h-31v30c-10,0-20,0-30,0v-62h92c1,1-.6,25.1,0,29.6.1.8,0,1.5,1,1.5,0,.3,0,.7,0,1h65c0-.3,0-.7,0-1v-65c-.7,0-1.3,0-2,0-8.9-.8-19.8,0-29,0,.3-1,.4-.9,1.5-1,4.9-.6,25.4,1.1,27.6-.4s.3-23.4.9-27.6c21.3,0,42.7-.1,64,0,10.3,0,20.7,0,31,0,.2,9.3-.3,18.7,0,28h-64v35h64v31c.7,0,1.3,0,2,0v1h63c0-.3,0-.7,0-1,.7,0,2.1.5,2-.6v-93.4c8.8-.2,17.7.3,26.5,0,1.9,0,4,1,3.5-2h64,0Z"/>
  <path class="st0" d="M456,968v-30h32v30h-32Z"/>
  <path class="st0" d="M297,968v-30h31c-2.1,9.7-.5,20-1,30-10,0-20,0-30,0Z"/>
  <path class="st6" d="M295,104v30h-62c0-10,0-20,0-30h62,0Z"/>
  <path class="st4" d="M520,103v1c-74,0-148,0-222,0-1.1,1.1,1.6,27.2-1,31,0-.3,0-.7,0-1,1.2-9.5-.9-21.2,0-31,74.3,0,148.7,0,223,0h0Z"/>
  <path class="st4" d="M296,135c-.2.6.6,1.9-.6,2.1h-61.4c-1.1,1,1.6,26.3-1,29.9,0-.3,0-.7,0-1,.2-1.5,0-3.4,0-5v-1c0-7.6,0-15.4,0-23v-2h63Z"/>
  <path class="st2" d="M584,103c.2,10.3-.2,20.7,0,31-1-1-.9-1-1-2.4-.5-4.2,1-26.6,0-27.6-20.3,0-40.7,0-61,0h-2v-1h1c21,0,42,0,63,0h0Z"/>
  <path class="st5" d="M297,135h-1c.1-.4.6-.8,1-1,0,.3,0,.7,0,1Z"/>
  <path class="st4" d="M232,297v61c-3,.6-1.9-1.5-2-3.5-.6-18.8.5-37.7,0-56.5h-28c0,20.3,0,40.7,0,61h-1v-62h31Z"/>
  <path class="st4" d="M232,167c-.1.7.6,1.8-.6,2.1-4.1,1-28.4-1.1-29.4,0v92.6c0,0,2,3.4,2,3.4h-3c0-29,0-58,0-87v-2c0-2.3,0-4.7,0-7v-2c8.9-1.5,21.7,1.2,31,0h0Z"/>
  <path class="st4" d="M202,423c0,10.6,0,21.4,0,32h28c1.2-9.1-2.1-23.8,1-32h1c0,11,0,22,0,33-8,0-16,.1-24,0-2.3,0-4.7,0-7,0,0-2,0-4,0-6v-2c0-8.3,0-16.7,0-25,.3,0,.7,0,1,0Z"/>
  <path class="st11" d="M202,423c-.3,0-.7,0-1,0,0-21,0-42,0-63v-1h1c0,21.3-.1,42.7,0,64Z"/>
  <path class="st4" d="M201,423v-63c0,21,0,42,0,63Z"/>
  <path class="st1" d="M202,297h-1v-32h1v32Z"/>
  <path class="st4" d="M201,178l-1-.5,1-1.5v2Z"/>
  <path class="st4" d="M201,450c0-.7,0-1.3,0-2v2Z"/>
  <path class="st4" d="M201,169c-.4-.2-.8-1-1-1,.3-.2.8-1,1-1v2Z"/>
  <path class="st0" d="M231,552c0,42.7,0,85.3,0,128-4,0-8.1-.2-12,0h-18c0-42.7,0-85.3,0-128h30Z"/>
  <path class="st6" d="M208,458c7.6-.2,15.4.2,23,0,0,31.3,0,62.7,0,94h-30v-1c0-31,0-62,0-93,2.3,0,4.7,0,7,0h0Z"/>
  <path class="st0" d="M649,520c6.1.5,11.8,0,17.5,0h28c5.2,0,12.5.9,18.5,1,0,9.7,0,19.3,0,29,10.2,4,21.6.7,32,2v32c-.5,0-1,.5-1,1h-31v-33c-10.7,0-21.3,0-32,0s-21.3,0-32,0v-31c-1.3,0-2.7,0-4,0,.6-1.4,2.7-1.1,4-1h0Z"/>
  <rect class="st6" x="586" y="104" width="61" height="30"/>
  <path class="st6" d="M295,778v29h-29c-.4-1.1,1-2.2,1-2.5v-26.5h28Z"/>
  <path class="st2" d="M265,744c.7,0,1.3,0,2,0v31h28.5c.4,0,1.6,1,2.3,1.2.2,8.7.3,17.6.2,26.3,0,1.7.6,4.5-1,5.5-1.2-9.3.8-21.3,0-31l-31-1c0-.8,0-1.7-1-2v-30h0Z"/>
  <path class="st2" d="M681,265c0,52.6,0,105.4,0,158,0,21.6,0,43.4,0,65h-97v-1c32,0,64,0,96,0l1-319c.2,32.3,0,64.7,0,97h0Z"/>
  <path class="st6" d="M231,136v30h-30c0-10,0-20,0-30,9.7.7,20.5-.9,30,0h0Z"/>
  <path class="st9" d="M233,137c0,7.6,0,15.4,0,23l-1,.5,1,.5c0,1.6.2,3.5,0,5-.4.2-.9.6-1,1-9.3,1.2-22.1-1.5-31,0v-1h30v-30c.5,0,1.4.8,2,1h0Z"/>
  <path class="st6" d="M713,521c10,.2,20-.1,30,0v29h-30c0-9.7,0-19.3,0-29Z"/>
  <path class="st6" d="M231,680v63h-30v-62c5.2-.2,10.4.3,15.6,0,1.3,0,2.3-1,2.4-1,3.9-.2,8,0,12,0Z"/>
  <path class="st4" d="M233,552c-.2,21.7,0,43.3,0,65,0,10.3,0,20.7,0,31v32h-2c0-42.7,0-85.3,0-128h2Z"/>
  <path class="st11" d="M392,905v1h-30c3.5,5.8-2.5,24.8.4,29.1,1.2,1.7,25.2.9,29.6.9,3.3,0,6.7,0,10,0v1c-14,.1-28,0-42,0-1.2-8.7,0-22.6,0-32,10.6,0,21.4,0,32,0Z"/>
  <path class="st2" d="M423,872c.3,9.2-.4,18.4,0,27.5,0,1.9-1,4,2,3.5v9c-.1-1.3-1.9-4.1-1.1-6.5l-.9-.5c-10.3,0-20.7,0-31,0v-2c3,.6,1.9-1.5,2-3.5.2-5.8-1.2-23.8,0-27.5,9.2,0,20.1-.8,29,0Z"/>
  <path class="st2" d="M394,872c-1.2,3.8.2,21.7,0,27.5,0,1.9,1,4-2,3.5v-31h2Z"/>
  <path class="st9" d="M233,392c0,21,0,42,0,63h31v-63h1v64h-1c-10.6,0-21.4,0-32,0,0,2.8-.8,7,1,9-.1,5,0,10,0,15-1.7,2.2-1.7,8,0,10v32c-2.3,9.6-.4,20.2-1,30h-1c0-31.3,0-62.7,0-94-7.6.2-15.4-.2-23,0v-2c8,.1,16,0,24,0,0-11,0-22,0-33v-31h1Z"/>
  <path class="st6" d="M236,746c9.3-.3,18.7.2,28,0v29h-31v-29c1,0,2,0,3,0h0Z"/>
  <path class="st7" d="M258,744c1.4,1.9,4.8.8,7,1v30h-1v-29c-9.3.2-18.7-.3-28,0v-2c7.3,0,14.7-.1,22,0h0Z"/>
  <path class="st0" d="M713,744c.7,0,1.3,0,2,0,.3,0,.7,0,1,0,9.7-.2,19.3.1,29,0,0,11,0,22,0,33l-31-1c-3.2-8.1,1-22.2-1-30-.3-1.3-1-.9-2-1,.3-1,1.2-.9,2-1Z"/>
  <path class="st2" d="M744,681h1c0,21,0,42,0,63-9.7.1-19.3-.2-29,0,8.8-2.3,18.9-.4,28-1v-61c-8.5-.2-17,.3-25.5,0-1.9,0-4,1-3.5-2,9.4,0,20.2,1.1,29,1Z"/>
  <path class="st2" d="M682,681c2.3,9.6.4,20.2,1,30h29.5c.3,0,2.4,1.1,2.5,1.7,1.8,7.7-1.4,22.7,0,31.3-.7,0-1.3,0-2,0v-32c-10.3,0-20.7,0-31,0-1.8-10-1-20.8-1-31h1Z"/>
  <path class="st9" d="M681,777c1.2,9.1-1.7,22.5,0,31-2.3-9.6-.4-20.2-1-30h-29c-.6,10.2,1.2,21.1-1,31h-1v-32c8.5.2,24.3,1,32,0Z"/>
  <path class="st2" d="M647,776c.2,0,1.1,1,2,1v32h-1v-31c-8.8-.2-17.7.3-26.5,0-1.9,0-4,1-3.5-2,8.9.9,19.8-.2,29,0h0Z"/>
  <path class="st2" d="M617,840v1h-31c9.9-2.3,20.9-.4,31-1Z"/>
  <path class="st4" d="M584,552c-9.5,2.3-20.2.4-30,1v94h29v-29.5c0-.3,1.3-1.5,1-2.5h32.5c.3,0,1.5,1.3,2.5,1v31h29.5c.3,0,1.5,1.3,2.5,1v31h29v-61c-9.8-.6-20.5,1.3-30-1,4.4,1.4,29.6-1.9,31,1,0,.2,0,.6,0,1,.5,3.4,0,8.3,0,12,0,3.3,0,6.7,0,10v3c0,2.3,1,2.8,1,3v1c0,10.3-1,21.4-1,32h-31c0-1.1.3-2.5-1-3,0-9.7,0-19.3,0-29-10.7,0-21.3,0-32,0,0-10.3,0-20.7,0-31-10.3.4-20.8-.6-31,0-.7,0-1.3,0-2,0-.3.8,1,.8,1,1,1.2,7-2.3,19.4-1,28,.6,3-1.5,1.9-3.5,2-9.1.4-18.4,0-27.5,0v-96c9.6,0,21.8,1,31,0h0Z"/>
  <path class="st9" d="M651,682v29h29v-31h1v1c0,10.2-.8,21,1,31h-1c-10.3,0-20.7,0-31,0-.3-10.6.5-21.4,0-32h1v2h0Z"/>
  <path class="st2" d="M842,744c-.5.2-1.8-.6-2,.6v30.4s-61,0-61,0v-29h30.5c.3,0,1.5-1.3,2.5-1v-31h60v29c-8.5,1.1-22.5-2-30,1Z"/>
  <path class="st6" d="M842,745c0-.3,0-.7,0-1,.3,0,.7,0,1,0l-1,1Z"/>
  <path class="st2" d="M651,744c-.6,3,1.5,1.9,3.5,2,6.6.3,16.9.8,23.2,0,1.6-.2,1.5-.5,2.4-1.1.4-.2.8-.5,1-1,.4.2.7.8,1,1,.9.5.8.9,2.4,1.1,9.1.8,19.4-.7,28.6,0,2,7.8-2.2,21.9,1,30,.2.5-.6,1.8.6,2h29.4s0,29,0,29h-59.5c-.2,0-1.1,1.5-1.5,1v-32c-1.3-.4-1.9,1-2,1-7.7,1-23.5.2-32,0-.9,0-1.8-1-2-1,3,.6,1.9-1.5,2-3.5.4-9.2-.3-18.4,0-27.5v-1h2Z"/>
  <path class="st2" d="M745,681h-1c.1,0,.7-2.1,1,0Z"/>
  <path class="st2" d="M745,648c-1.1,1.1-27.7,0-32,0,0-10.3,0-20.7,0-31-1.1-1.1-26.4.9-31,0l-1-1c-1.6-8.6,1.2-21.8,0-31,.7,0,1.3,0,2,0v30h29.5c.3,0,1.5,1.3,2.5,1v31h29c1.4-19.9-1.9-42.4,0-62,0-.5.5-.9,1-1v64h0Z"/>
  <path class="st4" d="M642,521c1,0,2,0,3,0,1.3,0,2.7,0,4,0v31c-1,0-.9-.7-1-1.5-1.1-8.7.9-19.6,0-28.5h-62c-.6,9.8,1.3,20.5-1,30,0-.3,0-.7,0-1,.5-8.3,1-20.5-2-28v-1c.5,0,.9-.5,1-1h1c18.9,0,38.1-.5,57,0h0Z"/>
  <path class="st0" d="M585,488v32l57,1c-18.9-.5-38.1,0-57,0-.2-.4-.5-.9-1-1v-32h1Z"/>
  <polygon class="st0" points="586 488 587 488 586.5 489 586 488"/>
  <path class="st1" d="M487,488h1c0,.3,0,.7,0,1l95,1v29c-9.8.6-20.4-1.3-30,1-.3,0-.7,0-1,0-2.6,3.7,0,28.9-1,30-9.8.6-20.5-1.3-30,1,0,.3,0,.7,0,1-.3,0-.7,0-1,0l-1,128c-20.3,0-41.9-1-62,0-.7,0-1.3,0-2,0v31h-29.5c-.3,0-1.5,1.3-2.5,1v31h-125c-1-5.7,1.7-26.6-1-30-.3-.3-.5-.9-1-1-3.6-2.6-27.9,0-29-1v-62.4c.1-1-1.2-.6-2-.6-.3,0-.7,0-1,0-3.7-2.6-28.9,0-30-1,0-9.7,0-19.3,0-29,9.3-.9,20.6,1.2,29.6,0,.8,0,1.5,0,1.5-1v-32h32v32h30v31h65c0-7-.1-14,0-21l1-1.5-1-.5c0-.7,0-1.3,0-2l1-1.5-1-.5c0-.9-.2-2.4,0-3l64-1v-32h32c-.4-11,.5-22.1,0-33,0-.7,0-1.3,0-2h-30v-60c5.2-.1,10.4.2,15.5,0,1.9,0,4,1,3.5-2h10Z"/>
  <path class="st0" d="M528,648c-.6,3,1.5,1.9,3.5,2,6.5.2,13-.2,19.5,0v30c-9.7,0-19.3,0-29,0v-32c1.8.3,4.1,0,6,0Z"/>
  <path class="st10" d="M552,776c0,.3,0,.7,0,1,1,10.1-1.3,20.9,1,31,3.1-.5,6,.8,9,1v1c-2.4,0-6.5.5-8.3,0-1.1-.3-.5-1.9-.7-2-.1-.1-1.3.3-1.8-.2-1.2-1.4.4-25.7-.2-29.8h-61v62h32c.4,10-.5,20.1,0,30,0,.7,0,1.3,0,2-1.8-3.8-1-9.6-1-14,0-.7,0-1.3,0-2,0-2.3,0-4.7,0-7-.1-2.8.7-4.5-1-7-.2-.3-.1-1-1-1h-31v-65h64Z"/>
  <path class="st7" d="M584,649c1.5,17.6,1.3,35.8,1,53.5,0,3.3-1,6.7-1,10.5h2c3.1,0,7.7.8,10-1h2c4.7,1.7,12.4,1.7,17,0,.7,0,1.4,0,2,0v33c-10.6,0-21.4-.1-32,0-.3-.2-.8-.7-1-1,.2-10.3-.2-20.7,0-31-10.7,0-21.3,0-32,0,0-.2,0-.6,0-1-1.2-8.8,0-22.6,0-32,0-6.6.9-13.5.9-19.6,0-3.4-1.7-7.6-.9-11.4,10.1.6,21.8.2,32,0ZM583,650h-29v61h29v-61ZM615,714h-29v29h29v-29Z"/>
  <path class="st0" d="M424,744c.6,3-1.5,1.9-3.5,2-40.6,1.6-82.2-1.2-123,0-1.1.1-.5-1.3-.6-2h127Z"/>
  <path class="st4" d="M521,556c-1.1,27.8,0,57,0,85-1.7,1.4-1.6,6.2,0,7v32h-2l1-128,1,4Z"/>
  <path class="st4" d="M457,680c-1.2,8.9,2.1,24.2-1,32h-31v32c-.3.1-.7,0-1,0h-127c-1.2-9.5.9-21.2,0-31,2.7,3.4,0,24.3,1,30h125v-31c1,.3,2.2-1,2.5-1h29.5v-31c.7,0,1.3,0,2,0h0Z"/>
  <path class="st4" d="M265,648c.8,0,2.1-.4,2,.6v62.4c1.1,1.1,25.4-1.6,29,1-7.9-1.7-21.3,1.1-30,0l-1-64h0Z"/>
  <path class="st9" d="M649,745c-.3,9.2.4,18.4,0,27.5,0,1.9,1,4-2,3.5-9.2-.2-20.1.9-29,0-.3,0-.7,0-1,0,0-10.3,0-20.7,0-31,10.7,0,21.3,0,32,0ZM648,746h-29v29h29v-29Z"/>
  <path class="st2" d="M488,840v1c-26.6,0-53.4,0-80,0-15.6,0-31.4,0-47,0l127-1Z"/>
  <path class="st0" d="M264,648c.3,0,.7,0,1,0l1,64c-.7,0-2.1.5-2-.6v-61.4s-31,0-31,0v-2c10.2.6,20.9-.8,31,0h0Z"/>
  <path class="st0" d="M552,777c3-.6,1.9,1.5,2,3.5.3,8.8-.2,17.7,0,26.5h30c0,.7,0,1.3,0,2-7.2-.4-14.9.5-22,0-3-.2-5.9-1.5-9-1-2.3-10.1,0-20.9-1-31h0Z"/>
  <path class="st0" d="M456,712c-.2.5.6,1.8-.6,2h-29.4c-1,1,.7,24.2,0,28.5-.2,1.1,0,1-1,1.5v-32h31Z"/>
  <path class="st4" d="M584,809c.5,10.4,0,21.5,0,32v3c0,8.7,0,17.3,0,26v2h-1c0-20.7,0-41.3,0-62-7-.1-14,.2-21,0v-1c7.1.5,14.8-.4,22,0h0Z"/>
  <path class="st1" d="M617,745c0,10.3,0,20.7,0,31-2.6-3.7,0-28.9-1-30-9.1-.8-19.8,1.1-28.6,0-1.6-.2-1.5-.6-2.4-1.1,10.6-.1,21.4,0,32,0h0Z"/>
  <path class="st4" d="M328,809c10.6,0,21.4,0,32,0v31c-2.6-3.5,0-28.9-1-30-10.3,0-20.7,0-31,0v-1Z"/>
  <path class="st1" d="M584,713c-.2,10.3.2,20.7,0,31-3-5.4.2-22.9-1-30-1-1-25.1.7-29.5,0-1.1-.2-1,0-1.5-1,10.7,0,21.3,0,32,0h0Z"/>
  <path class="st6" d="M522,680h-1v-32c.2,0,.6,0,1,0v32Z"/>
  <path class="st2" d="M552,712c-1.7-1-1-3.8-1-5.5,0-7,0-14,0-21,0-1.7-.6-4.5,1-5.5,0,9.4-1.2,23.2,0,32h0Z"/>
  <path class="st6" d="M265,744v1c-2.2-.2-5.6.9-7-1,2.3,0,4.7-.1,7,0Z"/>
  <path class="st6" d="M586,841h1l-3,3v-3h2Z"/>
  <path class="st7" d="M488,841v2c-21.3-.1-42.7,0-64,0h-16v-2c26.6,0,53.4,0,80,0Z"/>
  <path class="st2" d="M584,423v1c-7.5,3-21.5-.1-30,1v31.5c0,.1-1.4,1.5-1.5,1.5h-62.5v29c31.3,0,62.7,0,94,0v2h-96c0-.3,0-.7,0-1-.8-5.7-.8-25.3,0-31,0-.4-.1-.8,0-1h64c.8-10.3-1-21.9,0-32,0-.3,0-.7,0-1h32,0Z"/>
  <path class="st9" d="M471,265c1.7,0,3.3,0,5,0s3.3,0,5,0c6,0,12,0,18,0,6.6,0,13.3,0,20,0h2c0,10.3,0,20.7,0,31v24l-1,39h-64c0-.3,0-.7,0-1,.1-.6,1-1.4,1.1-3.4,1-29.8-.9-59.8,0-89.6,4.6-.1,9.4,0,14,0ZM519,266h-61v92h61v-92Z"/>
  <path class="st10" d="M616,297c.2.3.7.8,1,1v93c-.3.3-.7.9-1,1-9,.7-18.1-.5-27-1,8.1-2.3,17.6-.4,26-1v-92c-8.7-.8-19.1,1.1-27.6,0-2.3-.3-2.3-.2-3.4-2l32,1Z"/>
  <path class="st2" d="M617,298c.3.2,2.5-.8,2.1,1.4v90.9c-.2,1.2-1.8.4-2.1.6v-93Z"/>
  <path class="st0" d="M520,232c.6,3-1.5,1.9-3.5,2-19.5.8-39.1-.6-58.5,0v30h-2v-31c.3-.4.2-.8,1-1h63,0Z"/>
  <path class="st10" d="M552,135c.5.1.7.6,1,1l-1,63c0,.3.1.7,0,1-6.9-.1-14-.1-21,0-.6-3,1.5-1.9,3.5-2,5.5-.2,11.1.2,16.5,0v-61h-28.4c-1.2-.2-.4-1.5-.6-2,8.6,1.2,22-1.7,30,0Z"/>
  <path class="st4" d="M584,265v31c-3-4.6.1-23.4-1-30h-61c-.2,20.3.2,40.7,0,61h-1c0-2.3,0-4.7,0-7v-24c0-10.3,0-20.7,0-31,20.6,0,42.6-1,63,0Z"/>
  <path class="st10" d="M457,232l62-1v-31.5c0-1.8,11.6-3.1,10,.5-2.7,0-5.3,0-8,0v32c-.3.1-.7,0-1,0h-63Z"/>
  <path class="st2" d="M553,136c.8,1,.9.9,1.1,2.4,1.7,14.9.6,41.4,0,57.2,0,1.9,1,4-2,3.4l1-63h0Z"/>
  <path class="st2" d="M584,265c.7,0,1.3,0,2,0v30c1,1,25.3-1,29.4,0,1.2.3.4,1.8.6,2l-32-1v-31h0Z"/>
  <path class="st0" d="M589,391c8.9.5,18,1.7,27,1-8.4,2.7-20.8,0-30,1v30.4c-.2,1.2-1.5.4-2,.6v-1c-1.1-10.1,1-21.3,1-31h1c.4-.2.8-1,1-1,.6-.1,1.4,0,2,0Z"/>
  <path class="st0" d="M522,104v30c1.1,1.1,26.3-1.6,30,1-8-1.7-21.4,1.2-30,0-3.9-9.3-1.2-21.1-2-31h2Z"/>
  <path class="st0" d="M552,200c-.4.9-.3.9-1.5,1-8.4,1.3-19.8-1-28.5,0-1,1,.7,25.1,0,29.6-.2,1.1,0,1-1,1.4v-32c2.7,0,5.3,0,8,0,.7,0,1.3,0,2,0,7-.1,14.1-.1,21,0h0Z"/>
  <path class="st4" d="M649,166v1c-8.2,0-23.4,1.3-30.5,0-1-.2-1,0-1.5-1h32Z"/>
  <path class="st2" d="M519,265c-6.7,0-13.4,0-20,0,5.7-1.7,14.2-1.7,20,0Z"/>
  <path class="st2" d="M458,264c4.1,0,9.7-.8,13,1-4.6,0-9.4-.1-14,0h-1v-1h2Z"/>
  <path class="st4" d="M617,164c-.3-3.8,0-8.1,0-12,1.7,2.9,1.7,9.3,0,12Z"/>
  <path class="st2" d="M481,265c-1.7,0-3.3,0-5,0,.7-1.6,4.3-1.6,5,0Z"/>
  <path class="st5" d="M519,871v1h-62v33h62v1h-64v-35h64Z"/>
  <path class="st7" d="M616,841c.6,3-1.5,1.9-3.5,2-8.8.3-17.7-.2-26.5,0v93.4c.1,1.1-1.3.5-2,.6.8-6.1,0-15.4,0-22,1.6-.7,1.6-4.3,0-5v-5c0-11,0-22,0-33v-1l1-.5-1-.5c0-8.7,0-17.3,0-26l3-3h29Z"/>
  <path class="st9" d="M520,842c.2,2.2-.9,5.6,1,7,0,2.3,0,4.7,0,7l-1,1.5,1,.5c0,4.4-.8,10.2,1,14,10,0,20,0,30,0,0,.8-1,1.7-1,2-1-1.7-3.8-1-5.5-1-6.9,0-17.1-.8-23.5,0-.6,0-1.4.8-2,1,0-.9-1-1.8-1-2v-1c-.3-9.3.2-18.7,0-28-10.3,0-20.7,0-31,0v-1c9.2-.1,18.4.2,27.6,0,1.8,0,3.2-1.1,3.4-1.1.9,0,.8.7,1,1h0Z"/>
  <path class="st9" d="M425,937c0-.3,0-.7,0-1s0-.7,0-1c.3-6.5.7-16.7,0-23v-40,65Z"/>
  <path class="st4" d="M402,937c7.6,0,15.4,0,23,0,0,.3,0,.7,0,1h-65c0-.3,0-.7,0-1,14,0,28,.1,42,0Z"/>
  <path class="st4" d="M552,937c9.5,0,23.1,1.1,32,0,0,.3,0,.7,0,1h-63v-1c10.1.5,20.8,0,31,0Z"/>
  <path class="st2" d="M425,872v31c-3,.6-1.9-1.5-2-3.5-.4-9.2.3-18.4,0-27.5.7,0,1.3,0,2,0Z"/>
  <path class="st9" d="M520,906c0,7.8-.1,15.7,0,23.5,0,1.7-.6,4.5,1,5.5,0,.7,0,1.3,0,2-.7,0-1.3,0-2,0v-32h1v1h0Z"/>
  <path class="st1" d="M520,104c.8,9.9-1.9,21.7,2,31,.2.5-.6,1.8.6,2h28.4s0,61,0,61c-5.5.2-11-.2-16.5,0-1.9,0-4-1-3.5,2-.7,0-1.3,0-2,0,1.6-3.6-10-2.2-10-.5v31.5l-62,1c-.8.2-.7.6-1,1-2.9,4.4.3,23.8-.9,30.4-.2,1.2-3.6,0-4.1,1.6h-26c.4,10.3-.5,20.7,0,31,0,.7,0,1.3,0,2h30c.5,18.4-.7,37.1,0,55.5,0,1.4-.7,4.1,1,4.5,0,.3,0,.7,0,1,0,.7-.4,2.1.6,2h63.4s-8-2-8-2h9v2c-.3,20.6,1,41.5-1,62h-63l-1-31h-30c0-9.5.9-21.3,0-30.6-.1-1.3.3-1.6-1-2.4-.2-.1-.6,0-1,0-1-1-.9-.9-2.4-1.1-4.2-.5-26.6,1-27.6,0-.2-8.8.4-17.7,0-26.5,0-1.9,1-4-2-3.5,0-.3,0-.7,0-1-9.6-2.3-20.2-.4-30-1v-29c0,0-1.1.2-1.6-.4s-.3-1.6-.4-1.6h-63.5c-.1,0-1.5,1.4-1.5,1.5v29.5h-28v-62c-10.3-1.6-21.1-1.1-31.5-1-7.3,0-15.9-.2-23,0-1.9,0-4-1-3.4,2h-5l-2.1-3.4v-92.6c1.1-1,25.4,1,29.5,0,1.2-.3.4-1.4.6-2.1.3,0,.7,0,1,0,2.6-3.7-.1-28.9,1-30h61.4c1.2-.1.4-1.4.6-2h1c2.6-3.8-.1-29.9,1-31,74,0,148,0,222,0h0Z"/>
  <path class="st5" d="M233,167c-.3,0-.7,0-1,0,.1-.4.6-.8,1-1,0,.3,0,.7,0,1Z"/>
  <path class="st5" d="M233,161l-1-.5,1-.5v1Z"/>
  <path class="st1" d="M202,359c0-20.3,0-40.7,0-61h28c.5,18.8-.6,37.7,0,56.5,0,1.9-1,4,2,3.5v1h-30Z"/>
  <path class="st2" d="M204,265h28v32h-30v-32h2Z"/>
  <path class="st9" d="M232,265h33v61h-1c-.6-20,.4-40,0-60h-31c0,30.6,0,61.4,0,92v1h-1v-94h0Z"/>
  <path class="st1" d="M230,423h1c-3.1,8.2.2,22.9-1,32h-28c0-10.6,0-21.4,0-32,7.6,1.1,19.8,0,28,0Z"/>
  <path class="st3" d="M232,423h-1c.3-.7.1-1.6,1-2v2Z"/>
  <path class="st3" d="M232,359v1c-3-.6-1.9,1.5-2,3.5-.7,19.8.5,39.7,0,59.5-8.2,0-20.4,1.1-28,0-.1-21.3,0-42.7,0-64h30Z"/>
  <path class="st10" d="M585,552c2.3-9.5.4-20.2,1-30h62c.8,9-1.1,19.8,0,28.5,0,.8,0,1.5,1,1.5,10.7,0,21.3,0,32,0-.6,10.8,1.3,22.4-1,33-10.3-.2-20.7.2-31,0,.9,9.6-1.2,21.2,0,30.6.1,1,0,1.1,1,1.5,9.5,2.3,20.2.4,30,1v61h-29v-31c-1,.3-2.2-1-2.5-1h-29.5v-31c-1,.3-2.2-1-2.5-1h-32.5c.3,1-1,2.2-1,2.5v29.5h-29v-94c9.8-.6,20.5,1.3,30-1,.3,0,.7,0,1,0h0Z"/>
  <path class="st2" d="M681,552c10.7,0,21.3,0,32,0v33h31c-1.9,19.6,1.4,42.1,0,62h-29v-31c-1,.3-2.2-1-2.5-1h-29.5v-30c-.7,0-1.3,0-2,0-.3,0-.7,0-1,0,2.3-10.6.4-22.2,1-33h0Z"/>
  <path class="st11" d="M265,521c-.3,0-.8.9-2.4,1.1-4.3.5-27.6-1.1-28.6,0,0,31.7,0,63.3,0,95h-1c0-21.7-.2-43.3,0-65,0-10-.1-20,0-30v-2c10.2,2.2,21.5.4,32,1Z"/>
  <path class="st4" d="M234,618c0,9.7,0,19.3,0,29,1.1,1.1,26.3-1.6,30,1-10.1-.8-20.8.6-31,0,0-10.3,0-20.7,0-31h1v1h0Z"/>
  <path class="st0" d="M233,552h-1c.6-9.8-1.3-20.4,1-30-.1,10,0,20,0,30Z"/>
  <path class="st1" d="M423,905v31c-7,0-14,0-21,0-3.3,0-6.7,0-10,0v-31c10.3,0,20.7,0,31,0h0Z"/>
  <path class="st3" d="M392,906v30c-4.3,0-28.4.8-29.6-.9-3-4.3,3.1-23.2-.4-29h30Z"/>
  <path class="st4" d="M425,912c.7,6.3.3,16.5,0,23l-1,.5,1,.5c0,.3,0,.7,0,1-7.6,0-15.4,0-23,0v-1c7,0,14,0,21,0v-31l.9.5c-.8,2.3.9,5.1,1.1,6.5h0Z"/>
  <path class="st2" d="M265,488c.1,1.2,1,1.9,1,2,0,.3,0,.7,0,1-2.5,9.5-.2,19.4,0,29-.5.3-.9,1-1,1-10.5-.6-21.8,1.2-32-1v-1c.1-9.9,1-20.7,1-31h31Z"/>
  <path class="st4" d="M264,457c2.7,9.4-.2,21.2,1,31h-30c9.2-2.3,19.5-.4,29-1v-29h-30c0,10,0,20,0,30h-1c0-2.7,0-5.3,0-8,0-5-.1-10,0-15,0-2.7,0-5.4,0-8h31,0Z"/>
  <path class="st0" d="M264,456v1h-31c0,2.6,0,5.3,0,8-1.8-2-1-6.2-1-9,10.6,0,21.4,0,32,0h0Z"/>
  <path class="st2" d="M233,519v-31h1c0,10.3-.9,21.1-1,31Z"/>
  <path class="st0" d="M233,488v2c-1.7-2-1.7-7.8,0-10,0,2.7,0,5.3,0,8Z"/>
  <path class="st7" d="M682,712c10.3,0,20.7,0,31,0v32c-.8,0-1.7,0-2,1-9.2-.9-19.6.6-29,0-.3-.2-.6-.8-1-1,0-.3,0-.7,0-1l1-.5-1-.5c.1-1.6,0-3.3,0-5,1.7-6.8,1.7-16.2,0-23v-2h1ZM712,714h-29v29h29v-29Z"/>
  <path class="st1" d="M711,745c1,0,1.7-.3,2,1-9.2-.6-19.5.8-28.6,0-1.6-.1-1.5-.5-2.4-1.1,9.4.6,19.8-.9,29,0Z"/>
  <path class="st7" d="M617,648c10.7,0,21.3,0,32,0,0,9.7,0,19.3,0,29v3h-32c-.5-10.4,0-21.5,0-32h0ZM648,650h-27.5c-.1,0-1.5,1.4-1.5,1.5v27.5h29v-29Z"/>
  <path class="st0" d="M650,680c.5,10.6-.3,21.4,0,32,10.3,0,20.7,0,31,0v1c-9.7-.9-21.6,1.2-31,0-.4,0-.8,0-1,0v-36c1.3.5,1,1.9,1,3h0Z"/>
  <rect class="st7" x="651" y="680" width="29" height="2"/>
  <path class="st0" d="M681,641c0-3.3,0-6.7,0-10,1.7,2.2,1.7,8,0,10Z"/>
  <path class="st0" d="M682,647c0-.2-1-.7-1-3l1,3Z"/>
  <path class="st0" d="M681,619c0-.4,0-.8,0-1l1,.5-1,.5Z"/>
  <rect class="st6" x="683" y="618" width="29" height="29"/>
  <path class="st2" d="M682,617c-.8-.1-.9-.2-1-1l1,1Z"/>
  <path class="st6" d="M680,682v29h-29v-29h29Z"/>
  <path class="st4" d="M617,712c.7.1,2.1-.5,2,.5-1.7,10-.8,20.3-1,30.5h62v-29c-9.8-.6-20.4,1.3-30-1,9.4,1.2,21.3-.9,31,0v1c0,7.6.2,15.4,0,23,0,1.7.1,3.4,0,5,0,.3,0,.7,0,1,0,.3,0,.7,0,1-.2.5-.6.8-1,1-1-1.7-3.8-1-5.5-1-7.8,0-15.7,0-23.5,0h-34v-32Z"/>
  <path class="st0" d="M680,745c-.9.6-.8.9-2.4,1.1-6.3.7-16.6.2-23.2,0-1.9,0-4,1-3.5-2,7.8,0,15.7-.1,23.5,0,1.7,0,4.5-.6,5.5,1h0Z"/>
  <path class="st0" d="M649,744v1c-10.7,0-21.3,0-32,0v-1h32Z"/>
  <path class="st6" d="M583,522v28h-29v-28c9.3-.7,19.8.9,29,0Z"/>
  <path class="st9" d="M583,521h1c0,.5-.5,1-1,1-9.2.9-19.7-.7-29,0v28h29v-27c3,7.5,2.5,19.7,2,28h-32v-29c9.3-1.9,20.2-1,30-1Z"/>
  <path class="st0" d="M585,551c0,.3,0,.7,0,1-.3,0-.7,0-1,0-9.2,1-21.4,0-31,0v-1h32Z"/>
  <path class="st5" d="M585,521h-2v-1c.3,0,.7,0,1,0,.5,0,.8.6,1,1Z"/>
  <path class="st4" d="M584,489v31c-.3,0-.7,0-1,0-7.3-.3-23.5-1.1-30,0,9.6-2.3,20.2-.4,30-1v-29l-95-1h96Z"/>
  <path class="st3" d="M522,327h62c0,13.6,0,27.4,0,41l-1,54c-1.1,1.1-27.2-1.6-31,1,0,.3,0,.7,0,1-2.6,3.8,0,29.9-1,31-7.5,1.1-61.6-1.9-63,1-.1.2,0,.6,0,1-2.3,9.9-.4,20.9-1,31h-10c-7,0-14.1-.6-20.9,1.1l-.2,61.3c.8,2.9,27.7,1.1,32.1,1.6.5,10.9-.4,22,0,33h-32v32c-7.3,1.2-62.8-2-64,1-.2.6,0,2.1,0,3,0,.7,0,1.3,0,2s0,1.3,0,2,0,1.3,0,2c-.1,7,0,14,0,21h-65v-31h-30v-32h-32v32h-31c0-31.7,0-63.3,0-95,1-1,24.3.6,28.6,0,1.6-.2,2.1-1,2.4-1.1,0,0,.5-.7,1-1,0,0,.8,1.8,1,.5-.6-8.5.8-17.8,0-26.1-.1-1.8-1.1-3.2-1.1-3.4,0-.3,0-.7,0-1,9-.8,19.8,1.1,28.5,0,1-.1,3.5-.5,3.5-1.5v-30.5h93.5c4.8,0,2.3-5.5,2.5-7.5.7-8.2,2.1-16.2,0-24.5h29.5c1.2,0,2.4-4.1,2.5-5.5,1-8.2,0-19.8,0-28.5h30l1,31h63c2-20.5.7-41.4,1-62,.2-11,.9-22.7,1-34h0Z"/>
  <path class="st2" d="M477,488c.6,3-1.5,1.9-3.5,2-5.2.2-10.4-.1-15.5,0v60h30c0,.7,0,1.3,0,2-4.4-.5-31.3,1.3-32.1-1.6l.2-61.3c6.8-1.7,13.9-1.1,20.9-1.1h0Z"/>
  <path class="st2" d="M456,617l-64,1c1.2-3,56.7.2,64-1Z"/>
  <path class="st4" d="M552,522c-.7,9.4.5,19.5,0,29h-31c9.6-2.3,20.2-.4,30-1,1.1-1.1-1.6-26.3,1-30,0,.7,0,1.3,0,2h0Z"/>
  <path class="st2" d="M553,551v1c-9.4,0-23.3-1.2-32,0,0-.3,0-.7,0-1h31c.5-9.5-.7-19.6,0-29h1v29h0Z"/>
  <path class="st0" d="M583,520v1c-9.8,0-20.7-.9-30,1h-1c0-.7,0-1.3,0-2,.3,0,.7,0,1,0,6.5-1.1,22.7-.3,30,0Z"/>
  <path class="st11" d="M488,488h-1c.6-10.1-1.3-21.1,1-31-.8,5.7-.8,25.3,0,31Z"/>
  <path class="st2" d="M265,617c0,1-.6.9-1.5,1-9,1.2-20.3-.9-29.6,0v-1h31Z"/>
  <path class="st2" d="M521,556l-1-4c.3,0,.7,0,1,0-.1,1.3,0,2.7,0,4Z"/>
  <path class="st2" d="M392,623c0-.7,0-1.3,0-2l1,.5-1,1.5Z"/>
  <path class="st2" d="M392,627c0-.7,0-1.3,0-2l1,.5-1,1.5Z"/>
  <path class="st9" d="M553,552v96h-3c-7.3,0-14.7.2-22,0-1.9,0-4.2.3-6,0-.4,0-.8,0-1,0v-7c0-28-1.1-57.2,0-85,0-1.3-.1-2.7,0-4,8.7-1.2,22.6,0,32,0ZM551,553h-29v94h29v-94Z"/>
  <path class="st1" d="M522,870c-.5-9.9.4-20,0-30h-32v-62h61c.7,4.1-1,28.4.2,29.8.4.5,1.6,0,1.8.2s-.5,1.7.7,2c1.9.5,6,0,8.3,0,7,.2,14-.1,21,0,0,20.7,0,41.3,0,62h-23c.6-3-1.5-1.9-3.5-2-11.5-.5-23.1.3-34.5,0h0Z"/>
  <path class="st4" d="M522,870c11.5.3,23.1-.5,34.5,0,1.9,0,4-1,3.5,2h-8c-10,0-20,0-30,0,0-.7,0-1.3,0-2Z"/>
  <path class="st4" d="M519,841c-.2,0-1.5,1-3.4,1.1-9.2,0-18.4-.2-27.6,0v-1h31Z"/>
  <path class="st6" d="M521,849c-1.9-1.4-.8-4.8-1-7,1.7,2.5.9,4.2,1,7Z"/>
  <path class="st6" d="M521,858l-1-.5,1-1.5c0,.7,0,1.3,0,2Z"/>
  <path class="st10" d="M617,648c0,10.5-.5,21.6,0,32,0,.7,0,1.3,0,2h31c1,1-.7,25.1,0,29.5.2,1.1,0,1,1,1.5.2,0,.6,0,1,0,9.6,2.3,20.2.4,30,1v29h-62c.2-10.2-.7-20.4,1-30.5,0-1-1.3-.4-2-.5-.6,0-1.3,0-2,0-5.6-.3-11.4,0-17,0h-2c-3.1,0-7.7-.8-10,1h-2c0-3.8,1-7.2,1-10.5.3-17.8.5-35.9-1-53.5.2,0,.8-1,1-1,10.6-.2,21.4,0,32,0h0Z"/>
  <rect class="st6" x="554" y="650" width="29" height="61"/>
  <path class="st4" d="M585,648c-.2,0-.8,1-1,1-10.2.2-21.9.6-32,0-.8,0-1.7,0-2-1h3c9.1,0,18.4.4,27.5,0,1.9,0,4,1,3.5-2,0,.3,1.1,1.2,1,2Z"/>
  <path class="st2" d="M521,648c-1.6-.8-1.7-5.6,0-7v7Z"/>
  <rect class="st6" x="586" y="714" width="29" height="29"/>
  <path class="st4" d="M615,712c-4.6,1.7-12.3,1.7-17,0,5.6,0,11.4-.3,17,0Z"/>
  <path class="st4" d="M596,712c-2.3,1.8-6.9,1-10,1,2.3-1.8,6.9-1,10-1Z"/>
  <rect class="st6" x="619" y="746" width="29" height="29"/>
  <path class="st2" d="M584,905h-1c0-11,0-22,0-33h1c0,11,0,22,0,33Z"/>
  <path class="st6" d="M584,871v-1l1,.5-1,.5Z"/>
  <path class="st11" d="M552,424c-1,10.1.8,21.7,0,32h-64c1.4-2.9,55.5,0,63-1,1.1-1.1-1.6-27.2,1-31h0Z"/>
  <path class="st11" d="M585,392c0,9.7-2.1,20.9-1,31h-32c3.8-2.6,29.9.1,31-1l1-54c0,7.9,1,16.5,1,24Z"/>
  <rect class="st6" x="458" y="266" width="61" height="92"/>
  <path class="st2" d="M457,265c-.8,29.8,1,59.8,0,89.6,0,2-1,2.8-1.1,3.4-1-18.8,1.4-39,0-57.6-.1-2-.5-2.1-1.1-3.4-.2-.5.6-1.8-.6-2h-28.4s0-29,0-29c8.8-.3,17.8.3,26.6,0,1.3,0,2.3-1,2.4-1h2Z"/>
  <path class="st4" d="M461,359c.1,1.5,2.9,1.5,3,0h48l8,2h-63.4c-1,.1-.6-1.3-.6-2h5Z"/>
  <path class="st4" d="M521,327c0,10.6,0,21.4,0,32h-1l1-39c0,2.3,0,4.7,0,7Z"/>
  <path class="st4" d="M521,310v-4,4Z"/>
  <path class="st1" d="M464,359c-.1,1.5-2.9,1.5-3,0h3Z"/>
  <path class="st4" d="M521,298v-2,2Z"/>
  <path class="st4" d="M521,314v-2,2Z"/>
  <path class="st1" d="M522,327c.2-20.3-.2-40.7,0-61h61c1.1,6.6-2,25.4,1,30,1.2,1.8,1.1,1.8,3.4,2,8.4,1,18.9-.9,27.6,0v92c-8.4.6-17.9-1.3-26,1-.6,0-1.4-.1-2,0l-1-1v2h-1c0-7.5-1-16.1-1-24,0-13.6,0-27.4,0-41h-62,0Z"/>
  <path class="st4" d="M456,264v1h-5c.5-1.6,3.8-.3,4.1-1.6,1.2-6.7-2-26,.9-30.4v31Z"/>
  <path class="st11" d="M521,361v-2c0-10.6,0-21.4,0-32h1c-.1,11.3-.8,23-1,34Z"/>
  <path class="st10" d="M587,391c-.2,0-.6.8-1,1v-2l1,1Z"/>
  <path class="st8" d="M519,872c0,.2,1,1.1,1,2,0,2,0,4,0,6,0,.7,0,1.3,0,2,.1,7.6,0,15.3,0,23h-63v-33h62Z"/>
  <path class="st4" d="M584,910c0,1.7,0,3.3,0,5,0,6.6.8,15.9,0,22-8.9,1.1-22.5,0-32,0v-1c10.3,0,20.7,0,31,0,0-10.3,0-20.7,0-31h1v5h0Z"/>
  <path class="st6" d="M584,915c0-1.7,0-3.3,0-5,1.6.7,1.6,4.3,0,5Z"/>
  <path class="st6" d="M551,874c-1,9,.8,19.8,0,29h-29v-30c6.4-.8,16.6,0,23.5,0,1.7,0,4.5-.6,5.5,1Z"/>
  <path class="st5" d="M553,873v32h-1c-10.1,0-21.3-.8-31,1h-1v-1c0-7.7.1-15.4,0-23l1-1.5-1-.5c0-2,0-4,0-6,.6-.2,1.4-.9,2-1v30h29c.8-9.2-1-20,0-29,0-.3,1.1-1.2,1-2h1v1Z"/>
  <path class="st2" d="M425,936l-1-.5,1-.5c0,.3,0,.7,0,1Z"/>
  <path class="st11" d="M552,905v2c-9.6-2.2-20.2-.4-30-1v30c10,0,20,0,30,0v1c-10.2,0-20.9.5-31,0,0-.7,0-1.3,0-2-.3-9.6.2-19.4,0-29,9.7-1.8,20.9-1,31-1Z"/>
  <path class="st6" d="M521,935c-1.7-1-1-3.8-1-5.5,0-7.8,0-15.7,0-23.5h1c.2,9.6-.3,19.4,0,29Z"/>
  <path class="st4" d="M209,265c-.6-3,1.5-1.9,3.4-2,7.1-.3,15.7,0,23,0,10.5,0,21.2-.6,31.5,1v62h28v-29.5c0-.1,1.4-1.5,1.5-1.5h63.5c0,0-.2,1.1.4,1.6s1.6.3,1.6.4v29c9.8.6,20.4-1.3,30,1-9.5-.3-19.1.3-28.6,0-1.8,0-3.2-1.1-3.4-1.1v-28l-63-1c0,10,0,20,0,30-10.5,0-22,.9-32-1v-61c-11,0-22,0-33,0h-23,0Z"/>
  <path class="st9" d="M360,298c-.3,0-.7,0-1,0-19.1-2-41.5,1.5-61,0v28c20.6.4,41.4-.5,62,0,.2,0,1.6,1,3.4,1.1,9.5.3,19.1-.4,28.6,0,0,.3,0,.7,0,1,.9,9-1.3,20.4,0,29,.2,1.1-.1,1.3,1,2,4.4,2.7,22.4-.3,29,0h1c.3,0,.7,0,1,0,.2.2.2,1.6,1,2v32c-2.3,9.6-.4,20.2-1,30-10.6,0-21.4,0-32,0v-3c1,1.9,1.4,1.9,3.4,2.1,8.9.6,18.6-.6,27.6,0v-61h-30c2.1,6.1.5,13.1,1,19.5l-2,27.5c0-5.3,0-10.7,0-16,0-10.6,0-21.4,0-32,0-1-.6-.9-1.5-1-9.3-1.2-21.3,1.3-30.5,0-.9-9.6,1.2-21.2,0-30.5-.1-.8,0-1.5-1-1.5-20.6,0-41.4,0-62,0,0-10,0-20,0-30l63,1h0ZM391,329h-30v29h30v-29Z"/>
  <path class="st0" d="M451,265h4c-.1,0-1.1,1-2.4,1-8.8.3-17.8-.3-26.6,0v29h28.4c1.2.2.4,1.5.6,2-9.9-.5-20.3,1.1-30-1-.5-10.3.4-20.7,0-31h26,0Z"/>
  <path class="st4" d="M392,328c3-.6,1.9,1.5,2,3.5.4,8.8-.2,17.7,0,26.5,1,1,23.4-.5,27.6,0,1.5.2,1.4,0,2.4,1.1-.3,0-.7,0-1,0s-.7,0-1,0c-6.6-.3-24.6,2.7-29,0l-1-2c-1.3-8.6.9-20,0-29Z"/>
  <path class="st4" d="M455,297c.5,1.3.9,1.4,1.1,3.4,1.3,18.6-1.1,38.8,0,57.6-1.7-.4-1-3.1-1-4.5-.7-18.4.5-37.1,0-55.5h-30c0-.7,0-1.3,0-2,9.7,2.1,20.1.5,30,1h0Z"/>
  <path class="st4" d="M426,392h-1v-33c1.4.8.9,1.1,1,2.4.8,9.2,0,21,0,30.6Z"/>
  <path class="st6" d="M425,361c-.8-.4-.8-1.8-1-2,.4,0,.8-.1,1,0v2Z"/>
  <path class="st6" d="M233,358c0-30.6,0-61.4,0-92h31c.4,20-.6,40,0,60,0,1,0,2,0,3h31v29c-8-1.2-21.3,0-30,0h-32Z"/>
  <path class="st5" d="M297,327c0,9.1,1.1,22,0,30.5-.1.8,0,1.5-1,1.5-.1-.5-.5-.9-1-1v-29h-31c0-1,0-2,0-3h1c10,1.9,21.5,1,32,1h0Z"/>
  <path class="st4" d="M233,392h-1v-33h1c0,11,0,22,0,33Z"/>
  <path class="st7" d="M265,358v1h-1c-10.3,0-20.7,0-31,0v-1h32Z"/>
  <path class="st11" d="M232,360v33c-1.6,1.3-1.6,5.7,0,7v7c-1.7,2.5-1.7,8.7,0,11v3c-.9.4-.7,1.3-1,2h-1c.5-19.8-.7-39.7,0-59.5,0-1.9-1-4,2-3.5Z"/>
  <path class="st6" d="M264,392v63h-31c0-21,0-42,0-63h31Z"/>
  <path class="st11" d="M359,327v32c-.9-.4-.9-.4-1-1.5-1.3-8.4,1-19.8,0-28.5h-60v29.5c0,.4-2.3,3.5-2.5,3.5h-28.5l1,93h27c-1.6-4,0-6.9,0-10.5s-.7-19.7.2-21.3c2.4-4.2,25.5-1.8,30.8-1.2.7-4.1-1-28.4.2-29.8.4-.5,1.6,0,1.8-.2s-.3-1.4.2-1.8c2.3-2,54.2,1.1,61.8-.2v-29h-30c-.2-1.8,2.3-1,3.5-1,9.5-.4,19,.3,28.5,0,0,10.6,0,21.4,0,32h-64c-.2,6.8.2,13.7,0,20.5,0,3.3-2.2,6.4,0,9.5v1c-10.3,0-20.7,0-31,0v33c-10.6,0-21.3,0-32,0v-97c10.3,0,20.7,0,31,0,1,0,.9-.6,1-1.5,1.1-8.5,0-21.4,0-30.5,20.6,0,41.4,0,62,0h0Z"/>
  <path class="st5" d="M297,456h95l-95,1v32c-.7,0-1.3,0-2,0-1-1.7-3.8-1-5.5-1-7.5,0-15,0-22.5,0h-2c-1.2-9.8,1.7-21.6-1-31v-1h1c10.6,0,21.4,0,32,0ZM295,458h-28v27.5c0,.1,1.4,1.5,1.5,1.5h25c.1,0,1.5-1.4,1.5-1.5v-27.5Z"/>
  <path class="st6" d="M265,392h-1v-33h1v33Z"/>
  <path class="st3" d="M232,418c-1.7-2.3-1.7-8.5,0-11v11Z"/>
  <path class="st3" d="M232,400c-1.6-1.3-1.6-5.7,0-7v7Z"/>
  <path class="st1" d="M234,488c0-10,0-20,0-30h30v29c-9.5.6-19.8-1.3-29,1h-1Z"/>
  <path class="st11" d="M266,491c0,.2.9,1.5,1.1,3.4.7,8.3-.7,17.7,0,26.1-.2,1.3-1-.5-1-.5-.2-9.6-2.5-19.5,0-29Z"/>
  <path class="st11" d="M426,392c0,8.7,1,20.3,0,28.5-.2,1.4-1.3,5.5-2.5,5.5h-29.5c2,8.3.6,16.3,0,24.5-.2,2,2.4,7.5-2.5,7.5h-93.5v30.5c0,1.1-2.4,1.4-3.5,1.5-8.8,1-19.5-.9-28.5,0,0-.1-.9-.8-1-2h2c1,1.7,3.8,1,5.5,1,7.3,0,15.3.3,22.5,0,.7,0,1.3,0,2,0v-32l95-1c0-11,0-22,0-33,10.6,0,21.4,0,32,0,1,0,.9-.6,1-1.5,1-8,0-20,0-28.5v-1h1Z"/>
  <rect class="st6" x="683" y="714" width="29" height="29"/>
  <path class="st0" d="M681,737c.2-7.6,0-15.4,0-23,1.7,6.8,1.7,16.2,0,23Z"/>
  <path class="st0" d="M681,743c0-.3,0-.7,0-1l1,.5-1,.5Z"/>
  <path class="st6" d="M648,650v29h-29v-27.5c0-.1,1.4-1.5,1.5-1.5h27.5Z"/>
  <path class="st4" d="M621,680c1.3,1.7,5.7,1.7,7,0h3c5.4,2.3,12.3.4,18,1v32c-.9-.4-.8-.3-1-1.5-.7-4.5,1.1-28.5,0-29.5h-31c0-.7,0-1.3,0-2h4Z"/>
  <path class="st10" d="M649,680v1c-5.7-.6-12.6,1.3-18-1h18Z"/>
  <path class="st10" d="M628,680c-1.3,1.7-5.7,1.7-7,0h7Z"/>
  <rect class="st6" x="651" y="586" width="29" height="29"/>
  <rect class="st6" x="522" y="553" width="29" height="94"/>
  <path class="st2" d="M560,872h23c0,11,0,22,0,33h-30v-1c1.7-1,1-3.8,1-5.5,0-6.7,0-13.4,0-20,0-1.7.6-4.5-1-5.5v-1h7Z"/>
  <path class="st6" d="M586,617c10.3-.6,20.7.4,31,0,0,10.3,0,20.7,0,31-10.6,0-21.4-.2-32,0,0-.8-1-1.7-1-2-1.3-8.6,2.2-21,1-28h1v29h30v-29h-30v-1h0Z"/>
  <path class="st2" d="M520,882c0-.7,0-1.3,0-2l1,.5-1,1.5Z"/>
  <path class="st1" d="M583,905c0,10.3,0,20.7,0,31-10.3,0-20.7,0-31,0v-31h31Z"/>
  <path class="st2" d="M553,904v-31c1.7,1,1,3.8,1,5.5,0,6.7,0,13.4,0,20,0,1.7.6,4.5-1,5.5h0Z"/>
  <path class="st3" d="M552,907v29c-10,0-20,0-30,0v-30c9.8.6,20.4-1.2,30,1Z"/>
  <path class="st3" d="M328,392c-.1.1-1.4-.3-1.8.2-1.2,1.4.4,25.7-.2,29.8-5.3-.6-28.4-3-30.8,1.2-.9,1.6,0,17.7-.2,21.3s-1.6,6.5,0,10.5h-27l-1-93h28.5c.2,0,2.5-3.1,2.5-3.5v-29.5h60c1,8.8-1.3,20.1,0,28.5.2,1.1,0,1,1,1.5.2.1.6,0,1,0,9.3,1.2,21.2-1.2,30.5,0,.8.1,1.5,0,1.5,1-9.5.3-19-.4-28.5,0-1.2,0-3.7-.8-3.5,1h30v29c-7.6,1.3-59.5-1.8-61.8.2-.5.4,0,1.6-.2,1.8h0Z"/>
  <rect class="st6" x="361" y="329" width="30" height="29"/>
  <path class="st1" d="M360,359c-.4,0-.8.1-1,0v-32c1,0,.9.6,1,1.5,1.2,9.3-.9,21,0,30.5Z"/>
  <path class="st1" d="M393,359c-1.1-.7-.8-.9-1-2l1,2Z"/>
  <path class="st6" d="M422,359c.3,0,.7,0,1,0h-1Z"/>
  <path class="st6" d="M359,298c.6,8.5-1.3,17.9,1,26v2c-20.6-.5-41.4.4-62,0v-28c19.5,1.5,41.9-2,61,0Z"/>
  <path class="st7" d="M360,324c-2.3-8.1-.4-17.5-1-26,.3,0,.7,0,1,0v26Z"/>
  <path class="st6" d="M425,391v-2,2Z"/>
  <path class="st9" d="M295,358c.5,0,.9.5,1,1-10.3,0-20.7,0-31,0v-1c8.7,0,22-1.2,30,0Z"/>
  <path class="st0" d="M264,359v33h-31c0-11,0-22,0-33,10.3,0,20.7,0,31,0Z"/>
  <path class="st7" d="M328,423c21.3-.1,42.7.1,64,0,0,11,0,22,0,33h-95v-33c10.3,0,20.7,0,31,0h0ZM391,425h-93v30h93v-30Z"/>
  <path class="st6" d="M295,458v27.5c0,.1-1.4,1.5-1.5,1.5h-25c-.1,0-1.5-1.4-1.5-1.5v-27.5h28Z"/>
  <path class="st2" d="M295,489c-7.3.4-15.2,0-22.5,0-1.7,0-4.5.6-5.5-1,7.5,0,15-.1,22.5,0,1.7,0,4.5-.6,5.5,1Z"/>
  <path class="st4" d="M586,617v1h-1c0-.1-1.3-.2-1-1,.7,0,1.3,0,2,0Z"/>
  <path class="st6" d="M424,423c.6-9.8-1.3-20.4,1-30,0,8.6,1,20.5,0,28.5-.1.8,0,1.5-1,1.5Z"/>
  <rect class="st0" x="586" y="618" width="30" height="29"/>
  <path class="st2" d="M392,408c0,4,0,8,0,12v2h-63v-29c19.3-.8,39.4,1,58.6,0,1.3,0,2.5,0,3.4-1.1h1c0,5.3,0,10.7,0,16h0Z"/>
  <path class="st6" d="M392,408l2-27.5c-.5-6.4,1.1-13.5-1-19.5h30v61c-9-.5-18.7.7-27.6,0-2-.1-2.5-.2-3.4-2.1,0-4,0-8,0-12Z"/>
  <path class="st2" d="M392,422v1c-21.3.1-42.7-.1-64,0v-1h64Z"/>
  <rect class="st6" x="298" y="425" width="93" height="30"/>
  <path class="st0" d="M391,392c-.9,1.1-2.1,1-3.4,1.1-19.2.9-39.3-.9-58.6,0v29h-1c-2.1-3.1,0-6.2,0-9.5.2-6.8-.2-13.7,0-20.5h63,0Z"/>
</svg>