<?xml version="1.0" encoding="UTF-8"?>
<svg id="_레이어_1" data-name="레이어 1" xmlns="http://www.w3.org/2000/svg" viewBox="0 0 1024 1024">
  <defs>
    <style>
      .cls-1 {
        fill: #014a4a;
      }

      .cls-2 {
        fill: #4cdfd2;
      }

      .cls-3 {
        fill: #c0fff3;
      }

      .cls-4 {
        fill: #29aba6;
      }

      .cls-5 {
        fill: #072628;
      }
    </style>
  </defs>
  <g>
    <polygon class="cls-3" points="560.5 841.12 560.5 865.35 560.47 865.35 560.47 889.59 584.7 889.59 584.7 865.35 584.74 865.35 584.74 841.12 560.5 841.12"/>
    <polygon class="cls-3" points="787.33 655.35 787.33 678.69 763.09 678.69 763.09 702.92 763.09 719.95 763.09 727.16 763.09 744.18 763.09 768.42 763.09 792.65 787.33 792.65 787.33 768.42 811.56 768.42 811.56 744.18 835.79 744.18 835.79 719.95 835.79 695.71 835.79 679.58 835.79 671.48 835.79 655.35 811.56 655.35 787.33 655.35"/>
    <path class="cls-3" d="M885.59,253.76v-48.47h-24.23v-25.83h-48.47v-25.53h-96.94v24.23h-24.23v48.47h-48.47v-24.23h-48.47v-24.23h-169.64v24.23h-48.47v24.23h-45.57v-48.47h-26.95v-24.23h-96.94v24.23h-45.76v24.23h-24.23v48.47h-23.34v121.17h23.34v20.5h24.23v24.23h48.47v-72.7h-24.23v-24.23h-24.23v-44.73h25.13v-24.23h23.34v-24.23h72.7v24.23h21.33v48.47h-24.05v48.47h-24.23v91.97h-24.23v48.47h24.23v53.43h24.05v24.23h22.82v24.23h49.18v24.23h70.51v24.23h96.94v-24.23h.07v24.23h19.38v17.02h-42.05v24.23h-.04v24.23h24.2v24.23h-.74v24.23h-.07v-24.23h-23.45v-24.23h-.02v-24.23h0v-24.23h-72.7v24.23h-.07v-24.23h-72.7v24.23h-24.27v24.23h-.04v24.23h-24.23v24.23h24.36v24.23h-.04v24.23h-.05v24.23h25.01v41.26h47.65v-24.23h20.44v-24.23h-20.41v-24.23h-24.23v24.23h-.05v7.21h-.04v-24.23h.05v-48.47h.04v-24.23h24.22v-24.23h.04v-24.23h.07v24.23h-.04v24.23h.74v24.23h24.94v24.23h24.23v-24.23h21.37v72.7h-.07v17.02h-24.2v47.28h24.23v-40.07h24.2v-24.23h.07v-72.7h-22.08v-24.23h22.78v24.23h-.63v72.7h-.07v24.23h-.04v24.23h24.23v-24.23h24.27v-24.23h24.31v-48.47h12.08v-24.23h19.41v19.68h-19.39v24.23h-.04v24.23h19.43v4.55h33.96v15.83h-48.43v24.23h-.04v24.23h48.47v-24.23h.04v-15.83h.07v15.83h-.04v24.23h36.33v-24.23h22.11v-24.23h21.62v-24.23h24.66v-40.07h-1.08v-24.23h-22v-49.07h-23.86v-24.23h-42.83v.3h-6.18v-.89h25.67v-24.23h-19.97v-23.04h-46.08v-17.02h63.69v-24.23h47.76v-24.23h27.06v-24.23h24.23v-53.43h24.23v-48.47h-24.23v-91.97h-24.23v-48.47h-24.23v-48.47h24.23v-24.23h72.7v25.53h24.23v24.23h24.23v43.84h-24.23v24.23h-24.23v24.23h-24.23v24.23h24.23v24.23h48.47v-24.23h19.38v-18.01h29.09v-121.17h-24.23ZM350.93,752.58h-.02v-24.23h.02v24.23ZM472.24,728.35h-.08v-24.23h.04v-24.23h.03v24.23h.02v24.23ZM545.08,704.11h-.04v24.23h-.07v-24.23h.04v-24.23h.07v24.23ZM562.93,655.65h-.07v-17.02h.07v17.02ZM569.35,679.88h-.07v-24.23h.07v24.23ZM570.54,468.98v72.7h-24.23v24.23h-72.7v-24.23h-24.23v-96.94h24.23v-24.23h72.7v24.23h24.23v24.23ZM671.95,801.05h.04v-24.23h.04v40.07h-.07v-15.83ZM617.74,728.35v-23.94h.12v23.94h30v24.23h-24.31v24.23h-.07v-24.23h-24.2v-24.23h18.46Z"/>
  </g>
  <g>
    <polygon class="cls-4" points="225.84 402.06 225.84 334.27 249.36 334.27 249.36 285.05 272.87 285.05 272.87 261.53 249.36 261.53 249.36 237.71 202.33 237.71 202.33 259.65 178.82 259.65 178.82 334.27 202.33 334.27 202.33 402.06 225.84 402.06"/>
    <rect class="cls-4" x="272.87" y="759.19" width="23.51" height="45.69"/>
    <rect class="cls-4" x="296.38" y="804.89" width="23.51" height="49.74"/>
    <polygon class="cls-4" points="392.41 852.5 369.02 852.5 369.02 877.57 392.41 877.57 394.09 877.57 415.92 877.57 415.92 829.76 392.41 829.76 392.41 852.5"/>
    <polygon class="cls-4" points="272.87 545.01 272.87 516.12 249.36 516.12 249.36 476.3 225.84 476.3 225.84 521.99 249.36 521.99 249.36 545.01 272.87 545.01"/>
    <rect class="cls-4" x="272.87" y="545.22" width="23.51" height="23.51"/>
    <rect class="cls-4" x="296.38" y="568.73" width="49.96" height="25.07"/>
    <polygon class="cls-4" points="392.37 618.87 392.37 642.75 536.9 642.75 536.9 617.68 415.21 617.68 415.21 593.8 346.34 593.8 346.34 618.87 392.37 618.87"/>
    <polygon class="cls-4" points="709.62 569.51 732.9 569.51 732.9 545.01 756.71 545.01 756.71 519.94 778.91 519.94 778.91 476.3 753.85 476.3 753.85 519.94 731.65 519.94 731.65 544.44 703.47 544.44 703.47 568.95 658.22 568.95 658.22 594.01 709.62 594.01 709.62 569.51"/>
    <rect class="cls-4" x="593.83" y="593.8" width="29.43" height="25.07"/>
    <rect class="cls-4" x="778.91" y="378.92" width="25.07" height="25.07"/>
    <polygon class="cls-4" points="803.98 261.87 803.98 237.71 781.78 237.71 778.91 237.71 756.71 237.71 756.71 260.76 732.9 260.76 732.9 285.82 756.71 285.82 756.71 334.27 778.91 334.27 778.91 356.98 803.98 356.98 803.98 334.27 826.95 334.27 826.95 261.87 803.98 261.87"/>
    <rect class="cls-4" x="637.2" y="620.85" width="25.07" height="25.07"/>
    <rect class="cls-4" x="487.42" y="688.44" width="25.07" height="25.07"/>
    <polygon class="cls-4" points="464.64 759.72 464.64 734.65 439.57 734.65 439.57 756.54 417.43 756.54 417.43 734.65 392.53 734.65 392.53 711.81 369.02 711.81 369.02 781.61 392.53 781.61 392.53 759.72 415.21 759.72 415.21 781.61 440.28 781.61 440.28 759.72 464.64 759.72"/>
    <polygon class="cls-4" points="530.82 829.76 508.67 829.76 508.67 854.82 489.7 854.82 489.7 829.76 464.64 829.76 464.64 854.82 486.77 854.82 486.77 875.84 511.84 875.84 511.84 854.82 533.74 854.82 533.74 829.95 555.89 829.95 555.89 804.89 530.82 804.89 530.82 829.76"/>
    <rect class="cls-4" x="596.01" y="804.89" width="25.07" height="25.07"/>
    <polygon class="cls-4" points="707.83 829.76 683.92 829.76 683.92 852.8 661.2 852.8 661.2 877.86 686.27 877.86 686.27 854.82 708.98 854.82 708.98 829.95 732.9 829.95 732.9 804.89 707.83 804.89 707.83 829.76"/>
    <rect class="cls-4" x="731.65" y="688.44" width="25.07" height="48.43"/>
    <polygon class="cls-4" points="799.77 759.19 777.15 759.19 777.15 780.67 756.71 780.67 756.71 804.89 781.78 804.89 781.78 783.41 802.21 783.41 802.21 761.09 824.83 761.09 824.83 736.87 799.77 736.87 799.77 759.19"/>
  </g>
  <g>
    <polygon class="cls-1" points="738.43 298.99 765.74 298.99 765.74 283.68 775.67 283.68 775.67 274.51 809.38 274.51 809.38 248.01 761.53 248.01 761.53 257.17 747.39 257.17 747.39 272.48 737.46 272.48 737.46 281.89 710.15 281.89 710.15 308.4 738.43 308.4 738.43 298.99"/>
    <polygon class="cls-1" points="846.49 320.24 849.93 320.24 849.93 274.51 821.66 274.51 821.66 317.85 818.21 317.85 818.21 344.36 846.49 344.36 846.49 320.24"/>
    <rect class="cls-1" x="747.39" y="331.1" width="34.21" height="26.51"/>
    <rect class="cls-1" x="779.92" y="391.51" width="34.21" height="29.01"/>
    <polygon class="cls-1" points="690.54 614.4 707.19 614.4 707.19 622.09 737.46 622.09 737.46 598.19 761.29 598.19 761.29 579.03 767.46 579.03 767.46 574.44 784.57 574.44 784.57 555.31 788.04 555.31 788.04 528.8 807.88 528.8 807.88 433.8 773.67 433.8 773.67 518.28 750.36 518.28 750.36 542.03 727.08 542.03 727.08 565.93 707.19 565.93 707.19 587.89 689.99 587.89 689.99 593.08 662.26 593.08 662.26 619.59 690.54 619.59 690.54 614.4"/>
    <rect class="cls-1" x="601.53" y="605.02" width="28.28" height="26.51"/>
    <polygon class="cls-1" points="304.75 596.46 304.75 621.53 333.73 621.53 333.73 644.78 391.66 644.78 391.66 656 536.9 656 536.9 629.5 422.18 629.5 422.18 614.4 354.87 614.4 354.87 591.14 305.73 591.14 305.73 566.07 280.67 566.07 280.67 541.78 252.47 541.78 252.47 519.96 230.54 519.96 230.54 541.78 230.54 550.35 230.54 572.17 255.61 572.17 255.61 596.46 304.75 596.46"/>
    <polygon class="cls-1" points="230.54 399.39 245.95 399.39 245.95 347.81 266.57 347.81 266.57 298.99 283.98 298.99 283.98 270.43 262.06 270.43 262.06 281.89 244.65 281.89 244.65 333.48 224.03 333.48 224.03 391.46 208.62 391.46 208.62 421.84 230.54 421.84 230.54 399.39"/>
    <rect class="cls-1" x="245.95" y="237.71" width="21.92" height="28.56"/>
    <rect class="cls-1" x="182.69" y="316.82" width="21.92" height="28.56"/>
    <polygon class="cls-1" points="317.5 804.89 317.5 789.93 328.46 789.93 328.46 752.8 306.54 752.8 306.54 767.76 295.58 767.76 295.58 801.78 276.21 801.78 276.21 838.9 298.13 838.9 298.13 804.89 317.5 804.89"/>
    <rect class="cls-1" x="306.54" y="694.94" width="21.92" height="37.13"/>
    <polygon class="cls-1" points="317.5 850.38 299.1 850.38 299.1 888.23 334.44 888.23 334.44 875.84 339.42 875.84 339.42 820.34 317.5 820.34 317.5 850.38"/>
    <polygon class="cls-1" points="411.22 872.06 375.88 872.06 375.88 909.92 411.22 909.92 411.22 895.86 433.14 895.86 433.14 840.36 411.22 840.36 411.22 872.06"/>
    <polygon class="cls-1" points="858.83 724 816.85 724 816.85 757.89 790.77 757.89 790.77 777.92 778.45 777.92 778.45 794.72 760.53 794.72 760.53 770.34 765.57 770.34 765.57 748.07 765.57 733.16 765.57 693.8 739.18 693.8 739.18 733.16 731.65 733.16 731.65 740.62 718.27 740.62 718.27 755.53 735.23 755.53 735.23 816.88 705.52 816.88 705.52 842.47 683.97 842.47 683.97 868.11 669.61 868.11 669.61 913.87 698.32 913.87 698.32 888.23 727.08 888.23 727.08 868.11 784.57 868.11 784.57 832.58 801.9 832.58 801.9 815.78 820.43 815.78 820.43 795.74 832.75 795.74 832.75 761.85 858.83 761.85 858.83 724"/>
    <polygon class="cls-1" points="530.85 849.19 507.29 849.19 507.29 869.31 495.13 869.31 495.13 847.55 470.88 847.55 470.88 873.64 489.71 873.64 489.71 907.16 519.32 907.16 519.32 887.04 536.9 887.04 536.9 864.3 560.47 864.3 560.47 826.45 530.85 826.45 530.85 849.19"/>
    <polygon class="cls-1" points="437.12 777.92 424.58 777.92 424.58 757.89 389.24 757.89 389.24 762.68 375.88 762.68 375.88 800.54 411.22 800.54 411.22 795.74 419.44 795.74 419.44 815.78 454.79 815.78 454.79 786.69 470.57 786.69 470.57 752.8 437.12 752.8 437.12 777.92"/>
    <rect class="cls-1" x="495.13" y="700.97" width="26.97" height="26.97"/>
    <rect class="cls-1" x="647.72" y="627.14" width="26.97" height="26.97"/>
    <rect class="cls-1" x="599.28" y="825.45" width="33.92" height="14.91"/>
    <rect class="cls-1" x="595.35" y="726.49" width="52.51" height="26.09"/>
  </g>
  <g>
    <polygon class="cls-5" points="375.88 437.22 351.6 437.22 351.6 459.44 351.6 465.6 351.6 481.67 351.6 487.82 375.88 487.82 400.15 487.82 400.15 481.67 400.15 465.6 400.15 459.44 400.15 437.22 400.15 414.99 375.88 414.99 375.88 437.22"/>
    <polygon class="cls-5" points="114.88 344.21 114.88 338.06 114.88 322.28 114.88 316.12 114.88 315.83 114.88 300.05 114.88 293.9 114.88 293.61 114.88 271.67 114.88 249.45 90.61 249.45 90.61 271.67 90.61 293.61 90.61 293.9 90.61 300.05 90.61 315.83 90.61 316.12 90.61 322.28 90.61 338.06 90.61 344.21 90.61 360.28 90.61 366.44 114.88 366.44 114.88 360.28 114.88 344.21"/>
    <polygon class="cls-5" points="163.44 199.06 163.44 182.77 163.44 176.84 185.23 176.84 186.47 176.84 209.51 176.84 209.51 154.93 233.78 154.93 233.78 155.14 257.79 155.14 258.06 155.14 282.07 155.14 282.07 155 301.93 155 301.93 176.73 324.99 176.73 324.99 180.74 324.99 180.93 324.99 204.36 328.42 204.36 328.42 224.94 352.69 224.94 376.97 224.94 376.97 204.36 422.18 204.36 422.18 176.84 373.54 176.84 349.26 176.84 349.26 175.06 349.26 158.7 349.26 152.83 326.21 152.83 326.21 149.06 326.21 132.7 326.21 126.83 301.93 126.83 301.93 126.9 282.07 126.9 282.07 126.76 258.06 126.76 257.79 126.76 233.78 126.76 233.78 126.83 209.51 126.83 209.51 132.7 209.51 149.06 209.51 154.61 186.47 154.61 185.23 154.61 162.19 154.61 162.19 176.84 139.16 176.84 139.16 182.77 139.16 199.06 139.16 205 163.44 205 163.44 199.06"/>
    <polygon class="cls-5" points="139.16 227.22 139.16 205 114.88 205 114.88 227.22 114.88 249.45 139.16 249.45 139.16 227.22"/>
    <path class="cls-5" d="M833.88,629.19h-69.77v25.77h.39v.17h-24.39v50.39h25.09v-25.48h21.74v-25.07h43.59v114.99h-21.73v23.33h-23v26.1h-20.59v-71.89h-25.09v71.89h-.18v23.8h-24.76v22.04h-22.5v24.64h-125.71v-48.47h14.59v-.5h20.1v-25.07h-20.1v-43.24h20.1v-24.1h45.01v-25.07h-45.01v24.1h-22.44v23.88h-20.1v69.52h-20.45v24.49h-21.71v24.49h-18.41v-24.49h-28.3v24.49h-24.68v-46.95h25.91v-70.34h25.17v-50.15h-26.08v47.21h-25.17v23.02h-19.64v-23.02h-26.08v48.85h19.81v71.38h-41.44v-25.55h-23.18v-47.41h-23v-45.53h-24.94v-45.53h24.94v-45.53h23v-24.43h47.04v-26.49h-47.04v-24.43h-28.3v.6h-21.83v-24.87h-25.73v-24.15h-24.39v-26.11h-21.29v-93.22h21.29v-92.86h-24.28v70.71h-19.87v-.14h-48.28v-22.15h-23.04v-26.33h-24.28v48.55h23.04v22.22h24.28v26.4h46.85v68.51h21.29v48.95h20.37v26.11h52.86v24.87h23v22.89h-23v45.53h-24.94v48.25h-22.94v94.44h20.76v48.04h50.13v25.55h391.72v-26.47h19.39v-22.04h49.08v-23.8h24.76v-24.11h22.37v-47.99h24.94v-117.39h-24.94v-25.77ZM303.57,816.89h-19.58v-45.53h19.58v45.53ZM304.75,820.34h24.05v43.96h-24.05v-43.96Z"/>
    <polygon class="cls-5" points="256.16 297.81 256.16 344.36 283.69 344.36 283.69 297.81 306.54 297.81 306.54 251.25 279.01 251.25 279.01 223.58 262.85 223.58 256.16 223.58 208.18 223.58 208.18 248.68 186.24 248.68 186.24 272.71 163.44 272.71 163.44 322.9 186.28 322.9 186.28 274.55 209.09 274.55 209.09 249.45 256.16 249.45 256.16 273.77 279.01 273.77 279.01 297.81 256.16 297.81"/>
    <polygon class="cls-5" points="765.21 272.91 765.21 253.49 808.43 253.49 808.43 276.97 833.57 276.97 833.57 321.08 861.09 321.08 861.09 274.53 835.96 274.53 835.96 249.45 813.09 249.45 813.09 225.97 737.68 225.97 737.68 226.36 737.68 251.25 710.15 251.25 710.15 297.81 737.68 297.81 737.68 272.91 765.21 272.91"/>
    <polygon class="cls-5" points="933.39 249.63 907.75 249.63 907.75 203.08 883.84 203.08 883.84 176.84 858.7 176.84 858.7 151.96 810.1 151.96 810.1 126.97 692.79 126.97 692.79 151.96 669.05 151.96 669.05 176.84 601.53 176.84 601.53 204.36 645.31 204.36 645.31 226.89 692.79 226.89 692.79 204.36 692.79 199.37 692.79 179.49 716.53 179.49 716.53 154.5 808.43 154.5 808.43 179.49 856.31 179.49 856.31 204.36 880.22 204.36 880.22 249.63 905.87 249.63 905.87 365.53 880.22 365.53 880.22 391.64 856.31 391.64 856.31 415.99 814.28 415.99 814.28 415.07 789.49 415.07 789.49 344.36 765.21 344.36 765.21 297.81 737.68 297.81 737.68 344.36 761.96 344.36 761.96 438.34 786.76 438.34 786.76 532.86 762.76 532.86 762.76 557.13 739.09 557.13 739.09 581.23 714.9 581.23 714.9 605.23 625.48 605.23 625.48 632.13 669.19 632.13 669.19 678.18 692.67 678.18 692.67 705.51 714.9 705.51 714.9 751.04 739.99 751.04 739.99 677.97 717.76 677.97 717.76 655.12 694.28 655.12 694.28 632.13 739.94 632.13 739.94 606.3 763.28 606.3 763.28 582.2 787.47 582.2 787.47 557.94 787.83 557.94 787.83 534.1 814.28 534.1 814.28 462.54 858.7 462.54 858.7 438.19 883.84 438.19 883.84 412.08 907.75 412.08 907.75 368.67 933.39 368.67 933.39 249.63"/>
    <rect class="cls-5" x="422.18" y="151.37" width="179.35" height="25.36"/>
    <polygon class="cls-5" points="497.14 556.55 497.14 534.32 497.14 512.1 497.14 489.87 497.14 483.72 497.14 467.65 497.14 461.49 497.14 439.27 497.14 417.04 472.86 417.04 472.86 439.27 448.58 439.27 448.58 461.49 448.58 467.65 448.58 483.72 448.58 489.87 448.58 512.1 448.58 534.32 472.26 534.32 472.26 556.26 472.86 556.26 472.86 556.55 497.14 556.55"/>
    <polygon class="cls-5" points="621.04 417.04 621.04 439.27 621.04 461.49 621.04 467.65 621.04 483.72 621.04 489.87 645.31 489.87 669.59 489.87 669.59 483.72 669.59 467.65 669.59 461.49 669.59 439.27 645.31 439.27 645.31 417.04 621.04 417.04"/>
    <polygon class="cls-5" points="521.6 417.04 515.84 417.04 497.32 417.04 497.32 439.27 497.32 461.49 497.32 467.65 497.32 483.72 497.32 489.87 497.32 512.1 497.32 534.03 497.32 534.32 497.32 556.26 515.84 556.26 521.6 556.26 540.11 556.26 540.11 534.32 564.39 534.32 564.39 512.1 564.39 489.87 564.39 483.72 564.39 467.65 564.39 461.49 564.39 439.27 540.11 439.27 540.11 417.04 521.6 417.04"/>
  </g>
  <g>
    <rect class="cls-2" x="448.58" y="534.24" width="23.67" height="7.45"/>
    <polygon class="cls-2" points="564.39 534.24 546.31 534.24 540.09 534.24 540.09 556.26 472.25 556.26 472.25 565.92 546.31 565.92 546.31 556.55 546.31 556.26 546.31 541.68 570.54 541.68 570.54 534.24 570.54 444.75 564.39 444.75 564.39 534.24"/>
    <rect class="cls-2" x="540.12" y="420.51" width="6.16" height="18.76"/>
    <rect class="cls-2" x="249.36" y="487.82" width="6.16" height="28.3"/>
    <rect class="cls-2" x="176.53" y="322.92" width="6.16" height="22.46"/>
    <rect class="cls-2" x="154.33" y="272.74" width="9.11" height="50.19"/>
    <rect class="cls-2" x="114.88" y="249.45" width="24.28" height="9.57"/>
    <rect class="cls-2" x="139.16" y="205" width="24.28" height="9.57"/>
    <rect class="cls-2" x="162.75" y="176.73" width="46.95" height="9.57"/>
    <rect class="cls-2" x="209.7" y="154.49" width="92.23" height="9.57"/>
    <polygon class="cls-2" points="422.18 204.08 375.88 204.08 375.88 224.95 328.28 224.95 328.28 234.83 382.1 234.83 382.1 226.37 429.69 226.37 429.69 204.08 601.53 204.08 601.53 176.73 422.18 176.73 422.18 204.08"/>
    <rect class="cls-2" x="301.93" y="176.57" width="22.97" height="9.88"/>
    <rect class="cls-2" x="278.96" y="223.58" width="5.75" height="28.41"/>
    <rect class="cls-2" x="201.74" y="346.14" width="8.74" height="68.78"/>
    <rect class="cls-2" x="701.41" y="251.22" width="8.74" height="57.18"/>
    <rect class="cls-2" x="729.52" y="225.97" width="8.74" height="25.34"/>
    <polygon class="cls-2" points="809.38 153.93 716.78 153.93 716.78 178.74 693.02 178.74 693.02 185.2 785.62 185.2 785.62 179.28 808.4 179.28 808.4 185.2 856.28 185.2 856.28 179.28 809.38 179.28 809.38 153.93"/>
    <polygon class="cls-2" points="803.63 346.09 803.63 356.98 789.36 356.98 789.36 368.71 803.63 368.71 804.85 368.71 814.13 368.71 814.13 346.09 846.65 346.09 846.65 333.57 803.63 333.57 803.63 346.09"/>
    <rect class="cls-2" x="880.43" y="249.46" width="25.48" height="8.15"/>
    <rect class="cls-2" x="856.45" y="204.08" width="23.98" height="8.15"/>
    <rect class="cls-2" x="174.89" y="248.62" width="11.67" height="24.12"/>
    <rect class="cls-2" x="198.64" y="223.58" width="9.84" height="25.04"/>
    <rect class="cls-2" x="389.92" y="728.35" width="35.31" height="28.2"/>
    <rect class="cls-2" x="462.75" y="722.75" width="7.82" height="30.05"/>
    <rect class="cls-2" x="445.61" y="842.88" width="7.82" height="47.27"/>
  </g>
</svg>