<?xml version="1.0" encoding="UTF-8"?>
<svg id="_레이어_1" xmlns="http://www.w3.org/2000/svg" version="1.1" viewBox="0 0 1024 1024">
  <!-- Generator: Adobe Illustrator 30.1.0, SVG Export Plug-In . SVG Version: 2.1.1 Build 136)  -->
  <defs>
    <style>
      .st0 {
        fill: #014a4a;
      }

      .st1 {
        fill: #4cdfd2;
      }

      .st2 {
        fill: #c0fff3;
      }

      .st3 {
        fill: #29aba6;
      }

      .st4 {
        fill: #fefefe;
      }

      .st5 {
        fill: #072628;
      }
    </style>
  </defs>
  <g>
    <path class="st4" d="M483,927h-45v-62h92.6c0,0,2.4,3,2.4,3,0-1.3,0-2.7,0-4-.4-.9-.7-.9-1,0-20.7-.4-41.3-.4-62,0-.5-.9-.8-.9-1,0-10.6-.8-21.4-.8-32,0-1.7-1.1-2.2-.5-1,1-.9.4-.9.7,0,1v30c-.9.4-.9.7,0,1-.9.4-.9.7,0,1-.4,10-.4,20,0,30-.9.4-.9.7,0,1h49v-1l.5-30.5c-.4-1.2,12.5-1.4,13.1-1,.4,2.2,1,1.8,1.4-.5l-17-1v32Z"/>
    <path class="st4" d="M658,864h-62c-.9,21.6-.7,43.4,0,65h32v-33l-1,31h-29l-1-62h61l-2,31c1.3-.2,3,.6,4-1,.4-10.6.4-20.9,0-31h-2Z"/>
    <path class="st4" d="M533,925l-31,2-1-31v33h32c.1-1.3-.2-2.7,0-4Z"/>
    <path class="st4" d="M468,608c.7,0,.9-.4,1-1,.8-8.6.8-17.3,0-26l-2.1,1.3-1.8,22.7h-183.8c-1-8.5-1.5-17.6-1.3-27.2-.7-3-3.7-4.2-4-.8h0s-1.3.7-1.3.7c.7,9.7,1.2,19.5,1.3,29.3,0,.7.4.9,1,1,21,.2,42,0,63,0,42.7.1,85.4,0,128,0Z"/>
    <path class="st4" d="M533,920c.7-13.6,0-27.6,0-41.4v41.4Z"/>
    <path class="st4" d="M533,878.6v-6.6c0,2.2,0,4.4,0,6.6Z"/>
    <path class="st4" d="M654,896h-8.4c2.8,0,5.8.3,8.4,0Z"/>
    <path class="st4" d="M629,896h5.4c-1.8,0-3.6,0-5.4,0Z"/>
    <path class="st4" d="M643,896h2.6c-.9,0-1.8,0-2.6,0Z"/>
    <path class="st4" d="M643,896h-8.6c2.9,0,5.8.1,8.6,0Z"/>
    <path class="st4" d="M375.9,766.5c.8-1.3-1-27.1-1.4-30.6,0-.5-1.2-.8-2-.8l-1.5-2c-4.2-.4-21.6-.8-27-.2v-59.9l-2-.9h0s-1,0-1,0c-.2,20.6-1,41.4-1,62v2c0,.2.8.7,1,1l.7,1.3c4.5-.9,26.8-1.9,29.5,0,.5.4,1-.3.9-1.4l1,6c-.6,8.2-.6,16.5,0,25,.4.9.7.9,1,0,.9-.2,1.5-.8,1.9-1.5Z"/>
    <path class="st4" d="M756,161h0s-32,0-32,0c-.7,21-.9,42,0,63-10.2.5-20.3.5-30.5,0-.7-1.7-1.3-.9-1.5,1v31l1,1h31c0-.7,0-1.3,0-2l1.1-1.5.9-28.5c2.4-5,2.4-10.3,2.2-15.7.5-15.4.5-32.3-2.2-47.3l1.5,2c1.4.5,20.2.3,25.5,0v57.6c-5.1-2-16.9-1.3-13,3.4,4.1,1.3,9.6.8,14,0,.7-.7,1.1-1.5,2-2,1.6-20.5,1.7-41.5,0-62Z"/>
    <path class="st4" d="M212,352h-16c4.6.3,10,1.8,15,1v62h-29v-61l13-2c-3-.1-12-.5-14,1l-1,62.1c0,.7,0,1,1,.9.5.9.8.9,1,0,9.5,1.3,19.2,1.7,29,1,.4.9.7.9,1,0-.3-21.6.2-43.4,0-65Z"/>
    <path class="st4" d="M437,735c.8-9.7.8-19.3,0-29l-2,94c1.2-21.2,1.5-42.7,2-64-.5-.2-.5-.6,0-1Z"/>
    <path class="st4" d="M467,672v31h-31l1,2,.7,1.3c10.2-.8,20.6-1.5,31.1-1.9l.2-32.4h-2Z"/>
    <path class="st4" d="M339,512l-28.6-.5c-.8-1.4-1.4-1.2-1.4.5v2h30v29h-37l-1-31h0v32h39l-1-32Z"/>
    <rect class="st4" x="301" y="577" width="114" height="1"/>
    <rect class="st4" x="437" y="512" width="1" height="32"/>
    <path class="st4" d="M405,800h1l-1-32v32Z"/>
    <path class="st4" d="M375,768h28c-5.8-1.2-21,0-28,0Z"/>
    <path class="st4" d="M427,800h-1c.3,0,.7,0,1,0Z"/>
  </g>
  <g>
    <path class="st2" d="M533,920v-48c2-1.3,1.9-2.7,0-4l-1-3.2c-31.6-.6-62.9-.5-94,.2l-1,.7v61l1,.3c.2.5.4,1,.7,1,13.8.7,30.4.5,44.2,0,0,0,0-.4,0-1l1-.7v-29.4c.6.6,1.3.2,1.7-1.3l14.3.4h1l.5,31.8c1.2,1,27.2-.4,30.7-.7.5,0,.7-1.2.8-2,2.7-1.2,3-4.5,0-5Z"/>
    <path class="st2" d="M341,864c-.5-.9-.8-.9-1,0-21.3-1-42.7-.7-64,0h0c-10.6-.9-21.4-.8-32,0-.9.5-.9.8,0,1-.4,10.7-.4,21.4,0,32-.4,10.3-.4,20.6,0,31v1h21l1-.7v-30.9l.4.5c.7-2,8.6-2.3,9.2-.5l.5,30.5,1,1h31c.9-.4.9-.7,0-1l1-.7c0-10,0-19.9,0-29.9.9,1,1.6.4,2.3-1l14.7-.4c1.4,2.8,5.7,3,7,0h1c1.1,2.8,5,2.9,6,0l1-.6v-30.4c.9-.4.9-.7,0-1Z"/>
    <path class="st2" d="M658,865c-19.8-.8-41.4-.9-61,0-.6,20.1-.5,41.3,0,61.7,0,0,.4.2,1,.3.2.6.4,1,.7,1,9,.3,19,.3,28,0,.1,0,.2-.4.3-1,.7-10.2,1.1-20.5,1-31h26c.8,2.5,1.6,2.7,2,0l2-1.3c.9-9,1-20.2.9-29.3,0-.1-.4-.2-1-.4Z"/>
    <path class="st2" d="M788,785v8c0,5,0,10,0,15v9c0,2,0,4,0,6v5c0,1.7,0,3.3,0,5h1l-1-63c0,5,0,10,0,15Z"/>
    <path class="st2" d="M405,929h1l2-1.5v-27.5h26.1c0-.1.9-2.1.9-2.1.4.9.7.9,1,0v-1h-31v32Z"/>
    <path class="st2" d="M619.8,510.3c-14.8.1-29.8.4-44.6.9-2.8,0-5.5,1-8.2,1.9l61,1c0-.7,0-1.3,0-2h0c-1.3-.5-2.7-.9-4.1-1.2-1.4-.3-2.7-.5-4.1-.5Z"/>
    <path class="st2" d="M404.1,159.2c0,.3.4.5.9.8l1-30h61v29h-31v33l1-31,32-1v-31c-16.7,1.1-47.8-4.5-63-1-.3,0-.7,0-1,0-1.1,1-1.5,2.7-1.2,5.1-.2,8.1,0,18,.3,26.1Z"/>
    <path class="st2" d="M402.1,161h1.9c-.5-.6-1.2-.4-1.9,0Z"/>
    <path class="st2" d="M342,130h29v30.5l29.5.4-28.4-1v-30.9c0,0,0-1,0-1-3.8-.1-29.4-1-30.7,0-.2.2-.3.5-.3.9h-1c0,10.6-.7,21.5,1,32l1-31Z"/>
    <path class="st2" d="M402.1,161h-1.6s1.5,0,1.5,0c0,0,0,0,0,0Z"/>
    <path class="st2" d="M150,98h93v29.5l1,2.5h31l1,30v-31l-32-1v-31h0s-95,0-95,0v127c.7-42,1.6-84,1-126Z"/>
    <path class="st2" d="M662,98h93l1,30c-.2-10.3.1-20.7,0-31h-96v31h-32v2l34-1v-31Z"/>
    <path class="st2" d="M821,832l-1-31v32c.3,0,.7,0,1,0,.5-.4.5-.7,0-1Z"/>
    <path class="st2" d="M149,513v30l1,1c-.7-10.2,1.4-20.9-1-31Z"/>
    <path class="st2" d="M244,578l1.1,29.9c4.3.4,8.6,0,12.9.1l-12-1v-29c-.7,0-1.3,0-2,0Z"/>
    <path class="st2" d="M265.1,608h-5.1c1.7,0,3.4,0,5.1,0Z"/>
    <path class="st2" d="M268,608c-.9,0-1.9,0-2.9,0h2.9Z"/>
    <path class="st2" d="M275,607l-4,1c1.3,0,2.7,0,4,0v-1Z"/>
    <path class="st2" d="M276,607v1h1l-1-1Z"/>
    <polygon class="st2" points="883 767 853 768 883.8 767.8 885 737 883 737 883 767"/>
    <polygon class="st2" points="853 736.5 820 738 853 737 853 736.5"/>
    <path class="st2" d="M854,706c10.3.9,20.8-.8,31-1h-32v31.5h1v-30.5Z"/>
    <path class="st2" d="M851,772.5c-.3,9.2.2,18.4,0,27.5h2v-31c-3-.6-1.9,1.5-2,3.5Z"/>
    <path class="st2" d="M660,844.5v-11.5c0,3.8,0,7.6,0,11.5Z"/>
    <path class="st2" d="M660,844.5v18.5c0-6.2,0-12.4,0-18.5Z"/>
    <polygon class="st2" points="660 833 692 832 692 801 691 831 660 833"/>
    <path class="st2" d="M660,768v2h32v-2c-10.7-.1-21.3,0-32,0Z"/>
    <path class="st2" d="M597,834l31-1h0s-32,0-32,0c0,10,.1,20,0,30l1-29Z"/>
    <path class="st2" d="M643,928v-30c0,6.1-1.2,25.8,0,30Z"/>
    <path class="st2" d="M277.2,703.8l30.8.2-30-1-1-31h-1c0,4.4-.8,30.6,1.2,31.8Z"/>
    <path class="st2" d="M597,768v-30l-2,29-30,1c10.3,0,20.7.1,31,0h1Z"/>
    <path class="st2" d="M564,832c0-21.3,0-42.7,0-64v64Z"/>
    <polygon class="st2" points="532 801 532 801 532 801 532 801"/>
    <path class="st2" d="M500,833h1l1-31,30-1-1.4-2c-3.3-.2-27.4-.7-28.6,0-.5.3-1.7,1.9-2,2.5-.2,10.1-.3,20-.5,29.8-9.8.9-19.6,1.5-29.5,1.6-.5-.9-.9-.9-1,0v31h1c.9-.4.9-.7,0-1v-29l30-1Z"/>
    <path class="st2" d="M309,709l-1,25c2.9-4.3,2.6-18.8,1-25Z"/>
    <path class="st2" d="M306,831.2c0,.5,1.2.8,2,.8-.1-10.7.2-21.3,0-32h0c-10.3.5-20.6,1.7-31,1,0,.4-.6.8-1,1v61h2l2-1.2v-57.7c3.4.4,19.9.2,25,0-.5,4.6.5,22.9,1,27.1Z"/>
    <polygon class="st2" points="852 639 820 639 852 641 852 639"/>
    <path class="st2" d="M469,581c.3-1.6.6-3.3,1-5,1,0,2,.1,3,0h26l1-32-29.6-.5c-.4-2.2-1.1-1.8-1.4.5-.4-1.9-.9-3.1-1-1.6v-60.1l-1-.3c-9.4-.8-19.8-1.8-28.5-1l-2.1-.7c-.3-10.3,1.3-22.4.7-32.3-9.3-.8-22.9-.9-32,0,0,0,0,0,0,0,0,0,0,0,0,0v.5c-.7,10.1,0,22.2,0,32.5l-1.5-2c-9-.3-21.6,0-30.6.9-.5,0-.8,1.2-.8,2v62c13.5.8,28.8.8,42,0,.4-.1.8-.3,1.1-.5,0,.2-.1.4-.1.5-1.5.3-1.8.8-.5,1.5v28.4c-.7.5-1.1.8-1.3,1.1-.5,0-1.1.2-1.8.5h-108.7c-.4-1.2-1-1.7-1.5-1.6.7-9.4.6-18.7-.2-27.9l-1.3-2.1-21.2-1.9.5-29-2-.9h23c.4.9.7.9,1,0,0,10.6.3,20.9,1,31,11.9.8,25.6.8,37,0,.4-9.5.4-19.2,0-29l-.7-1c-10.1.5-19.9.2-29.3-1,1.5-.3,1.7-.8.5-1.5l-1.5-28.5-1-1c-19.4-.4-38.7-.4-58,0-1.6.2-3.4-.2-5,0,1.2,31.1-1.6,62.5,0,93.6,0,2.1,2.1,1.3,2.1,1.4l30,1h2l.6,30h188.4s2-26,2-26ZM416.1,542s0,0,0,0c.4-3.6.2-22.4,0-28,4.6.4,12.9.4,17.8,0-.6,4.2-.2,22.1,0,27.8-4.6-.4-13.8-.4-17.8,0Z"/>
    <path class="st2" d="M211,353c-4.9-.5-9.9-.8-15-1h0c-.3,0-.7,0-1,0-5-.2-9.3.5-13,2-.8,19.8-.9,41.4,0,61,.2.3.5.5.7.5,9,.3,19.1.6,28,.5.1,0,.2-.4.3-1,.7-20.2,1-42.1,0-62Z"/>
    <path class="st2" d="M181,129l-2,.6v94.4h2c-.3-31.6.2-63.4,0-95Z"/>
    <path class="st2" d="M181,256l1-30,24.1-.8c-8.4,0-16.9-1.2-25.1-1.2.1,10.6,0,21.3,0,32Z"/>
    <path class="st2" d="M206.1,225.2c2,0,4,0,5.9-.2l-5.9.2Z"/>
    <path class="st2" d="M435,223l2,33v-31h29.5c.2,0,1.2-1,2-1.1v-.9h-33.5Z"/>
    <path class="st2" d="M469,224c-.2,0-.3,0-.5,0l.5,32.1v-32Z"/>
    <polygon class="st2" points="628.2 319.1 628.2 321 692 321 691.4 319 628.2 319.1"/>
    <polygon class="st2" points="628 384 628.2 321 628 321 628 384"/>
    <polygon class="st2" points="411 288 405 288 405 288 411 288 411 288"/>
    <path class="st2" d="M433,288h-10c1.2,3,8.6,2.8,10,0Z"/>
    <path class="st2" d="M433.9,288h-.7c.2,0,.5,0,.7,0Z"/>
    <path class="st2" d="M433,288s0,0,0,0h.2c0,0-.1,0-.2,0Z"/>
    <path class="st2" d="M423,288h-7c3,1.2,5.3,1.2,7,0Z"/>
    <path class="st2" d="M435,288c-.4,0-.7,0-1.1,0h1.1Z"/>
    <polygon class="st2" points="403 319 372 319 372 321 404.9 319.9 405 288 403 288 403 319"/>
    <path class="st2" d="M416,288h-5c1,2.6,4.6,3,5,0Z"/>
    <path class="st2" d="M423,288s0,0,0,0h0s0,0,0,0Z"/>
    <path class="st2" d="M416,288s0,0,0,0h0s0,0,0,0Z"/>
    <path class="st2" d="M308,226v30l2-63.4-2-.6c0,11,0,22,0,33-.9.5-.9.8,0,1Z"/>
    <path class="st2" d="M308,448h23.5c-7.8,0-15.7,0-23.5,0Z"/>
    <path class="st2" d="M364,448h-32.5c10.8,0,21.7,0,32.5,0Z"/>
    <path class="st2" d="M364,448h6.5c-2.2,0-4.4,0-6.5,0Z"/>
    <path class="st2" d="M404,448h-33.5c11.2,0,22.2.4,33.5,0Z"/>
    <polygon class="st2" points="150 322 180 321 149 321 148 384 150 383.4 150 322"/>
    <polygon class="st2" points="277.9 320.8 278 288 276 288 275.9 319.9 244 321 277.9 320.8"/>
    <polygon class="st2" points="470 162 532 161 470 160.4 469 193 470 162"/>
    <path class="st2" d="M564,192c-11.9-.2-23.8,0-35.7,0h35.7Z"/>
    <path class="st2" d="M528.3,192h-26.3c8.7,0,17.5,0,26.3,0Z"/>
    <path class="st2" d="M582,192h13c-4.3,0-8.7,0-13,0Z"/>
    <path class="st2" d="M582,192h-18c6,0,12,0,18,0Z"/>
    <polygon class="st2" points="246 160 244 161 245 192 246 160"/>
    <polygon class="st2" points="214 159 213 129 213 161 244 161 214 159"/>
    <path class="st2" d="M531.5,256.9c-9.1,0-18.3,0-27.5,0h-2l29,1,2,30-1.5-31.1Z"/>
    <path class="st2" d="M691.9,133.4v-4.4c0,1.4,0,2.9,0,4.4Z"/>
    <path class="st2" d="M692,157h0c.9-7.6-.2-15.8-.1-23.6l-.8,25.6h-31v2l.7,1.3c10-1,20.1-1.8,30.3-2.3h1c2.4-1.2,2.7-2.4,0-3Z"/>
    <path class="st2" d="M244.2,256v1.9s63.8-.8,63.8-.8c-10,0-20,0-30,0-.6-1.8-1-3.1-2-1-10.6-.1-21.2,2.6-31.8,0Z"/>
    <path class="st2" d="M244.1,255.9s0,0,0,0l-.2-31v30.9Z"/>
    <path class="st2" d="M628,161c-.4-.4-1.1-.4-2,0l-61-1,.6,2,62.4-1Z"/>
    <path class="st2" d="M373,257h1c-.5-.9-.8-.9-1,0Z"/>
    <path class="st2" d="M340,257h33c-10.9,0-22.1-.1-33,0Z"/>
    <polygon class="st2" points="405 352 406 322 436 320 405 321 405 352"/>
    <polygon class="st2" points="436 288 436 320 438 288 436 288"/>
    <polygon class="st2" points="469 288 467 288.6 469 320 469 288"/>
    <polygon class="st2" points="213 225 214 194 244 193 212 193 213 225"/>
    <path class="st2" d="M181,481h-2c.3,9.1-.4,18.4,0,27.5,0,1.9-1,4,2,3.5,0-10.3.1-20.7,0-31Z"/>
    <polygon class="st2" points="181 321 182 290 212 289 181 289 181 321"/>
    <path class="st2" d="M469,383c-.1-10-.3-20-1-30-1.7,1.7-1.2,22.6-1,26.5,0,1.9-1,4,2,3.5Z"/>
    <path class="st2" d="M179,416v-1h-31l1,2c10-.2,20-.9,30-1Z"/>
    <path class="st2" d="M372,354l33-1c-7-.4-14,.2-21,0-.1-2-1.5-2-4,0-1.2-.8-2.9-1.5-5-2-.5-.9-.8-.9-1,0-.6,0-.7,2.2-2-1h0c.2,1.3-.1,2.7,0,4Z"/>
    <polygon class="st2" points="213 288 214 257.6 212 257 213 288"/>
    <path class="st2" d="M405,192c-.2,10.9,0,22.1,0,33v-33Z"/>
    <path class="st2" d="M533,512v-31l-1,31c.4.6.7.7,1,0Z"/>
    <path class="st2" d="M182,416h-1v2c0,10,0,20,0,30,2-3.4,1-24.4,1-30v-2Z"/>
    <path class="st2" d="M628,385c10.7,0,21.3,0,32,0h-32Z"/>
    <path class="st2" d="M532,513h1c-.4-.6-.7-.7-1,0Z"/>
    <path class="st2" d="M212,417h-1v1l1,30c0-10.3.1-20.7,0-31Z"/>
    <path class="st2" d="M564,353c-2.6,4.6-.9,24.8,0,31v-31Z"/>
    <path class="st2" d="M245,288h1.1c-.4,0-.8,0-1.1,0Z"/>
    <path class="st2" d="M252,288h-4c1.3,2.5,3.3,2.9,4,0Z"/>
    <path class="st2" d="M248,288h-1.9c.6,0,1.3,0,1.9,0Z"/>
    <path class="st2" d="M275,288h-2c.6,1.9,1.4,1.9,2,0Z"/>
    <path class="st2" d="M273,288h-21c6.4,1.6,15.2,1.6,21,0Z"/>
    <path class="st2" d="M471.7,290.1c.9.4,18,0,20.4-.4l1.9-1.8h-24c.4.8.8,1.7,1.7,2.1Z"/>
    <polygon class="st2" points="500 288 494 288 494 288 500 288 500 288"/>
    <path class="st2" d="M756,159v-9.4c0,3.1,0,6.3,0,9.4Z"/>
    <path class="st2" d="M756,131v18.6c0-6.2,0-12.4,0-18.6Z"/>
    <path class="st2" d="M596,225c0-3.3,0-6.7,0-10v10Z"/>
    <path class="st2" d="M596,274.6v-2.6c0,.9,0,1.8,0,2.6Z"/>
    <path class="st2" d="M596,274.6v6.4c.1-2.1,0-4.2,0-6.4Z"/>
    <path class="st2" d="M596,384c1.3-2.2,2-5,0-7-.2,2.3.1,4.7,0,7Z"/>
    <path class="st2" d="M596,210v-2.7c0,.9,0,1.8,0,2.7Z"/>
    <path class="st2" d="M596,207.3c0-1.4,0-2.9,0-4.3v4.3Z"/>
    <path class="st2" d="M596,259v-7c0,2.3,0,4.7,0,7Z"/>
    <path class="st2" d="M596,369v6c0-2,0-4,0-6Z"/>
    <path class="st2" d="M596,284v4c2.3-1.5,0-3.7,0-4Z"/>
    <path class="st2" d="M596,248v2c0-.3,1.5-1,0-2Z"/>
    <path class="st2" d="M406,800c5.6,0,11.4.2,17,0h1c.7,0,1.3,0,2,0h1c2.6-.2,5.4.2,8,0,.8-21.2,1.3-42.7,1.6-64.1.1,0,.2,0,.4,0v-1c0,.1-.2.2-.4.3.2-9.8.3-19.6.4-29.3.9-.5.9-.9,0-1l1.1-1,29.5-.5c1-1.2.5-27.4.3-31.2,0-.1-.4-.2-1-.3h-125v63h30.5l1.5,33c.4.9.7.9,1,0h28c.8,2.5,1.7,2.7,2,0,0,10.9.3,21.6,1,32Z"/>
    <path class="st2" d="M469,800c.4.9.7.9,1,0l-1-63v63Z"/>
    <path class="st2" d="M597,705h35c-11.7,0-23.4,0-35,0Z"/>
    <path class="st2" d="M486,800c.8,2.5,1.7,2.7,2,0h4c.6,2.9,6.7,3,7,0,0-.1,2,.1,2,0v-31l-1,30-16,1h2Z"/>
    <polygon class="st2" points="533 801 533.6 767.9 502 768 533 768 533 801"/>
    <path class="st2" d="M479.7,800h-7.7c2.4.3,5.1,0,7.7,0Z"/>
    <path class="st2" d="M482,800c-.8,0-1.5,0-2.3,0h2.3Z"/>
    <path class="st2" d="M633,481.8c-1.7,0-3.4,0-5,.2l5-.2Z"/>
    <path class="st2" d="M633,481.8c8.6,0,17.6,1.3,26-.8h-1l-25,.8Z"/>
    <polygon class="st2" points="469 607 468 608 469 608 469 607"/>
    <path class="st2" d="M756,256v-30c-2.6,7-.9,22.3,0,30Z"/>
    <path class="st2" d="M755,162h-29c-.4,21,.6,42,0,63h14c-.2-4.2,10.9-1,15-2v-61Z"/>
    <rect class="st2" x="694" y="226" width="29" height="29"/>
    <path class="st2" d="M335.2,833h5.8c-1.9,0-3.9,0-5.8,0Z"/>
    <path class="st2" d="M335.2,833h-7.9c2.6,0,5.2,0,7.9,0Z"/>
    <path class="st2" d="M310,832c-1,0-1.7.4-2,1h19.3c-5.8,0-11.6-.2-17.3-1Z"/>
  </g>
  <g>
    <path class="st1" d="M245,610v-1h-1l1,1Z"/>
    <path class="st1" d="M885,705c-10.4.2-20.7.5-31,1-.8,9.8-.8,20.9,0,30.5-.5-1.7-1-1.7-1.5,0l-32.5,1.4v8c0,.7,0,1.3,0,2v4c0,2,.1,4,0,6-.2,3.3,1,7.1-1,10h-31v2c0,21.3.2,42.3,1,63h31c.4-10.5.4-21.2,0-32,1.1,2.4,1.8,2.7,2.1,0,9.9,0,19.5-.2,28.9-1,1.2-9.8,1.5-19.7.9-29.7.5.9.9.5,1.1-1.3.9-.4.9-.7,0-1l30.4-.7c-.3-10.4.2-20.5,1.6-30.3.3,1.5.8,1.8,1.4.5l28.6-.5,1-1v-31c-10.3.2-20.7-.2-31,0Z"/>
    <path class="st1" d="M726,798.6c.2-3.5.8-28.4,0-29.7-1.2-1.8-3.5-2.7-5.9-2.9-8.9-.8-19.5-.3-28.1,2h0c-10.4,1.1-21,1.5-31.7,1l-.3,1v24c-1.9.6-2.6,2.2-2,5-10.4-.8-20.4-.1-30,2-.6,9.8-.8,19.8-.5,29.9-2.4.6-1.8,1.8.5,2.1l-31.5.6-.5,29.4c-.6.5-.7.8,0,1-.2,1.7.5,1.7,2,0h60c.6,1.9,1.4,1.9,2,0,.8-.5.9-.8,0-1v-30l31.5-1.6.5-30.4c.5,1,1.3.8,2.3-.6l4.7-.4c2.8-.3,6.1.1,9,0h16l2-1.5Z"/>
    <path class="st1" d="M373,865h0c-9.2-3.2-21.8-4.1-31-1-.5-.9-.8-.9-1,0v1c.5,10.7.2,21-1,31-2,.1-4-.2-6,0h-1c-2.3.1-4.7,0-7,0l-16.9.5v30.2c-.5-.9-.9-.5-1.1,1.2v1h64v-1l1.5-61.5c2.2-.4,1.8-1.1-.5-1.5Z"/>
    <path class="st1" d="M663,864c-.6-1.9-1.4-1.9-2,0-.7,10.2-1.1,20.5-1,31-1.8-1.4-3.3-1.5-4,1-.6,0-1.3,0-2,0h-11c-.9.4-.9.7,0,1v32h49v-65h-24c-1.7,0-3.3,0-5,0Z"/>
    <path class="st1" d="M244,833h-30.5c-1.2.3-.3,2.6-.5,3h0c-.1,12,.2,24,0,36l1-38h29l1,30c0-2.3,0-4.7,0-7-.1-8,0-16,0-24Z"/>
    <path class="st1" d="M755,834c-1,16.3.8,32.8,1,49v-50l-32,1h31Z"/>
    <path class="st1" d="M597,738l6,1.5c17.7-.5,35.4-.9,53-1.2l3-1.3c1.6-10.6,1-21.3,1-32-.4-.9-.7-.9-1,0h-62c.7-10.6,1-21.5,0-32-.4-11-1-21.9-1-33-.3-1.5-.8-1.8-1.2-.5h-60.3c-.4-2.2-1.1-1.8-1.5.5-11.2-.4-22.5-.4-34,0h0c-52.6,0-105.4-.3-158,0-.2,10.6.1,21.4,0,32,.4.9.7.9,1,0,.7,2.7,2.9,2.9,3,0h123c.4.9.7.9,1,0v31.5c-1.8.3-2.3.9-1.9,1.5-9.6-.1-20,.2-29.1,1-.4,9.5-.7,19.2-1,29-.5.4-.6.8,0,1l-2,64c-10.9-.2-21.6.2-32,1.4v62.6s2,.9,2,.9c10.3,0,20.7,0,31,0,.2,0,.8-1,1-1,1.5-.4,1.8-.8.5-1.2v-124.6c9.6-.8,19.4-1.1,29.4-.7.6,2.4,1.8,1.9,2.1-.5-.1,21.3.2,42.3,1,63h14l16.5-.6.5-30.4c1.8.9,2.3.4,1-1h31.3c0,.1-.3,33-.3,33-.4-.9-.7-.9-1,0l-30.5.7-1,29.9c-.7.8-.9,1.3-.7,1.5-9.9,0-20.2.1-30.3.6-.2,10,0,19.8.5,29.4,20.5.8,41.2,1.1,62,1h1c.2-10.3,0-20.7,0-31h31v-65h1l30.6-.5c.8-9.8,1.2-19.6,1.4-29.5Z"/>
    <path class="st1" d="M341,640c.2-10.2,1.9-20.7,1-31-.5-.7-1.8-.8-2,0,.7,7.6.6,14.4,0,22,0,.3,0,.7,0,1-.2,2.6.2,5.4,0,8h1Z"/>
    <path class="st1" d="M852,641c-1.5.3-1.7.8-.5,1.5l1.5,29.5v1l29.9.5c.6,2.4,1.8,1.8,2.1-.5v-1c.6-21,.6-42,0-63h-65v30c11-.1,21.7.5,32,2Z"/>
    <path class="st1" d="M852,548c-.2-.3.1-2.4-1-3v32l2-1-1-28Z"/>
    <path class="st1" d="M246,578c1.8-.9,1.9-1.7,0-2-.2-30.4-.2-61.4,0-93,1.6.4,2.2-.4,3.1-2h58c-.9,1.8-.4,2.3,1,1l1.6,29.5,29.4.5c-2.4,1.1-2.7,1.9,0,2.1l.4,28.4c-2.2.5-1.8,1.2.5,1.4.4.9.7.9,1,0l.5-63.7c-11.5-.1-22.6-.6-33.5-1.3v-30c.9-.4.9-.7,0-1h96c.5.9.8.9,1,0,.5.6.8.7,1,0,9.5,0,19.1,0,28.7.3.5.8,1.5,1.5,2.3,1.4-.2,9.7.2,20.1,1,29.3.2.7.7,1.1,1.4,1l28.6,1c.4.9.7.9,1,0l.6,62.5,30.4.5-2,1.4c-1.1,4.2-1.2,24.5-.9,29.7,0,.6,1.2.9,2,1h-26c-1.1-2.5-1.8-2.5-3,0-1.2,10.4-.6,21.9,0,32,10.2.4,20.6.4,31,0v-30l63-1v-33h64c.1-10-.2-20,0-30l-.7-1h-60.3c.2-2.8-2-3.7-3-1v-32h1c9.8,3,21.2,3.2,31,0,.8-1,1.6-2,1.8-3.3.9-5.5,1.3-19.6,1.1-25.5l-1.9-3.3c.6-9.7.7-19.5.5-29.4,2.1-1.3,2.6-2.2,1.5-2.6h60c.4.9.7.9,1,0,.2-10,0-20,0-30h32v-2l-3.4-1.5c-8.4.7-16.9.9-25.4.5l-3.2,2h-32c.9-.4.9-.7,0-1l.2-62.6,2.6-1.3h59.7c-1.1.2-.6.6,1.5.9-2.9,10.1-3,20.9,0,31,10.5.4,21.2.4,32,0,0-10.3-.1-20.3,0-31,.1-10.6,0-21.3,0-32l-1.5-2c-5.6-.7-21.6-.7-28.5-.1.7-6.4.6-23.2,0-29,0-.6-1.2-.8-2-.9-10.1-3.1-21.8-3-32,0l-2,1.5c-.8,2.7-.3,25.5,0,29.7,0,.6,1.2.8,2,.9h-31c.9-1.8.4-2.3-1-1v-30l1-1c9.9,2.7,20.1,2.8,30,0,4.1-9.1,4.1-22.6,1-32-9.9-3.2-22-3-32,0l2-1.5c.9-4.9.6-22.5,0-29.5,6.4.7,23.2.6,29,0,.6,0,.8-1.2.9-2,.4-10.4.4-20.7,0-31,10.3-1.3,20.8-1.8,31.5-1.6l.5-30.4c.9,2.2,1.6,2.8,2.1.5h28.4c.9,10.4,1.4,20.9,1.5,31.5.9,2.2,1.6,2.8,2.1.5h28.4c.4,2.2,1.1,1.8,1.5-.5,1.5-.6,1.5-1.4,0-2v-28c1.5-.9,1.5-2,0-3,0-10.3-.3-20.3-1-30-30.3-.9-63-.9-93,0l-1,.7v28.6c-.5-.5-.9-.2-1.2,1.2l-31.4.5-.4,1-.5,28.6c-2.2.4-1.8,1.1.5,1.4-.7.4-.7.7,0,1h-61.5c1.1-.2.6-.6-1.5-1,1.5-.3,1.7-.8.5-1.5l-1.5-29.5-1-1c-10.4-.2-20.8,0-31,.5l-.5,30.4c-2.4.5-1.9,1.8.5,2.2-20.7,0-41.3,0-61.9.5l-1.1,31.5c-.4-.9-.7-.9-1,0h-31c.9-1.8.4-2.3-1-1l.5-30.9c.9-.2,1.4-.5,1.5-.8,9.9-.3,19.5-.7,29-1.3.6-.2,1-.4,1-.7.1-3.5.6-26.8,0-28,0-.2-.5-.3-1-.3-20.1-1.4-40.4-1.7-60.7-1l-.3,1c-.7,9.8-1,19.8-1,30-1.1.3-1.4.6-1,1l-31.5-.8c-.3-2.5-1-2.1-1.5.3.9-9.7.8-20.9,0-30.5-.2-.5-.4-1-.7-1-9.3-.2-19.5.1-28.3,1l-1,.6c-.4,10.1-.4,20.3,0,30.4h-65v-1c0-10.3-.3-20.3-1-30-9.7-.8-20.1-1.2-30.1-1,0-.6-1.1-1.2-1.9-1.5.8-9.5.8-20.2,0-29.5-30.3-.9-63.1-.9-93,0-.4,42-.8,84-1,126h0v1c.3,0,.7,0,1,0,9.2.7,18.5.4,27.7,0l1.3-1,1-.7v-93.2c.2,2.1.7.9,1-1.1.3,1.5.8,1.8,1.5.5h28.4c.6,2.4,1.8,1.9,2.1-.5l.5,30.6c10.1.8,20.3,1.2,30.5,1.4l1,1.1v29.9c-1.7-.6-2.3-.3-1,1l-30.7.5c-.4,10.5-.5,21-.3,31.5-.4-.8-.7-.9-1,0h-30.1c-.6,10.3-.9,20.6-.9,31v1l29.6.5c.4,2.2,1.1,1.8,1.4-.5,1.2,9.6,1.5,20,1,31l-1,1-30.5.6-.5,31.4c-.4-.9-.7-.9-1,0l-30.5.6-.5,60.8c-.3-1-.6-.5-1,1.5l-.7-1.3c-10.5.9-21.2,1.5-32.2,1.9-1,21.1-1,42.3-.1,63.4h1l30.5,1c.8,1.8,1.5,1,1.5-1,.8-.7.8-1.4,0-2,3-5,3.3-14.7,3.2-21,.7-3.6,0-6.2-2.2-8l1.1-1c9.9,0,19.5-.3,28.9-1l1-.7,1-61.3c4.6-.3,9.3-.6,14-1,.3.9.7.9,1,0l14.9.5c.6,1.2,1,1,1.1-.5,20.9,2.3,41.9,2.9,63.1,1.9,1.5,9.5,1.2,19.3-1,29.5l1.9,1.7s0,0,0,0l-1.4,1.7c-.2,17.8-.3,35.7-.3,53.7l1.7,3.5h0s0,0,0,0c-3,.5-2.8,4.4,0,5h-64c.9-.4.9-.7,0-1,0-10.3-.2-20.3-1-30-.2-.3-.4-.5-.7-.5-2.2-.5-26.7-.9-28-.5-.2,0-.3.5-.3,1-.2,9.9-.5,19.9-1,30-3,10.3-3.1,21.7,0,32,.3,1.5.7,1.8,1.3.5l5.7-.5c.8,2.7,3.2,2.8,4,0,.4,1.7.9,1.7,1.4,0l17.2.5c.6,2.4,1.9,1.8,2.4-.5v32c-1.7-.7-2.3-.3-1,1h-31c.9-.4.9-.7,0-1-.4-1.6-.7-2-1.1-1.4.6-10.1.2-19.9-.9-29.6-10-2.5-20-2.5-30,0l-1.5-1.3c-9.8.9-19.7.8-29.5.3l-3,1v31c8.6,0,17.3,0,26,0-.2-.8-.6-1.6-1.3-2.1-.8-.5-15.9-.9-20.6-.9.5-3.6.3-19.6,0-24.9,4.2.5,25.7.1,29-.1.2,0,.3-.2.4-.3-2.4,9.3-2.3,19.1.5,28.3-.9.5-.9.8,0,1,.3,10.4.7,20.8,1,31,.4.6.7.6,1,0,1.6,0,3.3-.1,5,0,7.8.6,16-.6,23.8.2l1.2,31.8c3.3-5.6,3.3-15.4,3.2-22.3.6-3.1.3-5.6-.8-7.7h0c5,.5,21.5.9,27.6.2v27.4c-2.1.9-2.8,2-2,3.4,11.7.2,23.3.6,35,1,.4.7.7,1.2,1,1.3l.6,28.1,12.4.6c.7,0,1.3,0,2,0h8c1,0,2,0,3,0,1.9,0,3.2-.3,4-1,.7-9.7.8-19.5.3-29.5-9.9-.6-19.7-.5-29.3.5ZM438,449s0,0,0,0c0-.2.1-.3.2-.6l13.2-.2c-4.5.2-8.9.4-13.3.8ZM464.9,448h2.1s0,0,0,0c-.7,0-1.4,0-2.1,0ZM436,385l-.5,59.1.5-59.1h0ZM308,384h0s0,0,0,0c0,0,0,0,0,0ZM309,415v-30s0,0,0,0v30h0s0,0,0,0Z"/>
    <path class="st1" d="M692,448c-.1-10.3,0-20.7,0-31h-32c-.9,21-.7,42,0,63,.6.6,1.3.5,2,0,10-.3,20,.2,30,0,1.3-10.7,1.3-21.4,0-32Z"/>
    <path class="st1" d="M660,482v-1c-.4-.6-.7-.6-1,0-10.3.8-20.6,1.1-31,1-3.2,9.2-2.9,20.7,0,30,10.3-.4,20.7.2,31,0,1.8-8.9.1-18.1,1-27,.5-1,.7-2,0-3Z"/>
    <path class="st1" d="M597,609h-1v1l64,1-.6-2c-20.8-.2-41.6.3-62.4,0Z"/>
    <polygon class="st1" points="690 544 660 544 660.6 546 690 544"/>
    <path class="st1" d="M700,481h-7l30.4,1,.6-2c-7.8,1.7-16.1,1-24,1Z"/>
    <path class="st1" d="M853.2,822.1l.8-20.1c2.5.8,4.2-.5,6-1h-7c-.3,6.9.3,14.2.2,21.1Z"/>
    <path class="st1" d="M853.2,822.1l-.2,3.9c0-1.3.1-2.6.2-3.9Z"/>
    <path class="st1" d="M692,737v1h32c-10.5-1.8-21.4-1-32-1Z"/>
    <path class="st1" d="M756,223c-1.4.3-3.1.7-2,2-9.5.4-18.9.7-28,1l-.9,27.8c-.7-1.1-.9,0-1.1,1.2-1.9.6-1.9,1.4,0,2,4.3,0,31,.8,32-1-.9-10-.9-20,0-30,.3-.7.3-1.5,1-2h0c.6-1.7.3-2.3-1-1Z"/>
    <path class="st1" d="M726,321h0s29,1,29,1l1,50c0-17,0-34,0-51h-30Z"/>
    <path class="st1" d="M308,768c.1,10.7-.1,21.4,0,32,4.6-.2,9.4.2,14,0,.9,2.8,5.2,3,6,0h6c1.1,2.5,1.9,2.5,3,0h4c.6-20.3.8-40.8.5-61.5,2.2-.4,1.8-1.1-.5-1.5.8-1.6.3-2.2-1-1l-1-64h-62c-.6,3.5-.7,30.6.7,31.4l30.3.6c.6,1.6.6,3.4,1,5,.5,8.3.8,16.8-1,25-.3.4.7,2.7-.5,3.1h-31.5c0,0,0,30.9,0,30.9h32Z"/>
    <path class="st1" d="M435,898h-29v31h30v-1c0-10.3-.3-20.3-1-30h0Z"/>
    <path class="st1" d="M177,449.1c.7,0,1.3,0,2,0h-2Z"/>
    <path class="st1" d="M177,449.1c-9.6.2-19.1-1.9-28.6.9l.6,29c2.7-9,.1-19.8,1-29l27-.9Z"/>
    <polygon class="st1" points="206.5 576 207 575.5 206.5 575 206.5 576"/>
    <path class="st1" d="M340,863l2-29,12.5-.8c-4.5,0-9-.1-13.5-.2-11.1-.1-22.1-.1-33,0,.7-.4.7-.7,0-1l-1-30h-29v61c20.7,0,41.3-.2,62,0Z"/>
    <path class="st1" d="M372,832l-17.5,1.2c5.9,0,11.8-.2,17.5-1.2Z"/>
    <path class="st1" d="M374,800h31c.4-10.5.4-21.2,0-32h-2c-9.3-.6-18.6-.6-28,0h-2v2c.1,4.8-1,28,1,30Z"/>
    <path class="st1" d="M373,743l-1-6c-1,2.2.9,4.8,1,6Z"/>
    <path class="st1" d="M660,223c.5-8,.5-16,0-24-3-.6-1.9,1.5-2,3.5-.2,5.6-.2,11.5,0,17.1,0,1.9-1,4,2,3.5Z"/>
    <polygon class="st1" points="692 161 692 160 691 160 692 161"/>
  </g>
  <g>
    <path class="st3" d="M282,640c-.6,0-1.3,0-2,0h-2s-2,1-2,1v31c.4.9.7.9,1,0l1.2,2h58.6l1.2,61.1,2,.9c.9-.5.9-.8,0-1v-1c1.9-20.5,1.5-41.4,1-62,3.2-9.8,2.9-22.1,0-32-.5-.9-.8-.9-1,0-19.2-.7-38.8-1.3-58,0Z"/>
    <path class="st3" d="M755.4,321.5l-29.4-.5c-.8-2.5-1.7-2.7-2,0-3.2,9.8-3,21.2,0,31-10.9,0-21.6.3-32,1-3.1,10-3,21,0,31l-2.1,1.2c-10.2.5-20.5.6-30.8.3-1.8,9.9-2.1,20.8.9,30.5-.9.5-.9.8,0,1l1.5,2h28.4c-.7,10.1,0,19.8,2.1,29,.8,2.5,1.7,2.7,2,0,9.7,3,20.3,2.9,30,0,2.5-20.5,3-41.2,1.5-62l29.7-.9.8-2c1.6-2.7,1.6-8.9,0-11l-.6-50.5Z"/>
    <polygon class="st3" points="756 449 756 449 756 449 756 449"/>
    <path class="st3" d="M724,448c-.8.5-.9.8,0,1-.4,10.4-.4,20.7,0,31l-2,1.2c-9.7.2-19.3.2-29-.2.9-.4.9-.7,0-1-.4-.9-.7-.9-1,0-9-3-21.1-3.4-30,0-1.2.2-1.8.5-2,1-.9.4-.9.7,0,1,.7,1.1.5,1.9,0,3l-2.2,2.2c-.2,8-.1,15.8.2,23.4-8.1-.8-16.6-.9-24.9-.7-.9,0-1.7.3-2.6.7s-1.7.9-2.6,1.4c-1.9.6-1.9,1.4,0,2-3.2,9.2-3,20.7,0,30l-1.2-2c-19.9-.6-42-.6-61.9,0-.6,0-.8,1.2-.9,2l-2,1.5c-.9,3.3-.4,25.9,0,30.6,0,.6,1.2.8,2,.9l-63,1-2,1.4c-.8,3.4-.4,23.3,0,27.7,0,.6,1.2.8,2,.9-53,.4-106,.7-159,1-1,9.9-1.5,20.8-1,31,52.5,2.9,105.5,3.2,158,0,11.5,0,22.9-.2,34-1,.6-9.7.8-19.6.5-29.6l2.5-1c20,0,40,.2,60,.6.5.7.8.7,1,0,.9-.4.9-.7,0-1l.5-29.6c1.6-.3,2-.6.7-.9l92.8.5c.4.9.7.9,1,0,0-.3,0-.7,0-1,3-2.3,3.8-8.3,1-11l.5-20.1s0,0,0,0c.4.3.7-.2.6-1.4l28.9-.5,2-1.4,1.1-28.7,29-.9.8-2v-62c-10-3.5-21.8-3.9-32-1ZM690,544c-10.5.9-20.5.9-30,0,1.5-.3,1.8-.8.5-1.4l-.5-29.6c1.5,2.4,3.8,1.8,3-1l27.3,1c-.5.5-.1.9,1.2,1.1v28.4c-1.6.3-1.8.7-1.1,1-.2,0-.4.2-.4.4Z"/>
    <path class="st3" d="M692,706l32-1c3-10.4,3.2-22.7,0-33-9.6-3.4-20.8-2.3-30.8-1.1,1.2-10.2,2.1-21-1.2-30.9v-1c-.4-.9-.7-.9-1,0h-31l2-1.5c.6-2.1.3-22.4,0-25.6,0-.6-1.2-.8-2-.9h0c-.2-.6-.4-1-.7-1-20.9-.5-42.9-.5-63.3,0-.3,1.9-.3,3.9,0,6-2.8.7-2.9,4,0,4-.4,6.7-.4,13.3,0,20-3.1,10.2-2.5,22.9,1,33,.3,1.5.8,1.8,1.4.5l29.6-.5c2.5-.8,2.7-1.7,0-2l1.5-28.5c1.1-.3,1.4-.6,1-1h28.1c.2,1.4.6,1.7.9,1.3l.5,16.2c-1.9.8-2,1.8,0,2-.2,14.7-.2,29.4,0,44l-2,3.4c-.6,5.9-1,19.2-.5,25,0,1.3.8,2.5,1.5,3.6,11,2,22,2,33,0,3.2-9.6,3-21.3,0-31Z"/>
    <path class="st3" d="M860,801l-6.5.5-.5,24.5c-1.1,1.1-1.8,3.1-2,6-.5-.8-.8-.9-1,0-9.6-.7-18.9-.7-28,0l-1,1c-.5-.8-.8-.9-1,0h-29c-.8-2.5-1.7-2.7-2,0-.4-.9-.7-.9-1,0,.2,10.7-.1,21.3,0,32,21.3.4,42.7.4,64,0h1c.9-.4.9-.7,0-1l.5-29.6c10-.9,20.2-1.3,30.5-1.4.7,0,1.3,0,2,0v-1l-1-32c-8.3.5-16.8-1.1-25,1Z"/>
    <path class="st3" d="M915,672h-29c-.4-.9-.7-.9-1,0-.8.5-.9.8,0,1-1.2,9.8-1.7,19.9-1.5,30.1l1.5,1.9c9.4,3,21.7,3.3,31,0v-33h-1Z"/>
    <path class="st3" d="M117,383c-.1,0-1.1-1.3-2-1v2c1.1.7,2.6.4,2-1Z"/>
    <path class="st3" d="M724,834h0s-.5,28.6-.5,28.6c-2.9,1.2-6.4,1.7-10.5,1.4-.7,0-1.3,0-2,0h-5c-.7,0-1.3,0-2,0h-9c-1,0-2,0-3,0-2,.7-2.6,2.5-2,5.7-1.3,17.6-.6,40.5,0,58.4,0,.6,1.2.8,2,.9h31l1-1,1.6-30.3,30.4-.7v-14l-.5-49.3-31.5.3Z"/>
    <path class="st3" d="M564,833l-1.4-2c-3.4-.2-27.4-.6-28.7,0-.8.4-1.5.7-2.2,1.3-.9,10.5-1.9,21.6,1.3,31.7-1.2.8-1.2,2.1,0,4,0,1.3,0,2.7,0,4v48c0,1.6.2,3.5,0,5-2.7,1.2-2.9,3.3,0,4h31v-1c.5-31.7.5-63.3,0-95h0Z"/>
    <path class="st3" d="M660,768h0c-20.8-3.2-42.2-3.3-63,0-.5-.9-.8-.9-1,0-.4,6.3-.4,12.6,0,19,0,1,0,2,0,3v2c0,1.5-.3,3.8,0,5-.3.7-.7,1.5,0,2,1.4,1.9,4.2.7,6,1l26,1c10.6.3,21.4-.2,32,0,.2-2.3-.2-4.7,0-7v-24c2.5-.8,2.7-1.7,0-2Z"/>
    <path class="st3" d="M725.6,767.2l-.5-25.3c0-.6-.3-.9-1.1-.8v-3h0c-10.6-.6-21.9-1.1-32,0-3.2,9.4-3,20.5,0,30,10.7.1,21.4,0,32,0v32h32v-32h-1l-29.4-.8Z"/>
    <path class="st3" d="M214,834c-.7,12.5-1.1,25.2-1,38-.5.4-.6.8,0,1v1c-1.2,7.3-1.2,14.7,0,22l1,1c9.9.4,19.6.4,29,0,.7-10.5,1.1-21.2,1-32v-1c0-10.3-.3-20.3-1-30-9.3-.8-20-.9-29,0Z"/>
    <path class="st3" d="M276,801v1c1.4.7,1.9.2,1-1h-1Z"/>
    <path class="st3" d="M884.1,611l.9-2v-33h-1l-29.6-.5c-1.1-1.1-1.4-1.2-1.4.5l-1-1.1c0-10-.3-20-1-29.9v-1h-30l-1,1v64l1.2,2h62.9Z"/>
    <path class="st3" d="M788,164c-.1-12-.7-24-1-36-1.7,0-3.3,0-5,0h0c-8-.2-16,0-24,0-.6.2-1,.5-1,.7-.4,31.4-.1,63.8.4,95.1l.6.2,28,1c1-1,1.6-7.6,2-10,.8-17,.8-34,0-51Z"/>
    <path class="st3" d="M213,544h-31c.9,10.7-.7,21.4-1,32v1h2c8.7,0,17.4-.1,26,0l4-2v-31Z"/>
    <path class="st3" d="M149,482h-32v29l24,1h6c.8,2.5,1.7,2.7,2,0,0-10,0-20,0-30Z"/>
    <path class="st3" d="M276,577h0s-1.4-2.1-1.4-2.1c-5.1-.9-22.4-1.4-27.7-.9-.6,0-.8,1.2-1,2,0,.7,0,1.3,0,2,9.6.4,19.4-.3,29,0v29c-.9.4-.9.7,0,1h1v-31Z"/>
    <path class="st3" d="M660,225c-.1,10.7,0,21.3-1,32,.5.8.8.9,1,0,10.7.1,21.3,0,32,0v32h32c0-10.7-.2-21.4,0-32-.4-.9-.7-.9-1,0h-30c.9-1.8.4-2.3-1-1v-30c.9-.4.9-.7,0-1-6.3-2.7-12.7-2.7-19,0-1.3-1.7-2.7-1.6-4,0-1.3-2-2.7-1.9-4,0-1.6-.7-2.8-1-3.7-.8,0-.4-.4-.8-1.3-1.2-2-5.1-2-19.3,0-24v-6c.8-.5.9-.8,0-1h-32v33c10.7.1,21.3-.2,32,0Z"/>
    <path class="st3" d="M326,896h0c-6,.2-12-.2-18,0v32c3,.6,1.9-1.5,2-3.5.4-9.2-.3-18.4,0-27.6l16-1Z"/>
    <path class="st3" d="M340,864c.9-.4.9-.7,0-1-20.3-3.3-41.6-3.1-62,0-.8-2.5-1.7-2.7-2,0v1c21.3.3,42.7-.2,64,0Z"/>
    <polygon class="st3" points="340 896 342 895.4 341 865 340 896"/>
    <path class="st3" d="M334,896h-1c.3,0,.7,0,1,0Z"/>
    <path class="st3" d="M427,800h-1c-.8-1.9-1.8-2-2,0h-1c-4.7-2.9-12.4-3-17,0-.5-.9-.8-.9-1,0h-31l1.5-1.6c.2-2.8.2-27.6-1.1-28.2-.4-.2-.9-.2-1.3-.3.3-10.9-.4-21.6-2-32-9.3-.8-19.9-.8-29,0-.8,20.3-.9,42,0,62h0s29,.5,29,.5l1,6.5-1.6,2.2c.9,6.4,1.3,13.1.2,19.6l1.4,2.2v1c-10.2.6-20.2,1.2-30,2v30c10.3,0,20.4,1,31,1,10.7,0,21.3,0,32,0v-64l30-1c-1.1-2.9-7.2-3.1-8,0Z"/>
    <polygon class="st3" points="660 895 661 864 660 864 660 895"/>
    <path class="st3" d="M470,863v1c20.7-.2,41.4.1,62,0l-62-1Z"/>
    <polygon class="st3" points="436 928 436 898 435 898 436 928"/>
    <path class="st3" d="M566.9,225.5h27.7c.4,2.2,1.1,1.8,1.5-.5v-10c0-1.7,0-3.3,0-5v-7c-.1-2.3.9-10-1-11h-31c-.8,11-.9,22,0,33,.5,2.3,1.5,2.5,2.9.5Z"/>
    <path class="st3" d="M596,480c5.8,2.5,32.5,3.5,33.5,0-.8-10.3-1.3-20.6-1.5-31,.9-.4.9-.7,0-1l-29.6-.5c-.4-2.2-1.1-1.8-1.4.5-.2,10.6-1.9,21.3-1,32Z"/>
    <path class="st3" d="M181,480c-.1-10.7,0-21.4,0-32l-2,1c-9.8-.2-19.5,0-29.2.8-.3,9.6-.5,19.3-.8,29.2-.2.5.1,1.4,0,2,10,0,20,0,30,0,.8,2.5,1.7,2.7,2,0,.9-.5.9-.8,0-1Z"/>
    <path class="st3" d="M404,257c1.9-1.9.9-25.3,1-30-.3-1.2-1-1.8-2-1-9.7-.6-19.4-.8-29.4-.5-.4,10.8-.3,21.2.4,31.5h30Z"/>
    <path class="st3" d="M308,257v-1c.4-10.2.4-20.2,0-30-10-.7-20.2-.8-30.5-.4-.9,1.3-1,28.4.5,31.4h30Z"/>
    <path class="st3" d="M179,416h2v-63l-2,62c-.9.4-.9.7,0,1Z"/>
    <path class="st3" d="M307,481h-24.8c8.5.4,17,.7,24.8,0Z"/>
    <path class="st3" d="M249,481h33.2c-11.5-.5-23.1-1.3-33.2,0Z"/>
    <polygon class="st3" points="470 543 469 481 469 544 500 544 470 543"/>
    <path class="st3" d="M182,418h29c.7-.4.7-.7,0-1-9.5-.9-19.4-1.1-29-1-.7.5-.8,1.7,0,2Z"/>
    <path class="st3" d="M499,576h-11c3.8.2,7.6.4,11,0Z"/>
    <path class="st3" d="M473,576h15c-5.2-.3-10.5-.7-15,0Z"/>
    <path class="st3" d="M469,607v1h1v-32c-1.8.8-.8,3.5-1,5-.9,8.1.7,17.7,0,26Z"/>
    <path class="st3" d="M148,446v2c1.6-.3,1.7-1.7,0-2Z"/>
    <polygon class="st3" points="564 481 565 480 564 480 564 481"/>
    <path class="st3" d="M468,672h-1c.4.9.7.9,1,0Z"/>
    <path class="st3" d="M437,705c0,.3,0,.7,0,1-.7,9.4.2,19.5,0,29,3-5.3-.2-22.3,1-29h31v-34,31.9c0,0-32,1.1-32,1.1Z"/>
    <path class="st3" d="M726,251.5c.3-8.5-.2-17.1,0-25.6,5.1-1.3,24.8,2.2,28-1h-14c-1.4-3-13.2-3.3-14,0-.3,9.1-1.8,20-2,30,3,.6,1.9-1.5,2-3.5Z"/>
    <polygon class="st3" points="309 512 339 512 310 511 308 482 309 512"/>
    <path class="st3" d="M564,256c-.5-6.7.7-14.4,0-21,0-3.1-.4-6.1-1-9-9.3-.8-19.9-.8-29,0l-1,.6v29.4s31,1,31,1v-1Z"/>
  </g>
  <g>
    <path class="st5" d="M149,224c0-42.4.5-84.6,1.2-126.5h92.6c.4,2.2,1.1,1.8,1.2-.5l-.6-2c-31.4.7-63-.9-94.4,0h0c-.3,0-1.2,1-2,1v128c.5,0,1.5,1,2,1,.8-.5.9-.8,0-1Z"/>
    <path class="st5" d="M243,609h1c.4.4.8.5,1,0,31.3.2,62.7-.1,94,0l1,22c1.7-6.7,2.4-15.5,0-22,.9-.4.9-.7,0-1-21-.8-42-.7-63,0-.4-.4-.8-.5-1,0-.5-.8-.8-.9-1,0-1.2-.4-2.5-.4-4,0-1.1-2.5-1.9-2.5-3,0h-8c-.9-1.8-1.7-1.9-2,0l-12.4-.6-.5-29.1-1-.3c-11.3-3.4-23.6-3.8-35-1h0c-8-3.2-17.9-3-26,0l60,1v31Z"/>
    <path class="st5" d="M758,257v-31l28-1-1.4-2c-4.3-.8-21.2-1.4-25.6-.9-.6,0-.9,1.2-1,1.9-.4-.8-.7-.9-1,0-1.7,0-2.8,1.5-1,2-.9,10-.9,20,0,30l-1.7-1.4c-2.7-.2-26.7,0-28.1.5-.4.1-2.3,1.4-2.2,2-3.3,9.9-3,22,0,32-3.1,10.1-2.9,21.8,0,32h2l29.4.5.6,50.5v11l2.1-1.5c-.7-19.4.6-38.8,0-58.2,0-2.9-2.1-3.2-2.1-3.4,0-.3,0-.7,0-1l-30-1.5v-59.5l32-1Z"/>
    <path class="st5" d="M275.5,130.4l.5,29.6c-.9.4-.9.7,0,1h64c.4.9.7.9,1,0-.4-10.1-.4-20.3,0-30.4l-1-1.6v-1h-1v31h-61v-31l-2,1h0c-1.5.3-1.8.8-.5,1.4Z"/>
    <path class="st5" d="M628.7,129c10.3.2,21.5-.1,31.3-1,1.1-1.2,1.4-3.1,1-5.7.2-7.2.3-15.3,0-22.5,0-.1-.4-.2-1-.3.4-.3.7-.5,1-.7.6.5,1.1.2,1.7-1.3h92.1c.4,2.2,1,1.8,1.2-.5-.4,10.3-.4,20.6,0,31,.8,2.5,1.7,2.7,2,0,7.3,3.1,16.6,2.9,24,0l-24-1c-.5-9.4.7-19.1,0-28.5-.1-1.8-2-2.3-2.1-2.5,0-.3,0-.7,0-1h0s-94.2,2.4-94.2,2.4c-.2-.2-.8-.4-1.8-.4,0,.2.1.3.2.5h-1.2v29.5l-31,1c.2.5.4,1,.7,1Z"/>
    <path class="st5" d="M181,576c.3-11.3.3-22.3-.2-33.2-3.6-2-20.8-1.3-24.8,1.2l23,1v32c.7,0,1.3,0,2,0,.9-.5.9-.8,0-1Z"/>
    <path class="st5" d="M788,865l64,1v-1c-21.3.2-42.7-.2-64,0Z"/>
    <path class="st5" d="M757,768h-1c-.8.3-1.6.7-2,1.5-.7,1.3-.2,26.2,0,29.7,0,.6,1.2.8,2,.9l2-.6-1-31.4h0Z"/>
    <path class="st5" d="M853,833v31l1-30h30v-1h0c-10.3.1-20.7-.1-31,0Z"/>
    <path class="st5" d="M793,768h26c4.2,0,4.4-8.9,1-10l-1,9h-31v1c.5,2.8,4.9,3,5,0Z"/>
    <path class="st5" d="M115,481l-1,31h1c1.2-.2,1.7-.6,1-1.5v-28.1c1.7-.5.9-1.2-1-1.4Z"/>
    <path class="st5" d="M596,768c-10.3-.4-20.6-.4-31,0-.4-.9-.7-.9-1,0v64c-.9.5-.9.8,0,1,0,31.6,0,63.4,0,95l2-158h29l1,17c0-6.3,0-12.7,0-19Z"/>
    <path class="st5" d="M404,895l1,33c.6-9.7.7-19.6.5-29.6l1.5-.5c8.9-.2,18.6-.5,29-.9v-32c-10.4-2.5-20.6-2.5-31,0-10.7-2.5-21.3-2.5-32,0l-1,63,2-62h61v29h-31Z"/>
    <path class="st5" d="M372,831l-1.2-2h-58.7c.7-4.8.4-20.2,0-26,3.3,1,9.5-.4,9.9-3-3.3-2.9-10.8-3.2-14,0,2.5-8.6,2.7-19,2-28.1-.4-5.3-3.1-8.3-4.5-3.9l-1.5-2c-4.6-.7-19.8-.6-25.9-.1.4-3.8.1-21.5,0-26.8,5.1.2,28.1.7,29.4,0,2.9-1.7,4.1-4.4.6-5,1.8-8.2,1.5-16.7,1-25,2.5-1.8,2.2-5-1-5l-30-.6c-1.2-9.7-1.9-20.2-2-31.4h0c0-10.3,0-20.7,0-31v64.4c-.1,0,29.8.7,29.8.7l1.2,27.3-32,1.6v32.5l1,2.5h31v29h-29.4c-1.2.2-.4,1.4-.6,2,10.1.9,21.3,1.2,31-1-.4,10.6-.4,21.3,0,32,.4.4,1.1.4,2,0,10.2,1.1,20.6,1.4,31,1,10.2.7,20.8.3,31-1,.9-.4.9-.7,0-1Z"/>
    <path class="st5" d="M628,929l-32-.5c0,.2,0,.3,0,.5h32Z"/>
    <path class="st5" d="M596,863l.8-29.5,31.2-.5v-32h0c-8.5-.2-17.3-1.9-26-1,8.5,1.4,16.5,1,25,1v30h-31l-1,2.5v95h1c.2-21.5-.3-43,0-64.5v-1Z"/>
    <path class="st5" d="M755.5,834.2l.5,48.8c0,4.3,0,8.7,0,13l2-62.4-2-.6c-1.5.3-1.8.8-.5,1.2Z"/>
    <path class="st5" d="M213,896l-.5-14.8c-.5,4.9-.9,9.8.5,14.8Z"/>
    <path class="st5" d="M210.9,837.4l1.6,43.8c.2-2.4.5-4.8.5-7.2v-2c.4-12,.4-24,0-36,0,.1-2.3-.4-2.1,1.4Z"/>
    <path class="st5" d="M276,802c.4-.4.4-.7,0-1l-1,62h-29c-.4-2.8,1.4-6.8-2-6v7c10.7,0,21.4-.1,32,0,.9-.4.9-.7,0-1,.6-.2,1-.5,1-.7.5-19.3.8-40.8,0-60,0-.1-.4-.2-1-.3Z"/>
    <polygon class="st5" points="265 929 267 929 267 897 275 897 276 928 276 896 265 896 265 929"/>
    <polygon class="st5" points="630 928 630 897 641 897 643 928 643 898 643 897 643 896 629 896 630 928"/>
    <polygon class="st5" points="724 928 726 898 756 897 725.2 897.2 724 928"/>
    <path class="st5" d="M405,929h1c-.4-.9-.7-.9-1,0Z"/>
    <path class="st5" d="M406.9,927c-.6,0-.8,1.2-.9,2h30l-1.4-2c-4.7-.8-22.6-.6-27.7,0Z"/>
    <polygon class="st5" points="485 928 486 897 499 897 499 929 500 896 485 896 485 928"/>
    <path class="st5" d="M692,801l-.5,29.6c-.1,0-.2.1-.3.2,0,0-.2.1-.3.2-.2.2-.3.3-.3.5,0,0,0,0,0,.1l-30.5,1.5v31c.4.9.7.9,1,0h2l-2-30,31-2,2-31,5-1c-2.2.2-5.2-.9-7,1Z"/>
    <path class="st5" d="M282,640l31.6-.5c-11.1-.3-22.2-.4-31.6.5Z"/>
    <path class="st5" d="M340,640c.8-2.2,1-5.9,0-8l-1,7-25.4.4c9.1.2,18.3.6,26.4.5Z"/>
    <path class="st5" d="M244,897c-.4-.9-.7-.9-1,0h-29l29,1,1,30c0-10.3.1-20.7,0-31Z"/>
    <path class="st5" d="M708,800h10.4c-3.5,0-7-.1-10.4,0Z"/>
    <path class="st5" d="M724,800h18.5c-6.2,0-12.3-.1-18.5,0Z"/>
    <path class="st5" d="M755,800h-12.5c4.2,0,8.4,0,12.5,0Z"/>
    <path class="st5" d="M724,800h-5.6c1.9,0,3.7,0,5.6,0Z"/>
    <path class="st5" d="M724,834l-1,29-10,1c3.6-.2,7.4.1,11,0v-30Z"/>
    <path class="st5" d="M668,864h7.6c-2.5,0-5.1,0-7.6,0Z"/>
    <path class="st5" d="M692,864h-16.4c5.5,0,10.9,0,16.4,0Z"/>
    <path class="st5" d="M788,808c0,3,0,6,0,9v-9Z"/>
    <path class="st5" d="M704,864h-9c3,0,6,0,9,0Z"/>
    <path class="st5" d="M706,864h1.7c-.6,0-1.2,0-1.7,0Z"/>
    <path class="st5" d="M711,864h-3.3c1.1,0,2.2,0,3.3,0Z"/>
    <path class="st5" d="M596,799v-2c0,0-1.9,1.5,0,2Z"/>
    <path class="st5" d="M596,790v.3c0,0,0-.2,0-.3Z"/>
    <path class="st5" d="M596,790.3c0,.4,0,.8,0,1.7v-1.7Z"/>
    <path class="st5" d="M278,640h.8c-.3,0-.5,0-.8,0Z"/>
    <path class="st5" d="M280,640h-1.2c.4,0,.8,0,1.2,0Z"/>
    <path class="st5" d="M820,746l1.1-8h-1.1c-.2,2.6.3,5.4,0,8Z"/>
    <path class="st5" d="M853,673l30,1v29h-30.5l-1.5,1.5v30.5h-29.5l-.4,3,31.9-1c.6-10,.8-20.2.5-30.5,1.4-.2,1.7-.6,1.2-.9l30.3-.5c-.9-10.6-.2-21.3,0-32h-32Z"/>
    <path class="st5" d="M886,672l-1-96v33c0,21,.3,42,0,63h1Z"/>
    <path class="st5" d="M820,609v18c0-6,0-12,0-18Z"/>
    <path class="st5" d="M820,639v-12c0,4,0,8,0,12Z"/>
    <path class="st5" d="M820,609v-37c0,12.4-.2,24.7,0,37Z"/>
    <path class="st5" d="M820,545v27c0-9,0-18,0-27Z"/>
    <polygon class="st5" points="851 642 853 672 852 641 851.4 640 820 639 820 642 851 642"/>
    <path class="st5" d="M853,576h31l-30-1c-1.1-8.1,2.4-21.3-2-27-.5,8.9-.5,18.6,0,27.7,0,.1.4.2,1,.3Z"/>
    <path class="st5" d="M596,616v-6c.9-.4.9-.7,0-1h0c-20.9-.2-42-1.9-63-1v31c-.9.4-.9.7,0,1h63c0-6.7,0-13.3,0-20l-2.1,1.3c-.3,1.1-.9,12.1-.9,15.7h-56.9c.3-3.5.2-20.9,0-26h56.7c.4,3,1.5,4.6,3.2,5Z"/>
    <path class="st5" d="M693,566c.6-7,1.6-13.9,1-21l29-1h-31v-32h-29l28,2v29h-30l-1-30v31l.7,1,29.3-1,2.8,1.6.2,20.4Z"/>
    <polygon class="st5" points="597 577 597 608 598 578 691 578 597 577"/>
    <path class="st5" d="M723,479c-6.5.2-13.1-.3-19.6,0-1.9,0-4-1-3.5,2,7.6.4,15.3.6,23,.1l1-1.1h0c0-10.3-.1-20.7,0-31l-1,30Z"/>
    <path class="st5" d="M693,480l1-32h-2c.1,10.6,0,21.4,0,32h1Z"/>
    <path class="st5" d="M423.2,128.4l42.8,1.1c.6,1.6,1.2,1.8,2,1v27.7c-.5-.5-.9-.2-1.1,1.2l-30,.5c-.6,10.6-.9,21.2-.9,32l1,1h32l1-30.8,2.6-1,59.4-.2,1-33h-2v31h-61v-31h-64c5.4.7,11.2.8,17.2.4Z"/>
    <path class="st5" d="M370.7,129.7c.8,10,1.2,20.2,1.2,30.6l30.1.8,3-1c1.9-4.2-1.4-25.7,0-32h0s-2,0-2,0v31h-29l-2-30-1.3.7Z"/>
    <path class="st5" d="M372,128c-8.6-1.6-18.8-1.3-27.5-1-1.9,0-4-1-3.5,2l31-1Z"/>
    <path class="st5" d="M565.7,161h60.3c1,0,1.7-.4,2-1v-31l-1,30h-61l-2-30,1,31,.7,1Z"/>
    <path class="st5" d="M788,164v51c2.8-16.9.2-34.1,0-51Z"/>
    <path class="st5" d="M884,737.6l-.5,29.3c-10,.8-20.2,1.1-30.4,1.1v1l-1,.7c.5,10.4.2,20.5-1,30.3l-31,1c0,10.6.3,20.9,1,31,.3.4.7.4,1,0h28c-4.6-3.1-14-3.4-19.9-3.2-2.4-.5-4.4-.3-6,.6.5-4.9.7-20.6.1-26.3h24.8v28.1l2,.9h2c-1.2-2.5-.1-4.3,0-6,.5-8.4.5-16.7,0-25,.4-10.3,1.8-20.6,1-31h31l1-2.5v-29.5l29-1h0s-30,0-30,0l-1,.6Z"/>
    <path class="st5" d="M916,675v30c0-10,0-20,0-30Z"/>
    <path class="st5" d="M692,768c0-10-.1-20,0-30,.8-.5.9-.8,0-1-11,0-22,0-33,0-20.6,0-41.4-.9-62,1l-1,28.6c-1.8.5-.9,1.2,1,1.4,21-.2,42-.1,63,0,10.4,1.7,21.6,1.6,32,0Z"/>
    <path class="st5" d="M597,705h35l-34-2v-29l30-1h-31c.4,10.6-.3,21.4,0,32Z"/>
    <path class="st5" d="M660,659v-18h-31l-1,30,2-29h29c-.8,5.7.7,11.5,1,17Z"/>
    <path class="st5" d="M660,705h0c0-14.4.7-29.8,0-44l-1,42c-7.2.2-14.4-.3-21.6,0-1.9,0-4-1-3.5,2h26Z"/>
    <path class="st5" d="M115,385l33-1,1-.7.5-60.8,1-1,29.6-.5h1l.5-30.5c1.5-.2,2-.5,1-1l29.6-.5,1-1v-30.1s-1-.9-1-.9h0s-31,0-31,0l30,1v29h-29.5l-2.5,1v31h-29.5l-2.5,1v63c-9.4-.9-20.8,1.2-30,0-.6.2-1.5,1-2,1,0,7.7-2.9,61.8,0,64v-63Z"/>
    <path class="st5" d="M155.5,225.3c-1.8-.1-3.6-.2-5.5-.3,1.8.2,3.6.3,5.5.3Z"/>
    <path class="st5" d="M179,224c-7.7,0-15.7,1.4-23.5,1.3,7.8.5,15.7,1.4,23.6.7l2,30c.4-10.7.4-21.4,0-32-.6-1.9-1.4-1.9-2,0Z"/>
    <path class="st5" d="M213.5,158.9l-.5-29.9h-32c-1.6,31.5-1.8,63.5,0,95,10.1,1.4,20.4,1.7,31,1h1v-29.9c.8,0,1.1-.7,1.1-1.6l29.9-.5,1-1v-30.7s-1-.3-1-.3l-29.3-1c.5-.5.2-.9-1.2-1.2ZM241,164c-.5,7.1-.5,17.6,0,24.9-5.3-.8-24-.3-29,.1-.6,0-.8,1.2-.9,2l-2,1.5c-.7,2.5-.4,22.3,0,28.5-5-.6-19.3-.5-24.9,0v-88.8c3.4.4,20.1.2,25,0-.2,3.7,1.5,25.2,1.9,28.2,0,.5,1.3.7,2,.8,0,0,0,0,0,0,0,0,0,0,0,0,.3.8.6,1.7,1.4,2,1.2.5,21.1,1,26.6.9Z"/>
    <polygon class="st5" points="213 129 213 129 213 129 213 129"/>
    <path class="st5" d="M119.1,448.2l-3.1-.2c.3,0,1.4.1,3.1.2Z"/>
    <path class="st5" d="M149,479c.3-9.7.5-19.3.7-28.7,9.6-1.3,19.3-1.8,29.3-1.3,1.2,1.7,1.6.7,2-1,.9-10,1-20,0-30v-1c.6-.5.7-.8,0-1-.6-1.9-1.4-1.9-2,0-9.9-.5-20.3-1-30,1,1,9.7-1.1,19.5-1,29,.7.9.7,1.1,0,2-1.8.4-21.1.4-28.9.2l27.9,1.8v29l-29,1c10.2,1.8,20.7,1,31,1,1.9-.6,1.9-1.5,0-2Z"/>
    <path class="st5" d="M724,741h0l1.2,26.8c9.9.4,19.9,0,29.8.2l-29-1c-.2-7.5.3-15.1,0-22.6,0-1.9,1-4-2-3.5Z"/>
    <path class="st5" d="M149,512h-2l2,31c.8-9.7.9-20.1,0-30v-1Z"/>
    <path class="st5" d="M820,751.3v-3.3c-.1,1.6,0,2.5,0,3.3Z"/>
    <path class="st5" d="M820,751.3v.7c0-.2,0-.5,0-.7Z"/>
    <path class="st5" d="M151,544h-1c0,1.1,1,1.4,1,0Z"/>
    <path class="st5" d="M465.7,800.5c1.2,1.6,3.2,1.7,3.3-.5.4-20.9.4-41.9,0-63h0s-32,0-32,0v127c10.7,0,21.4,0,32,0,.6-9.7.8-19.6.5-29.6,2.2-.4,1.8-1.1-.5-1.4.8-2.4-.9-3.3-2.9-2-1.5,1-1.4,23.5-1.2,29.9-4.9-.6-19.3-.5-24.9,0v-120.8c5,.5,19.5.6,25,0-.3,10.1-1.1,58,.7,60.4Z"/>
    <path class="st5" d="M502,257h2l27.2.5,1.8,30.5v1h63v-1c.8-1.3.5-2.7,0-4,0-1,0-2,0-3v-9c0-1.3,0-2.7,0-4v-16c0-.7,0-1.3,0-2,.3-.7.5-1.3,0-2,0,12.8-2.2,26.1-1,39h-61v-29l30-1c-.2-.4-.3-.9-.6-1.3.2.1.4.2.6.4l2-30h29c-1,5.5.9,12,1,17,0-1,0-2,0-3v-15h-32c-.1-11,0-22,0-33h0s-62,0-62,0v65ZM503,195.5s0,0,.1,0c0,0,0,0,0,.1h-.1ZM561,196.1c-.5,7.2-.5,17.6,0,24.9-5.1-.2-27.9-.8-29,0-3.2,2.1-3.8,4.6,0,4,.9,2.2,1.6,2.8,2.1.5h28.4c.2,1.4.6,1.7.9,1.3l.5,8.2c-2.2,1.6-2.8,17.5-2.1,18.9.2.4.4.7.7,1-1.5-.5-25.4-1.1-28.6-.9-.6,0-.9,1.2-1,2,.8-10.2.5-20.2-1-30l-2,1.4c-.8,4.2-1.3,19.6-1,25.5-4.4-.6-18.6-.4-23.9,0v-56.5l-.8-.4c17.1,1,39.6.9,56.7,0Z"/>
    <path class="st5" d="M596,248s0,0,0,0c0-.3,0-.7,0-1v1Z"/>
    <path class="st5" d="M275.8,352.2c-21.2-.4-42.5-.2-63.8-.2-.7,21.6-.9,43.4,0,65-.4,10.3-.4,20.6,0,31v1h64c.1-1.6-.2-3.4,0-5,1.9-17.7-.4-40.5,0-59,.2-10.7,5.3-22.7-.2-32.8Z"/>
    <path class="st5" d="M628,482c10,.1,20-.2,30-1,.4-.9,1.2-.9,2-1,.2-21-.3-42,0-63v-1h-1s-60,0-60,0l-2.1,2.5c-.3,9.8.3,19.7,0,29.5h31l-1.4-2c-3.2-.9-20.6-1.1-26.6-1,.5-5.1.6-19.4,0-25h56.9v56.9c-4.9-.6-19.5-.5-25.1,0,.1-5.8-.8-22.6-1.9-27.1-.1-.6-1.3-.7-2-.8v31c-10.7,0-21.4-.1-32,0-10.3.1-20.7,0-31,0-.7,0-.9.4-1,1v31l3,1c20.4.6,40.7-.3,61-1,.2-10-.1-20,0-30Z"/>
    <path class="st5" d="M533,352l-65,1c-.8,10.1-.5,20.1,1,30,.3,22-.2,44,0,66h64v-97Z"/>
    <path class="st5" d="M401,224.1c0,.5,1.2.8,2,.9h1c.4.9.7.9,1,0v-33h-1s-64,0-64,0v65h33c.6-10,.8-20.2.5-30.5,2.2-.4,1.8-1.1-.5-1.5-.4-2.2-1.8-2.6-3.3-.9-1,1.1-1,22.8-.8,28.9-7.2-.5-17.6-.5-24.9,0v-56.9h56.9c-.4,3.9-.1,25.1,0,28.1Z"/>
    <path class="st5" d="M628,385h32c10.6,0,21.5.8,32-1,0-10.3,0-20.7,0-31,.9-.5.9-.8,0-1,0-10.3,0-20.7,0-31l-.7-1h-62.4c0,0-.9,1-.9,1v64Z"/>
    <path class="st5" d="M304.9,196.1c-.6,6.1-.7,23,0,28,0,.6,1.2.8,2,.9.4.6.7.7,1,0,.9-11,1.3-22,0-33h-1s-31,0-31,0l-1,32-31,1c-.4,10.9,0,21.6.9,32,10.3.6,21.2.6,31.1-1,1.6-9.9,1.3-20.8,1-31,3.2-4.2,4.6-25.9,2.4-29.3,0,0,0,0-.1-.1,3.6.7,20.4.7,25.6.5Z"/>
    <path class="st5" d="M411,288s0,0,0,0c0,0,0,0,0,0h0Z"/>
    <path class="st5" d="M437,288.3l-1-.3h-3l-1.9,1.6c-.4,5.1.7,20.6,1.6,27.2-3.9-.4-19.8-.1-24.7.1v-25.8c2-.4,3.5-.7,3-3.1-2.5-.3-4.8,0-7,.5v30c-.1-1.2-.8-.9-1.3.9l-30.5.5-.3,1c.9,9.5-1,19.5,0,29,0,3.8,2.8,3.9,2,1l2-1.5c.6-4.4.6-19.4.1-25.4,3.8.5,19.6.2,24.8,0-.6,4.7-.4,19.6,0,25.1-2.6,0-14.9,1.5-16.3,1.8-.6.1-.7,1.3-.7,2.1,7,.2,14,.2,21,0v-1l.5-29.6,1-1,29.5-1.5,1-31.7Z"/>
    <polygon class="st5" points="308 448 308 449 308 479 308.6 481 341 481 341 544 342 479 310.9 478.6 310.1 451.6 364 448 308 448"/>
    <polygon class="st5" points="308 288 308 289 308 320 308 321 340 321 341 321 341 288 339 288 308 288"/>
    <path class="st5" d="M532,480l-31,1v32h31c.6-.4.7-.7,0-1,.7-10.2,1.1-20.5,1-31,0-.7-.4-.9-1-1Z"/>
    <polygon class="st5" points="692 129 692 129 692 129 692 129"/>
    <path class="st5" d="M724,161c-.1-10.7,0-21.4,0-32h-32c-.3,9.4-.3,18.7,0,28l2.1-1.3c.8-2.6,1.8-18.4,1.8-23.6,3.3.4,20.4.2,25.2,0-.5,1.2-.5,2.9-.2,4.9-1.1,27-.7,56.8,0,83.9-4.1-.5-23.9-.2-27.1.1-.5,0-.8,1.2-.9,2,.2.6.4,1,.6,1,10.1.6,20.3.5,30.4,0-.2-21,.3-42,0-63Z"/>
    <path class="st5" d="M565,352l-1,1c-.9,10.3-.9,20.7,0,31v1h31l1-1c.7-2.3.9-4.8,0-7,0-.7,0-1.3,0-2v-22l-31-1Z"/>
    <path class="st5" d="M212,513l1-1v-32h-21c5.2-.1,13.2,2.1,19,1v30h-29v-30c2.2,1,4.8-.9,6-1h-7v1c-1.5,10.1-1.8,20.9,0,31v1h31Z"/>
    <path class="st5" d="M466.1,224.2c0-.1-.2-.2-.3-.2-3.5-.1-27.4-.8-28.5,0-.2.1-.3.5-.3,1l-.9.7.9,30.3,31,1,1-1v-32c-.9-.8-2.7-.5-2.9.2Z"/>
    <path class="st5" d="M629,257l-1,2v29l1,1h31v-32h-1c-10,0-20,0-30,0Z"/>
    <path class="st5" d="M469,288l-1,.7,1,31.3v1h32v-33h-7c-.2,2.3,1,2.8,3,3.1v25.8c-3.3-.5-19.9-.2-25,0,.2-5.1.4-27.8-.7-28.6-.3-.2-.8-.3-1.3-.3h0s-1,0-1,0Z"/>
    <path class="st5" d="M244,288v33l32.6-.6c.4-10.6.7-21.5.4-32.1,0-.1-.4-.2-1-.3h-1c-.4.2-.8.4-1,.7-1.4,2-1.4,21.9-1.1,28.2-3.4-.5-19.4-.1-24.7,0,1.1-5.9,1.9-22.6,1.7-27.9,0-.6-1.2-.9-1.9-1h0s-4,0-4,0Z"/>
    <path class="st5" d="M692,161c0-.7-.4-.9-1-1h0l-31,1c0,10.3.1,20.7,0,31l2-1.4.9-26.5,28.2-1.1.8-2Z"/>
    <rect class="st5" x="501" y="673" width="63" height="64"/>
    <path class="st5" d="M501,769l-.5,29.6-1.5,1.4-1.4,1.9c-.6,9.1-.9,18.2-.8,27.3l-26,1.8-.8,2.1c9.9-.7,20.1.8,30-1l1.1-30.9h30.9c0-.1,1-.1,1-.1l.3-32.8-31.3-.2-1,1Z"/>
    <path class="st5" d="M482,800h-10c-.6,0-1.3,0-2,0,1.9,3.1,14.4,3.3,16,0h-2c-.7,0-1.3,0-2,0Z"/>
    <path class="st5" d="M372,807l-.7-7c-9.8,0-19.6,0-29.3,0h-1c-1.3,0-2.7,0-4,0l34,1c-.8,2.5.5,4.2,1,6Z"/>
    <path class="st5" d="M334,800h-2.2c.7,0,1.5,0,2.2,0Z"/>
    <path class="st5" d="M328,800h3.8c-1.3,0-2.5,0-3.8,0Z"/>
    <polygon class="st5" points="372 482 372 544 372.5 544 372 482 372 482"/>
    <path class="st5" d="M415,544h21v-32h-22v32h-41.5v1h41.5v29l-2.5,1h-109.5v-30l38-1c-.4-1.5-.8-1.8-1.2-.5h-36.7c-.4-2.2-1-1.8-1.2.5v2c0,9.9.8,20.2-1,30h115v-32Z"/>
    <path class="st5" d="M660,225c1.6,0,3.3,0,5,0l-4-2-1-30c0,2,0,4,0,6,0,8,0,16,0,24v2Z"/>
    <path class="st5" d="M669,225c1.3,0,2.7,0,4,0,.9-3.2-5.1-3-4,0Z"/>
    <path class="st5" d="M380,353l2-2c-2.3,0-4.7,0-7,0,.9,2.6,3,1.9,5,2Z"/>
    <path class="st5" d="M269.5,290c1.9,0,4,1,3.5-2-5.8-.6-15.1-.4-21,0,1.7,3.6,13.7,2.1,17.5,2Z"/>
    <path class="st5" d="M423,288c-2.3,0-4.7-.2-7,0,1.9,1.3,8,3.8,7,0Z"/>
  </g>
  <g>
    <path class="st0" d="M788,865c3-10.2,3.2-21.9,0-32,.8-1.6.7-3.4,0-5v-5c.6-1.9.6-4,0-6v-47c1.9-.6,1.9-1.4,0-2-10.3,0-20.7.1-31,0-.2,10.2-.3,20.2-.5,30l-.5,2c-.4-.9-.7-.9-1,0h-47c-1.2-3-8.2-3.2-9,0-2.7-.2-4.7.3-6,1.6l-1,30.4-31.5,1.7c-.8,1.3-.2,29.4,1.2,30.1.4.2.8.2,1.3.2,1.6,2,3.4,2,5,0h24c.9,1.9,2.1,1.9,3,0h9c.6,1.9,1.4,1.9,2,0h5c.9,1.8,1.7,1.9,2,0l10.5-.6.5-29.4,30.6-.5c.5,2.2,1.2,1.8,1.4-.5l1,2.4-1,60.6c-.9.4-.9.7,0,1l-30.4.7-1.6,30.3c-1.8-.9-2.3-.4-1,1h-80c.9-.4.9-.7,0-1l-1-31.1c-.5-.5-8.1-.6-11-.1,0-.3-.7-.6-2-.7-.4-.9-.7-.9-1,0l-.5,30.9c-.4,0-.7.2-.9.3,0,0,0-.1,0-.2-5.9-1-24.4-1-30.6-.5-.6,0-.8,1.2-.9,2,.9-31,.8-64.4,0-95,1.5-.6,2.3-1.1,2.5-1.5,9.5.3,19.8.3,29.2,0,.1,0,.2-.4.3-1,.8-9.6.8-20.6,0-30l-25-1c-.8-2.8-4.1-2.3-6-1-.5-.5-.5-1.2,0-2,2.7-.9,2.8-4,0-5v-2c1.9-.9,1.9-2.1,0-3,0-5.9-.2-11.5-1-17-.2-.5-.4-1-.7-1-4-.2-26-.7-28,0-.2,0-.3.5-.3,1l-1,.7-1,157.3c-.9.4-.9.7,0,1h-29c-.8-2.5-1.7-2.7-2,0h-32c2.2-.9,2.8-1.7.5-2.1l-.5-30.9c-.4-.9-.7-.9-1,0-1.2.2-1.6.5-1.1,1-4.3-.6-8.8-.8-13.4-.4l-.5,31.5c-.9.4-.9.7,0,1h-80c.6-.4.7-.7,0-1l-.5-30.9c1.1-.3,1.6-.7,1.5-1.1h28.6l.3-1c.8-9.3.8-19.9,0-29-19.8-.8-41.4-.9-61,0-1.1,20.5-1.8,41.2-2,62-.9.4-.9.7,0,1h-95c.9-1.8.4-2.3-1-1l-.6-31.5c-.3-.2-7.6-.2-8.4.5-.5.2-1,.4-1,.7-.5,8.6-.6,20.5-.1,29.5-.5-.3-.8.2-1,1.9h-20.9c.9-.4.9-.7,0-1l-.6-30.5-29.4-.5c.9-1.8.4-2.3-1-1l-1-58.5c.7.7,1,.5,1-1.5.3-.7.6-1.5.8-2.5h28.8c1.2,7.6,1.7,15.5,1.5,23.5,1,1,1.3,2.8,1,5.5l1,.5c9.3.9,19.9.8,29,0,.8-20.5,1.1-41.2,1-62h1l1.3-.7c8.9,0,18.5-.5,28.7-1.3.8-9.3.9-19.9,0-29-.2-.6-.4-1-.7-1-9.5-.3-19.9-.3-29.4,0,0-.6-1.1-1.2-1.9-1.5.6-9.8.8-19.8.5-30,1-.3,1.5-.8,1.6-1.3,10.1-.4,20.2-.9,30.3-1.3.6-10,.3-20-.7-29.8l-29.3-.4c1-.3.5-.7-.9-1.1-.6-20.9-.7-41.7-.4-62.6,1.8,2,3.1,1.6,2-1h2c.8,2.5,1.6,2.7,2,0l57.5-.5.5-7.5c.9-.5.9-.9,0-1,.3-7.5,0-15-.7-22.5-31.4-.2-62.9-.2-94.3.5v191h-31.5l-.5,32h-32v97h32v32h543v-32h31v-32h66l-1-31c-21.2-.8-42.5-1.1-64-1ZM499.3,910.4c0-4.5-.1-8.9-.3-13.2.1.1.3.2.5.3l-.2,12.9ZM627.1,928.8c.3,0,.6.2.9.2-.4,0-.7,0-.9-.2ZM630,897.3c-.2,4.3-.2,8.6-.3,12.9l-.2-12.8c.2,0,.3,0,.5-.1Z"/>
    <path class="st0" d="M915,577h33v-65h-33v-32h-95v32h-32v161c1,.3,2.2-1,2.5-1h29.5v64h-32c-.1,10.3.2,20.7,0,31h0c10.2.6,20.4.8,30.9.5.9-3,1.3-6.2,1.1-9.5,3-1,2.8-5,0-6v-4c1.9-.6,1.9-1.4,0-2l1.1-8c1.7,0,2.4-.6,2.3-1.4,5,.5,24.3-.4,27.4-.6.1,0,.2-.5.3-1l1-.7v-28.9c.3-.4.4-.6.2-.8.5,0,.9-.3,1-.6,8.3.3,17.7.3,26,0,2.2.4,3.5,0,3.8-1,.5-.2.9-.4.9-.7.3-8.8.4-19.2,0-28,0-.1-.4-.2-1-.3-9.9-.7-19.9-1.1-30-1,.9-.4.9-.7,0-1-.2-10.3-.9-20.3-2-30-9.6-1-19.2-1.4-29.1-1.3.5-.9,0-1.9-1.9-2.3v-93.4c1.8.9,2.3.4,1-1h30c-.9.4-.9.7,0,1,.2,1.4.5,2.4,1,3,1.3,9,1.8,18.2,1.5,27.5l30.5.5c.4.9.7.9,1,0,0,32.3.3,64.3,1,96,.4.9.7.9,1,0h23c.4,1.9,2.6,2.6,3.9,1.9,0,.6.8,1.1,2.1,1.1v61c-1.8-.9-2.3-.4-1,1-9.9,0-19.6.3-29,1-.8,9.3-1.2,19.6-1.1,29.2,0,0,.5.2,1.1.3-1.1.3-2.1.7-2.4,1.2-9.2-.3-20.2,0-29.3.3-.1,0-.2.4-.3,1-.5,10.3-.8,20.6-1,31,.3,1.5.7,1.8,1.3.5l5.7-.5,2.4,1.5c6.8-.7,13.7-.8,20.5-.4l2-2.1,1,32c-.9.4-.9.7,0,1,9.7-.2,19.3.1,29,0v-33h33v-128c-10.7,0-21.3,0-32,0h0c-.4,0-.8.2-1,.4,0-.1,0-.3,0-.4v-95Z"/>
    <path class="st0" d="M340,129c.4.9.7.9,1,0l1.8-.7c7.6-1,19.8-.8,29.2-.3-.9.4-.9.7,0,1l1,29.8,1,.2c3.6.3,27,1.8,28.7.7.2-.1.3-.4.3-.7l1.2-.7-.4-27.5,1.2-2.9c.3.9.7.9,1,0h29.1c.8,3,7,3,7.8,0l25.6.5c0,.4.2.7.2.9.7,9.8,1.1,19.7,1.3,29.6,19.5,1.2,40.7,1.2,60.7,1,.1,0,.2-.4.3-1,.8-9.4,1.1-19.5,1-29.2.5.5.9,0,1.1-1.8h29.9c-.9,1.8-.4,2.3,1,1,.2,10.3.9,20.3,2,30,20.1.9,40.3,1.1,60.7.8l.3-.8c.7-9.9,1.1-19.9,1-30,.9-.4.9-.7,0-1,10.6,0,20.9-.3,31-1,.8-9.5.8-20.2,0-29.5.5,1.7.9,1.7,1.2,0l95.6-1.5.2-1v-31h-128v32h-32v32h-32v-32h-224c0,10.7,0,21.3,0,32-.6.5-.7.8,0,1Z"/>
    <path class="st0" d="M242.9,96c-1.5.4-1.1.8,1.1,1-1.5.3-1.8.8-.5,1.4l.2,29.9c10.7.5,21.3,1.2,31.9,2l.3-1.3,1,1.1v28.6l1,.3.7,1h60l.3-1c.9-9.5.7-21.3,0-31h-31v-32h-32v-32h-127v31c31.2,1.1,62.5,1.4,93.9,1Z"/>
    <path class="st0" d="M756,96c1.1,10.2,1.6,20.7,1.3,31.5l24.7.5c1.8,2.5,3.2,2.5,5,0-2.8,11.4-2.3,24.7,1,36,.8,17,.8,34,0,51-3,.4-4.2,8.1-2,10h-27.7l-.3,1-1,.7v28.6c-.5-.5-.9-.2-1.1,1.3-10.2.5-20.1,1-29.9,1.4-1.2,1.3-1.5,3.4-1,6.2-.4,17.5-.3,35.5,0,53,0,.1.4.2,1,.3.1.5.3,1,.6,1.4.9,1.2,25.5,1.2,29.1,1.1.1,0,.2-.4.3-1v-30h31v-32h33v-129c-11-.1-22,.1-33,0-.2-10.6.2-21.4,0-32h-31,0Z"/>
    <path class="st0" d="M694,448c-.6.2-1,.4-1,.6-.5,10.3-.5,21.5,0,31.4v1h7l1.8-.7c6.2,0,13.5-.3,21.6-.8l.6-30.5v-1c-10-.1-20,0-30,0Z"/>
    <polygon class="st0" points="756 320 756 320 756 320 756 320"/>
    <path class="st0" d="M787,320h-31l1,2.8c.2,19.8,0,39.3-.4,58.5l-.6,1.7-32,1c-.2,21.3.2,42.7,0,64,10.6.1,21.4.6,32,1v62l-32,1-1,32-29.9.5c.6,7.2.5,14.3,0,21.5-.3,3.7-.8,7.2-1,11h32v-33h32v-32h31v-192Z"/>
    <path class="st0" d="M180.9,288.6c.5-.3.9-.9.7-1.4.2.4.4.8.6.8,9.2.3,19.4.3,28.5,0,.1,0,.2-.4.3-1,.5-.2,1-.5,1-.7.2-9.3-.1-19.5-1-28.3-9.9-.7-19.9-1.1-30-1,.9-.4.9-.7,0-1l-1-30.2c-9.7-.4-19.7-.6-30-.8h0c-.5-.9-.8-.9-1,0-.3,21,.3,42,0,63h-34c-.1,31.3.2,62.7,0,94,.2,1.2.9,1.4,2,1l1,1c9.6,0,19.5-.1,29-1,.8-20.3,1.1-40.8,1-61.5.9-.3,1.1-.6.9-.9.5-.3.9-.9.8-1.4.2.4.4.8.6.8,9.2.3,19.4.3,28.5,0,.1,0,.2-.4.3-1l1-.7v-28.9c.9-.3,1.1-.6.9-.8Z"/>
    <path class="st0" d="M118,480c9.6.4,19.2.4,28.7,0l.3-1c.5-.2,1-.5,1-.7.2-9.3.1-19.9-1-28.3l-.6-1-30.4-1c-.4-.9-.7-.9-1,0-.8-20.9-.8-41.8,0-62.7,1.7-.5,1.7-.9,0-1.3h0c-9.8,1-21-.7-31,0v128c10,.1,20-.2,30,0,.7-10.2,1.1-20.5,1-31,.7,2,3.3.3,3-1Z"/>
    <path class="st0" d="M147,224l1-.7v-126.1c1.7-.5.9-1.1-1-1.2-10.6.4-21.4-.3-32,0v129c10.3,1.3,22-1.4,32-1Z"/>
    <path class="st0" d="M724,672c-.2-10.7,0-21.4,0-32h-32c.1,10.7,0,21.4,0,32,10.7.1,21.4-.2,32,0,.2,11-.1,22,0,33l-32,1c-.1,10.3.2,20.7,0,31,10.6.3,21.3.6,32,1-2.7.7-2.9,2.9,0,3,.4,1.5.7,2,1.1,1.3l.5,25,29.4.7c.5.8.8.9,1,0,0-32,0-64,0-96-10.7-.1-21.4.2-32,0Z"/>
    <path class="st0" d="M692,578h-1l-93-.5c-.7,9.9-1,20.1-1,30.5v1c20.6.8,41.3,1.1,61.9,1-1.3.4-1,.7,1.1,1v28h32c-.2-19.9-.8-41.2,0-61Z"/>
    <path class="st0" d="M181,609c20.7,0,41.4-.1,62,0,.7-.2,1.3-.4,1.3-.7,0-3.7,0-29-.9-30.2l-60.4-1.1h0c-.6-1.9-1.4-1.9-2,0-.1,10.7.1,21.4,0,32Z"/>
    <path class="st0" d="M156,544c-.7-2.9-4.2-2.8-5,0-.4.6-.5.6-1,0-.2-1.1-.6-1.5-1-1l-1-30.8-1-.2c-.6-2.9-6.4-3-6,0-8.7-.4-17.3-.4-26,0,0,2.8-1.6,32,0,32h34v33c10,.1,20-.2,30,0l1-.7-.7-31.8-23.3-.6Z"/>
    <path class="st0" d="M884,834c-10-.6-20.2-.8-30.5-.4l-.5,30.4v1c10.7-.1,21.4,0,32,0l-1-31h0Z"/>
    <path class="st0" d="M691,543c.8-9.3.8-19.9,0-29l-.6-1-27.4-1-3,1c0,10.3.3,20.3,1,30,9.6.8,20.9.8,30,0Z"/>
    <path class="st0" d="M501,608h-31c-.4-.9-.7-.9-1,0h-1c-42.6-.8-85.3-.7-128,0v1h2c53,0,106.1.8,159-1Z"/>
    <polygon class="st0" points="533 639 499 640 533 640 533 639"/>
    <path class="st0" d="M662,480c-.7,0-1.3,0-2,0-1-1.3-3.9-.3-2,1h1c.3,0,.7,0,1,0,.8-.2,1.6-.1,2-1Z"/>
    <path class="st0" d="M660,485c0-.3,2.2-1.5,0-3v3Z"/>
    <path class="st0" d="M660,661c0-.7,0-1.3,0-2-.2-5.7-.5-11.4-1-17-9.3-.8-19.9-.8-29,0-1.1,9.5-1.8,19.2-2,29h0v2c-10.3,0-20.3.3-30,1-.6,9.3-1,20,0,29l.6,1,33.4,1h2c1.6-.4,2-.7,1.4-1.1l24.2-.2.5-42.7Z"/>
    <polygon class="st0" points="596 620 596 616 595 609 534 609 534 639 595 639 596 620"/>
    <path class="st0" d="M851,832v-31h-29v30c9.3-1,18.8.9,28,1h1Z"/>
    <path class="st0" d="M791,833c9.4,0,19.7.6,29,0h-29Z"/>
    <path class="st0" d="M821,832v1c.4,0,.8-.6,1-1h-1Z"/>
    <path class="st0" d="M660,770v24c.6-7.4,0-16.4,0-24Z"/>
    <path class="st0" d="M341,864h1s2-1.4,2-1.4c.8-4.3.5-22.8,0-27.7,0-.6-1.2-.8-2-.9-.5,0-1,.2-1.4.6-1.1,1-2.6,24-2.6,27.4,0,.5,1.2.9,1.9,1v1h1Z"/>
    <path class="st0" d="M244,865l-1,32h1c-.1-10.7.1-21.3,0-32Z"/>
    <path class="st0" d="M302,575c35.7.9,74.1.9,109.5,0,1.2.6,3.6.4,2.5-1,.8-9.3.8-19.9,0-29-13.4-.8-28.5-.8-41.5,0l2-1.2c.4-3.8.5-29.9-.2-31.3-.3-.5-1.1-.8-2-1l-.2-29.6,33-1,.5-30.5c2.2-.4,1.8-1.1-.5-1.5.9-.4.9-.7,0-1-.3,0-.7,0-1,0h0s-40,0-40,0c-18.1.5-36.2,1.2-54.2,2-1.5,1.5-.3,25.8.3,29.8l29.9.2c0,1,.4,1.5,1.6,1.6l-.5,62.4h-1c-13,0-25.6.2-38,1,.5-.7.2-1-1-1,.4-10.7.4-21.3,0-32h-24l-.5,32.1,24.5,1.9c.5-.4.8-.7,1-.9-.3,9.8-.6,19.6-.9,29.6l.9.3Z"/>
    <path class="st0" d="M534,258c-.7.2-1.2.4-1.2.7-.2,9.3.4,19.5,1.2,28.3l.7,1h60l.3-1c.5-13.3.8-26.6,1-40,0-1.3,0-2.7,0-4-.2-5.8-.5-11.4-1-17-9.3-.8-19.9-.8-29,0l-1,.6-1,29.4h0c-.9.4-.9.7,0,1h-29.7l-.3,1Z"/>
    <path class="st0" d="M211,481c-6.2-.5-12.6-.8-19-1h0c-1.3,0-2.7-.1-4,0l-6.4.5c-.4,10.4-.2,20.6.4,30.5.2.6.4,1,.7,1,3.5.1,26.8.6,28,0,.2-.1.3-.5.3-1,.5-.2,1-.4,1-.7.8-8,.4-20.8,0-29,0-.1-.4-.2-1-.3Z"/>
    <path class="st0" d="M756,223l1,1h1v-96h-2c0,1,0,2,0,3v30c.1,20.6,0,41.3,0,62Z"/>
    <path class="st0" d="M692,352v1l32-1h-32Z"/>
    <path class="st0" d="M405,227c0-.7,0-1.3,0-2h-1c-1.2.2-1.6.5-1,1,.4,0,1.3,1,2,1Z"/>
    <path class="st0" d="M402,161h2l1-1c0,.1-2.4-.1-3,1Z"/>
    <polygon class="st0" points="628 259 629 257 628 258 628 259"/>
    <polygon class="st0" points="628 161 628 160 626 161 628 161"/>
    <rect class="st0" x="532" y="512" width="1" height="1"/>
    <polygon class="st0" points="533 480 532 480 533 481 533 480"/>
    <path class="st0" d="M596,384c-.2.3-.8.6-1,1h1v-1Z"/>
    <path class="st0" d="M565,352c-.4.2-.8.6-1,1l1-1Z"/>
    <polygon class="st0" points="467 162 438 162 438 191 465.5 191 467 192 467 162"/>
    <rect class="st0" x="598" y="738" width="93" height="29"/>
    <rect class="st0" x="150" y="418" width="29" height="29"/>
    <path class="st0" d="M372,807c-.3-2.5-.8-4.7-1.5-6.5l-33.5-.5c-1,0-2,0-3,0h-6c-2,.1-4-.2-6,0-3.6.3-7.8,1.8-12,1v30h62c2-4.7,1.4-18.8,0-24Z"/>
    <path class="st0" d="M373,743l-1-6h-31v63h1v-62h29l2,32c0-.7,0-1.3,0-2,0-8.1.8-17,0-25Z"/>
    <path class="st0" d="M499,831c.4-10.3-.6-20.8,0-31h-30l-2-.6v-61.4s-29,0-29,0v125h29v-31l2,1c.3,0,.7,0,1,0l29-2Z"/>
    <polygon class="st0" points="598 447 628 448 628 449 630 479 659 479 659 418 598 418 598 447"/>
    <path class="st0" d="M692,161l-31,1-1,30v1l.5,30.4c1.1.9,2.6,1.5,4.5,1.6,1.3,0,2.7,0,4,0,1.4-1.2,2.8-1.2,4,0,6.3,0,12.7,0,19,0,4.4,0,31,.8,32-1l-31-1h30v-93h-29l-2,27c-.1,1,0,2,0,3v1Z"/>
    <path class="st0" d="M692,231c0-1.7.9-3.5,0-5v5Z"/>
    <path class="st0" d="M692,245v-13c0,4.3,0,8.7,0,13Z"/>
    <path class="st0" d="M503,195.5v59.5h28l1-29c.9-.3.9-.7,0-1l-1-2h32v-29h-61l1,1.5Z"/>
    <polygon class="st0" points="275 353 215 353 215 446 275 447 275 353"/>
    <rect class="st0" x="566" y="481" width="61" height="30"/>
    <path class="st0" d="M470,446h0l60.1.6c0-30.8,1.6-61.4,0-92.1l-60.1-1.4v93Z"/>
    <polygon class="st0" points="243 162 213 161 211 130 182 130 182 223 211 223 211 191 243 191 243 162"/>
    <polygon class="st0" points="342 255 371 255 371 225 373 225 403 225 403 194 342 194 342 255"/>
    <rect class="st0" x="630" y="322" width="61" height="61"/>
    <path class="st0" d="M307,225v-31h-29c.7,10.4-.5,20.7-1,31h30Z"/>
    <rect class="st0" x="246" y="226" width="29" height="29"/>
    <path class="st0" d="M433,288c-3-.3-6.8,0-10,0-1.2,1.1-3.6,1.1-7,0-1.6.1-3.6-.3-5,0-1.3.3-3,1.7-5,1v30h29l-2-31Z"/>
    <path class="st0" d="M374,351h1c1.9.5,3.6,1.2,5,2,1.3,0,2.7,0,4,0l19-2v-29h-29v29Z"/>
    <polygon class="st0" points="311 290 311 318 339 318 338 290 311 290"/>
    <rect class="st0" x="503" y="481" width="28" height="30"/>
    <rect class="st0" x="566" y="353" width="29" height="30"/>
    <rect class="st0" x="438" y="226" width="29" height="29"/>
    <rect class="st0" x="630" y="258" width="29" height="29"/>
    <path class="st0" d="M494,288c-7-1.1-16.6.8-24,0v31h29v-30c-2,.7-3.8-.8-5-1Z"/>
    <path class="st0" d="M275,319v-31c-.7,0-1.3,0-2,0-4.7,1.8-14.7,1.3-21,0-1.3,0-2.7-.2-4,0l-2,31h29Z"/>
    <polygon class="st0" points="563 674 503 675 503 733.5 563 734 563 674"/>
    <rect class="st0" x="503" y="770" width="28" height="29"/>
    <polygon class="st0" points="310 832 308 832 308 833 310 832"/>
    <polygon class="st0" points="416 516.5 417.5 543 435 543 434 514 417.5 514 416 516.5"/>
  </g>
</svg>