<?xml version="1.0" encoding="UTF-8"?>
<svg id="_레이어_1" xmlns="http://www.w3.org/2000/svg" version="1.1" viewBox="0 0 1024 1024">
  <!-- Generator: Adobe Illustrator 30.1.0, SVG Export Plug-In . SVG Version: 2.1.1 Build 136)  -->
  <defs>
    <style>
      .st0 {
        fill: #d7fff7;
      }

      .st1 {
        fill: #1a5c5c;
      }

      .st2 {
        fill: #4cdfd2;
      }

      .st3 {
        fill: #266464;
      }

      .st4 {
        fill: #c0fff3;
      }

      .st5 {
        fill: #29aba6;
      }

      .st6 {
        fill: #0e5353;
      }

      .st7 {
        fill: #246262;
      }

      .st8 {
        fill: #072628;
      }

      .st9 {
        fill: #85e9e0;
      }

      .st10 {
        fill: #87eae1;
      }

      .st11 {
        fill: #2dada8;
      }

      .st12 {
        fill: #c1fff3;
      }
    </style>
  </defs>
  <g>
    <path class="st5" d="M834,192c.7-21,.7-42,0-63h.1l-1.5-2c-5-.4-25.8-.9-29.7,0-.6,0-.9,1.2-.9,2-.8,10.6-.8,21.4,0,32-3,4.2-2.8,30.6-1.2,31.4l2.2.6c.5.9.8.9,1,0,8.6-1.2,18.5-1.2,27,0,.6,1.9,1.4,1.9,2,0h1c.9-.4.9-.7,0-1Z"/>
    <path class="st5" d="M225.9,737.9l1.5,2c5.4,1,24.6.6,30.6,0,.6,0,.9-1.2.9-2l1.5-1.7c-.5-19.4-.6-39.1-.3-58.8l-1.1-4.4,1.4-1c-1.5-9.2-2-18.7-1.3-28.6l-1.1-1.5c.9-.4.9-.7,0-1-.4-.6-.7-.7-1,0-.4.5-.5.4-1,0-9.1-1.1-19.6-1.2-29,0-.9-.2,0-1,1-1.6v-60.1c-1.8-1.4-3-2.7-1-1.2,10,.8,20,.8,30,0,.5.9.8.9,1,0,10.4,1.2,21.5.7,32,0,2.4-1.1,2.7-1.6,0-2-.4-.9-.7-.9-1,0l-1.2-2h-59.6l-.2-26.6-2-1.4v-.2c-10.7,0-21.5.2-32.1,0v32c.2.9.7,1.5,1.4,2,1.1.8,22.9.3,28,0-.8,1.6-.9,3.9-.4,6.8-.5,17-.6,35.7,0,52.6-5.3-.7-24.9-.6-28.1-.4-.5,0-.9,1.2-.9,2v33c.3.8.6,1.7,1.4,2,1.2.6,22.4.3,28.4,0-.5,3.6-.1,22.2,0,27.9-4.1-.6-25.8,0-28.9.2-.5,0-.9,1.2-.9,2v63c.8.4.3.9,3,1,9.5.9,19.5.8,29,0,2.5-10.7,2.5-21.3,0-32Z"/>
    <path class="st5" d="M195,481c10.3.9,20.7.5,31,0,2.5-10,2.5-20,0-30,1.9-.5,3.2-.9,1-2l-1-1,1.8-2.3c-.3-8.9-.2-17.7.2-26.5l-2-2.2c-.4-.9-.7-.9-1,0-.3-.8-.6-1.7-1.4-2-1.4-.5-25.5-.2-28.7,0-.6,0-.9,1.2-.9,2-1.3,21.1-1.3,42.1,0,63,.2,1.4,1,1,1,1Z"/>
    <path class="st5" d="M321,770h0c0-.1-1.6-2.1-1.6-2.1-8.7-.6-17.5-.6-26.2-.2l-1.2,2.2c-1.5-1.1-1.9-.5-1,1l-2,2.1c-.5,8.9-.9,17.9-1,27.2l-28.7-.5c-.9,0-1.3.6-1.3,2.2-.8,10.7-.8,21.3,0,32,.8,2.5,1.7,2.7,2,0,10,2,20,2,30,0l-2,1.5c-.9,4.3-.5,24.5,0,29.7,0,.2.2.4.4.5-9.5-2.1-18.9-2-28.4.4-.6-1.9-1.4-1.9-2,0h-32v31h95v-64h-30v-31h31.5l.5-1c.8-10.3.8-20.7,0-31-.8-2.5-1.7-2.7-2,0Z"/>
    <path class="st5" d="M802,578h-28.5c-1-1.5-1.4-.2-3.5,0,.8-8.9.3-21.7,0-32h-.2c0-.1-32-.1-32-.1-.5.5-1,1.1-1.4,1.7-1.4,2.2-.9,30.2.3,31.4,1.1,1.2,29.7,1.9,31.7.4.3-.2.5-.4.7-.6-.2.2-.4.5-.6.7-1.2,1.7-1,29.2.2,31.4.9,1.6,28.4,1.4,32.4,1.1.6,0,.9-1.2.9-2,1.7-9.6,1.6-19.4,0-29v-3Z"/>
    <path class="st5" d="M227.5,291c3.5.2,28.3.5,29.2-.7.3-.3.3-.8.3-1.3.4.9.7.9,1,0,2.5-10.4,2.5-20.6,0-31,.9-.4.9-.7,0-1h.1c-10.2,0-20.9-.5-31,0,0,1-.6.8-1,1-.8,9.9-.8,21.3,0,31l1.4,2Z"/>
    <path class="st5" d="M802,673h0c-.2-.5-.4-1-.7-1.3-1.1-1.1-26.7-.9-30.4-.7-.6,0-.9,1.2-.9,2l-2,1.5c-.6,2.1-.4,23.1,0,29.4-4.2-.4-23.9-.2-27,.1-.6,0-.9,1.2-.9,2,.2,11.1-.2,21.7-1,32-.9-2.5-1.5-2.6-2,0-8.6-2.8-20.6-3.2-29,0-.6-1.9-1.4-1.9-2,0,0,21.6-.4,42.6-1,63-8.8-1.3-20.8-2.7-29,1-.6,1.6-.7,3.8-.2,6.6l-.8,23.7c9.7.2,19.4.4,29,.7.3-.2,1.3,0,2,0,.9-4.2-1.1-30.9,0-32s27.8.9,32,0v-1l.8-29.6c10.2.3,20.3.2,30.2-.4.2-.5-.2-.8,1-1v-1c-1-20-1-40.4,0-61,0,0-.2-.8.5-1h29c.5-1.3,2.3-.8,2.5-1s0-4.8,0-6v-26Z"/>
    <path class="st5" d="M389.2,228h59.9l.9-2c0-.1.1-1.2-1-1-19-.8-38-.8-57,0h-4c-.5-.9-.8-.9-1,0v1h1l1.2,2Z"/>
    <path class="st5" d="M801.1,324c.6-.1.9-1.2.9-2,1.6-9.6,1.5-19.4,0-29v-4h-2l-1.8-2c-8.2-.5-16.5-.5-24.7-.2l-1.5,2.2-1,1.4v31.6l-1.1.5c-.6,10.6-.5,21.1,0,31.5-1,20.5-1.1,41.1-.5,62-1.2.7-1,1,.5,1v63c-.4.4-.5.8,0,1,9.3-.8,20.5,1.1,29.5,0,.2,0,.6-1,2.5-1,1.5-.4,1.6-3.1,0-3-1.2-8.2-1.2-17.7,0-26,1.4-.4,1.4-2,0-2l-1.4-2c-3.3-.7-20.7-.4-26.6,0v-122.8c5.2.7,22.4.4,27.1,0Z"/>
    <path class="st5" d="M768,223.6c.2.5,1.4,1.4,2,1.4.5.7,1.8.8,2,0,3.5-.8,8.5-.9,12,0,5.2.8,11.9.9,17,0,0-.1.8.2,1-.5v-31.5c-9.9,0-20.2-.4-30,0h0c-.8-1.8-1.8-1.9-2,0l-2,1.4c-.4,1.4-.6,27.8,0,29.1Z"/>
    <path class="st5" d="M483,832v-29.5l-1.5-1.5c-6.9.9-16.5-1.2-23,0-.3,0-1,1.6-3,1-.4,0-.6-1-1-1-1.5-.3-5.5,0-5.5,1.5v29.5h26.5c1.6,0,4.9-.7,5.5,1,.3-.2,1.4,0,2,0,.9-.4.9-.7,0-1Z"/>
    <path class="st5" d="M578,864v-31h-30v30.5c-.2.7-1,.5-1,.5v2c.4.9.7.9,1,0,10,2,20,2,30,0,1.9-.6,1.9-1.4,0-2Z"/>
    <path class="st5" d="M324,738h30v-31h-30v31Z"/>
    <path class="st5" d="M387,610h-32c.6,1.7,3.9,1,5.5,1h24.5v61c.8.8,0,.8,2,1,.8-20.7.8-41.3,0-62v-1Z"/>
    <path class="st5" d="M450.5,739h64.5v-1h-65c.1.4,0,.8.5,1Z"/>
    <path class="st5" d="M578,770h-63l.5,1h62c.7-.2.5-.6.5-1Z"/>
    <path class="st5" d="M642,707h31.5l.5-1h-31.5c-.7.2-.5,1-.5,1Z"/>
    <path class="st5" d="M419,866h-1c-.6.4-.6.7,0,1v30h1v-30c.9-.4.9-.7,0-1Z"/>
    <path class="st5" d="M611,867c.9-.4.9-.7,0-1h-1v32h1c.9-.4.9-.7,0-1,.8-.3,1.7-.6,2-1.4.5-1.3.2-24.6,0-27.7,0-.6-1.2-.9-2-.9Z"/>
    <rect class="st5" x="225" y="322" width="1" height="32"/>
    <path class="st5" d="M642,225h-2c-20.7-.1-41.3-.1-62-.1v31c.4.6.7.6,1,0l2-1.4v-27.1c20,1.2,40.1.7,60-1.4.5.9.8.9,1,0v-1Z"/>
    <path class="st5" d="M484,290c20.3,2.8,40.7,2.7,61,0,.5.9.8.9,1,0v-1h-62c-.8.4-.8.7,0,1Z"/>
    <path class="st5" d="M450,258c.4.9.7.9,1,0l1.5,2c3.3.2,28.2.5,29.6,0,.6-.2.9-1.2.9-2v-1h-1c-10.4-.5-21.5,0-32,0v1Z"/>
    <path class="st5" d="M577,257h-30l-1,1h30.5c.7-.2.5-1,.5-1Z"/>
    <path class="st5" d="M577,872.5v19c0,1.6-.7,4.8,1,5.5v-30c-1.7.7-1,3.9-1,5.5Z"/>
    <path class="st5" d="M419,447h0c1.1-2.4-.3-22.4-1-25.5-.3-1.3.8-3.5-1-3.5-1,.8-1.7,1.8-2.1,3v25h-25.9l-.9,2c-.7.5-.9,1.7,0,2,9.3.3,19.1.5,28.2,0,.3,0,.6-.4.8-1,0-.1,2-1.9,2-2Z"/>
    <path class="st5" d="M739,672v-62h-30c.7,1.7,3.9,1,5.5,1h22.5v61h2Z"/>
    <path class="st5" d="M706,673h2v-63h-2c0,19.9-1.6,43.7,0,63Z"/>
    <path class="st5" d="M644,197.5v-3.5h124.5c.7-.2.5-1,.5-1h-127c1.6,2.1,0,1.9,0,2.5-.3,1.6,0,3.8,0,5.5,3.1.6,2-1.5,2-3.5Z"/>
    <path class="st5" d="M515,514h-32v30h32v-30Z"/>
    <path class="st5" d="M291,416c0-18.5.1-37,0-55.5,0-1.6.7-4.9-1-5.5v62h1v-1Z"/>
    <path class="st5" d="M545,354v-32c-20.1,0-42.2,1.2-62,0h-1v32c.4.9.7.9,1,0l1.2,2c19.3.6,40.7.6,59.9,0,.5,0,.9-1.2.9-2Z"/>
    <path class="st5" d="M387,418v-1h-1c0,1,.3.9,1,1Z"/>
    <path class="st5" d="M704,418c-9.6.4-19.4-.5-29,0-.2,4.5.2,9,0,13.5-.3,4.7-1.9,11-1,16.5h30v-30Z"/>
    <path class="st5" d="M547,417v-19c-1.7.6-1,3.9-1,5.5v13.5h1Z"/>
  </g>
  <g>
    <path class="st10" d="M226,160c-10.6-2-21.4-2-32,0v1h32c.9-.5.9-.8,0-1Z"/>
    <path class="st10" d="M769.4,415.6c-9.3,1.5-21,.9-30.3.3-.3-.9-.7-.9-1,0-2.5,1-2.7,1.6,0,2-2,10-2,20,0,30-10.4.6-21,1-32,1-.8.4-.9.8,0,1-3.2,8.5-2.2,20.1-1.4,29.3l1.4,1.7c-31.4.9-64.5.9-96,0,2.5-10,2.5-20,0-30,.9-.5.9-.8,0-1,.9-.5.9-.8,0-1-.3-10.4-.7-20.8-1-31-9.5-1.5-20.6-.9-30,0-.3,21-.7,42-1,63-.9.5-.9.8,0,1-.3,10.7-.6,21-1,31-9.6.6-19.4.7-29.5.6.2,11,0,21.8-.5,32.4-.5-.8-.8-.9-1,0-11.6.6-61.7,2.5-63-.5-.1-.3-.5-.5-1-.5.6-10.2.8-20.8,0-31-11.1.3-21.8,0-32-1-.4-.8-.8-.8-1,0-.4-20.4-.8-41.4-1-63,.5-.5.6-1.1.3-1.7l-28.2.3c-.4-.2-.8-.7-1.1-1.6-1.3-.9-1.8.6-2,2-2.6.7-2.7,1.9,0,2l-2.1,1.9c1.1,8.7,1.4,17.4,1.1,26.1l1,2c-31.3,1-62.6,1-94,0,1.1-8.7,1.7-17.6,1.9-26.8l-1.9-3.2c.9-.5.9-.8,0-1,.9-.5.9-.8,0-1-.5-.9-.8-.9-1,0-.5-.9-.8-.9-1,0-9.9-2.2-19.9-2.5-29.9-1.1,1.4-10.3,1.1-20.7-1.1-30.9-.5-.9-.8-.9-1,0-10.4-2.5-20.6-2.5-31,0l2-1.2v-59.7c5.4.8,23.1.4,28.1,0,.6,0,.9-1.2.9-2l2.3-1.1c-1.1-1-.8-1.7.8-2.1,0-9.4.1-18.8.6-28.1l27,.5c.7.4,1.1-.4,1.2-2.1,3.4,0,4.1-1.6,2-5,1.2-1.4,1.9-3.1,2.1-5.1l-.3-20c20.1.4,40.2.3,60.2-1.9v-31c-29.5-.1-59,.2-88.5,0-1.6,0-4.9.7-5.5-1l.2-.3h-33v1c.3.8.7,1.6,1.5,2,1.2.6,23.3.3,29.4,0-.7,5.7-.5,20.5,0,26.8-4.4-.5-26.1-.2-30,.1-.5,0-.9,1.2-.9,2-.3,11-.6,21.6-1,32-9.1-1.6-19.5-1.2-31,1-.7,10.7-.7,21.3,0,32-.9.4-.9.7,0,1-.8,20.7-.7,41.3,0,62,0,9.4-1.1,22.1,0,31,11.1.2,21.1.6,30,1.1l2,.9c-.2,10.8-.6,21.5-1.1,32.2,11-.6,22.1-1,33.1-1.2l1.1,2-.2,29.4c20.9-.3,41.6-.1,62,.6-.7,1.2-.2,1.7,1,1,.5,10,.8,20.2.8,30.5,21.3-.4,42.4-.3,63.2.5l-1.4.9c1.4,1.4,1.8,3.2,1.4,5.6-.8,5.2-.9,11.9,0,17,.5,3.6-.2,6.3-2,8.2l2,1.3c.5.9,1.3.7,2,0l1.5,2c2.4.6,19.8.4,25.4,0-.8,6.2-.5,23.4,0,29.1,0,.6,1.2.9,2,.9l1.2,2h61.7c-.7,6.4-.6,23.4,0,29.2,0,.6,1.2.9,2,.9l1.2,2h61.4c2.5,0,4.2-2.1,1.4-3,.5-20.3.8-40.8.5-61.5,10.4-1,20.9-1.5,31.5-1.5l2-1.5c.2-3.4.5-29.2,0-30.6-.2-.6-1.2-.9-2-.9,20.5-.5,41.5-.9,63-1,.5-10,.7-20.2.5-30.5,2.2-.5,1.8-1.1-.5-1.5,21.7.8,43.3.8,65,0,.4-10.2.7-20.4.8-30.6,10.3.3,20.4.2,30.2-.4.8,0,.9-.4,1-1,2.1-20.9,2.1-41.9,0-63l-.7-1.3Z"/>
    <path class="st10" d="M833,98h-25.5c-1.6,0-4.8-.7-5.5,1h30.5c.7-.2.5-1,.5-1Z"/>
    <path class="st10" d="M676,578h0c-.5-1-.8-1-1-.1-1.2.2-1.6.5-1,1-.5.2-1,.4-1.3.7-.9,1-.9,23.4-.7,28.8-5.5-.7-25.8-.5-29.1-.4-.6,0-.9,1.2-.9,2-.5.2-1,.4-1.3.7-.9,1-.9,23.2-.7,28.7-9.8-.1-19.6-.3-29.4-.5l-.6,2.1c-.5.2-1,.4-1.3.7-1,1-.9,24.2-.7,29.7-5.5-.7-25.8-.5-29.1-.4-.6,0-.9,1.2-.9,2l-2,1.2v30.7c.7-.7,1-.3,1,1.2-20.1.8-41.8.9-62,0l2-1.2c.3-4.5.8-28.1,0-30.7-.8-2.5-1.8-4.1-3-1.2-21.3-.3-42.7-.7-64-1l1.8-1.5.5-26.9c.1-2.6-.7-4.7-3.5-4.8-9.4.6-18.3,1.1-27.7.4.8-5.2.4-23.2,0-28.3,0-.6-1.2-.9-2-.9-10.4-2.5-20.6-2.5-31,0-.5-.9-.8-.9-1,0-.9.5-.9.8,0,1,.8,20,.9,40.4.5,61.4,10.7-.7,20.9-.5,30.5.6v1c-.8,10.3-.8,20.7,0,31,.5.6.4.5,1,1,9.9.4,19.9.6,30.1.6.4,9.8.7,19.6.9,29.4l.7,1h62.1l2.2,1c-.8.5-.9.8,0,1,.2,10.3-.2,20.7,0,31,20.5.8,42.7.9,63,0v-1c1.1-10.2.6-20.8,0-31,1.8-.8,1.7-1,1.5-1l62-.6c-.2-10,0-19.8.5-29.4,10.6-.3,21.3-.7,32-1v-32.5c.2-.7,1-.5,1-.5,9.8-1.1,19.5-1.1,29,0h1l.5-94.3c-10.8.3-20.6,0-29.5-.7Z"/>
    <polygon class="st10" points="483 833 547 833 548 832 483 832 483 833"/>
    <path class="st10" d="M380.5,832c-17.7,0-35.3,0-53,0-1.6,0-4.9-.7-5.5,1,21.1.8,43-1,64,0-.6-1.7-3.9-1-5.5-1Z"/>
    <path class="st10" d="M443.5,832c-8.4,0-17.2-.3-25.5,0v1h31c-.6-1.7-3.9-1-5.5-1Z"/>
    <path class="st10" d="M645.2,291h59.3c-1.1,9.4-.5,18.8,1.5,28-.9.5-.9.8,0,1-.9.5-.9.8,0,1,.5.9.8.9,1,0,9.5,2.1,19.3,2.7,29,1.5v30.6l2,.9h2c.7,2.8,4,2.9,4,0,8,.8,16,.8,24,0,.4.9.7.9,1,0v-64h-29.5c-.7-.2-.5-1-.5-1,0-.6,0-1.1.4-1.5,1-1.1.9-24.2.6-28.6,0-.5-1.2-.9-2-.9-31.4-.8-62.9-.7-94.3-.5-.4,10.3-.7,20.7-.7,31.2l1,.3,1.2,2Z"/>
    <path class="st10" d="M480,416v1h2c.9-.5.9-.8,0-1,0-10.7.4-21,1-31,20.6,1.5,41.3,1.5,62,0,.8,2.5,1.7,2.7,2,0,.4.9.7.9,1,0v-31h-1c-2.2,9.2-2.4,18.6-1.9,28h-61.2l-.9,2c-.7-9.6-1-19.6-1-30,2-8.6,2-17.4,0-26-3-.6-2,1.5-2,3.5-.3,28.2.3,56.4,0,84.5Z"/>
    <path class="st10" d="M387,418c.4.9.7.9,1,0,8,3.5,20.7,3,29,0v-1c-9.3,0-18.7-.2-28,0-.8-2-1.8-2-2,0-.6.4-.6.7,0,1Z"/>
    <path class="st10" d="M387,449v1h1v-2c-.4-.9-.7-.9-1,0-.9.3-.9.7,0,1Z"/>
  </g>
  <g>
    <path class="st2" d="M704,672.9c-9.5-.8-19.6-.8-29,0-.6-1-1.7-1.5-2.3-.8-1.1,1.3-.9,29.1-.7,33.1,0,.5,1.2.7,2,.7-10.7.3-21.3.7-32,1-1,9.9-.6,20.1,0,30l-1.7,1c-19.7,0-40.3.4-61.8.8.6,10.4.4,20.5-.5,30.3-.8.3-.8.7,0,1-20.5.8-42.5.9-63,0,3-9.5,3.3-21.6,0-31-21.7-.3-43.4-.7-65-1,.9-.5.9-.8,0-1-.4-10.1-.6-20.3-.6-30.5-10.3.2-20.4,0-30.4-.5,1-1.6.5-2.2-1-1-.7-9.9-1.1-21.2,0-31,.9-.4.9-.8,0-1-10.4-.3-20.5-.8-30.4-1.3l-.5,1.1c-.1-1.4-.8-1.8-2-.8-1.1-1.5-2.2-1.3-3,.3l-25.8-.4c-1.2-.2-1.3.9-1.2,2.1-.3,10.3-.7,20.7-1,31-1.4,0-2.7-.4-4-1-.8-4.3-8.4-1.2-9,2-4.7-1.5-12.4-1.7-17,0l-1.5,1.2c-1,10.6-.9,20.8.5,30.8.4.9.7.9,1,0h0c0,21.5-.5,42.5-1,63-9.4-1.3-21.4-1.7-31.1-1-.5,0-.9,1.2-.9,2l-2,1.4c-.8,5.5-.6,23.1,0,28.7.1.6,1.2.9,2,.9l1.4,2c4,.7,20.5.5,26.6,0v59.9h-92.3l-.7,2c.4.6.4.5,1,1,31,.9,64,.9,95,0l1-.7v-59.3c1.7-3,1.4-4.7-1-5,20.2-1,43.9-1.7,64,0,.4.8.7.8,1,0,.3,10.4.7,20.8,1,31,8.8,1.5,19.2,1.8,28,0,.3-10.2.4-20.4.4-30.7l1.6-1.3c10.5,0,20.9.4,31,1l.6,1c10.5.2,21,.2,31.4,0v-1c.3-.5.4-1.1.4-1.6,0,0,0-.1,0-.2l1.6.7c21,.5,42.2.8,63.5.5,1.6-.8,1.8-.7.5.5-1.8.7-2.8,1.4-1,2.1-.4,9.1-.3,19.5,0,28.6,0,0,.4.3,1,.3.6.9,1.7,1.5,2.3.8.9-1.1.9-23.4.7-29.7,5.2.7,22.4.4,27.1,0,.2,0,.4-.2.6-.5-2.1,9.9-2,19.7.3,29.5.2.5.5,1,.7,1,9.9.6,22.1.4,31.3-1,.8-10.3.8-20.7,0-31,10.4-.5,20.9-.6,31.5-.6,0-10.2,0-20.3.5-30.4.8-.3.8-.7,0-1,9.9-.8,20.3-1.1,31-1,.5-20.3.8-40.7.8-61.2l-.8-.3c1.1-.2,2.7-.8,2.8-1.5,8.5.4,21.1.7,28.9,0,0,0,.3-.5.3-1,.9-21,1.4-42,0-63-.4-.9-.7-.9-1,0ZM325,736c-.2,0-.4.2-.6.5,2.1-9.8,2-19.6-.3-29.5l1.4,2c4.2.4,20.8.7,26.5.2-.7,5-.4,20.8,0,26.7-5.9-.6-22-.6-27,0ZM449.1,832l2-1.5c.3-3.2.5-25.7,0-27.2,0-.2-.2-.3-.4-.5,3.1.8,6,.7,8.6-.1,7.2.2,14.4.2,21.7,0v28.1c-3.6-2.2-26.7-.9-31.9,1.2Z"/>
    <path class="st2" d="M450,899c-.7,1.7-.8,3.4,0,5,0,8-.2,16,0,24,.2.4.4.8.7,1,1.2.8,26.3,0,30,0,0,0,.3-.4.3-1,.5-.3,1-.5,1-.8.2-3.5.9-27.4,0-28.5-10.6-.6-21.9-.3-32,.3Z"/>
    <path class="st2" d="M834,98h-1c-10.2.3-20.6.7-31,1v30h32c.8-10,.8-20.9,0-31Z"/>
    <path class="st2" d="M802,187.5c-.3-8.8,0-17.7,0-26.5-.4-.9-.7-.9-1,0-2.8,1.4-6.2,1.6-9,0-4.3-.7-8.7-.9-13,0-1.3,1.3-3.8,1.4-7.3.5-1.3,1-.9,27.1-.7,31.2,0,0,.5.3,1,.3,1.4.9,2.9,1.8,4.6,1.9,7.9.6,18.4.9,25.4-1.9h1c-1.4-1.9-1-3.4-1-5.5Z"/>
    <path class="st2" d="M825.5,192h-16c-1.6,0-4.8-.7-5.5,1h27c-.7-1.7-3.9-1-5.5-1Z"/>
    <path class="st2" d="M642,161v-2c-1.2-7.3-1.1-15.7,0-23v-6c-.8.2-1.5-1.5-2-1-9.8.3-19.4.7-29,1-.7,10-1,21,0,31,10.3,2.5,20.6,2.5,31,0Z"/>
    <rect class="st2" x="194" y="578" width="31" height="63"/>
    <rect class="st2" x="194" y="674" width="32" height="32"/>
    <path class="st2" d="M355,135.5v25.5h32v-31h-33c0,.9-.2,4.6,0,5,0,0,.8-.2,1,.5Z"/>
    <path class="st2" d="M418,547.4c0-.4-.5-1.2-1-1.4h-59.8c-.4-.8-1.2-1.2-2.2-1-.3-10.3-.7-20.7-1-31,0-.2.1-1.2-1-1h0c-20.2-.5-40.5-.7-60.8-.4-.6-2.4-1.9-1.9-2.2.5v2c.5,1.8.8,2.2,1,1.1-.7,9.6-.4,18.9.8,28.1,10.7.6,20.7.9,30.2.8l1,1c.4,10,.6,20.2.6,30.5,8.9.7,17.8.8,26.8.3l2.6,1.2c.4.8.7.8,1,0,1.1,10.5,1.1,20.8,0,31-.9.4-.9.7,0,1,.4.9.7.9,1,0,10.7.8,21.3.7,32,0,.7-10.6.7-21.3,0-32l2-1.2,26.7.2c1,0,1.6.1,1.3-1.1.4-.8.9-2,1-2.9.5-3.3.3-21.9,0-25.7Z"/>
    <path class="st2" d="M289,546h-1c-19.3,1.3-41.7,1.3-61,0h-1v30h63c1.2-9.5.8-20.6,0-30Z"/>
    <path class="st2" d="M226,513c.3,1.3.8.8,1,1,1.9-1.4,3.4-1,5.5-1,8.1-.3,16.4,0,24.5,0-.6-1.7-3.9-1-5.5-1h-25.5c-.4.3-.4.7,0,1Z"/>
    <path class="st2" d="M698.5,832c-3.2,0-21.4,1.1-22.5,0s.8-26.1,0-30c-.8-2.9-4.7.1-2.5,1.2.5,10.1.7,20,.5,29.8h1c9.1.5,18.4-.3,27.5,0,1.5,2,1.4,0,1.5,0-.7-1.7-3.9-1-5.5-1Z"/>
    <path class="st2" d="M226,129c0-.6,0-1.7,0-2-.5-2.1-.9-5,0-7,0-5.3.7-12.6,0-16.5-.2-1,0-2.4,0-3.5-2-.6-3.3-.9-5.5-1-8.8-.5-17.7.3-26.5,0v61h32c0-9.9-.7-21.2,0-31Z"/>
    <path class="st2" d="M226,193c4.1.9,30.9-1.1,32,0,1.1,1.1-.8,27,0,31,4.7.3,9.3.6,14,1h3c1.5-.9,3.5-.6,5,0h15c.3-.5.6-.5,1,0h27c1.9-.9,4.9-.7,7,0h10c1.2-.8,2.7-.6,4,0h5c.9-.6,1.1-.6,2,0h5c1.2-.8,2.7-.6,4,0h6c2.8-.8,7.2-.9,10,0h8c1.2-.2,1.6-.5,1-1,.6-.3,1-.5,1-.7.2-3.8.7-29-.6-29.8l-125.4-.5h-1c-1.6-.4-1-1.2-1-2.5-.3-6.4-.6-15.8,0-22,0-.4,1-.6,1-1,.2-1.4.5-6.3-1-6.5-10.5-.9-21.9-.8-32,0v32Z"/>
    <path class="st2" d="M385,867h-30v30h29.5c.7.2.5,1,.5,1h1l1.1-.7c.6-9.7,1-19.8-.1-29.3-.3-1-1.1-1.5-2-1Z"/>
    <path class="st2" d="M387,930v-2l-1,.5c-.2.9,0,1.6,1,1.5Z"/>
    <path class="st2" d="M386,900c.1.7.1,1.1,1,1,0-.8,0-1-1-1Z"/>
    <path class="st2" d="M450,896c-1.1-9.5-1.1-19.2,0-29,.9-.4.9-.7,0-1h-2c-9.8.3-19.4.7-29,1-.8,9.6-.8,20.6,0,30h31v-1Z"/>
    <rect class="st2" x="579" y="898" width="30" height="1"/>
    <path class="st2" d="M675,898c-.5-.9-.8-.9-1,0-.5-.9-.8-.9-1,0-.5-.9-.8-.9-1,0-10-.8-20-.8-30,0v1c3-.6,2,1.5,2,3.5,0,3.7-.9,24.6,0,25.5s20.9,0,24.5,0,4.1-1,3.5,2h3c-.4-10.6.5-21.4,0-32Z"/>
    <path class="st2" d="M548,897c.8.8,19.3,0,22.5,0s4.8-.7,5.5,1h2v-1c-1.3-9.5-1.3-20.5,0-30v-1h-30c.8,4-.8,30.2,0,31Z"/>
    <path class="st2" d="M257.5,800.4c-.3-10.2,0-20.4.5-30.4,10.8.9,21.5.9,32,0v-1c-1-20.7-1-41.7,0-63h31.5c.5,0,.7-.8.5-1-.3-20.7-.7-41.4-1-62h0c-.3-.6-.5-1-.8-1-9.6-.4-19.6-.3-29.2.2l.2,28.1-1.1,2.7c-10.2-.6-20.8-1-31,0-1,20.3-1.3,41.7-1,62.5l1,2.5h-33v62c10.3.7,21.1.9,31.5.4Z"/>
    <rect class="st2" x="226" y="643" width="31" height="30"/>
    <path class="st2" d="M226,355v-1c-.4-.9-.7-.9-1,0h-31v63h31c.1-21.2.5-41.9,1-62Z"/>
    <path class="st2" d="M226,481h31v-30h-31v30Z"/>
    <path class="st2" d="M290,866v-32h-30v32h30Z"/>
    <path class="st2" d="M770,578c-10.3.9-21.6-.6-32,0,.5-10.5-.7-21.6,0-32-4.2-.9-30.8,1.2-32,0s.9-28.7,0-33h0c-10.7-.8-21.3-.8-32,0-.5,10-.7,20.2-.5,30.5-1.4.3-1.7.7-1.2,1-20.8-.3-41.6,0-62.3.5v33c21.7.8,43.3.8,65,0h1c9.8.5,19.7.7,29.5.5-.2,10.5,0,21,.5,31.5.8,2.5,1.7,2.7,2,0,.4.9.7.9,1,0,9.8-.1,19.4.5,29,1.8v58l-1,2.2c-8.5-2.8-20.8-3.4-29,0-.9.4-.9.7,0,1,10.4,2.5,20.7,2.5,31,0,2.2-1.8,2.4-.6.5,3.8.5,10.1.4,19.8-.5,29.2-.6.2-1.1.4-1.1.7-1,3.4-.1,25.6,0,30.9,0,.1.5.3,1,.4,1.7-.7,1-3.9,1-5.5v-26.5h30v-33h32v-63h-32c.6-10.4-.9-21.8,0-32Z"/>
    <path class="st2" d="M291,258h-33v31h33v-31Z"/>
    <path class="st2" d="M257,289h-31v33h30.5c.7-.2.5-1,.5-1,.8-10.3.8-21.9,0-32Z"/>
    <path class="st2" d="M450,226h-62v30h62c.7-10,.7-20,0-30Z"/>
    <path class="st2" d="M772,449h30v-127h-30v127Z"/>
    <path class="st2" d="M801,456.5v15c0,1.6-.7,4.9,1,5.5v-26c-1.7.6-1,3.9-1,5.5Z"/>
    <path class="st2" d="M739,512h30v-30c-9.9-.7-20.4-.8-30.5-.4-.2,10.1-.2,20.8.5,30.4Z"/>
    <path class="st2" d="M642,201c-.9,5.6-.5,11.4,0,17v7h2c11.1-1.3,23.9-1.3,35,0h4c4.2-.9,9.8-.9,14,0h20c2.8-.8,7.2-.9,10,0h7c.9-.6,1.1-.6,2,0h20c1.2-.8,2.7-.6,4,0h7c.3-.5.6-.5,1,0h2v-32c-.4-.9-.8-.9-1,0-41.8.6-83.7.8-125.8.5.2,3.6-.2,6.1-1.2,7.5Z"/>
    <path class="st2" d="M546,288c.9.9,21,0,24.5,0s4.8-.7,5.5,1c1.1,2.7,1.8,2.7,2,0,1.6-5.6,1.6-12.4,0-18,2.8-.7,2.8-6.2,0-7,.9-1.5.8-4.9,0-6,.9-.4.9-.7,0-1-.4-.9-.8-.9-1,0-10.2.3-20.6.7-31,1,.8,3.9-.9,29.1,0,30Z"/>
    <rect class="st2" x="258" y="482" width="31" height="30"/>
    <polygon class="st2" points="772.5 224 772 225 784 225 783.5 224 772.5 224"/>
    <path class="st2" d="M513,867c-1.1-1.1-26.1.8-30,0,.8,3.9-1.1,28.9,0,30,1.1,1.1,26.1-.8,30,0-.8-3.9,1.1-28.9,0-30Z"/>
    <rect class="st2" x="611" y="867" width="30" height="30"/>
    <path class="st2" d="M292,610h29v-31h-29v31Z"/>
    <path class="st2" d="M450,472l-1,.4c-.9,13.6-.9,27.2,0,40.6h1c10.5,1.3,21.5.8,32,0,1-10.2.9-21.3.4-31.7,0,0-.6-.3-1.4-.3-.6-2.9-6.4-3-6,0-.8-.8-2.2-.7-3,0-4-2-8-2-12,0-3-.5-6.2-.7-9.5-.5.2-3.1,0-5.9-.5-8.5Z"/>
    <path class="st2" d="M577,482h0c-9.6-.6-19.7-.9-29.5-.4.2,10.3,0,20.4-.5,30.4-1.3-.9-2-.6-2,1-9.6,1.4-20.3.8-30,0-10.6-1.9-21.4-1.9-32,0-.6.5-.7.8,0,1l1.5,2h29.1c-1.1,9.4,0,18.7,1.5,28-2.5.8-2.7,1.7,0,2,10.2.9,20.8,1.1,31,0h1c.4-10.6.6-21.3.4-32.2,10,0,19.8-.4,29.6-.8.9-10.4.9-20.7,0-31Z"/>
    <path class="st2" d="M610,449v1h70c1.1-2.5-3.6-1.6-6-1-21.3-.9-42.7-.8-64,0Z"/>
    <path class="st2" d="M706,450v-1c-1.2-1.5-7.4-1.1-6,1h6Z"/>
    <path class="st2" d="M770,288c-.4-10-.7-20.2-.7-30.5-10.5-.1-20.9-.2-31.3.5v30.5c.2.7,1,.5,1,.5h31v-1Z"/>
    <path class="st2" d="M641,226h-62v30h62v-30Z"/>
    <path class="st2" d="M451,288c1.1,1.1,27.9-.9,32,0v-30h-32c.8,3.9-1.1,28.9,0,30Z"/>
    <path class="st2" d="M483,320.9v1c1.6,1.2,3.4,1.9,5.4,2.3,17,.4,34.1.3,51.1-.2,1,0,1.9-.4,2.8-.7s1.8-.8,2.7-1.3v-32h0c-20.3,0-40.7,0-61,0-1.4,8.3,1.8,23,0,30.5,0,.5-.6.6-1,.5Z"/>
    <polygon class="st2" points="643 257 642 257 642 259 643 258.5 643 257"/>
    <path class="st2" d="M450,470v-53c-1.7.6-1,3.9-1,5.5v27.5c.1,7.1,0,13.8,1,20Z"/>
    <path class="st2" d="M707,415c9.8,1,19.5,1.3,29,1h1v-61h-30c-.8,19.5-.9,40.7,0,60Z"/>
    <path class="st2" d="M417,448c.6-9.8-.8-20.4,0-30-9.6-.3-19.4.4-29,0-.7,10.1-.7,20.1,0,30h29Z"/>
    <polygon class="st2" points="683 450 687 450 686.5 449 683.5 449 683 450"/>
    <polygon class="st2" points="642 277 643 276.5 643 270.5 642 270 642 277"/>
    <polygon class="st2" points="642 282 643 281.5 643 279.5 642 279 642 282"/>
    <polygon class="st2" points="642 265 643 264.5 643 263.5 642 263 642 265"/>
    <path class="st2" d="M547,354h-64c-.8,9.6-.9,20.2,0,30h64v-30Z"/>
    <path class="st2" d="M704,418v-1c-7.4-.8-18.3-.2-26,0h-3.5l-.5,1h1c8.2,2.8,21.1,3.5,29,0Z"/>
  </g>
  <g>
    <path class="st9" d="M386,866c-7.3,0-25.8-1.4-31.5,0-.7.2-.5,1-.5,1-.6.2-1.1.5-1.1.8-.1,3.8-.6,28.3,0,29.6,0,.2,1.2,1,1.5,1.1,10.1.2,21,.2,30.6-.5.6-.6,1.1-1.7.6-2.2-.9-1.1-22.4-1-28.5-.8.3-3.6.1-20.6,0-25.9,5.2.7,22.4.4,27,0,.6,0,.9-1.2.9-2,1.4.9,1.9.4,1-1h0Z"/>
    <path class="st9" d="M481,928h-31c0,.7,0,1.4,0,2h31c1.5-.4,1.6-2,0-2Z"/>
    <path class="st9" d="M670.7,925.9c-8.3.5-16.7.6-25,0l.4-26.3c-.9-1.4-3.2-1.8-4.1-.7h0c-1.1,10.1-.7,20.8,0,31h1c9.5,1.2,19.5.9,29,0,2.7-1,1.7-3.8-1.3-4.1Z"/>
    <path class="st9" d="M226,100c0-.7.1-1.9,0-2-1.1-1.1-27,.8-31,0h0c-1.1-.2-.9.8-1,1,.6.5,1.2,1,1.9,1.4,1.3.8,28.3,1.8,29.4.8.4-.3.6-.8.8-1.2Z"/>
    <path class="st9" d="M260,834h0c0,.1-2,.1-2,.1v32h2l2-1.5c.6-1.8.3-26.1,0-29.7,0-.6-1.2-.9-2-.9Z"/>
    <path class="st9" d="M740,130.1v30.5c-.2.6-.6.5-1,.5s-.7,0-1,0c-29.2.8-64.9.9-96,0h-31c-1.2-9.8-.6-21.1,0-31h28.5c.7-.2.5-1,.5-1h-30c-.7,1.7-3.9,1-5.5,1-72.5.6-145,0-217.5,0l-1.1.8c0-.3.1-.6.1-.9v-1c-2.1-1.6-1.9-.1-2.5,0-7.3,1.2-18.5-.4-26.5,0-1.5,0-2.8-.6-3,1l1.5,2c1.7.6,25.2.3,29.4,0-.7,4.4-.3,21,0,27-5.7-.7-21.3-.5-27.9,0,.2-4.4.3-23.4-.4-24.3-1.4-1.6-1.9-1.9-2.6.3v25.5c-.2.7-1,.5-1,.5-21,1.1-41.6,1.1-62,0h-1c-.4-10.3-.7-20.8-.7-31.5-21.1.4-41.8.3-62.3-.5h0c0,0-1,0-1,0-.5.5-1,1-1.4,1.6-2.1,3-1.4,25.2,1.4,29.4,11.1,0,21.7.3,32,1-2,4.1-3.5,28.5-2,30.7.4.5,2.5,1.7,3,1.3h127c-.5,1.3-.2,1.8,1,1,.9,9.8.8,20.7,0,30.7l1,.3c1.3.7,2.7.7,4,0,18-1.3,39-1.3,57,0,0,.4.2.7,1,1,.5,10,.6,20.2.6,30.5,10.6-.2,21,0,31.4.5.4.6.7.6,1,0,.4,10.3.7,20.7.8,31.3,20.4-.2,40.4,0,60.2.7.7.7,1.4.7,2,0,10,.8,20,.7,30,0,.8-2,.2-3.1-2-3.1-8.8.5-17.5.5-26.3,0l.4-26.8c.2-.8-.5-1.2-2.1-1.2,1.2-.2,1.6-.5,1-1,9.9-.3,19.6-.6,29-1l1-.7v-29.9c1.7-.5.9-1.1-1-1.4,21.9.1,43.2.5,64,1,.7.7,1.4.7,2,0,2-2.3,2-4.7,0-7-1-8.7-.9-17.1,0-25.3,0,0,0-.1.1-.2,42.6.3,84.9.1,126.8-.5-.2-10.8,0-21.1,1-31,.3.9.7.9,1,0l5.5-1c2.2-.9,24.5,1.2,24.5,0v-30h-61Z"/>
    <path class="st9" d="M387,257c21,.8,42,.8,63,0,.9-.5.9-.8,0-1,0,0-1.2-2-1.2-2.1h-58.8v-27l-2-.9c-.4-.6-.7-.7-1,0,.1,10.3-.2,20.7,0,31Z"/>
    <path class="st9" d="M770,480l-1,1c-.9.4-.9.7,0,1l-2,1.4v26.5c-9.4-.4-18.8.3-28,2.1-.5-.9-.8-.9-1,0-.9.5-.9.8,0,1h32c.3-10.6,0-21.4,0-32v-1Z"/>
    <path class="st9" d="M321.5,544c-3.9-.8-28.5,1-29.5,0-.9-.9,0-21.8,0-25.5s1-4.1-2-3.5v28l3,2.5c1.6-.7,4.6-.7,6.5-.5.6,0,3.5,2,5.5,1h6c2.9.3,5.9.7,9,1,.4.9.7.9,1,0,.1-.7.2-2.7,1-2,0,0,.2-.8-.5-1Z"/>
    <path class="st9" d="M227,546c.6,1.7,3.9,1,5.5,1,16.7,0,33.3,0,50,0,1.6,0,4.9.7,5.5-1-20.3,0-40.7,0-61,0Z"/>
    <path class="st9" d="M258,513h31v-1h.1c-.2-.5-.4-1-.7-1.3-1.1-1.1-25.9-.9-29.5-.7-.5,0-.9,1.2-.9,2v1Z"/>
    <path class="st9" d="M289,576h1c.7-1.4,0-24.7,0-30h-1v30Z"/>
    <path class="st9" d="M225,120.5v6l1,.5c.6-1.2,0-4.1,0-7l-1,.5Z"/>
    <path class="st9" d="M642,159c-.2-7.6,0-15.4,0-23-1.7.6-1,3.9-1,5.5v12c0,1.6-.7,4.9,1,5.5Z"/>
    <path class="st9" d="M705,673v63h-31c0,0,.2,1,0,1.5-.2.4-1,.7-1,1v61.5h-25.5c-1.6,0-4.8-.7-5.5,1,1.2-1,27.8.8,32,0v-60.5c0-.4,1.6-.5,0-2.5h32c0-20.9,1.6-45.8,0-65-.4-.9-.7-.9-1,0Z"/>
    <path class="st9" d="M642,804.5c1.7-1.2.3-1.1,0-2.5-1.7.7-1,3.9-1,5.5,0,3.4,1.1,23.4,0,24.5s-26.5-.8-30.5,0l-.5,1h32v-28.5Z"/>
    <path class="st9" d="M324,738h-1v63c1.7-.7,1-3.9,1-5.5.1-19.2,0-38.3,0-57.5Z"/>
    <path class="st9" d="M418,833c.9-.4.9-.7,0-1-.6,0-.9-1.1-2,0-1.1,1.1.9,27.8,0,32h1c-.2-6.4-1.2-25.6,0-30.5.1-.5.6-.5,1-.5Z"/>
    <path class="st9" d="M388,833.5c-.2-.7-.6-.5-1-.5v31h1v-30.5Z"/>
    <path class="st9" d="M354,705s.8.2,1-.5v-30.5h-1v31Z"/>
    <path class="st9" d="M450,897l-1.4-2c-5.5-.8-23.1-.7-28.7,0-.6,0-.9,1.2-.9,2-.4-.9-.7-.9-1,0-.9.5-.9.8,0,1h32c.9-.4.9-.7,0-1Z"/>
    <path class="st9" d="M483,866h0v1l1.2,2.1,26.8-.4c.1,9.3.1,18.5,0,27.8l2.1.5v1h1v-32c-10.3.2-20.7-.3-31,0Z"/>
    <path class="st9" d="M574,894.9c-8.1.3-16.2.4-24.3,0l.5-27.7c0-.8-.6-1.2-2.2-1.2h-1c-.2,6.5-1.2,26.5,0,31.5,0,.5.6.5,1,.5h28c.7-2.1.2-3.1-2-3.1Z"/>
    <path class="st9" d="M419,867h28.5c.7-.2.5-1,.5-1h-29v1Z"/>
    <path class="st9" d="M418,867v-1h-1c.1.7.1,1.1,1,1Z"/>
    <path class="st9" d="M609,899c-9.6-.8-20.6-.8-30,0v29h29c.5-7.6-.7-16,0-23.5,0-.5,1.9-3.4,1-5.5Z"/>
    <path class="st9" d="M611.9,895c-.6,0-.9,1.2-.9,2v1h30v-1h0l-1.4-2c-3.5-.8-23.3-.4-27.7,0Z"/>
    <path class="st9" d="M292,578c-.9.4-.9.7,0,1l1.5,2c1.4.5,20,.3,25.4,0-.5,6.2-.7,23,0,28,0,.2.2.4.4.5-9.2-2.1-18.2-2-27.4.4-.6-1.9-1.4-1.9-2,0-9.9-2.2-19.9-2.3-30-1.8v-28.3l-2-.9c.9-.4.9-.7,0-1h-1c-9.5,1.3-20.5,1.3-30,0h0s-1-1-1-1v65c1.2.2,1-1,1-1,10.1-1.4,20.4-1.4,31,0v1l.7,1.7c0,7.8.5,17.2,1.3,28.3,9.3.7,20,1,29,0,.4-9.8.7-19.8,1-30,.8-.3.8-.7,0-1,9.4-1.8,20.5-.9,30,0-1.1,1.3-.8,2,1,2v61.5c.2.7,1,.5,1,.5v-64c-1.3-9.8-1.3-21.2,0-31v-32h-28.5c-1.5-2-1.4,0-1.5,0Z"/>
    <path class="st9" d="M257,641h-1c.1,0,.5,2.1,1,0Z"/>
    <path class="st9" d="M258,771c.8-.4.9-.8,0-1-1.7.7-1,3.9-1,5.5,0,3.4.9,23.6,0,24.5s-27-.8-31,0l.5,1h31.5c0-9.6-.8-20.7,0-30Z"/>
    <polygon class="st9" points="271.5 224 258 224 258 225 272 225 271.5 224"/>
    <polygon class="st9" points="366.5 224 366 225 376 225 375.5 224 366.5 224"/>
    <polygon class="st9" points="323.5 224 323 225 330 225 329.5 224 323.5 224"/>
    <polygon class="st9" points="275.5 224 275 225 280 225 279.5 224 275.5 224"/>
    <polygon class="st9" points="340.5 224 340 225 344 225 343.5 224 340.5 224"/>
    <polygon class="st9" points="356.5 224 356 225 360 225 359.5 224 356.5 224"/>
    <path class="st9" d="M385,224l-1,1h2c.1-.3,0-.7,0-1-.4-.9-.7-.9-1,0Z"/>
    <polygon class="st9" points="349.5 224 349 225 351 225 350.5 224 349.5 224"/>
    <polygon class="st9" points="295.5 224 295 225 296 225 295.5 224"/>
    <path class="st9" d="M353,576c-1-1-28,1-29,0s.8-25.6,0-29.5c0-.7-1-.5-1-.5.8,4-1.1,29.9,0,31,.1,0,2-.3,2.5,1,9.1.3,18.4-.5,27.5,0,0-.7.1-1.9,0-2Z"/>
    <path class="st9" d="M355,603.5v-25c-.2-.7-.6-.5-1-.5-.8.5-.6,1.4,0,2v29c1.7-.7,1-3.9,1-5.5Z"/>
    <path class="st9" d="M289,763.5c0,1.6-.7,4.8,1,5.5v-63l-1,.5c0,19,0,38,0,57Z"/>
    <path class="st9" d="M676,928h27.5c.3,0,.7,1.2,1.5,1v-30h-29v29Z"/>
    <path class="st9" d="M673.5,224h-24c-1.6,0-4.8-.7-5.5,1h35c-.7-1.7-3.9-1-5.5-1Z"/>
    <polygon class="st9" points="683.5 224 683 225 697 225 696.5 224 683.5 224"/>
    <polygon class="st9" points="717.5 224 717 225 727 225 726.5 224 717.5 224"/>
    <polygon class="st9" points="756.5 224 756 225 760 225 759.5 224 756.5 224"/>
    <polygon class="st9" points="734.5 224 734 225 736 225 735.5 224 734.5 224"/>
    <polygon class="st9" points="767 225 768 225 767.5 224 767 225"/>
    <rect class="st9" x="484" y="899" width="29" height="29"/>
    <path class="st9" d="M515,706l.5,1h61c.7-.2.5-1,.5-1h-62Z"/>
    <path class="st9" d="M612.4,869c1.3.5,24.6.2,27.7,0,.6,0,.9-1.2.9-2v-1h-30v1c.3.8.6,1.7,1.4,2Z"/>
    <path class="st9" d="M416,904.5c-2.6-1.4.7-4.8,0-5.5-1-1-24.3.8-28,0v29h28c1.2,0-.9-21.3,0-23.5Z"/>
    <path class="st9" d="M666.5,897l5.5,1h1v-31h-29v30c0,1.1,20.4-.8,22.5,0Z"/>
    <polygon class="st9" points="610.5 482 705.5 482 706 481 610 481 610.5 482"/>
    <path class="st9" d="M325.5,482c29.1,1.6,59.7-1.2,89,0,2,.4,1.7-.2,2.5-1h-94c1.1,1.1.6.9,2.5,1Z"/>
    <path class="st9" d="M577,481c-.8-1.9-1.8-2-2,0-9.5-.5-19-.8-28.5-.8-.6,10.4-.8,21-.5,31.5,0,0,.4.3,1,.3,0,0,.8.2,1-.5.8-3.9-1-28.5,0-29.5s25.2.8,29,0c.4.9.7.9,1,0v-1c-.5-.9-.8-.9-1,0Z"/>
    <path class="st9" d="M740,672l-1,1v33c1.7-.7,1-3.9,1-5.5v-28.5Z"/>
    <path class="st9" d="M450,257.9v1c0,7.4,1.1,19.8,0,26.5-.1.4-1,.7-1,1s1.5,1,1,2.5h33c-.4,1.5-1.7,1.3,0,2.5v29.5c.6.6,2.3.6,2.8.2,1.2-.9.4-26,0-29.6l-1.8-1.6v-1l-1-1-1.2-2.1-28.7.5c-.2-9.3-.2-18.5,0-27.8l-2.1-.5h0c0-.1-1-.1-1-.1Z"/>
    <path class="st9" d="M386,319c8.4.4,16.1,1,24.5,1s4.9-.7,5.5,1c.5,1.2,2,2,3,1,0,0,.8-.2,1,.5v31.5c.7,2.8,4,2.9,4,0l24.5.9c-.3,20.6,0,41,.5,61.1h31c1.1-29.1,1.4-58,.9-86.8.5,1,.8.6,1.1-1.2,2.8-.5,3-6.2,0-6-.4,0-.9,0-1,0-10.2,1-20.5,1-31,0-.6-.5-.5-.4-1-1,0,0-.9.2-1-.5v-30.5h-62v29Z"/>
    <path class="st9" d="M642,257v-31h-1l-2,1.4v26.6h-59.1l-.9,2h-1v1c20.3-1.3,43.3,0,64,0Z"/>
    <path class="st9" d="M578,416c-1.2-19.4-.8-41-.4-61.3,1-.6,1.7-1.2,2-1.6,9.3.4,19.9.3,29.1-.1,0,0,.3-.4.3-1,.2-10,.5-20,1-30,.8-.5.9-.8,0-1l1.9-1.1c9.8.1,19.5.1,29.1.1,1.6.9,2.1.5,1-1l2-1.5c.5-1.5.3-23.6,0-26.6,0-.5-1.2-.9-2-.9.9-.4.9-.7,0-1-.4-.6-.7-.7-1,0-20.7.5-41.5.7-62.5.6.3,10.6,0,21.1-.5,31.4-.5.6-.4.5-1,1-9.7.4-19.5.7-29.5.7,0,10.5-.2,20.9.5,31.3-.8,10.3-.8,20.7,0,31-.5,10.4-.7,20.9-.5,31.4,10-.4,19.5-.2,28.5.6,1.4,1.7,2,1.7,2,0,.9-.5.9-.8,0-1Z"/>
    <path class="st9" d="M546,321v-31h-1l-2,1.5c-.9,4.2-.5,24.4,0,29.6,0,.6,1.2.9,2,.9h1v-1Z"/>
    <path class="st9" d="M738,258h31v29.5c.2.7,1,.5,1,.5v-31h-32v1Z"/>
    <path class="st9" d="M515,513c.7,1.7,3.9,1,5.5,1,5.5,0,19.7,1,24,0,.7-.2.5-1,.5-1-10-2.5-20-2.5-30,0Z"/>
    <path class="st9" d="M707,355h-1c-1.5,20.3-1.5,40.7,0,61,1.7.6,2.3.3,1-1v-60Z"/>
    <path class="st9" d="M387,448h1v-30h-1c-1,8.6,1.4,20.3,0,28.5-.2,1.1-1.2-.1,0,1.5Z"/>
    <path class="st9" d="M515,480c1.9-1.4,3.4-1,5.5-1,8.2-.3,16.4.2,24.5,0v-61h-31c-.9.4-.9.7,0,1v60.5l1,.5Z"/>
  </g>
  <g>
    <path class="st12" d="M578.5,578.7c.3,20.9,0,41.7-.5,62.3,0,0,.2.8-.5,1h-63.5v-32h-65v-32h-29l-.5,1c-4.1.8-30.4-1.1-31.5,0-1.1,1.1.8,27,0,31h31v31c0,.3,5.3-.2,6.5,0,2.3.4,4,.5,6,1,3.5.8,6.9-.8,9-1,1.5,0,9.2-.3,9.5,0,1.1,1.1-.8,27,0,31,21.4.3,42.7.7,64,1,0,0,.8-.2,1,.5v32.5c20.2.8,41.8.9,62,0,0,0,.8.2,1-.5v-32.5h32v-32c0-.3,4.6,0,5.5,0,4.1.5,3.2.4,7,0,2.4-.3,19.5,1,19.5,0v-31h32v-31c-31.7-.7-63.5-.8-95.5-.3Z"/>
    <path class="st12" d="M429.5,355h18.5v61h1v-62h-25c.6,1.7,3.9,1,5.5,1Z"/>
  </g>
  <g>
    <path class="st4" d="M802,129h-63v32c.6,1,1.7,1.5,2.3.8.9-1.2.9-23.7.7-29.8h56.9c-.6,4.5-.3,21.2,0,26.4l-20.9-.6c-4.2,0-6.5,1-7,3.2,1.3,1.3,6.3,1.8,8,0h13c1.5,2,6.7,1.3,9,0h1v-32h0Z"/>
    <path class="st4" d="M386,224c-.9.3-.9.7,0,1h2v-30.5c0-.7-1-.5-1-.5l-1,.7v29.3Z"/>
    <path class="st4" d="M296.5,162c18.7,0,37.3-.1,56,0,.7-.2.5-1,.5-1-20.5-.8-41.6,1-62,0,.6,1.7,3.9,1,5.5,1Z"/>
    <path class="st4" d="M706,904v-6h-1c-10-.8-20-.8-30,0-.9,1.3-1.8,2.7-1.9,4.3-.7,8.5-1.2,20.2,1.9,27.7h31v-25c.6-.4.6-.7,0-1Z"/>
    <path class="st4" d="M513,898c-3.9.8-28.9-1.1-30,0-1.1,1.1.9,27.8,0,32h31v-32c-.4-.9-.7-.9-1,0Z"/>
    <path class="st4" d="M642,707s-.8-.2-1,.5v28.5h-63v2c.4,1.5.8,1.8,1.2.5l62.5-.5.3-1c.4-10-.3-20,0-30Z"/>
    <path class="st4" d="M450,737v1c21.1.8,44.1.9,65,0v-2h-65v1Z"/>
    <path class="st4" d="M412.5,672h-24.5c0-18.5.1-37,0-55.5,0-1.6.7-4.8-1-5.5v62c4.6.4,29.8-1,31,0-.6-1.7-3.9-1-5.5-1Z"/>
    <path class="st4" d="M704,673c-.7-1.7-3.9-1-5.5-1h-23c-.7.2-.5,1-.5,1h29Z"/>
    <path class="st4" d="M392,898l5.5-1c1.8-.7,18.5.9,18.5,0v-30h-27.2c.5-.5,0-.9-1.8-1h-1c0,.7,0,1.1-1,1l.5,1h1.5c.4-.2.7-.3,1-.5v30.5c-.6-1.8-1.4-1.7-2,0,0,.5,0,1.5,0,2l1,1c.9,7.8,0,18.8,0,27-.8.5-.8,1.6,0,2h31v-32c-8.6-.6-17.4-.8-26,0Z"/>
    <path class="st4" d="M450,867c-.8,9.3-.9,19.5,0,29-.9.4-.9.7,0,1v1h32v-32h-1c-10.4.3-20.8.7-31,1Z"/>
    <path class="st4" d="M610,867c-10.2-.6-20.7-.7-31.5-.4-.3,10.7,0,21.2.5,31.4,9.6.8,20.6.8,30,0-.9.4-.9.7,0,1-4.9,4.9-3.6,19.2-2.9,26.4l1.9,2.6-1.5-2c-4.4-.8-21.8-.6-26.6,0-.2,0-.4.2-.5.4,2.1-9.2,2-18.2-.4-27.4.9-.5.9-.8,0-1-.4-.9-.7-.9-1,0-.7,10.8-.7,21.5-.5,32.3,0,1.6,30,.6,31.5.3.4,0,.7-.3,1-.6v-1c1-10.3,1-20.7,0-31,.8-10.3.8-20.7,0-31Z"/>
    <path class="st4" d="M290,642l-1,5.5c-.9,2.2,1.2,24.5,0,24.5h-29c0-8.8.1-17.7,0-26.5,0-2,1-4.1-2-3.5h0c.3,5.6-.3,11.1,0,16.6.2,4.3,1.3,9.3,1,14.5,10.3-.3,20.7.4,31,0,.9-.2,1.3-.7,1.1-1.5l-.3-26.6c1.6-2.5,2.5-4-.9-3Z"/>
    <path class="st4" d="M257.5,640h-25c-1.6,0-4.9-.7-5.5,1,1.3-.5,27.7-.6,29,0,.4.5.7.6,1,0h1c0-.4.1-.8-.5-1Z"/>
    <path class="st4" d="M232.5,579h19c1.6,0,4.9.7,5.5-1h-30c.6,1.7,3.9,1,5.5,1Z"/>
    <path class="st4" d="M252.5,449c2.2,0,3.5.4,5.5,1,0-.6,1.1-.9,0-2-1.1-1.1-27.9.9-32,0,.1.8.1,1.1,1,1,8.4.4,17.2-.5,25.5,0Z"/>
    <path class="st4" d="M252.5,160h-26.5v1h32c-.6-1.7-3.9-1-5.5-1Z"/>
    <path class="st4" d="M673,544c-19.2,0-38.3,0-57.5,0-1.6,0-4.8-.7-5.5,1h64v-32h64v-1h-65v32Z"/>
    <path class="st4" d="M386,289h-63c-.8.8.5,19,0,22.5-.3,2-1.6,1,0,4.5.5,1.2.6,2.5.6,3.9,20.9.6,41.7.3,62.4-.9l2-1.5c.7-4.4.6-19.6.1-25.5h57.7l.3,28.5c.7,2.3,2.3,2.9,2.9.5v-1l1-3v-5c-.6-.9-.6-1.1,0-2v-13c-.3-2.7-.6-5.4-1-8h-60c-1-.7-2-.7-3,0Z"/>
    <path class="st4" d="M482,257c-.6-1.7-3.9-1-5.5-1-3.7,0-24.5,1-25.5,0s.8-25.6,0-29.5c0-.7-1-.5-1-.5v31c10.5.8,21.4.6,32,0Z"/>
    <path class="st4" d="M443.5,224c-15.3-.1-30.7-.1-46,0-1.6,0-4.9-.7-5.5,1h57c-.6-1.7-3.9-1-5.5-1Z"/>
    <path class="st4" d="M770,289h0l-1.4-2c-1.1-1-25.4-.2-28.7,0-.6,0-.9,1.2-.9,2-1.9,1.5-1.1,2.9,1.1,3h27.4c-1.1,20.7-.6,41.4,1.5,62h1c1.7-3.5-1.7-26.3,1-32,.6-10.7.2-21.4-1-32,.7-.3.7-.7,0-1Z"/>
    <path class="st4" d="M641,212.5l1,5.5v-17l2.7-7.5c41.6.3,83,0,124.3-.5h1c.8-4.2-1-30.8,0-32-1.7.6-1,3.9-1,5.5v25.5h-128c-1,0,.8,18.5,0,20.5Z"/>
    <path class="st4" d="M577,257h1c.9-.4.9-.7,0-1,.5-9.8.7-19.6.5-29.6,20.5-.8,41-1.3,61.5-1.4-.7-1.7-3.9-1-5.5-1-19.5-.1-39,0-58.5,0v32c0,1.2-21.3-.9-23.5,0l-5.5,1c9.6.8,20.3.8,30,0Z"/>
    <path class="st4" d="M483,258l-2,1.4c-.6,1.9-.3,24.3,0,27.7,0,.6,1.2.9,2,.9,0,2,.3,2.3,1,1,20,.8,40,.8,60,0-.7-1.7-3.9-1-5.5-1-18.2-.1-36.4,0-54.5,0v-30.5c-.2-.6-.6-.5-1-.5-.9.4-.9.7,0,1Z"/>
    <path class="st4" d="M347.5,512c-18.5-.1-37,0-55.5,0-.8-4,1.1-29.9,0-31,0-.1-1.4,0-2,0v32h63c-.6-1.7-3.9-1-5.5-1Z"/>
    <path class="st4" d="M412.5,544c-19.2,0-38.4,0-57.5,0v-29.5c0-.7-1-.5-1-.5v30.5c.2.7,1,.5,1,.5h63c-.6-1.7-3.9-1-5.5-1Z"/>
    <path class="st4" d="M321,615.5v20c0,1.6-.7,4.8,1,5.5v-31c-1.7.7-1,3.9-1,5.5Z"/>
    <path class="st4" d="M673,898h1c.8-.5.7-1.3,0-2v-7c.8-1,.8-2.9,0-4v-19h-32v29.5c1.8,1.2.2,1.1,0,2.5h30c0,0,0-.1,0-.2.3.1.7.2,1.1.2ZM664.7,894.8l-18.6.5c.7-4.5.5-20.2,0-26.2,3.5.3,19.8.2,24.8,0-.5,6-.7,21.5,0,27.3-1.3-1.2-3.3-1.7-6.2-1.5Z"/>
    <path class="st4" d="M676,578h.1,0s0,0,0,0Z"/>
    <path class="st4" d="M706,610v-32h-29.9c.7,1.7,3.9,1,5.5,1h23.5v94h1c.5-.7.9-1.4.9-2.1.5-19,.3-39.7,0-58.8,0-.7-.5-1.4-1-2.1Z"/>
    <path class="st4" d="M289,579c-1.1-1.1-27,.8-31,0v29.5l1.5,1.5h30.5v-1l-1-.5c-.8-3.9,1.1-28.4,0-29.5Z"/>
    <path class="st4" d="M314.5,640h-19c-1.6,0-4.9-.7-5.5,1,1.1-1,26.1.7,30,0-.6-1.7-3.9-1-5.5-1Z"/>
    <path class="st4" d="M706,450c-.4-.6-.7-.7-1,0-31.8.3-63.5.7-95,1v30c31.4.9,64.7.9,96,0-.5-10.1.7-20.9,0-31Z"/>
    <path class="st4" d="M417,451l-.7-1c-31.4.2-62.5.6-93.3,1-.2,9.4-1.5,18.1-1,27.5.1,1.9,0,1.4,1,2.5,31.4,1,62.7,1,94,0,1.1-1.1.9-.6,1-2.5.2-4,.2-8.9,0-13-.2-4.3-1.4-9.3-1-14.5Z"/>
    <path class="st4" d="M321,321h0c-4,.7-29.9-1.2-31-.1-.7.7,1.5,2.8,1,4.5-1.8,6.1.1,12.3-1,17-.5,2.5.5,6.4,0,9,0,.4-.8.6-1,1-.2.5.1,1.5,0,1.5h-31v63h31c.1-21.5.5-42.5,1-63,.4,1.7,2.1,1.7,5,0,.1-.6.2-1.1.4-1.1,8.4-.4,17.6-.2,25.9.2.6-10.8.5-21.5-.3-32Z"/>
    <path class="st4" d="M290,417v32h31c.7-10.3.8-21,.4-31.5-10.3,0-20.4-.1-30.4-.5-.5-.9-.8-.9-1,0Z"/>
    <path class="st4" d="M707,418c-.8,9.6-1.6,20.8,0,30,10,.8,20.8.9,31,0v-30l-.7-1c-10.3.3-20.4.7-30.3,1Z"/>
    <path class="st4" d="M515,546c-9,0-18.6.5-27.5,0-2.2,0-3.5-.5-5.5-1v2c19.5,0,39,.2,58.5,0,1.6,0,4.8.7,5.5-1-10,.5-20.9,0-31,0Z"/>
    <path class="st4" d="M449,477.5l1-5.5c.7-.5.9-1.7,0-2-.2-6.7-.5-13.4-1-20h-1c.1,19.1,0,38.3,0,57.5,0,1.6-.7,4.8,1,5.5-1.1-1.4.9-30.9,0-35.5Z"/>
    <path class="st4" d="M547,513c-1.2,1.2.9,28.7,0,33,.4,0,.8.2,1-.5.8-4.1-1-30.5,0-31.5s24.7.8,28.5,0c.7-.2.5-1,.5-1-1.1,1.1-28.8-1.2-30,0Z"/>
    <path class="st4" d="M455.5,514h26.5v-1c-10.2,0-22,.8-32,0,.6,1.7,3.9,1,5.5,1Z"/>
    <path class="st4" d="M744,354h-4v62h29v-62h-1c-7.6,1.2-16.4,1.2-24,0Z"/>
    <path class="st4" d="M640,289h-62v32s.8.2,1-.5v-30.5h61.5l.5-1h-1Z"/>
    <path class="st4" d="M548,354v-31h28.5c.7-.1.5-1,.5-1h-30v32c.4.9.7.9,1,0Z"/>
    <path class="st4" d="M738,258c.9-.4.9-.7,0-1h-95l-1,2v4c.6.9.6,1.1,0,2v5c.9,2,.7,5,0,7v2c.7,1,.7,2,0,3v6c-.9.4-.9.7,0,1v30c.2.6.5,1,.7,1,20.8.3,42.3.2,63-.5l.3-.5v-30h-62v-31h94Z"/>
    <path class="st4" d="M448,416c.5-20.4.7-40.8.5-61.3-8.8.3-17,0-24.5-.7h-4v94h28v-32Z"/>
    <path class="st4" d="M707,354h31v-33h-31c-.8,10.6-.8,22.3,0,33Z"/>
    <path class="st4" d="M321,354l-.5-1h-12l-.5,1c4.2,0,8.9.3,13,0Z"/>
    <path class="st4" d="M481,322c-.2-.1,0-1.9-1.5,0h-29.5s-.2.9.5,1h25c1.6,0,4.9.7,5.5-1Z"/>
    <path class="st4" d="M706,321v-1h-1.5l-.5,1h1c.5.9.8.9,1,0Z"/>
    <path class="st4" d="M578,416v-61c10.3-.7,21-1,32-1,.8-.4.9-.8,0-1,.2-10.3-.2-20.7,0-31-1.9.7-.8,3.9-1,5.5-.8,6.6-.4,7.8,0,14,0,1.3.5,10.5,0,10.5h-31c-.2,0,.3,2-1,2.5,0,18.7,0,37.3,0,56,0,1.6-.7,4.9,1,5.5Z"/>
    <path class="st4" d="M610,319c0,0,0,1.3,0,2h24l.5-1c2.1-.2,4.5.3,6.5,0l-5.5-1c-3.4.7-24.6-.9-25.5,0Z"/>
    <path class="st4" d="M515.5,477.5c-.6.6-.5,1.6-.5,2.5v1h31v-1l-1-1c-3.2-2.7-28.3-2.7-29.5-1.5Z"/>
    <path class="st4" d="M514,419v-1h-30v61h29c0-18.1,0-36.3,0-54.5,0-1.6-.7-4.9,1-5.5Z"/>
  </g>
  <g>
    <path class="st0" d="M386,130c.4.9.7.9,1,0,5.6.5,11.1,1,16.7,1.3,5.6.3,11.1.7,16.7.7,62.8.3,127.4.4,188.4,0l1.2-3h-224c-.9.4-.9.7,0,1Z"/>
    <path class="st0" d="M383,259.4v28.7l2,.9c.4.4.8.5,1,0,.9-.4.9-.7,0-1l2.5-.5c-3-6-2-18.9-.5-23.5,2.5-.8,2.7-1.7,0-2l-1-4c.9-.5.9-.8,0-1h-96l1.2,3c30.1.3,60.4,0,90.8-.6Z"/>
    <path class="st0" d="M289,160.5c.2.6.6.5,1,.5v-32h-63c.6,1.7,3.9,1,5.5,1,18.8,0,37.7,0,56.5,0v30.5Z"/>
    <path class="st0" d="M642.5,162h95c.7-.2.5-1,.5-1-.9,0-1-.9-2-1-1.2-.2-1.8,0-2.5,1h-88.5c-.9-1-1.5-1.4-2,0h-1c0,.4,0,.9.5,1Z"/>
    <path class="st0" d="M417,866h0c-10,0-20,0-30,0v2c0,9.2,1.1,21.7-1,30h2c.8-.2,1.6-.6,2-1.4.6-1.2.3-21.6,0-27.5,3.2.4,18.9.1,23.9,0-.6,5.5-.6,20.3,0,26.1-5.1-.5-18.2-.7-21.4.7l-.5,2.1c8.6,0,17.4,0,26,0v-1c.8-9.6.8-20.6,0-30l-1-1Z"/>
    <path class="st0" d="M450,866v1h30.5c.7-.2.5-1,.5-1-10.3.3-20.7-.3-31,0Z"/>
    <path class="st0" d="M610,866v-1c-1.9,1.4-3.4,1-5.5,1-8.8.3-17.7,0-26.5,0-.9.5-.9.8,0,1-.8,10-.8,20,0,30-.9.5-.9.8,0,1h1v-31h31c.6-.5.7-.8,0-1Z"/>
    <path class="st0" d="M289.9,578.1c-10,.7-21.8,0-32,0v1l1.2,2.1,27.8-.5c.2,9.1.2,18.2,0,27.3,0,1.5,1.8,1.7,3.1,1,1.9-9.6,1.3-21.3,0-31h0Z"/>
    <path class="st0" d="M770,354c-.4-.9-.7-.9-1,0-2.5,20.6-2.5,41.4,0,62l-1.5-2c-4.3-.7-19.6-.6-25.5-.1v-59l-2-.9c-.4-.9-.7-.9-1,0-1.2.2-1.7.6-1,1.2v60.5l1,.3s-.2.8.5,1h30.5c0-8.2-1.3-60.1,0-63Z"/>
    <path class="st0" d="M418,578h.2c0,0-31,0-31,0-.4,10.5,0,21.5,0,32h1l2.1-1.2-.5-27.8c9.7-.2,19.4-.2,29.2,0,2.1-.4,2.6-1.5,1-3.1h-2Z"/>
    <path class="st0" d="M578,578v63s.8.2,1-.5v-61.5h95l1-1h-97Z"/>
    <path class="st0" d="M513.5,672h-63.5l.5,1h63.5s.2-.8-.5-1Z"/>
    <path class="st0" d="M450.8,418.3c9.7-.7,19.4-1.1,29.3-1.3.9-.4.9-.7,0-1-.2-.5-.4-1-.7-1.3-1.1-1.1-25.9-.9-29.5-.7-.5,0-.9,1.2-.9,2-.4-.9-.7-.9-1,0-2.5,10.7-2.5,21.3,0,32l-1.5-2c-3.7-.7-21.4-.5-25.6,0-.4,0-.7.7-.8,1.4,2.9-31,3-62.4,0-93.4h.1c2.5-10.6,2.2-21.3,1.7-32.1-.1-1.4-2.7-1.9-2.7,0l-1.3.7c.2,30.5.4,61,.4,91.6l-1.1,2.7c-.9.4-.9.7,0,1,.9,9.4,1.4,19,1.1,28.5l.9.5c-.6,3,1.5,2,3.5,2,6.1,0,20.3-1.2,25,0,.5,0,.6.6.5,1,.4.9.7.9,1,0-.1-11.5.2-22.5,1-33l.7,1.3Z"/>
    <path class="st0" d="M323,316s0,0,.1,0c0,0,0,0,0,0h-.1Z"/>
    <path class="st0" d="M323.4,351.2c-.3-9.4-.4-19-.4-28.5.1.2.6.2,1.7-1.2,30.8.3,61.3.1,91.3-.5.4-.9.7-2.2,0-2.6-1.2-.8-22.6-1.3-25.7-1.2l-4.3,1.8c-19.9-.9-40.6.9-60.5,0-3,0-.3-2.2-2.4-3,.6,1.3-.8,4.6-2,5-.8,4,1.1,29.9,0,31-1.1,1.1-26.1-.8-30,0l4,2c4.2.8,8.8.8,13,0,3.9-.8,9-.7,13,0,.4.6.7.7,1,0,1.1,0,1.5-1,1.3-2.8Z"/>
    <path class="st0" d="M606.1,415.8l-25.9.2c-.8-1.9-1.7-1-2.2,1-.8,20-.8,40,0,60-.7,1.3-.7,2.7,0,4,.4-.1.8,0,1-.5v-62.5h30v30.5l1,.5,1.3-.7c-.6-10.1-1.1-20.2-1.3-30.3h0c.8-1.7-.5-2.4-3.9-2.2Z"/>
    <path class="st0" d="M417,449c-2.8.2-5.7-.2-8.5,0-6.5.6-13.4,1-20.5,1-.5-.9-.8-.9-1,0-21.3-.7-42.7-.9-64,0v1h94c0-.6,0-1.6,0-2Z"/>
    <path class="st0" d="M736,416h-28.5c-.8,0-1.4.2-1.5,1-.5.4-.6.8,0,1-1.1,3.2-2.4,29.2-1.5,30.4.3.4.9.5,1.5.6,8.8-.1,17.7,0,26.5,0s4.8.7,5.5-1h-31v-30h31v-2h-1c-.5-.9-.8-.9-1,0Z"/>
    <path class="st0" d="M700,450c-2.7-1.6-10.5-1.7-13,0-1-.8-2.9-.8-4,0-.4-1.5-3.1-1.6-3,0-23.3-.8-46.7-.7-70,0v1h94.5l.5-1c-1.2-.8-3.7-.8-5,0Z"/>
    <path class="st0" d="M289,359.5c0,19.2.1,38.4,0,57.5h1c.8-20.6.9-41.4,0-62,.8-.4.9-.7,0-1-1.7.6-1,3.9-1,5.5Z"/>
    <path class="st0" d="M293.5,418c4.1.2,26.4-1.1,27.5,0,1.1,1.1-.8,27,0,31h1v-32h-31c.4,1.6,1.2,1,2.5,1Z"/>
    <path class="st0" d="M707,354v-33h-1c-.8,10.6-.8,21.4,0,32v1h1Z"/>
    <path class="st0" d="M704,321l2-1v-1h-64c0,1-.3.9-1,1-2.3-.2-4.5-.4-6.8-.4-.9,0-.9.6-.2,1.4h70Z"/>
    <path class="st0" d="M749.5,355h13c1.6,0,4.8.7,5.5-1h-24c.7,1.7,3.9,1,5.5,1Z"/>
    <path class="st0" d="M570.5,416h-22.5v-31h-1c-1.6,2.7-1.7,10.5,0,13-.7,6.3-.8,12.7,0,19h29c-.7-1.7-3.9-1-5.5-1Z"/>
    <path class="st0" d="M546,417c-.5-.9-.8-.9-1,0h0c-20.7,0-41.4,0-62,0v64h32c.9-.4.9-.7,0-1l.3-1.2c.8-18.8,1.4-39.6.7-58.9,0-.5-1.2-.9-2-.9-.9-.5-1.8-.5-2.6,0-1,19.1-1.4,40.3,1.6,59.9l-1.5-2c-4.3-.7-19.6-.6-25.5-.1v-58l-2-.9c10,2.5,20,2.5,30,0,9.5,2.1,19.3,2.4,29,1.9v58.2l2,.9c-.7,1.4-.2,1.8,1,1,.3-5.1,0-10.8,0-16,.4-.4.5-.8,0-1v-44c.7-.6.7-1.3,0-2Z"/>
  </g>
  <g>
    <path class="st8" d="M512.6,928c-1.4-.5-25.5-.2-28.7,0-.6,0-.9,1.2-.9,2-.8-2.5-1.7-2.7-2,0-1-1-2.7-1.4-5.2-1-8.1-.3-17.4-.3-25.5,0,0,0-.3.4-.3,1,.1.4,0,.8.5,1h63.5v-1c-.3-.8-.6-1.7-1.4-2Z"/>
    <path class="st8" d="M450,899c.9-.5.9-.8,0-1-10.6-.8-21.4-.8-32,0-1.8,9.9-2.5,19.9-2.1,30h-28l-.9,2v1h30.5c.3-.5,1.5-1.2,1.5-1.5v-30.5c3.9.8,28.9-1,30,0,.5.5-1.1,4.6,1,5v-5Z"/>
    <path class="st8" d="M578,930v-32c-1.3-2.4-1.5-2.8-2,0-9.5-.7-18.8-.7-28,0v1c9.6.2,19.4-.2,29,0v32h27.5c1.6,0,4.8.7,5.5-1-1.2,1-27.8-.8-32,0Z"/>
    <path class="st8" d="M642,898c-.5-.9-.8-.9-1,0-10-.8-20-.8-30,0-.4-.9-.7-.9-1,0,0,9.9.8,21.3,0,31l1-5.5c.9-2.2-1.2-24.5,0-24.5h30v25.5c0,1.6-.7,4.8,1,5.5.5-10.2-.7-20.9,0-31,.8-.4.9-.8,0-1Z"/>
    <path class="st8" d="M708,899c0-1.4-1-.9-2-1-2.8.5-3,6.4,0,6,.5.3.5.6,0,1-1.7,7.9-2.4,15.9-1.2,23.9-9.9-1.4-20-1.1-29.8,1.1-.9-1.9-2.1-1.9-3,0-9.3,0-20,.7-29,0,.7,1.7,3.9,1,5.5,1,19,0,38,0,57,0,.5-1.3,1.4,0,2.5-1s-.8-27,0-31Z"/>
    <path class="st8" d="M385,226c1,0,.8-.5,1-1-.6-.8-1.2-.5-2,0-2.6-2-5.4-2-8,0-3.3-.7-6.7-.7-10,0-2-2-4-2-6,0-1.3-.7-2.7-.7-4,0-1.6-1.9-3.4-1.9-5,0-.6-.7-1.3-.7-2,0-1.6-1.9-3.4-1.9-5,0-1.3-.7-2.7-.7-4,0-3.3-2-6.7-2-10,0-2.3-.7-4.7-.7-7,0-9-2-18-2-27,0-.4-.4-.8-.5-1,0-5-2-10-2-15,0-1.6-.7-3.3-.7-5,0-.9-1.9-2.1-1.9-3,0-4.6-.7-9.3-.7-14,0h-9v1c45.3-.3,90.7.2,136,0Z"/>
    <path class="st8" d="M674,896l1,2c9.9,0,20.2-.4,30,0,0-.9-.2-1-1-1-4.3-.5-26.9,1.1-28,0s.8-26.5,0-30.5c-.2-.7-1-.5-1-.5-.4-.9-.7-.9-1,0l-1.3.7c.7,6,1.1,12.1,1.3,18.3.8,1.2.6,2.7,0,4-.7,2.3-.7,4.7,0,7Z"/>
    <path class="st8" d="M784,225c-3.6-.8-8.4-.9-12,0h-2c-.8-2.5-1.7-2.7-2,0-.4-.6-.7-.6-1,0-.6-2.9-6.7-3-7,0-1-.8-2.9-.8-4,0l-1.4-2h-17.4l-1.2,2c-.5-.8-1.3-.7-2,0-.6-2.9-6.7-3-7,0-2.8-.8-7.1-.9-10,0l-1.4-2h-17.4l-1.2,2c-4.7-.7-9.3-.7-14,0-1.3-1.9-2.7-1.9-4,0-11.7-.8-23.3-.8-35,0-.6-1.9-1.4-1.9-2,0-.9.5-.9.8,0,1,.6,1.9,1.4,1.9,2,0h157v-1h-17Z"/>
    <path class="st8" d="M388,258h60l2,1c.7-.5.7-.8,0-1,.9-.5.9-.8,0-1h-63v1c.4.9.7.9,1,0Z"/>
    <path class="st8" d="M546,290c10.3,2.5,20.6,2.5,31,0l-2,1.4c-.6,1.9-.3,24.3,0,27.7,0,0,0,0,0,0-7.2-2-27.8-1.8-28.4-.4l-.6,2.2c-.6.4-.7.7,0,1,.4.9.7.9,1,0l.7,1.3c9.5-.7,19.3-1.1,29.3-1.3,1.8,1.1,2.3.5,1-1,.8-10.6.8-21.4,0-32h-32c-.9.4-.9.7,0,1Z"/>
    <path class="st8" d="M258,770v1c10.2-.8,22,1.1,32,0v-1c-4.2.8-30.8-1-32,0Z"/>
    <path class="st8" d="M579,258h62v30c.4.6.7.7,1,0,1.5-.8,1.6-6,0-6,.8-.8.7-2.2,0-3,1.5-.4,1.5-2,0-2,.8-1.8.8-5.1,0-7,1.5-.6,1.6-4.8,0-5,.8-.5.7-1.4,0-2,1.5-1.3,1.5-2.7,0-4,.7-.6.7-1.3,0-2-21.2-.8-42.8-1.5-64,0v1c.4.9.7.9,1,0Z"/>
    <path class="st8" d="M515,481c-1.3-2.3-2.1-2.6-2.1-1h-27c-1.8-.8-2.8-.7-2.9.2-.6-20.5-1-41.6-1-63.2-.8-2.5-1.7-2.7-2,0h-29.9c-1,17.5-.6,35.5,0,53,.1.6,0,1.3,0,2,0,1.6-.4,8.6,0,9,.4.4,8.5,0,10,0l-.5-1c-1.2-.3-8.5.4-8.5,0v-62h30v63c2.2,4.6,1,24.8,1,32h1c2.1-9.5,2.3-19.3,1.8-29h59.2l.9-2c1.5,1.1,1.8.6,1-1-9.2-1.6-21.8-1.7-31,0Z"/>
    <polygon class="st8" points="472.5 480 472 481 475 481 474.5 480 472.5 480"/>
    <path class="st8" d="M322,354h-1c-4.1-.7-8.9-.8-13,0h-13c-1.1-.1-4.8-.3-5-.1,0,.1,0,.7,0,1,.5,19.8.9,40.1,1,61,0,0,.8.2,1-.5.4-1.7,0-5.4,0-7.5,1.1-2.6,1.8-5.3,2.1-8.1v-42.9h27.4c2.4-.7,2.9-2.3.5-2.9Z"/>
    <path class="st8" d="M706,355v-1c.6-.5.7-.8,0-1-.6-10.3-1-21-1-32-.4-.4-.8-.5-1,0-23.3-1.6-46.6-1.5-69.9,0-.2-.5-.5-.9-.7-.9-3.2-.2-21.1-.8-22.9-.2-.3.1-.5.6-.5,1.1v1c-1,10.3-1,20.6,0,31,.6,1,1.7,1.6,2.3.8.9-1.2.9-23.7.7-29.8h90.3l.7-2c-2.5,11-2.5,22,0,33,.8,2.5,1.7,2.7,2,0Z"/>
    <path class="st8" d="M674,449c.9-.4.9-.7,0-1-20.7-.8-41.3-.9-62,0,.9-4.6,2.6-26.5.5-28.8-.5-.5-1-.8-1.5-1.2h-1v31c21.3.2,42.7-.3,64,0Z"/>
    <path class="st8" d="M549.2,420h26.3c-1.1,19,0,38,1.5,57,.4.9.7.9,1,0v-60h-2c-9.7-.8-19.3-.7-29,0-.7.5-.8,1.7,0,2h1c1.4,0,1.8.3,1.2,1Z"/>
    <path class="st8" d="M387,449c0-.3.1-.8,0-1,1-10,1-20,0-30l-1-1c-.4,0-.8-.1-1,.5v30.5h-61v-30.5c-.2-.7-1-.5-1-.5,0,10.6.2,21.4,0,32h64Z"/>
    <path class="st8" d="M545,417h1c0-6.6.3-12.9,1-19v-13h-2v2c-2,9-2,18,0,27v3Z"/>
    <path class="st8" d="M482,416c.9,0,1-.2,1-1,.9-.5,1.9-1.1,2.2-2.1.8-2.5,0-19.7-.3-23.5l-1.9-2.4v-2c-1.7.6-1,3.9-1,5.5v25.5Z"/>
    <path class="st8" d="M610,354h-26.5c-1.6,0-4.8-.7-5.5,1h2c9.8-.4,19.7.3,29.5,0,.7-.2.5-.6.5-1Z"/>
  </g>
  <g>
    <path class="st11" d="M417,864c-.4-.9-.7-.9-1,0-9.3.3-18.7-.4-28,0-.4-.9-.8-.9-1,0-.7,0-1.1,0-1,1v1c.5.9.8.9,1,0,10,.8,20,.8,30,0,2.5-.8,2.6-1.5,0-2Z"/>
    <path class="st11" d="M225,322c-4.1-1.5-9-1.7-13,0-2.5-3-9.4-2.8-12,0-2.1-.1-3.4-1-4-1-.4-.5-.8-.6-1,0h-1v33l1.4,2c4.6.9,23.5.5,28.7,0,.6,0,.9-1.2.9-2,.8-10.3.8-21.9,0-32Z"/>
    <polygon class="st11" points="226 192.9 226 193 226 193 226 192.9"/>
    <path class="st11" d="M249,224.9c3,.7,6,.7,9,0,.9-.4.9-.7,0-1l1.8-1.5c.3-3.5,1.3-28.1.3-29.1-.8-.8-4.2-2.3-5.7-2.7-3.2-.7-22.9.1-27.5.5-.5.1-.8,1.2-.9,1.9v31.9h23Z"/>
    <path class="st11" d="M737.1,547.9c.5-.1.7-1.2.9-1.9v-33h0c-10.7-.8-21.3-.8-32,0l-1.8,1.5c-.4,4.5-1.2,31.4.7,32.9,1.7,1.4,28,.8,32.2.5Z"/>
    <path class="st11" d="M291.3,512.3c-.3-10.3-.5-20.6-.3-31l-1-.3c-10.6-.4-21.4.3-32,0-.3-10.3.4-20.7,0-31h.1c0,0-.2-1-.2-1-10.2-1-20.5-.9-30.8,0l-1,2,1.4,2c4.3.8,21,.5,27.5,0-.4,4.3-.2,23.8.1,27,0,.3.4.5.8.7-9.9-1.8-19.9-1.7-29.8.2-.8,10.4-.8,20.7,0,31,10.7-.1,21.1.2,31,1h1c.9-.4.9-.7,0-1l2-1.4c.5-4.7.8-20.7.2-26.6,4.5.2,21.2.3,26.7-.3-.7,5.6-.6,22.3,0,27.4.1.6,1.2.9,2,.9-.9.4-.9.7,0,1h1l1.3-.7Z"/>
    <path class="st11" d="M769,707.5c0,18.3,0,36.7,0,55,0,1.6-.7,4.8,1,5.5v-61s-.8-.2-1,.5Z"/>
    <path class="st11" d="M513,897l-1.2-2.1-26.8.4c0-9.3,0-18.5.1-27.8l-2.1-.5h.1c.9-.4.9-.7,0-1h-1l-2,1.5v28.4c-10.1-.4-20.1.3-30,2.1v1c4,.8,29.9-1.1,31,0,1,1-.8,25.2,0,29v2h2l2.1-1.2-.5-28.7c9.7.2,19.1,0,28.3-.7v-1.4c.6-.4.7-.7,0-1Z"/>
    <path class="st11" d="M385.3,610.5c-10.4.5-20.5.4-30.3-.5h-.9c-.6.2-1,.5-1,.7-.4,20.8-.3,42.2,0,63,0,0,.4.3.9.3.4.9.7.9,1,0,3.8-.8,28,1,29,0,.1,0,.1-2.9,1-2,.6-.2,1-.5,1-.7.4-20,.4-41.6-.7-60.8Z"/>
    <path class="st11" d="M578,769c1.7-.7,1-3.9,1-5.5v-24.5h63v-2l-64,1c-.4,10.3.5,20.7,0,31Z"/>
    <path class="st11" d="M578,866c10.4.9,21.2.8,31.4.3l.6-1.3v-1h-32v2Z"/>
    <path class="st11" d="M450,706h-31s-.2.8.5,1c3.9.8,28.5-1,29.5,0s0,21.1,0,24.5-.7,4.8,1,5.5v-1c-.2-10,.2-20,0-30Z"/>
    <path class="st11" d="M418,674c-1.7.7-1,3.9-1,5.5v25c.1.7,1,.5,1,.5-.6-10.1.8-21,0-31Z"/>
    <path class="st11" d="M642,866h-1c-.9.4-.9.7,0,1l-2,1.4c-.6,1.9-.3,24.3,0,27.7,0,.6,1.2.9,2,.9-.9.4-.9.7,0,1h1c1.7,0,2.1-.9,1-2.8v-27.7c1.7-.6.9-1.2-1-1.5Z"/>
    <path class="st11" d="M226,355c-1.7.6-1,3.9-1,5.5,0,18.8,0,37.7,0,56.5h1v-62Z"/>
    <path class="st11" d="M771,161h-1c-.3,10.8-.7,21.2-1.3,31.4l1.3.6h2v-31c1.4,1,2,.9,3.5,1,1.9.2,4.1.9,3.5-2-2.6,0-5.5-.2-8,0Z"/>
    <path class="st11" d="M792,161c0,.6,0,1.9,0,2,.3.4,9.2.7,9-2h-9Z"/>
    <path class="st11" d="M258,320.5v-31.5h-1v32s.8.2,1-.5Z"/>
    <path class="st11" d="M610,158.5c0,1.1-.5,2.5,1,2.5v-31l-1,.5c.4,9.2-.5,18.8,0,28Z"/>
    <path class="st11" d="M385,224h1c0-.1.8.2,1-.5v-29.5c0-.1.1-1.2-1-1h-126l125,1v30Z"/>
    <path class="st11" d="M769,481h-31v31h1c.8-3.9-1.1-28.9,0-30,1.1-1.1,26.1.8,30,0v-1Z"/>
    <path class="st11" d="M355,545c.2.5,0,1.4,0,2h59.5l2.5-1v30c-3.9.8-28.9-1.1-30,0,0,0,0,1.3,0,2,10.3.5,20.7.9,31,0,.1-1.1-.2-2.5,0-3.5.1-.4,1-.6,1-1,.5-2.8-1-4.7-1-5v-17c0-.2,1.6-1.4,1-4,0-.5-1.5-.9-1-2.5-20.7-.9-42.7-.8-63,0Z"/>
    <path class="st11" d="M292,610l2-1.4c.5-8.3.6-20.4,0-28.7,0-.6-1.2-.9-2-.9v-1c-.3.2-1.4,0-2,0-.7,10,.5,20.9,0,31-.9.4-.9.7,0,1h2Z"/>
    <path class="st11" d="M449,890.5c0,1.6-.7,4.8,1,5.5v-29l-1,.5v23Z"/>
    <path class="st11" d="M320,641c-10.1-.9-20.1-.9-30,0v1c.3,1.4,1.7,1.3,0,2.5v28.5c.6,0,.9,1.1,2,0,1.1-1.1-1-29,0-30s25.2.8,29,0c0-1,.4-2-1-2Z"/>
    <path class="st11" d="M706,355c.4.9.7.9,1,0,9.3,1.6,18.6,2.4,28,1.9v57.6l2,1.5c.3.8.7.8,1,0h1v-62c-.4-.9-.7-.9-1,0-.3-.8-.6-1.7-1.4-2-1.4-.5-25.5-.2-28.7,0-.6,0-.9,1.2-.9,2-.4-.9-.7-.9-1,0-.9.5-.9.8,0,1Z"/>
    <path class="st11" d="M387,450c.6-.4.7-.7,0-1-21.3-.8-42.7-.8-64,0v1c21.3-.2,42.7.2,64,0Z"/>
    <path class="st11" d="M578,482h-1c-.8,4,1.1,29.9,0,31,0,0,.8.2,1-.5v-30.5Z"/>
    <path class="st11" d="M709,610h-1c-.6.2-1,.5-1,.7-.6,19.4-1.3,41.8,0,61,0,0,.4.3,1,.3,9.6-.3,19.4.4,29,0,.6-.2,1-.5,1-.7.4-20,.5-41.6-.7-60.8-9.7.5-19.1.4-28.3-.5Z"/>
    <path class="st11" d="M730.5,415h-23.5l-1,1v1h29.5c.7-.2.5-1,.5-1-.7-1.7-3.9-1-5.5-1Z"/>
    <path class="st11" d="M483,384v-30h-1v24.5c0,1.6-.7,4.9,1,5.5Z"/>
  </g>
  <g>
    <path class="st1" d="M258,257c11,.8,22,.8,33,0,32,.8,64,.7,96,0,.8-10.3.9-20.7,0-31,.9-.4.9-.7,0-1-.5-.7-.8-.7-1,0-.7.3-1,.6-1,1l-2,1.5v25.4c-51.3.5-102.6.9-153.9,1.1.4-3.8.2-22.9,0-25.6,0-.3-.4-.6-.8-.7,6.2,1,14.2.7,20.8-1.7.9-.4.9-.7,0-1-7.7-2.5-15.3-2.5-23,0v32h1c9.2,2.8,22,3.2,31,0Z"/>
    <path class="st1" d="M831,291l-2,1.2v184c-7.1,1.4-14.6,2-22.3,1.6l-2.7,2.1c-.9-1.8-1.7-1.9-2,0l-1.7-1.7c-9.6.8-19.4,1.3-29.2,1.3l-1.1,1.4c-.8,10.6-.7,21.4,0,32-10.7-.8-21.3-.8-32,0l-2,1.5c-.9,4.3-.5,24.5,0,29.7,0,.6,1.2.9,2,.9,0,0,.8.2,1-.5.8-3.9-1.1-28.4,0-29.5s27,.8,31,0v-2h32v-32h31v-190h0c-.5-1.4-2-1.5-2,0Z"/>
    <path class="st1" d="M291,161c20.6.9,41.3.9,62,0,1.7,1.8,3.2,1.2,1.5-.4.2-8.7.1-17.2-.5-25.6,2.5-.9,2.9-4.6,0-5l3-1c0-.6.1-1.9,0-2-.2-.3-1.9.6-2-.5-1-8.8.8-19.5,0-28.5.9-.4.9-.7,0-1-1.7.7-1,3.9-1,5.5v26.5h-64c-.7,10.7-.7,21.3,0,32,.5.9.8.9,1,0Z"/>
    <path class="st1" d="M290,513c-.5-.9-.8-.9-1,0-10.3-.7-20.7-.7-31,0-.5-.9-.8-.9-1,0-9.8-.9-20.1-.8-29.7-.2l-.2,1.2c-1,.6-1.6,1.7-.8,2.3,2.3,1.9,49.7,1,60.6.7-.5,3.3-.1,20,0,25h-91.2l-.7,2c-.4-.9-.7-.9-1,0v2c9.8,3.3,22.2,3.1,32,0,.5.9.8.9,1,0,20.3.9,40.7.9,61,0,.4.9.7.9,1,0,.4.9.7.9,1,0,1.5-.3,1.5-1.3,0-3,1.2-9.3,1.4-18.7,0-28,2.5-.8,2.7-1.7,0-2Z"/>
    <path class="st1" d="M808,705c-1.2-2.2-2.6-4.2-4-6-.8-2.5-1.7-2.7-2,0-1.5,1.3-2.6,3.1-3.3,5.3l-28.2-.2c-1.4,2.4-1.5,3.3-.5,2.9-.8,19.9-.9,41,0,61-.9.4-.9.7,0,1,1.1-.2,2-.2,2,1h30v-64h6c.9-.4.9-.7,0-1Z"/>
    <path class="st1" d="M706,897v-63c4.2-.9,30.9,1.1,32,0s0-1.3,0-2h0c-.9-2.5-2-2.6-2,0-2.4.8-2.8,1-6,1-3.2-.8-6.8-.8-10,0h-3c-1.7-.7-3.4-.7-5,0h-2c-2.2-2.6-3.6-2.6-4,0-.8-2.6-1.7-2.7-2,0-9.6-.7-19.2-.7-29,0-3.1,1.2-1.9,3.6,1.3,4.1l25.7-.3v59.2l2,.9,1,1c.3.8.7.8,1,0,0,1.5.7,1.8,2,1,3.7.7,26.9-.9,28,0,.5.4-1.3,3.9,2,3,0-1.1,1.1-3.9,0-5s-27.8.9-32,0Z"/>
    <path class="st1" d="M643.1,161c.7-.6,1.3-.4,2,0,30.4.7,61.2,1,90.6,0l.4-1c.9-.4.9-.7,0-1l-1.2-2h-88.7c.5-3.1.1-19.1,0-24,28.6.4,57.1,0,85.4-1,3.5,1.8,5.3,1.5,5.4-1,1.5-.4,1.5-2,0-2h-94.9v1c-2,1.9-2,4.1,0,6-.8,7.5-1,15.5,0,23-2.6.8-2.7,1.7,0,2,.5.6.8.7,1,0Z"/>
    <path class="st1" d="M771.7,579.7c1.3.7,25.9.6,29.4.3.6,0,.9-1.2.9-2v-33h-32v1l-1.8,2.6v27.1l1.8,2.3,1.7,1.7Z"/>
    <path class="st1" d="M864,65c-1.2.2-1.6.5-1,1v126h-28c-.4-.9-.7-.9-1,0v1h31l-1-128Z"/>
    <path class="st1" d="M804,193h-1c-.5-.8-.8-.8-1,0l-2,1.5c-.6,9.5-.3,23.1,1,30.5-.9.4-.9.8,0,1l-1.5,2.4c-.7,19.6-1,39.2-.7,58.7l1.2,1.9c.6,1.9,1.4,1.9,2,0v-64h31v-32h-2c-9-.8-18-.8-27,0Z"/>
    <path class="st1" d="M223.5,833h-28.5v-62h2c.9-.4.9-.7,0-1-.6-2.5-1.1-2.7-3-1-2.7-1.3-20.4.9-25.5,0-.4,0-2-2.2-3.5-.5l-1-2-2,1.5c0,.7,0,1.9,0,2,1.1,1.1,27.9-.9,32,0v64h30c0,0,.2-.8-.5-1Z"/>
    <path class="st1" d="M736,909.5v24c0,2-1,4.1,2,3.5v-31c-3-.6-2,1.5-2,3.5Z"/>
    <path class="st1" d="M223.5,257.1c.2,0,.4,0,.5,0-.2,0-.3,0-.5,0Z"/>
    <path class="st1" d="M197.5,258c1.6,0,1.7,1,2,1,4.6.8,18.7-1.2,24-1.9-5.2.6-28.4-1.1-29.5,0s0,3,0,4c1.6-.6,1-3,3.5-3Z"/>
    <path class="st1" d="M227,833c-1.2-.2-1,1-1,1v30c1.7-.7,1-3.9,1-5.5v-25.5Z"/>
    <path class="st1" d="M736,947.5v6c0,2-1,4.1,2,3.5v-13c-3-.6-2,1.5-2,3.5Z"/>
    <path class="st1" d="M197.6,516.9c.7-.8.8-15.2,0-16.9-.3-.6-1.7-.4-2.6,0v2.5l-1,.5v8l1,.5v5.4c.9.5,2,.7,2.6,0Z"/>
    <path class="st1" d="M640,105.5c0,.3,1.8,2.2,1,4l1,.5c0-3.2.6-9.9,0-12.5,0-.5-.6-.5-1-.5l-1,1c.2,2.4-.3,5.2,0,7.5Z"/>
    <path class="st1" d="M642,120v-3c-3-1-3,4,0,3Z"/>
    <path class="st1" d="M768,517.5v2l1,.5c0-.9-.2-2.5,0-3l-1,.5Z"/>
    <polygon class="st1" points="641 124.5 642 125 642 123 641 123.5 641 124.5"/>
    <path class="st1" d="M387,833h-1c-21.3-1-42.6-1-64,0-.2,2.1,2.2,2.9,0,4.5v60.5c.5-.2,1.4,0,2,0v-63h61v29.5c.2.7,1,.5,1,.5,1.2.5,1.7.2,1-1,.8-10,.8-21,0-31Z"/>
    <path class="st1" d="M547,864v-31c-20.8-.8-43.4-.9-64,0-.7-2.6-1.5-2.7-2,0-1.5.7-26.4,0-32,0h-.2c-10.1-.8-21.3-1-31,0-.3-.3-.6-.5-.9-.5-1.8-.2-.6,28.7,0,31.5,0,.7-.1,1.4,0,2,.4.6.7.6,1,0,.4.9.7.9,1,0,9.3.8,19.6.8,29,0,.2,1.9,1,1.2,2,0,10.2.7,20.7.9,31,0,.4.9.8.9,1,0,.5.8.9.9,1,0,10.1.5,20.2.7,30.4.5,0,10.5.3,21,.7,31.5-1.9,10.3-1.9,20.7,0,31h2v-63.5c-.5-.3-1.2-1.5-1.5-1.5h-95.5v-29h126v64h3c.9-.4.9-.7,0-1-.8-10.7-1.1-21.4-1-32,2.5-.9,2.6-1.6,0-2Z"/>
    <path class="st1" d="M195,537l1-.5v-14l-1-.5v15Z"/>
    <path class="st1" d="M341,706c.6-3-1.5-2-3.5-2h-13.5c0,.7.1,1.4,0,2,5.6-.3,11.5.4,17,0Z"/>
    <polygon class="st1" points="706 905 707 904.5 706 904 706 905"/>
    <path class="st1" d="M311,546c-1.5-.7-2.9-1.6-5.5-1-.7.2-.5,1-.5,1v1h6c.9-.4.9-.7,0-1Z"/>
    <path class="st1" d="M738,257c10.5,0,21,.6,31.5,1.4-.3,10,0,19.9.5,29.6-.9.4-.9.8,0,1v1c.9,0,1-.9,2-1v-33c-1.5.5-2.3-1-2.5-1h-125.5v-29h-2c-.8,10.3-.8,20.7,0,31,.5.9.8.9,1,0,31.7.8,63.3.7,95,0Z"/>
    <path class="st1" d="M419,417v-95c-.9-.9-.9-1.4-3-1h0c0-.1-94-.1-94-.1-.8,4.3,1.1,31.7,0,33,.7,2.8,2.4,2.3,4,0,.8-1.1.3-23.8,0-30h88.8l.7-2c-.9,28.9-1,61.1-.4,90.8l-25.4.2c-2.7.8-3.9,3.7-.7,4.1,9.3.9,18.8.7,28,0,.2-.1,1.4,0,2,0Z"/>
    <path class="st1" d="M483,387l1.2,2h59.9l.9-2c1.5-.4,1.5-2,0-2h-62c-.5.8-.8,1.5,0,2Z"/>
  </g>
  <g>
    <path class="st3" d="M194,768c.1-74-.2-147.7-1-221-8.6-1.5-19.6-1.5-28.7-1,0,0-.3.5-.3,1-1.4,12.7-1.8,24.1-1.2,34.2l-.8,1.8v185l2.2,1.3c10,.4,20,.3,29.8-.3.9-.4.9-.7,0-1Z"/>
    <path class="st3" d="M195,482c.9-.5.9-.9,0-1,.8-1.2.3-1.7-1-1v-158c.9-.5.9-.8,0-1-10.4-.6-21.5.5-32,0v160h32v22c2.1,1.4,1.9-1.2,1-3,3-1,2.9-14.2,2.1-16.6l-2.1-1.4Z"/>
    <path class="st3" d="M225.9,69l-.8-3.1c-19-.4-38.5-.7-57.7-.4-1.6,0-3.6,0-5.2.5-.2,0-.2.5-.2,1h0v95h32c.9-.5.9-.8,0-1,.9-.5.9-.8,0-1-.9-20.3-.9-40.6,0-61,.9-.3,1.2-.6,1-1,10-.7,20.3-1,31-1-.1-9.3.2-18.7,0-28Z"/>
    <path class="st3" d="M770,769c-1.8-1.4-2.3-.8-1,1-10,.5-20.2.6-30.5.6,0,9.9,0,19.7-.5,29.4-.9.5-.9.8,0,1-.9.5-.9.8,0,1h32v-26c-.7-1-.7-2,0-3,0-2.4-.8-3.5,2-3,2.1-2.9-1.2-4.5-2-1Z"/>
    <path class="st3" d="M737.9,545c-.9.4-.9.8,0,1l1.5,2c1.8.6,26.1.3,29.7,0,.6,0,.9-1.2.9-2,.9-.5.9-.8,0-1-.3-8.3-1.5-16.2-1-25-.7-.9-.8-2.1,0-3,0,0,.7.5,1-2h-.1c-3-.8-30.1-2.1-31.3-1,0,10.4-.2,20.8-.7,31Z"/>
    <path class="st3" d="M831,579c.8.8-1,2.4-1,2.5v85c0,.7-.7,0,0,3,.3,1.5-.2,3.8,0,5.5l3-5v-13c-1-5.7-1-12.3,0-18v-42c-.8-1.4-.8-3.6,0-5v-4c-.7-1-.7-2,0-3,0-2.2.7-7.4-1.5-8h-29.5c-.9.5-.9.8,0,1-.9.5-.9.8,0,1,3.8.8,28-1,29,0Z"/>
    <path class="st3" d="M833,691s-.8.2-1-.5c-.5-2,.5-11,0-11.5s-2.9,0-3,0,0,2.8,0,3.5c0,.4,1,.7,1,1v19c0,.2-1,1.6-2,1-.6-.3-1.1-1.4-1.5-1.5-2.4-.7-4.4,1.6-7,1-.4,0-.6-.9-1-1-.6-.2-1.4.2-2,0-.2,0-2.3-2.1-2.5-2.5,0-.2-.9-1.7-1-2-.2-.5.4-1.1,0-1.5s-7.4.3-9,0c-1.5.7-1.5,2.3,0,3,.2,4.5-1,5.7,4,6,8,1.2,16.4.9,24.4.3l.6-1.3c0-2,.4-12.2,0-13Z"/>
    <path class="st3" d="M736,159v1c-.5,1.4.9,1.8,2,1,.4.9.7.9,1,0,.5-10.1.7-20.3.5-30.6,2.2-.3,1.8-1-.5-1.4h0c0-.1-2-.1-2-.1v2l-2,2.6c.4,7.7.2,15.2-.6,22.8l1.5,2.7Z"/>
    <path class="st3" d="M195,537c.7-5,.8-10,0-15,2-1.6,2-3.4,0-5,.7-2.4,1.5-7.3-1-6v33h1c2.9-.6,3-6.7,0-7Z"/>
    <polygon class="st3" points="738 808 738 807 737 808 738 808"/>
    <path class="st3" d="M195,321h1v-1c-.8,0-1.1,0-1,1Z"/>
    <path class="st3" d="M220.5,292c-1.6.4-5.7-.5-6.5,2.5-.3,1.1.3,2.9,0,4-.5,2-3.8,1.3-4,1.5s.3,1,0,1.5c-.2.4-3.3,3.5-3.5,3.5-2.2.6-2.9-.5-4-1-.5-.2-1.3.2-1.5,0s.2-1,0-1.5c-.2-.4-1-.6-1-1-.2-1-.2-4.1,0-5,1-4.6-1-3.6-2-7-.4-1.2,2.4-3.8,2-5-.2-.7-1.8-2-1-4l-3-2.5v42c2.5-.3,4.7-.6,4,2,3.9.2,8.1,0,12,0,3.9-1.2,8.2-1.5,13-1v-1c.8-10.3.8-20.7,0-31-2.2-.7-3.4,2.7-4.5,3Z"/>
    <path class="st3" d="M222,287c1.2-1.2-1.3-6.7-3-5s-.2,4.8,0,5c.1,0,2.9,0,3,0Z"/>
    <path class="st3" d="M643,161h2c-1.1-2.4-2.5-3-2,0Z"/>
    <path class="st3" d="M738.2,732.5l-.3-57.3c.5,1,.8.6,1.1-1.2.6-.4.7-.7,0-1h-31v65c9.5,0,19.5.4,29,0l1.2-5.5Z"/>
    <polygon class="st3" points="386 288 386 289 389 289 388.5 288 386 288"/>
    <path class="st3" d="M770,316.5c0,2.1-.4,3.6,1,5.5,2.2-4.6,1-25.7,1-33-.8-1.6-1.5-1.2-2,1,.2,8.8-.3,17.7,0,26.5Z"/>
    <path class="st3" d="M322,545s0,1.2,1,1c-.5-.6-.4-.5-1-1Z"/>
    <path class="st3" d="M485.1,542c.4-9.4-.3-18.8-2.1-28v-1c-.5-.9-.8-.9-1,0-.9.5-.9.8,0,1,0,10.2-.4,20.9,0,31l.7,1.1c10.6.7,21.7.9,32.3,0v-2l-1.5-2h-28.4Z"/>
    <path class="st3" d="M449,289v7.5l1,.5c0-2.1.4-5.8,0-7.5,0-.5-.6-.6-1-.5Z"/>
    <path class="st3" d="M449,317.5v2.5c1.5,0,1-1.7,1-3l-1,.5Z"/>
    <path class="st3" d="M450,310l-1,.5v1l1,.5v-2Z"/>
    <path class="st3" d="M546,322c-.4-.9-.7-.9-1,0l-2,1.5c-.9,4.2-.5,24.4,0,29.6,0,.6,1.2.9,2,.9.8,2.5,1.7,2.7,2,0,.8-10.6.8-21.4,0-32h-1Z"/>
    <path class="st3" d="M704,417c-.9.4-.9.7,0,1l-2,1.4v26.5c-9.4-.4-18.8.3-28,2.1v1h5.5l.5,1h3c1.2-.8,2.7-.6,4,0h13l.5-1h5.5c-1.4-8,0-21.5,0-31-.9,0-1-.9-2-1Z"/>
    <polygon class="st3" points="640 289 641 289 642 289 642 288 641 288 640 289"/>
    <path class="st3" d="M546,417v2h1v-2c-.5-.9-.8-.9-1,0Z"/>
    <polygon class="st3" points="546 464 547 463.5 546 463 546 464"/>
  </g>
  <g>
    <path class="st6" d="M357,127c-2,.6-2.1,1.9,0,2,9.4.7,19.8,1.3,29,0,73.5.9,150.3,1.1,224,0,9.5.8,20.3.8,30,0-.6,2.6,0,2.9,2,1,.9-.5.9-.8,0-1v-2h-285Z"/>
    <path class="st6" d="M193,547.1l1,221c2-.9,2.7-3.1,2-6.8.9-17,.6-37.3,0-54.3,0-.5-1.2-.9-2-.9l2-1.5c.6-5.9.9-24.2,0-29.7,0-.6-1.2-.9-2-.9l2-1.5c.2-3.4.5-29.2,0-30.6-.2-.6-1.2-.9-2-.9,2-21,2-42,0-63,2-10.6,2-21.4,0-32h0c-1.9.1-2.4-.9-2.5-.9-9.8-.2-19.7.2-29.5,0-.6,1.5,1,2.3,1,2.5,0,.3-1,.6-1,1-1.4,8.6,0,24.9,0,34.5,3,.6,2-1.5,2-3.5.1-10.8,0-21.7,0-32.5h29Z"/>
    <path class="st6" d="M739,129c.4,1.5.8,1.8,1.2.5h60.3c.4,2.2,1.1,1.8,1.5-.5,2.5-10,2.5-20,0-30,10-.7,20.3-1,31-1l-8.5-1c-1.5-1.5-5.6-1.3-8-1-5,.5-9.8.4-14.5,1h-64v16c0,0,.8.2,1-.5.5-1.9-.7-14.5,0-14.5h61v29h-62v2c.4.9.7.9,1,0Z"/>
    <path class="st6" d="M641,97h-286v1h285c1.5.9,2,.4,1-1Z"/>
    <path class="st6" d="M200.5,97c-1.6,0-4.9-.7-5.5,1,10.7.2,20.4.6,29,1.1l2,.9-2,1.5c.3,5.7.3,11.4,0,17.1l2,1.4c-.7,2.1-.6,5,0,7-2.6.8-2.7,1.9,0,2,.4.9.7.9,1,0,20.4.6,40.9.8,61.5.5.4,2.2,1.1,1.8,1.5-.5v-2h-62v-29h62c-.6-1.7-3.9-1-5.5-1-19.5,0-39,0-58.5,0h-25.5Z"/>
    <path class="st6" d="M738,962v-2l-191,2h191Z"/>
    <path class="st6" d="M226,161c-10.3-.8-21.9-.8-32,0v2h31c.1,18.5,0,37,0,55.5,0,1.6-.7,4.9,1,5.5l2-1.4c.5-5.1.9-24.4,0-28.7,0-.6-1.2-.8-2-.9,2-10.6,2-21.4,0-32Z"/>
    <path class="st6" d="M224,66l2,3v-4h-64v2c2-.6,3.3-.9,5.5-1,18.6-1,37.9.7,56.5,0Z"/>
    <path class="st6" d="M801,65v7c0,0,.8.2,1-.5.5-1.9-.9-4.1,1.5-5.5h59.5l1-1h-63Z"/>
    <path class="st6" d="M226,866v-1c-4.1.9-30.9-1.1-32,0,0,.2,0,3,0,4,1.6-.9.8-2.6,3.5-3,7.9-1.1,17.9.8,26,0l1.5,1.5v29c.1.7,1,.5,1,.5,2.5-10.4,2.5-20.7,0-31Z"/>
    <path class="st6" d="M802,291l1.9,1.6c9.5-.7,18.5-1.2,27.1-1.6.5,0,1.4,0,2,0v-2h-31c-1.9.6-1.9,1.4,0,2Z"/>
    <path class="st6" d="M516,929c-.8-2.5-1.7-2.7-2,0-.9.5-.9.8,0,1h32l-.5-1h-29.5Z"/>
    <path class="st6" d="M827.5,705c-6.1.2-13.5.4-19.5,0v1c3.6,0,24.1.9,25,0s0-1.3,0-2c-1.9,1.4-3.4,1-5.5,1Z"/>
    <path class="st6" d="M803,89c.3-.3.3-7.7,0-8s-1.4,0-2,0v8c.6,0,1.9,0,2,0Z"/>
    <path class="st6" d="M739,118.5l-1-.5v5l1-.5v-4Z"/>
    <path class="st6" d="M769,775.5l1,.5v-3l-1,.5v2Z"/>
    <path class="st6" d="M802,95v-1.5l-1-.5c.2,2.5,1,1.9,1,2Z"/>
    <path class="st6" d="M227,898s-.2.8.5,1h94c.7-.2.5-1,.5-1h-95Z"/>
    <path class="st6" d="M354.5,899.1h30.5v30.5l2,1.5c.9-.4.9-.7,0-1-.7-.6-.7-1.2,0-2l2-2.1c.4-7.7.5-15.4.2-23.1l-2.2-1.9-1-1c1.8-.6,1.9-1.5,0-2-.4-.8-.8-.9-1,0-4-.8-29.9,1.1-31,0-1.1-1.1.8-27,0-31h0c-.5.3-1.8-.1-2,0-1.1,1.1.8,27,0,31,1.5-.5,2.3,1,2.5,1Z"/>
    <path class="st6" d="M194,354v63c2.7-20.9,2.7-42.1,0-63Z"/>
    <path class="st6" d="M194,417c0,17.3-2.5,47.4,0,63v-63Z"/>
    <path class="st6" d="M834,98v94h1v-91.5c0-1.3.6-2.1-1-2.5Z"/>
    <path class="st6" d="M193,157.5c.1,1.1-.5,2.5,1,2.5,2.5-20.3,2.5-40.7,0-61,0,0-.9-.2-1,.5.8,19.1-1,39,0,58Z"/>
    <path class="st6" d="M258,865c.5-.2,1-.5,1-.7.4-8.6.8-21.5,0-30,0,0-.5-.3-1-.3v-32c.9-.5.9-.8,0-1-.4-1.5-.8-1.7-1.5-.4-10.2.2-20.4,0-30.5-.6,2.5-10,2.5-20,0-30-9.6-.4-19.4.5-29,0v1c9.3-.4,18.7.3,28,0v29.5c0,.3.8.6,1,1,.2.5,0,1.5,0,1.5h31c0,18.8,0,37.7,0,56.5,0,1.6-.7,4.8,1,5.5Z"/>
    <path class="st6" d="M802,581v29c-2.5,21-2.4,42,0,63-2.9,8.4-2.8,17.6,0,26h2v-3c-.5-37.1.5-74.3,0-111.5,0-2,1-4.1-2-3.5Z"/>
    <path class="st6" d="M225,258.5v61.5c-2.5.8-2.7,1.7,0,2,.5.9.8.9,1,0l2-1.5c.2-3.5.5-29.2,0-30.6-.2-.6-1.2-.9-2-.9v-31c-.2,0-.8-.2-1,.5Z"/>
    <path class="st6" d="M769,770h-31v30c1.7-.7,1-3.9,1-5.5,0-3.3-1-22.5,0-23.5s25.6.8,29.5,0c.7-.2.4-.8.5-1Z"/>
    <path class="st6" d="M802,293v29c-2,42.3-2,84.7,0,127v2c-.8,8.5-.8,17.5,0,26v3h2c-.6-61.1.8-122.4,0-183.5,0-2,1-4.1-2-3.5Z"/>
    <path class="st6" d="M352,603.1c.8,2.5,1.7,2.7,2,0,.8-7.3.8-15.8,0-23-.3-.9-.6-1.6-1-2l-1.9-1.2c-9.4.7-18.6.4-27.4-.7-.1-10.2-.3-20.2-.7-30.2l-1-1c-2.6-1.4-4.1.4-1,2-1.1.7-1.8,1.7-2.2,2.9-.7,1.9,0,19.6.3,23.1l.9,1.4c-.1-.1-.3-.3-.5-.4-1-.7-19.9-.3-25.4,0,.4-3.5.2-20.4,0-25.1,3.3.5,11.2.8,10.9-1.8.9-.4.9-.7,0-1h0c-3.2-1.6-8-1.4-11.9-1-1.8-2.1-2.8-2.7-3.1-1.9v3c-.8,9.6-.5,20.7,0,30,0,.3,0,1.3,0,2,.8,2.6,1.7,2.7,2,0,9.4.5,18.9.7,28.5.5.9,10.4,1.5,20.9,1.5,31.5-.8,10.3-.8,20.7,0,31-.9,20.8-.9,43.1,0,64-.4-.6-.8-1-1.2-1-9.3-.3-20.6-.6-29.8,0-.5,0-.9,1.2-.9,2-.8,20.5-.9,42.3,0,63-.9.4-.9.7,0,1-.9.4-.9.7,0,1,.5.8.9.9,1,0,0,0-.4-.8,1-1,2-.6,2.6-2.5,2-5.6,1.4-16.2.6-38.4,0-55.3,3.4.4,20,.2,25,0v60l2,.9h2c.8-10.6.8-21.4,0-32,0-10.7-.5-22.3,1-32,2.5-.8,2.7-1.7,0-2l2-1.2v-121.7c4.9.6,20.9.5,25.1,0,.3,0,.5-.3.6-.7-1.7,7.6-1.6,15.1.3,22.7Z"/>
    <path class="st6" d="M225,482c.9.9,0,21.8,0,25.5s-.7,4.8,1,5.5v-1c-.7-9.7,0-21.1,0-31h-31v1c3.9.8,29.1-.9,30,0Z"/>
    <path class="st6" d="M708,673c-.6-1.9-1.4-1.9-2,0,.3,21.1-.2,42.1-1.3,63l1.3,2h2c2-21.7,2-43.3,0-65Z"/>
    <path class="st6" d="M673.5,799.5c-.5,0-.9.2-1.1.3-9.9.5-20,.9-30.4,1.2v1c-.4,9.6-.6,19.2-.4,28.9-.2.4-.3.7-.4.9-.3.1-.8.4-1.3.8-10.1-.3-20.1-.2-29.9.4v31c-.9.5-.9.8,0,1-.8.5-.8.8,0,1,.4.9.7.9,1,0,9.6.8,20.6.8,30,0,.4.9.7.9,1,0,.9,2.2,1.6,2.8,2.1.5h28.4c.5,2.2,1.1,1.8,1.5-.5h1c-.2-.5,0-1.4,0-2h-64v-29c4-.8,29.9,1.1,31,0s-.2-1.8,0-2,.9,1.1,2,0-.8-26.1,0-30h29v29.5c.2.7.6.5,1,.5l1-5.5c-.8-6.9,1.2-16.4,0-23-.2-1.2-3-2.3,1-2.5l2-1.2v-59.7c3.3.4,20,.2,25,0v59l2,.9c1.7-.7,1-3.9,1-5.5,0-19.2,0-38.3,0-57.5l-10.7-1c-16.2-1.5-23.3-.3-21.3,3.5-.5,19.5-.8,39.2-.5,59Z"/>
    <path class="st6" d="M737,738c.7,0,.9,1.1,2,0s-.9-27.8,0-32c.9-10.5.8-21.9,0-32-3-.6-2,1.5-2,3.5-.2,20.2.2,40.3,0,60.5Z"/>
    <path class="st6" d="M389,289c20,.8,40,.8,60,0,.5,2.6.8,5.2,1,8-1.5,4.2-1.5,8.8,0,13-.7.6-.7,1.3,0,2-1.5,1-1.5,4,0,5l-1,3c-.6.4-.6.7,0,1-1.1,1.8-.5,2.3,1,1,10,.8,20.9.9,31,0,.4.9.8.9,1,0,.5.9.9.9,1,0,.9-.4.9-.7,0-1,.9-10.8.9-21.5,0-32-10.1-.6-20.4-.8-30.9-.4-1-.5-1.7-.7-2-.7.7-8.8,1.3-19.8,0-28.9-.2-1.2-1.2-2-2-1v29h-60v-23c-3-.6-2,1.5-2,3.5,0,5-.8,13.5,0,18,.1.6,1.6.4,0,2.5,1,.3,2,.6,3,1Z"/>
    <path class="st6" d="M388,258h-1v3.5l1,.5v-4Z"/>
    <path class="st6" d="M319.5,546c-2-.5-7.2.6-8.5,0v1h9l-.5-1Z"/>
    <path class="st6" d="M578,289c.4,1.5.8,1.8,1.2.5,20.5.3,40.8,0,60.8-.5,1.2-.2,1.6-.5,1-1,.6-.4.7-.7,0-1h-61c0-3.8.2-7.7,0-11.5,0-2,.6-3.7-2-4.5,0,6,0,12,0,18Z"/>
    <path class="st6" d="M578,258v6s.8.2,1-.5c.4-1.5-.2-3.8,0-5.5h-1Z"/>
    <path class="st6" d="M547,511.9v-31c9.3-.1,18.7.2,28,0,.1-.4.2-.7.3-.9.3.5.9.9,1.7,1h1v-4h-1c-1.1.3-1.8.8-2,1.5-.4-.4-1-.7-2-.7l-23,.3v-58.2l-2-.9v-.2c-.5-.9-.8-.9-1,0-.4-.9-.7-.9-1,0-.8,14.6-.8,29.4,0,44,.5.3.5.6,0,1-.8,5.1-.7,10.8,0,16-.8.4-.8.7,0,1-.2.6,0,1.1-1,1-.5.2-1,.4-1.3.7-1,1.1-.9,25.9-.7,29.5,0,.6,1.2.9,2,.9.4-.2,1.1.3,1.5,0,.7-.5.5-1,.5-1Z"/>
    <path class="st6" d="M609.5,417c.5,0,.5.6.5,1,.4.9.7.9,1,0,2.8-1.5,1.6-3.4-.9-4.8,0,0-28-.2-28.1-.2v-57.1l-2-.9c-.7-.6-1.3-.5-2,0-.8,20.3-.8,40.7,0,61v1c7.3,0,25.9-1.4,31.5,0Z"/>
  </g>
  <g>
    <path class="st7" d="M450,928c2.9-7.2,3.1-16.9,0-24-.5-1.7-.7-3.5-.5-5.5-10.1-.2-20.9-.2-30.5.5-.8,9.8-.8,20.9,0,30.5l-1.7,1c-10.3-.3-20.4,0-30.3.5l-1.5-1.7c1.3-10.3,1.1-20.4-.5-30.3-10.2-.8-20.3-.8-30.5,0l-1.6-2.3c-.5-10.1-.1-20,1.1-29.7,10.6-.7,21.3-1,32-1,.9-.4.9-.8,0-1v-29.7l-1-.3-.7-1c-20,0-40,0-60,0l-.3,1-1,2.6v58.2c-.9.4-1.2,1.1-1,2.1-31,.9-63.9.9-95,0,.2-.5,0-.9-1-1-.4-10.2-.7-20.6-.9-31.1-10.1-.7-20.1-.7-30,0l-1.1,3.3c-.4,20.1.3,40.3,0,60.5l1,.5h159v31l159,1,1-.5v-30.5c-21.4-.3-42.7-.7-64-1,2.5-.8,2.6-1.5,0-2Z"/>
    <path class="st7" d="M708.3,898c0,0-.3.4-.3.9-.9.2-1.3.6-1.1,1.3.2,9,.2,18.8.2,28.2-.2.2-.5.6-1,1.5,0,0-.8.5-.8.5-19.7.2-39.5.2-59.1.2s-2.2,0-3.2-.7c-.5-.8-1-.9-1,0-.6-10-1-20.3-1-31-9.6-.8-20.6-.8-30,0-.2,9.8-.5,19.8-1,30-.8.4-.8.8,0,1-10.5.9-21.5,1.2-33,1l1.3-.7c-.7-10.3-1.1-20.8-1.3-31.3-9.6-.9-19.4-.7-29,0-1.3-.9-2.2-2-2.2-3.5l.2-60.1-1-.3c-.2-.6-.5-1-.7-1-41.2-.7-83.9-.7-125.1,0-.1,0-.2.4-.2,1-.7.2-1.2.4-1.2.7-1,6.6-.2,20.8.2,28,0,0,.4.3,1,.3l.7,1h94.1c.4.4.6.4.7.1.5,20.7.8,41.9.5,63.6l1,.3h0c10.2.2,20.2.5,30,.9v31.5l1,.5,190.8-1,.2-1v-3c-1.9-2.5-1.7-10.9,0-13v-7c-2.4-6.6-2.4-24.5,0-31v-4c-.9-.8-1.2-2.1-1.2-4.1-1.1-.8-25,0-28.5.2Z"/>
    <path class="st7" d="M357,127l.7,1c94.7-.2,189.3,0,284,.3l.3-1.3v-2c-.7-.9-.6-1.1,0-2v-3c-1.1-1-1.1-2,0-3v-7c-.9-3.7-1.1-7.5-.9-11.5l-1.1-.5c-93.5-.9-191.7-.9-285,0-.8,9.7-.8,19.8-.4,29.7,1.3.4,2.7.8,2.4-.7Z"/>
    <path class="st7" d="M863,66c-19.8-.5-39.7-.8-59.7-.5-1.4.9-2.3,3.1-2.3,6.5-.4.8,0,7.1,0,9,1.9,3.5,1.3,6.9,0,8,0,1.3,0,2.7,0,4l1,2c.2.4,0,1.4,0,2,10.4-.2,20.7,0,31,1,.4.8.7.8,1,0,.3,31.5.7,62.8,1,94,9.4.5,19,.7,28.7.5.2-41.6.5-85.4-.7-126.5Z"/>
    <path class="st7" d="M226.1,865c-.9.5-.9.8,0,1,.3.8.6,1.7,1.4,2,1.3.5,26.2.2,29.6,0,.6,0,.9-1.2.9-2,.9-.4.9-.7,0-1-.5-20.1-.9-40.8-1-62-.2-.6-.5-1-.7-1-8.9-.4-19.3-.5-28.4-.2-.2-.4-1.2-.8-2.9-1.3.8-9.5.8-20.3,0-29.5-9.2-.8-18.7-.8-27.9,0-.8-.6-1.6-.8-2.4-.4v62.9c10-.3,19.8,0,29.4.5h2.6c.4,10.3.2,20.3-.6,30v1Z"/>
    <path class="st7" d="M830,666.5l1.3-.7v-84c.9-.3,1.2-2,.6-3.1-.7-1.3-25.8-.8-29.6-.7,0,0-.3.5-.3,1h0c-1.9.5-1.9,1.3,0,1.9.4,1.5.7,2,1,1.5v106.6l1,7c.7,2,3.1,2.7,7.1,2,1.6,4.9,4.5,5.6,9,6.1,1.2.2,13.1,0,9.9-1.6.5-.2,1-.4,1.3-.7.4-.3.3-4.9.2-9.3.5.4,1.2,0,1.5-1.5v-21l-1.5-.2c.3-1.8-.2-2.9-1.5-3.3ZM830,683.5c.3-1.2.7-1.4,1-.2v.5c0,0-.4-.3-1-.3Z"/>
    <path class="st7" d="M226,224c-.8-20.2-.9-40.6-.5-61.3,0-1.6-28.1-.8-31.2-.7,0,0-.3.4-.3,1v62h32c.9-.4.9-.7,0-1Z"/>
    <path class="st7" d="M228,127l.7,1h61l.3-1v-29c-20.3-.9-42.1-.9-62,0-.5.2-1,.4-1,.7-1,4.5-.2,22.4,0,28,.1,0,.5.3,1,.3Z"/>
    <path class="st7" d="M738,123v4l.7,1h61l.3-1c.5-.2,1-.5,1-.7.3-8.6.6-19.5.3-28,0,0-.6-.3-1.3-.3-19.8-.8-41.4-.9-61,0-.3,4.9-.7,9.9-1,15-.3.6,0,3.7,0,5,.8,1.4.8,3.6,0,5Z"/>
    <path class="st7" d="M195,321.1l.6-.6c0,.2.2.3.4.5,0,3.1,2.3,3.5,4,1,3.6-1.8.4-4.5-2-4.2v-16.4c5.2,11.2,13.5,3,18.1-3.2v-3.5c4.8-.2,7.8-2.1,8.9-5.7.3-10.6.6-21,1-31,1.8,1.4,2.4.9,1-1-.5-.9-.8-.9-1,0h0c-.6.1-1.4.1-2,.1-9.7.9-19.3,1.2-28.9.8l-1.1,3.2c-.4,20,0,40,0,60,.5.9.8.9,1,0Z"/>
    <path class="st7" d="M737.1,808c.6,0,.8-.4.9-1v-6h0c0-.1-1.5-1.9-1.5-1.9-3.5-.3-29-1.1-30.1,0,0,0-.8,1-1.4,1.9v-61.9h-29v63c9.1-.4,18.4.3,27.5,0l1.3-.9c-.6.8-1.1,1.6-1.1,1.7-.6,1.4.1,25.9.4,29.3l1.9.9c1.3,0,2.7,0,4,0h.1c.7.6,1.4.6,2,0,0,0,0,0,0,0h4.9,0s0,0,.1,0c1,.7,2,.7,3,0,0,0,0,0,0,0h9.9,0s0,0,.1,0c1.6,1,5.8,1.2,6-1h0c.5-.2,1.3,0,1.9,0,.2-5.2,0-10.6,0-15.8,0,0,0-.2,0-.2v-8h-1s0,0,0,0Z"/>
    <path class="st7" d="M832,644.5v7c0,1.6-.7,4.8,1,5.5v-18c-1.7.7-1,3.9-1,5.5Z"/>
    <path class="st7" d="M832,596.5l1,.5v-5l-1,.5v4Z"/>
    <path class="st7" d="M832,587.5l1,.5v-3l-1,.5v2Z"/>
    <path class="st7" d="M385,226c-45.3-.7-90.7-.9-136,0h-20.5c-.3.5-1.5,1.2-1.5,1.5v28.5l158-1v-29Z"/>
    <path class="st7" d="M802,292.9c.4,1.5.8,2,1,1.5v175.4l1,10.2c7.8-.4,15.1.2,22.5-1,1.4-.2,3,0,4.5,0v-188h0c0-.1.2-.9-.5-1.1-3.4-.8-18.5-.3-23,0-2.2.1-3.5.4-5.5,1-1.9.6-1.9,1.4,0,2Z"/>
    <path class="st7" d="M801,488.5c0-.4-1-.6-1-1-.2-1.3.3-5.2,0-5.5-1-1-24.3.8-28,0v30h28c0,0-.2-1.8,0-2.5,1.4-5.2,1.6-15.1,1-21Z"/>
    <polygon class="st7" points="352 130 292 131 292 159 352 159 352 130"/>
    <path class="st7" d="M195,544h94v-29h-61.5c-.7-.2-.5-1-.5-1,.8-1.1.3-1.5-1-1-.6-10.4-.7-20.9-.6-31.5-10.1-.2-20.8-.3-30.4.5.6,5,.2,12.7,0,18,1.7.6,1,3.9,1,5.5v6c0,1.6.7,4.8-1,5.5v5c.8,4.5,1.1,10.5,0,15v7Z"/>
    <path class="st7" d="M772,707v61c0,.2,2.7-.2,3.5,0,.4,0,.6,1,1,1,7.1.9,15.7-.7,23,0l1.5-1.5-1-60.5h-28Z"/>
    <path class="st7" d="M675.7,897.4c9.4.2,19.4.2,28.4-.5v-62h-25.5c-2,0-4.1,1-3.5-2-.3-.8-.7-.8-1,0,.1-9.6.1-19.3,0-29.1l-.9-.9c-.2-.5-.5-.9-.7-.9-3.5-.2-26.7-.7-28-.2-.3.1-.3.6-.3,1.2l-1.1,2.1.2,25.2-1.1,2.5-2,1.2-27.7-.2c-1,0-1.6-.1-1.3,1.1-.8,9.3-.8,19.9,0,29l.7,1h61.1c.5.8,1.2,1.2,2.2,1-.2,10.7,0,21.2.6,31.5Z"/>
    <path class="st7" d="M737,131c-2.2.7-3.9-.9-5.5-1-3-.2-7.9-.5-10,1h-77.5v28h92c1.8-8.6,1-18.8,1-28Z"/>
    <rect class="st7" x="772" y="547" width="29" height="29"/>
    <path class="st7" d="M832,194c-1-1-24.3.8-28,0v30h27c1.2,0-.9-22.3,0-24.5,1.3-.3,1.3-5.2,1-5.5Z"/>
    <path class="st7" d="M772,289c7.6-1.1,19.8,0,28,0,1.4-1.9,1-3.4,1-5.5.6-18.9-1.2-38.9,0-57.5-52.3-.8-104.7-.8-157,0-.5.2-1,.4-1,.7-.9,7.1-.4,20.5,0,28,0,0,.4.3,1,.3l.7,1h124.6v-.4c.2,1.1,1.4,2.5,1.7,1.9v31.2l1,.3Z"/>
    <path class="st7" d="M354,603h-2v-24h-28v125l2.7,1c6.6-.8,11.4-.4,14.3,1,3.3-.3,4-1.7,5.5-2,.6,0,3.4,0,3.5,0,0,0,0,0,0,.1,0,.6-1,2.9,3.5,1.9.7-.2.5-1,.5-1,.8-9.9.8-21.3,0-31v-65c.8-1.7,1-4.9,0-6Z"/>
    <path class="st7" d="M225,320c-2,.3-12.5-.5-13,0s0,1.4,0,2h13v-2Z"/>
    <path class="st7" d="M292,770c7.3-1.2,20.9,0,29,0v-63h-29v63Z"/>
    <path class="st7" d="M291,781.5c.2-3.5-.2-7,0-10.5h-1c-10.8-.8-21.5-.8-32,0-.8,9.9-.8,19.9,0,30v1c4.1-.9,30.9,1.1,32,0s-.2-16.4,0-19.5c0-.3,1-.7,1-1Z"/>
    <path class="st7" d="M448,287c2.1-8.7,1.7-20.3,0-29-19.5-.9-40.7-.9-60,0-.8,1-.8,2.9,0,4v2c-1.5,7.7-1.8,15.4,0,23l1.2,1h58.5l.3-1Z"/>
    <path class="st7" d="M354,578h-1v1.5l1,.5v-2Z"/>
    <path class="st7" d="M321,547h-1c-2.6-1-6.4-.6-9,0-2.1-1.3-4.1-1.7-6,0-1.5,0-13-.7-13,0v29h29c.6-9.4-.8-19.7,0-29Z"/>
    <polygon class="st7" points="675 885.5 674 885 674 889 675 888.5 675 885.5"/>
    <path class="st7" d="M674,898h1v-1.5l-1-.5v2Z"/>
    <path class="st7" d="M639.5,288c.8,0,1.3-.2,1.5-1,.7-9.7.8-19.5.4-29.5-21.1-.6-41.9-.4-62.4.5-.2,2-.6,4-1,6-.3.7,0,5.4,0,7,1.3,5.2,1.6,10.8,1,16.8l60.5.2Z"/>
    <path class="st7" d="M577,290h-31c-.8,9.9-.8,21.3,0,31,1.9-1.4,3.4-1,5.5-1,8.5-.3,17,.2,25.5,0v-30Z"/>
    <path class="st7" d="M451,480c2.9.4,5.9.7,9,1h12c1-.7,2-.7,3,0h6c.8-20.3.9-42.8,0-63-9.6-.8-20.6-.8-30,0-.8,20.1-.9,42.2,0,62Z"/>
    <path class="st7" d="M417,323.5c-.5-.3-1.2-1.5-1.5-1.5h-91.5c-.9,4.1,1.1,30.9,0,32s-1.5-.2-2,0c0,0,.2.8-.5,1h-29.5c-.3,17.6.4,35.4,0,53-.2,2.7-.5,5.4-1,8-.7.4-.7.7,0,1l30.6.8c-.3,10.6-.2,21,.4,31.2h1c.4-4.3.6-8.6.6-12.9.1,4,.3,8,.4,11.9,19.8.9,41.4.9,61,0,1.1-1.2,1.5-2.8,1.2-4.8l-.2-26.2c.4.6.8.6,1,0h2c-.6-3,1.5-2,3.5-2,6.6,0,15.7-.7,22,0,1.2,0,2.3,1.2,2.5,1,.2-.3.1-5.4,0-6.5-.7-6,.5-10.5,0-17-.9-11.2-.9-22.4,0-33,1-11.6-.7-24.3,0-36Z"/>
    <path class="st7" d="M569.5,480c1.6,0,4.8-.7,5.5,1h2v-63h-28.5c-.7.2-.5,1-.5,1v61h21.5Z"/>
    <rect class="st7" x="451" y="290" width="30" height="30"/>
    <path class="st7" d="M545,417h0c.7-.8.9-2.8,0-3.1v-26.9h-62c-.4,8.9,1,19.4,0,27.9h0s-1,1-1,1v1c0,19.5,0,39,0,58.5,0,1.6-.7,4.9,1,5.5,2.3-.8,3-1.8.5-2.6v-59.8c20.4-.9,40.9-1.5,61.5-1.5Z"/>
    <path class="st7" d="M483,513h62v-31h-62v31Z"/>
    <path class="st7" d="M611,322v30.5c-.2.7-1,.5-1,.5v1c-9.8.3-19.8.6-30,1v60h29.5c1.5,1,1.3,1.5,1.5,3,1,9.3-.7,20,0,29.5l1,.5s0,0,0,0c0,0,0,0,0,.1h62l1.8-1.8c.8-8.5,1.2-17,1.2-25.6l-2-2.7h0c0,0-.1-.1-.2-.2l3.2-.8c8.5.5,17.6.6,26,0,.5,2.3,1.2,2.6,2,1v-1c.9-.5.9-.8,0-1v-61h0s-2,0-2,0v-33h-93ZM674,418.1s0,0,0,0c0,0,0,0,0-.1h0s0,0,0,0Z"/>
    <path class="st7" d="M706,321h-1v26.5c0,1.6-.7,4.9,1,5.5v-32Z"/>
  </g>
</svg>