<?xml version="1.0" encoding="UTF-8"?>
<svg id="_레이어_1" xmlns="http://www.w3.org/2000/svg" version="1.1" viewBox="0 0 1024 1024">
  <!-- Generator: Adobe Illustrator 30.1.0, SVG Export Plug-In . SVG Version: 2.1.1 Build 136)  -->
  <defs>
    <style>
      .st0 {
        fill: #014a4a;
      }

      .st1 {
        fill: #4cdfd2;
      }

      .st2 {
        fill: #c0fff3;
      }

      .st3 {
        fill: #29aba6;
      }

      .st4 {
        fill: #fefefe;
      }

      .st5 {
        fill: #072628;
      }
    </style>
  </defs>
  <g>
    <path class="st5" d="M531,129c.8.5,2.4.6,3,0h76c10-.1,20,.1,30,0v30c-1.9.5-1.9,1.4,0,2h2l30-2h-30l-1-31-1-1h0s-255,0-255,0v1c48.6.2,97.4-1,146,1Z"/>
    <path class="st5" d="M832,383h-31l-1-94v96h31l1,127h1l-1-129Z"/>
    <path class="st5" d="M800,512c-.5.2-1,.3-1.3.7-1,1.1-.9,26.8-.7,30.4,0,.6,1.2.8,2,.9l1-29,30-1v-2h0c-10.3,0-20.7,0-31,0Z"/>
    <path class="st5" d="M191,512h1l-.5-64-.5,64Z"/>
    <path class="st5" d="M386,480c10-.2,20,.2,30,1-2.7,1.1-2.3,1.8-.7,3.8l.7,27.2h1c20.5.8,41.2,1.1,62,1,2.1-.9,2.8-1.5,2-2v-3c.6-.5.7-.9,0-1v-25c.8-.5.6-1.6.4-2.5h-31.2c-.5-2-1.5-2-1.9-.4,0,0-.1,0-.2,0,.4-21.2.4-42.2,0-63h0s-61.5-.5-61.5-.5c-.4-2.2-1.1-1.8-1.5.5v64c.4.9.7.9,1,0ZM448,480s0,0,0,0l1.3,2.1,27.4,1.8-.7,24.9c-18.6,0-37.6-.2-56.1-.9l-.9-29c-1.5-3.3-5.5-3.1-3.5.2l-1.5-2c-2.9-.2-20.4-.4-26,.3v-58.3h57.4c-.7,1.6-.8,3.9-.3,6.8-.2,17.1,0,36.2.8,53.3,0,.6,1.2.8,2,.9Z"/>
    <path class="st5" d="M348.4,577.1l3.6,29.9c.6-.2,1-.4,1-.6.5-10,.5-20.8,0-30.4h-3c-31,0-62,0-93,0,0,.3,0,.7,0,1,30.5.6,60.9-.3,91.4.1Z"/>
    <polygon class="st5" points="738 224 737 255 737 256 738 257 768 257 738 255 738 224"/>
    <path class="st5" d="M768,288c0,.3,0,.7,0,1l32-1-30-1-2-30v30c0,.3,0,.7,0,1Z"/>
    <polygon class="st5" points="672 161 672 191 672 192 704 191 674 191 674 161 672 161"/>
    <path class="st5" d="M703.5,194.5l.5,27.5c0,1,.4,1.7,1,2h31l-30-1v-30h-2c-1.5.3-1.8.8-.5,1.5Z"/>
    <path class="st5" d="M256,573c1.3-9.4,1.1-18.6,1-28l-1-1h-31l30,1,1,31c0-1-.1-2,0-3Z"/>
    <path class="st5" d="M608,608c-.3-1.5-.8-1.8-1.4-.5l-29.6.5c-.7-2.7-2.9-2.9-3,0h-1c-.8-2.5-1.7-2.7-2,0h-18c-.5-2.8-4.9-3-5,0-6.6-1.2-13.2-1.2-20,0-.6-2.9-6.7-3-7,0h-2c-.7-2.7-2.9-2.9-3,0-.4-1.8-1.8-1.1-3,0-.7-2.7-2.9-2.9-3,0h-45c-.7-2.8-4-2.9-4,0h-69c-.5-2.8-4.9-3-5,0h-3c-.5-2.8-4.9-3-5,0-8.1-1.3-16.4-1.5-24.8-.5-.6-1.2-1-1-1.2.5l254.4,2,.6-2Z"/>
    <path class="st5" d="M770,671.7l-33.4-1.7-.6,2h0c10,.6,20.2.8,30.5.5.3,1.6.6,2,1,.7v157.5c-2.2.4-1.8,1.1.5,1.2l1,4c3.4-54.6-.5-109.7,1-164.3Z"/>
    <path class="st5" d="M672,576c-20.7-.9-42.6-.9-63.6,0-.7,0-.8.2-.4.9-.4,10.2-.4,20.2,0,30l2-30,158-1c-32,.2-64-.2-96,0Z"/>
    <path class="st5" d="M353,671c61.2.4,122.5.7,184,1,2.3.2,4.3.7,6.1,1.3l.9-1.3v-2h-191v1Z"/>
    <path class="st5" d="M319,672v31l-30,2h30l1-1,1.1-.2c.2-10.7.5-21.1,1.1-31l-1.2-.8h0s-2,0-2,0Z"/>
    <path class="st5" d="M563,768h-18,0c-10.7-2.9-21.9-2.4-32.8-1.3-.5.9-.9,1.8-1.2,2.8-.6,1.7-.2,26,0,29.7,0,.6,1.2.8,2,.9h1v-31l62-1c-3.3-.7-9.7-1.4-13,0Z"/>
    <path class="st5" d="M545,736c.4.6.7.7,1,0l-1-64c-.4,21-.4,42,0,63-.8.5-.9.8,0,1Z"/>
    <path class="st5" d="M352,833c-.4-.9-.7-.9-1,0l-29.2-1.5-.8-31.5v-1c0-10.6-.3-20.9-1-31l-1.5-2h-29.1c1.2-10,0-20.1-1.5-30h0v-31l-1,63,1,1h31v62.5l1,2.5h31v61.4s2,.6,2,.6c.8-20.2.9-42.1,0-62,0-.7-.4-.9-1-1Z"/>
    <path class="st5" d="M624.4,737h-23.4c7.8.1,15.6,0,23.4,0Z"/>
    <path class="st5" d="M624.4,737h15.6c-5.2,0-10.4,0-15.6,0Z"/>
    <path class="st5" d="M672,768l-1,32h1c.1-10.3,0-20.7,0-31,.9-.4.9-.7,0-1Z"/>
    <path class="st5" d="M478.9,798.8c-2.5,2.5-.9,27.3,1.1,33.2,0,6.3,0,12.7,0,19l2-50,30,1v-2c-5.8-2.1-30.6-3.7-33.1-1.2Z"/>
    <path class="st5" d="M706,833l-1-1v-31c0-.7-.4-.9-1-1h0c-2-.1-4,.2-6,0l5,1,1.2,32.8,31.8.2v-1c-10,.2-20-.2-30,0Z"/>
    <path class="st5" d="M678.9,800h7.1c-2.3,0-4.7,0-7.1,0Z"/>
    <path class="st5" d="M678.9,800h-5.9c2,0,4,0,5.9,0Z"/>
    <path class="st5" d="M480,854c0,3.3,0,6.7,0,10,.8-2.2,3.4-11.3,0-10Z"/>
    <path class="st5" d="M480,870.2v6.8c0-2.3,0-4.5,0-6.8Z"/>
    <path class="st5" d="M480,870.2v-3.2c0,1.1,0,2.1,0,3.2Z"/>
    <path class="st5" d="M691.1,800h-2.1c.7,0,1.4,0,2.1,0Z"/>
    <path class="st5" d="M691.1,800h4.9c-1.6,0-3.3,0-4.9,0Z"/>
    <path class="st5" d="M480,884.6v-1.6c0,.5,0,1.1,0,1.6Z"/>
    <path class="st5" d="M480,888c0-1.1,0-2.3,0-3.4v3.4Z"/>
    <path class="st5" d="M255,193.5v29.5h-31l-1,2.5v94.5l2-62c.1-11,0-22,0-33l1-1c10-.1,20,.1,30,0,.7,0,.9-.4,1-1,.5-.2,1-.5,1-.7.2-9.3-.2-19.5-1-28.3v-1c9.6.8,19.4.9,29,0,1,0,1.7-.4,2-1,2.1-9.9,2.6-20,1.3-30,10.1,1.4,21,2.3,30.7-1h44c.7,0,1.3,0,2,0l18-1v-31h-1v30h-95l-1,2.5v29.5h-31l-1,2.5Z"/>
    <path class="st5" d="M211.2,352h12.8c-4.3,0-8.5,0-12.8,0Z"/>
    <path class="st5" d="M211.2,352h-17.2c5.7,0,11.5,0,17.2,0Z"/>
    <path class="st5" d="M191,353v32c.8-5.2,2-11.9,2-17,0-1,0-2,0-3,0-2.5-1.2-9.3-2-12Z"/>
    <path class="st5" d="M769,544l-1,1v29c3,.6,1.9-1.5,2-3.5.3-8.5-.2-17.1,0-25.6l29-1h-30Z"/>
    <path class="st5" d="M216,512h-4c-5.9-.2-12,0-18,0l29,2v30l1-32h-2c-2,0-4,.1-6,0Z"/>
  </g>
  <g>
    <path class="st0" d="M161,800v96c10.6,0,21.3-.1,32,0,2.7-31.8,2.7-64.2,0-96-10.6.2-21.4-.1-32,0Z"/>
    <path class="st0" d="M799.1,734.4v-94.4h-31.1v-63h32v-32h31c1.5,0,0-28.3,0-31h0s-.7-1-.7-1l-29.6.5-.7,30.5c-.4-.9-.7-.9-1,0l-29.6.6c-.4,9.4-.5,18.8-.3,28.1-.5-.9-.9-.5-1.1,1.3v2c-52.8,0-105.6.2-158.3.8-1.1,9.8-1.7,19.9-1.7,30.2-.9.4-.9.7,0,1-1.9.4-3.1,1-1.6,1l-253.4-1c.6-1.7.3-2.3-1-1,0-10.4-.7-20.5-2.4-30.3-30.8-.2-61.8-.5-92.6.3.2,10.3-.2,20.7,0,31h-32c-.1,10.7.1,21.3,0,32,20.5,3,42.5,3.3,63,0l-2,1.5c-.8,3.2-.4,23.9,0,29.9-5.6-.7-25.8-.6-29.1-.3-.5,0-.8,1.2-.9,2l-2,1.5c-.8,2.7-.3,25.5,0,29.7,0,.6,1.2.8,2,.9h-31c3.4-21.2,3-43.8,0-65-10.6.1-21.3,0-32,0v96h32v32c-10.6.1-21.4,0-32,0-.1,10.7.1,21.4,0,32,10.5,3.3,22.3,2.3,33.3.9,1.3-11,.4-22-1.3-32.9,20.2,3,41.9,3.3,62,0,.8-20.9,1.1-41.9,1-63,.4.9.7.9,1,0l29.2-1c1.8-1.7,2.5-4.5,2-8.5-.7-8.3-.5-16.1.8-23.6.3,1.5.8,1.8,1.4.5l28.6-.5c.5.9.8.9,1,0,1.2-.2,1.5-.5,1-1,.4-.2.6-.4.6-.5.1,0,.3-.2.4-.5h190c-2.5.8-2.7,1.7,0,2,.4.9.7.9,1,0,0,21.6.3,42.9,1,64,9.9.9,20,.7,29.9,0-1.4.3-1.6.7-.4,1.3l.5,4.7c-2.7,1.6-3.1,11.7,0,13v1c-1.8.9-1.9,1.7,0,2v2c-1.9.6-1.9,1.4,0,2v1c-2.6,1.1-2.6,1.9,0,3-2.7,1.1-2.7,1.8,0,2l-62.5.6c-.2,10.7,0,21.2.5,31.4,19.7,2,43.1,4.1,62.8,1.4,1.6-.2,2.2-25.2,2.2-31.4.9.3,2.1.3,3.6,0,16.3,1.4,38.5.6,55.4,0-.2,5-.5,27.8,0,29.1,1.1,2.4,2.1,3.6,5.4,2.9,8.8.7,19.3.5,27.6-2,.8-10.5,1.1-21.2,1-32,4.6.4,9.3.4,14,0,.9,1.8,1.7,1.9,2,0h15c.8,2.5,1.7,2.7,2,0l.5-30.5c1.5-.2,2-.5.9-1l28.6-.5,1-63c.9-.4.9-.7,0-1,3.5-.8,30.3-1.3,31.5-.2.3.2,1.3,1.7,1.3,1.8.3,54.1.4,108.3.2,162.4l-2.1,1.3c-.9,7-1.6,19.4-1.6,26.5,0,.6,1,1,1.7,1.2h-30c.9-.2,1.5-.8,2-1.5.8-1.2-.6-25.4-.9-28.7,0-.5-1.2-.8-2-.8-10.3-.4-20.6-.7-31-1-.5-10.8-1-21.7-1.6-32.5l-5.5-.5c-.8-1.9-1.8-2-2,0h-7c-1.1-2.6-1.9-2.6-3,0h-13c-.5-.8-.8-.9-1,0-3.4,21.1-3,43.8,0,65l-1.4-2c-5.3-.8-23.1-.6-28.7,0-.6,0-.8,1.2-.9,2-.5.1-1,.3-1.4.6-1.1,1-2.6,25.8-2.6,29.4,0,.6,1.2.9,1.9,1h-116c-.7-2.7-2.9-2.9-3,0h-7c.8-3.3,1.6-6.6,1.5-10-.1-24.7-.3-49.5-.6-74.1,0-1.7-.3-3.3-.7-5s-.8-3.3-1.3-5l-.6-1-30-.5c-.8,16.8-1.2,33.6-1.4,50.5-1.9.9-1.9,2.1,0,3,1.1,2.9,1.1,6.2,0,10-1.9.9-1.9,2.1,0,3v10c-2.8,1.6-2.8,4.4,0,6v5c-3.1,1.3-2.9,6.5,0,8h-126c-.4-.9-.7-.9-1,0-.4-1.9-1-3.1-1-1.6v-60.1l-1-.3c-9.7-.7-19.6-1-29.6-1-.3-.9-.6-1.1-.8-.9-.3-.6-1-1-1.6-.6l1-.7c.4-20.9,0-41.5-1-61.8-9.9-.8-21.3-.8-31,0l-2,1.2v92.7c-3.9-.5-25.9-.1-29.1.1-.5,0-.8,1.2-.9,2l-2,1.4c-.6,5.5-.8,23.5,0,28.7,0,.5.9.7,1.6.8-20.3-3.3-42.2-2.9-62.6,0,.1,10.7,0,21.3,0,32h319v32h192v-32h32v-32h32v-31h63v-32c-10.1-3-20.9-2.9-31,0l2-1.2c.6-19.9.6-41.8,0-61.7,3.9.4,23.7.1,26.6,0,.6,0,.8-1.2.9-2l2.5-2.2c1.1-9,1.4-18.1,1-27.2l-2-2.6c-5,0-30.4,1.2-31.9-1.6ZM320,670c.8-.3,1.7-.7,2-1.4.5-1.2.3-20.8,0-26.5,5.6.8,22.1.5,28.8,0-.5,4.2-.2,23.8.1,27,0,.2.1.3.3.4-10.1-2.7-21.4-2.4-31.3.5ZM672,674c-.8.3-1.7.7-2,1.4-.5,1.2-.3,21.6,0,27.4-5.1-.7-23.4-.3-28,.1-.5,0-.8,1.2-.9,2l-2,1.4c-.9,2.7-1.1,25.5-.9,29.7,0,.6,1.2.9,2,1h-39c-7.3-3.2-17.6-3.9-25-1,0,0,0,0,0,0l1.3-4.6c.4-19.1.9-38.3,1.3-57.5h28.5s.9-2,.9-2c.8-.3,1.7-.7,2-1.5.5-1.3.3-22.6,0-28.5,8.6.5,20.6.5,29,0,.6,0,.8-1.2.9-2l2-1.5c.5-8.3.6-20,0-28.6h59.7l.2,62.1,2,.9-32,1Z"/>
    <path class="st0" d="M831,736c9.8,3.5,21.5,2.3,31.8,1-1.8,21.1-1.3,42.1,1.2,63h31v-96h-64c-.2,10.7.2,21.4,0,32Z"/>
    <path class="st0" d="M863,128l1-32h-33v-32h-126v32h-33v32h-31,0c-1.5.3-1.7.8-.5,1.5l.5,29.3,1,.3.7,1h-.4s-.2,1-.2,1c10,.5,20,.8,30,0,1.1,9.5,1.5,19.1,1,28.9-.5,0-.9.8-1,2.1v1l30.5.5c.4,2.2,1.1,1.8,1.5-.5l1,2.1c-.3,9.6-.1,19,.6,28.4l30.4.5,1,31c.3-4.3.5-8.7.7-13.1,0,4.4.1,8.7.3,13.1l.6,1,29.4,1,1.3,31h30.7v1c0,31.7.2,63,1,94l.7,1h28.6c-.6.6-.3,1.2,1.3,1.7,0,42.5.6,84.6,1.5,126.3,10,0,20,1.3,30,0v-160h-32v-64h31.5l.5-32h32v-128h-32ZM674,191h0c4.2.2,8.5.3,12.7.3l-12.6.2c0-.2,0-.3-.2-.5Z"/>
    <path class="st0" d="M161,288h31l1,1v63c.5.9.8.9,1,0h30l-2,1.5c-.6,6.3,0,24.2.9,30.6,0,.6,1.2.8,2,.8l2-1.2v-59.6c9.3-1,18.7-1.7,28.2-2.1l.8-2,2.1-1.3,1.8-27.4c29.7-.4,59.4-.4,89.1-.1v28c1.3,3.3,5,3.5,4-.1.4-9.9.4-19.9,0-30l-1-1c-31.7-1-63.3-1-95,0h-1l-.5,30.5c-.3,0-.5,0-.7.2-9.5.7-19.1,1.1-28.8,1.3h-1c.9-20.6.7-41.4,0-62l-1,.6-.2,13.6c.2-15.5.2-31,.2-46.6l-1-.2c.7,0,1.4-.6,1.7-1.2,10.2-.7,20.3-1.1,30.3-1.3.6-.2,1-.4,1-.7.3-9.2.3-19.4,0-28.5,0-.1-.4-.2-1-.3.9-.3,1.8-.7,2.2-1,4.1.6,28.3.2,29.5-.7.2-.1.3-.5.3-.8.8-9.5.8-20.2,0-29.5,1.5-.6,2.3-1.1,2.5-1.5,31.2.5,62.1.2,92.6-1-.2.2,0,.3.2.5l-16.1.4-.2,1c6.2.8,12.8.8,19,0,.6-10,.8-20.2.5-30.5,2.2-.4,1.8-1.1-.5-1.5,48.7.9,97.3.7,146,0l-6.3-1.1c-2,0-4.1,0-6.1,0,40.6.1,81.2.2,121.1.2l.3-1v-31h-255v31c15.8.2,31.6.3,47.6.4-15.9,0-31.7.2-47.6.6-21.6-.1-43.3,0-65,0v-32h-33v-32h-94v32h-32v32h-32v128h32v32ZM383.4,152.6c0,2,0,4,0,6-.2,0-.3,0-.5,0,.2-2,.3-4,.4-6.1ZM384,129c-.2,3.4-.3,6.9-.4,10.3,0-3.6-.3-7.1-.6-10.3.4.9.7.9,1,0Z"/>
    <path class="st0" d="M193,448c2-21,2-42,0-63l2-1.4c.6-2.3.9-15.1-2-15.6-.5,2.1-.9,4.2-1.2,6.4.2-4.7.3-9.4,0-14.1.3,1.7.7,3.3,1.3,4.8,3-1.5,2.3-12.3-1-13-10.3.1-20.7-.1-31,0v161c10,1,20.2-.9,30-1,.2-8.4.4-16.8.5-25.2.1,8.4.3,16.9.5,25.2h1c-.3-21.3,0-42.7,0-64Z"/>
    <path class="st0" d="M256,577c.6-.4.7-.7,0-1,.6-10.6.4-21.1-.6-31.5l-30.4-.5-1-32c-.9.3-1.5.7-1.8,1l-28.2-1h-1c.1,11,0,22,0,33h32v32c10.3.2,20.7-.2,31,0ZM223.3,526.7c0-4.3-.1-8.5-.3-12.7h0c.1,0,.3,0,.5.1l-.2,12.6Z"/>
    <path class="st0" d="M353,352h-65v65h63l-1,29h-30l-1,2.5v30.5h-93l-1-31h0v32h95v-31l32-1,1-1c0-10.3-.1-20.7,0-31,.3-21.3-.2-42.7,0-64Z"/>
    <path class="st0" d="M673,352c-.4-.7-.7-.7-1,0v2l30.9,1.7v123.4c.1,0-156.9,0-156.9,0l-1-31-1,32,.7,1,159.3-1h1v-128c-10.8-.2-21.3-.6-31.7-1.3l-.3,1.3Z"/>
    <path class="st0" d="M545,288v1l-1,31,2-31,93,1v29.5l1,2.5h31l1,29v-1c.7-9.4.7-19.1,0-29l-32-1v-32h-95Z"/>
    <path class="st0" d="M516,320h16.1c-5.5-.2-11-.5-16.1,0Z"/>
    <path class="st0" d="M544,320h-11.9c4,.1,8,.3,11.9,0Z"/>
    <polygon class="st0" points="514 320 514 320 514 320 514 320"/>
    <path class="st0" d="M512,320l1,127c1.1,1.2,2.6.8,4,1l-3.1-2.4v-125.5c0,0-1.9,0-1.9,0Z"/>
    <path class="st0" d="M526,448c-.7,0-1.5,0-2.2,0h2.2Z"/>
    <path class="st0" d="M523.8,448h-4.8c1.6.1,3.2,0,4.8,0Z"/>
    <path class="st0" d="M531,448c-.4,0-.8,0-1.2,0h1.2Z"/>
    <path class="st0" d="M529.8,448h-1.8c.6,0,1.2,0,1.8,0Z"/>
    <path class="st0" d="M534.1,448h-1.1c.4,0,.8,0,1.1,0Z"/>
    <path class="st0" d="M536,448c-.6,0-1.2,0-1.9,0h1.9Z"/>
    <polygon class="st0" points="704 222 704 224 705 224 704 222"/>
    <path class="st0" d="M197.5,446c-1.9,0-4-1-3.5,2h30c-2.8-3.3-21.3-2.2-26.5-2Z"/>
    <path class="st0" d="M768,545l1-1c-.5.2-.7.6-1,1Z"/>
    <polygon class="st0" points="447 417 386 417 386 479 415.5 479 417 478 418 510 478 511 479 482 448 480 447 417"/>
    <path class="st0" d="M213.4,512h-1.4c.5,0,.9,0,1.4,0Z"/>
    <path class="st0" d="M216,512c-.9,0-1.8,0-2.6,0h2.6Z"/>
    <path class="st0" d="M348,161h5.7c-1.9,0-3.8,0-5.7,0Z"/>
    <path class="st0" d="M364,161h-10.3c3.4,0,6.9,0,10.3,0Z"/>
    <path class="st0" d="M322,161h9.3c-3.1,0-6.2,0-9.3,0Z"/>
    <path class="st0" d="M337,161h-5.7c1.9,0,3.8,0,5.7,0Z"/>
    <polygon class="st0" points="704 800 705 801 705 800 704 800"/>
  </g>
  <g>
    <path class="st2" d="M831,385l-.7-1h-28.6c.6-.6.3-1.2-1.3-1.7l-.5-93.3c.9-.4.9-.7,0-1h-29.9c-.9-1.9-2-1-2.1,1-.2.1-.4.3-.5.4-10.1-.8-20.3-1.2-30.5-1.4.8-.3,1.7-.7,2-1.5.4-1.2-.4-20.7-.8-26.4,5.8.5,22,.7,27.3,0-1,1.9-1.2,4.3-.7,7.1-.1,6,0,15.1,3.2,19.8l1-.7-1-29.3-29.7-1-.3,1-1-1c.9-.4.9-.7,0-1v-30.7l-1-.3-29.6-.5c-.4-2.2-1.1-1.8-1.4.5-.4-.7-.7-.7-1,0l-.6-30.5-31.4-.5c.9-.4.9-.7,0-1,.9-.4.9-.7,0-1l-.6-29.5-63.4-.5c.9-.4.9-.7,0-1-.7-1-.4-2,0-3,2.5-5.3,2.6-15.1,2.1-21.4.2-1.4,0-2.6-.4-3.6,5.2.4,21.8.8,27.4.1l-.4,18.1c-.5,4.5.6,7.4,3.2,8.7l1-.7-.6-30c-9.8-.9-20.7-.8-30.3.7h0s-2,0-2,0c-74,.2-148,.6-222,1-.8,9.8-.8,20.9,0,30.5-1.7.7-2.2,1.2-1.5,1.5-20.3-.9-42.4-.9-62.5,0-.5.2-1,.4-1,.7-.2,9.8.1,20.5,1,29.8-1.7.7-2.2,1.2-1.5,1.5-9.8-.8-21-.9-30.5,0l-1,.6v29.4c-.4-.9-.7-.9-1,0l-31.3,1c.8,10.5.9,21.2.3,32-10.6,0-20.9.3-31,1-1,19.8-.8,41.4,0,61,9.3.8,19.9.8,29,0,.7-10.2,1.1-20.5,1-31,.4.9.7.9,1,0,31.7-1,63.4-1,95,0h1c0,10.6.3,20.9,1,31,10.4.4,20.6.4,30.5,0,.7,1.7,1.2,2.2,1.5,1.5-.9,30.8-.9,64.1,0,94.5,20.5.8,41.2,1.1,62,1,.4.9.7.9,1,0v62.7l1,.3c10,.6,20.2.8,30.5.5,0,.3.1.6.2.8,1.2,9.6,1.3,21.4.1,31.5-.5-.4-1-.8-1.5-1.3-1.4-.5-29-.5-30.4.2-.5.3-.8,1.1-1,2l-31,.2c.9-.4.9-.7,0-1-.4-.9-.7-.9-1,0l-.7-29-1.1-.6c-11.5,0-21.5-.9-30.2-2.4.6-21.4.8-43,.5-64.7-.2-.5-.5-.9-.9-1.3-1.1-1-26.3-.3-29.7,0-.5,0-.8,1.2-.9,2-1.7,10-2.4,21.2,0,31l-1,1c-.8-1.8-1.5-2.7-2.1-1-3.4,0-28.9-.7-29.6.6-.2.4-.3.8-.3,1.3v1c-.6,9.4-.8,18.9-.5,28.6-2.2.4-1.8,1.1.5,1.4l-.6,2h-93.9s-2.5-2.5-2.5-2.5v-30.5h-29v62h30.5l1.5,1.5v29.5l29,2c.4.9.7.9,1,0l1,1c-.9,9.1-1.2,18.5-1,28,.3,1.3.6,2.3,1,3,31,1,62,.8,93,0-10.5-.8-21-1.4-31.6-1.7,117.9,1.1,235.7,1.3,353.6.7-.9.4-.9.7,0,1h96c2.5-.8,2.7-1.7,0-2,.4-.2.8-.4,1-.7.8-1.1,0-24.6,0-28,0-.1-.4-.2-1-.3-.5,0-1,0-1.5,0-2.5.5-1.7,22.5-1.3,27h-91.1c.5-5.3.7-20.4,0-26h60.9l.9-2,2-1.5c.6-1.6.3-22.5,0-28.5,6.3.7,23.2.6,29,0,.6,0,.8-1.2.9-2,2-.7,2.6-2.6,2-5.7,1.3-16.6.6-39,0-56.2,4.1.5,25.7.1,29.1-.1.6,0,.8-1.2.9-2l2-1.2v-58.7c4.8.7,20.1.4,26,0v120.9c-3.8-.4-23.9.6-27.2,1-.5,0-.8,1.2-.8,2,10,2.3,20.9,1.7,31,0h1c.5-41.5.2-85.9-1-127ZM258,574l2-1.4c.5-4.6.8-20.4.2-26.4,4.3.5,24.1.9,26.9.8.6,0,.8-1.2,1-2l1,28.2.9.8c-.6,0-1.3,0-1.9,0-8.5-3.5-21.2-3-30,0ZM796.6,350c-4.4-.4-24.2-.8-27.7,0-.6.1-.8,1.2-.9,2l-.5-62.2c.1,0,.3.1.5.2l1.4,2h27.1c-.9,20-1.5,40.2,1.4,60l-1.4-2Z"/>
    <path class="st2" d="M225,385l-1-33h-32l1,13c-1.5,1-1.5,2,0,3v17c.4.9.7.9,1,0h30c.4.9.7.9,1,0Z"/>
    <path class="st2" d="M736,673h31v158h-61l-1-31v1c-.6.2-1,.4-1,.7-.2,10,.2,20.7,1,30.3l1,1c9.9.6,20.1.9,30,0,10.6-.2,21.3-1.9,32-1v-160h-32v1Z"/>
    <path class="st2" d="M353,576l-1,31,1,1h26c.4-.5.8-.9.9-1.4,1.2-3.7-21.4-2.6-23.8-2.1l-.2-27.6-2-.9h0c-.3,0-.7,0-1,0Z"/>
    <polygon class="st2" points="604.8 605.1 577.8 606 577 608 608 608 608 607 608 577 606 578.4 604.8 605.1"/>
    <polygon class="st2" points="735 736 705 736 705 768 706 737 735 736"/>
    <path class="st2" d="M576,742v-6c-10-.2-20,.2-30,0h-1c-.8.5-.9.8,0,1h30c-.7,2,.8,3.8,1,5Z"/>
    <path class="st2" d="M563,768h13v-2c-4,3-13.6-1.9-13,2Z"/>
    <path class="st2" d="M703,768h-6.1c2,0,4.1,0,6.1,0Z"/>
    <path class="st2" d="M688,768h8.9c-3,0-6-.1-8.9,0Z"/>
    <path class="st2" d="M672,768v1l14-1c-4.6.2-9.3-.1-14,0Z"/>
    <path class="st2" d="M576,760c0-.7,0-1.3,0-2v2Z"/>
    <path class="st2" d="M576,763c0-.3,0-.7,0-1v1Z"/>
    <path class="st2" d="M258,194h30v-1c-.5-.4-1.2-.4-2,0-9.6.1-19.3-.1-29,0v31c.6,0,1.3,0,2,0l-1-30Z"/>
    <path class="st2" d="M386,480l30,1c-1-1.8-25.9-1-30-1Z"/>
    <path class="st2" d="M543,673c-61.9-2.3-127.5-2-189,0-.8,10.5-1.1,21.2-1,32h0s-1,0-1,0l-30.4.6c.1,0,.3-.3.4-.6v-32c9.7.8,19.4-.6,29-1h-30c-1.3,8.2,2.2,24.9-1,32l1,1c.2.4.3.6.5.6l-.5,30.4h-33c0,10.7,0,21.3,0,32h32c.4.9.7.9,1,0v32c0,10.7,0,21.4,0,32,10,.3,20,1,30,1l-1.3-2.1c-4.4-1-19.7-2-25.6-1.9.7-5,.4-20.8,0-26.9,6.2.7,22.6.6,28,0,.6,0,.8-1.2.9-2l.6,31.4c-.2-.2-.4,0-.6.6-.9.4-.9.7,0,1v63h1v-64c0-.2-.2-.4-.3-.5l35.3.5h91c.2-10.7,0-21.4,0-32,10.7,0,21.4.1,32,0h1v-32c10.7,0,21.4,0,32,0-.2-.6-.9-1.4-1-2,.6-31.3.2-62.3-1-93Z"/>
    <path class="st2" d="M537.3,606.4c-2.7,0-7,.3-9.3,1.6h20c.5-2.5-9.6-1.6-10.7-1.6Z"/>
    <path class="st2" d="M513,608h3c.5-3.2-1.9-2.5-3,0Z"/>
  </g>
  <g>
    <path class="st4" d="M228.1,540.1c.7-5.3.5-21.8,0-26.7,0-.6-1.2-.8-2-.9,1.4-2.4.4-3.5-1.5-1.5l-1.5-2c-1.9-.6-21.3-.3-27,0v-57.8c3.4.4,19.8.2,24.9,0-.5,4.2-.2,24.2.1,27.5,0,.5,1.2.8,2,.9-1.6,2.4.7,4.2,3.2,4.6h92.5c2.7-.6,4.4-3.4,1.3-4.1-.4-1.5-.8-1.8-1.2-.5h-92.6c-1-10-1.4-20.1-1.2-30.5,0-.7-.3-1-1-1h0c-3.4-1-28.7-2.1-29.7-.9-.2.2-.3.6-.3.9-.4-.9-.7-.9-1,0-1.3,21.3-.9,42.7,0,64,.5.9.8.9,1,0,6.1.4,12.1.4,18,0h4c1.3,1.3,4.9,1.5,6,0h1c.4.9.7.9,1,0v31.7l1,.3c10.2.4,20.2.4,30,0,0-.5-.2-1-.6-1.4-.9-1-20.8-2.4-26.4-2.5Z"/>
    <path class="st4" d="M288,545v29c20.6.8,41.4.7,62,2,.9,1.9,2.1,1.9,3,0,.5.9.8.9,1,0,106,4,212.1,1.6,318-1l-382-1-2-29Z"/>
    <path class="st4" d="M225,320h31v-32l-1,31h-29v-61l31-1s0,0,0,0l1-31,30-2c-9.6.1-19.3-.2-29,0-.6-1.9-1.5-1.9-2,0h-1c-9.9-.8-20.1-.9-30,0l-1,1c-1.7,10.8-1.6,22.2,0,33-.2,20.6.2,41.4,0,62ZM254.9,228.2c-.6,5.9-.6,20.5,0,26.7-5.8-.6-20.5-.6-26.8,0,.4-5.5.7-21.2.1-26.8,5.5.4,21.1.7,26.7.1Z"/>
    <path class="st4" d="M516,320h28c.8-10.6,1.1-20.9,1-31h0c0-.7-.4-.9-1-1l-1,31h-32v128.5l2-.5c.9-.1,1.1-.8.5-1.9l-.4-122.4,1-2.7c.7,0,1.3,0,2,0Z"/>
    <polygon class="st4" points="544.6 482 704 480 544 480 544.6 482"/>
    <path class="st4" d="M288,194c.1,9.9.7,20.1,1,30l1-30h30.5l1.5-1.5v-30.5h62.5l1.5-1.5v-30.5c74,.7,148-.4,222-1h-77s-146,0-146,0v32c-6.3,0-12.7-.1-19,0-.6-1.5-1.4-1.5-2,0h-16c-.6-1.5-1.4-1.5-2,0h-7c-.6-1.5-1.4-1.5-2,0h-15c-.6-1.5-1.4-1.5-2,0l-2,1.5.9,28.4c-10.8-.9-21.1-.2-30.9,2-.9.5-.9.8,0,1Z"/>
    <path class="st4" d="M386,415v-94.5l-1.5-1.5h-30.5l-1-31h0v31l32,1v96h63l-62-1Z"/>
    <path class="st4" d="M479.5,512.5l-25,.2c8.1,0,16.3.1,24.5.3l.5-.5Z"/>
    <path class="st4" d="M482,479h-32l-1-63c-.8,20.9-1.1,41.9-1,63v1h33v27c0,.3,0,.7,0,1v3l-1.5,1.5h2.5v-33.5Z"/>
    <path class="st4" d="M417,513l37.5-.3c-12.6,0-25.1,0-37.5.3Z"/>
    <polygon class="st4" points="705 480 705 352 704.5 352 705 480"/>
    <path class="st4" d="M674,351l-1.9-28.1c.4,8.7-1.2,18.8-.1,27.1,0,1,.4,1.7,1,2h31.5v-1h-30.5Z"/>
    <path class="st4" d="M672,321v1.9c0-.7,0-1.3,0-1.9h0Z"/>
    <path class="st4" d="M768,288h-31l30,2,1,62c-.5-20.6.6-41.4,0-62,0-.3,0-.7,0-1,.9-.5.9-.8,0-1Z"/>
    <path class="st4" d="M671,162l1,29c.6-.2,1-.4,1-.7.3-9.3.3-19.7,0-29,0-.1-.4-.2-1-.3-10,0-20,0-30,0h-34l63,1Z"/>
    <path class="st4" d="M352,288c-3.9-3.1-83.7-.4-95,0h95Z"/>
    <path class="st4" d="M384,480l.7,2,29.9,1.9,1.4,28.1v-31c-10-.8-20-1.2-30-1h0s-2,0-2,0Z"/>
    <path class="st4" d="M672,193l31,1,1,30c.4-.4.4-1.1,0-2v-29h-32Z"/>
    <path class="st4" d="M798,352c0,11-.4,22.1.5,33l-.5-33Z"/>
    <path class="st4" d="M608,160v-3c0,.2-2,1.8,0,3Z"/>
    <polygon class="st4" points="322 705 321 705 321 736 322 706 352 705 322 705"/>
    <path class="st4" d="M544,766v-13.1c-.4,4.4-.6,8.9,0,13.1Z"/>
    <path class="st4" d="M537,672c-56.6-3.3-126.8-1.8-184,0v33l1-32h189l.9,79.9c.4-5.4,1-10.7,1.1-15.9v-2l-1-63c-2.3,0-4.7.1-7,0Z"/>
    <path class="st4" d="M353,800h0c-.9.2-1.5.7-2,1.4-.8,1.2-.2,26.2,0,29.7,0,.6,1.2.8,2,.9h36l-35-1-1-31Z"/>
    <path class="st4" d="M321,799v-31c-.4,10.2-.4,20.5,0,31Z"/>
  </g>
  <g>
    <path class="st3" d="M864,800c.2-21.3-.2-42.7,0-64-11-.2-22,.2-33,0h0c-.2,10.4.9,22-1.5,32h-29.5v65c10.3,0,20.7,0,31,0,11,0,22,0,33,0,0-11-.1-22,0-33Z"/>
    <path class="st3" d="M256,577h1c.9-.5.9-.8,0-1,0-1.1.3-2.4-1-3v4Z"/>
    <path class="st3" d="M517,448c.7,0,1.3,0,2,0h7c.7,0,1.3,0,2,0h3c.7,0,1.3,0,2,0h3c2.3.1,4.7-.1,7,0h2v30.7l1,.3c51.4.9,106,.9,157,0l1-.7-.2-124-1.3-.5c-10.5.2-20.6-.4-30.5-1.8.5-.4.5-.7,0-1,0-10-.3-19.6-1-29-9.7-.8-20.1-1.2-30.1-1,0-.6-1.1-1.2-1.9-1.5.8-9.5.8-20.2,0-29.5l-.7-1-92.8-.4-1.5,31.4h-28c-.8-.7-1.6-.9-2,0l-1,.7.5,125.1c.7,1.2,1.9,1.9,3.5,2.2Z"/>
    <path class="st3" d="M256,320l-31,2v63h-32v63h1c7.6-2.1,20.7-1.5,30,0h1c0,10.6.2,20.9,1,31,30.3.9,63,.9,93,0,.2-10.3.6-20.4,1.3-30.2l-1.3-.3c1.4.2,2.4-.3,2.6-.9,4.6.6,25-.4,28.1-.5.1,0,.2-.5.3-1,.5-.1,1-.3,1.4-.6,1-1,.7-24.7.6-28,0-.1-.4-.2-1-.3l-1.2-2h-59.8v-61h62.1l.9-2c-3.3,20.8-3,43.1,0,64h31v64c.4.9.7.9,1,0,1.5-.4,1.8-.8.5-1.2v-61.3c2.2-.4,1.8-1.1-.5-1.5.7-32,.7-64.1.2-96.1-10.2-.6-20.5-.9-30.7-.9-.9-1.6-1.3-1.9-1.5,0l-2,1v-31h-93l-2,31h0Z"/>
    <polygon class="st3" points="417 512 417 513 479 513 417 512"/>
    <polygon class="st3" points="545 288 544 288 545 289 545 288"/>
    <path class="st3" d="M353,288h-1c.4.3.6.7,1,1v-1Z"/>
    <path class="st3" d="M672,800c-.5-.8-.8-.9-1,0-10.3-.2-20.7.1-31,0v-32h-63l-1,32c-20.7.2-41.4-.2-62,0-.5-.9-.8-.9-1,0-.5-.9-.8-.9-1,0-2.5.8-2.7,1.7,0,2,0,31.3-.6,62.7,1,94h126l2-31h31c.2-21.7-.3-43.4,0-65Z"/>
    <path class="st3" d="M640,640h-32v32h-31.5c-.8,21.3-.5,42.7-.5,64h0c8.3.2,16.6.9,25,1h39l1-32h31v-31l32-1v-65h-64v32Z"/>
    <path class="st3" d="M287,768h0c-20.7.2-41.4-.3-62,0v32c-10.7.1-21.4-.2-32,0-.4,31.9-.4,64.1,0,96,21,.3,42-.2,63,0v-31h32v-96c-.1-1.2-.5-1.5-1-1Z"/>
    <path class="st3" d="M225,640c-.3,21.6.2,43.4,0,65h31v-32h32v-33c-21,.2-42-.3-63,0Z"/>
    <path class="st3" d="M768,832c-10.4-1-22-1.1-32,1-.9.4-.9.7,0,1l1,31h30c1-1,1.8-25,2-29,.1-2.1-.2-3.4-1-4Z"/>
    <path class="st3" d="M353,640h-33v30c11,0,22-.1,33,0v-30Z"/>
    <path class="st3" d="M544,670c-26.9-.2-53.9-.1-80.8,0h80.8Z"/>
    <path class="st3" d="M463.2,670h-109.2c36.4.4,72.8.2,109.2,0Z"/>
    <path class="st3" d="M486.9,671.7l50.1.3c-16.7-.1-33.4-.2-50.1-.3Z"/>
    <path class="st3" d="M353,671l-1,1c.3,0,.7,0,1,0,44.6-.3,89.3-.4,133.9-.3l-133.9-.7Z"/>
    <path class="st3" d="M544,672c-1.5.4-1.8.8-.5,1.2,0,21,.4,41.6,1.5,61.8.4-21-.3-42,0-63h-1Z"/>
    <polygon class="st3" points="800 161 831 161 831 129 800 129 800 97 736 97 736 129 800 130 800 161"/>
    <polygon class="st3" points="193 162 224 161 225 130 256 129 256 97 193 97 193 129 161 129 162 225 193 225 193 162"/>
    <path class="st3" d="M481,482c-.2,3.5-.1,7,0,10.5v-10.5Z"/>
    <path class="st3" d="M481,492.5v14.5c.4-4.8.2-9.7,0-14.5Z"/>
    <path class="st3" d="M481,509.8v1.2c0-.4,0-.8,0-1.2Z"/>
    <path class="st3" d="M481,509.8v-1.8c0,.6,0,1.2,0,1.8Z"/>
    <path class="st3" d="M257,224v-1l-1,1h1Z"/>
    <path class="st3" d="M320,704l-.6.6c.2-.2.5-.4.6-.6Z"/>
    <path class="st3" d="M319,705l.4-.4c-.2.1-.3.3-.4.4Z"/>
    <polygon class="st3" points="321 799 321 768 320 768 321 799"/>
    <polygon class="st3" points="353 834 353 833 352 833 353 834"/>
    <path class="st3" d="M288,192l-2,1c.7,0,1.3,0,2,0v-1Z"/>
  </g>
  <rect class="st0" x="545" y="352" width="63" height="65"/>
  <g>
    <path class="st1" d="M800,386v62h-32v64h-32v32h-64v30h95c1-5.6-1.8-25.3,1-29l1-1c.3,1.5.8,1.8,1.4.5l28.6-.5h1v-32l30-1v-125h-30Z"/>
    <path class="st1" d="M768,352h30c0-20.7,0-41.4,0-62h-30c-.4,20.6-.4,41.3,0,62Z"/>
    <path class="st1" d="M608,160v1h32c-.1-.6.2-1.5,0-2-2.7-9,0-19.8-1-29h-31c.5,8.8-.7,18.3,0,27-.4,1-.7,2.1,0,3Z"/>
    <path class="st1" d="M766.6,289c.5,1.8,1.2.9,1.4-1,.9-.5.9-.8,0-1-.4-9.6-1.8-19.3-1-29h-31l1,30,29.6,1Z"/>
    <path class="st1" d="M289,573.3l-1-28.3-30-1v30c10,.3,20-.4,30,0l1-.7Z"/>
    <polygon class="st1" points="448 416 448 479 449 416 448 416"/>
    <path class="st1" d="M736,673l-1,63-29.5.6-.5,31.4h-17c-.7,0-1.3,0-2,0-5,0-9.6.2-14,1-.4,10.3-.4,20.7,0,31h14c1,0,2,0,3,0h7c.7,0,1.3,0,2,0l4.7.5c.6,1.3,1,1,1.3-.5h1c0,10.6.3,20.9,1,31l.7,1c20,0,40.8,0,60.3-1,.9-51.7.9-106.7,0-158-9.9-.8-21.3-.8-31,0Z"/>
    <path class="st1" d="M353,672h0s-1,0-1,0c-.3,0-.7,0-1,0l-29.3.5c0,10.3,0,20.6-.6,30.8-.2,0-.6.1-1.1.7l-1,1-.7-1-29.3,1h-1v31c.1.5.3,1,.7,1.3,1.1,1.1,27.6.9,31.4.7.5,0,.8-1.2.9-2l.5-29.6c2.2-.4,1.8-1.1-.5-1.4,0-.3.2-.5.2-.8l.8.8c9.9.4,19.9.4,30,0,.4.9.7.9,1,0l.5-31.5c2.2-.4,1.8-1.1-.5-1.5Z"/>
    <path class="st1" d="M576,742l-.6-5.5c-10.4-.3-20.5-.1-30.4.5-1.4,9.3-1.6,19.4-1,29-1.7,1.2-.8,1.5,1,2h18c3.8-.7,8-1,12.4-.8l.6-1.2c0-1-.2-2,0-3v-1c0-.7,0-1.3,0-2v-2c0-.7,0-1.3,0-2v-1c0-4,.6-9.4,0-13Z"/>
    <path class="st1" d="M480,867c0-1,0-2,0-3,1-3.6,1-6.9,0-10,0-1,0-2,0-3,.3-6.3.3-12.7,0-19l-1.2-2h-89.1l-.7,2c-11.8-.4-23.5-.4-35,0-.8,20.8-.9,43.4,0,64h126c.1-2.6-.2-5.4,0-8v-5c0-2,0-4,0-6v-10Z"/>
    <path class="st1" d="M225,449v-1h-1c.3.4.7.7,1,1Z"/>
    <path class="st1" d="M672,575c-106.1.8-211.9.9-318,1v31c4.9-1.4,10.5-1.1,15.5-.9,1.1,0,10.2-.5,9.5,1.9h134c1-.5,2-.9,3,0h12c6.4-.8,13.8-1.7,20,0h29l30-1,1-30c2.3-2.3,56.2-1,64-1v-1Z"/>
    <polygon class="st1" points="672 575 672 575 672 575 672 575"/>
    <polygon class="st1" points="259 225.4 291 225.4 291 195 323 195 323 161 289 161 289 191.4 257 191.4 257 224 225 224 225 258 259 258 259 225.4"/>
    <polygon class="st1" points="322 831 351 833 352 833 353 833 353 832 353 800 322 800 322 831"/>
  </g>
</svg>