<?xml version="1.0" encoding="UTF-8"?>
<svg id="_레이어_1" xmlns="http://www.w3.org/2000/svg" version="1.1" viewBox="0 0 1024 1024">
  <!-- Generator: Adobe Illustrator 30.1.0, SVG Export Plug-In . SVG Version: 2.1.1 Build 136)  -->
  <defs>
    <style>
      .st0 {
        fill: #014a4a;
      }

      .st1 {
        fill: #4cdfd2;
      }

      .st2 {
        fill: #c0fff3;
      }

      .st3 {
        fill: #29aba6;
      }

      .st4 {
        fill: #fefefe;
      }

      .st5 {
        fill: #072628;
      }
    </style>
  </defs>
  <g>
    <path class="st4" d="M673,128c-1.9,0-1.5,1.7,0,2-.4,10.3-.4,20.7,0,31v31c0,21.3-.8,42.8,1,64v-128c-.5-.9-.8-.9-1,0Z"/>
    <path class="st4" d="M642,257v-1h-1c-1.6,8.4-1.8,17.6,0,26,0,2.3,0,4.7,0,7h1c0-10.7.1-21.4,0-32Z"/>
  </g>
  <g>
    <path class="st2" d="M607,129h-30v1c9.4-.9,21,1.7,30-1Z"/>
    <path class="st2" d="M703.5,737.3c-10.8.1-21.3-.3-31.5-1.3.9-.4.9-.7,0-1l-.5-29.7c-10.4.1-20.6-.3-30.5-1.3,1.5-.3,1.8-.8.5-1.5l-.5-30.5h-2l-2,1.5c-.3,3.8-.7,23-.2,28.5-5-.6-19.2-.5-24.8,0v-25.9c1.7-1.7,2.1-3,1-4-1.3-.7-2.7-.7-4,0-.5-.9-.8-.9-1,0-.9.4-.9.7,0,1l1,1-1,.9-.6,27.4c-1.3.9-1,1.5.6,1.8-10.6.8-20.9.8-31,0-85-2-170-2-255,0l2-1.5c.8-3.3.4-22.3,0-28.6h156.2l.7-2,2-1.5c.8-5.5.7-21.7.1-28.6h61l.9-2,2-1.5c.6-1.6.3-22.6,0-28.5,5,.2,27.7.5,29,0,.6-.2.8-1.2.9-2l2-1.5c.8-5.4.7-21.6.1-28.5,6.4.7,23.2.6,29,0,.6,0,.8-1.2.9-2l2-1.5c.3-4.1.8-23,.2-28.5,6.1.5,23.3.8,27.9,0,.6,0,.8-1.2.9-2l2-1.2v-60.7c6.3.7,23.3.6,29.1,0,.6,0,.8-1.2.9-2l2-1.2v-90.7c5,.7,20.9.4,27,0,.3,62.4.7,124.8,1,187.2l2,.7h1l-1-191c-10.7,0-21.3,0-32,0h-31l2-1.2c-.3-20.7-.6-41.3-1-61.9,4.9.8,26,.4,29.1.2.5,0,.8-1.2.9-2,.1-10,0-20,0-30l31-1h1c0-.3,0-.7,0-1-.2-11.3-.5-22.5-1-33.5-1-1-24.8-.7-28-.5-.6,0-.8,1.2-.9,2-.4-21.4-.7-42.7-1-64l-1.4-2c-5.1-.7-20.9-.7-27.5-.1.5-7.6.5-18.4,0-26l18.5.4c4.4.5,7.2-.6,8.4-3.2h0l-1.5-2c-4.8-.6-22-.7-26.6,0-.6,0-.8,1.2-.9,2l-1.4,1.6c-.6,9.9-.4,19.7.4,29.4.3,21.4.6,42.7,1,64-.6.5-.7.8,0,1l1.5,2,26.4-.9-.9,30,2,1h-29c-.4-.9-.7-.9-1,0-2.2,8-3.2,19.4-2,27.7.2,1.1.7,2.3,1.3,3.4h-.3c-.3-.9-.7-1.8-1.4-2.1-1.3-.5-25.4-.2-28.7,0-.5,0-.8,1.2-.9,2,3-21.2,3.1-42.8,0-64,.6-.4.7-.8,0-1l-1-91.8-1-1.2c-9.6-1.1-19.8-.7-29,0-.3,51.8-.6,103.7-1.1,155.7-.7-.6-1.3-.1-1.7,1.8l-190.3.5h-1c-9.4-3.2-20.5-3-30,0l2-1.2v-60.8c7.9.5,19.4.5,27.1,0,.6,0,.8-1.2.9-2,2-.7,2.6-2.6,2-5.7,1.2-16.9.6-38.8,0-56.2,3.6.5,21.6.1,26.9,0v91c-5.2-.2-23.9,0-27.2.9-.6.2-.8,1.3-.8,2h31v-96l-.5-94c-10.2-.7-20.7-1-31.5-1v-1c0-10.3-.3-20.3-1-30-20.2-.7-40.5-.7-61,0-.8,10.2-1.1,20.5-1,31h0c-.4-.6-.7-.6-1,0-10-.2-20,.2-30,1-.9,51.4-.8,106,0,157,9.9,1,19.5,1,29,0,.6-.2,1-.5,1-.7.3-41,.3-83.1,0-124.1.5.5.9,0,1.1-1.8l30.9-.5c.4.9.7.9,1,0v128c-.8,10.5-1.1,21.2-1,32,.3,10.6,1.8,21.3,1,32-21.3.2-42.8-.2-64,0-.1,10.7-1.4,21.3,0,32-.3.6-.3.9-.1,1.1-10.4.2-20.7.5-30.9.9-1.1,1-1.4,2.8-1,5.2-.3,7.9-.3,16.9,0,24.8-.6,0-1.2,1.1-1.5,1.9-9.4-.8-20.2-.8-29.5,0-.1,20.4-.6,40.8-1.3,61.2h.5c-1,.1-2.1.9-2.3,1.7v-.2c-9.8.7-19.4,1.2-28.9,1.3-.8,20.5-1.1,41.2-1,62-.1,21.6-.3,43.4,0,65v1l.6,29.5,30.4.5c.4.9.7.9,1,0l.6,31.5,29.4.5c.5.9.8.9,1,0,20.9,2.7,41.9,3.1,63,1.2-1.4,10-2.4,21.2,1,30.8-.7,10.6-.7,21.4,0,32-3.2,9.9-3,22,0,32l-1.4-2c-4.8-.7-20.2-.7-26.5-.1.6-6.5.8-23.7,0-29,0-.6-1.2-.8-2-.9h-1c-.9.4-.9.7,0,1,0,10.3.1,20.7,0,31v64c0,21-.3,42,0,63l1.4-3.5c1.3-17.3,2.5-35.1,1.8-52.6,0-1.2-.4-2.3-.7-3.5s-.9-2.3-1.4-3.5l1.4,2c2.5.7,20.6.4,26.4,0-.6,4.5-.2,25.1.1,29,0,.6,1.2.8,2,.9,0,.6,0,1.1.1,1.6.6,2,27.9.9,31.9.4l1-2c.3,1.5.8,1.8,1.5.5h28.4c.6,2.4,1.8,1.9,2.1-.5,3-9.7,3.2-21.4,0-31l-32-1c.5-.5,1.1-1.1,1.5-1.7,2-3.1.2-31.7-.5-37.8l-2-3.5v-20c1,.2,1.5-.4,1.6-1.5l62.4.5c-2.5,21.3-2.5,42.7,0,64,.2.9.7,1.5,1.5,2,1.2.8,23.5.3,29.5,0v92.9c-5.6-.7-20.6-.6-27,0,.7-6.1-.3-24.2-1-30,0-.6-1.2-.8-2-.8-.9.4-.9.7,0,1,.1,2.3-.1,4.7,0,7-1.3,7.6-2.1,17.6,0,25,0,20.9.2,41.6,1,62,4.2.8,10,.9,14,0,.8-10.2,1.1-20.5,1-31h16l.6,31.5,63.4-.5c.9-31.3.7-62.7,0-94,.4-.4.5-.8,0-1,3.3-9.8,2.4-20.6.9-30.7,9.7,1.3,19.4.3,29.1-1.3l1-.6c.4-10.5.4-20.9,0-31.4.9,2.2,1.6,2.8,2.1.5,9.9.2,19.5,0,28.9-.5l1-.7v-29.7c.7-1,1.2-1.9,1.5-2.6,20.5.8,42.7.9,63,0,.7,1.7,1.2,2.2,1.5,1.5-.6,10.3-.8,20.7-.5,31.3-.9.1-1.3.3-1.4.5-.8,0-1.7.1-2.9.4l-29.2.3c-4.7-2.6-29.9-3.3-31.6-.5-1,10.9-.8,21.8.6,32.5.4.9.7.9,1,0-.3,21.3-.7,42.6-1,64-.4-.9-.7-.9-1,0-10.3,0-20.3.2-30,1-.9,19.8-1.2,40.6-1,60.7,0,.1.4.2,1,.3,5,.8,11.2.9,16,0l.5-28.9c1.1-1.7,12.4-2.5,13.6-.1l.9-2,.6,31.5,31.4.5c9.7.5,19.4.8,29,0l-1.4-2c-4.2-.8-19.6-1.3-25.5-1,.7-5.5.5-20.6,0-26.9,5.2.2,27.8.4,28.6-.7.2-.3.3-.8.3-1.3l2-1.4c.4-4.7.8-21.6.2-27.5,6.4.7,23.1.6,28.9,0,.6,0,.8-1.2.9-2l2-1.2c.6-19.9.6-41.8,0-61.7,6.4.6,23.7.8,29.1,0,.6,0,.8-1.2.9-2,3-20.9,3.4-43.2,0-64l-.5-30.7ZM289.8,353.1c0,0,.1,0,.2,0l2-1.4c.2-3,.4-21.6-.2-27.5,4.5.7,20.1.5,26.1,0-.4,4.1-.1,25,0,28,0,.5,1.2.8,2,.9-10.1-.1-20.2-.1-30.2,0ZM578.9,831c-.1,0-.3,0-.4.2,2.6-9.4,2.3-20-.5-29.2l1.4,2c4.6.7,20.1.6,26.4.1-.7,4.8-.4,20.8,0,26.8-4.8-.6-22.8-.3-27,.1Z"/>
    <path class="st2" d="M833,832c-3,.7-4.5,3.7-4.2,9l.4,20h-57.2v-92.3l-2-.7h-1c0,32,0,64,0,96l63,1v-1l1.5-30.5c1.1-1,1.2-1.4-.5-1.5Z"/>
    <polygon class="st2" points="640 960 704 960 704 929 703 959 640 960"/>
    <path class="st2" d="M864,801l-2-63c-2.1-2.1-27.7,4.3-31-2.5v-29.5h-61v61l9,1h0c1.1,2.6,1.9,2.6,3,0,4.5-1.2,8.5-1.2,12,0,1.2,2.5,2.4,2.7,3,0h2c-.8.3-1.6.7-2,1.5-.7,1.3.6,26.2.9,29.7,0,.5,1.2.8,2,.8l1.2,2h58.7c-.8,5.2-.3,24.1,0,29.1,0,.6,1.2.8,2,.9h2c0-10.3-.1-20.7,0-31Z"/>
    <path class="st2" d="M639,639l-5,1c1.3,0,2.7.1,4,0h2l1-32h-2v31Z"/>
    <path class="st2" d="M733,768h-27c-.6,3,1.5,1.9,3.5,2,8.1.3,20.2-1.9,26.5,2l-2-4h-1Z"/>
    <path class="st2" d="M626,640h2.7c-.9,0-1.8,0-2.7,0Z"/>
    <path class="st2" d="M632,640h-3.3c1.1,0,2.2,0,3.3,0Z"/>
    <path class="st2" d="M626,640h-13c4.6,1,8.9,1,13,0Z"/>
    <polygon class="st2" points="671 608 672 607 666 608 671 608"/>
    <path class="st2" d="M672,599.8v1.2c0-.4,0-.8,0-1.2Z"/>
    <path class="st2" d="M672,599.8v-.8c0,.3,0,.5,0,.8Z"/>
    <path class="st2" d="M672,603.7v-.7c0,.2,0,.4,0,.7Z"/>
    <path class="st2" d="M672,603.7v1.3c0-.4,0-.9,0-1.3Z"/>
    <path class="st2" d="M351,865c-20.3-2-40.7-2-61,0-.8,10.2-1.1,20.5-1,31v1l-31,1v61h29v-31.9c0,0,17,.9,17,.9h1c0,10.6.3,20.9,1,31,14.5.8,31,.8,45,0,.6-.2,1-.5,1-.7,1-30.2.5-62.8,0-93.1,0,0-.4-.1-1-.2Z"/>
    <path class="st2" d="M838,832c4.1-.5,9.3,1.2,13-1-3.2-.2-13.5-3.4-13,1Z"/>
    <path class="st2" d="M651,608h13c-4.3,0-8.7-.2-13,0Z"/>
    <path class="st2" d="M649,608h-4.3c1.4,0,2.9,0,4.3,0Z"/>
    <path class="st2" d="M642,608h2.7c-.9,0-1.8,0-2.7,0Z"/>
    <path class="st2" d="M705.5,98.1l-2.5-2.6v-29.5h-61v31l-2.5,1h-29.5v61h29l1-30,1-1h62l1,1,2,95h31c.5-42.3.4-84.8-1-127l-30.5,1.1Z"/>
    <polygon class="st2" points="673 130 672 160 672 161 673 161 673 130"/>
    <polygon class="st2" points="416 832 415 832 386 833 386 863 416 863 416 832"/>
  </g>
  <g>
    <path class="st3" d="M190.9,511.4c-9.6-.2-19.2-.7-28.8-1.3-.2-2.9-1.5-2.8-2.1-.1h0v2c-.1,21.6-.1,43.4,0,65,11,0,22,0,33,0,2.9-21.4,3-43.6,0-65-.8-2.2-1.5-2.9-2.1-.6Z"/>
    <path class="st3" d="M577,160v1l.7,1.4c8.8-1.6,19.1-1.2,28.4-.5-.9,2.1,0,2.5,2.8,1.1,2.7-1.1,2.7-1.8,0-2,2.2-.9,2.8-1.6.5-2.1.2-10.2,0-20.2-.5-29.9-.4-.9-.7-.9-1,0-.4-.9-.7-.9-1,0-10.1.4-20.1.7-30,1-.1,10,0,20,0,30Z"/>
    <polygon class="st3" points="161 448 160 450 161 449 161 448"/>
    <path class="st3" d="M725,768.8c-7.7.7-14,.4-19-.8-.8-2.5-1.7-2.7-2,0,.3,21.3-.2,42.7,0,64h-32v65h-32v31h-31v31l29,1c.7.7,1.4.7,2,0l63.5-.6.5-30.4,33-1v-155.8l-1-.2c-2.4-2.8-6.1-3.9-11-3.2Z"/>
    <path class="st3" d="M543,832h-30c0,10.7.1,21.4,0,32h1l.7,1,29.3-1h1v-32c-.8-2.5-1.7-2.7-2,0Z"/>
    <path class="st3" d="M736,767c-.6,2.4.5,3,2,1,9.7,0,19.3-.1,29,0,0-10.7,0-21.3,0-32h0c-10.3,0-20.7,0-31,0v31Z"/>
    <path class="st3" d="M384,320v-32h1l30-1v-95h-31v64h-30v64c10,.1,20-.2,30,0Z"/>
    <path class="st3" d="M577.5,702.5v-29.1c3.3-.9,7.8-1.4,13.5-1.5.6,1.9,1.4,1.9,2,0,5,.7,10,.7,15,0h1c1.5-.2,1.8-.7.5-1.4l.5-30.6h22c.7,0,1.3,0,2,0l5.5-.8c-.3-10.7.2-21.1,1.5-31.2.4.9.7.9,1,0h7c.7.4,1.4.6,2,0h15c2.1,0,4.1-.3,6-1,0-.6-.1-1.4,0-2v-2c0-.7,0-1.3,0-2v-2c.4-6.9-.3-14,0-21l32-1v-1l-1-190h-31v94h-32v64h-31v32h-32v32h-32v32h-64v32h-159v32h255c1.5-.3,1.8-.8.5-1.5Z"/>
    <path class="st3" d="M701.9,228.8c-.3,9.1.4,18.2,2.1,27.2h33v-2c0-10-.1-20,0-30l-1.5-2h-27.5l-2.1-92.4-2-.6c-2.6,33-2.9,66.7-2.1,99.8Z"/>
    <polygon class="st3" points="704 129 704 129 704 129 704 129"/>
    <path class="st3" d="M320,672c-.2-10.7.1-21.4,0-32-21.3-.2-42.7.2-64,0h0c-2.2.9-2.8,1.7-.5,2.1l.5,29.9h1c1,.1,2.1-.2,3,0,.9,2.7,2.6,2.8,3,0h1c1,2.9,4,2.8,5,0h2c1.9,2.8,4.1,2.7,6,0h4c.6,1.9,1.4,1.9,2,0,12.4.4,24.7.4,37,0Z"/>
    <path class="st3" d="M610,256c-.4-.8-.7-.8-1,0,.1,21.3,0,42.7,0,64h31l1,65h31c.2-21.6-.3-43.3,0-65h-31c-.1-10.3.2-20.7,0-31,.8-2.3.8-4.7,0-7-.4-1.6-.7-2-1.1-1.4v-25.3c0,0-2.4-1.3-2.4-1.3-1.3-.5-23.6-.2-26.6,0-.6,0-.8,1.2-.9,2Z"/>
    <path class="st3" d="M673,161c-.4-.9-.7-.9-1,0-.4-.9-.7-.9-1,0-8.9,2.7-19.8,0-29,1v30h31c.7-10.3.7-20.7,0-31Z"/>
    <path class="st3" d="M320,832v-32h-30c.7,21-.5,42-1,63,0,.7,0,1.3,0,2,.4.9.7.9,1,0h61c.8,2.5,1.7,2.7,2,0v-33c-2.8,0-33,1.7-33,0Z"/>
    <path class="st3" d="M609,98v-1c-1.4,0-1.2.7,0,1Z"/>
    <path class="st3" d="M416,832c-.5.1-1,.3-1.3.7-1,1.1-.9,25.9-.7,29.5,0,.5,1.2.8,2,.9v1h1l1,33h31v-97h-33c0,10.7,0,21.3,0,32Z"/>
    <path class="st3" d="M318.6,703.5l-28.6.5v32h30c.1-10.7-.2-21.3,0-32-.3-1.5-.8-1.8-1.4-.5Z"/>
    <path class="st3" d="M320,322h-30v31c10,0,20,0,30,0v-31Z"/>
    <path class="st3" d="M578,833h30v-31h-30c0,10.3.1,20.7,0,31Z"/>
    <path class="st3" d="M609.9,674.6v29.4h29.1v-32h-26l-3.1,2.6Z"/>
    <path class="st3" d="M351,735l1,22c0-7,1.8-14,1-21h63l-65-1Z"/>
    <path class="st3" d="M608,673l1,1c0-.4-.6-.8-1-1Z"/>
    <rect class="st3" x="304" y="544" width="1" height="1"/>
    <path class="st3" d="M257,448h-1v1c.2-.4.8-.6,1-1Z"/>
    <path class="st3" d="M800,800l-1-32h-2c-1,0-2,0-3,0-3.5-1.1-7.5-1.1-12,0-1,0-2,0-3,0-3,0-6,0-9,0v95h61c1.2-9.6-2.5-22.6,2-31,1.6-.1,3.4.2,5,0,3.8-1.2,8.2-1.5,13-1,3.4.2,7.2,1.8,11,1v-32h-62Z"/>
    <path class="st3" d="M691.3,128h-17.3c5.7,0,11.5,0,17.3,0Z"/>
    <path class="st3" d="M691.3,128h11.7c-3.9,0-7.8,0-11.7,0Z"/>
  </g>
  <g>
    <path class="st5" d="M289,863c.6-21,.6-42,0-63v-64c.9-10.3.8-20.7,0-31l-2,1.2c-.7,62.2-1.3,124.4-2,186.6-3.2-.5-20-.2-25,0,.7-73.4,1.3-146.8,2-220.2l-2-.7c-.9-2.7-2.6-2.8-3,0,0,.7-1,1.6-1,2-7,62.9-.3,156,0,222v1c.9,2.2,1.7,2.8,2.1.5l30.9-.5c.9-.4.9-.7,0-1,.4-10.4.4-20.7,0-31,1.9-.6,1.9-1.4,0-2Z"/>
    <path class="st5" d="M160,450c0,9.3.1,18.7,0,28v2c-.1,10,0,20,0,30h2c0,.1-1-61-1-61l-1,1Z"/>
    <polygon class="st5" points="176.5 511 162 510.1 162 511 176.5 511"/>
    <path class="st5" d="M193,449l.7,1.3c8.8-.7,17.8-1.1,26.8-1.3,1.8.9,5.5-1.9,4.5-3.5.6-19.5.8-39.2.5-59,.3,0,.6-.1.8-.2,9.7-.7,19.6-1.1,29.7-1.3.6-.2,1-.4,1-.7.3-9.7.3-20.4,0-30,0-.1-.4-.2-1-.3h0l-1,29h-29l-1-5c-.2,1.9.9,5.9-1.6,6.9-7.3-1-16.1-1.5-23.4-.9l23,2v61c-10,.3-20-.4-30,0-.3,0-1.2,1-2,1v63h-14.5l16.5,1c.4-21,.4-42,0-63Z"/>
    <path class="st5" d="M575.8,319.8l1.2-6.3c.6-50.9,1-101.8,0-152.6h0l-1-1h-1v159l-190,1c63.6.2,127.2.1,190.8-.2Z"/>
    <polygon class="st5" points="768 70 766 257 768 257 768 70"/>
    <path class="st5" d="M706,386c8.5-.2,17.1.3,25.6,0,1.9,0,4,1,3.5-2h0c-2.7-1.5-26,1-31,1-1.5.4-1.8.8-.5,1.2,0,63.6.6,126.9,1.5,189.8l1-190Z"/>
    <path class="st5" d="M264,96h0c-2.6.2-5.4-.1-8,0v160l2-159,6-1Z"/>
    <path class="st5" d="M289,256c.8-52.7.8-105.3,0-158l-2,159h2v-1Z"/>
    <path class="st5" d="M737,254v-30c-3.2,9.4-3,20.5,0,30Z"/>
    <path class="st5" d="M607,97l1,32h1c.8-9.9.8-21.3,0-31-.5-.4-.5-.8,0-1,9.2.6,18.4.7,27.6.5,2.7-.5,5.3-2.1,4.4-5,.2-9.2.6-18.2,1.3-27h60.2c0,.4.1.6.2.9.8,9.7,1.2,19.6,1.2,29.8,10.5,1,21.2,1.3,32.1.9-.8,5.6-1.5,11.3-1.5,17,.2,31,.4,62.1.7,93.1,0,5.7.9,11.3,1.8,16.9V95h-31l-2-30-1.4-2.1c-20.5.6-41.1-.5-61.6,0h0c-.3,0-1.2,1-2,1v31c-10.4-.3-20.6,0-31,1-2.3.2-4.7-.2-7,0,1.5.2,3.6,1.9,6,1Z"/>
    <polygon class="st5" points="895 707 893 864 895 864.5 895 707"/>
    <path class="st5" d="M320,96c.4.6.7.7,1,0-.1-10.6.2-20.7,1.1-30.3l60.4-.2c.3,1.4.7,1.8,1,1.2l.5,29.3c-.9.4-.9.7,0,1l30.5.5c.4,2.2,1.1,1.8,1.5-.5l-30-2-2-30-1.4-2.1c-20.9-.4-41.7.4-62.6,1.1h0c-.3,0-.7,0-1,0v31c-7.5.2-15.1-.3-22.6,0-1.9,0-4-1-3.5,2,9.2.8,18.2.5,27-1Z"/>
    <path class="st5" d="M416,192c-.7,32-.7,64,0,96l2-.6-2-190.4c-.4,31.7-.4,63.3,0,95Z"/>
    <path class="st5" d="M257,353c10.4,1.1,21.8.5,32-1-.2-10.3.2-20.5,1.3-30.4l-1.3-1.6h-2v31h-29v-31l-2,.6,1,31.4v1Z"/>
    <path class="st5" d="M704,704l.6,2,61.4-2c-20.7,0-41.3.4-62,0Z"/>
    <path class="st5" d="M768,959c.9-1.6.3-20,0-35.4v35.4Z"/>
    <path class="st5" d="M768,923.6v-20.6c-.3,3.1-.2,11.3,0,20.6Z"/>
    <path class="st5" d="M769,704h-2c0,10.7,0,21.3,0,32h2c.6-9.8.8-19.8.5-29.9,2.4-.6,1.8-1.8-.5-2.1Z"/>
    <path class="st5" d="M705,288h1v-32c-.8-2.5-1.7-2.7-2,0-.7,10.3-.7,20.6,0,31,0,.7.4.9,1,1Z"/>
    <path class="st5" d="M545.1,959.8l16.9,2.2v-2c-5.7-.2-11.2-.6-16.5-1.3l-.4,1.1Z"/>
    <polygon class="st5" points="545 960 545.1 959.8 544.7 959.7 545 960"/>
    <path class="st5" d="M545,958.3l.5-59.8,1-1,29.6-.5h1c.8-21.3.9-42.7,0-64,.1-10.7,0-21.4,0-32,10.3-.2,20.7.3,31,0,11.1.3,22.1,0,33-1,.8-10.3.8-21.7,0-32-20.9-.8-43.1-.9-64,0l-1,.7c.4,10.7.1,21.2-1,31.3h0s-31,0-31,0c.4,10.1.4,20.3,0,30.4l1,1.6c0,10.7,0,21.3,0,32l1-63h29v92.5l-1.5,1.5h-28l-2.5,1v63.5l1.7.2-.7-.7,1-.7Z"/>
    <path class="st5" d="M830.8,864l-60.3-.5c-.9-31.8-1.4-63.7-1.5-95.5-.7,0-1.3,0-2,0,0,32.6-1,65.3,1.2,97.8l63.8-.8c-.2-1.2-.5-1.7-1.2-1Z"/>
    <path class="st5" d="M577.5,958.5l-.5-30.5h0s-15,0-15,0v31l1-29,12-1,2,31c1.5-.3,1.8-.8.5-1.5Z"/>
    <path class="st5" d="M702.8,959.5l-62.8.5h-2c-9.7,0-19.3.1-29,0-10.7-.4-21.3-.4-32,0l126.4,2,.6-2c-.4-1.5-.8-1.8-1.2-.5Z"/>
    <path class="st5" d="M385,832h0s-32,0-32,0l-2,1.5c-.8,6.2-.7,24.2,0,30.6,0,.6,1.2.8,2,.9l-1,.7v92.5c-.6-.5-1.1-.3-1.6,1.3h-43.9c-.3-1.1-.7-1.4-1-1l-.5-30.5c-.4-.9-.7-.9-1,0h-11l10,1,1,33h49l1-2.5v-126.5h29l2,31c.8-10.6.9-21.4,0-32Z"/>
    <path class="st5" d="M417,864c-.4-.9-.7-.9-1,0-9.7-.6-19.6-.8-29.6-.5-.4-2.2-1.1-1.8-1.4.5l32,1v-1Z"/>
    <path class="st5" d="M417.4,953.7l-.4-56.7c0-8.3.5-16.8,0-25h0c-3-.6-1.9,1.5-2,3.4-.9,28.5-.7,58.6,1.7,86.6l9.3-2c-7.3.7-10.2-1.4-8.6-6.3Z"/>
    <path class="st5" d="M803.7,704h28.3c-9.4,0-18.9,0-28.3,0Z"/>
    <polygon class="st5" points="834 735 834 704 832 704 832 734 833 736 863.5 737.1 863.5 735 834 735"/>
    <path class="st5" d="M770,704h4.2c-1.4,0-2.8,0-4.2,0h0Z"/>
    <path class="st5" d="M863.5,737.1l.3,65c0-.4,0-.7.2-1.1.3-21.3-.1-42.6-.1-63.9h-.4Z"/>
    <path class="st5" d="M803.7,704h-29.4c9.8,0,19.6,0,29.4,0Z"/>
    <path class="st5" d="M864,832l-.2-29.9c-1.5,9.8-1.4,20.2.2,29.9Z"/>
    <path class="st5" d="M734,768c-1.3,1-.7,2.3,2,4l1,156,1-160c-.8,0-1.8-1-2-1-1,0-1.9,1-2,1Z"/>
    <path class="st5" d="M514,864c-.7,0-.9.4-1,1-.4,31.3.3,62.7,0,94l-62.5.5c-.5-2.2-1.2-1.8-1.5.5l.6,2h61.9c0,0,2.5-2.5,2.5-2.5v-93.5l30-2h-30Z"/>
    <path class="st5" d="M851,831c-4.9-.4-9.3,0-13,1-.6-2.8-4.5-2.9-5,0l-1,32,2-31,28-1c-1.4-2.2-10-4-11-1Z"/>
    <path class="st5" d="M256,898c0,.7,0,1.5,0,2.2v-2.2s0,0,0,0Z"/>
    <path class="st5" d="M256,900.2v61.2c-.1,0,32-1.4,32-1.4h-32c0-19.9,0-39.9,0-59.8Z"/>
    <path class="st5" d="M706,736l-34-1h0s0,1,0,1l.7,1h29.9c1.2,10.2,1.7,20.5,1.5,31h2l.7,1c8.7-.3,17.4-.2,26,.3l.3-1.3-27-1v-31Z"/>
    <path class="st5" d="M642,640v-31l29-1c-1.5-.3-3.2-.3-5,0h-15c-.7,0-1.3,0-2,0h-8l-1,.6-.5,29.9c-.7.8-.9,1.2-.7,1.5h-.8c.1,0,.5.4.9,0,.2,0,.6,0,1.1,0h2Z"/>
    <polygon class="st5" points="642 703 641 672 641 704 672 704 642 703"/>
    <path class="st5" d="M609,672h4c8.7,2,17.4,2,26,0h1l-30-1v-31l-1,32Z"/>
    <path class="st5" d="M626,640c-4.3.2-8.7-.1-13,0,2.5.8,14,3.2,13,0Z"/>
    <path class="st5" d="M352,288c1.4-10.6.9-21.3,1-32v-128h-1c-6,.1-12-.2-18,0l17,1c.2,53-.7,106,1,159Z"/>
    <path class="st5" d="M321,128v128l1-127,6-1h0c-2.3.2-4.7-.2-7,0Z"/>
    <path class="st5" d="M298.5,258c5.9.2,12.1.2,18.1,0,1.9,0,4,1,3.5-2-3.6,1.1-19.7,0-25,0-.6,3,1.5,1.9,3.5,2Z"/>
    <path class="st5" d="M225.5,638.5l-.5-30.5h-1l-29.6-.5c-.4-2.2-1.1-1.8-1.4.5l30,1v31h2c1.5-.3,1.8-.8.5-1.5Z"/>
    <path class="st5" d="M256,672v-32h-1c-9.7-.4-19.4-.4-29,0,3.3,4.4,27.6.6,29,2l1,30Z"/>
    <path class="st5" d="M673,130v-2c-.5-.9-.8-.9-1,0h-31l-1,1c-.2,10.5-.4,20.5-.6,30.3l-29,.7c-.6-1.8-1.2-.9-1.4,1v2c0,30.6-.2,61.3,0,92v1h1l2-1.2v-90.7c3.4.4,20.1.2,25,0,.7,27.8,1.3,55.5,1.9,83.3l2,.6c0-18.7-.2-37.3,0-56,.1-10.4.7-21.6,1-31,2.8-3.7,2.8-26.7,1.3-30.7,0,0,.1-.2.2-.3.2.9.7,1.5,1.4,2,1,.7,20.8.2,23.4,0,.6,0,.9-1.2,1.2-2-.2,9.6,0,19.3.5,29.2l2,.8c.7-9.9,1.1-19.9,1-30Z"/>
    <path class="st5" d="M304,544c1.3-31.3,1.6-62.6,1-94-.1-1-.5-1.7-1-2-15.6-1.2-31.4-.6-47,0l-1,1c-1,31.6-1,63.3,0,95v1h48c.6-.4.7-.7,0-1Z"/>
    <path class="st5" d="M496,449.9l1,94.1h48v-95.3c0,0-1-.7-1-.7h-47c.1,1,0,1.7-1,1.9Z"/>
    <polygon class="st5" points="369 544 369 544 369 544 369 544"/>
    <path class="st5" d="M417,545v-33h-1l-62.8-.3c-2.1,2.2-1.6,12.9-.2,16.3-.2,5.6.1,11.3,0,17h13.7c.1.4.2.6.3.8.1.3.4.5,1,.8v45.4s0,1,0,1h33v-1l.5-45.5c.8-.7,1-1.1.6-1.3,0,0,.1,0,.2-.1h14.7ZM401,545l-2.1,1c-1.1,14.3-2.2,28.6-3.3,42.9-4-.6-18.7-.4-23.7,0,.2-.8.2-1.8-.1-3,.9-11.4,0-29.3-.9-41.1,0-.6-1.2-.8-2-.9-.4.1-.7.3-1.1.4,0-.1,0-.3,0-.4-.9-2.4-8.3-3.7-12-2.5.7-4.2.5-20.4,0-26.5h56.8c-.6,4.7-.4,20.9,0,25.4-3.9-.9-11.5.9-12,3.6,0,.4,0,.8.2,1,0,0-.1,0-.2,0Z"/>
    <path class="st5" d="M577,704l.7,1,30.3-1c-1.5-9.1,1.7-21.7,1-30l-1-1v-1c-5,0-10,0-15,0,.7,2.5,8.2,4.1,11.9,2.9-.4,3.3-.2,20.5,0,25.9-3.4-.5-19.8-.1-24.8,0,.3-3.6.2-20.8,0-25.9,3.4,1.1,10-.5,10.9-3h0s-14,0-14,0v32Z"/>
    <path class="st5" d="M289,704h31c.2-10.5.2-21.4,0-32-12.3,0-24.7,0-37,0l36,1v30l-30,1Z"/>
    <path class="st5" d="M264,672h-1c.3,0,.7,0,1,0Z"/>
  </g>
  <g>
    <polygon class="st1" points="289 897 289 897 289 897 289 897"/>
    <path class="st1" d="M285.9,926c-1.1,1.2-1.1,24.5-.9,30.9-4.9-.6-19.3-.5-25,0v-56.7l28.2-1.2.8-2h-33v1c-.2,21,0,41.9.3,62.7l31.7-.7,1-1,1-31h3l9.9.5c.6,1.2.9,1,1.1-.5-.5-3.5-16.9-3.3-18.1-2Z"/>
    <path class="st1" d="M863.9,737.1l-1.4-1.1-28-.5c-.5-1.7-1.3-1.3-1.5.5l-1-2c.6-.2,1-.4,1-.7.1-3.5.8-27.3,0-28.5-.3-.4-.6-.7-1-.9h-62c-.3,0-.7,0-1,0v64c.5.8.8.9,1,0,2.6,2.9,6.4,2.8,9,0-.9-2.1-3.2-3.1-7-2.8v-56.9l57-.2c-.2,4.8-.4,26.4.7,27.2.3.2.8.3,1.3.3-1.9,3.4,2,4.3,5.1,4.8,8,.2,16,0,24-.5l1.9,59.7c.7.6,1.3,1.1,2,1.4v-63.9Z"/>
    <polygon class="st1" points="576 897 545 897 544 959 545 960 562 960 562 959 546 959 546 898 576 897"/>
    <path class="st1" d="M418,959l-1-62h0c.2,21-.2,42,0,63,3-.1,6,.2,9,0,2.3-.1,4.7,0,7,0v-32l-1,31h-14Z"/>
    <polygon class="st1" points="449 928 449 960 513 959 450 959 449 928"/>
    <path class="st1" d="M672,704l-29.6-.5c-.4-2.2-1.1-1.8-1.4.5v2h30l1,29v-31Z"/>
    <path class="st1" d="M352,128l-13.9.2c4.7.2,9.3.1,13.9-.2Z"/>
    <path class="st1" d="M289,256h6c2,1.5,23.7,1.9,24.6,1,.2-.2.4-.6.4-1h1l.5-126.8c.7-.3,1.5-.6,2.3-.8h-4.8v126.6h-29V98l30-1c.6-.4.7-.7,0-1-8.6,2.5-18.6-.2-27,1-1.4.2-2.9-.3-4,1,0,52.6,0,105.3,0,158Z"/>
    <path class="st1" d="M334,128c-2,0-4-.2-6,0-1.5,0-2.9.1-4.2.4l14.3-.2c-1.3,0-2.7-.1-4.1-.2Z"/>
    <path class="st1" d="M225,608v32h1c9.7,0,19.4-.1,29,0l-29-1-1-31Z"/>
    <path class="st1" d="M193,578c.1,10,0,20,0,30h31l-30-1-1-29Z"/>
    <path class="st1" d="M703,128h-29c-.9,42-.9,85.8,0,128h29c-.8,10.7.6,21.4,1,32v-1c0-10.3.1-20.7,0-31-.5-42.3.4-84.7,0-127,.9-1.8.4-2.3-1-1Z"/>
    <path class="st1" d="M642,289h29l1-33-30,1c-.8,10.6-.9,21.4,0,32Z"/>
    <path class="st1" d="M641,256c.4.9.7.9,1,0-.2-21.3,1-42.8-1-64-.6,18.6-.6,37.3,0,56-2,2.6-2,5.4,0,8Z"/>
    <path class="st1" d="M575.9,319.5h2.1v-157.5h28.6c-8.5-2.8-20.5,0-29.6-1h0c-.3,52.8,1.1,105.7-1.1,158.5Z"/>
    <path class="st1" d="M609,163c-.6-.3-1.3-.6-2-.9l2,92.9c.7-30.7.8-61.4,0-92Z"/>
    <path class="st1" d="M575.8,319.8c0-.1,0-.2,0-.3l-190.9.5c63.6.8,127.3-.5,190.8-.2Z"/>
    <path class="st1" d="M607,162h-.4c.1,0,.3,0,.4.1h0Z"/>
    <path class="st1" d="M704,65h-63v27.5l-4.6,4.4c-9.1.7-18.4-.5-27.4.1-.5.4-.5.7,0,1v63l30.8-1.2.2-30.8-2,1.4c-.8,4.8-1.3,20.3-1,26.5-4.6-.6-19.4-.4-24.9,0v-56.8c5.4.7,21.8.5,26.6,0,.6,0,.8-1.2.9-2,1.6,2.3,3.7,1.6,2.5-1,.9-.2,1.5-.7,2-1.4.8-1.1.3-21.8,0-27.5h56.9c-.2,4.8-.4,26.4.7,27.2.3.2.8.3,1.3.3-1.3,1.6-.2,3.4,1.5,4.2,2,.9,26.7-.2,30.7-.6.5,0,.8-1.2.8-2l-31.9-1.1v-30.9Z"/>
    <polygon class="st1" points="704 65 704 65 704 65 704 65"/>
    <path class="st1" d="M193,512l1-62h29.5l2.5-2.5v-61.5h29.5l2.5-1v-31l62-1c-10-2-20-2-30,0-.2,0-.8-1-1-1-10.2,0-21.5,2.1-32,1l-1,1v31h-31v60.5l-4.5,3.5h-27.5c0,21,.1,42,0,63Z"/>
    <path class="st1" d="M289,736c-.2,21.3,0,42.7,0,64v-64Z"/>
    <path class="st1" d="M290,865h-1c-.2,10.3.2,20.7,0,31l1-31Z"/>
    <path class="st1" d="M321,97l1-31h61l1,30v-31l-63,.5v30.5c-.6.4-.6.7,0,1Z"/>
    <path class="st1" d="M416,863l-1.4-2h-26.6v-27.1l-2-.9,29-1c.4.9.7.9,1,0,2-10.6,2-21.4,0-32,0-21.3,0-42.7,0-64l-63.9-.5v21.5c-.3,14.1,2.1,28.8.9,43l32,1c.1,10.3-.2,20.4,0,31s-.1,21.3,0,32h31c.9-.4.9-.7,0-1Z"/>
    <polygon class="st1" points="416 736 416 736 416 736 416 736"/>
    <polygon class="st1" points="544 448 497 448 497 449.4 544 448.2 544 448"/>
    <polygon class="st1" points="497 544 497 449.4 494.9 449.5 497 544"/>
    <polygon class="st1" points="545.8 448.2 544 448.2 545 544 545.8 448.2"/>
    <path class="st1" d="M353,182.3v73.7c.2-24.6,0-49.2,0-73.7Z"/>
    <path class="st1" d="M353,182.3v-54.3c0,18.1,0,36.2,0,54.3Z"/>
    <path class="st1" d="M368,544l-15,1,14,1,1,46,1-48c-.4-.9-.7-.9-1,0Z"/>
    <path class="st1" d="M305,450v-2c-.5.5-.5,1.1,0,2Z"/>
    <path class="st1" d="M305,516.9c-.2,9.1-.5,18.1-1,27.1.4.6.7.7,1,0v-27.1Z"/>
    <path class="st1" d="M305,450v66.9c.4-22.3,0-44.6,0-66.9Z"/>
    <path class="st1" d="M256,534.3v-85.3c-4.1,7-.6,60.8,0,85.3Z"/>
    <path class="st1" d="M256,534.3v9.7c.1-2.1.1-5.5,0-9.7Z"/>
    <path class="st1" d="M704,736h-32v2h31l1,30c-.1-10.7,0-21.4,0-32Z"/>
    <path class="st1" d="M402,546l15-1-16-1c-.9.4-.9.7,0,1v47l1-46Z"/>
    <path class="st1" d="M577.5,767l-2.5,1.7v31.3s0,0,0,0h2v-32h64v32c-11,1.3-22,.7-33,1h34v-32.5l-1.5-1.5h-63Z"/>
    <path class="st1" d="M577,833c-.3,21.3.2,42.7,0,64,2-21.2.7-42.7,1-64h-1Z"/>
    <path class="st1" d="M577,928v32c10.7.1,21.3-.1,32,0l-31-1-1-31Z"/>
    <path class="st1" d="M416,512l-63.1-.5-2,2c1.3,3.2-2.4,13.6,2.1,14.5.2-5.3-.1-10.7,0-16h63,0Z"/>
    <polygon class="st1" points="577 706 608 704 577 704 577 706"/>
    <path class="st1" d="M544,800l-1,32h2c0-10.6.7-21.5-1-32Z"/>
    <path class="st1" d="M304,545h1c-.4-.6-.7-.7-1,0Z"/>
    <path class="st1" d="M256,448h48c-2.3-2.2-41.9-1.2-48,0Z"/>
    <polygon class="st1" points="351 959 306 959 305 928 305 960 353 960 353 865 351 865 351 959"/>
    <path class="st1" d="M415,98l1,94v-95h-32l31,1Z"/>
    <path class="st1" d="M653.1,128c6.3,0,12.6,0,18.9,0h-18.9Z"/>
    <path class="st1" d="M641,128h12.1c-4.1,0-8.1,0-12.1,0Z"/>
    <path class="st1" d="M782,768c3.9.1,8.2-.4,12,0,1.1-3.5-9.5-.7-12,0Z"/>
  </g>
  <g>
    <path class="st0" d="M864,704v-32h-96v32c.5.9.8.9,1,0,.5.9.8.9,1,0h61.8c.2,1.5.7,2.2,1.2,2-.2,6.4-.6,27.5.2,28.7.1.2.5.3.8.3,8.9.8,18.5,1.2,27.7,1.1-.6.6,0,1.2,1.8,1.6l.5,94.3c-.8-2.5-1.7-2.7-2,0-9.5,0-19,.2-28.5.6l-1.5,31.4c-.9.4-.9.7,0,1h-62.3c-1.7-12.9-2.3-25.9-1.8-39.2.5-19.4.2-38.7-.9-57.8.6,1.9,1.4,1.9,2,0l1.3-.7c-.7-10.4-1.2-20.8-1.3-31.3-.8-2.5-1.7-2.7-2,0,1.6-10.6,1.5-21.4,0-32h-1l-60.5,1c1-.3.5-.6-1.5-1v-32h-32v-32h32v-31h32l-1-225h0c-9.2.7-19.2,1.5-30,2.3v189.7c-.4-.9-.7-.9-1,0-.9.4-.9.7,0,1l-32,1c-3.4,5-2.8,15.7,0,21v2c-1.9.6-1.9,1.4,0,2v2c-2.4,1.1-2.7,1.7,0,2-1,.3-1.3.6-1,1l-29.5.6c.3,10.8-.2,21.2-1.5,31.4-.4-.9-.7-.9-1,0h-1c-1.2-.3-2.5-.3-4,0-.9-1.8-1.7-1.9-2,0h-6c-4,1.1-8.3,1.1-13,0h-3l-.4,31.5,30.4.5c.4.9.7.9,1,0l.6,31.5,30.4.5c-2.2.9-2.8,1.6-.5,2.1l.5,28.9c10.3.7,20.8,1.1,31.5,1,.2,1.8.9,2.4,1.5,1.9,0,9.6,0,19.2,0,28.9l1,.3c8.9.7,17.9,1.1,27,1,.5.8.8.9,1,0,2,1.4,2.3,1.5,2-1l2-1.5v-28.1c9.7,1.2,19.4,0,29-1.4-2.5,10.7-2.5,21.3,0,32-9.1-3.2-19.9-3-29,0-1.7.4-2.1,1.8-1,4.2v155.8l-1.5-2c-6.2-.7-24.3,0-30.6.9-.6,0-.8,1.2-.8,2l-.5,29.6c-2.2.4-1.8,1.1.5,1.4l-2.5,1-124.5-1-1-31.2c-.6-.7-13-.2-13.5.7l-.5,29.4c-.9.4-.9.7,0,1-1.1,1-14.5.6-15,0-.3-2.9-1.4-3-2.3-.3-1-1.6-1.6-1.9-1.7-1,.7-20.3,1.1-40.6,1-61.2.9-.3,1.1-.6.9-.9.5-.3.9-.9.8-1.4.2.4.4.7.6.7,8.7.3,18.4.3,27,0,.1,0,.2-.4.3-1,2.2,1.4,3.3.2,1.5-1.5,1.1-2.2,1.5-5,1-8.5.2-27.8.3-56.2,0-83.9,0,0-.4-.1-1-.2-9.3-.8-19.9-.8-29,0l-.9.7c.3,20.8.3,41.6-.1,62.3-.4-.9-.7-.9-1,0l-29.8,1-.2,1c-.6,30.8-.8,61.7-.5,92.8-1.2.5-1,.7.5.7l-3.7,1.1-60.1.4c1.8-.4.6-.7-1.2-1,1.5-.3,1.8-.8.5-1.5l-.5-30.5c-.8-2.5-1.7-2.7-2,0h-12c-.8-2.5-1.7-2.7-2,0l-.5,30.5c0,.7-2.2,1.2-6.5,1.5l-8.2.9-1.1-2.7c-.9-27.8-1.4-59-.4-84.4l.7-1.8v-7c-10.5-.8-21.2-1.1-32-1l-1-30.8-1-.2c-9.3-.8-19.6-.8-29,0-.9,41.3-.9,85.5,0,126.5-1.5.6-2.3,1.1-2.5,1.5h-45.8c.5-.5.2-.9-1.2-1.2l-.5-30.9c-3.5-.6-7.2-.9-11-.9-.9-.5-2.6-.7-3,0l-1,31c-1.4-.7-1.8-.2-1,1l-30.7.7c1.2-.4.5-.8-1.4-1.1v-61.6c.9-.5,1-.8,0-1,.9-.5.9-.8,0-1h-32v97h513v-33l31-1v-56c.2-2-.2-4,0-6h96v-32l29-1,1-.7,1-156.3v-3h-31Z"/>
    <path class="st0" d="M384,65l1.2,31,30.8,1,1,189.2c-.3-.9-.6-.3-1,1.8-.3-1.5-.8-1.8-1.4-.5l-29.6.5c-.4-.9-.7-.9-1,0v31c-.9.4-.9.7,0,1,.5.9.8.9,1,0l190.4-.7c.8-52.5,1.1-106.8.1-159.1l-.5-.2h-31v128l-96-1-1-222-31-1v-32h-96v32h0c21.1.1,41.9.2,62.3.4l1.7.6Z"/>
    <path class="st0" d="M641,63c20.7.9,41.1,1.4,61.3,1.4l1.7.6,1,29.8,1,.2c9.6.7,19.3,1.1,29.2,1-.6.6-.3,1.2,1.3,1.7.5,52.1.7,104.2.5,156.3-10.2-.3-20.6.4-31,2-.6.2-1,.4-1,.7-.4,10-.5,22,1,31.3l31,1v-32h29l1-.7,1-186.3v-6h-31v-30.5l-1.5-1.5h-95.5l1,31h0Z"/>
    <path class="st0" d="M353.9,321.3l-.8-31.7-1-1.6v-159.5c0,0-18-.5-18-.5h0s-6,0-6,0l-6.5.7-.5,127.3c-.4-.9-.7-.9-1,0-2.1,1.6-5.5,2-10.2,1.3l-13.5-.2c1.1-.7,0-.9-1.2-1.1-1.3-.6-2.9-.7-4.7-.5-.6-2.2-1.3-1.8-1.3.5-.9.5-.9.8,0,1,0,21,.2,42,0,63,21.6,1.8,43.2,2.3,64.9,1.3Z"/>
    <path class="st0" d="M287,257l1-.7,1-158.3c1.5-.2,2.9-.5,4-1l1.6-.8c7.8.2,16.2-.3,25.4-1.5v-28.6c1.9-.8,1.1-1.9-1-2.1-10,.4-20-.3-30,0v32c-8.3.4-16.8-.6-25,0l-6.8.5c-.6,53.2-1,106.3-1.2,159.5,1,1.8,26.8,1,31,1Z"/>
    <path class="st0" d="M160,512l-32,1,1,63c1.9,1.8,26.3,1,31,1,2.6-21.6,2.6-43.4,0-65Z"/>
    <path class="st0" d="M256,674c2.6.5,3.1-.3,1-2-.4-.9-.7-.9-1,0l-.5-30.5c-9.7-.1-19.6-.6-29.5-1.5-.4-.9-.7-.9-1,0-1.1-10.2-1.5-20.5-1-31.1-10.2-.6-20.6-1-31-.9.4-10,.4-20,0-30,.9-.5.9-.8,0-1-11-2.5-22-2.5-33,0,.1,21,0,42,0,63h33v33l63,1Z"/>
    <path class="st0" d="M704,289c-.4-.9-.7-.9-1,0l-31,1c-3.1,9.4-2.9,20.5,0,30-3.5,21-3,43.9,0,65,10.6.8,21.4.8,32,0-.7-31.9,1-64.1,0-96Z"/>
    <path class="st0" d="M223,447l1-1.9v-58.8l-1-.3c-7.4-1.5-15.1-2.2-23-2h0c-2.3.2-4.7-.2-7,0v63c9.6,1.5,20.4,1.7,30,0Z"/>
    <path class="st0" d="M162,511c9.9.1,19.5.1,29,0l1-.7v-60.8c1.7-.6.9-1.2-1-1.5-10,.4-20-.3-30,0v1c-.4,20.1-.4,40.2,0,60.5l1,1.5Z"/>
    <path class="st0" d="M577,129c9.7.7,20.1,1.1,30,0,.3,0,.7,0,1,0,.2-10.8.3-21.6.5-32.4-2.5.2-5-.2-7.5-.6h0c-7-1.2-16.7.8-24,0,0,11,.1,22,0,33Z"/>
    <path class="st0" d="M639,95c1.1-9.7,1.5-19.5,1-29.6,1.7-.5.9-1.2-1-1.4h0c-10.3.3-20.7-.3-31,0v32c10.5.5,20.8.2,31-1Z"/>
    <path class="st0" d="M225,378l.5,6h29.6c.7-9.9,1-19.9.9-30,1.4.7,1.8.2,1-1,.9-.4.9-.7,0-1h0s-32,0-32,0c-.6,8.4.8,17.8,0,26Z"/>
    <path class="st0" d="M258.7,352.1c9.7.3,19.1,0,28.3-1.1.5-.2.9-.4.9-.7.3-9.4.4-20.6,0-30,0-.1-.4-.2-1-.3-9.6.1-19.3-.1-29,0-.6.2-1,.4-1,.7-.2,10,.2,20.9,1,30.3l.7,1.1Z"/>
    <path class="st0" d="M577,161v-1h-1c.2.4.6,1,1,1Z"/>
    <polygon class="st0" points="704 287 704 288 705 288 704 287"/>
    <path class="st0" d="M287,895l2-190v-1c10.3,0,20.3-.3,30-1,.9-9.6.9-20.6,0-30-11.9-.7-23.9-1.1-36-1-.7,0-1.3,0-2,0h-4c-2,0-4,0-6,0h-2c-1.7,0-3.3.1-5,0h-1c-1,0-2.1.2-3,0l-2,223h29Z"/>
    <rect class="st0" x="320" y="96" width="1" height="1"/>
    <path class="st0" d="M305,448h-1c.2.2.3,1.6,1,2v-2Z"/>
    <path class="st0" d="M514,864h-1v1l1-1Z"/>
    <rect class="st0" x="578" y="770" width="61" height="29"/>
    <path class="st0" d="M593,672c-.7,0-1.3,0-2,0-3.6.2-8.8,2-13,1v30h29v-30c-4.5,1-10.1-.9-14-1Z"/>
    <polygon class="st0" points="610 256 610 256 610 256 610 256"/>
    <path class="st0" d="M641,256c0-2.7,0-5.3,0-8l-2-86h-29v94h29c.2,7.5-.3,15.1,0,22.6,0,1.9-1,4,2,3.5,0-8.6,0-17.4,0-26Z"/>
    <path class="st0" d="M671,161c.3,0,.7,0,1,0,.6-.4.7-.7,0-1l-1-31-1.5,1h-26l-1.5-1c-.3,10.6.3,21.4,0,32h29Z"/>
    <rect class="st0" x="258" y="449" width="45" height="94"/>
    <rect class="st0" x="498" y="449" width="45" height="94"/>
    <polygon class="st0" points="354 543 368 544 369 544 370 591 397.5 591 401 545 401 544 415 541.5 415 513 354 513 354 543"/>
  </g>
</svg>