<?xml version="1.0" encoding="UTF-8"?>
<svg id="_레이어_1" xmlns="http://www.w3.org/2000/svg" version="1.1" viewBox="0 0 1024 1024">
  <!-- Generator: Adobe Illustrator 30.1.0, SVG Export Plug-In . SVG Version: 2.1.1 Build 136)  -->
  <defs>
    <style>
      .st0 {
        fill: #014a4a;
      }

      .st1 {
        fill: #4cdfd2;
      }

      .st2 {
        fill: #29aba6;
      }

      .st3 {
        fill: #fefefe;
      }

      .st4 {
        fill: #072628;
      }

      .st5 {
        fill: #40bdb2;
      }
    </style>
  </defs>
  <g>
    <path class="st3" d="M324,97v32l1-31c52.3.9,104.7-.7,157-1h0s-158,0-158,0Z"/>
    <path class="st3" d="M131,385l-64-1c21.2,1.9,42.7.9,64,1Z"/>
  </g>
  <path class="st5" d="M515,97c1.4,1.5.9,2-1,1-1.3,2.3-3.9,3.1-7.6,2.4l-22.1-.6-2.3-1.8c.8,0,2,.3,2,.9.3,3.6.6,27.9,0,29.7l-2,1.4c10.2-3,21.9-3.2,32,0,10.2-2.9,21.9-3.1,32,0,10.7,0,21.3-.1,32,0,.9.3.9.6,0,1,0,.8-.3,1.9-.9,2-4.3.9-23.6.5-28.7,0l-1.4-2-.5,30.2c10.5.1,21,.4,31.5.8l2,.9v29h28.5c0,.1,2.1,2.1,2.1,2.1.4,42.3-.2,84.7-.6,127,.9.3.9.6,0,1l-30.5.5c.7.6.2.9-1,1l-.5,61.5c0,.8-.3,1.9-.9,2-6,.7-23.9.8-29.7,0l-1.5-2c.8.1,1.9.3,2,.9.9,5.1.5,24,0,29.6l-2,1.5c0,.8-.3,2-.9,2-3.6.3-27.9.6-29.7,0l-1.5-2c.8,0,1.9.3,2,.9.7,6,.8,23.9,0,29.6l-2,1.5c0,.8-.3,1.9-.9,2-6,.7-23.9.8-29.6,0l-1.5-2c.8,0,2,.3,2,.9.3,3.6.6,27.9,0,29.6l-2,1.5-30.5.5c1,.5.5.8-1,1l-.5,29.6c.9.3.9.6,0,1l-29.6.5c.2.6-.2.9-1,1l-.5,62.5c-.3,2.7-1.2,2.5-2,0h-30c-.8,0-2-.3-2-.9-.3-4.2-.8-27,0-29.7l2-1.5c0,.8-.3,2-.9,2-3.6.3-27.9.6-29.6,0l-1.5-2c.8.1,1.9.4,2,1,.5,6,0,23.9-.9,29.7l-2,1.4-29.6.5c1,.5.5.8-1,1l-.5,29.6c-.6,1-1.4,1.7-2.5,2.1-1,.4-18.3,0-20.9-.3l-2.6-1.8c-.6,1.6-1.4,1.6-2,0,0,2.9-2.3,2.7-3,0l-1,31c0,.8-.3,1.9-.9,2-6,.7-23.9.8-29.6,0l-1.5-2-1-31c0,.8-.3,2-.9,2-3.3.2-27.5.8-28.7,0-.7-.5-1.2-1.1-1.4-2-1.4-20.7-2-42.3,0-63,0-.8.3-2,.8-2,5.2-.6,25.3-1.7,29.7-.9l1.5,2-.5-29.6c-1.3-.7-1-1.2.5-1.4l.9-2h30.5c0,0-1.3-28.6-1.3-28.6l2-1.4c-.1-10.7-.1-21.4,1-32,.2-.9.5-.9,1,0,.8,0,2,.3,2,.9.3,3.6.6,27.9,0,29.6l-2,1.5c0-.8.3-2,.9-2,3.2-.2,27.3-.5,28.7,0,.8.3,1.1,1.2,1.4,2-.8,0-2-.4-2-.9-.2-3.7-.4-29.3.7-30.4.3-.3.8-.5,1.3-.7,0-.8.3-2,.9-2,3.2-.2,27.3-.5,28.7,0,.8.3,1.1,1.2,1.4,2-.8,0-2-.3-2-.9-.3-4.2-.8-27,0-29.6l2-1.5c0-.8.3-2,.9-2,5.2-.5,25.4-.9,29.6,0l1.5,2c-3-10.2-3.2-21.9,0-32,.2-19.8-.2-39.7,0-59.6l-2-3.4h-30c-.2,21,.4,42,0,63-74.6,0-149.4.4-224,0-21.3.1-42.7-.2-64-1v-31c10.7-.1,21.4.1,32,0v-30l64-1v-32h129c0,.8-.3,2-.8,2-6,.7-25.2,1.7-30.6.9l-1.5-2c.8,0,1.9.3,2,.9.7,5.6.7,23.1,0,28.7l-2,1.4c0-.8.3-1.9.9-2,5.9-.6,24.1-.9,29.6,0l1.5,2c.8,0,1.8.3,2,.9.5,1.4.2,26.3,0,29.6l-2,1.5-160,1c.8,0,1.9.3,2,.9.4,3.7.7,24,0,26.6l-2,1.5.7-2h220.1l1.2,2c-.8,0-2-.4-2-.9-.6-16.7-.5-35.5,0-52.3-.8-4.4,0-7.3,2-8.8-1.3-1.4-.8-1.9,1-1l1-31h-31v-29.5l-2.5-2.6-94.5-1.9v-51c.1-14.3,0-28.7,0-43h31c-1,2.7-3.9,3.8-8.6,3.3l-19.6-.4-1.8-1.9c.8,0,2,.3,2,.9.2,3.3.8,27.5,0,28.7-.5.7-1.1,1.2-2,1.4,0-.8.3-2,.9-2,3.2-.2,27.3-.5,28.7,0,.8.3,1.1,1.2,1.4,2-.8,0-2-.3-2-.9-.3-4.2-.8-27,0-29.6l2-1.4.9-2h30.6l1.5,2c-.8,0-2-.3-2-.9-.5-5.2-.9-25.4,0-29.6l2-1.4c5-.2,30,1,32-1l.7-31.5,157.3-.5c11,0,22-.1,33,0h0Z"/>
  <g>
    <path class="st4" d="M962,767c-.5,1-1,2-1.4,3-.3,1-.7,2-.7,3-.8,18.6-1.5,37.4-.8,56l-60.3,1c-.8.2-1.5.5-2.2,1.1-1.1,1.3-1,27.3-.7,31.1,0,.5,1.2.8,2,.9l.6,1,29.9.5c1.3,6.1,1.8,12.6,1.5,19.5-2.5,1.1-2.5,1.9,0,3v1c-2.5,2.1-2.5,3.9,0,6-1.9.6-1.9,1.4,0,2-41.5-1-83-1.4-124.6-1.2,2.3-.7,2.1-1-.5-1l-1.8-29.7-1.2-2c-20.6-.3-41.2-.6-61.7-1,.7-5,.4-20.9,0-27h62l.9-2,2-1.5c.8-5.5.7-21.7.1-28.6h59l.9-2,2-1.5c.9-5,.6-23.7,0-30.1,1.5.7,3.5,1.1,5.7.7l75.5-.2c4.6-.2,9.2-.9,13.7-1.9,0,0,0,0,0,0,0-10.7,0-21.3,0-32h-96v-31c-10.6-.1-21.3.2-32,0-3,10-3.2,22,0,32l29.9.5c1.5,7.5,2.3,15.4,2.1,23.5-2.8,2.1-2.7,5-.9,7,0,0-.1,0-.2,0h-62l-2.1,1.3c-.9,2.6-1.9,25.5-1.8,29.7,0,.6,1.2.9,1.9,1l-127-1,2-1.4c.9-4.6.5-23.4,0-28.7,0-.6-1.2-.8-2-.9l-61.5-.5c-.1-1.1-.4-1.6-1-1l-.5-29.6-1.5-2h-29.4c.7-10.4,0-20.4-2.1-30-10-.6-20.2-.7-30.5-.5-.2-1.5-.5-2-1-1l-.5-30.5c-.4-.9-.7-.9-1,0h-1l-1.5-2c-3.8-.7-21.4-.5-25.6,0-.6,0-.8,1.2-.9,2,0-10.9-.7-21.5-2-32-.4-.9-.7-.9-1,0l-28.6-.5c-1.2-9-1.5-18.2-.9-27.5,2.5-3.9,1.2-7.8-.5-12v-1c3-12.3,2.8-26.6,0-39v-1c2.9-3.2,3-9.5.6-13.2l.9,1.2c1.8.6,26.1.3,29.6,0,.6,0,.8-1.2.9-2,2.9-10.5,3-21.6,0-32,5.2.9,10.5,1.8,15.9,1.8,37.1-.1,74.1-.4,111.1-.8-3,9.5-3.2,20.6,0,30l1,1,31,1-2,1.4c-.5,5.2-.9,24.1,0,28.7.1.6,1.2.8,2,.9h31c-.8.4-1.7.8-1.9,1.6-.4,1.4,1.4,25.5,1.8,28.7,0,.5,1.3.7,2,.8l28.9.5.7,1.5c.4,9,.6,18.2.6,27.7l.9.3c-1.7,1.1-.8,1.7,1,2l28.6.5.5,1.5c.2,9.2.5,19.2.9,30l31.4.9.6,30.8,1,.3c9.9,3.2,22,3,32,0,0,0,0,0,0,0-.2-11,.1-22,0-33l-32,1v-64h-33v-64h-31v-63h-31.5l-.5-256h-32v-64h-32v-32h-32v-33h-64v-25c-.2-2,.2-4,0-6h-223v31h-64v33h-32v32h-32v97h-32v31h-64v32h-32v31.9c-10.3.1-20.7-.1-31,0v64h95v32h32c0,21.3-.1,42.7,0,64h-32v159c10.7,0,21.4-.1,32,0,0,21.3,0,42.7,0,64h32v32h32v33h28.5c.5,0,2.1-1.5,3.5-1v32h64v32h32v31h-96v33c32,.4,64,.4,96,0l2-1.4c1-5.8,1.4-23.6.9-29.7,0-.6-1.2-.8-2-1l28.6.5c.2,1.4.6,1.8.9,1.2v60.8c-1.4.3-1.8.7-1.2,1l-125.3-.5c3-9.5,3.2-20.6,0-30,.9-.5.9-.8,0-1-10.6.1-21.5-.7-32,.5v64.5h383v-65c0-1.6-29.2,0-32,0,0,0,0,0,0,0,.1-10.6-.1-21.3,0-32h32v-32h128v32h64v32h128c.1-10.6-.1-21.3,0-32h0c10.7-.1,21.3,0,32,0v-64h31v-65c-10.3,0-20.7.1-31,0ZM587.6,829.9c-1.6,0-3.2.4-4.8.7s-3.2.8-4.8,1.4l-2,1.4c-1,5.3-1.4,23-.9,28.7,0,.6,1.2.8,2,1h-31l-2,1.2c.6,41.9,1,62.9,1,62.9l2,.9c10.6.4,20.9.4,31,0-.8.5-.8.8,0,1-3.2,9.2-3,20.7,0,30l-159,1,2-1.5c.7-4.6-.2-23.4-.9-28.7,0-.6-1.2-.8-2-.8,21.7-.7,43.3-1,65-1,.2-10.3.6-20.6,1.3-30.7,9.3-.7,18.9-1.1,28.7-1.3.5,1.9,1.4,1.9,2,0v-65l-1.5-2h-29.5v-29.1l-2-.9h-32l-2.2,1c-.6,1.1,0,22.1.3,24.9,0,.6,1.2.9,1.9,1,0,2.7-.7,4.2-1.9,4.5h-122.9c-1-10-1.4-20.2-1.2-30.5.9-1.8.4-2.3-1-1l-64-1,2-1.5c.7-4.6-.2-23.4-.9-28.7,0-.6-1.2-.8-2-.8l-29.6-.5c-.2-1.5-.5-2-1-1l-.5-29.6-1.4-2-28.1-.9c1.5-20.5,1-40.8-1.5-61-8.7-3.2-19.2-3-28,0-2.5-1.6-4.1-1.6-5,0,1.5-20.9,1.6-42.1,0-63,.8-10.7.8-21.4,0-32,3-21.2,3.1-42.8,0-64l1.7,2c5.9.6,24.7,1.1,29.6-.7.6-.2.7-1.5.8-2.4l1.5-29.5c20.7-.9,41.6-1.3,62.5-1.5h31c.4.9.7.9,1,0,1.3-10.5,1.6-21.2,1-32-5.3-1-10.6-1.7-16-1.9l-110-.2v-28l-2-.9,158-1c.6,1.9,1.4,1.9,2,0,10,.4,20,.4,30,0l2-.5c1.5-.7,1.4-23,1.1-29.4,4.2.5,25.7.1,29-.1.6,0,.8-1.2.9-2,.5-1.8,1-3.6,1.4-5.4.4-1.8.7-3.6.7-5.4.2-16.3.2-32.8-.1-49.1,0-1.5-2.4-4.8-4-3.1h-1l-1.5-2c-2.8-.2-27.6-.7-27.8.7-.4,2-.6,4-.7,6.1-.5,19.3-.3,39,1,58.2-74.6-.8-149.3-.6-224,0-21.3.1-42.7-.2-64-1l2-1.4c.7-5.6.8-23.1,0-28.7,0-.3-.3-.5-.7-.6,9.5,2.1,22.3,3.1,31.5,1,1.7-.4,1.4-27.1,1.2-30.4,0-.5-1.2-.8-2-.9l64-1,2-1.5v-28.4h93.1c0-.1,1.2-1.6,1.2-1.6l32.6-.5c.7-10.2,1.1-20.5,1-31l1.5,2h25.5v28.1l2,.9c-.9,1.5-.4,2,1,1,1.4,1.1,3,1.8,4.7,2.1h24.3s0,27,0,27l2,.9,2-1.4c1-4.6,1.3-23.4.9-28.7,0-.6-1.2-.8-2-1l-1.4-2c-3.5-.3-22.1-.7-27.5-.2.6-5.6.5-21.7,0-26.4,0-.6-1.2-.8-2-.9,1.7-2.4-.7-4.2-3.1-4.6l-93.2-1.9-.7,2v-10c2.8-.5,3-4.9,0-5v-10c2-2.3,2-4.7,0-7v-2c2.8-.7,2.9-4,0-4v-13c1.7-5.5,3.1-10.8.5-16.1l.3-26.4c10.1.3,20.1.2,30.2-.5.9,0,1.5-.2,1-1,.6-.4.6-.7,0-1l2-1.5c.5-6.8.5-17.9,0-24.6,0-.5-1.2-.8-2-.9,1.3-1.4,2.9-2.1,4.7-2.1l26.3-.9c.9,1.8,1.7,1.9,2,0l1.3,2c3.8.3,31.1,1,31.1-1.7,0-.4-.2-.9-.4-1.3l.5-30.5c1.6-.2,2-.6.7-1l156.8-.5c11,.9,22,.9,33,0,9.2,2.1,18.9,2.9,29,2.1v30l2,.9c10.6.8,21.4.8,32,0,9.8,3.3,20.7,2.3,30.9,1.1-1.2,10.2-2.2,21,1.1,30.9,9.8,3.3,20.7,2.3,30.9,1.1-1.2,10.2-2.2,21,1.1,30.9-3,10.2-3.1,21.8,0,32l1.5,2h29.1c-1.5,20.8-1,41.4,1.5,62-2.7,10.6-2.8,21.4,0,32-3,52.9-3.2,106.1,0,159h30c-.9,2.6-.9,5.8,0,9.5-1,18.4-.4,36.6,1.9,54.5,9.9,3.3,22,3,32,0l-2,1.5c-.9,4-.5,21.9,0,28.4-4.5-.6-25.1-.2-29,.1-.2,0-.3.2-.4.4,2.5-9.8,2.5-20.8-.5-30.4-9.9-3.3-22-3-32,0l2-1.5c.8-5.8.7-23.6,0-29.7,0-.6-1.2-.8-2-.9-.6-1-1.4-1.7-2.4-2.1-1-.5-20.1,0-23,.3l-2.5,1.8c-1.9-.4-3.1-1.4-3.5-2.9l-.5-28.1c.9-.4.9-.7,0-1-21.3-.4-42.7-.4-64,0l-2,1.4c-.7,4.8-.7,20.3-.1,26.6h-57.8c.5-3.9.2-22.8,0-26.1,0,0,0-.2-.1-.2,5.4,1.8,11.2,2.3,17.4,1.5,13.6,0,28.8.2,41.7-3.2l-1.2-2c-7.6-.2-59.1-1.3-61.6.5-4.1,3-2.2,26.7-1.3,32.4l2,1c-10.5-3-22.5-3.1-33,0-.2,10.5-.4,20.6-.6,30.3l-31.2.7-.3,1c-.9.4-.9.7,0,1v94c.4.9.7.9,1,0h29c.4.9.7.9,1,0l1,63c.2.9.7,1.5,1.4,2,1.1.8,25.3,1,28.7.9.6,0,.9-1.2,1-2l1,31,1.4,2c1.6.6,22.6,1,28.5,1-.7,6.4-.6,23.2,0,29.1,0,.6,1.2.8,2,.9.7,2,2.6,2.6,5.7,2,16.6,1.4,39,.6,56.2,0-.7,6.4-.6,23.2,0,29.1,0,.6,1.2.8,2,.9l1.2,2h60.7c-.5,5.9-.8,23.7,0,28.1,0,0,0,.2.1.3-2.5-.8-5.1-1.3-7.7-1.6-25.6,0-51.3.3-76.9,1.1ZM481.5,866.1c.2,9.3,0,18.6-.4,28-9.7.6-19.4.7-29.1.4.8-5.5.7-21.6.1-28.4,6.3.5,23.7.9,29.4,0Z"/>
    <polygon class="st4" points="962 767 962 767 962 767 962 767"/>
    <polygon class="st4" points="834 704 834 704 834 704 834 704"/>
    <polygon class="st4" points="483 226 419 226 419 322 482 322 483 226"/>
    <polygon class="st4" points="355 736 354 767 356 767 356 737 386 736 355 736"/>
    <path class="st4" d="M611,672h0c-11-.1-22,0-33,0v31c.3-9.9,1.8-20,1-30h61l2,30-1.2-30.8c-9.9-.4-19.9,0-29.8-.2Z"/>
    <path class="st4" d="M706,640h0c-9.6-3.3-22.3-2.9-32,0,0,4.8-.9,30.1,1,32l2-1.4c.5-7.5.6-18.6,0-26.5,3.5.4,19.7.2,24.8,0-.5,4.1-.2,23.8.1,27,0,.5,1.2.8,2,.9.7,0,1.3,0,2,0,3-10.3,3.1-21.7,0-32Z"/>
    <path class="st4" d="M738,672c-10.5-2.8-21.5-2.8-32,0v7c.2-1.5,1.9-3.7,1-6,20.3,1,40.8-.8,61-1-10,.1-20-.2-30,0Z"/>
    <path class="st4" d="M706,704h-2l.6,32.1h63.4c0-.1-61-.1-61-.1,0-10.9-.3-21.6-1-32Z"/>
    <path class="st4" d="M683.2,704h-9.2c3.1,0,6.2,0,9.2,0Z"/>
    <path class="st4" d="M683.2,704h4.8c-1.6,0-3.2,0-4.8,0Z"/>
    <path class="st4" d="M674,608h-1l1,31v-31Z"/>
    <path class="st4" d="M258,482l1,30c0-4.2.8-29-1-30Z"/>
  </g>
  <g>
    <path class="st1" d="M735.9,636.6c-.3,2,2,1.3,2.1,1.4v-30h-31l29,1v27.6Z"/>
    <path class="st1" d="M739,640l29,1v31h1v-32h-30Z"/>
    <path class="st1" d="M259,133c7.9-2.8,21.7-2.8,31-3h-31v3Z"/>
    <path class="st1" d="M259,160v1c.5-.5,1.9-.5,0-1Z"/>
    <path class="st1" d="M515,859.3v-28.3c-.1,9.4,0,18.9,0,28.3Z"/>
    <path class="st1" d="M515,899.1v22.9c.8-6.7,0-15.5,0-22.9Z"/>
    <path class="st1" d="M515,899.1v-3.1c0,1,0,2,0,3.1Z"/>
    <path class="st1" d="M515,813v-13c0,4.3,0,8.7,0,13Z"/>
    <path class="st1" d="M515,859.3v36.7c.2-12.2,0-24.5,0-36.7Z"/>
    <path class="st1" d="M515,813v18c0-6,0-12,0-18Z"/>
    <path class="st1" d="M484,928c-.4-.9-.7-.9-1,0-21.6,0-43.4-.8-65,1l96-1h-30Z"/>
    <path class="st1" d="M578,929v-1h-31l31,1Z"/>
    <path class="st1" d="M611.4,577.5l29.6-.5c1.8-1.8,1-27.3,1-32v-1c-.1-.5-.3-1-.7-1.3-1-1-23-.9-29.2-.7.3-3.6.2-20.8,0-25.9,8.6.5,20.6.5,29,0,.6,0,.8-1.2.9-2h0c-42.3-1.5-84.7-1.5-127-1,0,10.7,0,21.3,0,32h-32c-.1,4.6.2,9.4,0,14v1c-.3,12.9,0,26.1,0,39v1c.1,13.3-.2,26.7,0,40h30l-1.4-2c-4.2-.8-19.6-1.3-25.5-1,.7-5,.4-20.6,0-26.8,3.9.5,22.8.1,27.4-.1-.1.3-.2.5-.3.8-.9,5.6-1.4,20.4-1.2,26.3l2,2.8c0,10.4,1.2,21.6,2,32v-32l62-1,1-31,31-1,.5-28.6c1.5-.2,2-.5,1-.9Z"/>
    <path class="st1" d="M450,585.9v54.1c.2-18,0-36.1,0-54.1Z"/>
    <path class="st1" d="M450,546c-.1,13.3,0,26.6,0,39.9v-39.9Z"/>
    <polygon class="st1" points="481.9 543.9 482 513 481 543 450 543 450 545 481.9 543.9"/>
    <path class="st1" d="M546,672h0v32h32c0-.3,0-.7,0-1h-31l-1-31Z"/>
    <path class="st1" d="M324,417v1l30-1c-10,.2-20-.2-30,0Z"/>
    <path class="st1" d="M163,609l2-31,30-1h-32c0,10.7,0,21.3,0,32Z"/>
    <path class="st1" d="M355,736h-2v30h-28l-1-30h0s0,31,0,31h30l1-.6.5-28.9c1.2-1,1.2-1.4-.5-1.5Z"/>
    <path class="st1" d="M704,703h-30v-31h-31l-1-31-31-1v32c9.8.4,19.6.7,29.4.8l1.6,30.2c4.4,2.3,25.5.9,32,1h14c5.3,0,10.7,0,16,0,.5.9.8.9,1,0,0-2.7.8-5.3,1-8l-2,7Z"/>
    <path class="st1" d="M707,736v-32h-1l1,32Z"/>
    <path class="st1" d="M706,640c-.1-10.7,0-21.4,0-32-10.7,0-21.4,0-32,0h0c-.4,10.4-.4,20.7,0,31-.9.5-.9.8,0,1,10.6.3,21.4-.1,32,0,.1,10.6,0,21.3,0,32,10.6.1,21.4.2,32,0v-32c-10.7,0-21.4.1-32,0Z"/>
    <path class="st1" d="M674,546l-31-1c10.3.5,20.6,1.7,31,1Z"/>
    <path class="st1" d="M227,513v30c.4-9.6,1.8-19.3,1-29h30l-31-1Z"/>
    <path class="st1" d="M675,672h29c-9.1-3.2-19.9-3-29,0Z"/>
  </g>
  <g>
    <path class="st2" d="M481.4,543.3l.6-30.3c11,0,22,.1,33,0,0-4.5-2.9-29.9.2-31.9h61.8c.5.7.8.7,1-.1,21.3-.3,42.7.2,64,0l-1.2-2c-20.2-.3-40.5-.6-60.7-1,.5-3.4.2-21.5,0-26.9,4.1.4,25.9.1,29,0,.6,0,.8-1.2.9-2l2-1.2v-60.7c4,.5,25.7.2,29.1,0,.6,0,.8-1.2.9-2l2-1.2v-59.7c4,.5,25.7.2,29.1,0,.6,0,.8-1.2.9-2,0-10.7,0-21.4,0-32l-1.5-2h-29.1c1.5-20.8,1-41.5-1.5-62,0-10.7.1-21.4,0-32h0s-1.4-2-1.4-2c-10-.2-20,0-29.9.4l-.7,128.6v1l-31.5.6-.5,62.4h-32v32h-32v32h-32v32h-31.6s-.4,31-.4,31v1h-31.5s.5,64,.5,64h-32v-32h-32l-1,32-30.5.3-.5,30.7c-8.4.6-17.8-.8-26,0-.6.5-1.3.5-2,0h-3l-1,31h-32l-1-31h-31c-.3-2.2-1-3.4-1-1v-61.6l-1-.3c-.2-.9-.7-1.5-1.5-2-1.1-.8-23.6-.2-26.6,0-.6,0-.8,1.2-.9,2l-2,1.4c-.9,2.7-1.1,25.5-.9,29.7,0,.6,1.2.9,2,1l-30.6.5c-.7,10.5-1.2,21-1.4,31.5,0,21,0,42,0,63,1.7,0,3.3,0,5,0,.8-1.4.4-2.6-1.1-3.6v-58.2c3.9.6,25.1,0,28.2-.1.5,0,.8-1.2.9-2-3,21.1-3.2,42.9,0,64,9.8,3.2,21.2,3,31,0l-2,1.5c-.8,2.7-.3,25.5,0,29.7,0,.6,1.2.8,2,.9l1.5,2c5.4.8,21.5.7,28.4.1-.6,4.6-.2,25.1.1,29,0,.6,1.2.8,2,.9l1.2,2h62.9l.9-2c0,10.3.2,20.3,1,30,9,.8,19.2.8,28,0l.5-.7c-.3-10.1.2-19.9,1.5-29.3.3,1.5.8,1.8,1.4.5l29.6-.5,2-1.5c.8-5.5.7-21.7.1-28.5,5.2.2,28.6.5,30,0,.6-.2.8-1.2.9-2l2-1.5c.8-5.4.7-21.5.1-28.4,5.5.7,23,.4,28-.1.6,0,.8-1.2.9-2,3.1-9.8,3-21.2,0-31v-96c10.3-1.3,20.8-1.8,31.4-1.7Z"/>
    <path class="st2" d="M353,322l-1.4-2h-26.5v-28.1c-.1,0-2.1-.9-2.1-.9,0,0-.4-1-1-1-1.3-1.1-2.8-1.8-4.4-2.1h-22.6v-28l-2-.9-1,31-33,1v31h32v32l-160,1v29h222v-62Z"/>
    <polygon class="st2" points="293 259 293 259 293 259 293 259"/>
    <path class="st2" d="M613,670.6v-28.5s28,.9,28,.9l1-2,1,31,1.4,2c4.3.8,21.1.6,27.5,0-.5,6-.8,23.6,0,28,.1.6,1.2.8,2,.9,9.6.8,20.6.8,30,0,1.1-2.1,1.7-4.4,2-7,.3-5.2-.8-12.2,0-17l.5-6c1.2-.6,1-.9-.5-1-.6-1.9-1.4-1.9-2,0h-29c-.7-9.8-.8-19.7-.5-29.5,2.4-.8,1.9-2.2-.5-2.5-4.4-3.3-14.1-3.3-20.2-3.1-4.1-.6-7.4-.1-9.8,1.4.8-6,.6-23.5,0-29.4,0-.2-.1-.3-.3-.4,9.4,2.5,20.1,2.5,29.3-.5.5.8.8.9,1,0,10.1,2.6,20.7,2.5,31,1.2-1.4,10.1-2.3,21,1,30.8,9.6,2.2,19.6,2.8,30,2.1v29l2,.9c10,.3,20,.3,30,0,.6-10.4.8-20.9.4-31.5l-29.4-.5c-.6-.5-.7-1.6-1-2-.4-1.9-.7-2.3-1-1.2v-27.8c-9.8-.6-19.8-1-29.9-.9l-2-31h-31v-31h0s-31-1-31-1h-1l-2,1.2c.5,9.8.3,19.6-.5,29.3l1.5,1.5-30.5.6-.5,29.4-1.5-2c-4-.7-23.8.3-28.7.9-.6,0-.8,1.2-.8,2l-1,31-1.2-2c-20.4.1-40.8.6-61.1,1.4-.7,11-.6,22.2.3,33.6h30l.6,31.5c10.7.2,21.2,0,31.4-.5l.5-29.6c10.7-.9,21.6-1.4,32.5-1.4l2-1.5Z"/>
    <path class="st2" d="M259,162h33v-32c-.7,0-1.3,0-2,0-10.2-.2-20.5.3-30.6,1.5l-.4,1.5v27c.5.2.5.6,0,1-.3.3-.7.9-1,1-8.5,2.8-21,0-30,1v31h31v-32Z"/>
    <path class="st2" d="M769,672h0l31,1v31h2l-1.2-31.8c-10.6-.2-21.2-.2-31.8-.2Z"/>
    <polygon class="st2" points="385 897 385 959 259 959 386 960 386 896 356 896 385 897"/>
    <path class="st2" d="M450,826l-1.6,4.1h-123.4c0,0-1-30.1-1-30.1h0v31h126c.2-1.6-.2-3.4,0-5Z"/>
    <path class="st2" d="M259,929l96-1c-32,.2-64-.3-96,0v1Z"/>
    <polygon class="st2" points="227 736 227 767 258 767 228 766 227 736"/>
    <path class="st2" d="M483,928h1v-31c9.2-.9,20.1,1.7,29-1h-30v32Z"/>
    <path class="st2" d="M515,608h-31v31l29,1h1c0-10.5,2.1-21.4,1-32Z"/>
    <polygon class="st2" points="804 894 804.8 894 803 864 804 894"/>
    <path class="st2" d="M804.9,895.5c41.7.5,83.4,1,125.1.5v-2h-125.2v1.5Z"/>
    <polygon class="st2" points="612 766 611 736 611 767 674 767 612 766"/>
    <path class="st2" d="M324,418l-1.1,30.9c-9.9.3-19.9,0-29.9.1v32h31v-32h31v-32h32c.1-10.7-.1-21.4,0-32h-32c0,4.9.9,30.1-1,32-10.3,0-20.3.2-30,1Z"/>
    <path class="st2" d="M259,513h33c1.3-1.3-1-28.1-1-32h-32c-21,0-42,0-63,0l-1,31,2-30h61c.8,10,1.2,20,1,30v1Z"/>
    <path class="st2" d="M164,418c52.7.2,105.4.2,158-1l-158,1Z"/>
    <path class="st2" d="M930,864l-32-1-5,2h36l1,19c-.2-6.6.1-13.3,0-20Z"/>
    <path class="st2" d="M866,760c-.7-7.9.5-16.1,0-24h-32l30,1,2,23Z"/>
    <path class="st2" d="M514,130v-32c-9.5,1.4-22.2-1.1-32,0v32c10.7,0,21.4-.1,32,0Z"/>
    <path class="st2" d="M578,194h32c0-10.7.1-21.4,0-32h0c-10.7-.1-21.3.1-32,0v32Z"/>
    <path class="st2" d="M227.5,513.5l-.5,29.5c0,.7,0,1.3,0,2l32-1v-30l-31.5-.4Z"/>
    <path class="st2" d="M707,736h61l1-32h-62c-.4,10.5-.4,21.2,0,32Z"/>
    <path class="st2" d="M646,513l-3.1-2.6-.9-28.4v31c1.3.1,2.7-.1,4,0Z"/>
    <path class="st2" d="M642,514h-32v30h32c-.2-10,.1-20,0-30Z"/>
  </g>
  <g>
    <path class="st0" d="M546,71v14.4c.2-4.9.5-9.9,0-14.4Z"/>
    <path class="st0" d="M546,96v-10.6c-.1,3.6-.2,7.2,0,10.6Z"/>
    <path class="st0" d="M898,863v-31l63-1c-1-21.3.8-42.8,1-64-32-.4-64,.3-96,0-.2-2.3.2-4.7,0-7l-1-22.9c-10.2-.8-20.5-1.2-31-1.1-.1-10.7.2-21.4,0-32-10.7-.2-21.3.1-32,0-1.3-10.3-1.8-20.8-1.7-31.4l-31.3-.6h0c-.5-.8-.8-.9-1,0-20.4.5-40.9.6-61.3.5l-.7,6.5c-3.8,1.9-3,14.4,0,17l-1.4,6.5c-1.3.5-1.1,1,.4,1.5.5.9.8.9,1,0,.5.9.8.9,1,0l1.2,2h58.7s-.9,29-.9,29l2,1h-60.4c0-1.6-.7-2-1.9-2l-.7-29.7-1-.3c-5.3-.8-10.7-.8-16,0h-14l-1.8-2c-9.6.6-19.2.5-28.7-.5l-1.5,1.5c-.3-10.2-1-20.2-2-30-20-.9-41.4-.9-61,0-.5,10-.8,20-1,30-.9.5-.9.8,0,1-.2,10.7.2,21.4,0,32h33l.6,30.5,62.4.5v31l127,1,2-32h62v33h-62v32h-65v31l65,1,1,30c41.6,1.2,83.5,1.6,125.8,1l.2-1c0-2,0-4,0-6v-1c0-1,0-2,0-3,0-6.6-.3-12.9-1-19-11.3-1.2-22.6-1.3-34-.2,1.8-.3,2.8-.9,3-1.8Z"/>
    <path class="st0" d="M706,577h32v-32c-10.7-.1-21.4.2-32,0,.1,10.7,0,21.3,0,32Z"/>
    <path class="st0" d="M674,322h-32v63h-32v64h-32v31l64,1v1l.5,28.7c.3,1.3,1.5,2.1,3.5,2.3,8.8,1,19-.7,28,0v32c10.7.1,21.4-.2,32,0-.2-20.2.1-40.4,0-60.5l-2-3.5h-30c-.1-53,.2-106,0-159Z"/>
    <path class="st0" d="M642,290h32c-.1-21.3,0-42.7,0-64h-32c.1,21.3,0,42.7,0,64Z"/>
    <path class="st0" d="M611,194h31c-.1-10.6,0-21.4,0-32-10.7-.1-21.4.1-32,0-.1-10.7,0-21.4,0-32-10.7-.1-21.4.1-32,0h0v1l-2,1.4c-.7,3.2-.5,20.6,0,26.5-7.9-.5-18.8-.5-26.9,0,.5-7.9.5-19.3,0-27,0-.5-1.2-.8-2-.9l-1,31c10.7.1,21.4-.1,32,0,10.1,3.2,21.8,3,32,0-2.9,10.2-3.1,21.9,0,32"/>
    <path class="st0" d="M514,130c10.7.1,21.4,0,32,0v-33c-10.3,0-20.7.1-31,0-.2.4-.6.9-1,1-.5.2-1,.3-1.3.7-1,1.1-.9,26.8-.7,30.4,0,.5,1.2.8,2,.9Z"/>
    <path class="st0" d="M322,290v-31h-29v31c9.6.3,19.4-.4,29,0Z"/>
    <path class="st0" d="M227,205c0,4.3,0,8.7,0,13v-13Z"/>
    <path class="st0" d="M610,768h-64v-32l-32-1-1-31-31-1-1-63h-31v1c-.1,10.3.1,20.7,0,31h-31v32h-33v32l-30.5.6c.3,10.4-.2,20.6-1.5,30.4l-.7-1.3c-3.9,1.3-28.8,1.4-28.9-.1l-.5-29.6h-65v-32h-32v-32c-10.3-.1-20.7.2-31,0-.1-21.3.1-42.7,0-64h-31v61.6c0,0,3,2.4,3,2.4,9.3,0,18.7-.1,28,0,.1,21,0,42,0,63l31,1,.6,30.5,30.4.5,1,31,64,1,1,1,.6,30.5h124.2c.6-1.4,1-2.9,1.1-4.5.6-4.7-1-25.2,0-27h32v32h33v65c-.6.1-1.5-.2-2,0-9.8.6-19.6.8-29.5.5-.3,10.8-.1,21.2.5,31.5h4.6c-23.5,0-47.1.4-70.6,1l1,31,159-1c.1-10-.2-20,0-30-10.2-.7-20.5-1.1-31-1l-1-65h31l1-31c31.9-.2,64-1.9,96-1v-31h-64v-32ZM515,800h0s0,0,0,0h0Z"/>
    <path class="st0" d="M168,672h0s0,0,0,0h0Z"/>
    <path class="st0" d="M356,896l-1,32c-32.3-.1-64.3.2-96,1,.1,10,0,20,0,30,42.3.4,84.3.4,126,0,.9-20.2.9-42.1,0-62-9.5-.7-19.2-1.1-29-1Z"/>
    <rect class="st0" x="387" y="864" width="32" height="32"/>
    <rect class="st0" x="484" y="514" width="29" height="29"/>
    <path class="st0" d="M483,559c0,.4,0,.7,0,1v-1Z"/>
    <path class="st0" d="M259,512c.2-10-.2-20-1-30h0c-20.4-.6-40.9-.8-61.5-.4l-1.5,30.4c-4.2,2.2-25.7,1-32,1,.1,21.3,0,42.7,0,64,.9,2.2,1.6,2.8,2.1.5l29.9-.5,1-32h29v62.4s2,.6,2,.6c.5-21-.7-42.1,0-63,1.8-.9,1.9-1.7,0-2l.5-28.6.9-.9,30.6.4"/>
    <path class="st0" d="M323.4,449.7c.1,0,1.3-2,1.5-2.2.7-1.3,1.1-25.2,1-28.5,0-.5-1.2-.8-2-1,.9-.4.9-.7,0-1h0c-.7,0-1.3,0-2,0l-158,1v31c42.7-.4,85.4.6,128,0h1c6.9,2.3,24.4,3.9,30.4.8Z"/>
    <path class="st0" d="M578,385"/>
    <path class="st0" d="M297,608c-.7,0-1.3,0-2,0"/>
    <path class="st0" d="M516,482v29h62v-30h-1c-20.3.3-40.7,1.8-61,1Z"/>
    <path class="st0" d="M674,640v-1c0-10.6-.3-20.9-1-31-10.3.1-20.7,0-31,0v32c10.6-2.4,21.4-.3,32,0Z"/>
    <polygon class="st0" points="611 578 641 577 610 577 610 607 611 578"/>
    <path class="st0" d="M642,544v1h1c-.2,0-.6-.8-1-1Z"/>
    <path class="st0" d="M675,672c9.7.1,19.3-.2,29,0v-30h-29v30Z"/>
  </g>
  <g>
    <rect class="st2" x="545" y="130.1" width="33" height="31.9"/>
    <rect class="st2" x="481.5" y="97.6" width="33" height="31.9"/>
    <rect class="st2" x="577.5" y="162" width="33" height="31.9"/>
  </g>
  <path class="st0" d="M325.7,288.7v-33.3c-11.5-.3-23.2.4-34.7,0h0v34.7h32v31.9h32.3l1.1-1.1v-32.3c-10.2-.3-20.5.3-30.7,0Z"/>
</svg>