<?xml version="1.0" encoding="UTF-8"?>
<svg id="_레이어_1" xmlns="http://www.w3.org/2000/svg" version="1.1" viewBox="0 0 1024 1024">
  <!-- Generator: Adobe Illustrator 30.1.0, SVG Export Plug-In . SVG Version: 2.1.1 Build 136)  -->
  <defs>
    <style>
      .st0 {
        fill: #014a4a;
      }

      .st1 {
        fill: #b7f8ed;
      }

      .st2 {
        fill: #1a5c5c;
      }

      .st3 {
        fill: #78cac7;
      }

      .st4 {
        fill: #c0fff3;
      }

      .st5 {
        fill: #29aba6;
      }

      .st6 {
        fill: #4d8080;
      }

      .st7 {
        fill: #0e5353;
      }

      .st8 {
        fill: #5abeba;
      }

      .st9 {
        fill: #072628;
      }

      .st10 {
        fill: #7cf3de;
      }

      .st11 {
        fill: #467b7b;
      }

      .st12 {
        fill: #c1fff3;
      }
    </style>
  </defs>
  <g>
    <path class="st10" d="M624.9,838.2c-2.9-2.4-5.9-.1-8.4-.2-6.6-.4-12.5-1.8-19.5,0v-118.5c0-.3-1-1.6-1.2-2.3l-59.2-.2c-1.2,0-.4,1.8-.6,2h60.1v89c-.2.5-.7.7-1,1v1c1.3,6.7,1.5,15.1,1,22,0,.7-1,1-1,1-.2,2.2.2,4.7,0,7h1c8.8,1.2,19.9-.9,29,0-.2-.5.2-1.3-.2-1.8Z"/>
    <path class="st10" d="M444,778h-27c-1-5.5,1.7-24.6-1-28v28c9,.2,18.6,1,28,1h1v-29c-2.5,2.5-.2,23-1,28Z"/>
    <path class="st10" d="M715,509h-2v27h-29c.3,1-1,2.2-1,2.5v28.5l-86,1h35c16,0,32.1.5,48,0h4v-30h31c.2-.2,0-.7,0-1-.3-9.3.5-18.7,0-28Z"/>
    <path class="st10" d="M717.2,416.9h1.4c-.5,0-1,0-1.4,0Z"/>
    <path class="st10" d="M713,449c1-.3,2.2,1,2.5,1h28.5v26l-59,1c19.7,0,39.3-.1,59,0h1v-28c-8.1-.4-16.4,0-24.5,0-1.7,0-4.5.7-5.5-1v-30c.4-.7,1.3-1,2.2-1.1h-4.2v32.1Z"/>
    <path class="st10" d="M720.5,417c18.1-.2,36.4.4,54.5,0v-1l-56.4.9c.7,0,1.3,0,1.9,0Z"/>
    <path class="st10" d="M841,658h24v-29h-30v29h6ZM837,630c1.4-.6,3,1,3.5,1h23.5v26h-27v-27Z"/>
    <path class="st10" d="M835,597c-.5.2-1.8-.6-2,.6v29.4h-27v-57h58v26c-8.3,1-21.7-1.9-29,1h30v-28c-19.9,0-40.1-.5-60,0v60h30c0-9.7-1-21.7,0-31v-1Z"/>
    <path class="st10" d="M324,567h-27v-28h-2v29h29v-1Z"/>
    <rect class="st10" x="354" y="568" width="1" height="30"/>
    <path class="st10" d="M204,416.9v-1h-27v-27c7.7.9,17.3-1,24.6,0,2.2.3,1.2,1.9,2.4,3.1v-4h0c-9.3-.1-18.7-.1-28-.1h-1v29c1.1,1.1,25.2-1.2,29,0Z"/>
    <path class="st10" d="M237,509h-1.1v28c3.6.3,1.1-.9,1.1-2.6-.3-8.4.2-16.9,0-25.4Z"/>
    <path class="st10" d="M204,360h0v25.1c3,.5,2-1.6,2-3.5.2-5.8.2-12.3,0-18.1,0-2,1-4.1-2-3.5Z"/>
    <path class="st10" d="M206,116v-28h89v-1l-2-1c-24.7,0-61.9-3-85,0-.6,0-2.4,1.8-4,1v1l1,.5-1,.5c0,7.6.2,15.4,0,23l1,.5-1,.5c0,1,.2,2.1,0,3h2Z"/>
    <path class="st10" d="M176,206v1h1v-89c1-.9,21.7.6,25.6,0,1.1-.2,1,0,1.4-1h0c-8.3.8-18.7-1.2-26.6,0-2.2.3-1.2,1.9-2.4,3.1v16l1,.5-1,.5v52l1,.5-1,.5v10c1.6,1,1.1,4.2,1,6Z"/>
    <path class="st10" d="M177,450h28c.3-.8-1-1-1-1-9.5.6-20-1.3-29,1v27h60l-58-1v-26Z"/>
    <path class="st10" d="M462,779c0,30.3.7,60.8,0,91v1h1l-1-122v30Z"/>
    <path class="st10" d="M683,813.4v85.6h-28v1h29v-89c0,.4-1.5,1.3-1,2.4Z"/>
    <path class="st10" d="M627,842.5c0-2.5.7-3.3-2-1.5,0,2.3,0,4.7,0,7,1.6.7,1.6,4.3,0,5v10c2,1.7.7,5.5,1,8h1c-.3-9.5.5-19,0-28.5Z"/>
    <path class="st10" d="M505,810h0c-1.6.9-1,3.7-1,5.4,0,6.9-.8,16.6,0,23.1.1,1.1.4,3.5,1.5,3.5h28.5v87h-28v1h22c1.6,0,3.4.2,5,0,.6,0,1.6.2,2,0v-89h-30v-31Z"/>
    <path class="st10" d="M508.5,809c5.6.2,12.3-1,17.5,1h2l39-1v-1h-62c-.2,1.8,2.3,1,3.5,1Z"/>
    <path class="st10" d="M684,780h-58c2.2,3.8,77.7-.8,88,1-.6,9.2,1.2,19.1-1,28h2v-30c-9.9,1.8-20.8,1-31,1Z"/>
    <path class="st10" d="M656,689h-60c4.5,3.6,75.8-.7,87,1v27h-28c.3,1-1,2.2-1,2.5v28.5c-9.1.6-19.2-1.3-28,1h1c2.3-.2,4.7,0,7,0h21c-.7-5.5-.7-22.9,0-28.5,0-1.1,0-1.2,1-1.5,3.8-1.2,28,1,29,0v-31l-2-1c-.1.5.2,1.2-.2,1.7-8.8.6-17.9.3-26.8.3Z"/>
    <path class="st10" d="M626,755h0c-.2-1.9-1.4-4-1-6.1-.8.5-.8.3-1,1.5-1,6.4-.3,20.2,0,27.1,0,2.5-.7,3.3,2,1.5v-1c-1.7-3.6-1.7-10.7,0-14v-4c-1.6-.7-1.6-4.3,0-5Z"/>
    <path class="st10" d="M551,597l-15,1c1.9,4,77.9-1,88,1v58c-8.3.8-18.4-1-26.5,0-1.1,0-1.2,0-1.5,1h12c5,0,10,.3,15,0h2c-.6-6.7,0-15.5,0-22.5s-.7-4.5,1-5.5v-32c-24.9-.8-50.3,1.5-75-1Z"/>
    <path class="st10" d="M685.5,357c-.3,0-1.6,1.1-2.3,1.2l-.2,28.8,2-3c-.4-8.6.3-17.4,0-26h30c.7-9.9-1-21.2,0-31-3-.5-2,1.6-2,3.5-.3,8.8.2,17.7,0,26.5h-27.5Z"/>
    <path class="st10" d="M687.5,389c27.7,1.9,59.3-.1,87.5,0v-1h-90c.6,1.4,1.4,1,2.5,1Z"/>
    <path class="st10" d="M773,297c-7,1.5-18.6-1.2-26.5,0-1.1-.1-1.2,0-1.5-1-1.1-3.5,0-24.3,0-30v-30h-30v-28.9c-9.9-.5-20.3,1.1-30-1v2h28v28.5c0,3.5,8.9,1.4,10.5,1.4,6.8-.1,13.7,0,20.5,0-.2,4.9,0,9.8,0,14.6v13.9c0,10.8-.9,22,1,32.5h28v26l-58,1h60v-29c-.6,0-1.4-.1-2,0Z"/>
    <path class="st10" d="M235.9,237v30c0,2.1.2,6.5.3,11.2l.7-40.2c1-1,22.5.6,26.6,0,1.2-.1,1.1-.1,1.5-1h-29.1Z"/>
    <path class="st10" d="M236.2,278.2l-.3,17.8c.7-2.1.5-10.4.3-17.8Z"/>
    <path class="st10" d="M805,116c-10.2,0-19.8,1.3-30,0v2h30v-2Z"/>
    <path class="st10" d="M324,842l1,.5c0,.7-1,.5-1,.5-.8,7.2,0,17.4,0,25,2.7,1.8,1.9,1,2-1.5.3-8.1-.2-16.4,0-24.5,8.9-1,20.8,1.7,29-1-10.1.6-21.3-1.3-31,1Z"/>
    <path class="st10" d="M504,236l-57-1v-26.1h86.9c.4-.6-.1-1.6,0-1.9h-88v8c0,6.1-.8,15.4,0,21h58Z"/>
    <path class="st10" d="M504,267h-57c-1,0-.9.7-1,1.5-1.1,8.4.8,18.9,0,27.5v1c1-.5.8-.5,1-1.5.8-4.4-1-26,0-27.5l56.4,1c1.1,0,.6-1.3.6-2Z"/>
    <path class="st10" d="M534.9,176c-.9,9.4,1.2,20.9,0,30,1.6-1.1,1-3.8,1-5.5,0-8.7.7-18.1-1-26.5h-29v-26l58,1v25.5c0,2.9,5.3,3.3,7.5,3.5,15.9,1.2,35.4-1.2,52.1-1.1,6.8.1,13.6,1.6,21,1.1,2.3-.1,12.5-1.1,12.5-2.5v-57.5c5.3-1,23.8,1.7,27-1h0c-9,.7-19.2-.9-28,0l-1,3c-.8,18.2.6,36.7,0,55h-60c-8.5,0-20.5,1-28.5,0-1.1-.1-1.2,0-1.5-1-1.7-5.2,1.2-19.7,0-26-.2-.5.6-1.8-.6-2h-59.4v27c0,.5-.5.9-1,1v1c.2,0,1.1,1,2,1h29Z"/>
    <path class="st10" d="M328.5,148c28.4.9,57-.7,85.5,0v26h-29c-2.1,10.7-.5,22.1-1,33h1c1.4-7.2-1.9-24.1,0-30,.4-1,.5-.9,1.5-1,4.3-.6,27.5,1,28.5,0v-30h-61c-9.2,0-19.9.9-29,0-.5,3,1.6,2,3.5,2Z"/>
    <path class="st10" d="M691.5,88c27.7.9,55.7-.7,83.5,0v-1l-2-1h-69c0,1.5-2.9,1.5-3,0h-13c-.5,3,1.6,2,3.5,2Z"/>
    <path class="st10" d="M304,207h-39c0,8.3.3,16.7,0,25l1,4c1-.4.8-.3,1-1.4.6-4-.9-24.7,0-25.6,11.1-1,24.7,1.4,35.5,0,1.5-.2,2.4-.3,1.5-2Z"/>
    <path class="st10" d="M386,288c0-5.3,0-10.7,0-16-1.6-.9-1-3.4-1-5-9.1-1.2-20.6.9-30,0,.2.4-.6,1.8.6,2h28.4v28h1c.8-1.8-1.4-7.4,1-9Z"/>
    <path class="st10" d="M443.6,416c-28.2-2.6-60.1,1.9-88.6,0h-1v1c30.6-.1,61.4.2,92,0-.6-1.4-1.2-.9-2.4-1Z"/>
    <path class="st10" d="M295,118h28c1,1.1-1.6,24.5,1,28v-29c-9.4-2.1-19.4-.5-29-1v2Z"/>
    <path class="st10" d="M387,297c0,.3-1.4,1.8-1,2h59.5l-1.5-2c-1.3,0-2.7,0-4,0h-53Z"/>
    <path class="st10" d="M354,237v-29c-.9,8.6,0,20,0,29Z"/>
    <path class="st10" d="M354,265v-28c0,9-.8,19.4,0,28Z"/>
    <path class="st10" d="M506.1,240.4c-.2-1.7,0-1.9-1.1-3.4v30h.1c1.4-.7.9-1.3,1-2.5.6-6.3.5-17.7,0-24.1Z"/>
    <path class="st10" d="M684,479h0v-1c-1.2,1.5-.9,1.6-1.1,3.4-.6,6.3,0,14.6,0,21.1s-.7,4.5,1,5.5c-1.6-7.8,1.2-20.6,0-29Z"/>
    <path class="st10" d="M685,116c2.3-9.2.4-19.5,1-29l-1,1c-1.2,8,1.6,20.7,0,28Z"/>
    <path class="st10" d="M685,509c2.4,1.9,15.5,1.5,19,0h-19Z"/>
    <path class="st10" d="M355.5,781.1c.3,0,1.6-1,2.3-1.2.1-8.7.6-17.6.2-26.4,0-2,1-4.1-2-3.5h0c1,9.5-.7,20.4,0,30-1.1,1.1-28.3-1.6-32,1v28c3.7,2.6,30.9,0,32,1v30c.2-.2,1.8.6,2-.6-.7-4.4,1.2-29.7-1.2-31.2-5.7.7-11.9-1.2-17.3-1.2s-13.5,2.6-13.5-.4v-25.5h29.5Z"/>
    <path class="st10" d="M328.5,690c6.7-1.3,16.8.9,24,0,.9,0,1.5,0,1.5-1-9.8,0-20.7-.8-30,1v59h32c-9.6-2.3-20.2-.4-30-1v-56.5c0-.7,1.7-1.3,2.5-1.5Z"/>
    <path class="st10" d="M384,871h1v-92h.1v-25c-.1.7-1,1.5-1.1,3.4-2.5,35.8,0,77.1,0,113.6Z"/>
    <path class="st10" d="M565.6,780.1c-14.4-.2-28.8,0-43.2,0-1.8,0-3.2-1.1-3.4-1.1h.1c-1.3,0-2.7,0-4,0s-6.2,2.1-9,1c1.4,2.7,53.7,0,61,1-.4-1-.5-.9-1.5-1Z"/>
    <path class="st10" d="M534,749c2.6-8.4,0-20,1-29-2.6,8-.2,19.3-1,28h-27.5c-.4,0-1.6,1-2.5,1.2v29.8l2-3c-.4-8.6.3-17.4,0-26,8.8-2.3,18.9-.4,28-1Z"/>
    <path class="st10" d="M685.6,808c-1.2,0-.4,1.8-.6,2,9.1-.2,18.3.8,27-1-8.3-2.3-17.8-.3-26.4-1Z"/>
    <path class="st10" d="M595,658c-1.6,1-1,3.8-1,5.5,0,7.9-.8,16.9,1,24.5-1.6-8.2,1.2-21.2,0-30Z"/>
    <path class="st10" d="M409.5,748c-7.5,0-16.3-.8-23.5,1,1.4-.5,26.9-.4,29,0-1-1.6-3.8-1-5.5-1Z"/>
    <path class="st10" d="M805,135c-1.7,1.8-1.6,9.2,0,10v-10Z"/>
  </g>
  <g>
    <path class="st11" d="M776.5,749c-1.1,0-1.2,0-1.5,1h28v-1c-7.9,0-19-1-26.5,0Z"/>
    <path class="st11" d="M835,112h-1v4h1v-4Z"/>
    <path class="st11" d="M536,840h-1c-4.4-.6-28,1-29,0v-30h-1v31h30v89c4.1-1.8-1.1-79.9,1-90Z"/>
    <path class="st11" d="M775,477h-.1c-10,0-20,0-30,0h-1c.7,2.6-1.7,1.7-2,2s-2,6.1-3,0h-3c-.5,4.4-6,4.1-9,3,3.3,7.8-2.6,4.2-4.6,7-.6.9.6,2.6.2,4-.7,2.7-4.6,5.5-2.1,10,3,.2,6.1,3.5,8.1,3.9,8.7,1.7,25.9-.4,36,0,2,0,4.1-1,3.5,2h6c2.2-10.4.5-21.4,1-32Z"/>
    <path class="st11" d="M865,749h-31c.2.6,1,1.5,1,2,.8,8.5-.6,18.3,0,27,9.6.5,19.9,3.3,30,2,0-10.3,0-20.7,0-31Z"/>
    <path class="st11" d="M176,477v1c8,0,19.1-1,26.6,0,1,0,1.1,0,1.4,1h30v30h2v-32h-60Z"/>
    <path class="st11" d="M461,779l1,91c.7-30.2,0-60.7,0-91h-1Z"/>
    <path class="st11" d="M596,688c1.5-7.2-1.9-24.1,0-30h-1c1.2,8.8-1.6,21.8,0,30,0,.5.7.7,1,1h23c-3-2.5-22,0-23-1Z"/>
    <path class="st11" d="M644.5,688c-7.2,0-15.6-.8-22.5,1h28c-1-1.6-3.8-1-5.5-1Z"/>
    <polygon class="st11" points="656 689 656 688 653 689 656 689"/>
    <path class="st11" d="M686,479h-2c1.2,8.4-1.6,21.2,0,29,0,.5.7.7,1,1h30v-2h-29v-28Z"/>
    <path class="st11" d="M235,267h1v-29c-2.3,9.2-.4,19.5-1,29Z"/>
    <path class="st11" d="M236,236v1h29c.1-.2,0-.6,0-1-8.1,1.1-20.3,0-29,0Z"/>
    <rect class="st11" x="235" y="207" width="1" height="29"/>
    <path class="st11" d="M228.5,237c1.7,0,4.5.7,5.5-1h-29c7.2,1.7,15.9,1,23.5,1Z"/>
    <path class="st11" d="M475,206.1h58v-29c-7.8-.7-17,.8-24.6,0-1.4-.2-2.3-1.1-2.4-1.1-.9-.1-1.8-1-2-1h-1c-3.8-.3-27.4-.3-29,1.1.4,4.7,1.8,10.3,1,15,0,.6-1,1.5-1,2,.5,4.2-1.2,9.4,1,13Z"/>
    <path class="st11" d="M505,237c-.2-.3-.8-.5-1-1h-58c0,.4,0,.8,0,1h58c-.9,9.4,1.2,20.8,0,30,.3,0,.7,0,1,0v-30Z"/>
    <path class="st11" d="M504,168.6c0,1.3,1,2.2,1,2.4v-25c-.3.3-.8.6-1,1,.3,7.2-.2,14.4,0,21.6Z"/>
    <path class="st11" d="M775,178.4c0-1.2.4-1.8-1-2.4v60h1c0-17.5,1.8-41,0-57.6Z"/>
    <path class="st11" d="M505,173l-1,1c.5-.1,1-.5,1-1Z"/>
  </g>
  <g>
    <path class="st12" d="M505,629h-59v-31h-103c-6.3,0-12.9.7-19-1,0,.2,0,.6,0,1v1c-1.4,19.1,1,39.8,0,59h30v31h32l-1,30h61v-31c1.1-.4,2.2,1,2.5,1h26.5c.8-9.1-1-19.7,0-28.6.1-1.4,0-1.4,1-2.4,2.5-2.5,24-.2,29-1,1-1-1.5-21.8,1-25,0-.7.1-1.5,0-2l-1-1Z"/>
    <path class="st12" d="M293.5,536c-9.1-.3-18.4.2-27.5,0,0,.3-1,1.2-1,2h32c.5-3-1.6-2-3.5-2Z"/>
    <path class="st12" d="M417,929h27v-29h-26c-2.1,9.4-.5,19.4-1,29Z"/>
    <path class="st12" d="M683,417l-.5,1-.5-1c-9-.4-18,.3-27,0,.2.2-.3,1.4.2,1.8,1.4,1.2,23.9-.4,27.8.2v28c-4.9.8-24.5-1.5-27,1h28v-31h-1Z"/>
    <path class="st12" d="M300,538c2.1,0,3.8-1,4-1-1.7-1.9-4.8-1.7-4,1Z"/>
    <path class="st12" d="M474,540l2-.6c-.6-9.6,1.3-20.1-1-29.4.2,9.3-.2,18.7,0,28h-121c0,.4,0,.8,0,1l120,1Z"/>
    <path class="st12" d="M475,509v-2h-58v2c18.2,1.9,39.5-1.4,58,0Z"/>
  </g>
  <g>
    <path class="st1" d="M654,871v28h-87v-26c20.1-.5,40.4.7,60.5,0,2,0,4.1,1,3.5-2h-66v29h90v-1c-.6-9.1,1.3-19.2-1-28Z"/>
    <path class="st1" d="M321.5,873c2,0,4.1,1,3.5-2h-30v59c7-1.4,23.3,1.9,29,0v-30c-2.3,9.2-.4,19.5-1,29h-27v-56c8.4-.2,17,.3,25.5,0Z"/>
    <path class="st1" d="M445,900h-1v29h-27c.5-9.6-1.1-19.6,1-29h-2c-.3,10,.2,20,0,30,9.3.5,18.7-.3,28,0,2.3-9.3.4-20.2,1-30Z"/>
    <path class="st1" d="M595,539c-2.5,2.5-.2,23-1,28-90-.2-180,.3-270,0v1h31c59.9,0,120.4,1,180,1s40-1,60-1v-29Z"/>
    <path class="st1" d="M505,928.9h-29c-.6-9.1,1.3-19.2-1-28-.2,2.7-1,5.8-1,8.5.2,6.5,1.9,13.8,1,20.6h31v-59h-2l1,57.9Z"/>
    <polygon class="st1" points="504 871 504 871 504 870.9 504 871"/>
    <path class="st1" d="M462,873v-2h-16v29h29c-8.8-2.3-18.9-.4-28-1v-26h15Z"/>
    <path class="st1" d="M384,929h-26v-29c-9.2-.8-22.4-2.2-31.5-1-1.1,0-1.2,0-1.5,1,9.8-1,21.1.7,31,0v30c9.2-.8,20,1,29,0v-59h-1v58Z"/>
    <path class="st1" d="M205,236h30v-29c0-2.1-.2-9.1-.3-16l-.7,44h-28c-.2-8.9.3-17.8,0-26.6,0-1.9,1-4-2-3.4v1c0,10,.1,20.1,0,30h1Z"/>
    <path class="st1" d="M234.7,191l.3-15c-.4.7-.3,7.8-.3,15Z"/>
    <path class="st1" d="M805,146h-1v89h-28v-58.5c0-.3-1-1.6-1.2-2.3-18.8.4-38.5-1.1-57.3-.2-2.5,0-3.3-.7-1.5,2,6.6-.2,13.4,0,20,0l.5-1,.5,1c10.3,0,20.7-.3,31,0,.4-1.6,3.7-1.5,4,0,.6,0,1.6-.2,2,0,1.4.6.9,1.2,1,2.4,1.9,16.7,0,40.2,0,57.6h30c.3-30,0-60,0-90Z"/>
    <path class="st1" d="M713,206c-.4.5-1.3-1-1.5-1h-25.5v-59c-1.4.4-.9,1.3-1,2.4-1.8,14.4-.7,42.5,0,57.6,9.7,2.1,20.1.5,30,1v-31h-2v30Z"/>
    <path class="st1" d="M652.9,329v86.6c-.3,2,1.9,1.2,2.1,1.4l-1-89c-8.6-1.1-19.2.8-28,0,2.1,2.5,22.4.2,26.9,1Z"/>
    <path class="st1" d="M476,329h28v-2c-9.4,2.1-19.4.5-29,1-1,21.7,0,44,.3,66.1l.7-65.1Z"/>
    <path class="st1" d="M475.3,394.1l-.3,22.9c.3-7.6.3-15.2.3-22.9Z"/>
    <path class="st1" d="M295,176v-2c-18.5.5-37.1-.7-55.6,0-1.9,0-4-1-3.4,2,8.7-.9,20,0,29,0h30Z"/>
    <path class="st1" d="M537,267.9h57c.8,8.6-1.1,19.1,0,27.5,0,1.1,0,1.2,1,1.5v-30c-18.1,1.1-37.6-1.2-55.6,0-2,.2-2.1.6-3.4,1.1v27.9c2.3-8.8.4-18.9,1-28Z"/>
    <path class="st1" d="M715,118h60v-1h-61v29c1-.3.9-.4,1-1.4.5-4.1-.9-25.7,0-26.6Z"/>
    <path class="st1" d="M323,326.4c0,1.2,1.4.4,2,.6l-1-60c-4.4-.6-10.4,0-15,0l14,1v58.4Z"/>
    <path class="st1" d="M269,267c1,1.6,3.8,1,5.5,1,9,0,18,0,27,0s4.5.7,5.5-1c-12.4,0-25.8-.6-38,0Z"/>
    <path class="st1" d="M267,295.5c.5-3.9-.6-23-.2-27.6-2,9.3-.2,19.6-.8,29.1,1-.4.9-.5,1-1.5Z"/>
    <path class="st1" d="M266.8,267.9c0-.3.1-.6.2-.9,0,.1-.2.4-.2.9Z"/>
    <path class="st1" d="M506,632c-2.5,3.2,0,24-1,25-5,.8-26.5-1.5-29,1h30c-.6-8.4.8-17.7,0-26Z"/>
    <path class="st1" d="M505,629l1,1c-.2-.6-.2-1-1-1Z"/>
    <path class="st1" d="M204,417c1,.4.9.5,1,1.5,1.2,9.3-.9,20.9,0,30.5.8.3,1-1,1-1v-59c5.1-.8,26.5,1.5,29-1h-31v29Z"/>
    <path class="st1" d="M236,449v60h2c-3.1-8.1,1.3-56.7-2-60Z"/>
    <path class="st1" d="M205,327v31h31c-.4-1.4-1.3-.9-2.4-1-4.2-.6-26.6,1-27.6,0v-29c0,0-.2-1.3-1-1Z"/>
    <path class="st1" d="M537.4,450.1c12.8,1.5,40.9,1,54.2,0,1.5-.1,1.9-.4,2.6-.7-6.6,1.4-52.4-1.7-59.3-.3v-91h60c0,28.3-.2,56.7,0,85,0,1,.6.1,0,3-.2.8.2,2.6,0,2.9,0,0,0,0,0,0h-.1c.3,0,1.2.4,1.8,0v-90.7c-.7-.2-1.9-1.2-2.3-1.2h-59c0,0-1.5,1.4-1.5,1.5v90c0,1,2.5,1.4,3.5,1.5Z"/>
    <path class="st1" d="M594.2,449.4c.4,0,.6-.2.7-.3,0,0,0,0,0,0-.3.1-.5.2-.7.3Z"/>
    <path class="st1" d="M354,507c-.9,8.3-2,20.2-1,28.5.1,1-.4,2.4,1,2.5-1.2-8.8.9-19.9,0-29,10.3-.1,20.7,0,31,0v-60h-31v-31h0c-1.6.9-1,3.7-1,5.4,0,6.9-.8,16.6,0,23.1.1,1.1.4,3.5,1.5,3.5h29.5v57h-30Z"/>
    <path class="st1" d="M474,540c-12.8-.8-26.2-.7-39.7-.3l39.7.3Z"/>
    <path class="st1" d="M356.4,540c24.7,2.2,51.6.4,77.9-.3l-80.3-.7c.6,1.3,1.2.9,2.4,1Z"/>
    <path class="st1" d="M324,449h0c0,0-59,0-59,0v-54c0-4-.1-8,0-12v-25h59c.4,1-1,1.9-1,2,0,16.1,1,32.7,1,49s1.2,27.4,0,39c3,.5,2-1.6,2-3.5.4-9.5-.8-18.7-1-28-.4-17.3,1.9-39.7,0-56.1-.1-1.1-.4-3.5-1.5-3.5h-58c-.1,0-1.5,1.4-1.5,1.5v90c0,1,2.5,1.4,3.5,1.5,14.2,1.7,36.1.2,51.1,0,1.7,0,4.5.7,5.5-1Z"/>
    <path class="st1" d="M417,450.1h28.5c1,0,1.4-2.5,1.5-3.5.8-6.5,0-16.3,0-23.1s.7-4.5-1-5.5h0c1.3,9.5-.9,21.4,0,31.1h-30v60h1v-59Z"/>
  </g>
  <g>
    <path class="st6" d="M145,472v-.3c0,.1,0,.2,0,.3h0Z"/>
    <path class="st6" d="M145,471.7c.3-.5,1-1.5,1-3.1.7-21.7-.2-43.5-.2-65.3l-.8,68.4Z"/>
    <path class="st6" d="M145.8,403.3l.2-15.3c-.1,5.1-.2,10.2-.2,15.3Z"/>
    <path class="st6" d="M146,478l-1-2c.1,1-.3,1.7,1,2Z"/>
    <path class="st6" d="M805,145v1c0,30,.3,60,0,90h1l1.1-1v-89.4c-.2-1.2-1.7-.4-2.1-.6Z"/>
    <path class="st6" d="M764.6,506.9c-10-.4-27.2,1.7-36,0-2.1-.4-5.1-3.7-8.1-3.9-2.6-4.5,1.4-7.3,2.1-10,.3-1.3-.8-3.1-.2-4,2-2.9,7.9.7,4.6-7,3,1.1,8.5,1.4,9-3h.1c0-.1-50-.1-50-.1v28h29v2h53c.5-3-1.6-2-3.5-2Z"/>
    <path class="st6" d="M324,117v-2h-28c-1-1,1.5-16.4-1-19,0,6.6-.3,13.5,0,20,9.6.5,19.6-1.1,29,1Z"/>
    <path class="st6" d="M204,509h30v-30h-30c1.1,3.5,0,24.4,0,30Z"/>
    <path class="st6" d="M805,116v-1h-30v1c10.2,1.3,19.8,0,30,0Z"/>
    <path class="st6" d="M567,900v2h116.4l.6-2h-117Z"/>
    <path class="st6" d="M385,930c.2,0,.7-.8,1-1v-150h-1v151Z"/>
    <path class="st6" d="M712,809c-8.7,1.8-17.9.8-27,1-.3.3-1,.7-1,1h31v-2h-3Z"/>
    <path class="st6" d="M620.5,570c2,0,4.1,1,3.5-2h-29c-20,0-40.2,1-60,1,1.3,7.4-2,22.6,1,29l15-1c-.1,0-.4-.8-2.4-1-3.6-.5-7.9.3-11.6,0v-26c27.7-.7,55.7.9,83.5,0Z"/>
    <path class="st6" d="M742,479h-3c1,6.1,2.8.2,3,0Z"/>
    <path class="st6" d="M232,297c-1.1-1.6-3.8-1-5.5-1-5.6-.1-15.8-.9-20.5,1,8.5-.5,17.6.6,26,0Z"/>
    <path class="st6" d="M800,236h-23l-2,1v1h28c0-.1,1.3-.2,1-1l-4-1Z"/>
    <path class="st6" d="M324,176h-29v1h28v30c2.3-9.9.4-20.9,1-31Z"/>
    <path class="st6" d="M384,207.1h0c0,0,0,0-.2,0h.2Z"/>
    <path class="st6" d="M354,208.1c9.2-.3,18.4.3,27.6,0,1.1,0,1.9-.8,2.2-1h-29.8v1Z"/>
    <path class="st6" d="M318,207h2l-1.5-1-.5,1Z"/>
    <path class="st6" d="M745,296c.4,1,.5.9,1.5,1,7.8-1.1,19.4,1.5,26.5,0-8.8-2.3-18.9-.4-28-1Z"/>
    <path class="st6" d="M385,177c-1.9,5.9,1.4,22.8,0,30h1c-.6-9.8,1.3-20.4-1-30Z"/>
    <path class="st6" d="M623,174h-26v1h26v-1Z"/>
    <path class="st6" d="M295,206v1h9c-.9-1.6-7.2-2-9-1Z"/>
  </g>
  <g>
    <path class="st3" d="M775,388.9c-28.2-.2-59.7,1.8-87.5,0-1.2,0-2,.4-2.5-1-.3-.7,0-2.9,0-4l-2,3,.2-28.8c.7-.2,1.9-1.2,2.3-1.2h27.5c.2-8.8-.3-17.7,0-26.5,0-2-1-4.1,2-3.5v-1l58-1v-26h-28c-1.9-10.5-1-21.7-1-32.5s0-9.1,0-13.9c0-4.9,0-9.8,0-14.6-6.8.2-13.7,0-20.5,0-1.7.1-10.5,2.2-10.5-1.4v-28.5h-28v-2c-.7-15.2-1.8-43.3,0-57.6,0-1.1-.5-1.9,1-2.4,5.6-1.8,22.4,1.8,28,0v-29h61v-29c-27.7-.7-55.7.9-83.5,0-2,0-4.1,1-3.5-2h-.2c0,.1-3,.1-3,.1-.3,0-.7.9-1,1v1h1l1-1c-.6,9.5,1.3,19.8-1,29,0,0-.8.8-1,1-3.2,2.7-21.7,0-27,1v57.5c0,1.3-10.3,2.4-12.5,2.5-7.4.5-14.2-1.1-21-1.1-16.7,0-36.2,2.3-52.1,1.1-2.3-.1-7.5-.5-7.5-3.5v-25.5l-58-1v26h29c1.6,8.4,1,17.8,1,26.5s.7,4.5-1,5.5c0,.3-.9.7-1,1s.3,1.3,0,2h-86.9v26l57,1c.2.5.8.7,1,1,1.2,1.5,1,1.7,1.1,3.4.5,6.4.6,17.7,0,24.1-.1,1.2.4,1.7-1,2.4-.3.1-.7,0-1,0-.1.7.5,2.1-.6,2l-56.4-1c-1,1.5.8,23,0,27.5-.2,1.1,0,1.1-1,1.5-.4.2-1.4,0-2,0l1.5,2h-59.5c-.4-.2,1-1.7,1-2-.2-2.8-1-5.4-1-9-2.4,1.6-.2,7.2-1,9h-1v-28h-28.4c-1.2-.2-.4-1.6-.6-2-.2-.4-1-.7-1-1v-59h30c.5-10.9-1.1-22.3,1-33h29v-26c-28.4-.7-57,.9-85.5,0-2,0-4.1,1-3.5-2h-1c-2.6-3.5,0-26.9-1-28h-28v-2c-.3-6.5,0-13.4,0-20v-8h-89v28h-2c0,.3,0,.8,0,1-.4.9-.3.8-1.4,1-4,.6-24.7-.9-25.6,0v89c8.8-.6,18.4,1.2,27-1v-60h31v-28.5c0,0,1.4-1.5,1.5-1.5h28.5v30h30v30h29c-.6,10.1,1.3,21.1-1,31h-5c-4.6.2-9.4,0-14,0,.9,1.7,0,1.8-1.5,2-10.8,1.4-24.4-1-35.5,0-.9,1,.6,21.7,0,25.6q-.1,1-1,1.4c-.2.1-.6,0-1,0,0,.4,0,.8,0,1-.5,1-.4.8-1.5,1-4,.6-25.6-.9-26.5,0l-1,58c-.1.4,0,.9-.6.9-1.1.2-2.3,0-3.4,0-8.4.6-17.5-.5-26,0-.7.3-1.3.7-2,1v62c3-.5,2,1.6,2,3.5.2,5.8.2,12.3,0,18.1-.1,2,1,4.1-2,3.5v3h31c1.1-1,.9-1,1.1-2.4.4-3.1.5-26,0-27.6h-31v-31c.8-.3,1,1,1,1,8.6,1.4,20.9-1.1,30,0v-31c7.2-1.4,24.1,1.9,30,0,.6-9.8-1.3-20.4,1-30h2c12.2-.6,25.6,0,38,0h2c4.6,0,10.6-.6,15,0,.7.1,2.1-.5,2,.6v58.4c7.8.2,15.7-.3,23.5,0,2,.1,4.1-1,3.5,2,.4,0,.8,0,1,0,4,1.9-1,77.8,1,88,28.6,2,60.5-2.5,88.6,0,1.2.1,1.7-.4,2.4,1h29c1.1-29.4-1.4-59.8,0-89v-2h28v-30h31v-27.4c.2-1.2,1.5-.4,2-.6,1.3-.6,1.4-1,3.4-1.1,18-1.3,37.5,1,55.6,0v30c4.7,1.5,28.5-1.9,30.6,1,.9,1.2-2.7,26.5.4,30,8.8.8,19.4-1.1,28,0,.7,0,2.1-.5,2,.6v87.4c1.1,1,24.5-1.6,28,1v31h-28c-2.5,2.5-.2,23.9-1,29h-29v29.5c0,.3-1.4,1.4-1,2.5h30v26.5c0,.3,1.4,1.4,1,2.5-7.8,1-58.2-1.8-61,1v29h2l86-1v-28.5c0-.3,1.3-1.5,1-2.5h29v-27h-9c-3.5,1.5-16.6,1.9-19,0-.3-.3-.9-.5-1-1-1.6-1-1-3.8-1-5.5,0-6.5-.5-14.8,0-21.1.2-1.7-.1-1.9,1.1-3.4.3-.4.5-.9,1-1l59-1v-26h-28.5c-.3,0-1.5-1.3-2.5-1v-32l62-1v-26.9c5.6,0,26.6-1.1,30,0v-1h-30v.9Z"/>
    <polygon class="st3" points="836 689 895 690 893.5 689 836 689"/>
    <rect class="st3" x="865" y="569" width="30" height="1"/>
    <path class="st3" d="M865,658h30v-1h-30v1Z"/>
    <path class="st3" d="M266,509h-28.9c0,8.4-.3,16.9,0,25.4,0,1.8,2.4,2.9-1.1,2.6v1h29c0-.8,1-1.7,1-2,1.2-8-.9-18.7,0-27Z"/>
    <path class="st3" d="M714,781.1c-10.3-1.8-85.8,2.8-88-1,0-.2,0-.6,0-1-2.7,1.8-1.9,1-2-1.5-.3-7-1-20.8,0-27.1.2-1.2.2-1,1-1.5.2,0,.6,0,1,0,8.8-2.3,18.9-.4,28-1v-28.5c0-.3,1.3-1.5,1-2.5h28v-27c-11.2-1.7-82.5,2.6-87-1-.3-.3-1-.5-1-1-1.7-7.5-1-16.6-1-24.5s-.7-4.5,1-5.5h1c.4-1,.5-.9,1.5-1,8-1.1,18.2.8,26.5,0v-58c-10.1-2-86.1,3-88-1-3-6.4.3-21.6-1-29v.2c-59.7,0-120.2-1-180.1-1v30h91v31h59c.8,0,.8.4,1,1,.1.5,0,1.3,0,2,.8,8.3-.6,17.6,0,26h-30c-1,1-.8,1-1,2.4-1,8.9.8,19.5,0,28.6h-26.5c-.3,0-1.4-1.4-2.5-1v31h-61l1-30h-32c0,1-.7,1-1.5,1-7.1.9-17.2-1.2-24,0-.8.2-2.5.8-2.5,1.5v56.5c9.8.6,20.4-1.3,30,1v1c3-.5,2,1.6,2,3.5.3,8.8-.2,17.7-.2,26.4-.7.2-1.9,1.2-2.3,1.2h-29.5v25.5c0,3,11.1.4,13.5.4,5.4,0,11.5,1.9,17.3,1.2,2.4,1.4.5,26.7,1.2,31.2,0,1.2-1.8.4-2,.6-.3.3-.7,1-1,1-8.2,2.7-20.1,0-29,1-.2,8.1.3,16.3,0,24.5,0,2.5.7,3.3-2,1.5v3h60c.1-36.4-2.4-77.8,0-113.6.2-1.9,1-2.7,1.1-3.4,0-1.2-.4-3.1,0-4.4l.9-.6c7.2-1.7,15.9-1,23.5-1s4.5-.7,5.5,1c.5,0,.7.7,1,1,2.7,3.4,0,22.5,1,28h27c.8-5-1.5-25.5,1-28s13.1-.3,17-1l1,122c13.4,0,27.7-.7,41,0h2v58h28v-87h-28.5c-1,0-1.4-2.5-1.5-3.5-.8-6.5,0-16.2,0-23.1s-.7-4.5,1-5.5h1c6-.6,13.7,0,20,0-5.2-2-11.9-.8-17.5-1-1.2,0-3.7.8-3.5-1h62c0-5.1,1-23.8,0-27-7.3-1-59.6,1.7-61-1,0-.2,0-.6,0-1,0-.9,0-2,0-3,0,0-1.9,3-1.8,3v-29.8c.7-.2,1.9-1.2,2.3-1.2h27.5c.8-8.7-1.6-20,1-28,0-.3.7-.7,1-1,.2-.2-.6-1.8.6-2l59.2.2c.2.7,1.2,1.9,1.2,2.3v118.5c7-1.8,12.9-.4,19.5,0,2.5.2,5.5-2.1,8.4.2.5.5.2,1.3.2,1.8v1c2.7-1.8,1.9-1,2,1.5.5,9.5-.3,19,0,28.5h27c2.3,8.8.4,18.9,1,28h27.9v-85.6c-.4-1.1,1-2,1.1-2.4,0-.3.7-.7,1-1,.2-.2-.6-1.8.6-2,8.6.7,18.1-1.3,26.4,1h1c2.2-8.9.4-18.8,1-28Z"/>
    <path class="st3" d="M625,863v8h1c-.3-2.5,1-6.3-1-8Z"/>
    <path class="st3" d="M567,810v-1l-39,1h39Z"/>
    <path class="st3" d="M625,848v5c1.6-.7,1.6-4.3,0-5Z"/>
    <path class="st3" d="M626,778c-.3-4.5,0-9.4,0-14-1.7,3.3-1.7,10.4,0,14Z"/>
    <path class="st3" d="M626,755c-1.6.7-1.6,4.3,0,5,0-1.7,0-3.4,0-5Z"/>
    <path class="st3" d="M778.4,416c-1.3,0-2.3,1-2.4,1,9.6-.3,19.4.2,29,0v-1c-8.8.3-17.8-.2-26.6,0Z"/>
    <path class="st3" d="M865,597h3c8.6-.2,17.4.2,26,0,0,0,.8-.4,1-1h-30v1Z"/>
    <path class="st3" d="M837,630v27h27v-26h-23.5c-.5,0-2.1-1.6-3.5-1Z"/>
    <path class="st3" d="M776,125.6c0,1.3-1,2.3-1,2.4-.4,5.9.3,12.1,0,18h30v-1c-1.6-.8-1.7-8.2,0-10v-17h-29c-.2,2.5.2,5.1,0,7.6Z"/>
    <path class="st3" d="M325,842.5l-1-.5v1s1,.2,1-.5Z"/>
    <path class="st3" d="M386,272v-5c-.2-.1-.6,0-1,0,.1,1.6-.6,4.1,1,5Z"/>
    <path class="st3" d="M864,596v-26h-58v57h27v-29.4c.2-1.2,1.5-.4,2-.6,7.3-2.9,20.7,0,29-1Z"/>
    <path class="st3" d="M297,567h26v-28h-26v28Z"/>
    <path class="st3" d="M201.6,389c-7.4-1.1-17,.8-24.6,0v27h27v-23.9c-1.2-1.2-.2-2.8-2.4-3.1Z"/>
    <path class="st3" d="M236,449c-1-1-1-.9-2.4-1-5.4-.6-22.6-.8-27.6,0,0,0-.2,1.3-1,1-.9-9.5,1.2-21.2,0-30.5,0-1.1,0-1.2-1-1.5,0,8.9-1.3,24.1,0,32,0,0,1.3.2,1,1h-28v26l58,1h1v-28Z"/>
    <path class="st3" d="M655,117v3l1-3h-1Z"/>
    <path class="st3" d="M440,297h-48c16,0,32.1.4,48,0Z"/>
    <path class="st3" d="M682,417l.5,1,.5-1h-1Z"/>
  </g>
  <g>
    <path class="st5" d="M835,689v29c9.5.2,20.2.5,30,1h2v29h28v-58l-59-1h-1Z"/>
    <path class="st5" d="M685,629h0v-29.1c-.6,1.3-1,1.4-1.1,3.4-.5,6-.7,18.5,0,24.2,0,1.1,0,1.2,1,1.5Z"/>
    <path class="st5" d="M175,376c1.7-1.6,1.7-6.5,0-8v8Z"/>
    <path class="st5" d="M175,320v7c1.6-1.3,1.6-5.7,0-7Z"/>
    <polygon class="st5" points="175 362 175 364 176 362.5 175 362"/>
    <polygon class="st5" points="175 295 175 296 176 295.5 175 295"/>
    <path class="st5" d="M445,750v29h17v-30c-3.9.7-14.6-1.4-17,1Z"/>
    <path class="st5" d="M685,749.9c1.6,1,1,3.8,1,5.5,0,6.3.2,12.8,0,19.1,0,2,1,4.1-2,3.5v2c10.2,0,21.1.8,31-1v-1c-1.6-1-1-3.8-1-5.5,0-6-.4-13,0-19,0-1.4-.6-2.7,1-3.5v-1h0c-8.9.8-19.8-1.2-28.5,0-.8,0-1.5,0-1.5,1Z"/>
    <path class="st5" d="M235,267h0c-8.6,1.1-22-1.8-30-.1-.5.1-.7.6-1,1v30c.7-.3,1.3-.7,2-1,4.6-1.9,14.9-1,20.5-1s4.5-.7,5.5,1c1.1,0,2.3.3,3.4,0,.6,0,.5-.5.6-.9,1.1-3.4,0-23.5,0-29h-1Z"/>
    <path class="st5" d="M895,570h-30v26h30v-26Z"/>
    <path class="st5" d="M776,238v27c9.6-.5,19.6,1.1,29-1,0-1,0-2,0-3-3,.5-2-1.6-2-3.5-.2-5.1-.8-14.9,0-19.5h-27Z"/>
    <path class="st5" d="M805,87c-.3,0-.7-1-1-1h-29v29h30v-28Z"/>
    <path class="st5" d="M324,88c-.2-.9-.2-1.4-1-2h-28v10c2.5,2.6,0,18,1,19h27c.6-8.8-1.3-18.5,1-27Z"/>
    <rect class="st5" x="565" y="900" width="2" height="2"/>
    <path class="st5" d="M684,811v89l-.6,2h-116.4v27h146c1.2-7.1-1.7-55.6.2-57.8.5-.5,1.6,0,1.8-.2s-.3-1.4.2-1.8c1.4-1.2,24.8.5,28.8-.2v-58h-60Z"/>
    <path class="st5" d="M354,145.1c-1.7-4.6-1.7-12.3,0-17v-7c-1.2-1.2-.2-2.8-2.4-3.1-6.3-.9-15.3.3-22.1,0-2,0-4,1-3.5-1.9h-2v30h1c9.1.9,19.8,0,29,0v-1Z"/>
    <path class="st5" d="M326,116s0,0,0,0h0Z"/>
    <path class="st5" d="M684,117l1-1c1.6-7.3-1.2-20,0-28h-1v28h-28c-.4,0-.7,1-1,1h1c8.8-.9,19,.7,28,0Z"/>
    <path class="st5" d="M440.5,873c-7.8.3-15.7-.2-23.5,0-.3,7.8.3,15.8,0,23.6,0,1.3-1,2.3-1,2.4v1h30v-29h-2c.5,3-1.6,2-3.5,2Z"/>
    <path class="st5" d="M567,781c1,3.2,0,21.9,0,27v2h1c-.5-3,1.6-2,3.5-2,8.1-.3,16.3.2,24.5,0v-59h-.1c0,0-2,0-2,0,.5,3-1.6,2-3.5,2-7.5.2-15-.2-22.5,0,2.2,8.8.4,18.8,1,28h-2c-15.9.8-32.1-.6-48,0,.2,0,1.6,1.1,3.4,1.1,14.4.2,28.8,0,43.2,0,1.1,0,1.2,0,1.5,1Z"/>
    <path class="st5" d="M595,809l-1,1h1v-1Z"/>
    <path class="st5" d="M325,900h-1v30c1-.4.9-.5,1-1.5.9-6.9-1.6-23.5,0-28.5Z"/>
    <path class="st5" d="M444,781c-8.8-.6-18.2.5-27,0v27h27v-27Z"/>
    <path class="st5" d="M416,750c-.3-.3-.5-.9-1-1h0c-2.1-.4-27.6-.5-29,0l-.9.6c-.4,1.3.2,3.1,0,4.4v25h2c1-1.6,3.8-1,5.5-1,7.8,0,15.7-.2,23.5,0v-28Z"/>
    <path class="st5" d="M775,811v2c3.5-.4,1.3,1.1,1.3,2.8-.5,8,1,15.1-.3,23.2h27v-28c-8.8.8-19.4-1.1-28,0Z"/>
    <path class="st5" d="M683,660h-25c-.2,7.8.3,15.7,0,23.5,0,2,1,4.1-2,3.5v2c8.9,0,18,.2,26.8-.3.4-.5.2-1.2.2-1.7,1.1-8.3-.8-18.5,0-27Z"/>
    <path class="st5" d="M548.6,596c2,.2,2.3,1,2.4,1,24.7,2.5,50.1.3,75,1v31h1c-.5-3,1.6-2,3.5-2,7.8-.3,15.7.2,23.5,0v-28c-5.4-1-23.7,1.7-27-1-.3-.3-.9-.5-1-1-1.6-7.5,1.2-19.9,0-28v-1h-2c.5,3-1.6,2-3.5,2-27.7.9-55.7-.7-83.5,0v26c3.7.4,8-.4,11.6,0Z"/>
    <path class="st5" d="M625,658c.4,0,.8,0,1,0,1-7.8,0-19.6,0-28-1.6,1-1,3.8-1,5.5,0,7-.7,15.8,0,22.5Z"/>
    <path class="st5" d="M775,266h-30c0,5.7-1.1,26.5,0,30,9.1.6,19.2-1.3,28,1,.6-.1,1.4,0,2,0v-31Z"/>
    <path class="st5" d="M775,389v28h1c.1,0,1.1-1,2.4-1,8.9-.3,17.8.2,26.6,0,.7-7.1.5-19.7,0-27-3.4-1.1-24.4,0-30,0Z"/>
    <path class="st5" d="M204,206c-8.6,2.2-18.2.4-27,1v28c1.1,1,22.7-1.5,26,1h1c.1-9.9,0-20,0-30Z"/>
    <path class="st5" d="M895,630.5c0-1.1,0-1.2-1-1.5-3.4-1.1-23.5,0-29,0v28h30c.4-6.7.8-20.1,0-26.5Z"/>
    <path class="st5" d="M805,145c.5.2,1.9-.6,2,.6v89.4h26v-118c-8.8,1.8-18.8,1-28,1v27Z"/>
    <path class="st5" d="M415,236c1-1-1.5-24.4,1-28-.2-.3-.7-.8-1-1-9.6.2-19.4-.2-29,0h0c0-.1-2-.1-2-.1,0,.1-1.1,1.1-2.4,1.1-9.2.3-18.4-.2-27.6,0-.9,8.6,0,20,0,29h1c19.7-2.3,40.1-.4,60-1Z"/>
    <path class="st5" d="M295,206c1.8-1,8.1-.6,9,1,4.6,0,9.4.2,14,0l.5-1,1.5,1h3v-30h-28v29Z"/>
    <path class="st5" d="M835,751h-29v27c9.6.3,19.4-.5,29,0-.6-8.7.8-18.5,0-27Z"/>
    <rect class="st5" x="836" y="781" width="27" height="27"/>
    <path class="st5" d="M506,780c2.8,1.1,7.4-1,9-1h-9c0,.4,0,.8,0,1Z"/>
    <path class="st5" d="M236,176h-1c-.7,1.4,0,26.7,0,31h2c-.6-3,1.5-2,3.4-2,7.5-.3,15.1.2,22.6,0,.2-8.2-.3-16.4,0-24.6.1-1.9-1-4,2-3.4v-1c-9,0-20.3-.9-29,0Z"/>
    <rect class="st5" x="597" y="148" width="26" height="26"/>
    <polygon class="st5" points="265 207 265 206 264 207 265 207"/>
    <path class="st5" d="M395.1,480.5c-.3-1.2-4,.7-3.1-2.5-1.5,0-3.7-.2-5,0,0,0-.2,1.3-1,1v-30h-.9v60c3.2,0,6.9.3,10,0-1.4-7.7,1.7-21.7,0-28.5Z"/>
  </g>
  <g>
    <path class="st9" d="M357,118h295v-2c-12,.3-24,0-36,0-.3,1.5-3.6,1.6-4,0h-46c0,1.5-2.9,1.5-3,0h-34l-.5,1-.5-1h-10c-.3,1.5-3.6,1.6-4,0h-5c-.7,1.6-4.3,1.6-5,0h-16c-1.5,1.7-6.4,1.7-8,0h-3l-.5,1-.5-1h-4c-1.5,1.7-6.4,1.7-8,0h-26c0,1.5-2.9,1.5-3,0h-30l-.5,1-1.5-1h-20c0,1.5-2.9,1.5-3,0h-3l-.5,1-.5-1h-19c0,.6.2,1.5,0,2Z"/>
    <path class="st9" d="M836,231.6c.8-38.5-.6-77.1,0-115.6h-2c1,31.7.2,64,0,95.5v24.5h1c0-.7,1-2.5,1-4.4Z"/>
    <path class="st9" d="M203,386h-28v1l1,1h28v-92h-1c-.2,30,.2,60,0,90Z"/>
    <path class="st9" d="M293,566c0,.6,0,1.3,0,2h2v-30h-59.1v1h2c7.1,0,52.7-1.3,55.1.4,2.4,1.7.6,22.8,0,26.6Z"/>
    <path class="st9" d="M805,569c-.9,0-1.8,1-2,1v59h1l1-2v-3c-1.8-6.9-1-15.3-1-22.5s-.7-4.5,1-5.5v-4c-1.6-.7-1.6-4.3,0-5v-4c-1.7-2.7-1.7-9.1,0-12v-2Z"/>
    <path class="st9" d="M204,116c.2-.9,0-2,0-3v-1c.2-7.6,0-15.4,0-23v-3h-2.1l-1.4,2c.8,0,2.3-.4,2.5.6,1.4,7.1-1.1,18.7,0,26.4h-27c8.4,1.5,19.1,1.4,28,1Z"/>
    <path class="st9" d="M293,872c.5,18.1-.7,36.4,0,54.5,0,1.2-.8,3.7,1,3.5v-59h-1v1Z"/>
    <path class="st9" d="M174,476c0,.5-.8,1.4-1,2h2v-28h-1c-1.1,7.8.8,17.9,0,26Z"/>
    <path class="st9" d="M596,832c.5-6.9.3-15.3-1-22h-69c-6.3,0-14-.6-20,0v30c1,1,24.6-.6,29,0-8.8-2.3-18.9-.4-28-1v-28h87c.9,8.4-1.2,19.3,0,27.5.2,1.2,0,1.1,1,1.5.2-2.3-.2-4.8,0-7l1-1Z"/>
    <polygon class="st9" points="386 929 387 929 387 781 386 780 386 929"/>
    <path class="st9" d="M460,778.9v91c-13.2.9-27.5-1-40.6,0-2,.2-2.1.6-3.4,1.1h46v-1h0c0,0-1-91.1-1-91.1h-1Z"/>
    <path class="st9" d="M625,840c-9.1-.9-20.2,1.2-29,0,8.8,2.3,18.9.4,28,1v29l-58,1h59v-23c0-2.3,0-4.7,0-7v-1Z"/>
    <path class="st9" d="M492.9,931.3c-10.1-.1-17.9-.3-17.9-.3,4.7.7,11.6.5,17.9.3Z"/>
    <path class="st9" d="M536,878.5v-38.5c-.9,4.3-.5,20.8,0,38.5Z"/>
    <path class="st9" d="M536,878.5v48.6c1.1-7.6.5-28.9,0-48.6Z"/>
    <path class="st9" d="M535,930c-.4.2-1.4,0-2,0-.7,1.6-4.3,1.6-5,0h-3c-4.6,1.7-12.3,1.7-17,0h-1c-1,1.6-3.8,1-5.5,1-2.5,0-5.5.2-8.6.3,18,.3,43.1.6,43.1.6v-4.8c-.2,1.7-.6,2.7-1,2.9Z"/>
    <path class="st9" d="M564.9,871c-1.6,1-1,3.8-1,5.5,0,15.7-1.1,34.7,0,50.1.2,2,.6,2.1,1.1,3.4v-30h0v-29Z"/>
    <path class="st9" d="M444,931c-7-.7-17.3-.3-24.5,0-1.2,0-3.7-.7-3.5,1,8-1.3,21.8,1.7,29,0,0-.5-.5-1-1-1Z"/>
    <path class="st9" d="M295,931c.5,1,.4.8,1.5,1,2.6.4,25.9.5,27.5,0-9.2-2.3-19.5-.4-29-1Z"/>
    <path class="st9" d="M418.5,811c6.2.5,17.9.5,24.1,0,1.2,0,1.7.4,2.4-1h-28.9c.6,1.3,1.2.9,2.4,1Z"/>
    <path class="st9" d="M365.5,931c-1.7,0-4.5-.7-5.5,1,4.5.2,22,.9,25,0-5.8-1.8-13.3-1-19.5-1Z"/>
    <path class="st9" d="M656,687c0-8.7-.9-19.7,0-28-2.3,8.8-.4,18.9-1,28h-58v-27c8.4-.9,19.3,1.2,27.5,0,1.2-.2,1.1,0,1.5-1-.5,0-1-.5-1-1h-2c-3.9,1.7-11.3,1.7-15,0h-4c-1.3,1.7-5.7,1.7-7,0h-1c-1.9,5.9,1.5,22.8,0,30,1,1,20-1.5,23,1h3c6.9-1.8,15.3-1,22.5-1s4.5-.7,5.5,1h3l3-1v-1Z"/>
    <path class="st9" d="M685,688v31c-1,1.1-25.2-1.2-29,0,.3,8.8-.4,17.7,0,26.5,0,1.2-.8,3.7,1,3.5v-28l29-1-.7-44.2c-.1,4.2-.3,8.4-.3,12.2Z"/>
    <path class="st9" d="M685,659l.3,16.8c.2-5.9.2-11.8-.3-16.8Z"/>
    <path class="st9" d="M656.8,598.2c-.5-.5-1.7-.1-1.8-.2h0c-.9,9.5,1.2,21,0,30.1,3,.5,2-1.6,2-3.5.2-3.5.7-25.4-.2-26.4Z"/>
    <path class="st9" d="M653.5,630c1.2-.2,1.1,0,1.5-1h-29v1c0,8.4,1,20.2,0,28,.9-.5.8-.4,1-1.5.6-4-.9-25.6,0-26.5,8.1-.9,18.6,1.2,26.5,0Z"/>
    <path class="st9" d="M777.5,842c6.4.6,18.6.6,25.1,0,1.2,0,1.7.4,2.4-1h-29.9c.6,1.3,1.2.9,2.4,1Z"/>
    <path class="st9" d="M837.4,811c6.2.6,20.6.8,26.6,0v-1h-29c.7.2,1,.9,2.4,1Z"/>
    <path class="st9" d="M716,510v-1h-1c.5,9.3-.3,18.7,0,28,2.8-7.1,0-19.1,1-27Z"/>
    <path class="st9" d="M716,447v-28.1h88.9c.4-.6-.1-1.5,0-1.9h0c-9.6,0-19.4-.4-29-.1-.2,0-1.6,1.1-3.4,1.1-19.2.5-38.4-.4-57.6,0v30c8.8-.3,17.7.4,26.5,0,1.2,0,3.7.8,3.5-1h-29Z"/>
    <path class="st9" d="M236,238v-2h-2c-1.1,1.6-3.8,1-5.5,1-7.6,0-16.3.8-23.5-1h-2c-7.9,0-15.8-.3-23.6,0-1.9,0-4-1-3.4,2h58v28c-9.5.6-19.8-1.3-29,1,8-1.7,21.4,1.2,30,0,.6-9.5-1.3-19.8,1-29Z"/>
    <path class="st9" d="M265,236c.2-1.2,0-2.7,0-4,.3-8.3,0-16.7,0-25h-29v29c8.7,0,20.9,1.1,29,0ZM237,208h27v27h-27v-27Z"/>
    <path class="st9" d="M175,200c0,1.3-.3,3,0,4.4v-4.4Z"/>
    <path class="st9" d="M176,207v-1c-.6-.4-.9-1-1-1.6v29.6c.1-9.5.3-17.6,1-27Z"/>
    <path class="st9" d="M323,870c-.9.9-22-.6-26,0-.5,0-.9.5-1,1h28v-3c0-7.6-.8-17.8,0-25v-1h-1c-.3,9.3.2,18.7,0,28Z"/>
    <path class="st9" d="M803,85h-117c-.4,0-.8,1-1,1h119c-.2,0-.6-1-1-1Z"/>
    <path class="st9" d="M219.7,85h-13.7l-1,1h3c3.6-.5,7.6-.8,11.7-1Z"/>
    <path class="st9" d="M323,86c-.3-.2-.5-.9-1-1h-67.5c13.7.4,27.4,1,38.5,1h30Z"/>
    <path class="st9" d="M219.7,85h34.8c-12.1-.3-24.2-.5-34.8,0Z"/>
    <path class="st9" d="M806,567v1h59v-1h-59Z"/>
    <path class="st9" d="M174,390c-.8,4.8-.5,19.4,0,24.6.1,1.4.7,1.7,1,2.4v-28c-.3.3-1,.7-1,1Z"/>
    <path class="st9" d="M202.6,478c-7.5-1-18.6,0-26.6,0v1h28c-.3-1-.4-.9-1.4-1Z"/>
    <path class="st9" d="M684,87c-.8.3-1.9,1-2,1,2.3,8.5.4,18.2,1,27-.9.9-22.1-.8-26,0-.4,0-.8,1-1,1h28v-29Z"/>
    <path class="st9" d="M415,145h-59l-2-1v2h61v-1Z"/>
    <path class="st9" d="M626,174c-.6-8.8,1.3-18.5-1-27v28h30c.6-18.3-.8-36.8,0-55v-3c-.8.3-1.9,1-2,1l1,56h-28Z"/>
    <path class="st9" d="M323.9,749h0c0,0,0-.2,0-.2v.2Z"/>
    <path class="st9" d="M322.9,690c1.1,18.1-1.2,37.6,0,55.6.2,1.9.5,2.1,1,3.2v-58.8h-1Z"/>
    <path class="st9" d="M323.9,599h-1c-1.3,14.4-1,40.9,0,55.6.2,1.9.6,2.1,1,3.2,1-19.1-1.4-39.8,0-58.8Z"/>
    <path class="st9" d="M324,658c0,0,0-.1,0-.2,0,0,0,.1,0,.2h0Z"/>
    <path class="st9" d="M323,809h1v-28h-1c-.5,3.6-.7,25.1,0,28Z"/>
    <path class="st9" d="M356,265v-26.9h57.6c2,.3,1.2-1.9,1.4-2.1-19.9.6-40.3-1.3-60,1-.6,9.1,1.3,19.2-1,28v1c0,.3.8.6,1,1,9.4.9,20.9-1.2,30,0,0-.4.1-2,0-2-1.2-.9-25.1.7-29,0Z"/>
    <path class="st9" d="M416.8,235.8c.9-1,.5-25.6-.8-27.8-2.5,3.6,0,27-1,28,.2-.2,1.4.3,1.8-.2Z"/>
    <path class="st9" d="M447,267h57c1.2-9.2-.9-20.6,0-30h-58c1.2,2.6,50.2,0,57,1v28l-56,1Z"/>
    <path class="st9" d="M440,297c1.3,0,2.7,0,4,0,.6,0,1.6.2,2,0v-1c-2.1-8-.6-17.2-1-25.5,0-1.2.8-3.7-1-3.5v29h-57c-.9-8.4,1.2-19.4,0-27.5q0-1.1-1-1.5v5c0,5.3,0,10.7,0,16,.1,3.6.8,6.2,1,9h5c16,0,32.1.4,48,0Z"/>
    <path class="st9" d="M624,146c-3.3-1.3-26.7-1.7-27.8-.8-.5.4,0,1.6-.2,1.8,9.1-2.2,18.8-.3,28-1Z"/>
    <path class="st9" d="M596,147c-.2.2-1.4-.3-1.8.2-1.1,1.4.4,23-.2,26.8h-27v-28h-2.6c1.2.2.4,1.5.6,2,1.9,4.8,1,14.8,1,20.5s.7,4.5-1,5.5c.4,1,.5.9,1.5,1,8,1.1,19.9,0,28.5,0l1-2v-26Z"/>
    <path class="st9" d="M446,208c-2.7-1.8-1.9-1-2,1.5-.3,8.6.3,17.4,0,26,1.4,1.6,1-1.1,1-2,.2-5.9-1-12.9,1-18.5v-7Z"/>
    <path class="st9" d="M505,171c0-.2-1-1.1-1-2.4-.3-7.2.2-14.4,0-21.6-3,5.4.1,21.1-1,28h1v-1l1-1v-2Z"/>
    <path class="st9" d="M417,175c.4-1.3.4-26.2,0-28-1.8,6.9-1,15.3-1,22.5s-.7,4.5,1,5.5Z"/>
    <path class="st9" d="M506,779h13c15.9-.6,32.1.8,48,0v-1h-60v-27c8.3-.9,19,1.2,27,0v-1h-28c.3,8.6-.4,17.4,0,26,0,1,0,2.1,0,3Z"/>
    <path class="st9" d="M774,236v-60c-.4-.2-1.4,0-2,0-1.3-.1-2.7,0-4,0-10.3-.3-20.7,0-31,0h-1c-6.6,0-13.4-.2-20,0h-1v60h30c-7.3-2.9-20.7,0-29-1v-58h57v59h1Z"/>
    <path class="st9" d="M387,449h-1v30c.8.3,1-1,1-1v-1c-.3-9.3.5-18.7,0-28Z"/>
  </g>
  <g>
    <path class="st8" d="M715,811h29v58c-4,.6-27.4-1-28.8.2-.5.5,0,1.6-.2,1.8l30-1v-60h-30v1Z"/>
    <path class="st8" d="M713.2,871.2c-1.9,2.2,1,50.7-.2,57.8h-146v-27h-2v28c49.7-.2,99.3.2,149,0h1v-59c-.2.2-1.4-.3-1.8.2Z"/>
    <path class="st8" d="M204,116.1c-8.9.4-19.6.5-28-1h-1v5c1.2-1.2.2-2.8,2.4-3.1,8-1.1,18.4.9,26.6,0,.1-.2,0-.7,0-1h0Z"/>
    <path class="st8" d="M176,86l-1,3c.1-.4,1.6-1.7,1-3Z"/>
    <path class="st8" d="M177,235v-28h-1c-.7,9.4-1,17.5-1,27v4h1c-.6-3,1.5-2,3.4-2,7.9-.3,15.8,0,23.6,0-3.3-2.6-24.9,0-26-1Z"/>
    <path class="st8" d="M445,781h-1v27h-27v-27c8.8.5,18.2-.6,27,0v-2c-9.4,0-19-.8-28-1-7.8-.2-15.7,0-23.5,0s-4.5-.7-5.5,1h29c1.1,1.1-.6,25.4,0,30,0,.4,0,.8,0,1h29c.1-.2,0-.6,0-1,1.1-8.5-.8-19.2,0-28Z"/>
    <path class="st8" d="M805,810c-.2-.3-.7-.8-1-1-9.2,2.2-19.5.4-29,1v1c8.6-1.1,19.2.8,28,0v28h-27c1.3-8-.2-15.2.3-23.2.1-1.7,2.2-3.2-1.3-2.8-.3,7.5-.9,20,0,27v1h30v-1c1.2-9.1-.9-20.6,0-30Z"/>
    <path class="st8" d="M656,658v1c-.9,8.3,0,19.3,0,28,3,.5,2-1.6,2-3.5.3-7.8-.2-15.7,0-23.5h25c-.8,8.5,1.1,18.7,0,27l2,1c0-9,.9-20.4,0-29v-1h-29Z"/>
    <path class="st8" d="M630.5,627c-2,0-4.1-1-3.5,2h28v-1c1.2-9.1-.9-20.6,0-30-9.4,0-18.7.4-28-1v1c3.3,2.7,21.6,0,27,1v28c-7.8.2-15.7-.3-23.5,0Z"/>
    <path class="st8" d="M867,748v-29h-2c.5,9.9-1.1,20.3,1,30,8.2,0,19.7,1,27.5,0,.8,0,1.5,0,1.5-1h-28Z"/>
    <path class="st8" d="M833,117v118h-26l-1,1h28c0-8.1,0-16.3,0-24.5,0-31.5,1-63.8,0-95.5h-29v2c9.2,0,19.2.8,28-1Z"/>
    <path class="st8" d="M776,238h-1v28h29c0-.1.8-.9,1-2-9.4,2.1-19.4.5-29,1v-27Z"/>
    <path class="st8" d="M803,237.9c-.8,4.7-.2,14.5,0,19.6,0,2-1,4.1,2,3.5.5-8,0-16.9,0-25h0c0-.1-5-.1-5-.1l4,1c.3.8-1,.9-1,1Z"/>
    <path class="st8" d="M204,87c1.6.8,3.4-1,4-1h-4v1Z"/>
    <path class="st8" d="M329.5,117.9c6.8.3,15.8-.8,22.1,0,2.2.3,1.2,1.9,2.4,3.1v-5h0c0,0-28,0-28,0-.5,3,1.6,2,3.5,2Z"/>
    <path class="st8" d="M323,115h1c0-6.4,1.2-22.1,0-27-2.3,8.5-.4,18.2-1,27Z"/>
    <path class="st8" d="M835,778c-9.6-.5-19.4.3-29,0v-27h29c0-.5-.8-1.4-1-2h-29v30c10,.2,20.1-.8,30,1v30h29c.7-10,.9-20,1-30-10.1,1.3-20.4-1.5-30-2ZM863,808h-27v-27h27v27Z"/>
    <path class="st8" d="M304,537c-.2,0-1.9,1-4,1h-5v1h28v28h1v-29c-6.7.6-13.3-1-20-1Z"/>
    <polygon class="st8" points="204 89 205 88.5 204 88 204 89"/>
    <path class="st8" d="M204,113l1-.5-1-.5v1Z"/>
    <path class="st8" d="M354,145v-17c-1.7,4.7-1.7,12.4,0,17Z"/>
    <path class="st8" d="M571.5,808c-2,0-4.1-1-3.5,2h26l1-1c.3-.3.8-.5,1-1-8.1.2-16.3-.3-24.5,0Z"/>
    <path class="st8" d="M416,871v28c0-.1,1-1.1,1-2.4.3-7.8-.2-15.8,0-23.6,7.8-.2,15.7.3,23.5,0,2,0,4.1,1,3.5-2h-28Z"/>
    <path class="st8" d="M685,750.1c.9,9.3-.8,19-1,28,3,.5,2-1.6,2-3.5.2-6.3,0-12.8,0-19.1s.7-4.5-1-5.5h0Z"/>
    <path class="st8" d="M714,772.5c0,1.7-.7,4.5,1,5.5,0-8.7.9-19.6,0-28-1.5.8-1,2.1-1,3.5-.4,5.9,0,12.9,0,19Z"/>
    <path class="st8" d="M176,206c.1-1.8.6-5-1-6,0,1.9-.7,4.9,1,6Z"/>
    <polygon class="st8" points="175 189 175 190 176 189.5 175 189"/>
    <polygon class="st8" points="175 136 175 137 176 136.5 175 136"/>
    <path class="st8" d="M597,148h26v27h2v-28l-1-1c-9.2.7-18.9-1.2-28,1v28h1v-27Z"/>
    <path class="st8" d="M682,417h2c-3.5-2.6-27,0-28-1v-87.4c0-1.1-1.3-.6-2-.6l1,89c9,.3,18-.4,27,0Z"/>
    <path class="st8" d="M534,268.6v27.4h-31v30h-28v2c9.6-.5,19.6,1.1,29-1,.5-9.9-.4-20,0-30,9.7-.8,21,1.1,30.5,0,.9-.1,1.5,0,1.5-1v-28c-.5.2-1.8-.6-2,.6Z"/>
    <path class="st8" d="M349.5,326c-7.8-.3-15.7.2-23.5,0v-58.4c.1-1.1-1.3-.6-2-.6l1,60c8.5,2.7,19.4-.2,28,1,.5-3-1.6-2-3.5-2Z"/>
    <path class="st8" d="M354,328c.1,29.3,0,58.7,0,88h1c-2-10.2,3-86.1-1-88Z"/>
    <path class="st8" d="M265,236c.4,0,.8,0,1,0l-1-4c0,1.3.2,2.8,0,4Z"/>
    <polygon class="st8" points="775 86 773 86 775 87 775 86"/>
    <path class="st8" d="M704,86h-3c0,1.5,2.9,1.5,3,0Z"/>
    <polygon class="st8" points="295 86 293 86 295 87 295 86"/>
    <path class="st8" d="M568,751c7.5-.2,15,.2,22.5,0,2,0,4.1,1,3.5-2h-27v30h2c-.6-9.2,1.2-19.2-1-28Z"/>
    <polygon class="st8" points="775 237 777 236 775 236 775 237"/>
    <path class="st8" d="M775,118v10c0,0,.9-1.1,1-2.4.3-2.5-.2-5.1,0-7.6h-1Z"/>
    <path class="st8" d="M265,177c-3-.6-2,1.5-2,3.4-.3,8.2.2,16.4,0,24.6-7.5.2-15.1-.3-22.6,0-1.9,0-4-1-3.4,2h27l1-1v-29Z"/>
    <path class="st8" d="M395,480.5c1.8,6.8-1.3,20.9,0,28.5h1v-31h-4.1c-.9,3.1,2.8,1.2,3.1,2.5Z"/>
  </g>
  <g>
    <path class="st0" d="M805,538v30h1v-1l1-27h87v27h-29v2h30v-31h-90Z"/>
    <path class="st0" d="M714,930c-49.7.2-99.3-.2-149,0,0,.4-.3,1.3,0,1.9,48.9.2,98,0,146.9,0h2c-.2-.5,0-1.4,0-2Z"/>
    <path class="st0" d="M352,596c-8.1.9-18.6-1.2-26.5,0-1.2.2-1,.2-1.5,1,6.1,1.7,12.7,1,19,1,1.9-1.7,7.1-1.7,9,0h2v-30h-59v2h57v26Z"/>
    <path class="st0" d="M147,390h27c.1-.3.7-.7,1-1v-1h-28.9c-.8,26.8.8,53.8,0,80.6-.1,1.9-1.1,3.1-1.1,3.4,0,1.2,0,2.8,0,4l1,2c4.7,1.2,20.8,0,27,0,.2-.6,1-1.5,1-2h-27v-86Z"/>
    <path class="st0" d="M834,749h2c-8.1-2.9-19.4.5-27.5-1-.8-.2-2.5-.8-2.5-1.5v-24c0-.3,1.3-1.5,1-2.5h57v29h2c-2.1-9.7-.5-20.1-1-30-9.8-.5-20.5-.8-30-1h0c-10-.2-20,.2-30,0v31h-2v1c.6,4-1,27.4.2,28.8.5.5,1.6,0,1.8.2s-.3,1.4.2,1.8c1.4,1.2,23.9-.4,27.8.2v28.4c.3,1.2,1.6.4,2.1.6v-30c-9.9-1.8-20-.7-30-1v-30h29Z"/>
    <path class="st0" d="M204,509v29h32v-29h-32ZM234,536c-6.4,2.5-13.2.3-19.5,0-2.8-.2-5.4,1.7-8.5,0v-26h28v26Z"/>
    <path class="st0" d="M805,631h28v27h2v-29h-30v2Z"/>
    <path class="st0" d="M836,599h30v-2h-2c-.1,0-1.1,1-2.4,1-8.8.3-17.8-.2-26.6,0-1,9.3,0,21.3,0,31h30c2.9,0,9.9-.3,16.4-.4l-45.4-1.6v-28Z"/>
    <path class="st0" d="M881.4,628.6l12.6.4c-1.6-.5-6.9-.5-12.6-.4Z"/>
    <path class="st0" d="M834,115h-28v-27h16l-9-2h-2c-.2,0-1.3,1-3,1h-3v29h29v-1Z"/>
    <path class="st0" d="M715,936h-2c.6,7.8-.4,16.2,0,24l1,1c-.7-1.6.9-3.2,1-4,.2-1.2,0-2.7,0-4l-1-.5,1-.5c.2-5,.3-11,0-16Z"/>
    <path class="st0" d="M865,780c0,10-.3,20-1,30v1h1l1-1v-2c.7-8.8,0-19,0-28h-1Z"/>
    <path class="st0" d="M416,900v-29c-.4,0-1.3-.3-2,0v58.9h2c.2-10-.3-20,0-30Z"/>
    <path class="st0" d="M447,781.6c.1-1.1-1.3-.5-2-.6-.8,8.8,1.1,19.5,0,28,3,.5,2-1.6,2-3.5.3-7.9-.3-15.9,0-23.9Z"/>
    <path class="st0" d="M626,760v4c0,4.6-.3,9.5,0,14v1c0,.4,0,.8,0,1h58v-2c.2-9,1.9-18.7,1-28,0-1,.7-1,1.5-1,8.7-1.1,19.5.8,28.5,0-1-1.6-3.8-1-5.5-1-8.4,0-16.9,0-25.3.2-.2.7-1.2,1.9-1.2,2.3v27.5h-56v-27h29c.4-1.3-1-1.9-1-2h-21c-1.3,1.7-5.7,1.7-7,0h-1c-.4,0-.8,0-1,0-.4,2.1.8,4.2,1,6,0,1.6,0,3.3,0,5Z"/>
    <path class="st0" d="M744.8,808.2c-1.4-1.2-23.9.4-27.8-.2v-56.5c.5-1.7-1-2-2-1.5.9,8.4,0,19.3,0,28v32h30c-.2-.2.3-1.4-.2-1.8Z"/>
    <path class="st0" d="M626,597h1c9.3,1.4,18.6,1,28,1-.2-.2.3-1.4-.2-1.8-1.4-1.2-23.9.4-27.8-.2v-26c18.1-.5,36.4.7,54.5,0,2.5,0,3.3.7,1.5-2h-55l-2,1c1.2,8.1-1.6,20.5,0,28Z"/>
    <path class="st0" d="M686,540c5.8-1,25.8,2.2,29-2h-31v30h2v-28Z"/>
    <path class="st0" d="M745,870l-30,1v58c.5,0,1-.5,1-1,1.7-17.7-1.3-38,0-56,4-.6,27.4,1,28.8-.2.5-.5.1-1.7.2-1.8Z"/>
    <path class="st0" d="M775,808v2c9.5-.6,19.8,1.2,29-1-5.3-3-22,.2-29-1Z"/>
    <path class="st0" d="M806.1,813.4c-.2-2-.2-1.8-1.1-3.4-.9,9.4,1.2,20.9,0,30h0c1.6-1,1-3.8,1-5.5,0-6.6.5-14.7,0-21.1Z"/>
    <path class="st0" d="M679.5,657c-7.5,0-16.3-.8-23.5,1h29c-1-1.6-3.8-1-5.5-1Z"/>
    <path class="st0" d="M685,388h120c0-.7.5-2.1-.6-2h-118.4v-26h29c-.3-1,1-2.2,1-2.5v-29.5h60v-60h27c.5-.5,1-1.3,1-2h-29v60h-60v1c-1,9.8.7,21.1,0,31h-30c.3,8.6-.4,17.4,0,26,0,1.1-.3,3.3,0,4Z"/>
    <path class="st0" d="M805,416.9c.5-1.1.9-1.3,1-3.2.4-5.5.7-17,0-22.2,0-1.2.5-2-1-2.5.5,7.3.7,19.9,0,27v.9Z"/>
    <path class="st0" d="M805,417h0s0,0,0,0h0Z"/>
    <path class="st0" d="M204,296h.1v-28c-.8,1-.9.9-1.1,2.4-.9,7.4,0,17.8,0,25.6h1Z"/>
    <rect class="st0" x="175" y="477" width="1" height="1"/>
    <path class="st0" d="M204,417c-3.8-1.2-27.9,1.1-29,0,.2.5-.6,1.8.6,2h27.4v28c-7.5,1.3-20.5-1.6-27.3,0-.7,0-1.7,2.4-1.7,3h1c9-2.3,19.5-.4,29-1-1.3-7.9,0-23.1,0-32Z"/>
    <path class="st0" d="M537,721h57v27h-26.5c-.4,0-1.5,1.2-2.5,1,2.1,9.4.5,19.4,1,29h1v-29h29v-30h-60c-.3.3-1,.7-1,1-.9,9,1.6,20.6-1,29v2c.6-.1,1.5,0,2-.4,2.4-2,.3-24.9,1-29.6Z"/>
    <path class="st0" d="M868,597v2c6.8,0,20.3,1.2,26,0v-2c-8.6.2-17.4-.2-26,0Z"/>
    <path class="st0" d="M356,750v-1h-32c.2.5-.6,1.8.6,2h29.4v27c-8,1.4-22.1-1.7-29.3,0-.7,0-1.7,2.4-1.7,3h1c3.7-2.6,30.9,0,32-1-.7-9.6,1-20.5,0-30Z"/>
    <path class="st0" d="M324,690c9.3-1.8,20.2-1,30-1v-31h-30c.2.5-.6,1.8.6,2h27.4v27c-4.7.8-26.6-1.3-28.6,1-.4.5-.4,1.3-.4,2h1Z"/>
    <path class="st0" d="M324,809h-.9c.5,1.9,1.8,1.8,3.5,2,8.3,1.1,18.9-.8,27.5,0v26.5c0,1-2.5,1.4-3.5,1.5-4.2.5-26.6-.9-27.6,0v3h1c9.7-2.3,20.9-.4,31-1,.3,0,.7-.7,1-1v-30c-1.1-1.1-28.3,1.6-32-1Z"/>
    <path class="st0" d="M324,598c-.5,0-1,.5-1,1h1v-1Z"/>
    <path class="st0" d="M386,207c9.6-.2,19.4.2,29,0-5.1-3.8-21.6-2.1-28-1v-29c8.1-.7,17.5.9,25.5,0,1.5-.1,4-.4,4.5-2-1.6-1.1-1-3.8-1-5.5,0-7.2-.8-15.6,1-22.5h.1c-.2-1-1-1.7-2-2v31c-1.1,1-24.3-.6-28.6,0-1.1,0-1.2,0-1.5,1,2.3,9.6.4,20.2,1,30Z"/>
    <path class="st0" d="M474.1,193c-.1,0-.9.9-1.1,2.4-.3,1.8.4,9.2,0,9.6h-27v2h29v-1h.1c-2.2-3.6-.5-8.8-1-13Z"/>
    <path class="st0" d="M473,187.5c.1,2-1,4.1,2,3.5.8-4.7-.6-10.3-1-15-1.7,1.5-1.1,8.7-1,11.5Z"/>
    <path class="st0" d="M475,510v-1c-18.5-1.4-39.8,1.9-58,0h-1c.1.2-.6,2.4,1.4,2h55.6v26h-117v-26c12.8-.1,25.7.4,38.4-1.1.8,0,1.2-.8,1.6-.9h-1c-3.1.3-6.8,0-10,0-10.3,0-20.7,0-31,0,.9,9.1-1.2,20.2,0,29h121c-.2-9.3.2-18.7,0-28Z"/>
    <path class="st0" d="M295,176h-30v31h30v-31ZM294,205h-25.5c-.2,0-2.5,1.7-2.5-.5v-27.5h28v28Z"/>
    <path class="st0" d="M324,409c0-16.3-1-32.9-1-49h-1v60c0-.1.9-1.1,1-2.4.3-2.8-1-6.7,1-8.6Z"/>
    <path class="st0" d="M266,418.6c.1,1.3,1,2.3,1,2.4v-60c-2,.7-.8,11.7-1,14.6,0,1.3-1,2.3-1,2.4v5c1.7,2.9,1.7,9.3,0,12v3c1.5,0,1.5,2.9,0,3v7c2.1,2.6.7,7.2,1,10.6Z"/>
    <path class="st0" d="M267,432c0-2.3.1-4.7,0-7-1.6,1.3-1.6,5.7,0,7Z"/>
    <path class="st0" d="M267,446c-.3-.7,0-2.9,0-4-1.6.5-1.5,3.5,0,4Z"/>
    <path class="st0" d="M267,438v-4c-1.6.4-1.5,3.7,0,4Z"/>
  </g>
  <g>
    <path class="st4" d="M627.5,873c-20.1.7-40.4-.5-60.5,0v26h87v-28h-23c.5,3-1.6,2-3.5,2Z"/>
    <path class="st4" d="M463,871h-1v2h-15v26c9.1.6,19.2-1.3,28,1v1c2.3,8.8.4,18.9,1,28h29l-1-58c-13.3-.7-27.6,0-41,0Z"/>
    <path class="st4" d="M321.5,873c-8.5.3-17-.2-25.5,0v56h27c.6-9.5-1.3-19.8,1-29h1c.4-1,.5-.9,1.5-1,9.1-1.2,22.3,0,31.5,1v29h26v-58h-59c.5,3-1.6,2-3.5,2Z"/>
    <path class="st4" d="M269,267s0,0,0,.1h0-.1Z"/>
    <path class="st4" d="M655.2,418.9c-.5-.4-.1-1.7-.2-1.8-.2-.1-2.4.6-2-1.4v-86.6c-4.6-.8-24.9,1.5-27-1-3-3.5.5-28.8-.4-30-2.1-2.9-25.9.5-30.6-1-1-.4-.9-.5-1-1.5-1.1-8.4.8-18.9,0-27.5h-57c-.6,9.1,1.3,19.2-1,28,0,1.1-.6.9-1.5,1-9.4,1.1-20.8-.8-30.5,0-.4,10,.5,20.1,0,30v2h-28l-1,88h-29c.1.2,0,.6,0,1,1.6,1,1,3.8,1,5.5,0,6.9.8,16.7,0,23.1,0,1.1-.4,3.5-1.5,3.5h-28.5v57h58v3c2.3,9.3.3,19.8,1,29.4l-2,.6c-37.9-2.6-80.2,3.3-117.6,0-1.2,0-1.7.4-2.4-1,0-.2,0-.6,0-1-1.3-.2-.9-1.5-1-2.5-1.1-8.3.1-20.3,1-28.6h30v-57h-29.5c-1,0-1.4-2.5-1.5-3.5-.8-6.5,0-16.2,0-23.1s-.7-4.5,1-5.5v-2c0-29.3.1-58.7,0-88-.2-.1-.6,0-1,0-8.6-1.2-19.5,1.7-28-1-.6-.2-2,.6-2-.6v-58.4l-14-1h-2c-1,1.6-3.8,1-5.5,1-9,0-18,0-27,0-1.7,0-4.4.7-5.4-.9h-2c-.9,1.1.5,24.2,0,28.5-.1,1.1,0,1.2-1,1.5-5.9,1.9-22.8-1.4-30,0v31c-9.1-1.1-21.3,1.4-30,0v29c1,1,23.4-.5,27.6,0,1.1,0,1.9-.5,2.4,1,.5,1.6.3,24.6,0,27.6-.2,1.4-.1,1.4-1.1,2.4-2.5,2.5-23.9.2-29,1v59c5-.8,22.2-.6,27.6,0,1.4,0,1.4,0,2.4,1,3.3,3.3-1.1,51.9,2,60h28c-.9,8.3,1.2,19,0,27,9.1.2,18.3-.3,27.5,0,2,0,4.1-1,3.5,2h3c-.8-2.7,2.3-2.9,4-1,6.7,0,13.3,1.6,20,1v29c90,.3,180-.2,270,0,.8-4.9-1.5-25.5,1-28s53.2,0,61-1c.4-1.1-1-2.2-1-2.5v-26.5h-30c-.4-1.1,1-2.2,1-2.5v-29.5h29c.8-5.1-1.5-26.5,1-29s22.1-.2,27-1v-28c-3.9-.6-26.4,1-27.8-.2ZM324,448v1h.1c-1,1.5-3.8.9-5.5.9-15,.1-37,1.7-51.1,0-1.1,0-3.5-.4-3.5-1.5v-90c0,0,1.4-1.5,1.5-1.5h58c1,0,1.4,2.5,1.5,3.5,2,16.4-.3,38.8,0,56.1.1,9.3,1.4,18.5,1,28,0,2,1,4.1-2,3.5ZM596.9,448.9c-.6.4-1.5,0-1.9.1h.1c-1.3.5-1.4.9-3.4,1-13.3,1-41.4,1.5-54.2,0-1.1-.1-3.5-.4-3.5-1.5v-90c0-.1,1.4-1.5,1.5-1.5h59c.4,0,1.7,1.1,2.4,1.2v90.7Z"/>
    <path class="st4" d="M775,146c.3-5.9-.4-12.1,0-18v-10h-60c-1,1,.5,22.5,0,26.6,0,1,0,1.1-1,1.4-5.6,1.8-22.4-1.8-28,0v59h25.5c.2,0,1.1,1.5,1.5,1v-30h3c-1.8-2.7-1-1.9,1.5-2,18.8-.9,38.4.6,57.3.2.2.7,1.2,1.9,1.2,2.3v58.5h28v-89h-29Z"/>
    <path class="st4" d="M206,235h28l1-59h1c-.6-3,1.5-2,3.4-2,18.5-.7,37.1.5,55.6,0v-28h-30v-30h-28.5c0,0-1.5,1.4-1.5,1.5v28.5h-31v59c3-.6,2,1.5,2,3.4.3,8.9-.2,17.8,0,26.6Z"/>
    <path class="st4" d="M768,176c1.3,0,2.7-.1,4,0-.3-1.5-3.6-1.6-4,0Z"/>
    <polygon class="st4" points="736 176 737 176 736.5 175 736 176"/>
    <path class="st4" d="M595,443v3c.6-2.9,0-2,0-3Z"/>
  </g>
  <g>
    <path class="st7" d="M714,961l-1-1h-446v-87l26-1v-1h-28v91h449.4l.6-5c0,.8-1.6,2.4-1,4Z"/>
    <path class="st7" d="M895,568h0v28c3.3-8.8,1.7-16.7,2-26h26v177c-5.8.2-11.7,0-17.5,0-2.5,0-7.5,2.3-9,0-.6-.7.6-1.3.6-1.5v-56c0-.3-1.3-1.5-1-2.5h-59c-.2-9,.6-18.1-1-27h58.4c1.1,0,.5-1.3.6-2h-36c-2.3,1.7-8.5,1.7-11,0h-13v31h58.5l1.5,1v58c0,1-.7,1-1.5,1-7.7,1-19.2,0-27.5,0h-1c0,10.3,0,20.7,0,31h1v-29h27v57h-27v2h29v-61h30v-181h-30Z"/>
    <path class="st7" d="M835,236h-1c-9.3-.1-18.7-.1-28-.1h-1c0,8.1.5,17,0,25,0,1,0,2,0,3-.2,1.1-1,1.9-1,2,0,.7-.5,1.5-1,2l.4,60.1c9.5,1.8,20,2.3,29.6,0v148h-28.5c0,0-1.5,1.4-1.5,1.5v29.5c-7.8.2-15.7-.3-23.5,0-2,0-4.1-1-3.5,2h29v-31h30v-151h-30v-60h30c.2-10.3-.3-20.7,0-31ZM833,265h-24.5c0,0-1.5-1.4-1.5-1.5v-25.5h26v27Z"/>
    <path class="st7" d="M295,871h1c.1-.5.5-1,1-1l-1-300h-1c0,100.3,0,200.7,0,301Z"/>
    <path class="st7" d="M863,818.5c-.2,6.8.2,13.7,0,20.5h-28.5c0,0-1.5,1.4-1.5,1.5v27c0,0-1.4,1.5-1.5,1.5h-56c-.3,0-1.5,1.3-2.5,1v28h-28.5c0,0-1.5,1.4-1.5,1.5v28c0,3.7-23.9-.5-27,.5,0,.5-.5,1-1,1v1h30v-30h30v-29h60v-30h30v-26c-3-.5-2,1.6-2,3.5Z"/>
    <path class="st7" d="M685.6,598h29.4v-30h30v-30h30v-2c-1.7-6.5-1.7-15.5,0-22v-5h-7.1c-17.3,0-34.7,0-52,0v1h57v26h-27.5c-.3,0-1.5,1.3-2.5,1v29c-3.9.6-26.4-1-27.8.2-.5.5,0,1.6-.2,1.8s-1.4-.3-1.8.2c-1.2,1.5.5,23.8-.3,27.8-4.9,2-9.2,0-13.5,0-5.3.2-10.9,2-16.5,1.1v31.5c0,.3,1.3,1.5,1,2.5h29v57.5c0,.3,1.3,1.5,1,2.5h29v87.5c0,1.2,3.2,2.3,4.5,2.5,8.3,1.2,19-.9,27.6,0v-2h-30v-90h-30v-60c-7.2-1.4-24.1,1.9-30,0-1-.4-.9-.5-1-1.5-.7-5.7-.4-18.2,0-24.2.2-2,.6-2.1,1.1-3.4.2-.5-.6-1.8.6-2Z"/>
    <path class="st7" d="M655,117c.3,0,.6-.9,1-1,.3,0,.6-1,1-1v-27c.9-.9,21.1.6,25,0,0,0,1.2-.7,2-1,.3,0,.7-.9,1-1,.2,0,.6-1,1-1v-27h117v27c.4,0,.8,1,1,1,.3,0,.7,1,1,1h1c-2.2-9.9-.4-20.8-1-31h-121v30h-29v30h-3v2h1c0,0,1.2-.7,2-1Z"/>
    <path class="st7" d="M322,85c.5,0,.7.8,1,1,.8.6.8,1.1,1,2,1.2,4.9,0,20.6,0,27v1h30v-30h-30v-30h-120v30h1l1-1v-27h116v27ZM326,88h26v27h-26v-27Z"/>
    <path class="st7" d="M354,144l2,1c.8-8.6-1.5-19.1,1-27,.2-.5,0-1.4,0-2h-3v28Z"/>
    <path class="st7" d="M865,568h-90v61h28v-2h-26v-57c8.6-.2,17.4.3,26,0,.2,0,1.1-1,2-1,19.9-.5,40.1,0,60,0v-1Z"/>
    <path class="st7" d="M176,295.5l-1,.5v24c1.6,1.3,1.6,5.7,0,7v35l1,.5-1,1.5v4c1.7,1.5,1.7,6.4,0,8v8c3,.5,2-1.6,2-3.5,1.7-43.6,1.5-93.5,0-137.1,0-1.9,1-4-2-3.4,0,18.3,0,36.7,0,55l1,.5Z"/>
    <path class="st7" d="M293,566h-55v-27h-2v29h57c0-.7,0-1.4,0-2Z"/>
    <path class="st7" d="M203,479v28h-26c-.5-9.3,1.2-19-1-28v-1h-1v31h29c0-5.6,1.1-26.5,0-30h-1Z"/>
    <path class="st7" d="M833,657l-26-1v-25h-2v27h28v-1Z"/>
    <path class="st7" d="M833,88c.3,7.2-.3,14.4,0,21.6,0,1.3,1,2.2,1,2.4h1v-26c-7.3,0-14.7,0-22,0l9,2h11Z"/>
    <path class="st7" d="M712,932c.2,1.3,1,2.7,1,4h2c0-2.3-.5-2.4-1-4h-2Z"/>
    <path class="st7" d="M472,116h-8c1.6,1.7,6.5,1.7,8,0Z"/>
    <path class="st7" d="M488,116h-8c1.6,1.7,6.5,1.7,8,0Z"/>
    <path class="st7" d="M509,116h-5c.7,1.6,4.3,1.6,5,0Z"/>
    <path class="st7" d="M616,116h-4c.4,1.6,3.7,1.5,4,0Z"/>
    <path class="st7" d="M518,116h-4c.4,1.6,3.7,1.5,4,0Z"/>
    <path class="st7" d="M383,116h-3c.1,1.5,2.9,1.5,3,0Z"/>
    <path class="st7" d="M566,116h-3c0,1.5,2.9,1.5,3,0Z"/>
    <path class="st7" d="M438,116h-3c.1,1.5,2.9,1.5,3,0Z"/>
    <path class="st7" d="M808,87c1.7,0,2.8-1,3-1l-3,1Z"/>
    <polygon class="st7" points="805 627 804 629 805 629 805 627"/>
    <polygon class="st7" points="405 116 403 116 404.5 117 405 116"/>
    <polygon class="st7" points="377 116 376 116 376.5 117 377 116"/>
    <polygon class="st7" points="529 116 528 116 528.5 117 529 116"/>
    <polygon class="st7" points="477 116 476 116 476.5 117 477 116"/>
    <path class="st7" d="M715,953v-1l-1,.5,1,.5Z"/>
    <path class="st7" d="M475,900.1h-30c-.6,9.8,1.3,20.7-1,30v1c.5,0,.9.5,1,1,1.4-.3,1.8-1.2,2-2.5,1.5-8.2-1.8-19.2,1-27.5h25c0,7.5,0,15,0,22.5s-2.8,5.8,2,6.5c7.1,1,18.9,0,26.5,0s4.5.7,5.5-1h-32c.9-6.9-.8-14.1-1-20.6,0-2.8.7-5.8,1-8.5v-.9Z"/>
    <path class="st7" d="M354,902l1,30h5c1-1.6,3.8-1,5.5-1,6.2,0,13.7-.8,19.5,1,1-.3,1.6-2.1,2-3h-1c-.3.2-.8,1-1,1-9,1-19.8-.8-29,0v-30c-9.9.7-21.2-1-31,0-1.7,5,.9,21.5,0,28.5,0,1.1,0,1.2-1,1.5-5.7,1.9-22-1.4-29,0,0,.3,0,.7,0,1,9.5.6,19.8-1.3,29,1,1.5-.5,1.8-3.1,2-4.5.9-8-.6-17.3,0-25.5h28Z"/>
    <path class="st7" d="M416,779h-30v1l1,1h27c.2,8.1-.3,16.3,0,24.5.1,2-1,4.1,2,3.5-.6-4.5,1.1-28.9,0-30Z"/>
    <path class="st7" d="M745,810h0v60c.2-.2,1.4.3,1.8-.2,1.9-2.2-1-51.2.3-58.4.3-2-1.9-1.2-2.1-1.4Z"/>
    <path class="st7" d="M775,811h0c-.7,0-2.1-.6-2,.5.3,8.3-.3,16.7,0,25,0,2-1,4.1,2,3.5-.9-7-.3-19.5,0-27v-2Z"/>
    <path class="st7" d="M745,477h30c-3.5-2.6-26.9,0-28-1v-27h-2v28Z"/>
    <path class="st7" d="M805,596c-1.6,1-1,3.8-1,5.5,0,7.2-.8,15.6,1,22.5v-28Z"/>
    <path class="st7" d="M805,571c-1.7,2.9-1.7,9.3,0,12v-12Z"/>
    <path class="st7" d="M805,592v-5c-1.6.7-1.6,4.3,0,5Z"/>
    <path class="st7" d="M868,597h-2v2h2v-2Z"/>
    <path class="st7" d="M895,598.5c0-.6-1-.5-1-.5v1c.4,0,.8,0,1-.5Z"/>
    <path class="st7" d="M745,236v30h30v-30h-2v29h-26v-28.4c-.2-1.2-1.5-.4-2-.6Z"/>
    <path class="st7" d="M861.6,598c1.3,0,2.3-1,2.4-1h-29v1c8.8-.3,17.8.3,26.6,0Z"/>
    <path class="st7" d="M353.9,417v32h33v-2h-31v-21.5c0-9.9,8.3-5.5,14.5-5.5,21.2.2,49.9-2.4,70.1,0,1.1.1,3.5.4,3.5,1.5v24.5c-4.6,2.1-28.4-.3-29.9,2.1,1,7.5-1.9,58.4,0,60.7.4.5,1.7,0,1.8.2v-60h30c-.9-9.7,1.3-21.6,0-31,0-.4.1-.8,0-1h0c-30.6.2-61.4-.1-92,0Z"/>
    <path class="st7" d="M324,448c1.2-11.6,0-26.9,0-39-2,1.9-.8,5.8-1,8.6,0,1.3-1,2.3-1,2.4-.5,8.6-.3,18.6,1,27-6.3-1-55,1.6-56-1-1.5-.5-1.6-3.5,0-4v-4c-1.5-.3-1.6-3.6,0-4v-2c-1.6-1.3-1.6-5.7,0-7v-4c0-.1-.9-1.1-1-2.4-.3-3.4,1-8-1-10.6v41h59v-1Z"/>
    <path class="st7" d="M595,449c.2-.2-.2-2.2,0-3v-3c-.2-28.3,0-56.7,0-85h-60v91c7.3-1.5,57.8,2,60,0ZM537,360h57v87c-1-.8-1.9,0-2.5,0h-54.5v-87Z"/>
    <path class="st7" d="M267,361c1.1-.3,6-.9,7.5-1,15.3-1.2,32,.9,47.5,0h1c0-.1,1.4-1,1-2h-59v20c0-.1,1-1.1,1-2.4.2-2.9-.9-13.9,1-14.6Z"/>
    <path class="st7" d="M265,395c1.7-2.7,1.7-9.1,0-12,0,4,0,8,0,12Z"/>
    <path class="st7" d="M265,401c1.5-.1,1.5-2.9,0-3v3Z"/>
    <path class="st7" d="M398,508.4c.4-1.8.4-27.9,0-29.7-.5-2.2-9-1.7-11-1.7v1c1.3-.2,3.5,0,5,0h4v31c.5-.2,1.8.6,2-.6Z"/>
  </g>
  <g>
    <path class="st2" d="M713.1,936.1c0-1.3-.8-2.7-1-4-48.9,0-98,.2-146.9,0-.4-.6.1-1.5,0-1.9-.6-1.3-1-1.4-1.1-3.4-1.2-15.3-.2-34.4,0-50.1,0-1.7-.7-4.5,1-5.5h1l58-1v-29c-9.1-.6-19.2,1.3-28-1h-1c-1-.5-.8-.4-1-1.5-1.2-8.1.9-19,0-27.5h-87v28c9.1.6,19.2-1.3,28,1h.9v91.9l-60.9-.9c-4.8-.7-2-3.2-2-6.5v-22.5h-25c-2.8,8.3.5,19.3-1,27.5-.2,1.3-.6,2.2-2,2.5-7.2,1.7-21-1.3-29,0-.2-1.8,2.3-1,3.5-1,7.2-.3,17.5-.7,24.5,0v-1c-9.3-.3-18.7.5-28,0h-1.9v-58.9c.6-.4,1.5.1,1.9,0,1.3-.6,1.4-1,3.4-1.1,13.1-1,27.4.8,40.6,0v-90.9h-16v2h1c.7,0,2.1-.5,2,.6-.2,7.9.3,15.9,0,23.9-.1,2,1,4.1-2,3.5,0,.4,0,.8,0,1-.6,1.3-1.2.9-2.4,1-6.2.5-17.9.5-24.1,0-1.2,0-1.7.4-2.4-1,0-.2,0-.6,0-1-3,.5-2-1.6-2-3.5-.3-8.1.2-16.3,0-24.5h-27v148c-.4.9-1,2.7-2,3-3,.9-20.5.2-25,0h-5l-1-30h-28c-.7,8.1.9,17.5,0,25.5,0,1.5-.4,4-2,4.5-1.6.5-24.8.4-27.5,0-1.1-.2-1.1,0-1.5-1,0-.3,0-.7,0-1v-59h-1v59c-1.8.2-1-2.3-1-3.5-.7-18.1.5-36.4,0-54.5l-26,1v87h446c-.4-7.8.6-16.2,0-24Z"/>
    <path class="st2" d="M837.4,811.1c-1.4,0-1.7-.7-2.4-1-.5-.2-1.8.6-2-.6v-28.4c-3.9-.6-26.4,1-27.8-.2-.5-.5,0-1.6-.2-1.8s-1.4.3-1.8-.2c-1.2-1.4.4-24.8-.2-28.8h-28c-1.3,4,.3,22.8,0,29v2c-8.6-.9-19.3,1.1-27.6,0-1.4,0-4.5-1.2-4.5-2.5v-87.5h-29c.3-1-1-2.2-1-2.5v-57.5h-29c.3-1-1-2.2-1-2.5v-31.5c5.6.9,11.2-.9,16.5-1.1,4.4-.2,8.7,1.9,13.5,0,.8-4-.9-26.4.3-27.8.5-.5,1.6,0,1.8-.2s-.3-1.4.2-1.8c1.4-1.2,23.9.4,27.8-.2v-29c1,.3,2.2-1,2.5-1h27.5v-26h-57c-1,7.9,1.8,19.9-1,27,0,.3.2.8,0,1-3.2,4.2-23.2,1-29,2v28h-3c1.8,2.7,1,2-1.5,2-18.1.7-36.4-.5-54.5,0v26c3.9.6,26.4-1,27.8.2.5.5,0,1.6.2,1.8s1.4-.3,1.8.2c.8,1,.3,22.9.2,26.4,0,2,1,4.1-2,3.5v1c-.5,1-.4.8-1.5,1-7.8,1.2-18.3-.9-26.5,0-1,.9.6,22.4,0,26.5-.2,1.2,0,1-1,1.5h0c-.2,0-.6,0-1,0,0,.5.5,1,1,1h0c-.5,1.1-.4.9-1.5,1.1-8.1,1.2-19-.9-27.5,0v27h58c.6-9.1-1.3-19.2,1-28v-1c7.2-1.7,15.9-1,23.5-1s4.5-.7,5.5,1v1l1,61-29,1v28c-1.8.2-1-2.3-1-3.5-.4-8.8.3-17.7,0-26.5-1,.4-.9.5-1,1.5-.7,5.5-.8,23,0,28.5,0,0,1.4.7,1,2h-29v27h56v-27.5c0-.3,1-1.6,1.2-2.3,8.3-.2,16.9-.2,25.3-.2s4.5-.7,5.5,1v1c1-.5,2.5-.2,2,1.5v56.5c3.9.6,26.4-1,27.8.2.5.5.1,1.7.2,1.8.2.1,2.4-.6,2.1,1.4-1.3,7.2,1.6,56.2-.3,58.4-.5.5-1.6,0-1.8.2s.3,1.4-.2,1.8c-1.4,1.2-24.8-.4-28.8.2-1.3,18,1.7,38.3,0,56,3.1-1,27,3.2,27-.5v-28c0,0,1.4-1.5,1.5-1.5h28.5v-28c1,.3,2.2-1,2.5-1h56c0,0,1.5-1.4,1.5-1.5v-27c0,0,1.4-1.5,1.5-1.5h28.5c.2-6.8-.2-13.7,0-20.5,0-2-1-4.1,2-3.5v-4h-1c-6,.7-20.4.5-26.6,0ZM804.9,840.1v1c-.6,1.3-1.2.9-2.4,1-6.4.6-18.6.6-25.1,0-1.2,0-1.7.4-2.4-1v-1c-3,.5-2-1.6-2-3.5-.3-8.3.3-16.7,0-25,0-1.1,1.3-.6,2-.6v-1h-.2v-1.9c7,1.2,23.7-2,29,1,.3.2.8.7,1,1,.9,1.6.9,1.4,1.1,3.4.6,6.3,0,14.5,0,21.1s.7,4.5-1,5.5Z"/>
    <path class="st2" d="M776.1,268v60h-60v29.5c0,.3-1.3,1.5-1,2.5h-29v26h118.4c1.1-.1.5,1.3.6,2v1c1.4.5.9,1.4,1,2.5.6,5.3.4,16.7,0,22.2-.2,2-.6,2.1-1.1,3.4,0,.4.3,1.3,0,2h-88.9v28h29c.2,1.8-2.3,1-3.5,1-8.8.4-17.7-.3-26.5,0,1,1.6,3.8,1,5.5,1,8.1.1,16.4-.4,24.5,0h2v27c1.1,1,24.5-1.6,28,1-.5,10.6,1.2,21.6-1,32h2c-.5-3,1.6-2,3.5-2,7.8-.3,15.7.2,23.5,0v-29.5c0,0,1.4-1.5,1.5-1.5h28.5v-148c-9.6,2.2-20.1,1.7-29.6,0l-.4-60.1h-26.9Z"/>
    <path class="st2" d="M175.9,238h-1v2c3-.6,2,1.5,2,3.4,1.5,43.6,1.7,93.6,0,137.1-.1,2,1,4.1-2,3.5v2h28c.2-30-.2-60,0-90,0-7.8-.9-18.2,0-25.6.2-1.5.3-1.4,1.1-2.4.3-.4.5-.9,1-1,9.2-2.3,19.5-.4,29-1v-28h-58.1Z"/>
    <path class="st2" d="M835,236c3.5,0,9.3,1,12.5,1,5.4,0,11.7-2,17.5-1v-120h-29c-.7,38.5.8,77.1,0,115.6,0,1.9-1,3.6-1,4.4Z"/>
    <rect class="st2" x="145" y="116" width="30" height="120"/>
    <polygon class="st2" points="202 86 201.9 86.1 202.1 86.1 202 86"/>
    <path class="st2" d="M203.1,115.1c-1.2-7.7,1.4-19.3,0-26.5-.2-1.1-1.7-.6-2.5-.6l1.3-1.9h-25.8c.6,1.3-1,2.6-1,3-1.1,6.7,0,18.6,0,26h28Z"/>
    <path class="st2" d="M775,536c.3-7.2,0-14.7,0-22-1.7,6.5-1.7,15.5,0,22Z"/>
    <polygon class="st2" points="175 387 175 388 176 388 175 387"/>
    <path class="st2" d="M897,570c-.3,9.3,1.3,17.2-2,26h0c-.2.6-1,.9-1,1v1c0,0,1,0,1,.5-.2.6-.6.5-1,.5-5.7,1.2-19.2,0-26,0h-32v28l58,2c1,.4.9.5,1,1.5.8,6.3.5,19.8,0,26.5v1c0,.7.5,2.1-.6,2h-58.4c1.6,8.9.8,18,1,27h59c-.3,1,1,2.2,1,2.5v56c0,.2-1.2.8-.6,1.5,1.5,2.3,6.4,0,9,0,5.8-.2,11.7.2,17.5,0v-177h-26Z"/>
    <path class="st2" d="M848,658c2.5,1.7,8.7,1.7,11,0h-11Z"/>
    <path class="st2" d="M807,263.5c0,0,1.4,1.5,1.5,1.5h24.5v-27h-26v25.5Z"/>
    <path class="st2" d="M352.1,687v-27h-27.4c-1.2-.2-.4-1.5-.6-2-.6-1.3-1-1.4-1.1-3.4-1.1-14.7-1.4-41.2,0-55.6,0-.5.5-1,1-1,0-.4,0-.8,0-1,.5-.8.3-.8,1.5-1,7.8-1.2,18.3.9,26.5,0v-26h-55.9l1,300c4-.6,25.1.9,26,0,.2-9.3-.3-18.7,0-28v-3c1.1-1,23.5.5,27.6,0,1.1,0,3.5-.4,3.5-1.5v-26.5c-8.6-.9-19.1,1.1-27.5,0-1.7-.2-3,0-3.5-2-.7-2.9-.5-24.4,0-28,.1-.6,1-2.8,1.7-3,7.2-1.8,21.3,1.3,29.3,0v-27h-29.4c-1.2-.2-.4-1.5-.6-2-.6-1.3-1-1.4-1.1-3.4-1.3-18,1-37.5,0-55.6,0-.6,0-1.5.4-2,2-2.4,24-.3,28.6-1Z"/>
    <path class="st2" d="M355.9,145h59c1,.3,1.8,1,2,2,.4,1.8.4,26.7,0,28-.5,1.6-3.1,1.8-4.5,2-8,.9-17.4-.6-25.5,0v29c6.4-1.1,22.9-2.8,28,1,.3.2.8.7,1,1,1.3,2.2,1.7,26.7.8,27.8-.4.5-1.7,0-1.8.2-.1.2.6,2.4-1.4,2h-57.6v27c3.9.7,27.8-.9,29,0,0,0,0,1.6,0,2,.4,0,.8-.1,1,0,1,.5.8.4,1,1.5,1.2,8.1-.9,19,0,27.5h57v-29c1.8-.2,1,2.3,1,3.5.4,8.3-1.1,17.5,1,25.5.9-8.6-1.1-19.1,0-27.5,0-.9,0-1.5,1-1.5l56-1v-28c-6.8-.9-55.8,1.6-57-1-.1-.2,0-.6,0-1-.8-5.6,0-14.9,0-21-2,5.5-.8,12.5-1,18.5,0,.9.4,3.6-1,2,.3-8.6-.4-17.4,0-26,0-2.5-.7-3.3,2-1.5v-3h27c.4-.4-.2-7.8,0-9.6.2-1.5,1.1-2.3,1.1-2.4.1-.5.9-1.4,1-2-3,.5-2-1.6-2-3.5,0-2.8-.6-10.1,1-11.5,1.6-1.4,25.2-1.4,29-1,1.1-6.9-2-22.6,1-28,.2-.4.7-.7,1-1h62v28h27c.6-3.8-1-25.4.2-26.8.5-.5,1.6,0,1.8-.2s-.3-1.4.2-1.8c1-.9,24.5-.5,27.8.8l1,1c2.3,8.5.4,18.2,1,27h28l-1-56h-296.1c-2.5,7.9-.2,18.4-1,27Z"/>
    <rect class="st2" x="686" y="58" width="117" height="27"/>
    <rect class="st2" x="206" y="58" width="116" height="27"/>
    <path class="st2" d="M894,567v-27h-87l-1,27h88Z"/>
    <path class="st2" d="M777,570v57h26v-57c-8.6.3-17.4-.2-26,0Z"/>
    <path class="st2" d="M866,780c0,9,.7,19.2,0,28h27v-57h-27v29Z"/>
    <path class="st2" d="M352,598c-1.9-1.7-7.1-1.7-9,0h9Z"/>
    <path class="st2" d="M175,417c-.2-.7-.9-1-1-2.4-.5-5.2-.8-19.8,0-24.6h-27v86h27c.8-8.1-1.1-18.2,0-26,0-.6,1-2.8,1.7-3,6.7-1.6,19.8,1.2,27.3,0v-28h-27.4c-1.2-.2-.4-1.5-.6-2Z"/>
    <rect class="st2" x="326" y="88" width="26" height="27"/>
    <path class="st2" d="M806,746.5c0,.7,1.7,1.3,2.5,1.5,8.1,1.5,19.4-1.9,27.5,1h28v-29h-57c.3,1-1,2.2-1,2.5v24Z"/>
    <path class="st2" d="M206,536c3.1,1.7,5.7-.2,8.5,0,6.3.3,13,2.5,19.5,0v-26h-28v26Z"/>
    <path class="st2" d="M293.1,566c.5-3.9,2.3-25.1,0-26.6-2.3-1.5-48-.4-55.1-.4v27h55.1Z"/>
    <path class="st2" d="M177,507h26v-28h-27c2.2,9,.5,18.7,1,28Z"/>
    <polygon class="st2" points="807 656 833 657 833 631 807 631 807 656"/>
    <path class="st2" d="M683,115c-.6-8.8,1.3-18.5-1-27-3.9.6-24.1-.9-25,0v27c3.9-.8,25.1.9,26,0Z"/>
    <path class="st2" d="M834,112c0,0-1-1.1-1-2.4-.4-7.2.3-14.4,0-21.6h-27v27h28v-3Z"/>
    <path class="st2" d="M596,832l-1,1c.2-.1,1-.3,1-1Z"/>
    <path class="st2" d="M508,930c4.7,1.7,12.4,1.7,17,0h-17Z"/>
    <path class="st2" d="M533,930c-1.6.2-3.4,0-5,0,.7,1.6,4.3,1.6,5,0Z"/>
    <path class="st2" d="M634,749c-2.3,0-4.7-.2-7,0,1.3,1.7,5.7,1.7,7,0Z"/>
    <path class="st2" d="M623,658c-5,.3-10,0-15,0,3.7,1.7,11.1,1.7,15,0Z"/>
    <path class="st2" d="M604,658h-7c1.3,1.7,5.7,1.7,7,0Z"/>
    <path class="st2" d="M680,568h-48c16,0,32.1.5,48,0Z"/>
    <polygon class="st2" points="626 568 626 569 628 568 626 568"/>
    <path class="st2" d="M627,598v-1h-1c0,.5.7.7,1,1Z"/>
    <path class="st2" d="M744,477c-19.7-.1-39.3,0-59,0-.5,0-.7.6-1,1v1h58c.3-.3,2.7.6,2-2Z"/>
    <path class="st2" d="M772.6,418.1c1.8,0,3.2-1.1,3.4-1.1h-1c-18.1.5-36.3-.1-54.5,0-1.7,0-4.5-.7-5.5,1,19.1-.5,38.4.4,57.6,0Z"/>
    <path class="st2" d="M475,206v1h59c.2-.3,1-.7,1-1,1.2-9.1-.9-20.6,0-30h-28.9c.3.2,1.1.8,2.3,1,7.6.9,16.8-.7,24.6,0v29h-58Z"/>
    <path class="st2" d="M506,176h.1c0,0,0,0-.1-.1h0Z"/>
    <path class="st2" d="M567.5,748h26.5v-27h-57c-.8,4.8,1.3,27.6-1,29.6-.5.4-1.3.4-2,.4-8,1.2-18.7-.9-27,0v27h59c-.5-9.6,1.1-19.6-1-29,1,.3,2.1-1,2.5-1Z"/>
    <path class="st2" d="M534,749c-9.1.6-19.2-1.3-28,1h28v-1Z"/>
    <path class="st2" d="M773,265v-88h-57v58c8.3,1,21.7-1.9,29,1,.5.2,1.8-.6,2,.6v28.4h26Z"/>
    <path class="st2" d="M355,237h-1c0,8.9-.8,19.4,0,28,2.3-8.8.4-18.9,1-28Z"/>
    <polygon class="st2" points="596 173 595 175 596 175 596 173"/>
    <path class="st2" d="M565,174c1.6-1.1,1-3.8,1-5.5,0-5.7.9-15.7-1-20.5,1.2,6.3-1.7,20.8,0,26Z"/>
    <rect class="st2" x="237" y="208" width="27" height="27"/>
    <path class="st2" d="M396.1,509c-.4,0-.8.9-1.6.9-12.7,1.5-25.6,1.1-38.4,1.1v26h117v-25.9h-55.6c-2,.3-1.2-1.9-1.4-2.1-.2-.2-1.4.3-1.8-.2-2-2.3.9-53.3-.1-60.7,1.6-2.4,25.3,0,29.9-2.1v-24.5c0-1-2.5-1.4-3.5-1.5-20.2-2.5-48.9,0-70.1,0s-14.5-4.4-14.5,5.5v21.5h31v2h.1c.5,9.3-.3,18.7,0,28,1.9.1,10.5-.5,11,1.7.4,1.8.4,27.9,0,29.7-.2,1.2-1.5.4-2,.6Z"/>
    <path class="st2" d="M322,420v-60c-15.5.9-32.1-1.1-47.5,0-1.5,0-6.5.6-7.5,1v64c.1,2.3,0,4.7,0,7v10c0,1.1-.3,3.3,0,4,1,2.6,49.7,0,56,1-1.4-8.4-1.5-18.4-1-27Z"/>
    <path class="st2" d="M294,205v-28h-28v27.5c0,2.2,2.3.5,2.5.5h25.5Z"/>
    <path class="st2" d="M594,360h-57v87h54.5c.6,0,1.5-.8,2.5,0v-87Z"/>
  </g>
</svg>