<?xml version="1.0" encoding="UTF-8"?>
<svg id="_레이어_1" xmlns="http://www.w3.org/2000/svg" version="1.1" viewBox="0 0 1024 1024">
  <!-- Generator: Adobe Illustrator 30.1.0, SVG Export Plug-In . SVG Version: 2.1.1 Build 136)  -->
  <defs>
    <style>
      .st0 {
        fill: #014a4a;
      }

      .st1 {
        fill: #4cdfd2;
      }

      .st2 {
        fill: #c0fff3;
      }

      .st3 {
        fill: #29aba6;
      }

      .st4 {
        fill: #fefefe;
      }

      .st5 {
        fill: #072628;
      }
    </style>
  </defs>
  <g>
    <path class="st5" d="M708.9,311.1c9.2.5,18.9-.6,28,0,.5-3-1.6-2-3.5-2-7.5-.3-15,.2-22.5,0v-25c3.7-.6,24.5,1,25.8-.2.5-.4.1-1.7.2-1.8h-28v29Z"/>
    <path class="st5" d="M569.9,199.1h27v-39c0-3-.8-15.2,1-16,5-2.3,27,0,28-1v-26h26v-28h-26v27h-29v3c1.7,6.8,1.7,16.2,0,23v1c0,.7-1,2.5-1,4.4-.4,16.5.3,33.1,0,49.6h-219v-25h193l-3.5-1h-190.5c1.2,6.4,0,20.6,0,28,64.6,1.4,129.5-1.8,194,0ZM628,91h22v22.5c0,0-1.4,1.5-1.5,1.5h-20.5v-24ZM599,120.5c0-.3,1.3-1.5,1-2.5h24c1.8,8,0,16.2,1,24h-24.5c0,0-1.5-1.4-1.5-1.5v-20Z"/>
    <path class="st5" d="M708.9,143.1c9.1.4,18.4-.3,27.5,0l.5,1v138c.2-.1,2.4.6,2-1.4v-135.6h23l1,246h-24l-1-80c-1.9,3,0,5.4,0,8.5.8,24-.9,48.9,0,72.5l3,1h23c1.4-.2,1,1.7,1,2.5.6,7.5.4,17.2-1,24.5h28c.2,9.3-.2,18.7,0,28h-54v27c7.6,0,15.4-.2,23,0h3c-6.7-2.6-17.5-.1-25-1v-24h52v80h-25v-54.4c-.2-1.2-1.5-.4-2-.6v56h-53c-.5.2-1.1,1.2-2,1,1.4,7.5-1.1,19,0,27h-57v27h-31c-.7,1.6-4.3,1.6-5,0h-11c-.7,1.6-4.3,1.6-5,0h-3v27h-27c1.7,9.5.8,19.3,1,29h27v-1c.3-7.8-.8-17.2,0-24.6,0-1.4-1.5,0,1-2.4s21.2-.2,26-1c-8.1-2.3-17.6-.4-26-1v-24h54c-.3-1,1-2.2,1-2.5v-24.5h54.5c.3,0,1.5-1.3,2.5-1v-27h50.5c0,0,1.5,1.4,1.5,1.5v22.5h-27c-.4.3,1,1.5,1,2,8.3-.2,16.7.2,25,0,1.9-.9,2-1.4,2.1-3.4.6-7-.9-15.5,0-22.2,0-1.1,0-1.2,1-1.5,3.7-1.2,26.9,1.1,28,0,.2-3.2-.9-7.5-.9-10.4.7-24.8.6-48.9,0-73.6h2v-26h24v26c.4,0,.8,0,1,0l1-3c.2-2.9,0-6,0-9l-1-.5,1-1.5c0-3.5.4-7.7,0-11l-1-.5,1-.5c-1-3.2-13.6-2-17.5-2-2.3-.1-4.4,1-6.5,1l-2-1h-1c-.6,0-2-1-3.5-1-7.8-.3-15.7.2-23.5,0v-27h-1l-1-249h-27v-54h-24.5c-.3,0-3.5-1.2-3.6-1.6-.7-7.8,1-17.3,0-24.9,0-.8,0-1.5-1-1.5h0c0,.1-56,.1-56,.1v28h57v54ZM596,640h-24v-25h24v25ZM709.9,138.5c1.2-6.3,0-45.3,1.5-47.6,1.4-1.9,19.3.9,23.5-.9v51.9h-23.5c-.8,0-1.7-2.4-1.5-3.4ZM707,87h-53v-25h50c.3,0,3,5.2,3,5.5v19.5Z"/>
    <path class="st5" d="M931.2,668.7c-.4-.4-.2-1.7-.2-1.7-.3-.2-4.1,1-5.5,1-6.5.2-13-.2-19.5,0v-80h23c.7,24.4-1,49.1,0,73.5,0,2-1,4.1,2,3.5v-79h-27v-27h-28v-28h-56c-.6,25.8.6,51.8,0,77.6,0,1.8-1.1,3.2-1.1,3.4v2c8.3-.8,18.4,1,26.5,0,.8,0,1.5,0,1.5-1l-1-54c-3.3,4.4.4,44.8-1,53h-24l1-79h49.5c.3,0,1.5,1.3,2.5,1v23c-5.6,1-24.9-2.2-28,2h1c7.2-.7,17.6-.2,25,0h3c.3,9-.4,18,0,27h18c2.4,0,8.4-.5,10,0,1,.4.9.5,1,1.5.6,4.4,0,10.7,0,15.5,1.6,1,1,3.8,1,5.5.3,18.4-1.3,39,0,57.1.2,2,.6,2.1,1.1,3.4,6,1,19.1-1.7,24,1,2.4,1.3,0,2.6,0,3-1.1,24-1.3,54.1,0,78,2.7,1.8,1.9,1,2-1.5,1.3-25.8-.9-52.6,0-78.5,8.4,0,16.7-.2,25,1v79c-6.5.2-13-.2-19.5,0-2,0-4.1-1-3.5,2h25v-84c-4-.7-26.4.9-27.8-.3ZM903,585h-26v-25c8.6,2.2,17.2-1,26,0v25Z"/>
    <path class="st5" d="M292,662v7h26v-26.5c0-2.2,2.3-.5,2.5-.5h26.5c-.9-8.6,1.1-19.1,0-27.5,0-.8,0-1.5-1-1.5h-54v44c1.6.7,1.6,4.3,0,5ZM294,615h50.5c.1,0,1.5,1.4,1.5,1.5v23.5h-29v25.5c0,0-1.4,1.5-1.5,1.5h-21.5v-52Z"/>
    <path class="st5" d="M292,609v-9c0-3.8.4-8.4,0-12v-1h-1c-6-.9-53.1,1.6-54-1-1-3,0-21.9,0-27-8.7-.6-18.4.8-27,0h-2c-.4-1.1,1-1.9,1-2v-2c-3-4.8,1-20.9-2-24-7.6-.2-15.4.2-23,0h-3v-28c0-7.9,1-19,0-26.5,0-1.1,0-1.2-1-1.5-5.8,1.7-14.3,1.7-20,0h-6.9c-.1,19,0,38,0,57h2l.5-1,.5,1c7.5.2,15.6-.5,23,0l.5-1,.5,1c.4,0,.8,0,1,0,.8.5.8.3,1,1.5,1.2,7.5-.9,17.6,0,25.5,4.8,1.6,18.4-1.1,24.5,0,.8.2,2.5.8,2.5,1.5v26.5h27.5c2.6,0,.4,6.8.4,8.5-.2,4.5-.3,10,0,14.5l1,3h54v-4ZM155,530v-53h24l1,53h-25ZM207,557h-23c-1.2-8.2,0-15.7,0-24h23v24ZM235,584c-1.3-.5-3,1-3.5,1h-20.5v-24h24v23ZM290.9,607.5c0,.4-1.2,3.3-1.6,3.6-2.4,1.7-34-.3-39.9,0-2,0-10.4,2.3-10.4-.5v-22.5h51.9v19.5Z"/>
    <path class="st5" d="M153,449c.9-2.6,49.8,0,56-1v-110h27v-56h28c.4-9-.3-18,0-27h-26.9l-1,1c1.6-.6,3.7,1,4.5,1h22.5v24h-26.5c-.3,0-1.5,1.3-2.5,1v54h-20.6c-1.6,0-4.2-1-4.4-1-.1,0-.5,1.5-1,1.5-8.6,1-17.4.3-26,.5v83c0,1-.6.9-1.4,1-8.5,1.1-19-.8-27.6,0-1.8,5.4,1.3,20.5,0,27h-28v27h27.9c0-4.9-1-23.1,0-26ZM155,422h28l1-83h23v108h-52v-25ZM128.5,473c0,0-1.5-1.4-1.5-1.5v-19c0-.3,1.3-1.5,1-2.5h23l1,23h-23.5Z"/>
    <path class="st5" d="M737,920c-.2.2-1.4-.3-1.8.2-1.1,1.3.4,20.3-.2,23.8h-219v-22.5c0-.2-1.5-1.1-1-1.5,4.9-.8,24.5,1.5,27-1h-28v27h222.4c1.1,0,.5-1.3.6-2l-1-.5,1-.5c.5-7.5-.4-15.5,0-23Z"/>
    <path class="st5" d="M542.9,837c.9-.9,21.7.5,25.6,0,1.1,0,1.2,0,1.5-1h0c-8.9-.4-18.1,0-27,0h-1v83c2.9-2.9,0-72.3,1-82Z"/>
    <path class="st5" d="M289,724s0,0,0,0h0s0,0,0,0Z"/>
    <path class="st5" d="M294.1,887.5l-.6-163.5c-4.5-4.7-4.2-.6-4.5,0l3,2.5c-2.4,50.6,3.1,103.9,0,154.1,0,2.6-1.1,4.9-1,7.5.3-.2,2.8.7,3.1-.5Z"/>
    <path class="st5" d="M764,807v-110h0c-9,0-18,0-27,0v28c1-.5.8-.4,1-1.5,1.1-7.2-.8-16.9,0-24.5h24l1.4,165.1c.7,1,1.9.9,3,1,21.1,2.6,51.8-.5,73.5-1h-76v-57Z"/>
    <path class="st5" d="M904,780c3,.5,2-1.6,2-3.5.3-7.5-.2-15,0-22.5h22v51c-6.3,1.1-17.6-1.4-23.3,0-1.9.4-.7,2.7-.7,3,3.3-2.5,25,0,26-1v-54h-26c-1,1,.5,22.8,0,27Z"/>
    <path class="st5" d="M792,697v-55h-27c-.3,3.8.3,7.8,0,11.6,0,1.3-1,2.3-1,2.4,0,2,0,4,0,6l1,.5-1,.5c-.2,7.7-.3,16.3,0,24l1,.5-1,1.5c.2,2.7,1.4,5.2,1,8h27ZM766,643h25v52h-25v-52Z"/>
    <path class="st5" d="M211,218.4c0-1.9,1-4-2-3.4v105c3,.5,2-1.6,2-3.5,1.2-31.2,1.1-66.9,0-98.1Z"/>
    <path class="st5" d="M459,946h28v-28h-28v28ZM461,921.5c0,0,1.4-1.5,1.5-1.5h21c.1,0,1.5,1.4,1.5,1.5v23.5c-1.4.6-3-1-3.5-1h-20.5v-22.5Z"/>
    <path class="st5" d="M235,253.9l1-3.5V88.9h3l52-1c1.3-7.9,1.2-16,1-24-3-.5-2,1.6-2,3.5-.2,6.6.2,13.1,0,19.6h-52v-25h54v-1.2h-53.6l-2.4,3.1v9l1,.5-1,1.5c0,3.7.1,7.3,0,11l1,.5-1,.5c0,.9-1,1.9-1,2-1.3,54.9.9,110.1,0,165Z"/>
    <path class="st5" d="M211,206.5c1-24.2.8-51.8,0-76.1,0-1.9,1-4-2-3.4h0c0,27.5,0,55.3,0,82.9,3,.6,2-1.5,2-3.4Z"/>
    <path class="st5" d="M877,782c7.8-.9,17.9,1.1,25.5,0,1.1-.2,1.1-.1,1.5-.9l-25.4-.7c-1,0-2.1.4-2.7,1.3-2.1,3.4-.7,45.3-.9,53.3l2,1h4c6.8-2.3,14.9-.4,22-1v-1h-26v-52Z"/>
    <path class="st5" d="M904,781s0,0,0,0h0s0,0,0,0Z"/>
    <path class="st5" d="M292,117c9.2-1.6,18.7-1,28-1v-9c-2.3-5.4-.4-12.3-1-18-4.6-1.5-17.3,1.1-23,0,.1,0,1.1,1,2.4,1,6.5.3,13.1-.3,19.6,0v25h-22.5c-.7,0-1.4-1.7-1.5-2.5-1.2-6.6.9-16.5,0-23.5h-1l-1,1v27Z"/>
    <path class="st5" d="M793,614v27c8.1,0,17.2-.8,25,1,1-.4.9-.5,1-1.5,1-7.4-.3-17.6,0-25.5-8.5-1.8-17.3-.7-26-1ZM818,640h-24v-22.5c0,0,1.4-1.5,1.5-1.5h22.5v24Z"/>
    <path class="st5" d="M875,840c0,.1-1,1.1-1,2.4-.3,6.8.2,13.8,0,20.6h-25.5c0,0-1.5-1.4-1.5-1.5v-24.5h28v-1h-27c-.5.4-2.8-.6-3.1.6-.6,2.2,1.1,6.2,1.1,8.9.3,6.1,0,12.4,0,18.5,10-.2,20,.2,30,0-2.2-7.5-.5-16.1-1-24Z"/>
    <path class="st5" d="M681,587h-2v24h-27v2h29v-26Z"/>
    <path class="st5" d="M285,891c-6.5-.7-13.5.5-20,1h-1c0,1,0,2,0,3,0,.2,1,1.1,1,2.4.8,14.4-.6,29.6,0,44.1,0,1.2-.8,3.7,1,3.5v-52h23c.4-.9-3.8-2-4-2Z"/>
    <path class="st5" d="M320,143h27v-1h-26v-24h25c.2-1.8-2.3-1-3.5-1-7.5-.3-15,.2-22.5,0v26Z"/>
    <path class="st5" d="M652.1,616.1l-2-3-.2,26.8-14.9,2.1h17v-1c0-8.3-.3-16.7,0-25h.1Z"/>
    <path class="st5" d="M347,144v26c8.3,1.1,20.2-1.5,28,0-3.4-2.6-25.9,0-27-1v-25h-1Z"/>
    <path class="st5" d="M211,120.5c.2-4.9.2-10.2,0-15.1,0-1.9,1-4-2-3.4v21.9c3,.6,2-1.5,2-3.4Z"/>
    <path class="st5" d="M267,724h4l7.5-2c-2.6,0-5.3,0-8,0-2,0-4.1-1-3.5,2Z"/>
    <path class="st5" d="M232,89h-14c3.4,1.7,10.4,1.7,14,0Z"/>
    <path class="st5" d="M216,89h-7v2c2.8-1.5,7.8,2,7-2Z"/>
    <polygon class="st5" points="209 329 210 328.5 209 328 209 329"/>
    <path class="st5" d="M292,145v-1h-27v111h27c1.2-3.8-1.1-27.9,0-29-1.2.8-1.7.6-2,2.5-1.3,7.4,1.3,16.9,0,24.5h-24v-108h24v26c1-.3,2.2,1,2.5,1h25.5v53c-5.9-1.2-21.1-2.5-26,1h28v-55c-1.4-1.1-23.6.7-27.4,0-1.2-.2-.4-1.5-.6-2-1.8-4.6-1-13.1-1-18.5s-.7-4.5,1-5.5Z"/>
    <path class="st5" d="M736.8,751.2c-1.3-1.1-23,.4-26.8-.2v-25c8.4-.6,17.9,1.3,26-1v-.2c-4.3.6-27-1-28,0,1,8-1.4,19.5,0,27l1,1c4.2.8,26.6-1,28,0,0-.4.2-1.3-.2-1.6Z"/>
    <path class="st5" d="M737,752.8c0,.1,0,.2,0,.2s0,0,0,0c0,0,0-.1,0-.2,0,0,0,0,0,0Z"/>
    <path class="st5" d="M737,753c.3,5-.3,10.2,0,15.3,0,1.3,1,2.6,1,3v94c0,.4-1,1.7-1,3-.3,7.5.2,15,0,22.5h-29v27h-110.4c-1.2-.2-.4-1.5-.6-2-1.9-4.8-1.5-14.8,0-20v-4c-.2-.2-1.7-.2-2-1h-24c.8-8.2-1-18.1,0-26-3-.5-2,1.6-2,3.5-.2,3.1-.5,21.6.2,22.4.5.5,1.6,0,1.8.2s-.3,1.4.2,1.8c1.3,1.1,20.3-.4,23.8.2v25.5c0,0,1.4,1.5,1.5,1.5h113.5v-27c3.8-.6,25.4,1,26.8-.2.5-.5.1-1.7.2-1.8.2-.1,2.4.6,2.1-1.4v-135.1c.3-2-1.9-1.2-2.1-1.4Z"/>
    <path class="st5" d="M626,780v-27c-17.9.6-36.1-.8-54,0h-1v28c0,17,.5,34-1,51l1,4c3.6-2-.7-72.3,1-82h52v25h-26.5c0,0-1.5,1.4-1.5,1.5v82.5c-7.2.8-16.5-1-23.5,0-1.2.2-1.1,0-1.5,1h26c1.3-27.6-1-56.3,0-84h29Z"/>
    <path class="st5" d="M460,781h-29v55h-28c.4,1,.5.9,1.5,1,8.6,1.1,19.5-.8,28.5,0v-52.5c0,0,1.4-1.5,1.5-1.5h23.5l-1.5,106h-24.5c2.6-8.3.2-17.5,0-26h-27.5c-.3,0-1.5,1.3-2.5,1v27.5c0,0,1.4,1.5,1.5,1.5h25.5v52h2v-54h-27v-26h27v26h29v-110Z"/>
    <path class="st5" d="M292.8,890.8c-.4,0-.7.1-.8.2.3,0,.5-.1.8-.2Z"/>
    <path class="st5" d="M319,754l-1-57c-5-1.6-18.9,1.2-25,0,0,0-1.9.8-.5,1h24.5v192c-7.8.6-16.6-1.2-24.2.8,4.1-.4,22.1,1.2,25.2.2l1-110v-2c-1.7-2.9-1.7-9.3,0-12v-7l-1-.5,1-.5v-5Z"/>
    <path class="st5" d="M376,903.5v9.9c0-3.3.1-6.6,0-9.9Z"/>
    <path class="st5" d="M376,918v-4.6c0,1.5,0,3.1,0,4.6Z"/>
    <path class="st5" d="M376,903.5v-12.5c0,4.3,0,8.1,0,12.5Z"/>
    <rect class="st5" x="292" y="919" width="84" height="1"/>
    <rect class="st5" x="401" y="808" width="1" height="27"/>
    <path class="st5" d="M290.9,672.4c-.5,6.3-.4,17.8,1.1,23.6v-26c-.6.9-1,.8-1.1,2.4Z"/>
    <rect class="st5" x="290" y="892" width="1" height="26"/>
    <path class="st5" d="M632,642c-.8-2-5.5-.5-6-1-1-1,1.5-23.7-1-27,.5,5.2-1.3,25.7,1,28h6Z"/>
    <path class="st5" d="M787.5,394c1.4,0,4.1.7,4.5-1-6.8.2-13.7-.3-20.5,0-1.2,0-3.7-.7-3.5,1,6.5-.2,13,.3,19.5,0Z"/>
    <path class="st5" d="M356,530.9h20c1.3-6.5-1.8-21.7,0-27,.1-.4,0-.9.6-.9,1.1-.2,2.3,0,3.4,0,1.3-.1,2.7,0,4,0,5.3-.1,12.3-.7,17,1h2v-28h0c-26.7.7-53.8-1.2-80.5,0-1.2,0-3.7-.8-3.5,1h82v25h-24.5c-.3,0-1.5,1.3-2.5,1v27c-2.8-.6-19-1.6-19,1.5v26.5h-13v-27c-1,.3-2.2-1-2.5-1h-18.5c-.6-8.4,1.3-17.9-1-26,.8,4.9-1.5,24.5,1,27h19v28h16c.2-9.3-.2-18.7,0-28Z"/>
    <path class="st5" d="M432,585.9v-27h28v-28c-7,1.4-23.3-1.9-29,0-.8,8.3,1,18.4,0,26.5,0,.8,0,1.5-1,1.5h-74c0,.6-1,2-1,3.5-.2,7.8.1,15.7,0,23.5h77ZM433,534.5c0,0,1.4-1.5,1.5-1.5h22.5c1.5,8.2,1,16.7,1,25-8.1-.6-16.5-1.1-25-1v-22.5ZM357,560c1.4-.6,3,1,3.5,1h68c.1,0,1.5,1.4,1.5,1.5v21c0,0-1.4,1.5-1.5,1.5h-71.5v-25Z"/>
    <path class="st5" d="M270.5,422h22.5c-.3-1,1-2.2,1-2.5v-25.5c7.8.9,15.2.3,23,0l2,81v-82h-27v27h-27v55c8.2.8,18.1-1,26,0v-2c-3.1-.5-24,1.3-24-1.5v-48.5c1.3.5,3-1,3.5-1Z"/>
    <path class="st5" d="M514,422c.2-1.8-2.3-1-3.5-1-7.3-.3-15.5,1.1-22.5-1-.7.2-1.7.7-1.7,1.5l-.3,53.5h56v-82h-28v27l.8-.6c1.6-8.4.7-16.8,1.2-25.4,1.1-.4,2.2,1,2.5,1h20c.3,0,.8-1.3,1.5-1v80c-11.9,0-23.4-1.2-35.5-1-2.4,0-16.5,2.9-16.5-.5v-50.5h26Z"/>
    <path class="st5" d="M319,503c-8.1-2.3-17.6-.4-26-1-.9-.9.6-21.6,0-25.5q0-1.1-1-1.5v29c8.6-2.2,18.2-.4,27-1Z"/>
    <path class="st5" d="M652,170c-.5,1-.4.8-1.5,1-6.1.9-19.9-1.5-24.5,0-.9,8.4,1.1,18.8,0,27,3,.6,2-1.5,2-3.4.2-7.5-.2-15.1,0-22.6h23.5c0,0,1.5-1.4,1.5-1.5v-26.5h26v81c-5.1.6-11.5-1.3-16,1h17c0-27.6,0-55.4,0-83-.3-.2-.7-1-1-1-6.7-.9-18.9-.3-26,0h-1c-.8,8.5,1.1,18.8,0,27v1Z"/>
    <path class="st5" d="M598,226h27v29c9-.3,18.1.4,27,0,0-9.7-.6-19.5,1-29h-2v27h-22.5c-.3,0-.8,1.3-1.5,1v-28c-1,.3-2.2-1-2.5-1h-25.5v-25c7.8-.9,17.9,1.1,25.5,0,1.2-.1,1.1-.1,1.5-1h-28c.2,9,0,18,0,27Z"/>
  </g>
  <g>
    <path class="st4" d="M431,945h2l-2-50v50Z"/>
    <path class="st4" d="M431,531c-1,.4-.9.5-1,1.5-1.1,8,.8,18.2,0,26.5,1,0,.9-.7,1-1.5,1.1-8-.8-18.2,0-26.5Z"/>
    <path class="st4" d="M598,917c-.8-4.8,1.5-22.3-1-25v4c.2,6.7,0,13.3,0,20,.2.5-.6,1.8.6,2h54.4v-1h-54Z"/>
  </g>
  <g>
    <path class="st0" d="M766.4,865.1c-1.1,0-2.3,0-3-1l-1.4-165.1h-24c-.8,7.5,1.1,17.2,0,24.5-.2,1.2,0,1.1-1,1.5v.3h-1.1c-8.1,2.3-17.6.4-26,1v25c3.8.6,25.4-1,26.8.2.5.5.1,1.7.2,1.8.2.1,2.4-.6,2.1,1.4v135.1c.3,2-1.9,1.2-2.1,1.4s.3,1.4-.2,1.8c-1.3,1.1-23-.4-26.8.2v27h-113.5c0,0-1.5-1.4-1.5-1.5v-25.5c-3.5-.6-22.5,1-23.8-.2-.5-.5,0-1.6-.2-1.8s-1.4.3-1.8-.2c-.7-.9-.3-19.4-.2-22.4,0-2-1-4.1,2-3.5v-1c.5-1,.4-.8,1.5-1,6.9-1.1,16.2.8,23.5,0v-82.5c0,0,1.4-1.5,1.5-1.5h26.5v-25h-52c-1.7,9.7,2.6,80-1,82h-1c-.4,1-.5.9-1.5,1-4,.5-24.7-.9-25.6,0-1.1,9.5,1.8,75.8-.8,81.7v-82.8h-1v82h-27v1h27.9s0,0,0,0c-2.5,2.5-22.1.2-27,1-.5.4,1,1.3,1,1.5v22.5h219c.6-3.5-1-22.5.2-23.8.5-.5,1.6-.1,1.8-.2s-.4-1.7.7-2c2.8-.7,15,0,18.9,0,1.7,0,8.5,2.2,8.5-.5v-26.5h81v-27h-6c-21.6.4-52.4,3.5-73.5,1Z"/>
    <path class="st0" d="M433,784.5v52.5c-8.9-.9-19.8,1.1-28.5,0-1.1,0-1.2,0-1.5-1-1.9-5.7,1.4-22,0-29h-1c-7.3-1-18.1,0-26,0v111h-84v-27c7.8-2.3,16.9-.4,25-1v-192h-24.5c-1.4-.2.5-1,.5-1-.3-.5-1-1-1-1-1.6-5.8-1.6-17.3-1.1-23.6.2-1.6.6-1.5,1.1-2.4.2-.3.8-.6,1-1h-29v55h3c-.5-3,1.6-2,3.5-2h8l-7.5,2c3.1-.7,16.6.9,18,0,.3-.2-.2-4.9,4.5,0l.6,163.5c-.3,1.1-2.9.3-3.1.5-.7.7,2.1,4.4-5.9,3,.6.1,4.3,1.1,3.9,2h-23v52c-1.8.2-1-2.3-1-3.5-.6-14.5.8-29.7,0-44.1,0-1.3-1-2.2-1-2.4v51h167v-1h-2v-52h-25.5c0,0-1.5-1.4-1.5-1.5v-27.5c1,.3,2.2-1,2.5-1h27.5c.2,8.5,2.6,17.7,0,26h24.5l1.5-106h-23.5c0,0-1.5,1.4-1.5,1.5ZM291,918h-1v-26h1v26ZM376,920h-84v-1h84v1ZM402,835h-1v-27h1v27Z"/>
    <path class="st0" d="M285.1,891s0,0,0,0c0,0,0,0,0,0Z"/>
    <path class="st0" d="M263,257h-22.5c-.7,0-2.9-1.6-4.5-1l1-1-1-164v159.5l-1,3.5c1-54.9-1.3-110.1,0-165h-3c-3.6,1.7-10.6,1.7-14,0v.2h-2c.8,4-4.2.5-7,2-.2,3.6,0,7.4,0,11,3-.6,2,1.5,2,3.4.2,4.9.2,10.2,0,15.1,0,1.9,1,4-2,3.4v3c3-.6,2,1.5,2,3.4.8,24.3,1,51.9,0,76.1,0,1.9,1,4-2,3.4v5c3-.6,2,1.5,2,3.4,1.1,31.2,1.2,66.9,0,98.1,0,2,1,4.1-2,3.5v8l1,.5-1,.5v6c.2-.1,2.7,1,4.4,1h20.6v-54c1,.3,2.2-1,2.5-1h26.5v-24Z"/>
    <path class="st0" d="M375,170c.8,0,.9.2,1,1h190.5l3.5,1h-193v25h219c.4-16.5-.4-33.1,0-49.6,0-1.9,1-3.6,1-4.4h-27v27h-194v-27c-9.2.6-19.2-1.2-28,1v25c1.1,1,23.6-1.6,27,1Z"/>
    <path class="st0" d="M624.9,613v.9c2.5,3.3,0,26,1,27s5.2-1,6,1h3l14.9-2.1.2-26.8,2,3v-5h27v-24h2c18.4-.9,37.5.7,56,0-.8-8.9,1-19.3,0-28,0-.5-1.4-1.7-1-2h27v-22.5c0,0-1.4-1.5-1.5-1.5h-50.5v27c-1-.3-2.2,1-2.5,1h-54.5v24.5c0,.3-1.3,1.5-1,2.5h-54v24c8.4.6,17.8-1.3,25.9,1Z"/>
    <path class="st0" d="M906,776.5c0,2,1,4.1-2,3.5v1c-.5,1-.4.8-1.5,1-7.5,1.2-17.6-.9-25.5,0v52h26c.8-9,1-16.8,1-26s-1.2-2.5.7-3c5.6-1.4,16.9,1.1,23.3,0v-51h-22c-.2,7.4.3,15,0,22.5Z"/>
    <path class="st0" d="M652,641v28h26.5c.3,0,1.6,1,2.3,1.2l.2,53.8c2.9,1,22,0,27,0v-55h-26v-28h-30Z"/>
    <path class="st0" d="M932,671c-.9,25.9,1.2,52.7,0,78.5,0,2.5.7,3.3-2,1.5v1c0,.2.8.6,1,1h3c-.5-3,1.6-2,3.5-2,6.5-.2,13,.2,19.5,0v-79c-8.3-1.2-16.6-1-25-1Z"/>
    <path class="st0" d="M925.5,668c1.5,0,5.3-1.2,5.5-1v-2c-3,.5-2-1.6-2-3.5-1-24.4.7-49,0-73.5h-23v80c6.4-.2,13,.2,19.5,0Z"/>
    <path class="st0" d="M292,64v-2h-54v25h52c.2-6.5-.2-13.1,0-19.6.1-1.9-1-4,2-3.4Z"/>
    <path class="st0" d="M789.5,419c1.5,0,3,1,3.5,1-.8-4.9,1.5-24.5-1-27-.4,1.7-3.1,1-4.5,1-6.5.3-13-.2-19.5,0-.2-1.8,2.3-1,3.5-1,6.8-.3,13.7.2,20.5,0h0c-2.4-2.4-20.9-.3-26-1v27c7.9.2,15.8-.3,23.6,0Z"/>
    <path class="st0" d="M847,861.5c0,0,1.4,1.5,1.5,1.5h25.5c.3-6.8-.3-13.8,0-20.6,0-1.3,1-2.3,1-2.4v-3h-28v24.5Z"/>
    <path class="st0" d="M320,117c7.5.2,15-.3,22.5,0,1.2,0,3.7-.8,3.5,1h-25v24h26v-26h-27v1Z"/>
    <path class="st0" d="M818,448v-26h-24v26c7.3,0,17.1.8,24,0Z"/>
    <path class="st0" d="M294,112.5c.1.8.8,2.5,1.5,2.5h22.5v-25c-6.5-.3-13.1.3-19.6,0-1.3,0-2.3-1-2.4-1h-2c.9,7-1.2,16.9,0,23.5Z"/>
    <path class="st0" d="M793,697v-55c1-1,21.7,1.1,25,0-7.8-1.8-16.9-1-25-1h-29v15c0-.1,1-1.1,1-2.4.3-3.8-.2-7.8,0-11.6h27v55h1Z"/>
    <path class="st0" d="M292,61l-56-1v4l2.4-3h53.6Z"/>
    <path class="st0" d="M239,89l27.9-.5c-9.6-.1-19.3,0-27.9.5Z"/>
    <path class="st0" d="M291,88l-24.1.5c8.3.1,16.5.4,24.1.5v-1Z"/>
    <path class="st0" d="M180.6,421c.8-.1,1.4,0,1.4-1-8.7.9-19.2-1.1-27.6,0-1,0-1.1,0-1.4,1,8.7-.9,19.2,1.1,27.6,0Z"/>
    <path class="st0" d="M762,559h3v-27h0c-1,.3-.9.4-1,1.4-1,6.8.5,15.2,0,22.2-.2,2-.2,2.4-2.1,3.4Z"/>
    <path class="st0" d="M903,835c-7.1.6-15.2-1.3-22,1h23c.3-.8-1-.8-1-1Z"/>
    <path class="st0" d="M320,107c0-5.1.6-11.9,0-16.6,0-1,0-1.1-1-1.4.6,5.7-1.3,12.6,1,18Z"/>
    <path class="st0" d="M292,657v5c1.6-.7,1.6-4.3,0-5Z"/>
    <path class="st0" d="M819.9,447.4c.3-.8,0-1.6,0-2.4l-1,3c.4-.1.9,0,.9-.6Z"/>
    <path class="st0" d="M237.1,612.4l.9.6h.1l-1-3c0,.8-.2,1.6,0,2.4Z"/>
    <path class="st0" d="M794,420l2,1c0,0-.3-1-2-1Z"/>
    <polygon class="st0" points="875 836 877 836 875 835 875 836"/>
    <path class="st0" d="M820,434l-1,1.5,1,.5v-2Z"/>
    <path class="st0" d="M764,687v2l1-1.5-1-.5Z"/>
    <path class="st0" d="M236,73v2l1-1.5-1-.5Z"/>
    <path class="st0" d="M820,422l-1,.5,1,.5v-1Z"/>
    <path class="st0" d="M155,532h1l-.5-1-.5,1Z"/>
    <path class="st0" d="M179,532h1l-.5-1-.5,1Z"/>
    <path class="st0" d="M264.5,891l-.5,1h1l-.5-1Z"/>
    <polygon class="st0" points="292 90 293 89 292 89 292 90"/>
    <path class="st0" d="M764,662v1l1-.5-1-.5Z"/>
    <polygon class="st0" points="236 86 236 87 237 86.5 236 86"/>
    <path class="st0" d="M737,944v-1l-1,.5,1,.5Z"/>
    <path class="st0" d="M292,143h-27v1h27v-1Z"/>
    <path class="st0" d="M292,145c-1.6,1.1-1,3.8-1,5.5,0,5.4-.9,13.9,1,18.5-.2-8,.3-16,0-24Z"/>
    <polygon class="st0" points="738 392 738 393 741 393 738 392"/>
    <path class="st0" d="M709,753l-1-1c0,.8.2.9,1,1Z"/>
    <path class="st0" d="M764,475c.5.2,1.8-.6,2,.6v54.4h25v-80h-52v24c7.5.9,18.3-1.6,25,1Z"/>
    <rect class="st0" x="572" y="615" width="24" height="25"/>
    <path class="st0" d="M621,586h-5c.7,1.6,4.3,1.6,5,0Z"/>
    <path class="st0" d="M605,586h-5c.7,1.6,4.3,1.6,5,0Z"/>
    <path class="st0" d="M711,284v25c7.4.2,15-.3,22.5,0,2,0,4.1-1,3.5,2h1l1,80h24l-1-246h-22.9v135.6c.3,2-1.9,1.2-2.1,1.4-.2.2.3,1.4-.2,1.8-1.3,1.1-22.1-.4-25.8.2Z"/>
    <path class="st0" d="M930,670v3c0-.4,2.4-1.7,0-3Z"/>
    <polygon class="st0" points="183 422 155 422 155 447 207 447 207 339 184 339 183 422"/>
    <path class="st0" d="M874,557v-23c-1,.3-2.2-1-2.5-1h-49.5l-1,79h24c1.4-8.2-2.3-48.6,1-53,3.1-4.2,22.4-1,28-2Z"/>
    <path class="st0" d="M903,560c-8.8-1-17.4,2.2-26,0v25h26v-25Z"/>
    <path class="st0" d="M707,67.5c0-.3-2.7-5.4-3-5.5h-50v25h53v-19.5Z"/>
    <path class="st0" d="M735,90h0c0,.1,0,.1,0,0h0Z"/>
    <path class="st0" d="M711.5,142h23.5v-51.9c-4.2,1.6-22.2-1-23.5.9-1.6,2.3-.3,41.3-1.5,47.6-.3,1,.7,3.4,1.5,3.4Z"/>
    <polygon class="st0" points="155 477 155 530 180 530 179 477 155 477"/>
    <path class="st0" d="M184,557h23v-24h-23c0,8.3-1.2,15.8,0,24Z"/>
    <path class="st0" d="M160,475c5.7,1.7,14.2,1.7,20,0-2.6-.9-15.8,0-20,0Z"/>
    <path class="st0" d="M600.5,142h24.5c-.9-7.8.8-16-1-24h-24c.3,1-1,2.2-1,2.5v20c0,0,1.4,1.5,1.5,1.5Z"/>
    <path class="st0" d="M650,113.5v-22.5h-22v24h20.5c0,0,1.5-1.4,1.5-1.5Z"/>
    <path class="st0" d="M346,616.5c0,0-1.4-1.5-1.5-1.5h-50.5v52h21.5c.1,0,1.5-1.4,1.5-1.5v-25.5h29v-23.5Z"/>
    <rect class="st0" x="766" y="643" width="25" height="52"/>
    <path class="st0" d="M211,585h20.5c.5,0,2.2-1.5,3.5-1v-23h-24v24Z"/>
    <path class="st0" d="M281.2,586.8l9.8.2c-1.4-.2-5.1-.2-9.8-.2Z"/>
    <path class="st0" d="M281.2,586.8l-44.2-.8c.7,2,28.5,1,44.2.8Z"/>
    <path class="st0" d="M289.4,611.1c.4-.3,1.6-3.3,1.6-3.6v-19.5h-51.9v22.5c0,2.8,8.3.5,10.4.5,5.9-.2,37.5,1.8,39.9,0Z"/>
    <path class="st0" d="M483.5,920h-21c0,0-1.5,1.4-1.5,1.5v22.5h20.5c.5,0,2.1,1.6,3.5,1v-23.5c0,0-1.4-1.5-1.5-1.5Z"/>
    <path class="st0" d="M128,450c.3,1-1,2.2-1,2.5v19c0,0,1.4,1.5,1.5,1.5h23.5l-1-23h-23Z"/>
    <path class="st0" d="M818,616h-22.5c0,0-1.5,1.4-1.5,1.5v22.5h24v-24Z"/>
    <path class="st0" d="M355,531.5c0-3.1,16.2-2.1,19-1.5v-27c1,.3,2.2-1,2.5-1h24.5v-25h-82c-.2-1.8,2.3-1,3.5-1,26.7-1.1,53.8.8,80.5,0l-84-1-2-81c-7.8.3-15.2.9-23,0v25.5c0,.3-1.3,1.5-1,2.5h-22.5c-.5,0-2.2,1.5-3.5,1v48.5c0,2.8,20.9,1,24,1.5v2c.4,0,.8-.1,1,0,1,.5.8.4,1,1.5.6,3.9-.9,24.6,0,25.5,8.4.6,17.9-1.3,26,1l1,1c2.3,8.1.4,17.6,1,26h18.5c.3,0,1.5,1.3,2.5,1v27h13v-26.5Z"/>
    <path class="st0" d="M540,394c-.7-.3-1.2,1-1.5,1h-20c-.3,0-1.4-1.4-2.5-1-.5,8.6.4,17-1.2,25.4l-.8.6c-7.7,1-18.8-1.4-26,0,7,2.1,15.2.7,22.5,1,1.2,0,3.7-.8,3.5,1h-26v50.5c0,3.4,14.2.5,16.5.5,12-.2,23.5,1,35.5,1v-80Z"/>
    <path class="st0" d="M319,753v-54.5c0-1.1,0-1.2-1-1.5l1,57v-1Z"/>
    <path class="st0" d="M290,228.5c.4-1.9.9-1.7,2-2.5,4.9-3.5,20.1-2.2,26-1v-53h-25.5c-.3,0-1.5-1.3-2.5-1v-26h-24v108h24c1.3-7.6-1.3-17.1,0-24.5Z"/>
    <path class="st0" d="M597,896c-1.5,5.2-1.9,15.2,0,20,0-6.7.2-13.3,0-20Z"/>
    <path class="st0" d="M597,891h-2c.3.8,1.8.8,2,1,0-.3,0-.8,0-1Z"/>
    <path class="st0" d="M318.7,819.5l-.7,71.5c1.4-.5.9-1.4,1-2.5,2.6-20.9.6-45.3-.3-69Z"/>
    <path class="st0" d="M318.7,819.5l.3-38.5c-1.1,12.1-.9,25.2-.3,38.5Z"/>
    <path class="st0" d="M319,779v-12c-1.7,2.7-1.7,9.1,0,12Z"/>
    <polygon class="st0" points="319 760 319 759 318 759.5 319 760"/>
    <path class="st0" d="M627,226v28c.7.3,1.2-1,1.5-1h22.5v-27h2c3.3,0,6.6,0,10,0,4.5-2.3,10.9-.4,16-1v-81h-26v26.5c0,0-1.4,1.5-1.5,1.5h-23.5c-.2,7.5.2,15.1,0,22.6,0,1.9,1,4-2,3.4v1c-.5,1-.4.8-1.5,1-7.5,1.1-17.6-.9-25.5,0v25h25.5c.3,0,1.5,1.3,2.5,1Z"/>
    <path class="st0" d="M430,583.5v-21c0,0-1.4-1.5-1.5-1.5h-68c-.5,0-2.1-1.6-3.5-1v25h71.5c.1,0,1.5-1.4,1.5-1.5Z"/>
    <path class="st0" d="M457,533h-22.5c0,0-1.5,1.4-1.5,1.5v22.5c8.5,0,16.9.4,25,1,0-8.4.5-16.8-1-25Z"/>
  </g>
  <g>
    <path class="st1" d="M738,448h27v-28h-27v-26c8.5-.6,18,1.3,26-1h-55v-111h28v-138l-1,137h-27l-1,1v29h-27c-.2-9.6.3-19.4,0-29,0-.9-1-1.8-1-2,.5,3-1.6,2-3.5,2-8.1.3-16.3-.2-24.5,0v-25c-5.9-1-23.1,1.7-27.3-.9-4.2-2.7.7-23-.7-28.1h-28v-2h-26v-25l-190.5-1c-.8,0-1.6.2-2.1.9-1.7,2.6.9,17.3-1.4,23.1-.2.5.6,1.8-.6,2h-28.4v-83h-27v-27c-9.3,0-18.8-.6-28,1v-28h-1c-16.3-.4-36-1.1-52,0h-3v2l1,164h27c-.3,9,.4,18,0,27v2h-26v54c-1-.3-2.2,1-2.5,1h-25.5v81h27v-54h27v-28h26.5c.1,0,1.5-1.4,1.5-1.5v-25.5h28v27h27v28c0,.4,7-.4,7,0v82h-33v26h82v-25h29v-83h28v-28h26v-27h56v27h28v28h27l1,27h28v27h24.5c0,0,1.5,1.4,1.5,1.5v27.5h29v26h28v-27h29ZM266,282h-1v-20h1v20ZM319.9,228h-26v26.5c0,.2-2.3,2.5-2.5,2.5h-20.5c-.2-1.8,2.3-1,3.5-1,5.1-.2,11.3.6,16.1,0,1.1-.1,1.2,0,1.5-1h-27v-112h0c1-1.6,3.8-1,5.5-1,6.9-.1,15-.8,21.5,1v2c.3,8-.2,16,0,24,.2.5-.6,1.8.6,2,3.9.8,26.1-1.1,27.4,0,2.2,1.8,1.1,50.4,0,57Z"/>
    <path class="st1" d="M598,199h-26c.1,0,1.1,1,2.4,1,7.2.3,14.4-.2,21.6,0,.3,8.6-.4,17.4,0,26h2c0-9,.2-18,0-27Z"/>
    <path class="st1" d="M711,503l52-1v-25c-16.1-.4-32.3.5-48.5,0-2-.1-4.1,1-3.5-2h-2v28h2Z"/>
    <path class="st1" d="M793,697h-29v110h55v-54h-26v-56Z"/>
    <path class="st1" d="M597,142c1.7-6.8,1.7-16.2,0-23-.2,7.6.2,15.4,0,23Z"/>
    <path class="st1" d="M682,753c-.3,0-1.2.3-1.8,0l.8-26.9h-29c.3-1-1-2.2-1-2.5v-26.5h-26v-28c-6.8-1.3-22.5,1.8-28,0-1-.4-.9-.5-1-1.5-1-7.4.7-16.8,0-24.5h-53c-.8,7.7,1,17,0,24.5,0,1.1,0,1.2-1,1.5h-.1c-3.3,1.1-22.6,0-28,0-.8,7.7.9,16.9,0,24.5,0,1.1-.4,3.5-1.5,3.5h-26.5v27h-55v29h-55v-27.5c0,0-1.4-1.5-1.5-1.5h-26.5v-27h-28l-1,56v28h1v-28h28v27c5.4,2.3,25.3-.7,28,2s.2,19.5,1,24c1,1,21.8-1.5,25,1h1c1,.5.8.4,1,1.5,1.1,7.5-.9,17.6,0,25.5h26v-52.5c0-.3,1.3-1.5,1-2.5h29c-.3,1,1,2.2,1,2.5v82.5h26v27h27v27h1c3.2-2.5,24,0,25-1l1-82v-54h28v53c-7.4.2-15-.2-22.5,0-2,0-4.1-1-3.5,2,8.9,0,18.1-.4,27,0,.3-.8,0-2.8,0-4,1.5-17,1-34,1-51h-1c-1.8-6.9-1-15.3-1-22.5s-.7-4.5,1-5.5h2c-1.8-2.7-1-1.9,1.5-2,17.2-.9,35.1.5,52.4,0,1.8,1.1,1.2,19.9,1.2,23.4s.7,4.5-1,5.5h-29c-1,27.7,1.3,56.4,0,84h29v27h27c3.4-2.6,25.9,0,27-1v-26h2c8.3-.4,16.7.3,25,0v-110c-7.4-.9-18.4,1.7-25-1Z"/>
    <path class="st1" d="M571,865c-1,7.9.8,17.8,0,26h26c-.5-.8-.3-.8-1.5-1-6.9-1.1-16.2.8-23.5,0v-24h25v-2h-26v1Z"/>
    <path class="st1" d="M349.4,807c-1.4,0-1.4,0-2.4-1-2.5-2.5-.2-19.4-1-24h-26v82h27v27h29v-84c-8.2,0-18.8.9-26.6,0Z"/>
    <path class="st1" d="M847,669l1,28h27v27h1c8.5-2.3,18.2-.4,27-1v-135h-28v-2c-.4-8.9.3-18,0-27h-3c.5,3-1.6,2-3.5,2-6.8.2-13.7-.2-20.5,0v53h27v55h-28Z"/>
    <path class="st1" d="M903.8,753.8c0-.3.1-.6.2-.9-.1.1-.2.4-.2.9Z"/>
    <path class="st1" d="M903.8,753.8c-1.9,7.9-.2,17-.8,25.1h-28c.3,1-1,2.2-1,2.5v52.5c-3.8.7-24.4-.9-25.8.3-.4.4-.2,1.7-.2,1.7h27v-1c.2-8-1.2-49.9.9-53.3.6-.9,1.7-1.2,2.7-1.3l25.4.7v-1h0c.4-3.9-.7-21.8-.2-26.2Z"/>
    <path class="st1" d="M930,750.7l-.7-55.9c-.4,18.8-.2,38.9.7,55.9Z"/>
    <path class="st1" d="M930,670c-4.9-2.7-18,0-24-1,.2.5-.6,1.8.6,2h22.4l.3,23.8c.2-7.6.4-14.9.7-21.8v-3Z"/>
    <path class="st1" d="M930,751c0-.1,0-.2,0-.3v1.3c0-.3,0-.7,0-1Z"/>
    <path class="st1" d="M821,780l2,1c0,0-.3-.8-2-1Z"/>
    <path class="st1" d="M817.5,643h-23.5v26h25v-24.5c0,0-1.4-1.5-1.5-1.5Z"/>
    <path class="st1" d="M632,642h-6c1.8,1.8,18.6,1.5,22,0h-16Z"/>
    <path class="st1" d="M651,671h29c.8,5.9-1.5,52.2,1,53l-.2-53.8c-.7-.2-1.9-1.2-2.3-1.2h-26.5v-21c-3-.5-2,1.6-2,3.5-.2,6.3-.5,13.4,1,19.5Z"/>
    <path class="st1" d="M598,616.4c-.9,7.4.2,16.8,0,24.6,2.3-8.5.4-18.2,1-27-1,1-.8,1-1,2.4Z"/>
    <path class="st1" d="M651,642h-1c-.4,2.8,1.4,2.8,1,0Z"/>
    <path class="st1" d="M764,504h0c0,0-1,0-1,0v26c-1.7,1.8-42.5-.9-49.6,0-1.6.2-1.7.8-2.4,1.1h53v-27Z"/>
    <path class="st1" d="M570,613h-1v29h2c-.2-9.7.7-19.5-1-29Z"/>
    <path class="st1" d="M763,475h-2l1.5,1,.5-1Z"/>
    <path class="st1" d="M903,586c-1.6-.5-7.6,0-10,0,2,1.7,7.8,1.7,10,0Z"/>
    <polygon class="st1" points="878 586 877 586 877.5 587 878 586"/>
    <path class="st1" d="M209,555v2l1,2c8.6.8,18.3-.6,27,0v-28h-28c0,8,.3,16.1,0,24Z"/>
    <path class="st1" d="M184,531c7.6.2,15.4-.2,23,0-1.8-1.8-19.5-1.5-23,0Z"/>
    <path class="st1" d="M598,144c-1.8.8-1,13-1,16,2.3-4.5.4-10.9,1-16Z"/>
    <path class="st1" d="M292,609c1.7-1.9,1.7-7.1,0-9v9Z"/>
    <path class="st1" d="M292,588c1.3,0,1.5-2,.5-2l-.5,1v1Z"/>
    <path class="st1" d="M349,642h110v27h28c.3-9-.4-18.1,0-27v-2h26c1-1-1.5-22.7,1-26v-1h-165v29Z"/>
    <path class="st1" d="M681,531v-28h0c-9.7,0-19.3,0-29,0v28h-26v28h-29v26h54c0-7.1,0-14.3,0-21.5s-.9-3.3-.9-4,1.7-.2,1.9-.4c.1-.2-.6-2.4,1.4-2h54.6v-26c-4.1-.8-26,1-27,0Z"/>
    <polygon class="st1" points="596 586 541 586 541 613 544 613 596 612 596 586"/>
    <path class="st1" d="M402,504c-7.6,2.3-16.9.4-25,1v26h26v-27h-1Z"/>
    <rect class="st1" x="238" y="559" width="26" height="26"/>
    <path class="st1" d="M155.1,465.5c-.1,1.7-2.3,8.5.4,8.5h25.5v-24h-25.9c-.2,5.1,0,10.3,0,15.5Z"/>
    <rect class="st1" x="294" y="586" width="6" height="26"/>
    <path class="st1" d="M292,503v-28c-.2-.1-.6,0-1,0,.5,9.2-1.2,19.1,1,28Z"/>
    <path class="st1" d="M319,556.5c.1,1.2-.5,2,1,2.5h0c-1.3-6.6,1.8-21.7,0-27.1-1.6,1-1,3.8-1,5.5,0,5.7-.6,13.8,0,19.1Z"/>
    <path class="st1" d="M292,530c0,0-1,.2-1,.5.2.5.6.5,1,.5v-1Z"/>
    <path class="st1" d="M625,196.3c.7-7.5-.9-16.6,0-23.9,0-1,0-1.1,1-1.4v-1c7.5-2.3,16.2-.4,24-1,1-1.1-1.5-23.6,1-27h2c6.2-1.8,14-1,20.5-1s4.5-.7,5.5,1c.3,0,.7.8,1,1,.4.2,1.8-.6,2,.6v27.4c3.3-2.1,6.1-.1,9.5,0,5.8.3,11.7-.2,17.5,0v-28h-2v-53h-53v27c-1-.3-2.2,1-2.5,1h-23.5c-.6,3.6,1,23.5-.2,24.8-.5.5-1.7,0-1.8.2h0c-.2,0,.3,1.3-.2,1.7-1.3,1.1-23-.4-26.8.2v53h22.5c.3,0,3.5-1.2,3.6-1.6Z"/>
    <path class="st1" d="M663,226c-3.4,0-6.7,0-10,0-1.6,9.5-1,19.3-1,29h2v-27c7.1-.2,14.3.3,21.5,0,2-.1,4.1,1,3.5-2h-16Z"/>
    <path class="st1" d="M597,184h1c0-5.4.8-12.2-1-17v17Z"/>
    <path class="st1" d="M338,531l2,27v-27h-2Z"/>
    <path class="st1" d="M321,531c1.7,1.7,10,1.6,12,0h-12Z"/>
    <path class="st1" d="M335,531l.5,1,.5-1h-1Z"/>
  </g>
  <g>
    <path class="st3" d="M930,752l-1-81h-22.4c-1.2-.2-.4-1.5-.6-2h0c-.6-1.4-1-1.5-1.1-3.5-1.3-18.1.2-38.6,0-57.1,0-1.7.7-4.5-1-5.5.3,40.3-.3,80.7,0,121h-29v29h-27v27c-7.4,1-17.6,1.9-25,1l-2-1h-2v27h-55v57h82c0-6.1.2-12.4,0-18.5,0-2.6-1.7-6.6-1.1-8.9.4-1.1,2.6-.2,3.1-.5.1,0-.3-1.3.2-1.7,1.4-1.2,22,.3,25.8-.3v-52.5c0-.3,1.3-1.5,1-2.5h28c.6-8.4-1.3-17.9,1-26h27c-.2-.4-1-.8-1-1Z"/>
    <path class="st3" d="M737,753c-1-1-23.8.8-28,0-.8,0-.9-.2-1-1-1.4-7.5,1.1-19,0-27,1-1,23.7.6,28,0h1v-28c-2.6,3.4,0,25.9-1,27h-28c-5,0-24.1,1-27,0-2.5-.8-.2-47.1-1-53h-29c-1.5-6.1-1.2-13.1-1-19.5,0-2-1-4.1,2-3.5v-6h-1c.4,2.8-1.4,2.8-1,0h-2c-3.4,1.5-19.7,2.3-22,0s-.5-22.8-1-28v-1c-4.8.8-23.5-1.5-26,1-.6,8.8,1.3,18.5-1,27v1c0,.6-1,2-1,3.5-.3,7.8.2,15.7,0,23.5,5.5,1.8,21.2-1.3,28,0v28h26v26.5c0,.3,1.3,1.5,1,2.5h29l-.8,26.9c.5.4,1.4-.1,1.8,0h26l-1,111c-8.3.3-16.7-.4-25,0l-1,27h-29v27h56v-27h29c.3-7.5-.3-15,0-22.5,0-1.3,1-2.6,1-3v-94c0-.4-1-1.7-1-3-.3-5.1.2-10.4,0-15.5Z"/>
    <path class="st3" d="M182,533.5c-.2-1.2-.2-1-1-1.5.8,8-1,17.7,0,25.5.1,1.1,0,1.2,1,1.5-.9-7.8,1.1-17.9,0-25.5Z"/>
    <path class="st3" d="M738,392c-.9-23.5.8-48.5,0-72.5,0-3.1-1.9-5.5,0-8.5h-1c-9.1-.6-18.8.5-28,0v82h29v-1Z"/>
    <path class="st3" d="M376,224v-25c0-7.4,1.2-21.6,0-28,0-.8-.2-.9-1-1-7.8-1.5-19.7,1.1-28,0v56h28.4c1.2-.2.4-1.5.6-2Z"/>
    <path class="st3" d="M652,257v25c8.1-.2,16.3.3,24.5,0,2-.1,4.1,1,3.5-2-.4-17.9,0-36,0-54h-1c.5,3-1.6,2-3.5,2-7.1.3-14.3-.2-21.5,0v27h-2v2Z"/>
    <path class="st3" d="M681,311h27v-29h-27c.3,9.6-.2,19.4,0,29Z"/>
    <path class="st3" d="M738,475v-27h-29v27h29Z"/>
    <path class="st3" d="M765,448h27c-.2-9.3.2-18.7,0-28h-27v28Z"/>
    <path class="st3" d="M738,420h26c1.3-7.3,1.6-17,1-24.5,0-.9.4-2.7-1-2.5-8,2.3-17.5.4-26,1v26Z"/>
    <path class="st3" d="M596,200c-7.2-.3-14.4.3-21.6,0-1.3,0-2.3-1-2.4-1h-2v27h26c-.4-8.6.3-17.4,0-26Z"/>
    <path class="st3" d="M570,836h1l-1-4c0,1.2.3,3.2,0,4Z"/>
    <path class="st3" d="M847,559h-1l1,54v-54Z"/>
    <path class="st3" d="M711,503h-2c-9.3,0-18.7,0-28,0v28c1,1,22.9-.8,27,0,.8,0,.9.2,1,1,.9.2,1.5-.8,2-1,.7-.4.8-.9,2.4-1.1,7.1-.9,47.8,1.8,49.6,0v-26c-16.9-1.8-34.8-1-52-1Z"/>
    <path class="st3" d="M737,144l-.5-1c-9.1-.3-18.4.4-27.5,0v138h27l1-137Z"/>
    <path class="st3" d="M153,449l44.4-.8c-16.5-.2-43.7-1.1-44.4.8Z"/>
    <path class="st3" d="M209,448l-11.6.2c5.7,0,10,0,11.6-.2Z"/>
    <path class="st3" d="M209,555c.3-7.9,0-16,0-24v-28h-28v28h3c3.5-1.5,21.2-1.8,23,0,3,3.1-1,19.2,2,24Z"/>
    <path class="st3" d="M208,559h2l-1-2c0,0-1.4.9-1,2Z"/>
    <path class="st3" d="M541,613h-27v29h-27c-.4,8.9.3,18,0,27h27c5.4,0,24.7,1.1,28,0v-27h27v-29h-28Z"/>
    <path class="st3" d="M320,559c2.6.8,15.9,0,20,0v-1l-2-27h-2l-.5,1-.5-1h-2c-2,1.6-10.3,1.7-12,0-2.5-2.5-.2-22.1-1-27l-1-1c-8.8.6-18.4-1.2-27,1,0,8.1.8,18.3,0,26v1c7.5,1.3,18.5-1,26.5,0,1.1,0,1.2,0,1.5,1,1.8,5.4-1.3,20.5,0,27Z"/>
    <path class="st3" d="M384,503c4.9,2.3,11.6.4,17,1-4.7-1.7-11.7-1.1-17-1Z"/>
    <path class="st3" d="M380,503.1h0c0,0-.3,0-.3,0,.1,0,.2,0,.3,0Z"/>
    <path class="st3" d="M376.6,503.1c-.6.1-.5.5-.6.9l3.7-.9c-1,0-2.1-.3-3.1,0Z"/>
    <path class="st3" d="M571,773v-20h-1c.6,6.4-1.3,13.9,1,20Z"/>
    <path class="st3" d="M570,781h1v-5l-.8.7-.2,4.3Z"/>
    <path class="st3" d="M541,835v1h2c-.5-3,1.6-2,3.5-2,7.5-.2,15,.2,22.5,0v-53h-28v54Z"/>
    <path class="st3" d="M597,866h-25v24c7.2.8,16.5-1,23.5,0,1.2.2,1,.2,1.5,1h29v-27h-29v2Z"/>
    <path class="st3" d="M348,780v-27h-28v28c8.1-1.1,18.6.8,27,0v25c1,1,1,.8,2.4,1,7.8.9,18.4,0,26.6,0v-25c-2.7-2.7-22.6.3-28-2Z"/>
    <path class="st3" d="M598,184h-1v8c1.8-1.7,1-5.5,1-8Z"/>
    <path class="st3" d="M597,195v4h1c0-1.3.5-3.3-1-4Z"/>
    <path class="st3" d="M652,169c1.1-8.2-.8-18.5,0-27h-1c.6,8.8-1.3,18.5,1,27Z"/>
    <path class="st3" d="M650.5,171c1.2-.1,1.1-.1,1.5-1h-26v1c4.5-1.5,18.4.9,24.5,0Z"/>
  </g>
  <g>
    <path class="st2" d="M848,561c6.8-.2,13.7.2,20.5,0,2,0,4.1,1,3.5-2-7.4-.2-17.8-.7-25,0v54c0,1-.7,1-1.5,1-8,1.1-18.2-.8-26.5,0v1c-.3,7.9,1,18,0,25.5,0,1.1,0,1.2-1,1.5-3.3,1.1-24-1-25,0v111h26v27h2c1.7.2,1.9,1,2,1,7.4.9,17.6,0,25-1v-27h27v-56h-27l-1-28h28v-55h-27v-53ZM819,669h-25v-26h23.5c0,0,1.5,1.4,1.5,1.5v24.5Z"/>
    <path class="st2" d="M487,864h-26v-82.5c0-.3-1.3-1.5-1-2.5h-29c.3,1-1,2.2-1,2.5v52.5h-26c-.9-7.8,1.1-17.9,0-25.5,0-1.2,0-1.1-1-1.5,1.4,7-1.9,23.3,0,29h28v-55h29v110h-29v4l2,50h-2v1h28v-28h28v28h27v-55h-27v-27Z"/>
    <path class="st2" d="M819,612v-.2c0,.1,0,.2,0,.2h0Z"/>
    <path class="st2" d="M820,531l-1,80.8c.3-.5,1-1.7,1-3.2.7-25.8-.5-51.8,0-77.6Z"/>
    <path class="st2" d="M650.1,559.5c0,.7.9,2.3.9,4v21.5h-54v-26h29v-28h26v-28h57v-28h-28v-26h-29v-27.5c0-.1-1.4-1.5-1.5-1.5h-24.5v-27h-28l-1-27h-27v-28h-28v-27h-56v27h-26v28h-28v83h-29v25h-82v-26h33v-82c0-.4-7,.4-7,0v-28h-27v-27h-28v25.5c0,0-1.4,1.5-1.5,1.5h-26.5v28h-27v54h-27v-81h25.5c.3,0,1.5-1.3,2.5-1v-54h26v-1.9h-28v56h-27v110l-56,1c-1,2.9,0,21.1,0,26h7c4.2,0,17.4-.9,20,0,1,.4.9.5,1,1.5,1,7.4,0,18.5,0,26.5h28v28h28v28c0,5.1-1,24,0,27l54,1h1l.5-1c1,0,.8,2-.5,2,.4,3.6,0,8.2,0,12,1.7,1.9,1.7,7.1,0,9v4h54c1,0,.9.7,1,1.5,1.1,8.3-.8,18.8,0,27.5h-26.5c-.2,0-2.5-1.7-2.5.5v26.5h-25c-.2.4-.8.7-1,1v26c0,0,.7.5,1,1,6.1,1.2,20-1.6,25,0,1,.4.9.5,1,1.5v54.5l1-56h28v27h26.5c.1,0,1.5,1.4,1.5,1.5v27.5h55v-29h55v-27h26.5c1,0,1.4-2.5,1.5-3.5.9-7.5-.7-16.7,0-24.5h-55v-27h-110v-29h192v-27h55v26l-52,1h53v-27h55v-27c-.2.2-1.9-.4-1.9.4ZM180.9,474h-25.5c-2.6,0-.4-6.8-.4-8.5.2-5.1-.2-10.3,0-15.5h25.9v24ZM264,585h-26v-26h26v26ZM300,612h-6v-26h6v26ZM460,559.1h-28v27h-77c.2-7.8-.2-15.7,0-23.5,0-1.5,1-3,1-3.5h-16c-4.1,0-17.4.8-20,0-1.4-.5-.9-1.4-1-2.5-.7-5.3,0-13.4,0-19.1s-.7-4.5,1-5.5c-.4-1-.5-.9-1.5-1-7.9-1-18.9,1.3-26.5,0-.5,0-.8,0-1-.5,0-.3,1-.5,1-.5.8-7.7,0-17.9,0-26v-1c-2.2-8.9-.5-18.8-1-28-7.9-1-17.8.8-26,0v-55h27v-27h27v82h0c0,0,84,1.1,84,1.1v55h-26v-26c8.1-.6,17.4,1.3,25-1h-1c-5.4-.6-12.1,1.3-17-1-1.3,0-2.7-.1-4,0l-4,1c-1.8,5.3,1.3,20.5,0,27h-20c-.2,9.3.2,18.7,0,28h74c.8-8.3-1-18.4,0-26.5.1-1.1,0-1.2,1-1.5,5.7-1.9,22,1.4,29,0v28ZM542,475h-56l.3-53.5c.1-.9,1-1.4,1.7-1.5,7.2-1.4,18.3,1,26,0v-27h28v82Z"/>
    <path class="st2" d="M264,282h0c0,0,.1,0,.1,0h-.1Z"/>
    <path class="st2" d="M709,532.1c-.2-.8-.2-.9-1-1v25.9h-54.6c-1.9-.3-1.2,1.9-1.4,2.1h57c-1-8,1.4-19.5,0-27Z"/>
    <path class="st2" d="M679.9,280c0,.2,1,1.1,1,2h27l1-1v-110c-5.8-.3-11.7.2-17.5,0-3.4,0-6.2-2.1-9.4,0v-27.4c-.2-1.2-1.6-.4-2-.6h0c0,27.6,0,55.4,0,83,0,18-.4,36,0,54Z"/>
    <path class="st2" d="M377.4,200.9c.5-.7,1.3-.9,2.1-.9l190.5,1v-2c-64.5-1.8-129.4,1.4-194,0v25c2.3-5.8-.4-20.5,1.4-23.1Z"/>
    <path class="st2" d="M624.7,256.1c4.2,2.7,21.4,0,27.3.9v-2c-8.9.4-18-.3-27,0v-29h-29v2h28c1.5,5.1-3.5,25.4.7,28.1Z"/>
    <path class="st2" d="M292.1,226c-1.1,1.1,1.2,25.2,0,29-.4,1-.5.9-1.5,1-4.8.6-11-.2-16.1,0-1.2,0-3.7-.8-3.5,1h20.5c.2,0,2.5-2.3,2.5-2.5v-26.5h26c1.1-6.5,2.2-53.7.1-56.9v54.9h-28Z"/>
    <path class="st2" d="M320,171s0,0,.1.1h0c0-.1-.1-.1-.1-.1Z"/>
    <path class="st2" d="M270.5,142c-1.7,0-4.5-.7-5.5,1h27c-6.5-1.8-14.6-1-21.5-1Z"/>
    <rect class="st2" x="265" y="262" width="1" height="20"/>
    <path class="st2" d="M346,782c.8,4.6-1.5,21.5,1,24v-25c-8.4.8-18.9-1.1-27,0h-1c-2,21.1.2,45.3,1,68.4v-67.4h26Z"/>
    <path class="st2" d="M376,903.5v-12.5h-29v-27h-26.7c0,8.5-.3,16.7-1.3,24.5,0,1.2.5,2-1,2.5-3.4,1.1-25-1-26,0v27h84c-.2-4.8.1-9.7,0-14.5Z"/>
    <path class="st2" d="M320,864h.3c0-4.8-.1-9.7-.3-14.6v14.6Z"/>
    <path class="st2" d="M377,806c-.8-4.5,1.5-21.5-1-24v25c7.9,0,18.7-1,26,0-3.2-2.5-24,0-25-1Z"/>
    <path class="st2" d="M904,603c0-4.7.6-11,0-15.5,0-1.1,0-1.2-1-1.5-2.2,1.7-8,1.7-10,0h-15l-.5,1-.5-1h-2v2h28v135c-8.8.6-18.5-1.3-27,1h28c-.2-40.3.3-80.7,0-121Z"/>
    <path class="st2" d="M707,754v110l1-111h-26c6.6,2.7,17.6,0,25,1Z"/>
    <path class="st2" d="M543,643h53c.8,7.7-1,17,0,24.5,0,1.1,0,1.2,1,1.5.2-7.8-.3-15.7,0-23.5,0-1.5,1-3,1-3.5h-56v27c1-.4.9-.5,1-1.5,1-7.4-.7-16.8,0-24.5Z"/>
    <path class="st2" d="M762.5,476l-1.5-1c-7.6-.2-15.4,0-23,0h-27c-.5,3,1.6,2,3.5,2,16.1.5,32.4-.4,48.5,0v25l-52,1c17.2,0,35.1-.8,52,1h1v-29h-1l-.5,1Z"/>
    <path class="st2" d="M627.8,142.8c1.1-1.3-.4-21.1.2-24.8h23.5c.3,0,1.5-1.3,2.5-1v-27h53v53h2v-54h-57,0v28.1h-26v25.9c.3,0,1.3.3,1.7-.2Z"/>
    <path class="st2" d="M626.1,143s0,0,0,0c0,0,0,.1,0,.2,0,0,.1,0,.1,0h0Z"/>
    <path class="st2" d="M598.1,199.1h28v-1c1.1-8.2-.9-18.6,0-27-1,.3-.9.4-1,1.4-1,7.3.6,16.4,0,23.9-.2.4-3.3,1.6-3.6,1.6h-22.5v-53c3.8-.6,25.4,1,26.8-.2.4-.3.1-1.2.2-1.6-2.1.8-23-1.3-27.9.9-.6,5.1,1.3,11.5-1,16v7c1.8,4.8,1,11.6,1,17s.8,6.3-1,8v3c1.5.7,1,2.7,1,4Z"/>
    <path class="st2" d="M626.1,753v27c1.6-1,1-3.8,1-5.5,0-3.5.6-22.3-1.2-23.4-17.3.4-35.2-.9-52.4,0-2.5,0-3.3-.7-1.5,2h.1c17.9-.8,36.1.6,54,0Z"/>
    <path class="st2" d="M570,753c-1.6,1-1,3.8-1,5.5,0,7.2-.8,15.6,1,22.5l.2-4.3.8-.7v-3c-2.3-6.1-.4-13.6-1-20Z"/>
    <path class="st2" d="M597,891c0,.2,0,.7,0,1,2.5,2.7.2,20.2,1,25h54v-26h-55Z"/>
    <path class="st2" d="M515,918h26v-83l-1,82c-1,1-21.8-1.5-25,1Z"/>
    <path class="st2" d="M680,890c-1.1,1-23.6-1.5-27,1h28l1-27h-2v26Z"/>
    <path class="st2" d="M487,640v2h27v-28c-2.5,3.3,0,25-1,26h-26Z"/>
    <path class="st2" d="M626,170h26v-1c-2.3-8.5-.4-18.2-1-27-2.6,3.4,0,25.9-1,27-7.8.6-16.5-1.3-24,1Z"/>
    <path class="st2" d="M673.5,141c-6.5-.1-14.3-.8-20.5,1,7.1-.3,19.3-.9,26,0-1-1.6-3.8-1-5.5-1Z"/>
  </g>
</svg>