<svg width="24" height="24" viewBox="0 0 24 24" fill="none" xmlns="http://www.w3.org/2000/svg">
<path d="M15.3337 19.5C15.3337 18.8491 15.3337 17.8333 15.3337 17.8333C15.3337 16.9493 14.9825 16.1014 14.3573 15.4763C13.7322 14.8512 12.8844 14.5 12.0003 14.5H7.00033C6.11627 14.5 5.26842 14.8512 4.6433 15.4763C4.01818 16.1014 3.66699 16.9493 3.66699 17.8333C3.66699 17.8333 3.66699 18.8491 3.66699 19.5" fill="#030712"/>
<path d="M15.3337 19.5C15.3337 18.8491 15.3337 17.8333 15.3337 17.8333C15.3337 16.9493 14.9825 16.1014 14.3573 15.4763C13.7322 14.8512 12.8844 14.5 12.0003 14.5H7.00033C6.11627 14.5 5.26842 14.8512 4.6433 15.4763C4.01818 16.1014 3.66699 16.9493 3.66699 17.8333C3.66699 17.8333 3.66699 18.8491 3.66699 19.5H15.3337Z" stroke="#030712" stroke-width="1.33333" stroke-linecap="round" stroke-linejoin="round"/>
<path d="M9.50033 11.1667C11.3413 11.1667 12.8337 9.67428 12.8337 7.83333C12.8337 5.99238 11.3413 4.5 9.50033 4.5C7.65938 4.5 6.16699 5.99238 6.16699 7.83333C6.16699 9.67428 7.65938 11.1667 9.50033 11.1667Z" fill="#030712" stroke="#030712" stroke-width="1.33333" stroke-linecap="round" stroke-linejoin="round"/>
<path d="M17.833 8.66666V13.6667" stroke="#030712" stroke-width="1.33333" stroke-linecap="round" stroke-linejoin="round"/>
<path d="M20.333 11.1667H15.333" stroke="#030712" stroke-width="1.33333" stroke-linecap="round" stroke-linejoin="round"/>
</svg>
