<svg width="16" height="16" viewBox="0 0 16 16" fill="none" xmlns="http://www.w3.org/2000/svg">
<path d="M8.40602 11.8037L11.6215 9.10716L11.903 8.84992L12.3898 8.3896C12.5676 8.22072 12.6635 8.0212 12.6635 7.77198L12.6663 4.98008C12.6663 4.87794 12.5739 4.73222 12.4963 4.69545C12.43 4.66412 12.2572 4.64846 12.1803 4.70158L8.25576 8.07159C8.11749 8.16693 8.00391 8.21527 7.84941 8.11109L3.80567 4.71928C3.72666 4.66617 3.5637 4.65868 3.49809 4.68864C3.43248 4.7186 3.33301 4.86228 3.33301 4.93786L3.33653 7.8142C3.33653 8.03346 3.42472 8.26362 3.58415 8.41139L4.12101 8.90916L4.43848 9.19024C5.48892 10.1225 6.55347 11.0124 7.64694 11.8875C7.90867 12.0965 8.19297 11.9828 8.40602 11.8037Z" fill="#A66A2B"/>
</svg>
