<svg width="24" height="24" viewBox="0 0 24 24" fill="none" xmlns="http://www.w3.org/2000/svg">
<path d="M12.6095 17.7054L17.4328 13.6606L17.855 13.2748L18.5852 12.5843C18.8519 12.331 18.9958 12.0317 18.9958 11.6578L19 7.47C19 7.31679 18.8614 7.09821 18.745 7.04305C18.6455 6.99606 18.3862 6.97257 18.2709 7.05224L12.3841 12.1073C12.1767 12.2503 12.0063 12.3228 11.7746 12.1665L5.70899 7.0788C5.59048 6.99913 5.34603 6.98789 5.24762 7.03283C5.14921 7.07778 5 7.2933 5 7.40667L5.00529 11.7212C5.00529 12.0501 5.13757 12.3953 5.37672 12.617L6.18201 13.3636L6.6582 13.7852C8.23386 15.1836 9.83069 16.5185 11.4709 17.8311C11.8635 18.1446 12.2899 17.9741 12.6095 17.7054Z" fill="#A66A2B"/>
</svg>
