<svg width="16" height="16" viewBox="0 0 16 16" fill="none" xmlns="http://www.w3.org/2000/svg">
<path d="M7.98001 2.67013C8.12079 2.64809 8.23139 2.73627 8.32441 2.86284L9.633 5.37716L11.6428 3.9657C11.6965 3.90989 11.8082 3.88757 11.8791 3.90646C11.9414 3.92336 12.0094 4.0389 11.9989 4.12651L11.8478 5.34461L12.7333 4.84135C12.8532 4.77357 13.068 4.78192 13.1714 4.85177C13.2576 4.91079 13.3505 5.09453 13.3303 5.23588L12.8264 8.02495C12.7855 8.30585 12.6583 8.56076 12.4312 8.72677L11.3337 9.66675C11.3337 9.66675 11.3334 9.92002 11.3335 10.1291L11.3322 11.0275C11.3322 11.0702 11.2737 11.1439 11.2352 11.1552C11.1907 11.1675 11.0881 11.1595 11.0412 11.1337C10.856 11.031 10.6742 10.9279 10.4911 10.8283L10.4722 10.8967C10.4501 10.975 10.3653 11.0911 10.2945 11.1434L8.39472 12.5503C8.20781 12.6885 7.99179 12.7102 7.81139 12.5803L5.79707 11.1291C5.73274 11.083 5.65321 10.9678 5.63756 10.9032L5.60566 10.7697L4.91425 11.1708C4.87589 11.1929 4.76869 11.1766 4.73652 11.1578C4.70494 11.1388 4.66689 11.0739 4.66686 11.0282V10.0718C4.66682 10.0575 4.66918 10.043 4.67142 10.0282L4.66699 9.66675C4.33366 9.33342 3.96064 8.98437 3.56009 8.68185C3.35189 8.52445 3.24023 8.28733 3.20267 8.03211L2.66946 5.09851C2.65048 4.96764 2.74477 4.78312 2.81985 4.72156C2.89532 4.66031 3.10776 4.64385 3.21699 4.70724L4.17337 5.26388L4.00084 4.02429C3.99331 3.96902 4.06371 3.87149 4.10696 3.84981C4.15668 3.82525 4.27389 3.84373 4.33027 3.89994L6.40579 5.30489C6.42037 5.31924 6.46202 5.34065 6.4761 5.34526C6.4949 5.35042 6.54197 5.31156 6.55097 5.28862L7.71699 2.93315C7.77227 2.78931 7.85343 2.69015 7.98001 2.67013Z" fill="#B02745"/>
</svg>
