<svg width="24" height="24" viewBox="0 0 24 24" fill="none" xmlns="http://www.w3.org/2000/svg">
<path d="M11.9695 4.00507C12.1807 3.97202 12.3466 4.10429 12.4861 4.29413L14.449 8.06562L17.4637 5.94843C17.5443 5.86471 17.7118 5.83123 17.8182 5.85956C17.9116 5.88492 18.0136 6.05823 17.9978 6.18964L17.7713 8.01679L19.0994 7.2619C19.2793 7.16023 19.6014 7.17276 19.7566 7.27753C19.886 7.36606 20.0253 7.64167 19.9949 7.8537L19.2391 12.0373C19.1778 12.4587 18.987 12.841 18.6463 13.09L17 14.5C17 14.5 16.9995 14.8799 16.9998 15.1935L16.9978 16.5412C16.9978 16.6052 16.9101 16.7157 16.8523 16.7326C16.7856 16.7511 16.6317 16.7391 16.5613 16.7004C16.2835 16.5464 16.0108 16.3917 15.7361 16.2424L15.7078 16.3449C15.6747 16.4624 15.5475 16.6365 15.4412 16.715L12.5916 18.8254C12.3112 19.0327 11.9872 19.0652 11.7166 18.8703L8.69511 16.6935C8.59863 16.6244 8.47932 16.4516 8.45585 16.3547L8.408 16.1545L7.37089 16.756C7.31335 16.7892 7.15254 16.7648 7.10429 16.7365C7.05692 16.7081 6.99985 16.6108 6.9998 16.5422V15.1076C6.99975 15.0862 7.00328 15.0643 7.00664 15.0422L7 14.5C6.5 14 5.94046 13.4764 5.33964 13.0226C5.02735 12.7865 4.85985 12.4309 4.80351 12.048L4.00371 7.64765C3.97523 7.45134 4.11666 7.17456 4.22929 7.08222C4.3425 6.99034 4.66115 6.96566 4.82499 7.06073L6.25956 7.89569L6.00078 6.03632C5.98948 5.95341 6.09507 5.80712 6.15996 5.7746C6.23454 5.73775 6.41034 5.76547 6.49492 5.8498L9.6082 7.95722C9.63007 7.97874 9.69255 8.01085 9.71367 8.01776C9.74186 8.0255 9.81246 7.96722 9.82597 7.9328L11.575 4.3996C11.6579 4.18384 11.7797 4.03511 11.9695 4.00507Z" fill="#B02745"/>
</svg>
