<svg width="24" height="24" viewBox="0 0 24 24" fill="none" xmlns="http://www.w3.org/2000/svg">
<path d="M12 10.5L16.1 6.61C16.5 6.12 16.75 5.51 16.75 4.83C16.75 3.27 15.47 2 13.9 2C13.17 2 12.51 2.28 12 2.74C11.49 2.29 10.83 2 10.1 2C8.53 2 7.25 3.27 7.25 4.83C7.25 5.51 7.5 6.12 7.9 6.61L12 10.5Z" fill="currentColor"/>
<path d="M12 13.5L7.9 17.39C7.5 17.88 7.25 18.49 7.25 19.17C7.25 20.73 8.53 22 10.1 22C10.83 22 11.5 21.72 12 21.26C12.51 21.71 13.17 22 13.9 22C15.47 22 16.75 20.73 16.75 19.17C16.75 18.49 16.5 17.88 16.1 17.39L12 13.5Z" fill="currentColor"/>
<path d="M19.17 7.25C18.49 7.25 17.88 7.5 17.39 7.9L13.5 12L17.39 16.1C17.88 16.5 18.49 16.75 19.17 16.75C20.73 16.75 22 15.47 22 13.9C22 13.17 21.72 12.51 21.26 12C21.71 11.49 22 10.83 22 10.1C22 8.53 20.73 7.25 19.17 7.25Z" fill="currentColor"/>
<path d="M6.61 7.9C6.12 7.5 5.51 7.25 4.83 7.25C3.27 7.25 2 8.53 2 10.1C2 10.83 2.28 11.49 2.74 12C2.29 12.51 2 13.17 2 13.9C2 15.47 3.27 16.75 4.83 16.75C5.51 16.75 6.12 16.5 6.61 16.1L10.5 12L6.61 7.9Z" fill="currentColor"/>
</svg>
