<svg width="24" height="24" viewBox="0 0 24 24" fill="none" xmlns="http://www.w3.org/2000/svg">
<path d="M19.4044 4.05169C19.2308 3.99119 19.0426 3.98606 18.8659 4.03702C18.6892 4.08798 18.5326 4.19251 18.4178 4.3362L15.5556 7.91038L12.6933 4.3362C12.3556 3.91832 11.6444 3.91832 11.3067 4.3362L8.44444 7.91038L5.58222 4.3362C5.34222 4.0428 4.95111 3.92721 4.59556 4.05169C4.24 4.17616 4 4.51402 4 4.88744V14.6675H20V4.88744C20 4.51402 19.76 4.17616 19.4044 4.05169ZM4 18.2239C4 19.2019 4.8 20.0021 5.77778 20.0021H18.2222C19.2 20.0021 20 19.2019 20 18.2239V16.4457H4V18.2239Z" fill="black"/>
</svg>
