<svg width="24" height="24" viewBox="0 0 24 24" fill="none" xmlns="http://www.w3.org/2000/svg">
<path d="M12.2322 17.9703C11.8832 18.1418 10.9861 17.5238 10.7016 17.2997C9.88541 16.6594 9.14101 15.9941 8.36571 15.3073C7.5904 14.6206 7.18412 14.8108 6.55061 14.1106L5.33812 12.7702C5.12543 12.5353 5 12.2647 5 11.9424L5.00182 8.55151C5.00182 8.45864 5.12543 8.29878 5.20632 8.27557C5.29994 8.24877 5.51535 8.26574 5.61352 8.32201C6.43063 8.78906 7.21048 9.26415 8.06758 9.65173L11.7296 5.12316C11.8941 4.91955 12.214 4.99546 12.3467 5.15531L13.1266 6.09657L15.7752 9.46419C15.9106 9.63655 16.0797 9.67584 16.2651 9.56511L18.4801 8.24163C18.561 8.19341 18.7873 8.22913 18.8537 8.27021C18.92 8.31129 19 8.45149 19 8.55062V12.0665C19.0009 12.2621 18.9 12.488 18.7709 12.6282L17.2703 14.2491C16.9031 14.6456 16.3405 14.7724 15.9288 15.1162C14.9099 15.9673 13.3675 17.4131 12.2313 17.9712L12.2322 17.9703ZM12.0886 14.442L14.2073 11.7557L12.1113 9.07483C12.0159 9.11055 11.9377 9.16056 11.8541 9.22665L9.88632 11.753L11.8441 14.3035C11.8868 14.3589 12.0204 14.4268 12.0886 14.442Z" fill="#1E88E5"/>
</svg>
