<svg width="16" height="16" viewBox="0 0 16 16" fill="none" xmlns="http://www.w3.org/2000/svg">
<path d="M8.15449 11.8136C7.92181 11.9279 7.32374 11.516 7.13408 11.3665C6.58995 10.9397 6.09368 10.4961 5.57681 10.0383C5.05994 9.58046 4.78909 9.70727 4.36675 9.24051L3.55842 8.34688C3.41663 8.1903 3.33301 8.00991 3.33301 7.79499L3.33422 5.53442C3.33422 5.47251 3.41663 5.36594 3.47056 5.35046C3.53297 5.3326 3.67658 5.34391 3.74202 5.38142C4.28676 5.69279 4.80666 6.00952 5.37806 6.2679L7.8194 3.24885C7.92908 3.11311 8.14237 3.16372 8.23084 3.27029L8.75074 3.89779L10.5165 6.14288C10.6067 6.25778 10.7194 6.28398 10.8431 6.21015L12.3197 5.32783C12.3737 5.29569 12.5245 5.3195 12.5688 5.34689C12.613 5.37427 12.6663 5.46774 12.6663 5.53383V7.87774C12.6669 8.00813 12.5997 8.15875 12.5136 8.25222L11.5132 9.33279C11.2684 9.59713 10.8933 9.68167 10.6189 9.91088C9.9396 10.4783 8.91131 11.4421 8.15388 11.8142L8.15449 11.8136ZM8.05875 9.46139L9.4712 7.67056L8.0739 5.8833C8.01028 5.90712 7.95817 5.94046 7.90242 5.98451L6.59055 7.66877L7.89575 9.36911C7.92423 9.40602 8.01331 9.45127 8.05875 9.46139Z" fill="#1E88E5"/>
</svg>
