<svg width="24" height="24" viewBox="0 0 24 24" fill="none" xmlns="http://www.w3.org/2000/svg">
<path d="M10.9998 18H21.9998V20H10.9998V18ZM13.2898 4.29L11.4998 6.08L15.9098 10.49L17.6998 8.7C17.7925 8.60749 17.866 8.4976 17.9162 8.37663C17.9664 8.25565 17.9922 8.12597 17.9922 7.995C17.9922 7.86403 17.9664 7.73435 17.9162 7.61338C17.866 7.4924 17.7925 7.38252 17.6998 7.29L14.6998 4.29C14.6073 4.1973 14.4974 4.12375 14.3764 4.07357C14.2554 4.02339 14.1258 3.99756 13.9948 3.99756C13.8638 3.99756 13.7341 4.02339 13.6132 4.07357C13.4922 4.12375 13.3823 4.1973 13.2898 4.29ZM10.0898 7.5L2.29978 15.29C2.2071 15.3834 2.13378 15.4943 2.08401 15.6161C2.03425 15.7379 2.00902 15.8684 2.00978 16V19C2.00978 19.55 2.45978 20 3.00978 20H6.00978C6.27978 20 6.52978 19.89 6.71978 19.71L14.5098 11.92L10.0998 7.51L10.0898 7.5Z" fill="black"/>
</svg>
