<svg width="24" height="24" viewBox="0 0 24 24" fill="none" xmlns="http://www.w3.org/2000/svg">
<path d="M11.9998 17C6.6498 17 4.5798 13.16 4.0698 12C4.2698 11.54 4.71981 10.66 5.5198 9.77L4.1198 8.37C2.6298 10.02 2.0598 11.65 2.0398 11.68C1.9698 11.89 1.9698 12.11 2.0398 12.31C2.0598 12.38 4.3598 18.99 11.9898 18.99C12.8998 18.99 13.7198 18.89 14.4798 18.73L12.7098 16.96C12.4698 16.98 12.2398 16.99 11.9898 16.99L11.9998 17ZM21.9498 12.32C22.0198 12.11 22.0198 11.89 21.9498 11.69C21.9298 11.62 19.6298 5.01 11.9998 5.01C10.1598 5.01 8.6398 5.4 7.3898 5.98L2.7098 1.29L1.2998 2.7L5.6198 7.02L7.0398 8.44L9.3098 10.71L13.2898 14.69L15.0898 16.49L16.6198 18.02L21.2998 22.7L22.7098 21.29L18.3898 16.97C20.9998 15.02 21.9398 12.36 21.9498 12.32ZM14.6998 13.29C14.8898 12.9 14.9998 12.46 14.9998 12C14.9998 10.36 13.6398 9 11.9998 9C11.5398 9 11.1098 9.11 10.7098 9.3L8.9098 7.5C9.7898 7.19 10.8098 7 11.9898 7C17.3398 7 19.4098 10.85 19.9198 12C19.6198 12.69 18.7398 14.33 16.9598 15.55L14.6998 13.29Z" fill="black"/>
</svg>
