<svg width="24" height="24" viewBox="0 0 24 24" fill="none" xmlns="http://www.w3.org/2000/svg">
<path d="M12 9C11.2044 9 10.4413 9.31607 9.87868 9.87868C9.31607 10.4413 9 11.2044 9 12C9 12.7956 9.31607 13.5587 9.87868 14.1213C10.4413 14.6839 11.2044 15 12 15C12.7956 15 13.5587 14.6839 14.1213 14.1213C14.6839 13.5587 15 12.7956 15 12C15 11.2044 14.6839 10.4413 14.1213 9.87868C13.5587 9.31607 12.7956 9 12 9Z" fill="black"/>
<path d="M11.9996 19C19.6296 19 21.9296 12.38 21.9496 12.32C22.0196 12.11 22.0196 11.89 21.9496 11.69C21.9296 11.62 19.6296 5.01 11.9996 5.01C4.36957 5.01 2.06957 11.62 2.04957 11.68C1.97957 11.89 1.97957 12.11 2.04957 12.31C2.06957 12.38 4.36957 18.99 11.9996 18.99V19ZM11.9996 7C17.3496 7 19.4196 10.85 19.9296 12C19.4296 13.16 17.3496 17 11.9996 17C6.64957 17 4.57957 13.16 4.06957 12C4.56957 10.84 6.64957 7 11.9996 7Z" fill="black"/>
</svg>
