<svg width="24" height="24" viewBox="0 0 24 24" fill="none" xmlns="http://www.w3.org/2000/svg">
<path d="M10 2H3C2.44772 2 2 2.44772 2 3V10C2 10.5523 2.44772 11 3 11H10C10.5523 11 11 10.5523 11 10V3C11 2.44772 10.5523 2 10 2Z" fill="black"/>
<path d="M17.5 13C16.9091 13 16.3239 13.1164 15.7779 13.3425C15.232 13.5687 14.7359 13.9002 14.318 14.318C13.9002 14.7359 13.5687 15.232 13.3425 15.7779C13.1164 16.3239 13 16.9091 13 17.5C13 18.0909 13.1164 18.6761 13.3425 19.2221C13.5687 19.768 13.9002 20.2641 14.318 20.682C14.7359 21.0998 15.232 21.4313 15.7779 21.6575C16.3239 21.8836 16.9091 22 17.5 22C18.0909 22 18.6761 21.8836 19.2221 21.6575C19.768 21.4313 20.2641 21.0998 20.682 20.682C21.0998 20.2641 21.4313 19.768 21.6575 19.2221C21.8836 18.6761 22 18.0909 22 17.5C22 16.9091 21.8836 16.3239 21.6575 15.7779C21.4313 15.232 21.0998 14.7359 20.682 14.318C20.2641 13.9002 19.768 13.5687 19.2221 13.3425C18.6761 13.1164 18.0909 13 17.5 13Z" fill="black"/>
<path d="M9.54004 13.04L6.50004 16.09L3.46004 13.04L2.04004 14.46L5.09004 17.5L2.04004 20.54L3.46004 21.96L6.50004 18.91L9.54004 21.96L10.96 20.54L7.91004 17.5L10.96 14.46L9.54004 13.04Z" fill="black"/>
<path d="M18.3701 2.5C18.0101 1.88 16.9901 1.88 16.6301 2.5L12.6301 9.5C12.4501 9.81 12.4501 10.19 12.6301 10.5C12.8101 10.81 13.1401 11 13.5001 11H21.5001C21.8601 11 22.1901 10.81 22.3701 10.5C22.5501 10.19 22.5501 9.81 22.3701 9.5L18.3701 2.5Z" fill="black"/>
</svg>
