<svg width="16" height="16" viewBox="0 0 16 16" fill="none" xmlns="http://www.w3.org/2000/svg">
<path d="M4.31599 8.34703C4.10157 8.12208 4 7.92763 4 7.63341L4.00439 3.47623C4.00439 3.37964 4.08339 3.24937 4.14608 3.21378C4.22069 3.17121 4.40188 3.18074 4.48401 3.23793L6.99435 4.99307C7.34733 5.23963 7.67272 5.45823 8.0489 5.6889L11.4558 3.21569C11.5511 3.14643 11.7235 3.16041 11.8 3.1979C11.8884 3.24238 11.978 3.38218 11.9787 3.51054L12 7.76241C12.0012 7.99372 11.9066 8.18944 11.7561 8.34703L10.2345 9.94204L8.57805 11.6171C8.29028 11.9082 7.90407 11.9037 7.59498 11.6146C6.46959 10.5635 5.39561 9.47879 4.31661 8.3464L4.31599 8.34703Z" fill="#D4A017"/>
</svg>
