<svg width="24" height="24" viewBox="0 0 24 24" fill="none" xmlns="http://www.w3.org/2000/svg">
<path d="M6.47398 12.7704C6.15235 12.433 6 12.1413 6 11.7L6.00658 5.46422C6.00658 5.31934 6.12508 5.12393 6.21912 5.07056C6.33104 5.00669 6.60282 5.02099 6.72602 5.10678L10.4915 7.73949C11.021 8.10933 11.5091 8.43722 12.0733 8.78323L17.1837 5.07341C17.3266 4.96952 17.5852 4.99049 17.7 5.04673C17.8326 5.11345 17.9671 5.32315 17.968 5.5157L18 11.8935C18.0019 12.2405 17.8599 12.534 17.6342 12.7704L15.3517 15.1629L12.8671 17.6755C12.4354 18.1121 11.8561 18.1054 11.3925 17.6717C9.70438 16.0952 8.09341 14.4681 6.47492 12.7695L6.47398 12.7704Z" fill="#D4A017"/>
</svg>
