<svg width="24" height="24" viewBox="0 0 24 24" fill="none" xmlns="http://www.w3.org/2000/svg">
<path d="M9 4C7.93913 4 6.92172 4.42143 6.17157 5.17157C5.42143 5.92172 5 6.93913 5 8C5 9.06087 5.42143 10.0783 6.17157 10.8284C6.92172 11.5786 7.93913 12 9 12C10.0609 12 11.0783 11.5786 11.8284 10.8284C12.5786 10.0783 13 9.06087 13 8C13 6.93913 12.5786 5.92172 11.8284 5.17157C11.0783 4.42143 10.0609 4 9 4Z" fill="black"/>
<path d="M10 13H8C5.24 13 3 15.24 3 18V19C3 19.55 3.45 20 4 20H14C14.55 20 15 19.55 15 19V18C15 15.24 12.76 13 10 13Z" fill="black"/>
<path d="M15.0004 4C14.5304 4 14.1004 4.09 13.6904 4.22C14.5104 5.24 15.0004 6.55 15.0004 8C15.0004 9.45 14.5104 10.75 13.6904 11.78C14.1004 11.91 14.5304 12 15.0004 12C17.2804 12 19.0004 10.28 19.0004 8C19.0004 5.72 17.2804 4 15.0004 4Z" fill="black"/>
<path d="M15.9996 13H14.8896C16.1896 14.27 16.9996 16.04 16.9996 18V19C16.9996 19.35 16.9296 19.69 16.8196 20H19.9996C20.5496 20 20.9996 19.55 20.9996 19V18C20.9996 15.24 18.7596 13 15.9996 13Z" fill="black"/>
</svg>
