<svg width="24" height="24" viewBox="0 0 24 24" fill="none" xmlns="http://www.w3.org/2000/svg">
<path d="M3.00017 13H4.00017V20C4.00017 21.1 4.90017 22 6.00017 22H18.0002C19.1002 22 20.0002 21.1 20.0002 20V13H21.0002C21.4002 13 21.7702 12.76 21.9202 12.38C22.0802 12.01 21.9902 11.58 21.7002 11.29L12.7102 2.29C12.6177 2.1973 12.5078 2.12375 12.3868 2.07357C12.2658 2.02339 12.1361 1.99756 12.0052 1.99756C11.8742 1.99756 11.7445 2.02339 11.6235 2.07357C11.5026 2.12375 11.3927 2.1973 11.3002 2.29L2.29017 11.29C2.00017 11.58 1.92017 12.01 2.07017 12.38C2.22017 12.75 2.59017 13 2.99017 13H3.00017ZM12.0002 9.75C13.5202 9.75 14.7502 10.98 14.7502 12.5C14.7502 14.02 13.5202 15.25 12.0002 15.25C10.4802 15.25 9.25017 14.02 9.25017 12.5C9.25017 10.98 10.4802 9.75 12.0002 9.75Z" fill="black"/>
</svg>
