<svg width="16" height="16" viewBox="0 0 16 16" fill="none" xmlns="http://www.w3.org/2000/svg">
<path d="M8.02506 2.66675C8.19388 2.66626 8.38828 2.76887 8.47493 2.93758L10.0459 5.33537L11.4229 4.41415C11.509 4.31544 11.7101 4.29884 11.8265 4.33993C11.9429 4.38107 12.0185 4.55346 11.9951 4.71558L11.8701 5.56323L12.18 5.36597C12.2569 5.3167 12.4301 5.33105 12.4964 5.36011C12.5739 5.39426 12.6661 5.52909 12.6663 5.62378L12.6637 7.59579C12.6637 7.82689 12.5674 8.01209 12.3896 8.1687L11.9033 8.59579L11.9098 9.48055L11.9092 9.4812C11.9098 9.68007 11.7758 9.86256 11.6214 9.98316L8.40592 12.4845C8.19289 12.6506 7.90852 12.7564 7.64681 12.5626C6.55334 11.7509 5.48892 10.9248 4.43848 10.06C4.27209 9.92296 4.14451 9.73622 4.1416 9.5424L4.12077 8.65047L3.58431 8.18889C3.4249 8.05183 3.33629 7.83822 3.33626 7.63485L3.33301 5.58472C3.3332 5.51455 3.43283 5.38137 3.49837 5.3536C3.56417 5.32595 3.72677 5.33305 3.80566 5.38224L4.1696 5.60946L4.00033 4.55347C3.98704 4.44111 4.18182 4.33315 4.26725 4.32821C4.36152 4.32268 4.51685 4.35942 4.59277 4.4454L5.9821 5.3536L7.59733 2.95711C7.68657 2.78834 7.87012 2.66798 8.02506 2.66675Z" fill="#7027B0"/>
</svg>
