<svg width="24" height="24" viewBox="0 0 24 24" fill="none" xmlns="http://www.w3.org/2000/svg">
<path d="M12.0381 4C12.2913 3.99926 12.5829 4.15319 12.7129 4.40625L15.0693 8.00293L17.1348 6.6211C17.2639 6.47304 17.5657 6.44814 17.7402 6.50977C17.9149 6.57148 18.0283 6.83007 17.9932 7.07324L17.8057 8.34473L18.2705 8.04883C18.3859 7.97492 18.6456 7.99646 18.7451 8.04004C18.8614 8.09127 18.9997 8.29351 19 8.43555L18.9961 11.3936C18.996 11.7402 18.8515 12.018 18.585 12.2529L17.8555 12.8936L17.8652 14.2207L17.8643 14.2217C17.8651 14.52 17.6643 14.7937 17.4326 14.9746L12.6094 18.7266C12.2898 18.9757 11.8633 19.1345 11.4707 18.8438C9.83049 17.6262 8.23386 16.387 6.6582 15.0898C6.40863 14.8843 6.21726 14.6042 6.21289 14.3135L6.18164 12.9756L5.37695 12.2832C5.13784 12.0776 5.00493 11.7572 5.00488 11.4522L5 8.37696C5.00029 8.2717 5.14973 8.07193 5.24805 8.03028C5.34674 7.9888 5.59064 7.99945 5.70898 8.07325L6.25488 8.41407L6.00098 6.83008C5.98105 6.66154 6.27322 6.49961 6.40137 6.49219C6.54277 6.4839 6.77577 6.53901 6.88965 6.66797L8.97363 8.03028L11.3965 4.43555C11.5303 4.18238 11.8057 4.00184 12.0381 4Z" fill="#7027B0"/>
</svg>
