<svg width="24" height="24" viewBox="0 0 24 24" fill="none" xmlns="http://www.w3.org/2000/svg">
<path d="M14.1208 10.4792C13.7303 10.0886 13.0971 10.0886 12.7066 10.4792L11.9995 11.1863C11.2184 11.9673 9.9521 11.9673 9.17105 11.1863C8.39 10.4052 8.39 9.13888 9.17105 8.35783L14.8017 2.72568C16.9056 2.24973 19.2003 2.83075 20.8383 4.46875C23.2577 6.88811 23.3711 10.7402 21.1787 13.2939L19.0705 15.4289L14.1208 10.4792ZM3.16064 4.46875C5.33403 2.29536 8.66362 1.98283 11.1695 3.53116L7.75683 6.94362C6.19474 8.50572 6.19474 11.0384 7.75683 12.6005C9.2716 14.1152 11.699 14.1611 13.269 12.7382L13.4137 12.6005L17.6563 16.8431L13.4137 21.0858C12.6326 21.8668 11.3663 21.8668 10.5853 21.0858L3.16064 13.6611C0.622234 11.1227 0.622234 7.00715 3.16064 4.46875Z" fill="black"/>
</svg>
