<svg width="24" height="24" viewBox="0 0 24 24" fill="none" xmlns="http://www.w3.org/2000/svg">
<path d="M8 11C7.73478 11 7.48043 11.1054 7.29289 11.2929C7.10536 11.4804 7 11.7348 7 12C7 12.2652 7.10536 12.5196 7.29289 12.7071C7.48043 12.8946 7.73478 13 8 13C8.26522 13 8.51957 12.8946 8.70711 12.7071C8.89464 12.5196 9 12.2652 9 12C9 11.7348 8.89464 11.4804 8.70711 11.2929C8.51957 11.1054 8.26522 11 8 11Z" fill="black"/>
<path d="M12 11C11.7348 11 11.4804 11.1054 11.2929 11.2929C11.1054 11.4804 11 11.7348 11 12C11 12.2652 11.1054 12.5196 11.2929 12.7071C11.4804 12.8946 11.7348 13 12 13C12.2652 13 12.5196 12.8946 12.7071 12.7071C12.8946 12.5196 13 12.2652 13 12C13 11.7348 12.8946 11.4804 12.7071 11.2929C12.5196 11.1054 12.2652 11 12 11Z" fill="black"/>
<path d="M16 11C15.7348 11 15.4804 11.1054 15.2929 11.2929C15.1054 11.4804 15 11.7348 15 12C15 12.2652 15.1054 12.5196 15.2929 12.7071C15.4804 12.8946 15.7348 13 16 13C16.2652 13 16.5196 12.8946 16.7071 12.7071C16.8946 12.5196 17 12.2652 17 12C17 11.7348 16.8946 11.4804 16.7071 11.2929C16.5196 11.1054 16.2652 11 16 11Z" fill="black"/>
<path d="M12 2C6.49 2 2 6.49 2 12C2 14.12 2.68 16.19 3.93 17.9L2.18 20.43C1.97 20.74 1.94 21.13 2.12 21.46C2.29 21.79 2.63 22 3.01 22H12.01C17.52 22 22.01 17.51 22.01 12C22.01 6.49 17.51 2 12 2ZM12 20H4.91L6 18.43C6.26 18.06 6.23 17.55 5.94 17.21C4.69 15.76 4.01 13.91 4.01 12C4.01 7.59 7.6 4 12.01 4C16.42 4 20.01 7.59 20.01 12C20.01 16.41 16.42 20 12.01 20H12Z" fill="black"/>
</svg>
