<svg width="24" height="24" viewBox="0 0 24 24" fill="none" xmlns="http://www.w3.org/2000/svg">
<path d="M19.3203 13.38C18.2771 13.6958 17.1744 13.7631 16.1005 13.5765C15.0266 13.3899 14.0113 12.9547 13.1357 12.3055C12.2601 11.6563 11.5486 10.8113 11.058 9.83797C10.5674 8.86462 10.3113 7.78999 10.3103 6.7C10.3103 6.01 10.4103 5.33 10.6103 4.68C10.6631 4.50632 10.6677 4.32156 10.6236 4.14547C10.5796 3.96938 10.4885 3.80857 10.3601 3.68021C10.2318 3.55186 10.071 3.46078 9.89486 3.41671C9.71877 3.37264 9.53402 3.37724 9.36033 3.43C7.51287 3.98112 5.89368 5.11597 4.74531 6.66456C3.59694 8.21314 2.98121 10.0921 2.99033 12.02C2.99033 16.97 7.02034 21 11.9703 21C15.9503 21 19.4103 18.44 20.5603 14.63C20.6703 14.28 20.5703 13.89 20.3103 13.63C20.0503 13.37 19.6703 13.27 19.3103 13.38H19.3203Z" fill="black"/>
</svg>
