<svg width="24" height="24" viewBox="0 0 24 24" fill="none" xmlns="http://www.w3.org/2000/svg">
<path d="M17.4232 12.9847C17.3025 13.072 17.1345 13.2605 17.1028 13.3875L16.8596 14.3666C16.7716 14.7217 16.5511 15.0342 16.2476 15.2594C15.0562 16.1483 13.8758 16.9984 12.632 17.801C12.2197 18.0668 11.7708 18.0668 11.3615 17.798C10.0673 16.9478 8.83049 16.0709 7.58277 15.1473C7.34549 14.9717 7.16159 14.6751 7.09535 14.4013L6.78194 13.1117L5.34044 12.0225C5.02801 11.7864 4.85994 11.4312 4.80358 11.0483L4.00373 5.64775C3.97506 5.45133 4.11744 5.17455 4.23015 5.0823C4.34286 4.99004 4.66121 4.96524 4.82533 5.06047L9.14391 7.57524C9.33868 7.68833 9.56509 7.68139 9.73811 7.56334L11.5731 6.30744C11.8648 6.10804 12.2049 6.03662 12.5321 6.26974L14.3296 7.55242C14.4749 7.65659 14.7072 7.75976 14.8664 7.66948L19.1 5.26185C19.2799 5.15967 19.6022 5.17257 19.7574 5.27772C19.887 5.36601 20.0264 5.6408 19.9957 5.8531L19.2394 11.0374C19.1781 11.459 18.9882 11.8409 18.6472 12.0899L17.4241 12.9837L17.4232 12.9847Z" fill="#3ED9BB"/>
</svg>
