<svg width="16" height="16" viewBox="0 0 16 16" fill="none" xmlns="http://www.w3.org/2000/svg">
<path d="M11.6158 8.4899C11.5354 8.54809 11.4233 8.67375 11.4022 8.7584L11.2401 9.41115C11.1814 9.64791 11.0344 9.85624 10.8321 10.0064C10.0378 10.5989 9.25083 11.1657 8.42165 11.7007C8.1468 11.878 7.84756 11.878 7.57468 11.6987C6.71189 11.132 5.88732 10.5473 5.05551 9.93163C4.89732 9.81457 4.77472 9.61683 4.73056 9.4343L4.52162 8.57455L3.56062 7.84839C3.35233 7.69099 3.24028 7.45423 3.20271 7.19895L2.66948 3.59858C2.65037 3.46763 2.74528 3.28312 2.82042 3.22161C2.89556 3.16011 3.1078 3.14357 3.21721 3.20706L6.09626 4.88358C6.22611 4.95897 6.37705 4.95434 6.4924 4.87564L7.71573 4.03837C7.91017 3.90544 8.13691 3.85783 8.35508 4.01324L9.55337 4.86836C9.65026 4.93781 9.80515 5.00659 9.91127 4.9464L12.7336 3.34132C12.8536 3.2732 13.0685 3.28179 13.172 3.3519C13.2583 3.41076 13.3512 3.59395 13.3308 3.73548L12.8266 7.19167C12.7857 7.47275 12.6592 7.72736 12.4318 7.89336L11.6164 8.48923L11.6158 8.4899Z" fill="#3ED9BB"/>
</svg>
