<svg width="24" height="24" viewBox="0 0 24 24" fill="none" xmlns="http://www.w3.org/2000/svg">
<path d="M18.1302 17.13C17.9802 17.31 17.8202 17.49 17.6502 17.65C16.9202 18.39 16.0602 18.96 15.1102 19.36C13.1402 20.19 10.8502 20.19 8.88023 19.36C7.93023 18.96 7.07023 18.38 6.34023 17.64C5.60802 16.9146 5.02682 16.0513 4.63023 15.1C4.21023 14.11 4.00023 13.07 4.00023 11.99H2.00023C2.00023 13.34 2.26023 14.65 2.79023 15.88C3.29023 17.07 4.02023 18.14 4.93023 19.06C5.84023 19.98 6.92023 20.7 8.11023 21.2C9.34023 21.72 10.6502 21.99 12.0002 21.99C13.3502 21.99 14.6602 21.73 15.8902 21.2C17.0802 20.7 18.1502 19.97 19.0702 19.06C19.2402 18.89 19.3902 18.71 19.5502 18.54L22.0002 20.99V14.99H16.0002L18.1302 17.12V17.13ZM19.0702 4.93001C18.1598 4.01632 17.0795 3.28937 15.8902 2.79001C14.6562 2.27539 13.3323 2.01042 11.9952 2.01042C10.6581 2.01042 9.33432 2.27539 8.10023 2.79001C6.91023 3.29001 5.84023 4.02001 4.92023 4.93001C4.75023 5.10001 4.60023 5.28001 4.44023 5.45001L1.99023 3.00001V9.00001H7.99023L5.86023 6.87001C6.01023 6.69001 6.17023 6.51001 6.34023 6.35001C7.07023 5.61001 7.93023 5.04001 8.88023 4.64001C10.8502 3.81001 13.1402 3.81001 15.1102 4.64001C16.0602 5.04001 16.9202 5.62001 17.6502 6.36001C18.3902 7.09001 18.9602 7.95001 19.3602 8.90001C19.7802 9.89001 19.9902 10.93 19.9902 12.01H21.9902C21.9902 10.66 21.7302 9.35001 21.2002 8.12001C20.7002 6.93001 19.9702 5.86001 19.0602 4.94001L19.0702 4.93001Z" fill="black"/>
</svg>
