<svg width="24" height="24" viewBox="0 0 24 24" fill="none" xmlns="http://www.w3.org/2000/svg">
<g clip-path="url(#clip0_2590_75184)">
<path d="M20.009 3H4.001C2.90045 3 2 3.9 2 5V17C2 18.1 2.90045 19 4.001 19H7.0025V21C7.0025 21.36 7.1926 21.69 7.51276 21.87C7.66283 21.96 7.83292 22 8.003 22C8.17309 22 8.36318 21.95 8.51326 21.86L13.2756 19H19.999C21.0995 19 22 18.1 22 17V5C22 3.9 21.0995 3 19.999 3H20.009ZM13.0055 12L10.004 15H8.003V13L11.0045 10L12.1551 8.85L14.1561 10.85L13.0055 12ZM14.8564 10.15L12.8554 8.15L14.006 7L15.0065 8L16.007 9L14.8564 10.15Z" fill="black"/>
</g>
<defs>
<clipPath id="clip0_2590_75184">
<rect width="24" height="24" fill="white"/>
</clipPath>
</defs>
</svg>
