<svg width="16" height="16" viewBox="0 0 16 16" fill="none" xmlns="http://www.w3.org/2000/svg">
<path d="M11.9094 8.38209C11.9101 8.59766 11.776 8.79543 11.6215 8.92613L8.40602 11.6361C8.19297 11.816 7.90867 11.9303 7.64694 11.7202C6.55347 10.8409 5.48892 9.94646 4.43848 9.00962C4.27198 8.86112 4.14429 8.65856 4.14147 8.44847L4.12101 6.76024L3.58415 6.26C3.42472 6.1115 3.33653 5.8802 3.33653 5.65985L3.33301 3.43921C3.33301 3.36325 3.43248 3.21886 3.49809 3.18875C3.5637 3.15864 3.72666 3.16616 3.80567 3.21954L7.84941 5.95821C8.00391 6.06291 8.11749 6.01433 8.25576 5.91852L12.1803 3.20175C12.2572 3.14837 12.43 3.16411 12.4963 3.19559C12.5739 3.23254 12.6663 3.37899 12.6663 3.48164L12.6635 5.61742C12.6635 5.86788 12.5676 6.06839 12.3898 6.2381L11.903 6.70071L11.9101 8.38141L11.9094 8.38209Z" fill="#BDBDBD"/>
</svg>
