<svg width="24" height="24" viewBox="0 0 24 24" fill="none" xmlns="http://www.w3.org/2000/svg">
<path d="M17.8646 12.823C17.8656 13.1464 17.6645 13.443 17.4328 13.6391L12.6095 17.704C12.2899 17.9739 11.8635 18.1454 11.4709 17.8302C9.83069 16.5112 8.23386 15.1696 6.6582 13.7643C6.40847 13.5416 6.21693 13.2377 6.2127 12.9226L6.18201 10.3902L5.37672 9.63988C5.13757 9.41713 5.00529 9.07018 5.00529 8.73965L5 5.40869C5 5.29475 5.14921 5.07816 5.24762 5.033C5.34603 4.98783 5.59048 4.99912 5.70899 5.07919L11.7746 9.1872C12.0063 9.34425 12.1767 9.27137 12.3841 9.12766L18.2709 5.0525C18.3862 4.97244 18.6455 4.99604 18.745 5.04326C18.8614 5.09869 19 5.31836 19 5.47234L18.9958 8.67601C18.9958 9.0517 18.8519 9.35246 18.5852 9.60703L17.855 10.3009L17.8656 12.822L17.8646 12.823Z" fill="#BDBDBD"/>
</svg>
