<svg width="40" height="40" viewBox="0 0 40 40" fill="none" xmlns="http://www.w3.org/2000/svg">
<path d="M8.84592 34.1667C8.00398 34.1667 7.29134 33.875 6.70801 33.2917C6.12467 32.7083 5.83301 31.9957 5.83301 31.1538V26.25C5.83301 25.8953 5.95273 25.5983 6.19217 25.3592C6.43134 25.1197 6.72829 25 7.08301 25C7.43773 25 7.73467 25.1197 7.97384 25.3592C8.21329 25.5983 8.33301 25.8953 8.33301 26.25V31.1538C8.33301 31.2821 8.38648 31.3996 8.49342 31.5063C8.60009 31.6132 8.71759 31.6667 8.84592 31.6667H13.7497C14.1044 31.6667 14.4013 31.7864 14.6405 32.0258C14.88 32.265 14.9997 32.5619 14.9997 32.9167C14.9997 33.2714 14.88 33.5683 14.6405 33.8075C14.4013 34.0469 14.1044 34.1667 13.7497 34.1667H8.84592ZM31.1534 34.1667H26.2497C25.895 34.1667 25.598 34.0469 25.3588 33.8075C25.1194 33.5683 24.9997 33.2714 24.9997 32.9167C24.9997 32.5619 25.1194 32.265 25.3588 32.0258C25.598 31.7864 25.895 31.6667 26.2497 31.6667H31.1534C31.2818 31.6667 31.3993 31.6132 31.5059 31.5063C31.6129 31.3996 31.6663 31.2821 31.6663 31.1538V26.25C31.6663 25.8953 31.7861 25.5983 32.0255 25.3592C32.2647 25.1197 32.5616 25 32.9163 25C33.2711 25 33.568 25.1197 33.8072 25.3592C34.0466 25.5983 34.1663 25.8953 34.1663 26.25V31.1538C34.1663 31.9957 33.8747 32.7083 33.2913 33.2917C32.708 33.875 31.9954 34.1667 31.1534 34.1667ZM5.83301 13.75V8.84625C5.83301 8.00431 6.12467 7.29167 6.70801 6.70833C7.29134 6.125 8.00398 5.83333 8.84592 5.83333H13.7497C14.1044 5.83333 14.4013 5.95306 14.6405 6.1925C14.88 6.43167 14.9997 6.72861 14.9997 7.08333C14.9997 7.43806 14.88 7.735 14.6405 7.97417C14.4013 8.21361 14.1044 8.33333 13.7497 8.33333H8.84592C8.71759 8.33333 8.60009 8.3868 8.49342 8.49375C8.38648 8.60042 8.33301 8.71792 8.33301 8.84625V13.75C8.33301 14.1047 8.21329 14.4017 7.97384 14.6408C7.73467 14.8803 7.43773 15 7.08301 15C6.72829 15 6.43134 14.8803 6.19217 14.6408C5.95273 14.4017 5.83301 14.1047 5.83301 13.75ZM31.6663 13.75V8.84625C31.6663 8.71792 31.6129 8.60042 31.5059 8.49375C31.3993 8.3868 31.2818 8.33333 31.1534 8.33333H26.2497C25.895 8.33333 25.598 8.21361 25.3588 7.97417C25.1194 7.735 24.9997 7.43806 24.9997 7.08333C24.9997 6.72861 25.1194 6.43167 25.3588 6.1925C25.598 5.95306 25.895 5.83333 26.2497 5.83333H31.1534C31.9954 5.83333 32.708 6.125 33.2913 6.70833C33.8747 7.29167 34.1663 8.00431 34.1663 8.84625V13.75C34.1663 14.1047 34.0466 14.4017 33.8072 14.6408C33.568 14.8803 33.2711 15 32.9163 15C32.5616 15 32.2647 14.8803 32.0255 14.6408C31.7861 14.4017 31.6663 14.1047 31.6663 13.75Z" fill="#030712"/>
</svg>
