<svg width="32" height="32" viewBox="0 0 32 32" fill="none" xmlns="http://www.w3.org/2000/svg">
<path d="M7.07733 27.3333C6.40377 27.3333 5.83366 27.1 5.36699 26.6333C4.90033 26.1667 4.66699 25.5966 4.66699 24.923V21C4.66699 20.7162 4.76277 20.4787 4.95433 20.2873C5.14566 20.0958 5.38321 20 5.66699 20C5.95077 20 6.18833 20.0958 6.37966 20.2873C6.57121 20.4787 6.66699 20.7162 6.66699 21V24.923C6.66699 25.0257 6.70977 25.1197 6.79533 25.205C6.88066 25.2906 6.97466 25.3333 7.07733 25.3333H11.0003C11.2841 25.3333 11.5217 25.4291 11.713 25.6207C11.9045 25.812 12.0003 26.0496 12.0003 26.3333C12.0003 26.6171 11.9045 26.8547 11.713 27.046C11.5217 27.2376 11.2841 27.3333 11.0003 27.3333H7.07733ZM24.9233 27.3333H21.0003C20.7165 27.3333 20.479 27.2376 20.2877 27.046C20.0961 26.8547 20.0003 26.6171 20.0003 26.3333C20.0003 26.0496 20.0961 25.812 20.2877 25.6207C20.479 25.4291 20.7165 25.3333 21.0003 25.3333H24.9233C25.026 25.3333 25.12 25.2906 25.2053 25.205C25.2909 25.1197 25.3337 25.0257 25.3337 24.923V21C25.3337 20.7162 25.4294 20.4787 25.621 20.2873C25.8123 20.0958 26.0499 20 26.3337 20C26.6174 20 26.855 20.0958 27.0463 20.2873C27.2379 20.4787 27.3337 20.7162 27.3337 21V24.923C27.3337 25.5966 27.1003 26.1667 26.6337 26.6333C26.167 27.1 25.5969 27.3333 24.9233 27.3333ZM4.66699 11V7.077C4.66699 6.40345 4.90033 5.83333 5.36699 5.36667C5.83366 4.9 6.40377 4.66667 7.07733 4.66667H11.0003C11.2841 4.66667 11.5217 4.76245 11.713 4.954C11.9045 5.14533 12.0003 5.38289 12.0003 5.66667C12.0003 5.95045 11.9045 6.188 11.713 6.37933C11.5217 6.57089 11.2841 6.66667 11.0003 6.66667H7.07733C6.97466 6.66667 6.88066 6.70944 6.79533 6.795C6.70977 6.88033 6.66699 6.97433 6.66699 7.077V11C6.66699 11.2838 6.57121 11.5213 6.37966 11.7127C6.18833 11.9042 5.95077 12 5.66699 12C5.38321 12 5.14566 11.9042 4.95433 11.7127C4.76277 11.5213 4.66699 11.2838 4.66699 11ZM25.3337 11V7.077C25.3337 6.97433 25.2909 6.88033 25.2053 6.795C25.12 6.70944 25.026 6.66667 24.9233 6.66667H21.0003C20.7165 6.66667 20.479 6.57089 20.2877 6.37933C20.0961 6.188 20.0003 5.95045 20.0003 5.66667C20.0003 5.38289 20.0961 5.14533 20.2877 4.954C20.479 4.76245 20.7165 4.66667 21.0003 4.66667H24.9233C25.5969 4.66667 26.167 4.9 26.6337 5.36667C27.1003 5.83333 27.3337 6.40345 27.3337 7.077V11C27.3337 11.2838 27.2379 11.5213 27.0463 11.7127C26.855 11.9042 26.6174 12 26.3337 12C26.0499 12 25.8123 11.9042 25.621 11.7127C25.4294 11.5213 25.3337 11.2838 25.3337 11Z" fill="#030712"/>
</svg>
