<svg width="20" height="20" viewBox="0 0 20 20" fill="none" xmlns="http://www.w3.org/2000/svg">
<path d="M4.42345 17.0833C4.00248 17.0833 3.64616 16.9375 3.35449 16.6458C3.06283 16.3542 2.91699 15.9978 2.91699 15.5769V13.125C2.91699 12.9476 2.97685 12.7992 3.09658 12.6796C3.21616 12.5599 3.36463 12.5 3.54199 12.5C3.71935 12.5 3.86783 12.5599 3.98741 12.6796C4.10713 12.7992 4.16699 12.9476 4.16699 13.125V15.5769C4.16699 15.641 4.19373 15.6998 4.2472 15.7531C4.30053 15.8066 4.35928 15.8333 4.42345 15.8333H6.87533C7.05269 15.8333 7.20116 15.8932 7.32074 16.0129C7.44046 16.1325 7.50033 16.281 7.50033 16.4583C7.50033 16.6357 7.44046 16.7842 7.32074 16.9037C7.20116 17.0235 7.05269 17.0833 6.87533 17.0833H4.42345ZM15.5772 17.0833H13.1253C12.948 17.0833 12.7995 17.0235 12.6799 16.9037C12.5602 16.7842 12.5003 16.6357 12.5003 16.4583C12.5003 16.281 12.5602 16.1325 12.6799 16.0129C12.7995 15.8932 12.948 15.8333 13.1253 15.8333H15.5772C15.6414 15.8333 15.7001 15.8066 15.7535 15.7531C15.8069 15.6998 15.8337 15.641 15.8337 15.5769V13.125C15.8337 12.9476 15.8935 12.7992 16.0132 12.6796C16.1328 12.5599 16.2813 12.5 16.4587 12.5C16.636 12.5 16.7845 12.5599 16.9041 12.6796C17.0238 12.7992 17.0837 12.9476 17.0837 13.125V15.5769C17.0837 15.9978 16.9378 16.3542 16.6462 16.6458C16.3545 16.9375 15.9982 17.0833 15.5772 17.0833ZM2.91699 6.875V4.42312C2.91699 4.00215 3.06283 3.64583 3.35449 3.35416C3.64616 3.0625 4.00248 2.91666 4.42345 2.91666H6.87533C7.05269 2.91666 7.20116 2.97653 7.32074 3.09625C7.44046 3.21583 7.50033 3.3643 7.50033 3.54166C7.50033 3.71903 7.44046 3.8675 7.32074 3.98708C7.20116 4.1068 7.05269 4.16666 6.87533 4.16666H4.42345C4.35928 4.16666 4.30053 4.1934 4.2472 4.24687C4.19373 4.30021 4.16699 4.35896 4.16699 4.42312V6.875C4.16699 7.05236 4.10713 7.20083 3.98741 7.32041C3.86783 7.44014 3.71935 7.5 3.54199 7.5C3.36463 7.5 3.21616 7.44014 3.09658 7.32041C2.97685 7.20083 2.91699 7.05236 2.91699 6.875ZM15.8337 6.875V4.42312C15.8337 4.35896 15.8069 4.30021 15.7535 4.24687C15.7001 4.1934 15.6414 4.16666 15.5772 4.16666H13.1253C12.948 4.16666 12.7995 4.1068 12.6799 3.98708C12.5602 3.8675 12.5003 3.71903 12.5003 3.54166C12.5003 3.3643 12.5602 3.21583 12.6799 3.09625C12.7995 2.97653 12.948 2.91666 13.1253 2.91666H15.5772C15.9982 2.91666 16.3545 3.0625 16.6462 3.35416C16.9378 3.64583 17.0837 4.00215 17.0837 4.42312V6.875C17.0837 7.05236 17.0238 7.20083 16.9041 7.32041C16.7845 7.44014 16.636 7.5 16.4587 7.5C16.2813 7.5 16.1328 7.44014 16.0132 7.32041C15.8935 7.20083 15.8337 7.05236 15.8337 6.875Z" fill="#030712"/>
</svg>
