<svg width="14" height="14" viewBox="0 0 14 14" fill="none" xmlns="http://www.w3.org/2000/svg">
<path d="M3.09651 11.9583C2.80183 11.9583 2.55241 11.8563 2.34824 11.6521C2.14408 11.4479 2.04199 11.1985 2.04199 10.9038V9.1875C2.04199 9.06335 2.08389 8.95942 2.1677 8.87571C2.25141 8.79191 2.35534 8.75 2.47949 8.75C2.60364 8.75 2.70758 8.79191 2.79128 8.87571C2.87509 8.95942 2.91699 9.06335 2.91699 9.1875V10.9038C2.91699 10.9487 2.93571 10.9899 2.97314 11.0272C3.01047 11.0646 3.0516 11.0833 3.09651 11.0833H4.81283C4.93698 11.0833 5.04091 11.1252 5.12462 11.209C5.20842 11.2928 5.25033 11.3967 5.25033 11.5208C5.25033 11.645 5.20842 11.7489 5.12462 11.8326C5.04091 11.9164 4.93698 11.9583 4.81283 11.9583H3.09651ZM10.9041 11.9583H9.18783C9.06367 11.9583 8.95974 11.9164 8.87603 11.8326C8.79223 11.7489 8.75033 11.645 8.75033 11.5208C8.75033 11.3967 8.79223 11.2928 8.87603 11.209C8.95974 11.1252 9.06367 11.0833 9.18783 11.0833H10.9041C10.9491 11.0833 10.9902 11.0646 11.0275 11.0272C11.0649 10.9899 11.0837 10.9487 11.0837 10.9038V9.1875C11.0837 9.06335 11.1256 8.95942 11.2094 8.87571C11.2931 8.79191 11.397 8.75 11.5212 8.75C11.6453 8.75 11.7492 8.79191 11.8329 8.87571C11.9168 8.95942 11.9587 9.06335 11.9587 9.1875V10.9038C11.9587 11.1985 11.8566 11.4479 11.6524 11.6521C11.4482 11.8563 11.1988 11.9583 10.9041 11.9583ZM2.04199 4.81251V3.09619C2.04199 2.80151 2.14408 2.55209 2.34824 2.34792C2.55241 2.14376 2.80183 2.04167 3.09651 2.04167H4.81283C4.93698 2.04167 5.04091 2.08357 5.12462 2.16738C5.20842 2.25109 5.25033 2.35502 5.25033 2.47917C5.25033 2.60332 5.20842 2.70726 5.12462 2.79096C5.04091 2.87477 4.93698 2.91667 4.81283 2.91667H3.09651C3.0516 2.91667 3.01047 2.93539 2.97314 2.97282C2.93571 3.01015 2.91699 3.05128 2.91699 3.09619V4.81251C2.91699 4.93666 2.87509 5.04059 2.79128 5.1243C2.70758 5.2081 2.60364 5.25001 2.47949 5.25001C2.35534 5.25001 2.25141 5.2081 2.1677 5.1243C2.08389 5.04059 2.04199 4.93666 2.04199 4.81251ZM11.0837 4.81251V3.09619C11.0837 3.05128 11.0649 3.01015 11.0275 2.97282C10.9902 2.93539 10.9491 2.91667 10.9041 2.91667H9.18783C9.06367 2.91667 8.95974 2.87477 8.87603 2.79096C8.79223 2.70726 8.75033 2.60332 8.75033 2.47917C8.75033 2.35502 8.79223 2.25109 8.87603 2.16738C8.95974 2.08357 9.06367 2.04167 9.18783 2.04167H10.9041C11.1988 2.04167 11.4482 2.14376 11.6524 2.34792C11.8566 2.55209 11.9587 2.80151 11.9587 3.09619V4.81251C11.9587 4.93666 11.9168 5.04059 11.8329 5.1243C11.7492 5.2081 11.6453 5.25001 11.5212 5.25001C11.397 5.25001 11.2931 5.2081 11.2094 5.1243C11.1256 5.04059 11.0837 4.93666 11.0837 4.81251Z" fill="#030712"/>
</svg>
