<svg width="16" height="16" viewBox="0 0 16 16" fill="none" xmlns="http://www.w3.org/2000/svg">
<path d="M3.53817 13.6667C3.2014 13.6667 2.91634 13.55 2.68301 13.3167C2.44967 13.0833 2.33301 12.7983 2.33301 12.4615V10.5C2.33301 10.3581 2.3809 10.2393 2.47667 10.1437C2.57234 10.0479 2.69112 10 2.83301 10C2.9749 10 3.09367 10.0479 3.18934 10.1437C3.28512 10.2393 3.33301 10.3581 3.33301 10.5V12.4615C3.33301 12.5128 3.3544 12.5598 3.39717 12.6025C3.43984 12.6453 3.48684 12.6667 3.53817 12.6667H5.49967C5.64156 12.6667 5.76034 12.7146 5.85601 12.8103C5.95179 12.906 5.99967 13.0248 5.99967 13.1667C5.99967 13.3086 5.95179 13.4273 5.85601 13.523C5.76034 13.6188 5.64156 13.6667 5.49967 13.6667H3.53817ZM12.4612 13.6667H10.4997C10.3578 13.6667 10.239 13.6188 10.1433 13.523C10.0476 13.4273 9.99967 13.3086 9.99967 13.1667C9.99967 13.0248 10.0476 12.906 10.1433 12.8103C10.239 12.7146 10.3578 12.6667 10.4997 12.6667H12.4612C12.5125 12.6667 12.5595 12.6453 12.6022 12.6025C12.645 12.5598 12.6663 12.5128 12.6663 12.4615V10.5C12.6663 10.3581 12.7142 10.2393 12.81 10.1437C12.9057 10.0479 13.0245 10 13.1663 10C13.3082 10 13.427 10.0479 13.5227 10.1437C13.6185 10.2393 13.6663 10.3581 13.6663 10.5V12.4615C13.6663 12.7983 13.5497 13.0833 13.3163 13.3167C13.083 13.55 12.798 13.6667 12.4612 13.6667ZM2.33301 5.5V3.5385C2.33301 3.20172 2.44967 2.91667 2.68301 2.68334C2.91634 2.45 3.2014 2.33334 3.53817 2.33334H5.49967C5.64156 2.33334 5.76034 2.38122 5.85601 2.477C5.95179 2.57267 5.99967 2.69145 5.99967 2.83334C5.99967 2.97522 5.95179 3.094 5.85601 3.18967C5.76034 3.28545 5.64156 3.33334 5.49967 3.33334H3.53817C3.48684 3.33334 3.43984 3.35472 3.39717 3.3975C3.3544 3.44017 3.33301 3.48717 3.33301 3.5385V5.5C3.33301 5.64189 3.28512 5.76067 3.18934 5.85634C3.09367 5.95211 2.9749 6 2.83301 6C2.69112 6 2.57234 5.95211 2.47667 5.85634C2.3809 5.76067 2.33301 5.64189 2.33301 5.5ZM12.6663 5.5V3.5385C12.6663 3.48717 12.645 3.44017 12.6022 3.3975C12.5595 3.35472 12.5125 3.33334 12.4612 3.33334H10.4997C10.3578 3.33334 10.239 3.28545 10.1433 3.18967C10.0476 3.094 9.99967 2.97522 9.99967 2.83334C9.99967 2.69145 10.0476 2.57267 10.1433 2.477C10.239 2.38122 10.3578 2.33334 10.4997 2.33334H12.4612C12.798 2.33334 13.083 2.45 13.3163 2.68334C13.5497 2.91667 13.6663 3.20172 13.6663 3.5385V5.5C13.6663 5.64189 13.6185 5.76067 13.5227 5.85634C13.427 5.95211 13.3082 6 13.1663 6C13.0245 6 12.9057 5.95211 12.81 5.85634C12.7142 5.76067 12.6663 5.64189 12.6663 5.5Z" fill="#030712"/>
</svg>
