<svg width="24" height="24" viewBox="0 0 24 24" fill="none" xmlns="http://www.w3.org/2000/svg">
<path d="M9.20984 17.62L12.2998 20.71C12.4898 20.9 12.7398 21 13.0098 21H16.0098V19H13.4198L4.99984 10.59V8H2.99984V11C2.99984 11.27 3.10984 11.52 3.28984 11.71L6.37984 14.8L1.58984 19.59L4.41984 22.42L9.20984 17.63V17.62Z" fill="currentColor"/>
<path d="M21.0003 2H16.0003C15.7003 2 15.4203 2.13 15.2303 2.37L7.57031 11.74L12.2703 16.44L21.6403 8.78C21.8703 8.59 22.0103 8.31 22.0103 8.01V3C22.0103 2.45 21.5603 2 21.0103 2H21.0003Z" fill="currentColor"/>
</svg>
