<svg width="20" height="20" viewBox="0 0 20 20" fill="none" xmlns="http://www.w3.org/2000/svg">
<path d="M3.33317 6.66699H16.6665V17.5003C16.6665 17.9606 16.2934 18.3337 15.8332 18.3337H4.1665C3.70627 18.3337 3.33317 17.9606 3.33317 17.5003V6.66699ZM5.83317 4.16699V2.50033C5.83317 2.04009 6.20627 1.66699 6.6665 1.66699H13.3332C13.7934 1.66699 14.1665 2.04009 14.1665 2.50033V4.16699H18.3332V5.83366H1.6665V4.16699H5.83317ZM7.49984 3.33366V4.16699H12.4998V3.33366H7.49984ZM7.49984 10.0003V15.0003H9.1665V10.0003H7.49984ZM10.8332 10.0003V15.0003H12.4998V10.0003H10.8332Z" fill="#A9AFB9"/>
</svg>
