<?xml version="1.0" encoding="UTF-8"?>
<svg id="_레이어_2" data-name="레이어_2" xmlns="http://www.w3.org/2000/svg" version="1.1" viewBox="0 0 1024 1024">
  <!-- Generator: Adobe Illustrator 30.1.0, SVG Export Plug-In . SVG Version: 2.1.1 Build 136)  -->
  <polygon points="534.7 645.6 570.5 645.6 570.5 596.6 534.7 596.6 489.3 596.6 453.5 596.6 453.5 645.6 489.3 645.6 489.3 712.7 451.4 712.7 451.4 752.7 572.6 752.7 572.6 712.7 534.7 712.7 534.7 645.6"/>
  <path d="M864.2,218.8v-52.5h-190v52.5h-35.6v45.6h-253.3v-45.6h-35.6v-52.5h-190v52.5h-47.8v157.8h47.8v42.2h48.3v95.6h-46.6v201.1h46.6v47.8h57.3v46.6h53.5v47.8h386.4v-47.8h53.5v-46.6h57.3v-47.8h46.6v-201.1h-46.6v-95.6h48.3v-42.2h47.8v-157.8h-47.8ZM285.6,344.3h-75.6v-82.2h75.6v82.2ZM339.2,472.1h57.8v56.7h-57.8v-56.7ZM658.1,711h-51.1v42.2h-29.2v37.8h-131.7v-37.8h-29.2v-42.2h-51.1v-108.9h51.1v-42.2h190v42.2h51.1v108.9ZM684.8,528.8h-57.8v-56.7h57.8v56.7ZM813.9,344.3h-75.6v-82.2h75.6v82.2Z"/>
</svg>