<?xml version="1.0" encoding="UTF-8"?>
<svg id="_레이어_2" data-name="레이어_2" xmlns="http://www.w3.org/2000/svg" version="1.1" viewBox="0 0 1024 1024">
  <!-- Generator: Adobe Illustrator 30.1.0, SVG Export Plug-In . SVG Version: 2.1.1 Build 136)  -->
  <path d="M814.2,631.9v-46.7h94.6v-47.7h-53.1v-245.1h-47.7v-93.4h-89.1v48.7h-52v44.6h-48.8v46.7h-215.4v-47.7h-47.7v-44.6h-54.1v-47.7h-90.2v91.2h-47.7l2.1,247.2-53.1-.2v47.9h100.8v47.7h-96.6v48.8h50.9v49.9h59.4v47.7h52v45.6h460.6v-45.6h57.2v-50.9h62.6v-47.7h53v-48.8h-97.8ZM261.1,390.5v-98.8h49.8v47.9h45.7v51h-95.5ZM399.8,576.3h-61.5v-53.1h61.5v53.1ZM592,732.3h-62.5v-26.5h-35.1v26.5h-62.5v-40.3h62v-45.6h-33.4v-47.7h102.9v47.7h-33.4v45.6h62v40.3ZM685.7,576.3h-61.5v-53.1h61.5v53.1ZM762.9,339.5v51h-95.5v-51h45.7v-47.9h49.8v47.9Z"/>
</svg>