<?xml version="1.0" encoding="UTF-8"?>
<svg version="1.1" xmlns="http://www.w3.org/2000/svg" width="1024" height="1024">
<path d="M0 0 C28.71 0.33 57.42 0.66 87 1 C86.67 5.95 86.34 10.9 86 16 C85.92698307 18.70883436 85.88150247 21.4188484 85.88647461 24.12866211 C85.88625557 25.15607262 85.88625557 25.15607262 85.8860321 26.20423889 C85.88671069 28.39530995 85.89440268 30.58628818 85.90234375 32.77734375 C85.90421529 34.325322 85.9056357 35.87330085 85.90663147 37.42127991 C85.9103988 41.44064043 85.92017758 45.45996319 85.93133545 49.47930908 C85.94167601 53.60273732 85.94615581 57.72617183 85.95117188 61.84960938 C85.96180678 69.89975666 85.97881103 77.9498736 86 86 C89.44167318 87.14722439 92.05921002 87.09720203 95.6875 87.0625 C96.67411621 87.05682007 96.67411621 87.05682007 97.68066406 87.05102539 C100.48396654 87.03478877 103.28712073 87.00699391 106.09033203 86.97949219 C108.14354742 86.96108639 110.19673692 86.94918463 112.25 86.9375 C113.47203125 86.92589844 114.6940625 86.91429687 115.953125 86.90234375 C120.98061421 87.02366347 125.99170007 87.54470001 131 88 C130.67 164.56 130.34 241.12 130 320 C132.97 319.67 135.94 319.34 139 319 C140.59392802 318.9273623 142.18982596 318.88147281 143.78540039 318.88647461 C144.60557144 318.88655014 145.42574249 318.88662567 146.27076721 318.88670349 C147.54632729 318.89444542 147.54632729 318.89444542 148.84765625 318.90234375 C149.74495956 318.9037587 150.64226288 318.90517365 151.5667572 318.90663147 C154.39870714 318.9121749 157.23057445 318.92471642 160.0625 318.9375 C161.99674364 318.94252233 163.93098853 318.94708394 165.86523438 318.95117188 C170.57685417 318.96212571 175.28841313 318.97935047 180 319 C181.41873179 334.6313842 181.09599524 350.32176224 181 366 C170.11684749 366.02316034 159.23370084 366.04093396 148.35052872 366.05181217 C143.29715352 366.0570329 138.24379518 366.0641159 133.19042969 366.07543945 C128.31455062 366.08629704 123.43868777 366.09228295 118.56279755 366.09487724 C116.70165502 366.0967263 114.84051338 366.10033698 112.97937775 366.10573006 C110.3745786 366.11297854 107.76984665 366.11398932 105.16503906 366.11352539 C104.39395813 366.11712067 103.6228772 366.12071594 102.82843018 366.12442017 C99.41401924 366.1178306 96.26267517 366.07954886 93 365 C93.16226074 365.81694336 93.32452148 366.63388672 93.49169922 367.47558594 C94.06717254 371.46575541 94.14366113 375.36993982 94.1328125 379.390625 C94.13376923 380.17644958 94.13472595 380.96227417 94.13571167 381.77191162 C94.13638886 383.42248617 94.13456691 385.07306345 94.13037109 386.72363281 C94.12498742 389.25591948 94.13034638 391.78803109 94.13671875 394.3203125 C94.13605845 395.92708373 94.13477828 397.53385484 94.1328125 399.140625 C94.13483673 399.89893616 94.13686096 400.65724731 94.13894653 401.4385376 C94.11498043 406.77003915 94.11498043 406.77003915 93 409 C93.84852539 408.96447021 94.69705078 408.92894043 95.57128906 408.89233398 C124.40740202 407.75085687 153.15764061 408.25278597 182 409 C181.75443359 410.18372192 181.75443359 410.18372192 181.50390625 411.39135742 C180.87814093 415.8726739 180.89512148 420.22077781 180.9375 424.73828125 C180.94128662 425.65965378 180.94507324 426.58102631 180.94897461 427.53031921 C180.96114351 430.45776145 180.97978948 433.38510292 181 436.3125 C181.02648624 440.18359079 181.04650748 444.05463455 181.0625 447.92578125 C181.07079834 448.82049637 181.07909668 449.71521149 181.08764648 450.63703918 C181.09617637 452.75821018 181.05345722 454.87948557 181 457 C180 458 180 458 178.05747986 458.12025452 C176.78173851 458.1169236 176.78173851 458.1169236 175.48022461 458.11352539 C174.03884377 458.11341209 174.03884377 458.11341209 172.56834412 458.11329651 C171.523564 458.10813522 170.47878387 458.10297394 169.40234375 458.09765625 C167.80635094 458.09553383 167.80635094 458.09553383 166.17811584 458.09336853 C162.76454917 458.08775064 159.351047 458.07519511 155.9375 458.0625 C153.62955824 458.05748731 151.32161545 458.052924 149.01367188 458.04882812 C143.34242574 458.0377754 137.67121747 458.02101987 132 458 C132.01571045 459.29212402 132.0314209 460.58424805 132.04760742 461.91552734 C132.10180039 466.69752803 132.13631126 471.47950145 132.16479492 476.26171875 C132.17990586 478.33370524 132.20039541 480.40565963 132.22631836 482.47753906 C132.26260051 485.45125233 132.27970298 488.42454373 132.29296875 491.3984375 C132.30845261 492.32868744 132.32393646 493.25893738 132.33988953 494.21737671 C132.34011612 495.07811798 132.34034271 495.93885925 132.34057617 496.82568359 C132.34723801 497.58513275 132.35389984 498.34458191 132.36076355 499.12704468 C132.24171158 499.74511993 132.12265961 500.36319519 132 501 C128.6133046 503.25779693 127.48309149 503.24486783 123.51879883 503.22705078 C122.39786331 503.22689972 121.2769278 503.22674866 120.12202454 503.22659302 C118.91257675 503.21627045 117.70312897 503.20594788 116.45703125 503.1953125 C114.59893074 503.19106766 114.59893074 503.19106766 112.70329285 503.18673706 C109.41361913 503.17743186 106.12414137 503.15946791 102.83453369 503.1373291 C99.4763025 503.1168527 96.11804175 503.10762189 92.75976562 503.09765625 C86.17302067 503.07728277 79.5867621 503.038135 73 503 C72.67 518.18 72.34 533.36 72 549 C54.84 549 37.68 549 20 549 C20.33 563.19 20.66 577.38 21 592 C16 593 16 593 14 593 C13.34 593.33 12.68 593.66 12 594 C11.01 593.34 10.02 592.68 9 592 C6.35868086 591.72909547 4.67070539 591.58202418 2.3828125 593.0078125 C-1.2555695 594.52281091 -4.79113053 594.20949175 -8.6875 594.125 C-9.47189453 594.11597656 -10.25628906 594.10695313 -11.06445312 594.09765625 C-13.04309167 594.07371421 -15.02157853 594.03784441 -17 594 C-17.33 594 -17.66 594 -18 594 C-19.0725 593.814375 -20.145 593.62875 -21.25 593.4375 C-24.74792465 593.02940879 -26.64044192 593.31030599 -30 594 C-34.06054653 594.21535121 -38.12177342 594.18510417 -42.1875 594.1875 C-43.29287109 594.19974609 -44.39824219 594.21199219 -45.53710938 594.22460938 C-46.59091797 594.22654297 -47.64472656 594.22847656 -48.73046875 594.23046875 C-49.69364014 594.23457764 -50.65681152 594.23868652 -51.64916992 594.24291992 C-54 594 -54 594 -56 592 C-61.32034103 591.5633647 -61.32034103 591.5633647 -66.25 593.125 C-66.8275 593.41375 -67.405 593.7025 -68 594 C-68.5775 593.690625 -69.155 593.38125 -69.75 593.0625 C-72.56774015 591.73190049 -74.6499821 591.80119005 -77.75 591.875 C-79.22726562 591.90207031 -79.22726562 591.90207031 -80.734375 591.9296875 C-81.48203125 591.95289063 -82.2296875 591.97609375 -83 592 C-83.33 592.66 -83.66 593.32 -84 594 C-84.556875 593.67 -85.11375 593.34 -85.6875 593 C-88.36784892 591.8409302 -90.10596033 591.70317542 -93 592 C-93.99 592.66 -94.98 593.32 -96 594 C-98.77734375 594.23046875 -98.77734375 594.23046875 -101.9375 594.1875 C-102.97777344 594.18105469 -104.01804687 594.17460938 -105.08984375 594.16796875 C-107.56066692 594.02535748 -109.64177041 593.71031012 -112 593 C-112.33 593.66 -112.66 594.32 -113 595 C-114.65 594.34 -116.3 593.68 -118 593 C-118 592.67 -118 592.34 -118 592 C-121.3 592 -124.6 592 -128 592 C-128 592.66 -128 593.32 -128 594 C-131.34252724 594.07427838 -133.8035914 594.06546953 -137 593 C-137.99 593.33 -138.98 593.66 -140 594 C-148.2173913 594.26086957 -148.2173913 594.26086957 -152 593 C-152 592.34 -152 591.68 -152 591 C-152.53625 591.495 -153.0725 591.99 -153.625 592.5 C-156.59358445 594.37489544 -158.55312427 594.23501425 -162 594 C-162.33 593.01 -162.66 592.02 -163 591 C-163.33 591.66 -163.66 592.32 -164 593 C-165.65 592.67 -167.3 592.34 -169 592 C-169.33 592.66 -169.66 593.32 -170 594 C-172.89608593 594.05413245 -175.79115195 594.09373641 -178.6875 594.125 C-179.50412109 594.14175781 -180.32074219 594.15851562 -181.16210938 594.17578125 C-185.6482582 594.21210634 -188.86823696 593.91381484 -193 592 C-197.26427786 591.46891778 -200.3292724 591.55284826 -204 594 C-205.97265625 593.94140625 -205.97265625 593.94140625 -208.0625 593.5625 C-211.77600533 592.65083184 -211.77600533 592.65083184 -214 594 C-214.99 593.67 -215.98 593.34 -217 593 C-217.5671875 593.14179687 -218.134375 593.28359375 -218.71875 593.4296875 C-221.99307966 594.24826991 -225.13086978 594.13163215 -228.5 594.125 C-229.8096875 594.12757813 -231.119375 594.13015625 -232.46875 594.1328125 C-235.22235924 594.02924755 -237.40352847 593.83458014 -240 593 C-240 592.34 -240 591.68 -240 591 C-240.61875 591.309375 -241.2375 591.61875 -241.875 591.9375 C-243.25 592.625 -244.625 593.3125 -246 594 C-246.99 593.67 -247.98 593.34 -249 593 C-249.99 593.33 -250.98 593.66 -252 594 C-254.6875 593.0625 -254.6875 593.0625 -257 592 C-257.33 592.66 -257.66 593.32 -258 594 C-259.98 593.67 -261.96 593.34 -264 593 C-264.33 593.66 -264.66 594.32 -265 595 C-266.03125 594.649375 -267.0625 594.29875 -268.125 593.9375 C-272.03103089 592.99249253 -274.14323298 593.21111584 -278 594 C-278.99 593.67 -279.98 593.34 -281 593 C-281.99 593.33 -282.98 593.66 -284 594 C-287.97529486 594.23282808 -291.95610461 594.18517034 -295.9375 594.1875 C-297.03513672 594.19974609 -298.13277344 594.21199219 -299.26367188 594.22460938 C-300.84825195 594.22750977 -300.84825195 594.22750977 -302.46484375 594.23046875 C-303.430271 594.23457764 -304.39569824 594.23868652 -305.39038086 594.24291992 C-308.09853031 593.99082817 -309.64544182 593.29429446 -312 592 C-314.59154919 591.75970041 -314.59154919 591.75970041 -317.25 591.875 C-318.58804688 591.90207031 -318.58804688 591.90207031 -319.953125 591.9296875 C-320.62859375 591.95289063 -321.3040625 591.97609375 -322 592 C-322 592.66 -322 593.32 -322 594 C-323.093125 593.814375 -324.18625 593.62875 -325.3125 593.4375 C-328.93624133 592.7421932 -328.93624133 592.7421932 -332 594 C-339.32044761 594.34859274 -339.32044761 594.34859274 -341.95703125 592.99609375 C-344.39304917 591.80836035 -346.05822418 591.79583012 -348.75 591.875 C-349.94882812 591.90207031 -349.94882812 591.90207031 -351.171875 591.9296875 C-351.77515625 591.95289063 -352.3784375 591.97609375 -353 592 C-353.33 592.66 -353.66 593.32 -354 594 C-356.5437456 593.49125088 -359.05585973 592.98501324 -361.5625 592.3125 C-364.47230664 591.93944787 -365.45637204 592.68715976 -368 594 C-370.125 593.5625 -370.125 593.5625 -372 593 C-372.66 593.33 -373.32 593.66 -374 594 C-374.99 593.34 -375.98 592.68 -377 592 C-377 592.33 -377 592.66 -377 593 C-378.175625 592.979375 -379.35125 592.95875 -380.5625 592.9375 C-383.39870738 592.92747807 -385.85528499 593.1304672 -388.6875 593.5625 C-391.83941461 593.97879061 -393.96173578 593.82861751 -397 593 C-397 592.34 -397 591.68 -397 591 C-402.28 591 -407.56 591 -413 591 C-413 591.66 -413 592.32 -413 593 C-413.66 593 -414.32 593 -415 593 C-415 578.48 -415 563.96 -415 549 C-431.17 549 -447.34 549 -464 549 C-464 533.49 -464 517.98 -464 502 C-469.28 502.33 -474.56 502.66 -480 503 C-483.3839338 503.01362514 -486.71831348 502.99734301 -490.09375 502.87890625 C-490.93675659 502.85529526 -491.77976318 502.83168427 -492.64831543 502.80735779 C-495.26579864 502.73252858 -497.88283827 502.64776302 -500.5 502.5625 C-502.30596993 502.50909679 -504.11195966 502.45635877 -505.91796875 502.40429688 C-510.27891122 502.27716828 -514.63948968 502.14114688 -519 502 C-519 502.66 -519 503.32 -519 504 C-519.66 504 -520.32 504 -521 504 C-521.33 489.15 -521.66 474.3 -522 459 C-537.18 458.67 -552.36 458.34 -568 458 C-569.12695605 439.96870322 -569.12695605 439.96870322 -569.1328125 433.7265625 C-569.13376923 433.06586761 -569.13472595 432.40517273 -569.13571167 431.72445679 C-569.13637669 430.36903789 -569.13464373 429.01361545 -569.13037109 427.65820312 C-569.12487255 425.5767532 -569.13043478 423.4955071 -569.13671875 421.4140625 C-569.13606004 420.08072869 -569.1347832 418.74739501 -569.1328125 417.4140625 C-569.13168457 416.2276416 -569.13055664 415.0412207 -569.12939453 413.81884766 C-569 411 -569 411 -568 409 C-551.64809658 407.73424204 -535.33369597 408.06242594 -518.95452881 408.39489746 C-515.34021897 408.46678201 -511.72577145 408.53094149 -508.11132812 408.59570312 C-501.07402191 408.72233846 -494.03712131 408.86143203 -487 409 C-487 394.48 -487 379.96 -487 365 C-492.28 365.33 -497.56 365.66 -503 366 C-506.10656251 366.07994553 -509.18874217 366.14160514 -512.29296875 366.1328125 C-513.47455315 366.13479141 -513.47455315 366.13479141 -514.68000793 366.1368103 C-517.18254857 366.1386872 -519.68497121 366.13246736 -522.1875 366.125 C-523.04786865 366.12411377 -523.9082373 366.12322754 -524.79467773 366.12231445 C-540.55244376 366.10337658 -556.2540043 365.65608315 -572 365 C-572 350.15 -572 335.3 -572 320 C-567.215 319.835 -562.43 319.67 -557.5 319.5 C-556.02724609 319.44779297 -554.55449219 319.39558594 -553.03710938 319.34179688 C-551.81830078 319.30119141 -550.59949219 319.26058594 -549.34375 319.21875 C-548.12880859 319.17685547 -546.91386719 319.13496094 -545.66210938 319.09179688 C-538.77600634 318.95620959 -531.88743776 319 -525 319 C-524.67 242.77 -524.34 166.54 -524 88 C-510.58027985 81.29013993 -494.00370325 87 -479 87 C-479 58.62 -479 30.24 -479 1 C-450.29 1 -421.58 1 -392 1 C-391.3796019 7.20398103 -390.87735 12.82809897 -390.90234375 18.9765625 C-390.90446617 20.02074844 -390.90446617 20.02074844 -390.90663147 21.08602905 C-390.91213926 23.26573359 -390.9246727 25.44532758 -390.9375 27.625 C-390.94252697 29.12109225 -390.94708775 30.61718613 -390.95117188 32.11328125 C-390.96207815 35.74222219 -390.97927618 39.37110027 -391 43 C-390.34 43 -389.68 43 -389 43 C-389 43.66 -389 44.32 -389 45 C-388.41562164 44.99777939 -387.83124329 44.99555878 -387.22915649 44.99327087 C-381.16254282 44.97119612 -375.09594051 44.9560842 -369.02929688 44.94506836 C-366.76334164 44.94003074 -364.49738967 44.93320048 -362.23144531 44.92456055 C-358.97980953 44.91247004 -355.72821661 44.90676608 -352.4765625 44.90234375 C-351.45881744 44.89718246 -350.44107239 44.89202118 -349.39248657 44.88670349 C-348.45166229 44.88662796 -347.51083801 44.88655243 -346.54150391 44.88647461 C-345.71099518 44.884254 -344.88048645 44.88203339 -344.02481079 44.87974548 C-342 45 -342 45 -340 46 C-339.67 59.53 -339.34 73.06 -339 87 C-329.24826197 86.9606732 -329.24826197 86.9606732 -319.49658203 86.90991211 C-312.27618984 86.89529593 -305.16931096 87.04200379 -298 88 C-298 87.34 -298 86.68 -298 86 C-298.99 85.67 -299.98 85.34 -301 85 C-299.68 85 -298.36 85 -297 85 C-294.7547405 90.40449388 -294.73927416 95.21281486 -294.8046875 100.95703125 C-294.80893234 102.37238411 -294.80893234 102.37238411 -294.81326294 103.81632996 C-294.82441023 106.81518517 -294.84949908 109.81373592 -294.875 112.8125 C-294.88503736 114.84830295 -294.89416189 116.88411062 -294.90234375 118.91992188 C-294.92450239 123.94672619 -294.95976915 128.97330988 -295 134 C-295 134.33 -295 134.66 -295 135 C-196 134.505 -196 134.505 -95 134 C-95 118.82 -95 103.64 -95 88 C-91.62925537 87.32585107 -89.27456723 86.87609333 -85.99169922 86.90234375 C-85.24097137 86.90564697 -84.49024353 86.9089502 -83.71676636 86.91235352 C-82.92078033 86.92065186 -82.12479431 86.9289502 -81.3046875 86.9375 C-80.47542755 86.94128662 -79.6461676 86.94507324 -78.79177856 86.94897461 C-76.15279858 86.9611517 -73.51392991 86.97978569 -70.875 87 C-67.39323215 87.0265639 -63.91151837 87.04656427 -60.4296875 87.0625 C-59.62965302 87.07079834 -58.82961853 87.07909668 -58.00534058 87.08764648 C-54.73528922 87.10215665 -52.12563934 87.04187978 -49 86 C-49.01571045 84.20598755 -49.01571045 84.20598755 -49.03173828 82.37573242 C-49.06791405 77.94216907 -49.09089166 73.50861879 -49.10986328 69.07495117 C-49.11992639 67.15533251 -49.13357816 65.23572919 -49.15087891 63.31616211 C-49.17511364 60.55839248 -49.18647992 57.80082536 -49.1953125 55.04296875 C-49.20563507 54.18350143 -49.21595764 53.32403412 -49.22659302 52.43852234 C-49.22681961 51.23761711 -49.22681961 51.23761711 -49.22705078 50.01245117 C-49.231492 49.3085173 -49.23593323 48.60458344 -49.24050903 47.87931824 C-49 46 -49 46 -47 43 C-46.67 43.66 -46.34 44.32 -46 45 C-30.82 45.33 -15.64 45.66 0 46 C-0.33 43.69 -0.66 41.38 -1 39 C-1.0782809 37.65099488 -1.1276463 36.29951553 -1.12939453 34.94824219 C-1.13412277 33.88243927 -1.13412277 33.88243927 -1.13894653 32.79510498 C-1.1369223 32.05318909 -1.13489807 31.31127319 -1.1328125 30.546875 C-1.13376923 29.76483704 -1.13472595 28.98279907 -1.13571167 28.17706299 C-1.13638798 26.53666096 -1.13457227 24.89625617 -1.13037109 23.25585938 C-1.12498592 20.74342902 -1.1303495 18.23117507 -1.13671875 15.71875 C-1.13605844 14.11979127 -1.13477824 12.52083266 -1.1328125 10.921875 C-1.13483673 10.17186218 -1.13686096 9.42184937 -1.13894653 8.64910889 C-1.12470997 5.49696022 -1.0043958 3.01318741 0 0 Z M-433 92 C-433 122.03 -433 152.06 -433 183 C-418.541875 183.020625 -404.08375 183.04125 -389.1875 183.0625 C-384.62059326 183.071604 -380.05368652 183.08070801 -375.34838867 183.09008789 C-371.25827827 183.09343211 -371.25827827 183.09343211 -367.16816711 183.09544373 C-365.34496314 183.09698033 -363.52176018 183.10049947 -361.69856262 183.10557556 C-358.93859081 183.11287634 -356.17868116 183.11390662 -353.41870117 183.11352539 C-352.19826882 183.11892255 -352.19826882 183.11892255 -350.95318127 183.12442875 C-347.70519247 183.11840731 -345.10395917 183.03465306 -342 182 C-342 166.82 -342 151.64 -342 136 C-356.19 136 -370.38 136 -385 136 C-385 121.48 -385 106.96 -385 92 C-400.84 92 -416.68 92 -433 92 Z M-6 92 C-6 106.19 -6 120.38 -6 135 C-9.88437254 136.29479085 -13.55882116 136.12336918 -17.60546875 136.09765625 C-18.34945923 136.09664917 -19.09344971 136.09564209 -19.85998535 136.09460449 C-22.63583927 136.08937743 -25.41167121 136.07541615 -28.1875 136.0625 C-37.4996875 136.0315625 -37.4996875 136.0315625 -47 136 C-46.67 151.51 -46.34 167.02 -46 183 C-17.95 183 10.1 183 39 183 C39.91697359 178.41513205 40.13496319 174.26173466 40.11352539 169.62963867 C40.11367142 168.79985504 40.11381744 167.97007141 40.1139679 167.11514282 C40.11327333 164.38272453 40.10550229 161.65037508 40.09765625 158.91796875 C40.09579045 157.0193943 40.09436731 155.12081937 40.09336853 153.22224426 C40.0895561 148.23278466 40.0797367 143.24335432 40.06866455 138.25390625 C40.05842303 133.15950923 40.05386504 128.06510748 40.04882812 122.97070312 C40.03811328 112.98045592 40.02105216 102.9902304 40 93 C37.21938025 92.07312675 35.57948141 91.87806604 32.7121582 91.88647461 C31.40317566 91.88665588 31.40317566 91.88665588 30.06774902 91.88684082 C28.69809998 91.89451477 28.69809998 91.89451477 27.30078125 91.90234375 C26.45849976 91.90335083 25.61621826 91.90435791 24.74841309 91.90539551 C21.60309487 91.91062616 18.45779606 91.92458743 15.3125 91.9375 C4.7628125 91.9684375 4.7628125 91.9684375 -6 92 Z M-361 310 C-361 326.83 -361 343.66 -361 361 C-360.01 360.505 -360.01 360.505 -359 360 C-357.21268076 359.9091762 -355.42194511 359.88246201 -353.63232422 359.88647461 C-352.51131317 359.88655014 -351.39030212 359.88662567 -350.23532104 359.88670349 C-349.02071198 359.89186478 -347.80610291 359.89702606 -346.5546875 359.90234375 C-345.31453888 359.9037587 -344.07439026 359.90517365 -342.79666138 359.90663147 C-339.49881867 359.91128904 -336.20102454 359.92027561 -332.90319824 359.93133545 C-329.53833624 359.94156269 -326.17346693 359.94618667 -322.80859375 359.95117188 C-316.2056903 359.96136783 -309.6029077 359.98094093 -303 360 C-303 343.5 -303 327 -303 310 C-322.14 310 -341.28 310 -361 310 Z M-90 310 C-90.7146879 313.57343948 -91.12345454 316.17363925 -91.11352539 319.69848633 C-91.11344986 320.59904251 -91.11337433 321.49959869 -91.11329651 322.42744446 C-91.10813522 323.3859581 -91.10297394 324.34447174 -91.09765625 325.33203125 C-91.0962413 326.32377853 -91.09482635 327.31552582 -91.09336853 328.33732605 C-91.08778418 331.49574843 -91.07523452 334.65409915 -91.0625 337.8125 C-91.05748298 339.95768127 -91.05292042 342.10286365 -91.04882812 344.24804688 C-91.03781988 349.49872224 -91.0210973 354.749356 -91 360 C-90.01 360 -89.02 360 -88 360 C-86.23408471 360.02780846 -84.4682198 360.0588677 -82.70239258 360.09179688 C-81.08105156 360.121828 -81.08105156 360.121828 -79.42695618 360.15246582 C-78.26125595 360.1743396 -77.09555573 360.19621338 -75.89453125 360.21875 C-74.70018967 360.24094604 -73.50584808 360.26314209 -72.27531433 360.28601074 C-68.45437132 360.35708034 -64.63343564 360.42853582 -60.8125 360.5 C-58.22460985 360.54820247 -55.63671923 360.59637987 -53.04882812 360.64453125 C-46.69921236 360.76268259 -40.34960664 360.88135536 -34 361 C-34 344.17 -34 327.34 -34 310 C-52.48 310 -70.96 310 -90 310 Z M-247 380 C-247 394.85 -247 409.7 -247 425 C-236.77 425 -226.54 425 -216 425 C-215.67 439.52 -215.34 454.04 -215 469 C-233.15 469 -251.3 469 -270 469 C-270 482.53 -270 496.06 -270 510 C-250.86 510 -231.72 510 -212 510 C-212 501.09 -212 492.18 -212 483 C-212.99 482.34 -213.98 481.68 -215 481 C-203.45 481 -191.9 481 -180 481 C-180.0625 494.9375 -180.0625 494.9375 -180.09008789 499.33959961 C-180.09258545 500.47405518 -180.09508301 501.60851074 -180.09765625 502.77734375 C-180.10551147 504.52905884 -180.10551147 504.52905884 -180.11352539 506.31616211 C-180.30661495 508.91891551 -180.30661495 508.91891551 -179 510 C-177.2507128 510.09365006 -175.49763746 510.11744438 -173.74584961 510.11352539 C-172.06421974 510.11341209 -172.06421974 510.11341209 -170.34861755 510.11329651 C-169.1288472 510.10813522 -167.90907684 510.10297394 -166.65234375 510.09765625 C-165.41078018 510.0962413 -164.16921661 510.09482635 -162.89002991 510.09336853 C-159.58394509 510.08870591 -156.27792854 510.07971497 -152.97186279 510.06866455 C-149.6003885 510.05844827 -146.22890717 510.05387045 -142.85742188 510.04882812 C-136.23826225 510.03777395 -129.61913507 510.02101736 -123 510 C-123 508.88439697 -123 507.76879395 -123 506.61938477 C-123 494.07958984 -123 481.53979492 -123 469 C-141.81 468.67 -160.62 468.34 -180 468 C-180 454.14 -180 440.28 -180 426 C-169.44 425.67 -158.88 425.34 -148 425 C-148 422.08671875 -148 419.1734375 -148 416.171875 C-148 404.11458333 -148 392.05729167 -148 380 C-180.67 380 -213.34 380 -247 380 Z M-338 591 C-338 591.33 -338 591.66 -338 592 C-336.35 592 -334.7 592 -333 592 C-333 591.67 -333 591.34 -333 591 C-334.65 591 -336.3 591 -338 591 Z M-269 591 C-265 592 -265 592 -265 592 Z M-254 591 C-254 591.33 -254 591.66 -254 592 C-252.35 592 -250.7 592 -249 592 C-249 591.67 -249 591.34 -249 591 C-250.65 591 -252.3 591 -254 591 Z M-183 591 C-183 591.33 -183 591.66 -183 592 C-180.36 592 -177.72 592 -175 592 C-175 591.67 -175 591.34 -175 591 C-177.64 591 -180.28 591 -183 591 Z M-150 591 C-150 591.33 -150 591.66 -150 592 C-147.03 592.495 -147.03 592.495 -144 593 C-143.67 592.34 -143.34 591.68 -143 591 C-145.31 591 -147.62 591 -150 591 Z M-116 591 C-114.02 591.99 -114.02 591.99 -112 593 C-111.67 592.34 -111.34 591.68 -111 591 C-112.65 591 -114.3 591 -116 591 Z M-48 591 C-48 591.33 -48 591.66 -48 592 C-45.69 592 -43.38 592 -41 592 C-41 591.67 -41 591.34 -41 591 C-43.31 591 -45.62 591 -48 591 Z " fill="#347E9C" transform="translate(711,197)"/>
<path d="M0 0 C337.92 0 675.84 0 1024 0 C1024 0.33 1024 0.66 1024 1 C686.41 1 348.82 1 1 1 C1 338.26 1 675.52 1 1023 C338.59 1023 676.18 1023 1024 1023 C1024 1023.33 1024 1023.66 1024 1024 C686.08 1024 348.16 1024 0 1024 C0 686.08 0 348.16 0 0 Z " fill="#8C8C8D" transform="translate(0,0)"/>
<path d="M0 0 C0.33 0 0.66 0 1 0 C1 4.29 1 8.58 1 13 C16.51 13 32.02 13 48 13 C48 27.85 48 42.7 48 58 C67.14 58 86.28 58 106 58 C106 73.18 106 88.36 106 104 C121.84 104 137.68 104 154 104 C154 118.19 154 132.38 154 147 C296.89 147 439.78 147 587 147 C586.67 146.01 586.34 145.02 586 144 C585.91455709 142.66471193 585.88225375 141.32556112 585.88647461 139.98754883 C585.88665588 138.76992859 585.88665588 138.76992859 585.88684082 137.52770996 C585.89451477 136.255224 585.89451477 136.255224 585.90234375 134.95703125 C585.90335083 134.17372437 585.90435791 133.39041748 585.90539551 132.58337402 C585.91062412 129.65973444 585.92458539 126.73611574 585.9375 123.8125 C585.958125 117.274375 585.97875 110.73625 586 104 C603.16 104 620.32 104 638 104 C638 88.82 638 73.64 638 58 C640.63715096 56.68142452 642.5983264 56.88008296 645.55126953 56.88647461 C646.71232208 56.88655014 647.87337463 56.88662567 649.0696106 56.88670349 C650.32796722 56.89186478 651.58632385 56.89702606 652.8828125 56.90234375 C654.16735321 56.9037587 655.45189392 56.90517365 656.77536011 56.90663147 C660.19156842 56.91045089 663.60773426 56.92027627 667.02392578 56.93133545 C670.50943415 56.94156193 673.99494959 56.9461865 677.48046875 56.95117188 C684.32035002 56.96136848 691.16011464 56.9809415 698 57 C698 42.81 698 28.62 698 14 C698.33 14 698.66 14 699 14 C699.21861187 20.22909017 699.41362982 26.45859442 699.59204102 32.68896484 C699.65557818 34.80957861 699.72457147 36.93003606 699.79907227 39.05029297 C699.90505411 42.09318122 699.99157774 45.13608723 700.07421875 48.1796875 C700.11157639 49.13181122 700.14893402 50.08393494 700.18742371 51.06491089 C700.21779472 52.38605392 700.21779472 52.38605392 700.2487793 53.73388672 C700.28541939 54.89970779 700.28541939 54.89970779 700.32279968 56.08908081 C700.21627579 56.71968414 700.10975189 57.35028748 700 58 C696.6133046 60.25779693 695.48309149 60.24486783 691.51879883 60.22705078 C690.39786331 60.22689972 689.2769278 60.22674866 688.12202454 60.22659302 C686.91257675 60.21627045 685.70312897 60.20594788 684.45703125 60.1953125 C682.59893074 60.19106766 682.59893074 60.19106766 680.70329285 60.18673706 C677.41361913 60.17743186 674.12414137 60.15946791 670.83453369 60.1373291 C667.4763025 60.1168527 664.11804175 60.10762189 660.75976562 60.09765625 C654.17302067 60.07728277 647.5867621 60.038135 641 60 C640.67 75.18 640.34 90.36 640 106 C622.84 106 605.68 106 588 106 C588.33 120.19 588.66 134.38 589 149 C584 150 584 150 582 150 C581.34 150.33 580.68 150.66 580 151 C579.01 150.34 578.02 149.68 577 149 C574.35868086 148.72909547 572.67070539 148.58202418 570.3828125 150.0078125 C566.7444305 151.52281091 563.20886947 151.20949175 559.3125 151.125 C558.52810547 151.11597656 557.74371094 151.10695313 556.93554688 151.09765625 C554.95690833 151.07371421 552.97842147 151.03784441 551 151 C550.67 151 550.34 151 550 151 C548.9275 150.814375 547.855 150.62875 546.75 150.4375 C543.25207535 150.02940879 541.35955808 150.31030599 538 151 C533.93945347 151.21535121 529.87822658 151.18510417 525.8125 151.1875 C524.70712891 151.19974609 523.60175781 151.21199219 522.46289062 151.22460938 C521.40908203 151.22654297 520.35527344 151.22847656 519.26953125 151.23046875 C518.30635986 151.23457764 517.34318848 151.23868652 516.35083008 151.24291992 C514 151 514 151 512 149 C506.67965897 148.5633647 506.67965897 148.5633647 501.75 150.125 C500.88375 150.558125 500.88375 150.558125 500 151 C499.4225 150.690625 498.845 150.38125 498.25 150.0625 C495.43225985 148.73190049 493.3500179 148.80119005 490.25 148.875 C489.26515625 148.89304687 488.2803125 148.91109375 487.265625 148.9296875 C486.51796875 148.95289063 485.7703125 148.97609375 485 149 C484.67 149.66 484.34 150.32 484 151 C483.443125 150.67 482.88625 150.34 482.3125 150 C479.63215108 148.8409302 477.89403967 148.70317542 475 149 C473.515 149.99 473.515 149.99 472 151 C469.22265625 151.23046875 469.22265625 151.23046875 466.0625 151.1875 C465.02222656 151.18105469 463.98195313 151.17460938 462.91015625 151.16796875 C460.43933308 151.02535748 458.35822959 150.71031012 456 150 C455.67 150.66 455.34 151.32 455 152 C453.35 151.34 451.7 150.68 450 150 C450 149.67 450 149.34 450 149 C446.7 149 443.4 149 440 149 C440 149.66 440 150.32 440 151 C436.65747276 151.07427838 434.1964086 151.06546953 431 150 C430.01 150.33 429.02 150.66 428 151 C419.7826087 151.26086957 419.7826087 151.26086957 416 150 C416 149.34 416 148.68 416 148 C415.46375 148.495 414.9275 148.99 414.375 149.5 C411.40641555 151.37489544 409.44687573 151.23501425 406 151 C405.67 150.01 405.34 149.02 405 148 C404.67 148.66 404.34 149.32 404 150 C402.35 149.67 400.7 149.34 399 149 C398.67 149.66 398.34 150.32 398 151 C395.10391407 151.05413245 392.20884805 151.09373641 389.3125 151.125 C388.49587891 151.14175781 387.67925781 151.15851563 386.83789062 151.17578125 C382.3517418 151.21210634 379.13176304 150.91381484 375 149 C370.73572214 148.46891778 367.6707276 148.55284826 364 151 C362.02734375 150.94140625 362.02734375 150.94140625 359.9375 150.5625 C356.22399467 149.65083184 356.22399467 149.65083184 354 151 C353.01 150.67 352.02 150.34 351 150 C350.4328125 150.14179687 349.865625 150.28359375 349.28125 150.4296875 C346.00692034 151.24826991 342.86913022 151.13163215 339.5 151.125 C338.1903125 151.12757813 336.880625 151.13015625 335.53125 151.1328125 C332.77764076 151.02924755 330.59647153 150.83458014 328 150 C328 149.34 328 148.68 328 148 C327.38125 148.309375 326.7625 148.61875 326.125 148.9375 C324.75 149.625 323.375 150.3125 322 151 C321.01 150.67 320.02 150.34 319 150 C318.01 150.33 317.02 150.66 316 151 C313.3125 150.0625 313.3125 150.0625 311 149 C310.67 149.66 310.34 150.32 310 151 C308.02 150.67 306.04 150.34 304 150 C303.67 150.66 303.34 151.32 303 152 C301.96875 151.649375 300.9375 151.29875 299.875 150.9375 C295.96896911 149.99249253 293.85676702 150.21111584 290 151 C289.01 150.67 288.02 150.34 287 150 C286.01 150.33 285.02 150.66 284 151 C280.02470514 151.23282808 276.04389539 151.18517034 272.0625 151.1875 C270.96486328 151.19974609 269.86722656 151.21199219 268.73632812 151.22460938 C267.15174805 151.22750977 267.15174805 151.22750977 265.53515625 151.23046875 C264.569729 151.23457764 263.60430176 151.23868652 262.60961914 151.24291992 C259.90146969 150.99082817 258.35455818 150.29429446 256 149 C253.40845081 148.75970041 253.40845081 148.75970041 250.75 148.875 C249.85796875 148.89304687 248.9659375 148.91109375 248.046875 148.9296875 C247.37140625 148.95289063 246.6959375 148.97609375 246 149 C246 149.66 246 150.32 246 151 C244.906875 150.814375 243.81375 150.62875 242.6875 150.4375 C239.06375867 149.7421932 239.06375867 149.7421932 236 151 C228.67955239 151.34859274 228.67955239 151.34859274 226.04296875 149.99609375 C223.60695083 148.80836035 221.94177582 148.79583012 219.25 148.875 C218.45078125 148.89304687 217.6515625 148.91109375 216.828125 148.9296875 C216.22484375 148.95289063 215.6215625 148.97609375 215 149 C214.67 149.66 214.34 150.32 214 151 C211.4562544 150.49125088 208.94414027 149.98501324 206.4375 149.3125 C203.52769336 148.93944787 202.54362796 149.68715976 200 151 C197.875 150.5625 197.875 150.5625 196 150 C195.34 150.33 194.68 150.66 194 151 C193.01 150.34 192.02 149.68 191 149 C191 149.33 191 149.66 191 150 C189.824375 149.979375 188.64875 149.95875 187.4375 149.9375 C184.60129262 149.92747807 182.14471501 150.1304672 179.3125 150.5625 C176.16058539 150.97879061 174.03826422 150.82861751 171 150 C171 149.34 171 148.68 171 148 C165.72 148 160.44 148 155 148 C155 148.66 155 149.32 155 150 C154.34 150 153.68 150 153 150 C153 135.48 153 120.96 153 106 C136.83 106 120.66 106 104 106 C104 90.49 104 74.98 104 59 C96.08 59.495 96.08 59.495 88 60 C84.6160662 60.01362514 81.28168652 59.99734301 77.90625 59.87890625 C76.64174011 59.84348976 76.64174011 59.84348976 75.35168457 59.80735779 C72.73420136 59.73252858 70.11716173 59.64776302 67.5 59.5625 C65.69403007 59.50909679 63.88804034 59.45635877 62.08203125 59.40429688 C57.72108878 59.27716828 53.36051032 59.14114688 49 59 C49 59.66 49 60.32 49 61 C48.34 61 47.68 61 47 61 C46.67 46.15 46.34 31.3 46 16 C30.82 15.67 15.64 15.34 0 15 C0 10.05 0 5.1 0 0 Z M230 148 C230 148.33 230 148.66 230 149 C231.65 149 233.3 149 235 149 C235 148.67 235 148.34 235 148 C233.35 148 231.7 148 230 148 Z M299 148 C303 149 303 149 303 149 Z M314 148 C314 148.33 314 148.66 314 149 C315.65 149 317.3 149 319 149 C319 148.67 319 148.34 319 148 C317.35 148 315.7 148 314 148 Z M385 148 C385 148.33 385 148.66 385 149 C387.64 149 390.28 149 393 149 C393 148.67 393 148.34 393 148 C390.36 148 387.72 148 385 148 Z M418 148 C418 148.33 418 148.66 418 149 C420.97 149.495 420.97 149.495 424 150 C424.33 149.34 424.66 148.68 425 148 C422.69 148 420.38 148 418 148 Z M452 148 C453.98 148.99 453.98 148.99 456 150 C456.33 149.34 456.66 148.68 457 148 C455.35 148 453.7 148 452 148 Z M520 148 C520 148.33 520 148.66 520 149 C522.31 149 524.62 149 527 149 C527 148.67 527 148.34 527 148 C524.69 148 522.38 148 520 148 Z " fill="#1C4257" transform="translate(143,640)"/>
<path d="M0 0 C28.71 0.33 57.42 0.66 87 1 C86.67 5.95 86.34 10.9 86 16 C85.92698307 18.70883436 85.88150247 21.4188484 85.88647461 24.12866211 C85.88632858 24.81360245 85.88618256 25.49854279 85.8860321 26.20423889 C85.88671069 28.39530995 85.89440268 30.58628818 85.90234375 32.77734375 C85.90421529 34.325322 85.9056357 35.87330085 85.90663147 37.42127991 C85.9103988 41.44064043 85.92017758 45.45996319 85.93133545 49.47930908 C85.94167601 53.60273732 85.94615581 57.72617183 85.95117188 61.84960938 C85.96180678 69.89975666 85.97881103 77.9498736 86 86 C89.44167318 87.14722439 92.05921002 87.09720203 95.6875 87.0625 C96.67411621 87.05682007 96.67411621 87.05682007 97.68066406 87.05102539 C100.48396654 87.03478877 103.28712073 87.00699391 106.09033203 86.97949219 C108.14354742 86.96108639 110.19673692 86.94918463 112.25 86.9375 C113.47203125 86.92589844 114.6940625 86.91429687 115.953125 86.90234375 C120.98061421 87.02366347 125.99170007 87.54470001 131 88 C130.67 164.56 130.34 241.12 130 320 C132.97 319.67 135.94 319.34 139 319 C140.59392802 318.9273623 142.18982596 318.88147281 143.78540039 318.88647461 C144.60557144 318.88655014 145.42574249 318.88662567 146.27076721 318.88670349 C147.54632729 318.89444542 147.54632729 318.89444542 148.84765625 318.90234375 C149.74495956 318.9037587 150.64226288 318.90517365 151.5667572 318.90663147 C154.39870714 318.9121749 157.23057445 318.92471642 160.0625 318.9375 C161.99674364 318.94252233 163.93098853 318.94708394 165.86523438 318.95117188 C170.57685417 318.96212571 175.28841313 318.97935047 180 319 C181.41873179 334.6313842 181.09599524 350.32176224 181 366 C170.11684749 366.02316034 159.23370084 366.04093396 148.35052872 366.05181217 C143.29715352 366.0570329 138.24379518 366.0641159 133.19042969 366.07543945 C128.31455062 366.08629704 123.43868777 366.09228295 118.56279755 366.09487724 C116.70165502 366.0967263 114.84051338 366.10033698 112.97937775 366.10573006 C110.3745786 366.11297854 107.76984665 366.11398932 105.16503906 366.11352539 C104.39395813 366.11712067 103.6228772 366.12071594 102.82843018 366.12442017 C99.41401924 366.1178306 96.26267517 366.07954886 93 365 C93.16226074 365.81694336 93.32452148 366.63388672 93.49169922 367.47558594 C94.06717254 371.46575541 94.14366113 375.36993982 94.1328125 379.390625 C94.13376923 380.17644958 94.13472595 380.96227417 94.13571167 381.77191162 C94.13638886 383.42248617 94.13456691 385.07306345 94.13037109 386.72363281 C94.12498742 389.25591948 94.13034638 391.78803109 94.13671875 394.3203125 C94.13605845 395.92708373 94.13477828 397.53385484 94.1328125 399.140625 C94.13483673 399.89893616 94.13686096 400.65724731 94.13894653 401.4385376 C94.11498043 406.77003915 94.11498043 406.77003915 93 409 C104.88 409 116.76 409 129 409 C129 409.33 129 409.66 129 410 C116.79 410 104.58 410 92 410 C92 394.82 92 379.64 92 364 C120.71 364 149.42 364 179 364 C179 349.81 179 335.62 179 321 C175.101875 321.165 171.20375 321.33 167.1875 321.5 C158.85445828 321.83059296 150.52761685 322.10491342 142.1875 322.125 C141.42526123 322.12951172 140.66302246 322.13402344 139.87768555 322.13867188 C136.03484843 322.12818545 132.81044357 321.76208871 129 321 C129 244.44 129 167.88 129 89 C125.535 89.495 125.535 89.495 122 90 C109.46 90 96.92 90 84 90 C84 60.96 84 31.92 84 2 C56.61 2 29.22 2 1 2 C1 7.61 1 13.22 1 19 C0.67 19 0.34 19 0 19 C-1.9 5.7 -1.9 5.7 0 0 Z " fill="#123446" transform="translate(711,197)"/>
<path d="M0 0 C0.33 0 0.66 0 1 0 C1 4.29 1 8.58 1 13 C16.51 13 32.02 13 48 13 C48 27.85 48 42.7 48 58 C67.14 58 86.28 58 106 58 C106 73.18 106 88.36 106 104 C121.84 104 137.68 104 154 104 C154 118.19 154 132.38 154 147 C189.97 147 225.94 147 263 147 C263.33 148.32 263.66 149.64 264 151 C261.36 150.67 258.72 150.34 256 150 C256 149.67 256 149.34 256 149 C252.7 149 249.4 149 246 149 C246 149.66 246 150.32 246 151 C244.906875 150.814375 243.81375 150.62875 242.6875 150.4375 C239.06375867 149.7421932 239.06375867 149.7421932 236 151 C228.67955239 151.34859274 228.67955239 151.34859274 226.04296875 149.99609375 C223.60695083 148.80836035 221.94177582 148.79583012 219.25 148.875 C218.45078125 148.89304687 217.6515625 148.91109375 216.828125 148.9296875 C216.22484375 148.95289063 215.6215625 148.97609375 215 149 C214.67 149.66 214.34 150.32 214 151 C211.4562544 150.49125088 208.94414027 149.98501324 206.4375 149.3125 C203.52769336 148.93944787 202.54362796 149.68715976 200 151 C197.875 150.5625 197.875 150.5625 196 150 C195.34 150.33 194.68 150.66 194 151 C193.01 150.34 192.02 149.68 191 149 C191 149.33 191 149.66 191 150 C189.824375 149.979375 188.64875 149.95875 187.4375 149.9375 C184.60129262 149.92747807 182.14471501 150.1304672 179.3125 150.5625 C176.16058539 150.97879061 174.03826422 150.82861751 171 150 C171 149.34 171 148.68 171 148 C165.72 148 160.44 148 155 148 C155 148.66 155 149.32 155 150 C154.34 150 153.68 150 153 150 C153 135.48 153 120.96 153 106 C136.83 106 120.66 106 104 106 C104 90.49 104 74.98 104 59 C96.08 59.495 96.08 59.495 88 60 C84.6160662 60.01362514 81.28168652 59.99734301 77.90625 59.87890625 C76.64174011 59.84348976 76.64174011 59.84348976 75.35168457 59.80735779 C72.73420136 59.73252858 70.11716173 59.64776302 67.5 59.5625 C65.69403007 59.50909679 63.88804034 59.45635877 62.08203125 59.40429688 C57.72108878 59.27716828 53.36051032 59.14114688 49 59 C49 59.66 49 60.32 49 61 C48.34 61 47.68 61 47 61 C46.67 46.15 46.34 31.3 46 16 C30.82 15.67 15.64 15.34 0 15 C0 10.05 0 5.1 0 0 Z M230 148 C230 148.33 230 148.66 230 149 C231.65 149 233.3 149 235 149 C235 148.67 235 148.34 235 148 C233.35 148 231.7 148 230 148 Z " fill="#20495E" transform="translate(143,640)"/>
<path d="M0 0 C1.32 0.33 2.64 0.66 4 1 C3.34 1 2.68 1 2 1 C2.33 30.7 2.66 60.4 3 91 C32.7 91 62.4 91 93 91 C92.67 90.01 92.34 89.02 92 88 C91.91410697 86.60344541 91.88227285 85.20314223 91.88647461 83.80395508 C91.88658791 82.54298759 91.88658791 82.54298759 91.88670349 81.25654602 C91.89186478 80.35333115 91.89702606 79.45011627 91.90234375 78.51953125 C91.9037587 77.59154221 91.90517365 76.66355316 91.90663147 75.70744324 C91.91223063 72.74242942 91.92478296 69.77749101 91.9375 66.8125 C91.94251511 64.80273547 91.947078 62.79296975 91.95117188 60.78320312 C91.96219979 55.85543968 91.97946383 50.92773263 92 46 C90.73816895 46.01047363 89.47633789 46.02094727 88.17626953 46.03173828 C83.50605086 46.06786899 78.83584461 46.09087516 74.16552734 46.10986328 C72.14206873 46.11993671 70.11862472 46.13359595 68.09521484 46.15087891 C65.19104411 46.17506847 62.28706539 46.18646949 59.3828125 46.1953125 C58.02024826 46.21079636 58.02024826 46.21079636 56.63015747 46.22659302 C55.78943695 46.22674408 54.94871643 46.22689514 54.08251953 46.22705078 C52.96999313 46.23371262 52.96999313 46.23371262 51.83499146 46.24050903 C50 46 50 46 48 44 C48.66 44 49.32 44 50 44 C49.83544815 43.42320496 49.6708963 42.84640991 49.50135803 42.25213623 C49.00897187 40.04030227 48.91230966 38.22318051 48.97827148 35.96582031 C48.99836777 35.18531311 49.01846405 34.40480591 49.03916931 33.60064697 C49.06620438 32.76821472 49.09323944 31.93578247 49.12109375 31.078125 C49.15651024 29.78814606 49.15651024 29.78814606 49.19264221 28.47210693 C49.26908211 25.73122845 49.35319089 22.99064661 49.4375 20.25 C49.49074039 18.38933733 49.54348065 16.52866027 49.59570312 14.66796875 C49.72467059 10.11179209 49.86051534 5.55586632 50 1 C48.96085449 1.16226074 47.92170898 1.32452148 46.85107422 1.49169922 C43.63183551 1.91660444 40.62119849 2.12880531 37.3828125 2.1328125 C36.36316406 2.13410156 35.34351563 2.13539063 34.29296875 2.13671875 C33.24753906 2.13285156 32.20210938 2.12898438 31.125 2.125 C30.08730469 2.12886719 29.04960937 2.13273437 27.98046875 2.13671875 C21.90418009 2.12905634 16.02485536 1.79241313 10 1 C10 0.67 10 0.34 10 0 C23.53 0 37.06 0 51 0 C51 14.52 51 29.04 51 44 C65.52 44 80.04 44 95 44 C95 60.17 95 76.34 95 93 C88.64363878 93.63563612 82.61418126 94.14679879 76.27734375 94.12939453 C75.46954971 94.13114685 74.66175568 94.13289917 73.82948303 94.13470459 C71.19879923 94.13905378 68.56818431 94.13621212 65.9375 94.1328125 C64.09570299 94.13348701 62.25390608 94.13445826 60.41210938 94.13571167 C56.57274519 94.13717877 52.73340442 94.13506401 48.89404297 94.13037109 C43.96657984 94.12464208 39.0391708 94.12797896 34.11170959 94.13394356 C30.31829415 94.13754848 26.52489165 94.13641146 22.73147583 94.13381577 C20.91334019 94.13314797 19.09520337 94.1339698 17.27706909 94.13629532 C14.7471807 94.13882416 12.2173817 94.13497944 9.6875 94.12939453 C8.55768456 94.13243088 8.55768456 94.13243088 7.40504456 94.13552856 C2.22854246 94.11427123 2.22854246 94.11427123 0 93 C0 62.31 0 31.62 0 0 Z " fill="#225169" transform="translate(276,288)"/>
<path d="M0 0 C0.82242188 -0.00128906 1.64484375 -0.00257813 2.4921875 -0.00390625 C3.3584375 -0.00003906 4.2246875 0.00382812 5.1171875 0.0078125 C6.38175781 0.00201172 6.38175781 0.00201172 7.671875 -0.00390625 C12.5518182 0.0036713 17.18118532 0.31142188 21.9921875 1.1328125 C21.9921875 1.4628125 21.9921875 1.7928125 21.9921875 2.1328125 C13.7421875 2.1328125 5.4921875 2.1328125 -3.0078125 2.1328125 C-3.0078125 78.6928125 -3.0078125 155.2528125 -3.0078125 234.1328125 C-7.6278125 234.1328125 -12.2478125 234.1328125 -17.0078125 234.1328125 C-17.0078125 233.8028125 -17.0078125 233.4728125 -17.0078125 233.1328125 C-13.3778125 232.8028125 -9.7478125 232.4728125 -6.0078125 232.1328125 C-6.00358056 230.94322213 -5.99934862 229.75363176 -5.99498844 228.5279932 C-5.89441247 200.31856471 -5.78872243 172.10915877 -5.67669556 143.89977339 C-5.66292523 140.43114791 -5.64919824 136.96252225 -5.63549805 133.49389648 C-5.63276974 132.80332678 -5.63004144 132.11275708 -5.62723046 131.40126102 C-5.58310035 120.20515535 -5.54248574 109.00903951 -5.50315989 97.81291605 C-5.46275971 86.33309925 -5.41853132 74.85330315 -5.37093395 63.37351364 C-5.34430698 56.9219487 -5.31945335 50.47038759 -5.29873848 44.01880074 C-5.27921116 37.9540622 -5.25507933 31.88935991 -5.22732162 25.82465363 C-5.21793042 23.59168847 -5.21026266 21.35871534 -5.20439339 19.12573814 C-5.19616721 16.09135866 -5.18190067 13.057068 -5.16603088 10.02272034 C-5.16505278 9.12682412 -5.16407467 8.23092791 -5.16306692 7.30788332 C-5.11352373 0.00772936 -5.11352373 0.00772936 0 0 Z " fill="#1E495E" transform="translate(192.0078125,283.8671875)"/>
<path d="M0 0 C1.45019531 -0.00193359 1.45019531 -0.00193359 2.9296875 -0.00390625 C4.45722656 0.00189453 4.45722656 0.00189453 6.015625 0.0078125 C7.51996094 0.00201172 7.51996094 0.00201172 9.0546875 -0.00390625 C10.02664063 -0.00261719 10.99859375 -0.00132812 12 0 C12.88913086 0.00112793 13.77826172 0.00225586 14.69433594 0.00341797 C17.30656599 0.13487277 19.71785423 0.55575331 22.265625 1.1328125 C22.265625 1.4628125 22.265625 1.7928125 22.265625 2.1328125 C13.685625 2.1328125 5.105625 2.1328125 -3.734375 2.1328125 C-3.734375 17.9728125 -3.734375 33.8128125 -3.734375 50.1328125 C-70.724375 50.1328125 -137.714375 50.1328125 -206.734375 50.1328125 C-206.404375 49.4728125 -206.074375 48.8128125 -205.734375 48.1328125 C-106.734375 47.6378125 -106.734375 47.6378125 -5.734375 47.1328125 C-5.734375 31.9528125 -5.734375 16.7728125 -5.734375 1.1328125 C-4.1006941 -0.5008684 -2.24983857 0.00286865 0 0 Z " fill="#25546D" transform="translate(621.734375,283.8671875)"/>
<path d="M0 0 C28.71 0 57.42 0 87 0 C87.6203981 6.20398103 88.12265 11.82809897 88.09765625 17.9765625 C88.0962413 18.67268646 88.09482635 19.36881042 88.09336853 20.08602905 C88.08786074 22.26573359 88.0753273 24.44532758 88.0625 26.625 C88.05747303 28.12109225 88.05291225 29.61718613 88.04882812 31.11328125 C88.03792185 34.74222219 88.02072382 38.37110027 88 42 C88.66 42 89.32 42 90 42 C90 42.66 90 43.32 90 44 C105.18 44.33 120.36 44.66 136 45 C136 45.33 136 45.66 136 46 C119.17 46 102.34 46 85 46 C85 31.48 85 16.96 85 2 C57.61 2 30.22 2 2 2 C2 30.38 2 58.76 2 88 C-4.27 88 -10.54 88 -17 88 C-17 87.67 -17 87.34 -17 87 C-14.9168207 86.83141902 -12.83344956 86.66520745 -10.75 86.5 C-9.58984375 86.4071875 -8.4296875 86.314375 -7.234375 86.21875 C-4.82731342 86.05595356 -2.41256049 86 0 86 C0 57.62 0 29.24 0 0 Z " fill="#15364A" transform="translate(232,198)"/>
<path d="M0 0 C0 14.52 0 29.04 0 44 C-17.82 44.33 -35.64 44.66 -54 45 C-54 57.87 -54 70.74 -54 84 C-35.52 84 -17.04 84 2 84 C2 75.42 2 66.84 2 58 C1.34 58 0.68 58 0 58 C0 57.34 0 56.68 0 56 C3.73310433 54.81182032 7.27491645 54.88637261 11.171875 54.90234375 C12.1955014 54.90446617 12.1955014 54.90446617 13.23980713 54.90663147 C15.40991684 54.91220916 17.5799217 54.92475746 19.75 54.9375 C21.22525892 54.94251789 22.70051947 54.94708029 24.17578125 54.95117188 C27.78388798 54.96217125 31.39193375 54.97942047 35 55 C36.67791371 60.03374114 36.18456756 65.29290111 36.1875 70.5625 C36.19974609 71.72458984 36.21199219 72.88667969 36.22460938 74.08398438 C36.22654297 75.19193359 36.22847656 76.29988281 36.23046875 77.44140625 C36.23457764 78.45920166 36.23868652 79.47699707 36.24291992 80.52563477 C36 83 36 83 34 85 C34 75.76 34 66.52 34 57 C24.1 57 14.2 57 4 57 C4 66.57 4 76.14 4 86 C-15.8 86 -35.6 86 -56 86 C-56 71.81 -56 57.62 -56 43 C-38.18 43 -20.36 43 -2 43 C-2 29.14 -2 15.28 -2 1 C-6.29 1 -10.58 1 -15 1 C-15 0.67 -15 0.34 -15 0 C-12.87562788 -0.19448477 -10.75046809 -0.38038289 -8.625 -0.5625 C-7.44164062 -0.66691406 -6.25828125 -0.77132812 -5.0390625 -0.87890625 C-2 -1 -2 -1 0 0 Z " fill="#1B3F53" transform="translate(496,622)"/>
<path d="M0 0 C6.27 0 12.54 0 19 0 C19 0.33 19 0.66 19 1 C13.06 1 7.12 1 1 1 C1 15.19 1 29.38 1 44 C7.12433594 43.98839844 13.24867188 43.97679687 19.55859375 43.96484375 C23.42773543 43.95973703 27.29687298 43.95492326 31.16601562 43.95117188 C37.31356667 43.94518329 43.46110289 43.9380826 49.60864258 43.92456055 C54.5623141 43.91373213 59.51596974 43.90772326 64.46965218 43.90512276 C66.36397616 43.90326843 68.25829924 43.89964766 70.1526165 43.89426994 C72.79634386 43.88706011 75.44000471 43.88600903 78.08374023 43.88647461 C78.87495773 43.88287933 79.66617523 43.87928406 80.48136902 43.87557983 C85.88594784 43.88594784 85.88594784 43.88594784 87 45 C87.09804851 46.4067522 87.12798186 47.81835136 87.12939453 49.22851562 C87.13254669 50.12614624 87.13569885 51.02377686 87.13894653 51.9486084 C87.13591019 53.41264099 87.13591019 53.41264099 87.1328125 54.90625 C87.13376923 55.9012854 87.13472595 56.8963208 87.13571167 57.92150879 C87.1363936 60.02986718 87.13453844 62.13822765 87.13037109 64.24658203 C87.12502303 67.48605027 87.13031567 70.72537985 87.13671875 73.96484375 C87.13605797 76.00781281 87.13477681 78.05078178 87.1328125 80.09375 C87.13483673 81.06977173 87.13686096 82.04579346 87.13894653 83.0513916 C87.13421829 84.39783752 87.13421829 84.39783752 87.12939453 85.77148438 C87.12859894 86.56566772 87.12780334 87.35985107 87.12698364 88.17810059 C87 90 87 90 86 91 C83.47458998 91.09504251 80.97662874 91.12557158 78.45092773 91.11352539 C77.26564987 91.11374443 77.26564987 91.11374443 76.056427 91.1139679 C73.43212178 91.11326857 70.80788664 91.10547527 68.18359375 91.09765625 C66.36898335 91.09579214 64.55437244 91.0943682 62.73976135 91.09336853 C57.9540977 91.08954279 53.1684642 91.07971204 48.3828125 91.06866455 C43.50325936 91.05845163 38.62370136 91.05387117 33.74414062 91.04882812 C24.16274501 91.03808981 14.58137972 91.02049257 5 91 C5 101.23 5 111.46 5 122 C4.67 122 4.34 122 4 122 C3.83249071 117.62196815 3.67192065 113.24375401 3.51782227 108.86523438 C3.46439997 107.37525558 3.40907038 105.88534391 3.35180664 104.39550781 C3.26990164 102.25600663 3.19482291 100.11635907 3.12109375 97.9765625 C3.0739624 96.68830566 3.02683105 95.40004883 2.97827148 94.07275391 C3 91 3 91 4 89 C20.35190342 87.73424204 36.66630403 88.06242594 53.04547119 88.39489746 C56.65978103 88.46678201 60.27422855 88.53094149 63.88867188 88.59570312 C70.92597809 88.72233846 77.96287869 88.86143203 85 89 C85 74.48 85 59.96 85 45 C77.08 45.495 77.08 45.495 69 46 C65.89343749 46.07994553 62.81125783 46.14160514 59.70703125 46.1328125 C58.52544685 46.13479141 58.52544685 46.13479141 57.31999207 46.1368103 C54.81745143 46.1386872 52.31502879 46.13246736 49.8125 46.125 C48.95213135 46.12411377 48.0917627 46.12322754 47.20532227 46.12231445 C31.44755624 46.10337658 15.7459957 45.65608315 0 45 C0 30.15 0 15.3 0 0 Z " fill="#15374B" transform="translate(139,517)"/>
<path d="M0 0 C0.33 0 0.66 0 1 0 C1.21861187 6.22909017 1.41362982 12.45859442 1.59204102 18.68896484 C1.65557818 20.80957861 1.72457147 22.93003606 1.79907227 25.05029297 C1.90505411 28.09318122 1.99157774 31.13608723 2.07421875 34.1796875 C2.11157639 35.13181122 2.14893402 36.08393494 2.18742371 37.06491089 C2.20767105 37.94567291 2.2279184 38.82643494 2.2487793 39.73388672 C2.27320602 40.51110077 2.29763275 41.28831482 2.32279968 42.08908081 C2.21627579 42.71968414 2.10975189 43.35028748 2 44 C-1.3866954 46.25779693 -2.51690851 46.24486783 -6.48120117 46.22705078 C-7.60213669 46.22689972 -8.7230722 46.22674866 -9.87797546 46.22659302 C-11.69214714 46.21110916 -11.69214714 46.21110916 -13.54296875 46.1953125 C-15.40106926 46.19106766 -15.40106926 46.19106766 -17.29670715 46.18673706 C-20.58638087 46.17743186 -23.87585863 46.15946791 -27.16546631 46.1373291 C-30.5236975 46.1168527 -33.88195825 46.10762189 -37.24023438 46.09765625 C-43.82697933 46.07728277 -50.4132379 46.038135 -57 46 C-57.33 61.18 -57.66 76.36 -58 92 C-75.16 92 -92.32 92 -110 92 C-110 103.55 -110 115.1 -110 127 C-110.33 127 -110.66 127 -111 127 C-111 114.79 -111 102.58 -111 90 C-94.17 90 -77.34 90 -60 90 C-60 74.82 -60 59.64 -60 44 C-57.36284904 42.68142452 -55.4016736 42.88008296 -52.44873047 42.88647461 C-51.28767792 42.88655014 -50.12662537 42.88662567 -48.9303894 42.88670349 C-47.67203278 42.89186478 -46.41367615 42.89702606 -45.1171875 42.90234375 C-43.83264679 42.9037587 -42.54810608 42.90517365 -41.22463989 42.90663147 C-37.80843158 42.91045089 -34.39226574 42.92027627 -30.97607422 42.93133545 C-27.49056585 42.94156193 -24.00505041 42.9461865 -20.51953125 42.95117188 C-13.67964998 42.96136848 -6.83988536 42.9809415 0 43 C0 28.81 0 14.62 0 0 Z " fill="#1C4459" transform="translate(841,654)"/>
<path d="M0 0 C28.71 0.33 57.42 0.66 87 1 C86.67 5.95 86.34 10.9 86 16 C85.92698307 18.70883436 85.88150247 21.4188484 85.88647461 24.12866211 C85.88632858 24.81360245 85.88618256 25.49854279 85.8860321 26.20423889 C85.88671069 28.39530995 85.89440268 30.58628818 85.90234375 32.77734375 C85.90421529 34.325322 85.9056357 35.87330085 85.90663147 37.42127991 C85.9103988 41.44064043 85.92017758 45.45996319 85.93133545 49.47930908 C85.94167601 53.60273732 85.94615581 57.72617183 85.95117188 61.84960938 C85.96180678 69.89975666 85.97881103 77.9498736 86 86 C89.53826255 87.17942085 92.34148726 87.11289189 96.07421875 87.09765625 C96.7580513 87.0962413 97.44188385 87.09482635 98.1464386 87.09336853 C100.32683722 87.08777876 102.50713251 87.07522822 104.6875 87.0625 C106.16731622 87.05748367 107.64713406 87.052921 109.12695312 87.04882812 C112.75133557 87.03781271 116.3756577 87.02055512 120 87 C120 87.66 120 88.32 120 89 C120.66 89.33 121.32 89.66 122 90 C109.46 90 96.92 90 84 90 C84 60.96 84 31.92 84 2 C56.61 2 29.22 2 1 2 C1 7.61 1 13.22 1 19 C0.67 19 0.34 19 0 19 C-1.9 5.7 -1.9 5.7 0 0 Z " fill="#18394C" transform="translate(711,197)"/>
<path d="M0 0 C0.99 0.495 0.99 0.495 2 1 C2 16.18 2 31.36 2 47 C6.95 46.67 11.9 46.34 17 46 C19.70883436 45.92698307 22.4188484 45.88150247 25.12866211 45.88647461 C26.15607262 45.88625557 26.15607262 45.88625557 27.20423889 45.8860321 C29.39530995 45.88671069 31.58628818 45.89440268 33.77734375 45.90234375 C35.325322 45.90421529 36.87330085 45.9056357 38.42127991 45.90663147 C42.44064043 45.9103988 46.45996319 45.92017758 50.47930908 45.93133545 C54.60273732 45.94167601 58.72617183 45.94615581 62.84960938 45.95117188 C70.89975666 45.96180678 78.9498736 45.97881103 87 46 C86.98952637 45.16227051 86.97905273 44.32454102 86.96826172 43.46142578 C86.93419981 40.35661836 86.90911089 37.25190608 86.89013672 34.14697266 C86.87511893 32.1408864 86.84971019 30.13488676 86.82421875 28.12890625 C86.81777344 26.87207031 86.81132813 25.61523438 86.8046875 24.3203125 C86.79421387 23.15773926 86.78374023 21.99516602 86.77294922 20.79736328 C87 18 87 18 89 16 C89.88070797 23.23431599 90.12570502 30.3418371 90.0625 37.625 C90.05798828 38.62917969 90.05347656 39.63335937 90.04882812 40.66796875 C90.03718967 43.11204471 90.0208424 45.5559882 90 48 C87.2689017 49.36554915 85.10505716 49.12719259 82.04760742 49.12939453 C80.16745186 49.13412277 80.16745186 49.13412277 78.24931335 49.13894653 C76.86803147 49.13715301 75.4867499 49.13510114 74.10546875 49.1328125 C72.67889896 49.13348712 71.25232929 49.13445847 69.82575989 49.13571167 C66.81864337 49.13719022 63.81155644 49.13503507 60.80444336 49.13037109 C57.01462811 49.12477033 53.22488452 49.12798667 49.43507195 49.13380814 C36.09387204 49.15125178 22.75606682 49.16603751 9.42578125 48.5546875 C8.56389694 48.51594513 7.70201263 48.47720276 6.81401062 48.43728638 C1.13101279 48.13101279 1.13101279 48.13101279 0 47 C-0.09304018 45.52645652 -0.11746265 44.04849409 -0.11352539 42.57202148 C-0.11344986 41.63112167 -0.11337433 40.69022186 -0.11329651 39.72080994 C-0.10813522 38.69790359 -0.10297394 37.67499725 -0.09765625 36.62109375 C-0.0962413 35.57929459 -0.09482635 34.53749542 -0.09336853 33.46412659 C-0.0877508 30.12188906 -0.0751953 26.77971743 -0.0625 23.4375 C-0.05748728 21.17773534 -0.05292398 18.91796963 -0.04882812 16.65820312 C-0.03777561 11.10544609 -0.02102024 5.55272775 0 0 Z " fill="#214F66" transform="translate(663,333)"/>
<path d="M0 0 C33.66 0 67.32 0 102 0 C102 15.51 102 31.02 102 47 C90.78 47 79.56 47 68 47 C68 46.67 68 46.34 68 46 C78.56 46 89.12 46 100 46 C99.8802808 40.19743979 99.75771081 34.39509057 99.62768555 28.59277344 C99.58430797 26.61787538 99.542635 24.64293913 99.50268555 22.66796875 C99.44505127 19.8332161 99.3813373 16.99865622 99.31640625 14.1640625 C99.29969376 13.27756012 99.28298126 12.39105774 99.26576233 11.47769165 C99.28914789 7.10074845 99.28914789 7.10074845 98 3 C98.66 3 99.32 3 100 3 C100 2.34 100 1.68 100 1 C99.49592117 1.16233124 98.99184235 1.32466248 98.4724884 1.49191284 C95.12765937 2.17926275 91.83895366 2.13908299 88.44018555 2.12939453 C87.68341019 2.13114685 86.92663483 2.13289917 86.14692688 2.13470459 C83.64350083 2.13910618 81.14014553 2.13618781 78.63671875 2.1328125 C76.88475023 2.13348679 75.1327818 2.13445787 73.3808136 2.13571167 C69.70137647 2.13718699 66.0219636 2.13504223 62.3425293 2.13037109 C57.66727825 2.12472015 52.9920852 2.12792415 48.31683636 2.13394356 C44.691875 2.13759338 41.0669269 2.13638972 37.4419651 2.13381577 C35.72109787 2.13315623 34.00022938 2.13394019 32.27936363 2.13629532 C21.8057005 2.14746841 11.44207194 1.85339968 1 1 C1.0721875 2.093125 1.144375 3.18625 1.21875 4.3125 C1.81021395 13.89463626 2.12962975 23.46182598 2.1875 33.0625 C2.20039063 34.11501953 2.21328125 35.16753906 2.2265625 36.25195312 C2.22785156 37.23228516 2.22914063 38.21261719 2.23046875 39.22265625 C2.23457764 40.09672119 2.23868652 40.97078613 2.24291992 41.87133789 C2 44 2 44 0 46 C0 30.82 0 15.64 0 0 Z " fill="#1A3E53" transform="translate(463,576)"/>
<path d="M0 0 C16.17 0 32.34 0 49 0 C49 19.47 49 38.94 49 59 C48.67 59 48.34 59 48 59 C47.17209711 39.96924285 46.90661851 21.04982474 47 2 C32.48 2 17.96 2 3 2 C3 16.19 3 30.38 3 45 C-1.08192587 46.02048147 -4.77524827 46.16166551 -8.94140625 46.16796875 C-9.70549301 46.17129715 -10.46957977 46.17462555 -11.25682068 46.17805481 C-12.8680664 46.18310638 -14.47932254 46.18546368 -16.09057617 46.18530273 C-18.55730281 46.18749538 -21.02358643 46.2056862 -23.49023438 46.22460938 C-25.05729014 46.22754242 -26.62434802 46.22952781 -28.19140625 46.23046875 C-29.29773155 46.24124702 -29.29773155 46.24124702 -30.42640686 46.25224304 C-34.1699922 46.2354923 -35.80305163 46.13129891 -39 44 C-26.13 44 -13.26 44 0 44 C0 29.48 0 14.96 0 0 Z " fill="#193C4E" transform="translate(703,288)"/>
<path d="M0 0 C0.66 0 1.32 0 2 0 C2.33 13.53 2.66 27.06 3 41 C12.75173803 40.9606732 12.75173803 40.9606732 22.50341797 40.90991211 C29.72381016 40.89529593 36.83068904 41.04200379 44 42 C44 41.34 44 40.68 44 40 C43.01 39.67 42.02 39.34 41 39 C42.32 39 43.64 39 45 39 C47.2511119 44.4135736 47.26061791 49.23760261 47.1953125 54.9921875 C47.1924826 55.93812775 47.18965271 56.88406799 47.18673706 57.8586731 C47.17558932 60.86424694 47.15049465 63.86951702 47.125 66.875 C47.11496321 68.91926651 47.10583859 70.96353772 47.09765625 73.0078125 C47.07566767 78.00532444 47.04117509 83.0026108 47 88 C46.34 88 45.68 88 45 88 C44.67 88.66 44.34 89.32 44 90 C44 74.49 44 58.98 44 43 C43.01 43.495 43.01 43.495 42 44 C39.1181278 44.09918776 36.26094163 44.1398131 33.37890625 44.1328125 C32.52320541 44.13376923 31.66750458 44.13472595 30.78587341 44.13571167 C28.97435432 44.13639279 27.16283278 44.13454324 25.35131836 44.13037109 C22.57725537 44.12502842 19.80335477 44.13031499 17.02929688 44.13671875 C15.27083298 44.13605783 13.51236918 44.13477637 11.75390625 44.1328125 C10.92258682 44.13483673 10.0912674 44.13686096 9.23475647 44.13894653 C5.90500551 44.12538816 3.18084594 44.06028198 0 43 C0 28.81 0 14.62 0 0 Z " fill="#24546B" transform="translate(369,243)"/>
<path d="M0 0 C0.33 0 0.66 0 1 0 C1 13.2 1 26.4 1 40 C20.14 40 39.28 40 59 40 C59 54.19 59 68.38 59 83 C39.86 83 20.72 83 1 83 C1 82.67 1 82.34 1 82 C19.48 82 37.96 82 57 82 C56.87625 76.121875 56.7525 70.24375 56.625 64.1875 C56.59100098 62.33535889 56.55700195 60.48321777 56.52197266 58.57495117 C56.48676498 57.10593856 56.45084353 55.63694281 56.4140625 54.16796875 C56.40270264 53.40601196 56.39134277 52.64405518 56.37963867 51.85900879 C56.27553746 48.06809403 56.1522004 46.22830059 54 43 C54.99 42.34 55.98 41.68 57 41 C38.19 41 19.38 41 0 41 C-1.30286938 37.09139187 -1.01353276 33.45657086 -0.87890625 29.39453125 C-0.85529526 28.55532639 -0.83168427 27.71612152 -0.80735779 26.85148621 C-0.73079724 24.1716488 -0.64674019 21.49210593 -0.5625 18.8125 C-0.50927169 16.99545711 -0.45653134 15.17839986 -0.40429688 13.36132812 C-0.27519238 8.90736565 -0.13936429 4.45365278 0 0 Z " fill="#122E40" transform="translate(531,625)"/>
<path d="M0 0 C0.33 0 0.66 0 1 0 C1.02505615 1.07894531 1.0501123 2.15789063 1.07592773 3.26953125 C1.17066051 7.30267617 1.27071576 11.33567503 1.37231445 15.36865234 C1.4154158 17.10852625 1.45710637 18.84843573 1.49731445 20.58837891 C1.55562321 23.10069465 1.61913722 25.61283534 1.68359375 28.125 C1.70030624 28.89303955 1.71701874 29.6610791 1.73423767 30.45239258 C1.86655427 35.362638 2.3217858 40.1342355 3 45 C-1.75 46 -1.75 46 -4 46 C-4.99 46.495 -4.99 46.495 -6 47 C-7.485 46.01 -7.485 46.01 -9 45 C-11.64131914 44.72909547 -13.32929461 44.58202418 -15.6171875 46.0078125 C-19.2555695 47.52281091 -22.79113053 47.20949175 -26.6875 47.125 C-27.47189453 47.11597656 -28.25628906 47.10695313 -29.06445312 47.09765625 C-31.04309167 47.07371421 -33.02157853 47.03784441 -35 47 C-35.33 47 -35.66 47 -36 47 C-37.0725 46.814375 -38.145 46.62875 -39.25 46.4375 C-42.74792465 46.02940879 -44.64044192 46.31030599 -48 47 C-52.06054653 47.21535121 -56.12177342 47.18510417 -60.1875 47.1875 C-61.29287109 47.19974609 -62.39824219 47.21199219 -63.53710938 47.22460938 C-64.59091797 47.22654297 -65.64472656 47.22847656 -66.73046875 47.23046875 C-67.69364014 47.23457764 -68.65681152 47.23868652 -69.64916992 47.24291992 C-72 47 -72 47 -74 45 C-72.948125 45.04125 -71.89625 45.0825 -70.8125 45.125 C-67.10778371 45.13751414 -63.66251108 44.64836105 -60.0168457 44.00439453 C-53.27024043 42.93776797 -46.73678897 42.74150776 -39.91796875 42.8046875 C-38.73777664 42.8075174 -37.55758453 42.81034729 -36.34162903 42.81326294 C-32.62347671 42.82433378 -28.90557779 42.84941302 -25.1875 42.875 C-22.6451858 42.88504675 -20.10286778 42.89416961 -17.56054688 42.90234375 C-11.37361349 42.92423 -5.18682486 42.95757408 1 43 C0.67 42.01 0.34 41.02 0 40 C-0.08544291 38.66471193 -0.11774625 37.32556112 -0.11352539 35.98754883 C-0.11341209 34.7866436 -0.11341209 34.7866436 -0.11329651 33.56147766 C-0.10813522 32.70201035 -0.10297394 31.84254303 -0.09765625 30.95703125 C-0.0962413 30.0734343 -0.09482635 29.18983734 -0.09336853 28.27946472 C-0.08777069 25.45710872 -0.07521861 22.63483203 -0.0625 19.8125 C-0.05748472 17.89908969 -0.05292186 15.98567813 -0.04882812 14.07226562 C-0.03780197 9.38147986 -0.02053883 4.69075337 0 0 Z " fill="#0D293C" transform="translate(729,744)"/>
<path d="M0 0 C0.33 0 0.66 0 1 0 C1 4.29 1 8.58 1 13 C16.51 13 32.02 13 48 13 C48 27.85 48 42.7 48 58 C66.81 58 85.62 58 105 58 C105 58.33 105 58.66 105 59 C92.42795089 59.98252751 80.03487352 59.9749315 67.4375 59.5625 C65.63608783 59.50908273 63.83465538 59.45634499 62.03320312 59.40429688 C57.68852946 59.27732647 53.34423045 59.14129402 49 59 C49 59.66 49 60.32 49 61 C48.34 61 47.68 61 47 61 C46.67 46.15 46.34 31.3 46 16 C30.82 15.67 15.64 15.34 0 15 C0 10.05 0 5.1 0 0 Z " fill="#17394B" transform="translate(143,640)"/>
<path d="M0 0 C0.33 0 0.66 0 1 0 C1 7.92 1 15.84 1 24 C-14.84 24 -30.68 24 -47 24 C-47 37.86 -47 51.72 -47 66 C-54.92 66.495 -54.92 66.495 -63 67 C-63.33 66.34 -63.66 65.68 -64 65 C-63.16855469 64.93941406 -62.33710937 64.87882812 -61.48046875 64.81640625 C-60.39378906 64.73261719 -59.30710937 64.64882813 -58.1875 64.5625 C-57.10855469 64.48128906 -56.02960937 64.40007812 -54.91796875 64.31640625 C-51.94010095 64.09787539 -51.94010095 64.09787539 -49 63 C-49.01047363 61.8039917 -49.02094727 60.6079834 -49.03173828 59.37573242 C-49.06791405 54.94216907 -49.09089166 50.50861879 -49.10986328 46.07495117 C-49.11992639 44.15533251 -49.13357816 42.23572919 -49.15087891 40.31616211 C-49.17511364 37.55839248 -49.18647992 34.80082536 -49.1953125 32.04296875 C-49.20563507 31.18350143 -49.21595764 30.32403412 -49.22659302 29.43852234 C-49.22674408 28.63791885 -49.22689514 27.83731537 -49.22705078 27.01245117 C-49.231492 26.3085173 -49.23593323 25.60458344 -49.24050903 24.87931824 C-49 23 -49 23 -47 20 C-46.67 20.66 -46.34 21.32 -46 22 C-30.82 22.33 -15.64 22.66 0 23 C-0.495 19.535 -0.495 19.535 -1 16 C-1.08727803 13.75130734 -1.13028258 11.50037957 -1.125 9.25 C-1.12886719 7.58710938 -1.12886719 7.58710938 -1.1328125 5.890625 C-1 3 -1 3 0 0 Z " fill="#1A3E51" transform="translate(711,220)"/>
<path d="M0 0 C27.72 0 55.44 0 84 0 C84.33 12.21 84.66 24.42 85 37 C85.99 38.98 85.99 38.98 87 41 C87.33 41.66 87.66 42.32 88 43 C103.18 43.33 118.36 43.66 134 44 C134 44.33 134 44.66 134 45 C117.17 45 100.34 45 83 45 C83 30.48 83 15.96 83 1 C55.61 1 28.22 1 0 1 C0 0.67 0 0.34 0 0 Z " fill="#23556D" transform="translate(234,199)"/>
<path d="M0 0 C0.33 0 0.66 0 1 0 C1 12.21 1 24.42 1 37 C5.455 36.505 5.455 36.505 10 36 C11.59392802 35.9273623 13.18982596 35.88147281 14.78540039 35.88647461 C15.60557144 35.88655014 16.42574249 35.88662567 17.27076721 35.88670349 C18.54632729 35.89444542 18.54632729 35.89444542 19.84765625 35.90234375 C20.74495956 35.9037587 21.64226288 35.90517365 22.5667572 35.90663147 C25.39870714 35.9121749 28.23057445 35.92471642 31.0625 35.9375 C32.99674364 35.94252233 34.93098853 35.94708394 36.86523438 35.95117188 C41.57685417 35.96212571 46.28841313 35.97935047 51 36 C51.80483852 46.85216307 52.13122855 57.6201416 52.0625 68.5 C52.05746251 69.9205713 52.05290368 71.34114437 52.04882812 72.76171875 C52.03802909 76.17451742 52.02089572 79.58724637 52 83 C49.36 83 46.72 83 44 83 C47.75 81 47.75 81 50 81 C50 66.81 50 52.62 50 38 C44.1528125 38.2475 44.1528125 38.2475 38.1875 38.5 C29.85445828 38.83059296 21.52761685 39.10491342 13.1875 39.125 C12.42526123 39.12951172 11.66302246 39.13402344 10.87768555 39.13867188 C7.03484843 39.12818545 3.81044357 38.76208871 0 38 C0 25.46 0 12.92 0 0 Z " fill="#17394C" transform="translate(840,480)"/>
<path d="M0 0 C17.16 0 34.32 0 52 0 C51.67 1.98 51.34 3.96 51 6 C50.92156253 7.51064545 50.88189075 9.0239476 50.88647461 10.53662109 C50.88665588 11.81460571 50.88665588 11.81460571 50.88684082 13.1184082 C50.89195679 13.99456787 50.89707275 14.87072754 50.90234375 15.7734375 C50.90335083 16.59303955 50.90435791 17.4126416 50.90539551 18.25708008 C50.91059742 21.29640111 50.92455853 24.33570207 50.9375 27.375 C50.958125 34.18125 50.97875 40.9875 51 48 C34.83 48 18.66 48 2 48 C2 47.67 2 47.34 2 47 C17.51 47 33.02 47 49 47 C49 31.82 49 16.64 49 1 C32.83 1 16.66 1 0 1 C0 0.67 0 0.34 0 0 Z " fill="#163446" transform="translate(841,606)"/>
<path d="M0 0 C0.66 0 1.32 0 2 0 C2 17.16 2 34.32 2 52 C-27.205 51.505 -27.205 51.505 -57 51 C-56.67 49.68 -56.34 48.36 -56 47 C-56 47.99 -56 48.98 -56 50 C-37.52 50 -19.04 50 0 50 C0 33.5 0 17 0 0 Z " fill="#2B5E77" transform="translate(408,507)"/>
<path d="M0 0 C0 14.52 0 29.04 0 44 C-18.15 44 -36.3 44 -55 44 C-55 43.67 -55 43.34 -55 43 C-37.51 43 -20.02 43 -2 43 C-2 29.14 -2 15.28 -2 1 C-6.29 1 -10.58 1 -15 1 C-15 0.67 -15 0.34 -15 0 C-12.87562788 -0.19448477 -10.75046809 -0.38038289 -8.625 -0.5625 C-7.44164062 -0.66691406 -6.25828125 -0.77132812 -5.0390625 -0.87890625 C-2 -1 -2 -1 0 0 Z " fill="#123144" transform="translate(496,622)"/>
<path d="M0 0 C13.53 0 27.06 0 41 0 C41 14.52 41 29.04 41 44 C55.19 44 69.38 44 84 44 C84 44.33 84 44.66 84 45 C77.77070646 45.19332092 71.54110786 45.37079361 65.31103516 45.53710938 C63.19048783 45.59560723 61.07003838 45.65776984 58.94970703 45.72363281 C55.90675676 45.81752469 52.86370102 45.89834935 49.8203125 45.9765625 C48.86818878 46.00875885 47.91606506 46.0409552 46.93508911 46.0741272 C45.61394608 46.10438492 45.61394608 46.10438492 44.26611328 46.13525391 C43.48889923 46.15746002 42.71168518 46.17966614 41.91091919 46.20254517 C40 46 40 46 38 44 C38.66 44 39.32 44 40 44 C39.83544815 43.42320496 39.6708963 42.84640991 39.50135803 42.25213623 C39.00897187 40.04030227 38.91230966 38.22318051 38.97827148 35.96582031 C38.99836777 35.18531311 39.01846405 34.40480591 39.03916931 33.60064697 C39.06620438 32.76821472 39.09323944 31.93578247 39.12109375 31.078125 C39.15651024 29.78814606 39.15651024 29.78814606 39.19264221 28.47210693 C39.26908211 25.73122845 39.35319089 22.99064661 39.4375 20.25 C39.49074039 18.38933733 39.54348065 16.52866027 39.59570312 14.66796875 C39.72467059 10.11179209 39.86051534 5.55586632 40 1 C38.96085449 1.16226074 37.92170898 1.32452148 36.85107422 1.49169922 C33.63183551 1.91660444 30.62119849 2.12880531 27.3828125 2.1328125 C26.36316406 2.13410156 25.34351563 2.13539063 24.29296875 2.13671875 C23.24753906 2.13285156 22.20210938 2.12898438 21.125 2.125 C20.08730469 2.12886719 19.04960937 2.13273437 17.98046875 2.13671875 C11.90418009 2.12905634 6.02485536 1.79241313 0 1 C0 0.67 0 0.34 0 0 Z " fill="#11293A" transform="translate(286,288)"/>
<path d="M0 0 C1.45019531 -0.00193359 1.45019531 -0.00193359 2.9296875 -0.00390625 C4.45722656 0.00189453 4.45722656 0.00189453 6.015625 0.0078125 C7.51996094 0.00201172 7.51996094 0.00201172 9.0546875 -0.00390625 C10.02664063 -0.00261719 10.99859375 -0.00132812 12 0 C12.88913086 0.00112793 13.77826172 0.00225586 14.69433594 0.00341797 C17.30656599 0.13487277 19.71785423 0.55575331 22.265625 1.1328125 C22.265625 1.4628125 22.265625 1.7928125 22.265625 2.1328125 C13.685625 2.1328125 5.105625 2.1328125 -3.734375 2.1328125 C-3.734375 17.9728125 -3.734375 33.8128125 -3.734375 50.1328125 C-4.394375 49.8028125 -5.054375 49.4728125 -5.734375 49.1328125 C-5.7596439 42.31519356 -5.77720744 35.49758661 -5.78930664 28.67993164 C-5.79434833 26.35863799 -5.80118151 24.03734753 -5.80981445 21.71606445 C-5.82188725 18.38752455 -5.82760479 15.05902648 -5.83203125 11.73046875 C-5.83719254 10.68568863 -5.84235382 9.64090851 -5.84767151 8.56446838 C-5.84774704 7.60354782 -5.84782257 6.64262726 -5.84790039 5.65258789 C-5.850121 4.80209366 -5.85234161 3.95159943 -5.85462952 3.07533264 C-5.61679054 -0.76657719 -3.30072435 0.00420857 0 0 Z " fill="#183D52" transform="translate(621.734375,283.8671875)"/>
<path d="M0 0 C0.33 0 0.66 0 1 0 C1 14.52 1 29.04 1 44 C1.99 44.495 1.99 44.495 3 45 C-0.91796567 46.275454 -4.86788008 46.16180566 -8.94140625 46.16796875 C-9.70549301 46.17129715 -10.46957977 46.17462555 -11.25682068 46.17805481 C-12.8680664 46.18310638 -14.47932254 46.18546368 -16.09057617 46.18530273 C-18.55730281 46.18749538 -21.02358643 46.2056862 -23.49023438 46.22460938 C-25.05729014 46.22754242 -26.62434802 46.22952781 -28.19140625 46.23046875 C-29.29773155 46.24124702 -29.29773155 46.24124702 -30.42640686 46.25224304 C-34.1699922 46.2354923 -35.80305163 46.13129891 -39 44 C-26.13 44 -13.26 44 0 44 C0 29.48 0 14.96 0 0 Z " fill="#204E64" transform="translate(703,288)"/>
<path d="M0 0 C21.12 0 42.24 0 64 0 C64 0.33 64 0.66 64 1 C55.32300494 1.74870836 46.88424112 2.06987952 38.1796875 1.83984375 C35.06257923 1.77654886 35.06257923 1.77654886 32.8203125 3.12890625 C32.21960938 3.41636719 31.61890625 3.70382812 31 4 C29.64502296 3.37850227 28.31330895 2.70529555 27 2 C24.17914272 1.75926806 24.17914272 1.75926806 21.25 1.875 C20.26515625 1.89304687 19.2803125 1.91109375 18.265625 1.9296875 C17.51796875 1.95289063 16.7703125 1.97609375 16 2 C15.67 2.66 15.34 3.32 15 4 C14.45859375 3.68289063 13.9171875 3.36578125 13.359375 3.0390625 C10.5842851 1.81692026 8.26791902 1.59056564 5.25 1.375 C3.77273438 1.26285156 3.77273438 1.26285156 2.265625 1.1484375 C1.51796875 1.09945312 0.7703125 1.05046875 0 1 C0 0.67 0 0.34 0 0 Z " fill="#193C50" transform="translate(612,787)"/>
<path d="M0 0 C0.33 0 0.66 0 1 0 C1.02505615 1.07894531 1.0501123 2.15789063 1.07592773 3.26953125 C1.17066051 7.30267617 1.27071576 11.33567503 1.37231445 15.36865234 C1.4154158 17.10852625 1.45710637 18.84843573 1.49731445 20.58837891 C1.55562321 23.10069465 1.61913722 25.61283534 1.68359375 28.125 C1.70030624 28.89303955 1.71701874 29.6610791 1.73423767 30.45239258 C1.86655427 35.362638 2.3217858 40.1342355 3 45 C-1.75 46 -1.75 46 -4 46 C-4.99 46.495 -4.99 46.495 -6 47 C-6.99 46.34 -7.98 45.68 -9 45 C-11.0492094 44.54860541 -11.0492094 44.54860541 -13.1875 44.375 C-15.0746875 44.189375 -15.0746875 44.189375 -17 44 C-17 43.67 -17 43.34 -17 43 C-11.06 43 -5.12 43 1 43 C0.67 42.01 0.34 41.02 0 40 C-0.08544291 38.66471193 -0.11774625 37.32556112 -0.11352539 35.98754883 C-0.11344986 35.18694534 -0.11337433 34.38634186 -0.11329651 33.56147766 C-0.10813522 32.70201035 -0.10297394 31.84254303 -0.09765625 30.95703125 C-0.0962413 30.0734343 -0.09482635 29.18983734 -0.09336853 28.27946472 C-0.08777069 25.45710872 -0.07521861 22.63483203 -0.0625 19.8125 C-0.05748472 17.89908969 -0.05292186 15.98567813 -0.04882812 14.07226562 C-0.03780197 9.38147986 -0.02053883 4.69075337 0 0 Z " fill="#24556B" transform="translate(729,744)"/>
<path d="M0 0 C5.01707535 -0.04961356 10.03400635 -0.08582043 15.05126953 -0.10986328 C16.75637298 -0.1198914 18.46145936 -0.13351726 20.16650391 -0.15087891 C22.62406642 -0.17526803 25.08140061 -0.18651512 27.5390625 -0.1953125 C28.67379501 -0.21079636 28.67379501 -0.21079636 29.83145142 -0.22659302 C34.27822943 -0.22752561 37.86910217 0.34878358 42 2 C38.53329764 4.3111349 37.14345123 4.24298883 33.0625 4.1875 C32.02222656 4.18105469 30.98195313 4.17460938 29.91015625 4.16796875 C27.43933308 4.02535748 25.35822959 3.71031012 23 3 C22.67 3.66 22.34 4.32 22 5 C20.35 4.34 18.7 3.68 17 3 C17 2.67 17 2.34 17 2 C15.91332031 2.01740234 15.91332031 2.01740234 14.8046875 2.03515625 C9.75216677 2.08231311 4.96621233 2.07377564 0 1 C0 0.67 0 0.34 0 0 Z M19 1 C20.98 1.99 20.98 1.99 23 3 C23.33 2.34 23.66 1.68 24 1 C22.35 1 20.7 1 19 1 Z " fill="#214B60" transform="translate(576,787)"/>
<path d="M0 0 C1.05960938 0.00676758 1.05960938 0.00676758 2.140625 0.01367188 C3.88545275 0.02546125 5.630237 0.04339676 7.375 0.0625 C7.375 0.7225 7.375 1.3825 7.375 2.0625 C10.675 2.0625 13.975 2.0625 17.375 2.0625 C17.375 2.3925 17.375 2.7225 17.375 3.0625 C2.525 3.0625 -12.325 3.0625 -27.625 3.0625 C-27.625 2.7325 -27.625 2.4025 -27.625 2.0625 C-26.34882813 2.00191406 -25.07265625 1.94132813 -23.7578125 1.87890625 C-22.08852984 1.79450432 -20.41925963 1.70985614 -18.75 1.625 C-17.90824219 1.58568359 -17.06648437 1.54636719 -16.19921875 1.50585938 C-15.39355469 1.46396484 -14.58789062 1.42207031 -13.7578125 1.37890625 C-12.64237061 1.32391968 -12.64237061 1.32391968 -11.50439453 1.26782227 C-7.58516704 0.83964997 -4.13599009 -0.04960136 0 0 Z " fill="#275E78" transform="translate(167.625,515.9375)"/>
<path d="M0 0 C0.33 0 0.66 0 1 0 C1.88070797 7.23431599 2.12570502 14.3418371 2.0625 21.625 C2.05798828 22.62917969 2.05347656 23.63335937 2.04882812 24.66796875 C2.03718967 27.11204471 2.0208424 29.5559882 2 32 C1.01 31.34 0.02 30.68 -1 30 C-1.35644531 27.234375 -1.35644531 27.234375 -1.328125 23.75 C-1.32296875 22.5021875 -1.3178125 21.254375 -1.3125 19.96875 C-1.291875 18.6590625 -1.27125 17.349375 -1.25 16 C-1.24484375 14.6903125 -1.2396875 13.380625 -1.234375 12.03125 C-1.15401786 2.30803571 -1.15401786 2.30803571 0 0 Z " fill="#24566D" transform="translate(751,349)"/>
<path d="M0 0 C7.26 0 14.52 0 22 0 C22 0.66 22 1.32 22 2 C22.66 2.33 23.32 2.66 24 3 C11.46 3 -1.08 3 -14 3 C-14 2.67 -14 2.34 -14 2 C-9.38 2 -4.76 2 0 2 C0 1.34 0 0.68 0 0 Z " fill="#265C76" transform="translate(809,284)"/>
<path d="M0 0 C4.27077656 -0.05794812 8.54145236 -0.09357874 12.8125 -0.125 C14.02744141 -0.14175781 15.24238281 -0.15851562 16.49414062 -0.17578125 C17.65751953 -0.18222656 18.82089844 -0.18867187 20.01953125 -0.1953125 C21.62985229 -0.21102295 21.62985229 -0.21102295 23.27270508 -0.22705078 C26 0 26 0 29 2 C21.9709813 2.85385043 15.07765207 3.11560593 8 3 C7.67 3 7.34 3 7 3 C4.66359824 2.34416793 2.33010909 1.67784992 0 1 C0 0.67 0 0.34 0 0 Z " fill="#37748D" transform="translate(686,788)"/>
<path d="M0 0 C11.22 0 22.44 0 34 0 C34.495 0.99 34.495 0.99 35 2 C22.98168818 2.79553837 11.04394251 3.12812705 -1 3 C-0.67 2.01 -0.34 1.02 0 0 Z " fill="#1E495F" transform="translate(279,379)"/>
<path d="M0 0 C15.18 0 30.36 0 46 0 C46 0.33 46 0.66 46 1 C44.86981445 1.02505615 43.73962891 1.0501123 42.57519531 1.07592773 C38.37814183 1.17016956 34.18124737 1.27034926 29.984375 1.37231445 C28.16865766 1.41559986 26.35290129 1.45727944 24.53710938 1.49731445 C21.92566167 1.55517202 19.31440923 1.61882172 16.703125 1.68359375 C15.89256653 1.70030624 15.08200806 1.71701874 14.24688721 1.73423767 C10.08734501 1.8097609 10.08734501 1.8097609 6.00360107 2.51283264 C4 3 4 3 0 3 C0 2.01 0 1.02 0 0 Z " fill="#2D6A86" transform="translate(280,287)"/>
<path d="M0 0 C0.8765625 -0.01224609 1.753125 -0.02449219 2.65625 -0.03710938 C3.49929688 -0.03904297 4.34234375 -0.04097656 5.2109375 -0.04296875 C5.9848584 -0.04707764 6.7587793 -0.05118652 7.55615234 -0.05541992 C9.625 0.1875 9.625 0.1875 12.625 2.1875 C8.9435193 3.41466023 5.52089238 3.37156814 1.6875 3.375 C0.61338867 3.39336914 0.61338867 3.39336914 -0.48242188 3.41210938 C-4.27473108 3.42265333 -7.16099094 3.31059215 -10.375 1.1875 C-8.14264991 -1.04485009 -2.99806334 0.00218518 0 0 Z " fill="#397790" transform="translate(417.375,787.8125)"/>
<path d="M0 0 C0 4.95 0 9.9 0 15 C-0.66 15.33 -1.32 15.66 -2 16 C-2 11.05 -2 6.1 -2 1 C-6.29 1 -10.58 1 -15 1 C-15 0.67 -15 0.34 -15 0 C-12.87562788 -0.19448477 -10.75046809 -0.38038289 -8.625 -0.5625 C-7.44164062 -0.66691406 -6.25828125 -0.77132812 -5.0390625 -0.87890625 C-2 -1 -2 -1 0 0 Z " fill="#194056" transform="translate(496,622)"/>
<path d="M0 0 C0.87454834 0.00523682 1.74909668 0.01047363 2.65014648 0.01586914 C3.59438477 0.0190918 4.53862305 0.02231445 5.51147461 0.02563477 C6.50469727 0.03401367 7.49791992 0.04239258 8.52124023 0.05102539 C9.51833008 0.05553711 10.51541992 0.06004883 11.54272461 0.06469727 C14.01478872 0.07652532 16.48673541 0.0930069 18.95874023 0.11352539 C18.95874023 1.10352539 18.95874023 2.09352539 18.95874023 3.11352539 C16.04182499 3.16754234 13.125913 3.20720605 10.20874023 3.23852539 C9.38374023 3.2552832 8.55874023 3.27204102 7.70874023 3.28930664 C6.90952148 3.29575195 6.11030273 3.30219727 5.28686523 3.30883789 C4.55371094 3.31931152 3.82055664 3.32978516 3.06518555 3.34057617 C0.65977947 3.08130083 -0.95377471 2.30578464 -3.04125977 1.11352539 C-2.04125977 0.11352539 -2.04125977 0.11352539 0 0 Z " fill="#397790" transform="translate(522.041259765625,787.886474609375)"/>
<path d="M0 0 C5.94 0 11.88 0 18 0 C18.33 0.99 18.66 1.98 19 3 C12.73 3 6.46 3 0 3 C0 2.01 0 1.02 0 0 Z " fill="#21526B" transform="translate(845,516)"/>
<path d="M0 0 C-0.33 0.66 -0.66 1.32 -1 2 C-9.07029553 2.11547323 -16.97667603 1.90041311 -25 1 C-25 0.67 -25 0.34 -25 0 C-16.50791416 -0.73598077 -8.46904477 -1.29526567 0 0 Z " fill="#194359" transform="translate(752,380)"/>
<path d="M0 0 C0.66 0.99 1.32 1.98 2 3 C-1.62493334 3.05787784 -5.24974857 3.0935542 -8.875 3.125 C-9.90753906 3.14175781 -10.94007813 3.15851562 -12.00390625 3.17578125 C-12.99003906 3.18222656 -13.97617187 3.18867187 -14.9921875 3.1953125 C-16.35899658 3.21102295 -16.35899658 3.21102295 -17.75341797 3.22705078 C-20 3 -20 3 -22 1 C-20.824375 1.020625 -19.64875 1.04125 -18.4375 1.0625 C-12.21742126 1.07345084 -6.23074674 -0.48868602 0 0 Z " fill="#397790" transform="translate(677,788)"/>
<path d="M0 0 C0.99 0 1.98 0 3 0 C3.33 0.99 3.66 1.98 4 3 C0.08414605 3.2260865 -3.83259423 3.42778506 -7.75 3.625 C-9.41675781 3.72167969 -9.41675781 3.72167969 -11.1171875 3.8203125 C-12.72207031 3.89765625 -12.72207031 3.89765625 -14.359375 3.9765625 C-15.83615723 4.05511475 -15.83615723 4.05511475 -17.34277344 4.13525391 C-20 4 -20 4 -24 2 C-16.08 2 -8.16 2 0 2 C0 1.34 0 0.68 0 0 Z " fill="#307592" transform="translate(644,284)"/>
<path d="M0 0 C1.06089844 -0.03738281 2.12179687 -0.07476563 3.21484375 -0.11328125 C6.0625 0.3125 6.0625 0.3125 7.94140625 2.33203125 C8.31136719 2.98558594 8.68132812 3.63914062 9.0625 4.3125 C6.4225 3.9825 3.7825 3.6525 1.0625 3.3125 C1.0625 2.6525 1.0625 1.9925 1.0625 1.3125 C0.134375 1.7765625 0.134375 1.7765625 -0.8125 2.25 C-2.1875 2.9375 -3.5625 3.625 -4.9375 4.3125 C-5.9275 3.3225 -6.9175 2.3325 -7.9375 1.3125 C-5.23707819 -0.0377109 -3.01298373 0.06938993 0 0 Z " fill="#2B5C74" transform="translate(469.9375,786.6875)"/>
<path d="M0 0 C0 0.66 0 1.32 0 2 C-4.95 2 -9.9 2 -15 2 C-15.33 1.34 -15.66 0.68 -16 0 C-10.42289352 -1.06795656 -5.60563042 -0.82622671 0 0 Z " fill="#1C4861" transform="translate(480,622)"/>
<path d="M0 0 C4.95 0 9.9 0 15 0 C15 0.99 15 1.98 15 3 C4.44191344 3.3690205 4.44191344 3.3690205 0 1 C0 0.67 0 0.34 0 0 Z " fill="#397690" transform="translate(478,788)"/>
<path d="M0 0 C4.95 0 9.9 0 15 0 C15 0.99 15 1.98 15 3 C12.03 2.505 12.03 2.505 9 2 C8.67 2.66 8.34 3.32 8 4 C5.36 3.01 2.72 2.02 0 1 C0 0.67 0 0.34 0 0 Z " fill="#397690" transform="translate(438,788)"/>
<path d="M0 0 C4.95 0 9.9 0 15 0 C15.33 0.66 15.66 1.32 16 2 C12.9905129 3.00316237 11.94153808 2.99412215 8.9375 2.5 C5.2219722 1.65721214 5.2219722 1.65721214 3 3 C2.01 2.01 1.02 1.02 0 0 Z " fill="#38758E" transform="translate(494,788)"/>
<path d="M0 0 C0 0.99 0 1.98 0 3 C-1.58294782 3.05437607 -3.16644256 3.09296271 -4.75 3.125 C-5.63171875 3.14820313 -6.5134375 3.17140625 -7.421875 3.1953125 C-10.1135858 2.99139502 -11.69904974 2.36551721 -14 1 C-9.32798795 -0.20568053 -4.78503708 -0.09382426 0 0 Z " fill="#397790" transform="translate(381,788)"/>
<path d="M0 0 C-0.33 0.99 -0.66 1.98 -1 3 C-3.64 3 -6.28 3 -9 3 C-9.33 2.34 -9.66 1.68 -10 1 C-3.375 0 -3.375 0 0 0 Z " fill="#1F4D66" transform="translate(657,284)"/>
<path d="M0 0 C0.66 0 1.32 0 2 0 C2 1.32 2 2.64 2 4 C3.98 4 5.96 4 8 4 C7.34 4.66 6.68 5.32 6 6 C2.375 5.625 2.375 5.625 -1 5 C-0.34 4.67 0.32 4.34 1 4 C0.67 2.68 0.34 1.36 0 0 Z " fill="#20485D" transform="translate(325,328)"/>
<path d="M0 0 C3.625 0.1875 3.625 0.1875 6.625 2.1875 C0.225 3.41826923 0.225 3.41826923 -2.8125 2.25 C-3.328125 1.899375 -3.84375 1.54875 -4.375 1.1875 C-3.375 0.1875 -3.375 0.1875 0 0 Z " fill="#39768F" transform="translate(611.375,787.8125)"/>
<path d="M0 0 C0.66 0.66 1.32 1.32 2 2 C-5.625 3.25 -5.625 3.25 -9 1 C-5.75778445 -0.08073852 -3.39597063 -0.21676408 0 0 Z " fill="#1C455A" transform="translate(344,379)"/>
<path d="M0 0 C2.31 0 4.62 0 7 0 C7 0.99 7 1.98 7 3 C4.0625 2.625 4.0625 2.625 1 2 C0.67 1.34 0.34 0.68 0 0 Z " fill="#38758E" transform="translate(678,788)"/>
<path d="M0 0 C3.375 -0.1875 3.375 -0.1875 7 0 C7.66 0.99 8.32 1.98 9 3 C3.46153846 3.36923077 3.46153846 3.36923077 1.125 1.5 C0.75375 1.005 0.3825 0.51 0 0 Z " fill="#38758E" transform="translate(574,788)"/>
<path d="M0 0 C2.97 0.33 5.94 0.66 9 1 C5.5647952 3.29013653 4.014669 3.17842973 0 3 C0 2.01 0 1.02 0 0 Z " fill="#1E4B64" transform="translate(845,516)"/>
<path d="M0 0 C0.99 0 1.98 0 3 0 C3.33 0.99 3.66 1.98 4 3 C0.37 3 -3.26 3 -7 3 C-7 2.67 -7 2.34 -7 2 C-4.69 2 -2.38 2 0 2 C0 1.34 0 0.68 0 0 Z " fill="#2B6782" transform="translate(644,284)"/>
<path d="M0 0 C2.31 0 4.62 0 7 0 C7.33 0.66 7.66 1.32 8 2 C5.36 1.67 2.72 1.34 0 1 C0 0.67 0 0.34 0 0 Z " fill="#3A7791" transform="translate(583,789)"/>
<path d="M0 0 C2.31 0 4.62 0 7 0 C6.67 0.66 6.34 1.32 6 2 C3.03 1.505 3.03 1.505 0 1 C0 0.67 0 0.34 0 0 Z " fill="#3B7891" transform="translate(511,789)"/>
<path d="M0 0 C1.98 0 3.96 0 6 0 C5.67 0.66 5.34 1.32 5 2 C3.35 1.67 1.7 1.34 0 1 C0 0.67 0 0.34 0 0 Z " fill="#397891" transform="translate(392,789)"/>
<path d="M0 0 C1.98 0 3.96 0 6 0 C5.34 0.66 4.68 1.32 4 2 C2.68 1.34 1.36 0.68 0 0 Z " fill="#3B7992" transform="translate(632,789)"/>
<path d="M0 0 C1.98 0 3.96 0 6 0 C5.01 0.66 4.02 1.32 3 2 C2.01 1.34 1.02 0.68 0 0 Z " fill="#3A7891" transform="translate(360,789)"/>
<path d="M0 0 C0.66 0.66 1.32 1.32 2 2 C0.02 2 -1.96 2 -4 2 C-2.68 1.34 -1.36 0.68 0 0 Z " fill="#3F86A1" transform="translate(550,704)"/>
<path d="M0 0 C0.99 0.33 1.98 0.66 3 1 C1.68 1.33 0.36 1.66 -1 2 C-0.67 1.34 -0.34 0.68 0 0 Z " fill="#397690" transform="translate(468,789)"/>
<path d="M0 0 C0.99 0.33 1.98 0.66 3 1 C1.68 1.33 0.36 1.66 -1 2 C-0.67 1.34 -0.34 0.68 0 0 Z " fill="#3C809A" transform="translate(342,240)"/>
<path d="M0 0 C1.485 0.99 1.485 0.99 3 2 C1.68 1.67 0.36 1.34 -1 1 C-0.67 0.67 -0.34 0.34 0 0 Z " fill="#3E849F" transform="translate(579,704)"/>
<path d="M0 0 C1.65 0 3.3 0 5 0 C5 0.33 5 0.66 5 1 C3.35 1 1.7 1 0 1 C0 0.67 0 0.34 0 0 Z " fill="#3E86A1" transform="translate(556,705)"/>
<path d="M0 0 C0.66 0 1.32 0 2 0 C1.67 1.32 1.34 2.64 1 4 C0.67 2.68 0.34 1.36 0 0 Z " fill="#40829D" transform="translate(674,508)"/>
<path d="M0 0 C1.485 0.99 1.485 0.99 3 2 C1.68 1.67 0.36 1.34 -1 1 C-0.67 0.67 -0.34 0.34 0 0 Z " fill="#3D819A" transform="translate(349,240)"/>
<path d="M0 0 C0.66 0.33 1.32 0.66 2 1 C1.01 1 0.02 1 -1 1 C-0.67 0.67 -0.34 0.34 0 0 Z " fill="#39778F" transform="translate(652,789)"/>
<path d="M0 0 C0.66 0.33 1.32 0.66 2 1 C1.01 1 0.02 1 -1 1 C-0.67 0.67 -0.34 0.34 0 0 Z " fill="#3A7790" transform="translate(348,789)"/>
<path d="M0 0 C0.66 0.33 1.32 0.66 2 1 C1.01 1 0.02 1 -1 1 C-0.67 0.67 -0.34 0.34 0 0 Z " fill="#38748C" transform="translate(308,789)"/>
<path d="M0 0 C4 1 4 1 4 1 Z " fill="#3E849F" transform="translate(476,705)"/>
<path d="M0 0 C0.66 0 1.32 0 2 0 C2 0.66 2 1.32 2 2 C1.34 2 0.68 2 0 2 C0 1.34 0 0.68 0 0 Z " fill="#3E839E" transform="translate(486,704)"/>
<path d="M0 0 C0.66 0 1.32 0 2 0 C2 0.66 2 1.32 2 2 C1.34 2 0.68 2 0 2 C0 1.34 0 0.68 0 0 Z " fill="#3D819D" transform="translate(326,240)"/>
<path d="M0 0 C0.66 0.66 1.32 1.32 2 2 C1.34 2 0.68 2 0 2 C0 1.34 0 0.68 0 0 Z " fill="#3C839F" transform="translate(566,704)"/>
<path d="M0 0 C3 1 3 1 3 1 Z " fill="#3D839E" transform="translate(690,241)"/>
<path d="M0 0 C3 1 3 1 3 1 Z " fill="#3B809C" transform="translate(674,241)"/>
<path d="" fill="#387690" transform="translate(0,0)"/>
<path d="M0 0 C2 1 2 1 2 1 Z " fill="#37728B" transform="translate(715,790)"/>
<path d="M0 0 C2 1 2 1 2 1 Z " fill="#3A7790" transform="translate(311,789)"/>
<path d="M0 0 C2 1 2 1 2 1 Z " fill="#3B7791" transform="translate(304,789)"/>
<path d="" fill="#3F7E97" transform="translate(0,0)"/>
<path d="M0 0 C2 1 2 1 2 1 Z " fill="#3B7D99" transform="translate(585,705)"/>
<path d="" fill="#3D849E" transform="translate(0,0)"/>
<path d="" fill="#3D839E" transform="translate(0,0)"/>
<path d="M0 0 C2 1 2 1 2 1 Z " fill="#3F85A1" transform="translate(532,705)"/>
<path d="M0 0 C2 1 2 1 2 1 Z " fill="#3F86A3" transform="translate(466,705)"/>
<path d="" fill="#3D85A1" transform="translate(0,0)"/>
<path d="M0 0 C2 1 2 1 2 1 Z " fill="#3E839E" transform="translate(536,704)"/>
<path d="" fill="#38728A" transform="translate(0,0)"/>
<path d="" fill="#3F819E" transform="translate(0,0)"/>
<path d="M0 0 C2 1 2 1 2 1 Z " fill="#3F7C99" transform="translate(532,679)"/>
<path d="M0 0 C2 1 2 1 2 1 Z " fill="#3D7B94" transform="translate(529,675)"/>
<path d="" fill="#3C7994" transform="translate(0,0)"/>
<path d="M0 0 C2 1 2 1 2 1 Z " fill="#3C7893" transform="translate(528,665)"/>
<path d="" fill="#3C748C" transform="translate(0,0)"/>
<path d="" fill="#3B7B98" transform="translate(0,0)"/>
<path d="" fill="#3B7C97" transform="translate(0,0)"/>
<path d="M0 0 C2 1 2 1 2 1 Z " fill="#397792" transform="translate(326,335)"/>
<path d="M0 0 C2 1 2 1 2 1 Z " fill="#41829D" transform="translate(683,334)"/>
<path d="" fill="#397892" transform="translate(0,0)"/>
<path d="" fill="#39758F" transform="translate(0,0)"/>
<path d="M0 0 C2 1 2 1 2 1 Z " fill="#386E87" transform="translate(317,196)"/>
<path d="" fill="#3A748E" transform="translate(0,0)"/>
<path d="" fill="#346B83" transform="translate(0,0)"/>
<path d="" fill="#376E87" transform="translate(0,0)"/>
<path d="" fill="#38738B" transform="translate(0,0)"/>
<path d="" fill="#38758D" transform="translate(0,0)"/>
<path d="" fill="#39768D" transform="translate(0,0)"/>
<path d="" fill="#38768E" transform="translate(0,0)"/>
<path d="" fill="#38768C" transform="translate(0,0)"/>
<path d="" fill="#37758E" transform="translate(0,0)"/>
<path d="" fill="#37748D" transform="translate(0,0)"/>
<path d="" fill="#38758E" transform="translate(0,0)"/>
<path d="" fill="#38758D" transform="translate(0,0)"/>
<path d="" fill="#38748E" transform="translate(0,0)"/>
<path d="" fill="#39768F" transform="translate(0,0)"/>
<path d="" fill="#39768E" transform="translate(0,0)"/>
<path d="" fill="#3A768F" transform="translate(0,0)"/>
<path d="" fill="#397891" transform="translate(0,0)"/>
<path d="" fill="#38758D" transform="translate(0,0)"/>
<path d="" fill="#37768E" transform="translate(0,0)"/>
<path d="" fill="#3A758E" transform="translate(0,0)"/>
<path d="" fill="#38768D" transform="translate(0,0)"/>
<path d="" fill="#37758D" transform="translate(0,0)"/>
<path d="" fill="#38768F" transform="translate(0,0)"/>
<path d="" fill="#3C7B93" transform="translate(0,0)"/>
<path d="" fill="#3C7B94" transform="translate(0,0)"/>
<path d="" fill="#3C7C95" transform="translate(0,0)"/>
<path d="" fill="#3C7994" transform="translate(0,0)"/>
<path d="" fill="#377088" transform="translate(0,0)"/>
<path d="" fill="#356F87" transform="translate(0,0)"/>
<path d="" fill="#417D96" transform="translate(0,0)"/>
<path d="" fill="#3A728D" transform="translate(0,0)"/>
<path d="" fill="#3E87A1" transform="translate(0,0)"/>
<path d="" fill="#3D85A2" transform="translate(0,0)"/>
<path d="" fill="#3C85A2" transform="translate(0,0)"/>
<path d="" fill="#3D85A2" transform="translate(0,0)"/>
<path d="" fill="#3F84A2" transform="translate(0,0)"/>
<path d="" fill="#3B84A1" transform="translate(0,0)"/>
<path d="" fill="#3D85A0" transform="translate(0,0)"/>
<path d="" fill="#3C85A0" transform="translate(0,0)"/>
<path d="" fill="#3F87A0" transform="translate(0,0)"/>
<path d="" fill="#4085A2" transform="translate(0,0)"/>
<path d="" fill="#4088A4" transform="translate(0,0)"/>
<path d="" fill="#3E839F" transform="translate(0,0)"/>
<path d="" fill="#3E83A0" transform="translate(0,0)"/>
<path d="" fill="#3F839E" transform="translate(0,0)"/>
<path d="" fill="#3D809C" transform="translate(0,0)"/>
<path d="" fill="#3E839C" transform="translate(0,0)"/>
<path d="" fill="#38738E" transform="translate(0,0)"/>
<path d="" fill="#3A758E" transform="translate(0,0)"/>
<path d="" fill="#407E9A" transform="translate(0,0)"/>
<path d="" fill="#3D7D99" transform="translate(0,0)"/>
<path d="" fill="#3C7D9B" transform="translate(0,0)"/>
<path d="" fill="#3D7E99" transform="translate(0,0)"/>
<path d="" fill="#3E7F98" transform="translate(0,0)"/>
<path d="" fill="#3C7C9A" transform="translate(0,0)"/>
<path d="" fill="#3E7B98" transform="translate(0,0)"/>
<path d="" fill="#41849F" transform="translate(0,0)"/>
<path d="" fill="#3C7A94" transform="translate(0,0)"/>
<path d="" fill="#3E7C98" transform="translate(0,0)"/>
<path d="" fill="#3F7E99" transform="translate(0,0)"/>
<path d="" fill="#3F7F9A" transform="translate(0,0)"/>
<path d="" fill="#397087" transform="translate(0,0)"/>
<path d="" fill="#3D829E" transform="translate(0,0)"/>
<path d="" fill="#3D7B98" transform="translate(0,0)"/>
<path d="" fill="#3F829E" transform="translate(0,0)"/>
<path d="" fill="#3E819A" transform="translate(0,0)"/>
<path d="" fill="#407F9C" transform="translate(0,0)"/>
<path d="" fill="#3A809B" transform="translate(0,0)"/>
<path d="" fill="#3F829E" transform="translate(0,0)"/>
<path d="" fill="#4281A0" transform="translate(0,0)"/>
<path d="" fill="#3A7189" transform="translate(0,0)"/>
<path d="" fill="#40809A" transform="translate(0,0)"/>
<path d="" fill="#41819C" transform="translate(0,0)"/>
<path d="" fill="#41819B" transform="translate(0,0)"/>
<path d="" fill="#3A7D99" transform="translate(0,0)"/>
<path d="" fill="#3F7F9A" transform="translate(0,0)"/>
<path d="" fill="#3C7A91" transform="translate(0,0)"/>
<path d="" fill="#3C7E9C" transform="translate(0,0)"/>
<path d="" fill="#3A7C9A" transform="translate(0,0)"/>
<path d="" fill="#3F819C" transform="translate(0,0)"/>
<path d="" fill="#3D7F9C" transform="translate(0,0)"/>
<path d="" fill="#3B7E9A" transform="translate(0,0)"/>
<path d="" fill="#41809B" transform="translate(0,0)"/>
<path d="" fill="#3B718A" transform="translate(0,0)"/>
<path d="" fill="#3B7E99" transform="translate(0,0)"/>
<path d="" fill="#3D7E9B" transform="translate(0,0)"/>
<path d="" fill="#3F83A1" transform="translate(0,0)"/>
<path d="" fill="#41849C" transform="translate(0,0)"/>
<path d="" fill="#3D839E" transform="translate(0,0)"/>
<path d="" fill="#4085A1" transform="translate(0,0)"/>
<path d="" fill="#3C7B98" transform="translate(0,0)"/>
<path d="" fill="#3A7B97" transform="translate(0,0)"/>
<path d="" fill="#3A7D98" transform="translate(0,0)"/>
<path d="" fill="#3F7A97" transform="translate(0,0)"/>
<path d="" fill="#3E809D" transform="translate(0,0)"/>
<path d="" fill="#3E819E" transform="translate(0,0)"/>
<path d="" fill="#41839F" transform="translate(0,0)"/>
<path d="" fill="#3B7A95" transform="translate(0,0)"/>
<path d="" fill="#3C7E9A" transform="translate(0,0)"/>
<path d="" fill="#3D7C98" transform="translate(0,0)"/>
<path d="" fill="#3F7F9A" transform="translate(0,0)"/>
<path d="" fill="#3A7E9C" transform="translate(0,0)"/>
<path d="" fill="#41809A" transform="translate(0,0)"/>
<path d="" fill="#41809C" transform="translate(0,0)"/>
<path d="" fill="#3C728B" transform="translate(0,0)"/>
<path d="" fill="#3B7992" transform="translate(0,0)"/>
<path d="" fill="#407F99" transform="translate(0,0)"/>
<path d="" fill="#3E7B95" transform="translate(0,0)"/>
<path d="" fill="#3F819D" transform="translate(0,0)"/>
<path d="" fill="#3B7992" transform="translate(0,0)"/>
<path d="" fill="#3E819D" transform="translate(0,0)"/>
<path d="" fill="#387089" transform="translate(0,0)"/>
<path d="" fill="#3C7E9A" transform="translate(0,0)"/>
<path d="" fill="#41819B" transform="translate(0,0)"/>
<path d="" fill="#3A6F8A" transform="translate(0,0)"/>
<path d="" fill="#3B819E" transform="translate(0,0)"/>
<path d="" fill="#3D829C" transform="translate(0,0)"/>
<path d="" fill="#3C829D" transform="translate(0,0)"/>
<path d="" fill="#3C819E" transform="translate(0,0)"/>
<path d="" fill="#3D829E" transform="translate(0,0)"/>
<path d="" fill="#39809A" transform="translate(0,0)"/>
<path d="" fill="#3B819B" transform="translate(0,0)"/>
<path d="" fill="#3A7188" transform="translate(0,0)"/>
<path d="" fill="#366E86" transform="translate(0,0)"/>
<path d="" fill="#3A8099" transform="translate(0,0)"/>
<path d="" fill="#3D819B" transform="translate(0,0)"/>
<path d="" fill="#3D829D" transform="translate(0,0)"/>
<path d="" fill="#3D7C97" transform="translate(0,0)"/>
<path d="" fill="#397389" transform="translate(0,0)"/>
<path d="" fill="#3E809B" transform="translate(0,0)"/>
<path d="" fill="#37687F" transform="translate(0,0)"/>
<path d="" fill="#37667E" transform="translate(0,0)"/>
<path d="" fill="#36697F" transform="translate(0,0)"/>
<path d="" fill="#39728A" transform="translate(0,0)"/>
<path d="" fill="#3B718A" transform="translate(0,0)"/>
<path d="" fill="#33667C" transform="translate(0,0)"/>
<path d="" fill="#366B84" transform="translate(0,0)"/>
<path d="" fill="#878685" transform="translate(0,0)"/>
</svg>
