<?xml version="1.0" encoding="UTF-8"?>
<svg id="_레이어_2" data-name="레이어_2" xmlns="http://www.w3.org/2000/svg" version="1.1" viewBox="0 0 1024 1024">
  <!-- Generator: Adobe Illustrator 30.1.0, SVG Export Plug-In . SVG Version: 2.1.1 Build 136)  -->
  <polygon points="152.5 490.8 152.5 526.3 183.2 526.3 183.2 490.9 152.5 490.8"/>
  <polygon points="533.1 715.2 554.2 715.2 554.2 672.7 466.8 672.7 466.8 715.2 487.9 715.2 487.9 756.5 460.3 756.5 460.3 779 560.7 779 560.7 756.5 533.1 756.5 533.1 715.2"/>
  <path d="M725.2,377.5v-20.8h45.7v-31.2h100.8v-52h40.2v-116.9h-68.7v72h-47.2v47.2h-24.8v-96.8h-41.3v122.8h-85v75.6h-39v37.8h-187.8v-37.8h-30.7v-72l-84.2-.4v-125.2l-45.7.4v96.8h-34.2v-47.2h-48.4v-79.1s-61.8-.2-62.9-.2v125.3h39.3v50.8h106.4v31.9h44.1v17.7h36.1v61.4h-39v-24.8h-40.2v-35.4H112v113.4h38.1v-44.9h70.4v44.9h32.9v37.8h-67.9v36.6h68.5v128.7h43.7v68.1h36.6v47.6h27.2v26h36.6v37.8h229.1v-35.4h34.2v-26h30.7v-49.6h37.8v-68.5h42.5v-128.7h70.9v-40.2h32.9v-37.8h35.6v-109.8h-140.5v35.4h-44.9v30.7h-43.7v-66.1h42.5ZM770.5,487.3h32.9v-44.9h70.4v44.9h-33.1v37.8h-70.3v-37.8ZM392.1,626.6h-44.9v-57.9h44.9v57.9ZM629.5,782.5h-43.7v49.6h-144.1v-48.4h-47.2l1.2-109.8h46.1v-43.7h139.4v43.7h48.4v108.6ZM676.7,626.6h-44.9v-57.9h44.9v57.9Z"/>
  <polygon points="150.1 490.8 152.5 490.8 152.5 490.8 150.1 490.8"/>
  <rect x="183.2" y="526.3" width="2.3" height="2.4"/>
</svg>