<?xml version="1.0" encoding="UTF-8"?>
<svg id="_레이어_2" data-name="레이어_2" xmlns="http://www.w3.org/2000/svg" version="1.1" viewBox="0 0 1024 1024">
  <!-- Generator: Adobe Illustrator 30.1.0, SVG Export Plug-In . SVG Version: 2.1.1 Build 136)  -->
  <polygon points="874.8 378.7 874.8 306.3 828.7 306.3 828.7 272.5 753.9 272.5 753.9 229 683.9 229 683.9 271.3 640.5 271.3 640.5 229 384.7 229 384.7 271.3 639.3 271.3 639.3 307.5 683.9 307.5 683.9 347.3 717.7 347.3 717.7 454.7 752.7 454.7 752.7 579 788.9 579 788.9 616.4 874.6 616.4 874.6 579 912 579 912 378.7 874.8 378.7"/>
  <rect x="655" y="732.2" width="62.7" height="29.3"/>
  <rect x="752.7" y="616.4" width="36.2" height="72.4"/>
  <rect x="717.7" y="688.8" width="35" height="42.2"/>
  <path d="M340.1,229h-70v43.4h-78.4v34.7h-44.6v72.7h-35v199.1h36.2v37.4h86.9v-37.4h35v-123.1h37.4v-108.6h32.6v-39.8h45.5s-1.6-28.6-1.2-35h-44.3v-43.4Z"/>
  <polygon points="267.7 690 267.7 734.6 305.1 734.6 305.1 762.4 366.9 762.4 366.9 795 655 795 655 762.4 367.8 762.4 367.8 734.6 307.5 734.6 307.5 690 268.9 690 268.9 616.4 235.1 616.4 235.1 690 267.7 690"/>
  <path d="M384.4,272.5h.3v-1.2c-.2-.2-.3.3-.3,1.2Z"/>
  <rect x="337.9" y="487.3" width="62.7" height="62.7"/>
  <rect x="623.3" y="487.3" width="62.7" height="62.7"/>
  <polygon points="607.9 688.8 607.9 650.2 531.9 650.2 531.9 593.4 575.3 593.4 575.3 539.1 448.7 539.1 448.7 593.4 492.1 593.4 492.1 650.2 416.1 650.2 416.1 688.8 492.1 688.8 492.1 668.2 531.9 668.2 531.9 688.8 607.9 688.8"/>
</svg>