<?xml version="1.0" encoding="UTF-8"?>
<svg id="_레이어_2" data-name="레이어_2" xmlns="http://www.w3.org/2000/svg" version="1.1" viewBox="0 0 1024 1024">
  <!-- Generator: Adobe Illustrator 30.1.0, SVG Export Plug-In . SVG Version: 2.1.1 Build 136)  -->
  <path d="M877.7,301.9v-32.4h-101.9v-34.3h-35.2v-36.2h-36.2v-36.2h-38.1v-34.3h-70.4v-36.7h-306.5v37.6h-34.3v37.1h-34.3v68.5h-38.1v71.4h-70.8v71.4h209.8v35.2h101.9v36.2h34.3v62.5h36.2v41.2h32.4v72.4h40v-214.2h31.4v35.2h34.3v179h-35.2v31.4h-29.5v37.1h-74.3v33.3h-100v-70.4h-34.3v-37.1h-34.3v-33.3h-102.8v31.4h36.2v109.5h33.3v36.2h-33.3v100.9h-34.3v67.5h100v-34.2h36.2v-37.1h35.2v-67.6h168.5v-32.4h104.7v-34.3h38.1v-33.3h32.4v-34.3h38.1v-72.4h31.4v-208.5h103.8v-76.2h-34.3ZM393.2,270.5h-34.3v-34.3h34.3v34.3Z"/>
</svg>