<?xml version="1.0" encoding="UTF-8"?>
<svg id="_레이어_2" data-name="레이어_2" xmlns="http://www.w3.org/2000/svg" version="1.1" viewBox="0 0 1024 1024">
  <!-- Generator: Adobe Illustrator 30.1.0, SVG Export Plug-In . SVG Version: 2.1.1 Build 136)  -->
  <polygon points="678.5 658.4 678.5 590.9 613.2 591.9 613.2 658.4 678.5 658.4"/>
  <polygon points="345.5 658.4 412.9 658.4 411.9 590.9 345.5 590.9 345.5 658.4"/>
  <path d="M877.8,562.9v-66.4h-32.2V164.4h-67.4v66.3h-64.3v63.4h-69.5v35.3h-64.3v-33.2h-133.9v32.2h-66.4v-32.2h-69.5v-65.4h-62.3v-66.4h-66.4v328.9h-36.3v66.9h-33.2v97h32.2v-30.1h44.6v-41.5h58.1v-34.2h165v39.4h34.2v65.4h34.2v30.1h63.3v-30.1h35.3v-64.3h34.2v-40h162.6v33.8h56.3v41.5h45.7v33.2h34.2v-97.5h-34.2ZM310.2,396.9h-32.2v32.2h-63.3v-198.2c-1,1,30.4,0,30.4,0v67.4h31.9v62.3h33.2v36.3ZM810.4,431.3h-63.3v-32.2h-32.2v-36.3h33.2v-62.3h31.9v-67.4s31.3,1,30.4,0v198.2Z"/>
  <polygon points="213.7 725.7 213.7 764.2 282.2 764.2 282.2 795.3 347.5 795.3 347.5 828.5 447.1 828.5 447.1 859.6 580 859.6 580 828.5 675.3 828.5 675.3 796.4 743.9 796.4 743.9 761.1 810.3 761.1 810.3 726.8 877.8 726.8 877.8 661.5 809.3 661.5 809.3 701.9 727.3 701.9 727.3 731 674.4 731 674.4 766.3 597.6 766.3 597.6 793.2 425.4 793.2 425.4 764.2 346.5 764.2 346.5 732 297.7 732 297.7 704 213.7 704 213.7 657.3 144.2 657.3 145.2 725.7 213.7 725.7"/>
  <rect x="481.4" y="707.1" width="64.3" height="56"/>
</svg>