<?xml version="1.0" encoding="UTF-8"?>
<svg id="_레이어_2" data-name="레이어_2" xmlns="http://www.w3.org/2000/svg" version="1.1" viewBox="0 0 1024 1024">
  <!-- Generator: Adobe Illustrator 30.1.0, SVG Export Plug-In . SVG Version: 2.1.1 Build 136)  -->
  <polygon points="875.9 605.8 875.9 505.1 842.8 505.1 842.8 389 804.6 389 804.6 315.7 760.3 315.7 760.3 280.3 714.8 280.3 714.8 247.3 316.4 247.3 316.4 280.3 258.6 280.3 258.6 315.7 214.2 315.7 214.2 389 180.1 389 180.1 505.1 147.1 505.1 147.1 605.8 112 605.8 112 681.2 148.1 681.2 148.1 653.4 179.1 653.4 179.1 744.7 214.2 744.7 214.2 713.9 245.2 713.9 245.2 768.6 282.3 768.6 282.3 744.7 332.9 744.7 332.9 713.9 367 713.9 367 681.2 406.2 681.2 406.2 653.4 365.9 653.4 365.9 605.8 282.3 605.8 282.3 564.1 246.2 564.1 246.2 535.3 216.3 535.3 216.3 505.1 248.3 505.1 248.3 389 276.1 389 276.1 431.6 351.5 431.6 351.5 465.9 310.7 465.9 310.7 535.3 381.4 535.3 381.4 465.9 406.3 465.9 406.3 505.1 437.2 505.1 437.2 535.3 481.1 535.3 481.1 505.1 546.6 505.1 546.6 535.3 591 535.3 591 505.1 618.8 505.1 618.8 465.9 647.7 465.9 647.7 535.3 711.7 535.3 711.7 465.9 676.6 465.9 676.6 431.6 746.8 431.6 746.8 389 775.7 389 775.7 505.1 806.7 505.1 806.7 535.3 772.6 535.3 772.6 564.1 740.6 564.1 740.6 605.8 656 605.8 656 653.4 614.7 653.4 614.7 681.2 658.1 681.2 658.1 713.9 698.3 713.9 698.3 744.7 740.6 744.7 740.6 768.6 775.7 768.6 775.7 713.9 806.7 713.9 807.7 744.7 842.8 744.7 842.8 653.4 874.8 653.4 874.8 681.2 912 681.2 912 605.8 875.9 605.8"/>
  <path d="M623,564.1h-49.5v41.7h-28.9v-55.3h-66.1v55.3h-26.8v-41.7h-44.4v41.7h25.8v75.4h28.9v32.7h23.7v30.8h12.4l.5,32h25.8l-.5-32h9.3v-30.8h24.8v-32.7h33v-75.4h32v-41.7Z"/>
</svg>