<?xml version="1.0" encoding="UTF-8"?>
<svg version="1.1" xmlns="http://www.w3.org/2000/svg" width="96" height="96">
<path d="M0 0 C31.68 0 63.36 0 96 0 C96 31.68 96 63.36 96 96 C64.32 96 32.64 96 0 96 C0 64.32 0 32.64 0 0 Z " fill="#3C7272" transform="translate(0,0)"/>
<path d="M0 0 C31.68 0 63.36 0 96 0 C96 31.68 96 63.36 96 96 C64.32 96 32.64 96 0 96 C0 64.32 0 32.64 0 0 Z M36 7 C36 8.65 36 10.3 36 12 C32.37 12 28.74 12 25 12 C25 13.65 25 15.3 25 17 C23.35 17 21.7 17 20 17 C20 18.65 20 20.3 20 22 C18.35 22 16.7 22 15 22 C15 25.63 15 29.26 15 33 C13.35 33 11.7 33 10 33 C10 34.65 10 36.3 10 38 C11.32 38 12.64 38 14 38 C14 39.65 14 41.3 14 43 C11.525 43.495 11.525 43.495 9 44 C9 48.95 9 53.9 9 59 C7.35 59 5.7 59 4 59 C4 60.98 4 62.96 4 65 C5.65 65 7.3 65 9 65 C9 66.98 9 68.96 9 71 C12.63 71 16.26 71 20 71 C20 72.32 20 73.64 20 75 C21.98 75 23.96 75 26 75 C26 76.98 26 78.96 26 81 C24.35 81 22.7 81 21 81 C21 82.65 21 84.3 21 86 C24.3 86 27.6 86 31 86 C31 84.35 31 82.7 31 81 C32.65 81 34.3 81 36 81 C36 82.65 36 84.3 36 86 C39.63 86 43.26 86 47 86 C47 82.37 47 78.74 47 75 C51.62 75 56.24 75 61 75 C61 76.65 61 78.3 61 80 C59.35 80 57.7 80 56 80 C56 81.98 56 83.96 56 86 C63.26 86 70.52 86 78 86 C78 82.37 78 78.74 78 75 C79.32 75 80.64 75 82 75 C82 73.35 82 71.7 82 70 C83.98 70 85.96 70 88 70 C88 67.69 88 65.38 88 63 C86.35 63 84.7 63 83 63 C83 61.68 83 60.36 83 59 C84.65 59 86.3 59 88 59 C88 54.05 88 49.1 88 44 C86.02 44 84.04 44 82 44 C82 42.35 82 40.7 82 39 C83.98 39 85.96 39 88 39 C88 37.02 88 35.04 88 33 C84.37 33 80.74 33 77 33 C77 31.35 77 29.7 77 28 C78.65 28 80.3 28 82 28 C82 26.02 82 24.04 82 22 C80.35 22 78.7 22 77 22 C77 20.35 77 18.7 77 17 C75.35 17 73.7 17 72 17 C72 15.35 72 13.7 72 12 C68.7 12 65.4 12 62 12 C62 10.35 62 8.7 62 7 C60.35 7 58.7 7 57 7 C57 8.65 57 10.3 57 12 C55.35 12 53.7 12 52 12 C52 10.35 52 8.7 52 7 C50.02 7 48.04 7 46 7 C46 8.65 46 10.3 46 12 C44.35 12 42.7 12 41 12 C41 10.35 41 8.7 41 7 C39.35 7 37.7 7 36 7 Z " fill="#F1F2F1" transform="translate(0,0)"/>
<path d="M0 0 C10.56 0 21.12 0 32 0 C32 1.65 32 3.3 32 5 C33.65 5 35.3 5 37 5 C37 10.28 37 15.56 37 21 C35.35 21 33.7 21 32 21 C32 22.65 32 24.3 32 26 C30.02 26 28.04 26 26 26 C26 27.98 26 29.96 26 32 C22.7 32 19.4 32 16 32 C16 33.32 16 34.64 16 36 C17.98 36.33 19.96 36.66 22 37 C22 38.98 22 40.96 22 43 C20.02 43 18.04 43 16 43 C16 41.02 16 39.04 16 37 C14.35 37 12.7 37 11 37 C11 35.35 11 33.7 11 32 C9.35 32 7.7 32 6 32 C6 30.35 6 28.7 6 27 C7.65 27 9.3 27 11 27 C11 25.02 11 23.04 11 21 C9.02 21 7.04 21 5 21 C5 22.65 5 24.3 5 26 C0.05 26 -4.9 26 -10 26 C-10 24.68 -10 23.36 -10 22 C-8.35 22 -6.7 22 -5 22 C-5 16.72 -5 11.44 -5 6 C-3.35 6 -1.7 6 0 6 C0 4.02 0 2.04 0 0 Z " fill="#EDEFEF" transform="translate(20,38)"/>
<path d="M0 0 C1.98 0 3.96 0 6 0 C6 1.98 6 3.96 6 6 C4.35 6 2.7 6 1 6 C1 7.65 1 9.3 1 11 C2.65 11 4.3 11 6 11 C6 12.65 6 14.3 6 16 C7.65 16 9.3 16 11 16 C11 17.98 11 19.96 11 22 C9.35 22 7.7 22 6 22 C6 23.65 6 25.3 6 27 C2.7 27 -0.6 27 -4 27 C-4 25.35 -4 23.7 -4 22 C-2.35 22 -0.7 22 1 22 C1 20.02 1 18.04 1 16 C-0.98 16 -2.96 16 -5 16 C-5 14.35 -5 12.7 -5 11 C-8.3 11 -11.6 11 -15 11 C-15 9.35 -15 7.7 -15 6 C-10.05 6 -5.1 6 0 6 C0 4.02 0 2.04 0 0 Z " fill="#3B7171" transform="translate(25,59)"/>
<path d="M0 0 C0.33 1.32 0.66 2.64 1 4 C2.65 4 4.3 4 6 4 C6 4.33 6 4.66 6 5 C4.35 5 2.7 5 1 5 C1 10.28 1 15.56 1 21 C-0.65 21 -2.3 21 -4 21 C-4 22.32 -4 23.64 -4 25 C0.95 25 5.9 25 11 25 C11 25.33 11 25.66 11 26 C6.05 26 1.1 26 -4 26 C-4 27.65 -4 29.3 -4 31 C-0.7 31 2.6 31 6 31 C6 31.33 6 31.66 6 32 C2.37 32 -1.26 32 -5 32 C-5 30.02 -5 28.04 -5 26 C-6.65 26 -8.3 26 -10 26 C-10 24.02 -10 22.04 -10 20 C-8.35 20 -6.7 20 -5 20 C-5 15.05 -5 10.1 -5 5 C-3.35 4.67 -1.7 4.34 0 4 C0 2.68 0 1.36 0 0 Z " fill="#6A928F" transform="translate(14,39)"/>
<path d="M0 0 C1.32 0 2.64 0 4 0 C4 4.95 4 9.9 4 15 C2.68 15 1.36 15 0 15 C0 10.05 0 5.1 0 0 Z " fill="#376E6E" transform="translate(10,44)"/>
<path d="M0 0 C7.42857143 -0.14285714 7.42857143 -0.14285714 11 1 C11 2.98 11 4.96 11 7 C9.02 7 7.04 7 5 7 C5 5.02 5 3.04 5 1 C3.35 1 1.7 1 0 1 C0 0.67 0 0.34 0 0 Z " fill="#A2BAB7" transform="translate(31,74)"/>
<path d="M0 0 C1.98 0 3.96 0 6 0 C6 2.31 6 4.62 6 7 C4.02 7 2.04 7 0 7 C0 4.69 0 2.38 0 0 Z " fill="#477A79" transform="translate(35,48)"/>
<path d="M0 0 C1.98 0 3.96 0 6 0 C6 1.98 6 3.96 6 6 C4.35 6 2.7 6 1 6 C1 7.65 1 9.3 1 11 C0.67 11 0.34 11 0 11 C0 7.37 0 3.74 0 0 Z " fill="#447776" transform="translate(25,59)"/>
<path d="M0 0 C1.98 0 3.96 0 6 0 C6 1.98 6 3.96 6 6 C4.02 6 2.04 6 0 6 C0 4.02 0 2.04 0 0 Z " fill="#CDD9D7" transform="translate(62,38)"/>
<path d="M0 0 C1.98 0 3.96 0 6 0 C6 1.98 6 3.96 6 6 C4.02 6 2.04 6 0 6 C0 4.02 0 2.04 0 0 Z " fill="#D3DDDB" transform="translate(62,22)"/>
<path d="M0 0 C2.31 0 4.62 0 7 0 C7 1.65 7 3.3 7 5 C4.69 5 2.38 5 0 5 C0 3.35 0 1.7 0 0 Z " fill="#EAEDEC" transform="translate(72,49)"/>
<path d="M0 0 C1.65 0 3.3 0 5 0 C5 2.31 5 4.62 5 7 C3.35 7 1.7 7 0 7 C0 4.69 0 2.38 0 0 Z " fill="#447775" transform="translate(20,48)"/>
<path d="M0 0 C0.33 1.32 0.66 2.64 1 4 C2.65 4 4.3 4 6 4 C6 4.33 6 4.66 6 5 C4.35 5 2.7 5 1 5 C1 10.28 1 15.56 1 21 C-0.65 21 -2.3 21 -4 21 C-2.68 20.67 -1.36 20.34 0 20 C0 15.05 0 10.1 0 5 C-1.32 4.67 -2.64 4.34 -4 4 C-2.68 4 -1.36 4 0 4 C0 2.68 0 1.36 0 0 Z " fill="#7EA19E" transform="translate(14,39)"/>
<path d="M0 0 C2.97 0.495 2.97 0.495 6 1 C6 2.65 6 4.3 6 6 C4.02 6 2.04 6 0 6 C0 4.02 0 2.04 0 0 Z " fill="#DAE2E0" transform="translate(30,22)"/>
<path d="M0 0 C1.65 0 3.3 0 5 0 C5 1.65 5 3.3 5 5 C3.35 5 1.7 5 0 5 C0 3.35 0 1.7 0 0 Z " fill="#D5DEDD" transform="translate(68,58)"/>
<path d="M0 0 C1.65 0 3.3 0 5 0 C5 1.65 5 3.3 5 5 C3.35 5 1.7 5 0 5 C0 3.35 0 1.7 0 0 Z " fill="#DFE6E5" transform="translate(47,17)"/>
<path d="M0 0 C1.32 0 2.64 0 4 0 C4 1.65 4 3.3 4 5 C2.68 5 1.36 5 0 5 C0 3.35 0 1.7 0 0 Z " fill="#F0F1F1" transform="translate(68,75)"/>
<path d="M0 0 C1.32 0 2.64 0 4 0 C4 1.65 4 3.3 4 5 C2.68 5 1.36 5 0 5 C0 3.35 0 1.7 0 0 Z " fill="#F2F2F2" transform="translate(37,75)"/>
</svg>
