<?xml version="1.0" encoding="utf-8"?>
<!-- Generator: Adobe Illustrator 30.1.0, SVG Export Plug-In . SVG Version: 9.03 Build 0)  -->
<svg version="1.0" id="레이어_1" xmlns="http://www.w3.org/2000/svg" xmlns:xlink="http://www.w3.org/1999/xlink" x="0px"
	 y="0px" viewBox="0 0 1024 1024" style="enable-background:new 0 0 1024 1024;" xml:space="preserve">
<g transform="translate(0.000000,1024.000000) scale(0.100000,-0.100000)">
	<path d="M1870.3,7541v-175.4H1690h-180.3v-204.6v-204.6h-194.9H1120v-696.7v-696.7h194.9h194.9v-170.5v-170.5H1690h180.3v-155.9
		V4910h233.9H2338v-672.4v-672.4h170.5h170.5v-170.5v-170.5h169.5h168.6l-1.9-190l-1.9-190H3329h314.7v-159.8v-160.8l1464.6,1.9
		l1463.6,1.9l2.9,157.9l1.9,158.8h350.8h350.8v190v190h141.3h141.3v170.5v170.5h165.7h165.7v672.4V4910H8092h199.8v155.9v155.9
		h209.5h209.5v170.5v170.5h204.6H9120v696.7v696.7h-204.6h-204.6v204.6v204.6h-185.1h-185.1V7541v175.4h-716.2h-716.2V7541v-175.4
		h-204.6h-204.6v-204.6v-204.6H5132.7H3765.6l2.9,204.6l2.9,204.6h-210.5h-209.5V7541v175.4h-740.6h-740.6V7541z M3351.4,6600.6
		v-336.2h-170.5h-170.5v-355.7v-355.7h-141.3h-141.3v-170.5v-170.5h-146.2h-146.2v170.5v170.5h-151h-151l-1.9,497
		c-1,273.8-1.9,511.6-1.9,529.1l-1,31.2l154,2.9l153,2.9V6776v160.8h458h458V6600.6z M7872.7,6775.1v-160.8l141.3,2.9l141.3,2.9
		v-533v-534H8014h-141.3v-170.5v-170.5h-155.9h-155.9v170.5v170.5h-131.5h-131.5v355.7v355.7h-190h-190v336.2v336.2h477.5h477.5
		V6775.1z M4189.4,5153.6v-224.1h-214.4h-214.4v224.1v224.1h214.4h214.4V5153.6z M6498.8,5153.6v-224.1h-233.9h-233.9v224.1v224.1
		h233.9h233.9V5153.6z M5388,4895.4v-190h155.9h155.9v-467.7v-467.7h-155.9H5388v-170.5v-170.5h-229h-229v170.5v170.5h-151h-151
		v467.7v467.7h151h151v190v190h229h229V4895.4z"/>
</g>
</svg>
