<?xml version="1.0" standalone="no"?>
<!DOCTYPE svg PUBLIC "-//W3C//DTD SVG 20010904//EN"
 "http://www.w3.org/TR/2001/REC-SVG-20010904/DTD/svg10.dtd">
<svg version="1.0" xmlns="http://www.w3.org/2000/svg"
 width="1024.000000pt" height="1024.000000pt" viewBox="0 0 1024.000000 1024.000000"
 preserveAspectRatio="xMidYMid meet">

<g transform="translate(0.000000,1024.000000) scale(0.100000,-0.100000)"
fill="#000000" stroke="none">
<path d="M1820 7680 l0 -180 -185 0 -185 0 0 -210 0 -210 -200 0 -200 0 0
-715 0 -715 200 0 200 0 0 -175 0 -175 185 0 185 0 0 -160 0 -160 240 0 240 0
0 -690 0 -690 175 0 175 0 0 -175 0 -175 174 0 173 0 -2 -195 -2 -195 324 0
323 0 0 -164 0 -165 1503 2 1502 2 3 162 2 163 360 0 360 0 0 195 0 195 145 0
145 0 0 175 0 175 170 0 170 0 0 690 0 690 205 0 205 0 0 160 0 160 215 0 215
0 0 175 0 175 210 0 210 0 0 715 0 715 -210 0 -210 0 0 210 0 210 -190 0 -190
0 0 180 0 180 -735 0 -735 0 0 -180 0 -180 -210 0 -210 0 0 -210 0 -210 -1402
0 -1403 0 3 210 3 210 -216 0 -215 0 0 180 0 180 -760 0 -760 0 0 -180z m1683
-207 c-13 -2 -33 -2 -45 0 -13 2 -3 4 22 4 25 0 35 -2 23 -4z m240 0 c-7 -2
-19 -2 -25 0 -7 3 -2 5 12 5 14 0 19 -2 13 -5z m2894 1 c-3 -3 -12 -4 -19 -1
-8 3 -5 6 6 6 11 1 17 -2 13 -5z m241 -1 c-43 -2 -113 -2 -155 0 -43 1 -8 3
77 3 85 0 120 -2 78 -3z m-3538 -758 l0 -345 -175 0 -175 0 0 -365 0 -365
-145 0 -145 0 0 -175 0 -175 -150 0 -150 0 0 175 0 175 -155 0 -155 0 -2 510
c-1 281 -2 525 -2 543 l-1 32 158 3 157 3 0 164 0 165 470 0 470 0 0 -345z
m4640 179 l0 -165 145 3 145 3 0 -547 0 -548 -145 0 -145 0 0 -175 0 -175
-160 0 -160 0 0 175 0 175 -135 0 -135 0 0 365 0 365 -195 0 -195 0 0 345 0
345 490 0 490 0 0 -166z m307 -996 c-2 -13 -4 -5 -4 17 -1 22 1 32 4 23 2 -10
2 -28 0 -40z m-4087 -668 l0 -230 -220 0 -220 0 0 230 0 230 220 0 220 0 0
-230z m2370 0 l0 -230 -240 0 -240 0 0 230 0 230 240 0 240 0 0 -230z m17 108
c-3 -7 -5 -2 -5 12 0 14 2 19 5 13 2 -7 2 -19 0 -25z m-2370 -10 c-3 -8 -6 -5
-6 6 -1 11 2 17 5 13 3 -3 4 -12 1 -19z m2370 -140 c-2 -24 -4 -5 -4 42 0 47
2 66 4 43 2 -24 2 -62 0 -85z m-1157 -223 l0 -195 160 0 160 0 0 -480 0 -480
-160 0 -160 0 0 -175 0 -175 -235 0 -235 0 0 175 0 175 -155 0 -155 0 0 480 0
480 155 0 155 0 0 195 0 195 235 0 235 0 0 -195z m337 -527 c-2 -13 -4 -5 -4
17 -1 22 1 32 4 23 2 -10 2 -28 0 -40z m0 -460 c-3 -7 -5 -2 -5 12 0 14 2 19
5 13 2 -7 2 -19 0 -25z m0 -50 c-3 -7 -5 -2 -5 12 0 14 2 19 5 13 2 -7 2 -19
0 -25z m-1879 -1375 c-10 -2 -26 -2 -35 0 -10 3 -2 5 17 5 19 0 27 -2 18 -5z
m85 0 c-7 -2 -19 -2 -25 0 -7 3 -2 5 12 5 14 0 19 -2 13 -5z m70 0 c-7 -2 -21
-2 -30 0 -10 3 -4 5 12 5 17 0 24 -2 18 -5z m64 1 c-3 -3 -12 -4 -19 -1 -8 3
-5 6 6 6 11 1 17 -2 13 -5z m191 -1 c-10 -2 -28 -2 -40 0 -13 2 -5 4 17 4 22
1 32 -1 23 -4z m369 1 c-3 -3 -12 -4 -19 -1 -8 3 -5 6 6 6 11 1 17 -2 13 -5z
m101 -1 c-10 -2 -26 -2 -35 0 -10 3 -2 5 17 5 19 0 27 -2 18 -5z m59 1 c-3 -3
-12 -4 -19 -1 -8 3 -5 6 6 6 11 1 17 -2 13 -5z m240 0 c-3 -3 -12 -4 -19 -1
-8 3 -5 6 6 6 11 1 17 -2 13 -5z m256 -1 c-7 -2 -21 -2 -30 0 -10 3 -4 5 12 5
17 0 24 -2 18 -5z m64 1 c-3 -3 -12 -4 -19 -1 -8 3 -5 6 6 6 11 1 17 -2 13 -5z
m160 0 c-3 -3 -12 -4 -19 -1 -8 3 -5 6 6 6 11 1 17 -2 13 -5z m176 -1 c-7 -2
-21 -2 -30 0 -10 3 -4 5 12 5 17 0 24 -2 18 -5z m85 0 c-10 -2 -26 -2 -35 0
-10 3 -2 5 17 5 19 0 27 -2 18 -5z m155 0 c-7 -2 -21 -2 -30 0 -10 3 -4 5 12
5 17 0 24 -2 18 -5z m80 0 c-7 -2 -21 -2 -30 0 -10 3 -4 5 12 5 17 0 24 -2 18
-5z m160 0 c-7 -2 -21 -2 -30 0 -10 3 -4 5 12 5 17 0 24 -2 18 -5z m224 1 c-3
-3 -12 -4 -19 -1 -8 3 -5 6 6 6 11 1 17 -2 13 -5z m106 -1 c-7 -2 -19 -2 -25
0 -7 3 -2 5 12 5 14 0 19 -2 13 -5z"/>
</g>
</svg>
