<?xml version="1.0" encoding="utf-8"?>
<!-- Generator: Adobe Illustrator 30.1.0, SVG Export Plug-In . SVG Version: 9.03 Build 0)  -->
<svg version="1.0" id="레이어_1" xmlns="http://www.w3.org/2000/svg" xmlns:xlink="http://www.w3.org/1999/xlink" x="0px"
	 y="0px" viewBox="0 0 1024 1024" style="enable-background:new 0 0 1024 1024;" xml:space="preserve">
<g>
	<path d="M896.6,249.9h-15.4L881,228c-0.4-19.8-0.6-21.8-2.5-21.6c-1.2,0-34.3,0.1-73.5,0.2l-71.3,0.2v21.5v21.5h-20.3h-20.3V264
		v14.1h-16.7h-16.7l0.4-14.1l0.5-14.1H515.4H370.1V264v14.1h-17.8h-17.8V264v-14.1h-20.8h-20.9l0.6-21.5l0.5-21.5l-74.5-0.2
		c-40.9-0.2-74.7-0.1-75,0.1s-0.5,10.1-0.5,21.9v21.3h-16h-16v70v70h12.9h12.9v16v16h20.9h20.9v31.3c0,17.2,0,31.7,0,32.2
		c0,0.6-9.2,1.2-20.5,1.6l-20.6,0.6l-0.4,70.4l-0.2,70.4l17.8-0.4l17.8-0.4v39.6V707H190h16.6v20.3v20.3h22.6h22.5l0.1,17.5
		c0.1,9.7,0.2,17.9,0.2,18.4c0,0.6,17.8,1,39.4,1H331l-0.4,16.2l-0.5,16.3l176.7,0.4l176.6,0.2V801v-16.6h46.1h46.1V766v-18.4h20.3
		h20.3v-20.3V707h15.4h15.4l0.2-39.4l0.4-39.4l18.2,0.1l18.1,0.2l-0.2-70.4l-0.4-70.4l-19.3-0.4l-19.4-0.4v-32.4v-32.6h18.4h18.4
		v-16v-16h15.4H912v-70v-70H896.6z M866.5,331.6v57.1h-41.8H783v16.6v16.6h14.7h14.7v32.6v32.6h12.8c10.4,0,12.9,0.4,13.5,2
		c0.4,1.1,0.7,32.3,0.7,69.4v67.5h-16.6h-16.6v38.7v38.6l-16.2,0.4l-16.3,0.4l-0.4,19.3l-0.4,19.4h-47.2h-47.3v17.2v17.2H508.9
		H339.3v-17.2v-17.2h-42.4h-42.4V723v-19.7h-18.9h-18.8l-0.2-38.5l-0.1-38.3l-17.2-0.4l-17.2-0.4v-69.3v-69.3l14.5-0.4l14.4-0.4
		v-32.3v-32.2h17.6h17.5v-16.6v-16.6h-38.7h-38.7v-57.1v-57.1h34.4h34.4v17.2v17.2h19h19v16v16h28.9h28.9v-16v-16h19h19v-12.3v-12.3
		h143.8h143.8v12.3v12.3h17.6h17.5v15.6v15.7l27.4,0.4l27.3,0.2v-16v-16h20.3h20.3v-17.2v-17.2h38.7h38.7V331.6z"/>
	<polygon points="509.5,344.6 527.1,344.6 544.8,344.6 545.1,325 545.3,305.5 527.1,305.5 508.9,305.5 509.1,325 	"/>
	<polygon points="333,423.5 333,402.9 333,382.3 314,382.3 295.1,382.3 295.1,402.9 295.1,423.5 314,423.5 	"/>
	<path d="M701,449.7v19.2h18.7h18.6l0.3-18.8c0.2-10.3,0.1-19-0.1-19.2c-0.2-0.2-8.8-0.4-19-0.4H701V449.7z"/>
	<path d="M703.8,676.2h-18.5v19.2v19.2H704h18.6l0.3-18.8c0.2-10.3,0.1-19-0.1-19.2C722.5,676.4,713.9,676.2,703.8,676.2z"/>
	<path d="M597.8,713.1h-33.2h-33.1v-37.6l-0.8-12.8l6.5,0.5l24.6,0.4l1.3-22.6v-24.2H505h-52.1l0.2,24.1l-0.9,22.4l22.2,0.1
		l11.5,0.2l1.1,12.3l0.2,37.2l-33.4,0.2l-33.5,0.4l-0.4,3.2l-0.4,18.2h89c48.9,0,89.2-0.2,89.5-0.5c0.2-0.2,0.4-8.6,0.1-18.4
		L597.8,713.1z"/>
	<polygon points="300.9,602.8 300.9,585.3 300.9,567.8 283.9,567.8 266.9,567.8 266.9,585.3 266.9,602.8 283.9,602.8 	"/>
	<polygon points="431.4,360.6 463.3,360.6 463.3,393.9 498.8,393.9 498.8,358.3 464.3,358.3 464.3,325.1 431.4,325.1 428.7,325.1 
		395.9,325.1 395.9,360.6 428.7,360.6 	"/>
	<polygon points="647.1,376.3 678.9,376.3 678.9,409.5 714.5,409.5 714.5,374 680,374 680,340.7 647.1,340.7 644.4,340.7 
		611.6,340.7 611.6,376.3 644.4,376.3 	"/>
	<polygon points="291.6,448.8 256,448.8 256,483.3 222.8,483.3 222.8,516.2 222.8,518.8 222.8,551.7 258.3,551.7 258.3,518.8 
		258.3,516.2 258.3,484.3 291.6,484.3 	"/>
	<path d="M704.1,494.5h-47.3v-0.1h-36.3c-28.1,0-36.5,0.4-36.9,1.6c-0.4,0.8-0.5,17.9-0.4,38.2h0v92.6h11.4v-54.2l25.6,0.3l36.5,0.2
		v-39.3V506h47.3V494.5z"/>
	<path d="M422.7,624.4h11.4v-92.6h-0.4l-0.3-36.9l-37-0.4c-0.2,0-0.3,0-0.5,0v0h-92.6V506H358c-0.2,7.2-0.3,17.4-0.3,28.5V573h38.1
		h26.8V624.4z"/>
	<polygon points="731.3,578.1 695.8,578.1 695.8,613.7 730.6,613.7 730.6,649.2 766.2,649.2 766.2,613.7 731.3,613.7 	"/>
	<polygon points="535.9,455.2 571.4,455.2 571.4,420.4 606.9,420.4 606.9,384.8 571.4,384.8 571.4,419.7 535.9,419.7 	"/>
	<polygon points="766.5,515.6 731,515.6 731,551.1 766.5,551.1 766.5,516.3 802,516.3 802,480.7 766.5,480.7 	"/>
	<polygon points="319.5,661.7 283.9,661.7 283.9,697.2 319.5,697.2 319.5,662.4 355,662.4 355,626.8 319.5,626.8 	"/>
	<polygon points="428,438.4 428,474 463.6,474 463.6,438.4 428.7,438.4 428.7,402.9 393.2,402.9 393.2,438.4 	"/>
</g>
</svg>
