<?xml version="1.0" standalone="no"?>
<!DOCTYPE svg PUBLIC "-//W3C//DTD SVG 20010904//EN"
 "http://www.w3.org/TR/2001/REC-SVG-20010904/DTD/svg10.dtd">
<svg version="1.0" xmlns="http://www.w3.org/2000/svg"
 width="1024.000000pt" height="1024.000000pt" viewBox="0 0 1024.000000 1024.000000"
 preserveAspectRatio="xMidYMid meet">

<g transform="translate(0.000000,1024.000000) scale(0.100000,-0.100000)"
fill="#000000" stroke="none">
<path d="M2124 7581 c-2 -2 -4 -82 -4 -178 l0 -173 -130 0 -130 0 0 -570 0
-570 105 0 105 0 0 -130 0 -130 170 0 170 0 0 -255 c0 -140 0 -258 0 -262 0
-5 -75 -10 -167 -13 l-168 -5 -3 -573 -2 -573 145 3 145 3 0 -322 0 -323 135
0 135 0 0 -165 0 -165 184 0 183 0 1 -142 c1 -79 2 -146 2 -150 0 -5 145 -8
321 -8 l321 0 -3 -132 -4 -133 1438 -3 1437 -2 0 135 0 135 375 0 375 0 0 150
0 150 165 0 165 0 0 165 0 165 125 0 125 0 2 321 3 321 148 -1 147 -2 -2 573
-3 573 -157 3 -158 3 0 264 0 265 150 0 150 0 0 130 0 130 125 0 125 0 0 570
0 570 -125 0 -125 0 -2 178 c-3 161 -5 177 -20 176 -10 0 -279 -1 -598 -2
l-580 -2 0 -175 0 -175 -165 0 -165 0 0 -115 0 -115 -136 0 -136 0 3 115 4
115 -1182 0 -1183 0 0 -115 0 -115 -145 0 -145 0 0 115 0 115 -169 0 -170 0 5
175 4 175 -606 2 c-333 2 -608 1 -610 -1z m756 -691 l0 -140 155 0 155 0 0
-130 0 -130 235 0 235 0 0 130 0 130 155 0 155 0 0 100 0 100 1170 0 1170 0 0
-100 0 -100 143 0 142 0 0 -127 0 -128 223 -3 222 -2 0 130 0 130 165 0 165 0
0 140 0 140 315 0 315 0 0 -465 0 -465 -340 0 -340 0 0 -135 0 -135 120 0 120
0 0 -265 0 -265 104 0 c85 0 105 -3 110 -16 3 -9 6 -263 6 -565 l0 -549 -135
0 -135 0 0 -315 0 -314 -132 -3 -133 -3 -3 -157 -3 -158 -384 0 -385 0 0 -140
0 -140 -1380 0 -1380 0 0 140 0 140 -345 0 -345 0 0 160 0 160 -154 0 -153 0
-2 313 -1 312 -140 3 -140 3 0 564 0 564 118 3 117 3 0 263 0 262 143 0 142 0
0 135 0 135 -315 0 -315 0 0 465 0 465 280 0 280 0 0 -140z"/>
<path d="M4258 6682 l-158 -3 0 -184 0 -185 170 3 171 2 2 182 c2 155 0 182
-13 185 -8 2 -86 2 -172 0z"/>
<path d="M4920 6497 l0 -184 170 -1 170 -1 0 185 0 184 -170 0 -170 0 0 -183z"/>
<path d="M5792 6498 l3 -183 165 0 165 0 3 183 2 182 -170 0 -170 0 2 -182z"/>
<path d="M3350 5915 l0 -185 170 0 170 0 0 185 0 185 -170 0 -170 0 0 -185z"/>
<path d="M4410 5915 l0 -185 185 0 185 0 -2 183 -3 182 -182 3 -183 2 0 -185z"/>
<path d="M5400 5915 l0 -185 180 0 180 0 0 185 0 185 -180 0 -180 0 0 -185z"/>
<path d="M6470 5915 l0 -185 180 0 179 0 3 181 c2 99 1 183 -1 185 -2 2 -85 4
-183 4 l-178 0 0 -185z"/>
<path d="M2777 5293 c-4 -3 -7 -89 -7 -190 l0 -183 185 0 185 0 0 190 0 190
-178 0 c-98 0 -182 -3 -185 -7z"/>
<path d="M3557 5293 c-4 -3 -7 -147 -7 -320 l0 -313 310 0 310 0 -2 318 -3
317 -301 3 c-165 1 -303 -1 -307 -5z"/>
<path d="M6025 5287 c-3 -7 -4 -149 -3 -317 l3 -305 298 -3 297 -2 0 320 0
320 -295 0 c-229 0 -297 -3 -300 -13z"/>
<path d="M7020 5110 l0 -190 178 2 177 3 0 185 0 185 -177 3 -178 2 0 -190z"/>
<path d="M4442 4434 l3 -196 235 -1 235 -2 3 -302 2 -303 -272 -2 -273 -3 -3
-147 -3 -148 724 0 c398 0 726 2 728 4 2 2 3 70 1 150 l-3 146 -270 0 -269 0
0 306 0 306 200 -4 200 -3 0 198 0 197 -620 0 -620 0 2 -196z"/>
<path d="M3190 4360 l0 -170 165 0 165 0 0 170 0 170 -165 0 -165 0 0 -170z"/>
<path d="M6765 4518 c-3 -7 -4 -83 -2 -168 l2 -155 168 -3 167 -2 0 170 0 170
-165 0 c-123 0 -167 -3 -170 -12z"/>
</g>
</svg>
