<?xml version="1.0" standalone="no"?>
<!DOCTYPE svg PUBLIC "-//W3C//DTD SVG 20010904//EN"
 "http://www.w3.org/TR/2001/REC-SVG-20010904/DTD/svg10.dtd">
<svg version="1.0" xmlns="http://www.w3.org/2000/svg"
 width="1024.000000pt" height="1024.000000pt" viewBox="0 0 1024.000000 1024.000000"
 preserveAspectRatio="xMidYMid meet">

<g transform="translate(0.000000,1024.000000) scale(0.100000,-0.100000)"
fill="#000000" stroke="none">
<path d="M1940 7525 l0 -535 185 0 185 0 0 -170 0 -170 -185 0 -185 0 0 -685
0 -685 -165 0 -165 0 0 -910 0 -910 205 0 205 0 0 -220 0 -220 263 0 263 0 -1
-177 0 -178 213 -3 212 -2 0 -175 0 -175 2170 0 2170 0 0 175 0 175 205 0 205
0 0 180 0 180 258 2 257 3 3 217 2 218 203 2 c154 2 202 6 201 16 -1 6 -2 415
-2 907 l-2 895 -162 2 -163 3 -3 682 -2 683 -183 2 -182 3 -3 168 -3 167 186
0 185 0 0 535 0 535 -350 0 -350 0 0 -185 0 -185 -205 0 -205 0 0 -185 0 -185
-187 -2 -188 -3 -3 -162 -2 -163 -1700 0 c-935 0 -1703 0 -1707 0 -5 0 -9 74
-11 165 l-2 165 -195 0 -195 0 0 185 0 185 -182 2 -182 3 -1 180 0 180 -352 3
-353 2 0 -535z m1090 -1020 l0 -155 198 -2 197 -3 3 -202 2 -203 320 0 320 0
0 -165 0 -165 185 0 185 0 0 -180 0 -180 173 -2 172 -3 -2 -187 -2 -188 330 0
329 0 0 190 0 190 200 0 200 0 0 180 0 180 190 0 190 0 0 165 0 165 285 0 285
0 0 205 0 205 190 0 190 0 0 155 0 155 220 0 220 0 0 -360 0 -360 170 0 170 0
0 -915 0 -916 -167 2 -168 1 -3 -211 -2 -211 -170 0 -170 0 0 -170 0 -170
-210 0 -210 0 0 -155 0 -155 -1725 0 -1725 0 0 155 0 155 -206 2 -206 3 1 168
2 167 -171 0 -170 0 -2 63 c0 34 -1 128 0 210 l1 147 -175 0 -174 0 0 915 0
915 173 2 172 3 -3 335 c-1 184 0 345 3 358 5 22 7 22 195 22 l190 0 0 -155z"/>
<path d="M2650 5070 l0 -560 190 0 190 0 0 -155 0 -155 663 2 662 3 0 530 0
530 -180 0 -180 0 -3 183 -2 182 -670 0 -670 0 0 -560z m1340 -75 l0 -255 -52
-1 c-58 -1 -181 -1 -300 0 l-78 1 0 255 0 255 215 0 215 0 0 -255z"/>
<path d="M6280 5444 l0 -186 -77 2 c-43 1 -140 2 -215 1 l-138 -1 0 -530 0
-530 670 0 670 0 0 155 0 155 195 0 195 0 0 560 0 560 -650 0 -650 0 0 -186z
m430 -448 l0 -253 -52 -6 c-40 -3 -290 -2 -350 2 -5 1 -8 116 -8 256 l0 255
205 0 205 0 0 -254z"/>
<path d="M4630 4205 c0 -201 -1 -368 -2 -372 -2 -5 61 -9 140 -11 l142 -3 0
-204 0 -205 238 2 237 3 3 203 2 202 108 0 107 0 0 375 0 375 -487 0 -488 0 0
-365z"/>
</g>
</svg>
