<?xml version="1.0" encoding="utf-8"?>
<!-- Generator: Adobe Illustrator 30.1.0, SVG Export Plug-In . SVG Version: 9.03 Build 0)  -->
<svg version="1.0" id="레이어_1" xmlns="http://www.w3.org/2000/svg" xmlns:xlink="http://www.w3.org/1999/xlink" x="0px"
	 y="0px" viewBox="0 0 1024 1024" style="enable-background:new 0 0 1024 1024;" xml:space="preserve">
<g transform="translate(0.000000,1024.000000) scale(0.100000,-0.100000)">
	<path d="M1495.3,7781.4v-608.5h210.4h210.4v-193.3v-193.3h-210.4h-210.4v-779.1V5228h-187.7H1120v-1035v-1035h233.2h233.2v-250.2
		v-250.2h299.1h299.1l-1.1-201.3v-202.4l242.3-3.4l241.1-2.3v-199v-199h2468h2468v199v199h233.2h233.2V2453v204.7l293.4,2.3
		l292.3,3.4l3.4,246.8l2.3,247.9l230.9,2.3c175.1,2.3,229.7,6.8,228.6,18.2c-1.1,6.8-2.3,472-2.3,1031.6l-2.3,1017.9l-184.2,2.3
		l-185.4,3.4l-3.4,775.7l-2.3,776.8l-208.1,2.3l-207,3.4l-3.4,191.1l-3.4,189.9h211.5h210.4v608.5v608.5H8342H7944v-210.4V7969
		h-233.2h-233.2v-210.4v-210.4l-212.7-2.3l-213.8-3.4l-3.4-184.2l-2.3-185.4H5112c-1063.4,0-1936.9,0-1941.4,0
		c-5.7,0-10.2,84.2-12.5,187.7l-2.3,187.7H2934h-221.8v210.4V7969l-207,2.3l-207,3.4l-1.1,204.7v204.7l-400.3,3.4l-401.5,2.3V7781.4
		z M2735,6621.3V6445l225.2-2.3l224.1-3.4l3.4-229.7l2.3-230.9h363.9h363.9V5791v-187.7h210.4h210.4v-204.7v-204.7l196.8-2.3
		l195.6-3.4l-2.3-212.7l-2.3-213.8h375.3H5476v216.1v216.1h227.5h227.5v204.7v204.7H6147h216.1V5791v187.7h324.1h324.1v233.2V6445
		h216.1h216.1v176.3v176.3h250.2H7944v-409.4v-409.4h193.3h193.3V4938V3896.2l-189.9,2.3l-191.1,1.1l-3.4-240l-2.3-240h-193.3
		h-193.3v-193.3V3033h-238.8h-238.8v-176.3v-176.3H5117.7H3155.8v176.3V3033l-234.3,2.3l-234.3,3.4l1.1,191.1l2.3,189.9h-194.5
		h-193.3l-2.3,71.7c0,38.7-1.1,145.6,0,238.8l1.1,167.2h-199h-197.9V4938v1040.7l196.8,2.3l195.6,3.4l-3.4,381
		c-1.1,209.3,0,392.4,3.4,407.2c5.7,25,8,25,221.8,25H2735V6621.3z"/>
	<path d="M2302.8,4989.2v-636.9h216.1H2735V4176v-176.3l754.1,2.3l752.9,3.4v602.8V5211h-204.7h-204.7l-3.4,208.1l-2.3,207h-762
		h-762V4989.2z M3826.8,4903.9v-290l-59.1-1.1c-66-1.1-205.9-1.1-341.2,0l-88.7,1.1v290v290h244.5h244.5V4903.9z"/>
	<path d="M6431.3,5414.6V5203l-87.6,2.3c-48.9,1.1-159.2,2.3-244.5,1.1l-157-1.1v-602.8v-602.8h762h762V4176v176.3h221.8h221.8
		v636.9v636.9h-739.3h-739.3V5414.6z M6920.4,4905v-287.7l-59.1-6.8c-45.5-3.4-329.8-2.3-398.1,2.3c-5.7,1.1-9.1,131.9-9.1,291.2
		v290h233.2h233.2V4905z"/>
	<path d="M4554.7,4005.4c0-228.6-1.1-418.5-2.3-423.1c-2.3-5.7,69.4-10.2,159.2-12.5l161.5-3.4v-232v-233.2l270.7,2.3l269.5,3.4
		l3.4,230.9l2.3,229.7h122.8h121.7V3994v426.5h-553.9h-555V4005.4z"/>
</g>
</svg>
