<?xml version="1.0" encoding="utf-8"?>
<!-- Generator: Adobe Illustrator 30.1.0, SVG Export Plug-In . SVG Version: 9.03 Build 0)  -->
<svg version="1.0" id="레이어_1" xmlns="http://www.w3.org/2000/svg" xmlns:xlink="http://www.w3.org/1999/xlink" x="0px"
	 y="0px" viewBox="0 0 1024 1024" style="enable-background:new 0 0 1024 1024;" xml:space="preserve">
<g transform="translate(0.000000,1024.000000) scale(0.100000,-0.100000)">
	<path d="M2024.2,8036.6v-226.1h-253.6H1517v-187.5v-187.5h-198.5H1120v-650.6v-650.6h198.5H1517V5936v-198.5h99.2h99.2v-474.2
		v-474.2H1550h-165.4v-821.5v-821.5h170.9h170.9v-204v-204h215h215v204v204h-204h-204v678.2v678.2h154.4h154.4V5120v617.5h170.9
		h170.9V5936v198.5h187.5H2774v215v216.1l264.6-3.3l264.6-3.3v218.3v217.2h1791.9h1791.9l2.2-216.1l3.3-216.1l240.4,2.2l239.3,1.1
		v-216.1v-215h215h215V5936v-198.5h187.5h187.5v-618.6v-617.5l148.9,3.3l148.9,3.3v-680.4v-681.5h-215h-215v-204v-204h215h215
		l2.2,201.8l3.3,200.7l174.2,3.3l173.1,3.3v820.4v821.5h-148.9h-148.9v474.2v474.2h148.9h148.9V5936v198.5h146.7H9120v650.6v650.6
		h-206.2h-207.3v187.5v187.5h-204h-202.9v223.8v222.7h-703.5h-703.5v-223.8v-222.7h-229.4h-229.4l3.3-187.5l3.3-187.5h-1353H3733.4
		v187.5v187.5h-204h-204v226.1v226.1h-650.6h-650.6V8036.6z"/>
	<path d="M3051.9,5505.9l3.3-209.5H2838h-218.3v-727.8v-727.8h468.6h468.6v159.9v158.8l167.6,3.3l168.7,3.3l-4.4,165.4
		c-1.1,91.5-5.5,168.7-8.8,174.2c-2.2,4.4-101.4,7.7-219.4,7.7h-213.9v231.6v231.6h224.9h224.9l-4.4-224.9
		c-4.4-183-2.2-226.1,11-237.1c9.9-8.8,68.4-12.1,187.5-9.9l173.1,3.3v601l-1.1,601l-606.5,3.3l-607.6,2.2L3051.9,5505.9z"/>
	<path d="M5982.9,5109v-606.5l185.3,2.2l184.1,3.3l3.3,234.9l2.2,233.8h204h204v-231.6v-231.6l-195.2-2.2l-196.3-3.3l-3.3-173.1
		l-3.3-174.2h200.7H6768l-4.4-159.9l-3.3-159.9h399.2h400.3v727.8v727.8h-209.5h-209.5v209.5v209.5h-578.9h-578.9V5109z"/>
	<path d="M4505.3,4111v-270.2h198.5h198.5v-248.1v-248.1h-369.4h-369.4v-193v-193h920.7h920.7v193v193h-380.4h-380.4v248.1v248.1
		h220.5h220.5V4111v270.2h-589.9h-589.9V4111z"/>
	<path d="M2156.5,2545.2v-181.9h303.2H2763v-193v-193h2381.8h2381.8v193v193h259.1h259.1v181.9v181.9h-463.1h-463.1v-198.5v-198.5
		H5100.7H3082.8v198.5v198.5h-463.1h-463.1V2545.2z"/>
</g>
</svg>
