<?xml version="1.0" standalone="no"?>
<!DOCTYPE svg PUBLIC "-//W3C//DTD SVG 20010904//EN"
 "http://www.w3.org/TR/2001/REC-SVG-20010904/DTD/svg10.dtd">
<svg version="1.0" xmlns="http://www.w3.org/2000/svg"
 width="1024.000000pt" height="1024.000000pt" viewBox="0 0 1024.000000 1024.000000"
 preserveAspectRatio="xMidYMid meet">

<g transform="translate(0.000000,1024.000000) scale(0.100000,-0.100000)"
fill="#000000" stroke="none">
<path d="M2370 7935 l0 -205 -230 0 -230 0 0 -170 0 -170 -180 0 -180 0 0
-590 0 -590 180 0 180 0 0 -180 0 -180 90 0 90 0 0 -430 0 -430 -150 0 -150 0
0 -745 0 -745 155 0 155 0 0 -185 0 -185 195 0 195 0 0 185 0 185 -185 0 -185
0 0 615 0 615 140 0 140 0 0 560 0 560 155 0 155 0 0 180 0 180 170 0 170 0 0
195 0 196 240 -3 240 -3 0 198 0 197 1625 0 1625 0 2 -196 3 -196 218 2 217 1
0 -196 0 -195 195 0 195 0 0 -180 0 -180 170 0 170 0 0 -561 0 -560 135 3 135
3 0 -617 0 -618 -195 0 -195 0 0 -185 0 -185 195 0 195 0 2 183 3 182 158 3
157 3 0 744 0 745 -135 0 -135 0 0 430 0 430 135 0 135 0 0 180 0 180 133 0
132 0 0 590 0 590 -187 0 -188 0 0 170 0 170 -185 0 -184 0 0 203 0 202 -638
0 -638 0 0 -203 0 -202 -208 0 -208 0 3 -170 3 -170 -1227 0 -1228 0 0 170 0
170 -185 0 -185 0 0 205 0 205 -590 0 -590 0 0 -205z"/>
<path d="M3302 5640 l3 -190 -197 0 -198 0 0 -660 0 -660 425 0 425 0 0 145 0
144 152 3 153 3 -4 150 c-1 83 -5 153 -8 158 -2 4 -92 7 -199 7 l-194 0 0 210
0 210 204 0 204 0 -4 -204 c-4 -166 -2 -205 10 -215 9 -8 62 -11 170 -9 l157
3 0 545 -1 545 -550 3 -551 2 3 -190z"/>
<path d="M5960 5280 l0 -550 168 2 167 3 3 213 2 212 185 0 185 0 0 -210 0
-210 -177 -2 -178 -3 -3 -157 -3 -158 182 0 181 0 -4 -145 -3 -145 362 0 363
0 0 660 0 660 -190 0 -190 0 0 190 0 190 -525 0 -525 0 0 -550z"/>
<path d="M4620 4375 l0 -245 180 0 180 0 0 -225 0 -225 -335 0 -335 0 0 -175
0 -175 835 0 835 0 0 175 0 175 -345 0 -345 0 0 225 0 225 200 0 200 0 0 245
0 245 -535 0 -535 0 0 -245z"/>
<path d="M2490 2955 l0 -165 275 0 275 0 0 -175 0 -175 2160 0 2160 0 0 175 0
175 235 0 235 0 0 165 0 165 -420 0 -420 0 0 -180 0 -180 -1830 0 -1830 0 0
180 0 180 -420 0 -420 0 0 -165z"/>
</g>
</svg>
