<?xml version="1.0" standalone="no"?>
<!DOCTYPE svg PUBLIC "-//W3C//DTD SVG 20010904//EN"
 "http://www.w3.org/TR/2001/REC-SVG-20010904/DTD/svg10.dtd">
<svg version="1.0" xmlns="http://www.w3.org/2000/svg"
 width="1024.000000pt" height="1024.000000pt" viewBox="0 0 1024.000000 1024.000000"
 preserveAspectRatio="xMidYMid meet">

<g transform="translate(0.000000,1024.000000) scale(0.100000,-0.100000)"
fill="#000000" stroke="none">
<path d="M3060 8335 l0 -165 -205 0 -205 0 0 -1370 0 -1370 -175 0 -175 0 0
-495 0 -495 -185 0 -185 0 0 -725 0 -725 190 0 190 0 0 -245 0 -245 253 0 252
0 -3 -225 -3 -225 2330 0 2331 0 0 225 0 225 245 0 245 0 0 245 0 245 178 2
177 3 3 723 2 722 -170 0 -170 0 0 495 0 495 -144 0 -145 0 -3 93 c-2 50 -3
667 -3 1369 l0 1278 -207 0 -208 0 0 165 0 165 -495 0 -495 0 0 -165 0 -165
-185 0 -185 0 0 -1125 0 -1125 -750 0 -750 0 0 1125 0 1125 -175 0 -175 0 0
165 0 165 -500 0 -500 0 0 -165z m657 139 c-3 -3 -12 -4 -19 -1 -8 3 -5 6 6 6
11 1 17 -2 13 -5z m2220 -346 c-3 -8 -6 -5 -6 6 -1 11 2 17 5 13 3 -3 4 -12 1
-19z m-1949 -1456 l-3 -1097 1173 -3 1172 -2 0 1102 0 1103 370 0 370 0 0
-1172 0 -1173 150 0 150 0 0 -280 0 -281 148 2 147 1 0 -823 0 -824 -173 0
-172 0 0 -110 c0 -60 -3 -140 -7 -178 l-6 -67 -193 0 -194 0 0 -230 0 -230
-1780 0 -1780 0 0 230 0 230 -210 0 -210 0 0 175 0 175 -160 0 -160 0 0 828 0
827 175 -3 175 -3 0 281 0 280 140 0 140 0 0 1170 0 1170 363 2 c199 2 366 2
370 0 4 -2 6 -497 5 -1100z m2319 -534 c-1 -304 -2 -58 -2 547 0 605 1 854 2
553 2 -300 2 -795 0 -1100z m-370 1325 c-3 -10 -5 -4 -5 12 0 17 2 24 5 18 2
-7 2 -21 0 -30z m0 -250 c-3 -10 -5 -2 -5 17 0 19 2 27 5 18 2 -10 2 -26 0
-35z m1730 5 c-3 -7 -5 -2 -5 12 0 14 2 19 5 13 2 -7 2 -19 0 -25z m-1730
-100 c-3 -8 -6 -5 -6 6 -1 11 2 17 5 13 3 -3 4 -12 1 -19z m0 -110 c-2 -18 -4
-4 -4 32 0 36 2 50 4 33 2 -18 2 -48 0 -65z m0 -110 c-2 -13 -4 -3 -4 22 0 25
2 35 4 23 2 -13 2 -33 0 -45z m0 -80 c-2 -13 -4 -5 -4 17 -1 22 1 32 4 23 2
-10 2 -28 0 -40z m0 -75 c-3 -10 -5 -4 -5 12 0 17 2 24 5 18 2 -7 2 -21 0 -30z
m0 -65 c-3 -8 -6 -5 -6 6 -1 11 2 17 5 13 3 -3 4 -12 1 -19z m0 -285 c-1 -49
-3 -9 -3 87 0 96 2 136 3 88 2 -49 2 -127 0 -175z m-1550 180 c-3 -10 -5 -4
-5 12 0 17 2 24 5 18 2 -7 2 -21 0 -30z m1550 -310 c-3 -10 -5 -4 -5 12 0 17
2 24 5 18 2 -7 2 -21 0 -30z m1730 -90 c-3 -10 -5 -4 -5 12 0 17 2 24 5 18 2
-7 2 -21 0 -30z m-1730 -70 c-3 -10 -5 -4 -5 12 0 17 2 24 5 18 2 -7 2 -21 0
-30z m0 -175 c-3 -8 -6 -5 -6 6 -1 11 2 17 5 13 3 -3 4 -12 1 -19z m-1894
-335 c-7 -2 -21 -2 -30 0 -10 3 -4 5 12 5 17 0 24 -2 18 -5z m1689 0 c-303 -2
-801 -2 -1105 0 -303 1 -55 2 553 2 608 0 856 -1 552 -2z m-2685 -139 c-3 -3
-12 -4 -19 -1 -8 3 -5 6 6 6 11 1 17 -2 13 -5z m180 0 c-3 -3 -12 -4 -19 -1
-8 3 -5 6 6 6 11 1 17 -2 13 -5z m-280 -66 c-2 -13 -4 -5 -4 17 -1 22 1 32 4
23 2 -10 2 -28 0 -40z m0 -130 c-3 -8 -6 -5 -6 6 -1 11 2 17 5 13 3 -3 4 -12
1 -19z m0 -55 c-3 -10 -5 -4 -5 12 0 17 2 24 5 18 2 -7 2 -21 0 -30z m0 -55
c-3 -7 -5 -2 -5 12 0 14 2 19 5 13 2 -7 2 -19 0 -25z m5106 -2135 c-7 -2 -19
-2 -25 0 -7 3 -2 5 12 5 14 0 19 -2 13 -5z m244 1 c-3 -3 -12 -4 -19 -1 -8 3
-5 6 6 6 11 1 17 -2 13 -5z m-960 -76 c-3 -8 -6 -5 -6 6 -1 11 2 17 5 13 3 -3
4 -12 1 -19z m-4409 -865 c-16 -2 -40 -2 -55 0 -16 2 -3 4 27 4 30 0 43 -2 28
-4z m750 0 c-130 -2 -346 -2 -480 0 -134 1 -27 2 237 2 264 0 373 -1 243 -2z
m350 0 c-21 -2 -55 -2 -75 0 -21 2 -4 4 37 4 41 0 58 -2 38 -4z m700 0 c-119
-2 -317 -2 -440 0 -123 1 -25 2 217 2 242 0 342 -1 223 -2z m280 0 c-10 -2
-28 -2 -40 0 -13 2 -5 4 17 4 22 1 32 -1 23 -4z m90 0 c-10 -2 -28 -2 -40 0
-13 2 -5 4 17 4 22 1 32 -1 23 -4z m70 0 c-10 -2 -26 -2 -35 0 -10 3 -2 5 17
5 19 0 27 -2 18 -5z m140 0 c-21 -2 -55 -2 -75 0 -21 2 -4 4 37 4 41 0 58 -2
38 -4z m165 0 c-24 -2 -62 -2 -85 0 -24 2 -5 4 42 4 47 0 66 -2 43 -4z m335 0
c-54 -2 -142 -2 -195 0 -54 1 -10 3 97 3 107 0 151 -2 98 -3z m400 0 c-53 -2
-143 -2 -200 0 -57 1 -13 3 97 3 110 0 156 -2 103 -3z m460 0 c-64 -2 -172 -2
-240 0 -68 1 -15 3 117 3 132 0 187 -2 123 -3z m175 0 c-7 -2 -21 -2 -30 0
-10 3 -4 5 12 5 17 0 24 -2 18 -5z m85 0 c-10 -2 -26 -2 -35 0 -10 3 -2 5 17
5 19 0 27 -2 18 -5z m140 0 c-21 -2 -55 -2 -75 0 -21 2 -4 4 37 4 41 0 58 -2
38 -4z m95 0 c-7 -2 -21 -2 -30 0 -10 3 -4 5 12 5 17 0 24 -2 18 -5z"/>
<path d="M3630 4305 l0 -325 260 0 260 0 0 325 0 325 -260 0 -260 0 0 -325z"/>
<path d="M6090 4305 l0 -325 265 0 265 0 0 325 0 325 -265 0 -265 0 0 -325z"/>
<path d="M4630 3785 l0 -175 151 0 151 0 -4 -192 -3 -193 -257 -3 -258 -2 0
-173 0 -172 262 2 263 3 3 55 3 55 174 0 174 0 3 -55 3 -56 265 0 265 0 0 171
0 171 -263 -1 -262 -1 2 197 3 196 153 -1 152 -2 0 176 0 175 -490 0 -490 0 0
-175z m728 -152 c-10 -2 -26 -2 -35 0 -10 3 -2 5 17 5 19 0 27 -2 18 -5z m-71
-105 c-3 -8 -6 -5 -6 6 -1 11 2 17 5 13 3 -3 4 -12 1 -19z m-330 -514 c-3 -3
-12 -4 -19 -1 -8 3 -5 6 6 6 11 1 17 -2 13 -5z"/>
</g>
</svg>
