<?xml version="1.0" encoding="utf-8"?>
<!-- Generator: Adobe Illustrator 30.1.0, SVG Export Plug-In . SVG Version: 9.03 Build 0)  -->
<svg version="1.0" id="레이어_1" xmlns="http://www.w3.org/2000/svg" xmlns:xlink="http://www.w3.org/1999/xlink" x="0px"
	 y="0px" viewBox="0 0 1024 1024" style="enable-background:new 0 0 1024 1024;" xml:space="preserve">
<path d="M890.7,616.5h-21.3v-62v-62h-18h-18.2l-0.4-11.6c-0.3-6.3-0.4-83.5-0.4-171.4v-160h-25.9h-26v-20.7v-20.7h-62h-62v20.7v20.7
	h-23.2h-23.2v140.8v140.8h-93.9h-93.9V290.4V149.6h-21.9h-21.9v-20.7v-20.7h-62.6h-62.6v20.7v20.7h-25.7h-25.7v171.5v171.5h-21.9
	h-21.9v62v62h-23.2H112v90.8v90.8h23.8h23.8v30.7v30.7h31.7h31.5l-0.4,28.2l-0.4,28.2h291.7h291.8v-28.2v-28.2h30.7h30.7v-30.7
	v-30.7l22.3-0.3l22.2-0.4l0.4-90.5l0.3-90.4H890.7z M389.9,657.2v40.7h-32.6h-32.6v-40.7v-40.7h32.6h32.6V657.2z M600.6,814.3v21.4
	h-33.2h-33.2l-0.4-7l-0.4-6.9h-21.8h-21.8l-0.4,6.9l-0.4,6.9l-32.9,0.4l-32.8,0.3v-21.5V793l32.3-0.3l32.2-0.4l0.4-24.2l0.5-24
	h-18.9H451v-21.9v-21.9h61.3h61.3v21.9v22l-19-0.3l-19.2-0.1l-0.4,24.5l-0.3,24.7l32.8-0.1l32.9-0.1V814.3z M699.2,657.2v40.7H666
	h-33.2v-40.7v-40.7H666h33.2V657.2z"/>
</svg>
