<?xml version="1.0" encoding="utf-8"?>
<!-- Generator: Adobe Illustrator 30.1.0, SVG Export Plug-In . SVG Version: 9.03 Build 0)  -->
<svg version="1.0" id="레이어_1" xmlns="http://www.w3.org/2000/svg" xmlns:xlink="http://www.w3.org/1999/xlink" x="0px"
	 y="0px" viewBox="0 0 1024 1024" style="enable-background:new 0 0 1024 1024;" xml:space="preserve">
<path d="M448.7,280.4h42.1v84.2H533v42.1h42.1v42.1h42.1V491h42.1v42.1h42.1v42.1h84.2v42.1h42.1v42.1H912v42.1h-42.1v42.1h-94.7
	v-42.1h-73.6v-42.1h-42.1v42.1h-42.1v84.2h-84.2v-42.1h42.1v-42.1H491v84.2h-84.2v-42.1H449v-42.1h-42.1v-42.1h-42.1v-42.1h-42.1
	v-42.1h-42.1V448.7H112v-84.2h42.1v-42.1h42.1v-42.1h84.2v-42.1h168.4L448.7,280.4L448.7,280.4z M490.8,617.1h126.3V575H490.8V617.1
	z M448.7,575.1h42.1v-42.1h-42.1V575.1z M406.7,532.9h42.1v-42.1h-42.1V532.9z M196.2,406.7h84.2v-42.1h-84.2L196.2,406.7
	L196.2,406.7z M322.4,364.6h42.1v-42.1h-42.1V364.6z"/>
</svg>
