<?xml version="1.0" standalone="no"?>
<!DOCTYPE svg PUBLIC "-//W3C//DTD SVG 20010904//EN"
 "http://www.w3.org/TR/2001/REC-SVG-20010904/DTD/svg10.dtd">
<svg version="1.0" xmlns="http://www.w3.org/2000/svg"
 width="1024.000000pt" height="1024.000000pt" viewBox="0 0 1024.000000 1024.000000"
 preserveAspectRatio="xMidYMid meet">

<g transform="translate(0.000000,1024.000000) scale(0.100000,-0.100000)"
fill="#000000" stroke="none">
<path d="M2180 7870 l0 -170 -147 0 -148 0 2 -662 c2 -365 3 -666 3 -670 0 -5
65 -8 145 -8 l145 0 0 -135 0 -135 -120 0 -120 0 0 -395 0 -395 -140 0 -140 0
0 -774 0 -774 145 4 145 3 0 -215 0 -214 180 0 180 0 0 -170 0 -170 205 0 205
0 0 -165 0 -165 525 0 525 0 0 -142 0 -143 1347 2 1348 3 3 140 3 140 512 0
512 0 -3 165 -3 165 205 0 206 0 0 170 0 170 190 0 190 0 2 212 3 212 167 0
168 1 0 773 0 772 -130 0 -130 0 0 360 0 360 -118 0 -117 0 -3 170 -2 170 120
0 120 0 0 670 0 670 -155 0 -155 0 0 170 0 170 -587 -2 -588 -3 0 -167 0 -168
-182 0 -183 0 0 -135 0 -135 -1395 0 -1395 0 0 135 0 135 -165 0 -165 0 0 170
0 170 -605 0 -605 0 0 -170z m800 -405 l0 -185 165 0 165 0 0 -260 0 -260 255
0 255 0 0 135 0 135 503 0 502 0 0 -150 0 -150 -297 0 -298 0 0 -185 0 -185
298 0 297 0 -3 -110 -3 -111 -137 2 c-95 1 -137 -2 -136 -10 1 -6 2 -82 2
-168 l2 -158 560 3 560 2 0 165 0 165 -140 0 -140 0 0 110 0 110 270 2 271 3
3 183 3 182 -273 0 -274 0 0 150 0 150 500 0 500 0 0 -135 0 -135 255 0 255 0
0 260 0 260 165 0 165 0 0 185 0 185 200 0 200 0 0 -185 0 -185 120 0 120 0 0
-281 0 -280 -117 2 -118 3 -3 -177 -2 -177 -195 0 -195 0 0 -190 0 -190 315 0
315 0 0 -200 0 -200 -332 -2 -333 -3 -1 -172 -2 -173 414 0 414 0 0 -165 0
-165 -260 0 -260 0 0 -185 0 -185 225 0 225 0 0 -215 0 -215 -360 0 -360 0 0
-177 0 -178 248 0 247 -1 3 -147 3 -147 -331 0 -330 0 0 -155 0 -155 -455 0
-455 0 0 -160 0 -160 -1015 0 -1015 0 0 160 0 160 -512 0 -513 0 3 155 3 155
-275 0 -276 0 0 148 0 148 268 -1 267 0 3 178 2 177 -440 0 -440 0 0 215 0
215 275 0 275 0 0 185 0 185 -270 0 -270 0 0 165 0 165 430 0 430 0 0 175 0
175 -330 0 -330 0 0 200 0 200 265 0 265 0 0 190 0 190 -185 0 -185 0 0 178 0
177 -80 -3 -80 -4 0 281 0 281 80 0 80 0 0 185 0 185 190 0 190 0 0 -185z
m437 -4781 c-3 -3 -12 -4 -19 -1 -8 3 -5 6 6 6 11 1 17 -2 13 -5z"/>
<path d="M3510 5150 l0 -360 305 0 305 0 0 360 0 360 -305 0 -305 0 0 -360z"/>
<path d="M6190 5150 l0 -360 265 0 265 0 0 350 c0 193 0 353 0 358 0 4 -119 8
-265 10 l-265 2 0 -360z m517 -336 c-3 -3 -12 -4 -19 -1 -8 3 -5 6 6 6 11 1
17 -2 13 -5z"/>
<path d="M4550 4535 l0 -245 195 0 195 0 0 -255 0 -255 -301 -2 -302 -3 -2
-183 -2 -182 801 2 801 3 3 183 2 182 -310 0 -310 0 0 255 0 255 175 0 175 0
0 245 0 245 -560 0 -560 0 0 -245z"/>
</g>
</svg>
