<?xml version="1.0" encoding="utf-8"?>
<!-- Generator: Adobe Illustrator 30.1.0, SVG Export Plug-In . SVG Version: 9.03 Build 0)  -->
<svg version="1.0" id="레이어_1" xmlns="http://www.w3.org/2000/svg" xmlns:xlink="http://www.w3.org/1999/xlink" x="0px"
	 y="0px" viewBox="0 0 1024 1024" style="enable-background:new 0 0 1024 1024;" xml:space="preserve">
<g transform="translate(0.000000,1024.000000) scale(0.100000,-0.100000)">
	<path d="M1717.7,8180.3v-195.4h-169h-170.1l2.3-760.9c2.3-419.5,3.4-765.5,3.4-770.1c0-5.7,74.7-9.2,166.7-9.2h166.7v-155.2v-155.2
		h-137.9h-137.9v-454v-454h-160.9H1120v-889.7V3447l166.7,4.6l166.7,3.4v-247.1v-246h206.9h206.9v-195.4v-195.4h235.6h235.6v-189.7
		v-189.7h603.4h603.4v-163.2v-164.4l1548.3,2.3L6643,1870l3.4,160.9l3.4,160.9h588.5h588.5l-3.4,189.7l-3.4,189.7h235.6h236.8v195.4
		V2962h218.4h218.4l2.3,243.7l3.4,243.7h192l193.1,1.1V4339v887.4h-149.4h-149.4v413.8v413.8h-135.6H8551l-3.4,195.4l-2.3,195.4
		h137.9h137.9v770.1v770.1H8643h-178.2v195.4v195.4l-674.7-2.3l-675.9-3.4v-192v-193.1h-209.2h-210.3v-155.2v-155.2H5091.3H3487.8
		v155.2v155.2h-189.7h-189.7v195.4v195.4h-695.4h-695.4V8180.3z M2637.2,7714.8v-212.6h189.7h189.7v-298.9v-298.9h293.1h293.1v155.2
		v155.2h578.2h577v-172.4V6870h-341.4H4074v-212.6v-212.6h342.5h341.4l-3.4-126.4l-3.4-127.6l-157.5,2.3
		c-109.2,1.1-157.5-2.3-156.3-11.5c1.1-6.9,2.3-94.3,2.3-193.1l2.3-181.6l643.7,3.4l643.7,2.3v189.7v189.7h-160.9h-160.9v126.4
		v126.4l310.3,2.3l311.5,3.4l3.4,210.3l3.4,209.2h-313.8h-314.9v172.4v172.4h574.7h574.7v-155.2v-155.2h293.1H7143v298.9v298.9
		h189.7h189.7v212.6v212.6h229.9h229.9v-212.6v-212.6H8120h137.9v-323v-321.8l-134.5,2.3l-135.6,3.4l-3.4-203.4l-2.3-203.4h-224.1
		h-224.1v-218.4v-218.4h362.1h362.1v-229.9v-229.9l-381.6-2.3l-382.8-3.4l-1.1-197.7l-2.3-198.9H7966h475.9v-189.7V4778H8143h-298.9
		v-212.6v-212.6h258.6h258.6v-247.1v-247.1h-413.8h-413.8v-203.4v-204.6h285.1l283.9-1.1l3.4-169l3.4-169h-380.5h-379.3v-178.2
		v-178.2h-523h-523v-183.9v-183.9H5137.2H3970.6v183.9v183.9h-588.5h-589.7l3.4,178.2l3.4,178.2h-316.1H2166v170.1v170.1l308-1.1
		h306.9l3.4,204.6l2.3,203.4h-505.7h-505.7v247.1v247.1h316.1h316.1v212.6V4778H2097h-310.3v189.7v189.7h494.3h494.3v201.1v201.1
		h-379.3h-379.3v229.9v229.9h304.6h304.6v218.4v218.4h-212.6h-212.6v204.6v203.4l-92-3.4l-92-4.6v323v323h92h92v212.6v212.6h218.4
		h218.4V7714.8z"/>
	<path d="M3246.4,5053.9v-413.8H3597h350.6v413.8v413.8H3597h-350.6V5053.9z"/>
	<path d="M6326.9,5053.9v-413.8h304.6h304.6v402.3c0,221.8,0,405.7,0,411.5c0,4.6-136.8,9.2-304.6,11.5l-304.6,2.3V5053.9z"/>
	<path d="M4441.8,4347v-281.6H4666h224.1v-293.1v-293.1l-346-2.3l-347.1-3.4l-2.3-210.3l-2.3-209.2l920.7,2.3l920.7,3.4l3.4,210.3
		l2.3,209.2h-356.3h-356.3v293.1v293.1H5528h201.1V4347v281.6h-643.7h-643.7V4347z"/>
</g>
</svg>
