<?xml version="1.0" encoding="utf-8"?>
<!-- Generator: Adobe Illustrator 30.1.0, SVG Export Plug-In . SVG Version: 9.03 Build 0)  -->
<svg version="1.0" id="레이어_1" xmlns="http://www.w3.org/2000/svg" xmlns:xlink="http://www.w3.org/1999/xlink" x="0px"
	 y="0px" viewBox="0 0 1024 1024" style="enable-background:new 0 0 1024 1024;" xml:space="preserve">
<g transform="translate(0.000000,1024.000000) scale(0.100000,-0.100000)">
	<path d="M2531.8,8829.6v-240.3l-232.3-2l-233.3-3l-3-1744.2l-2-1745.2h-240.3h-240.3v-265.3v-265.3h-230.3H1120V4314v-250.3h230.3
		h230.3v-235.3v-235.3h-230.3H1120v-250.3v-250.3h470.6h470.6l2-242.3l3-243.3l355.4-5c274.3-4,355.4-8,356.4-17
		c1-7,2-114.1,3-238.3l1-225.3h210.3h210.3V1881v-240.3h230.3h230.3v-235.3v-235.3H5135h1471.8v235.3v235.3h220.3h220.3V1881v240.3
		h220.3H7488v240.3v240.3h348.4h347.4l-3,245.3l-3,245.3h470.6H9120v250.3v250.3h-232.3h-233.3v235.3v235.3h233.3H9120V4314v250.3
		h-235.3h-235.3v265.3V5095h-235.3h-235.3v1748.2v1747.2l-222.3-1c-123.2-1-230.3-1-238.3-1c-13,1-15,33-12,241.3l3,240.3h-325.4
		h-326.4l-2-241.3l-3-240.3l-227.3,1l-228.3,1V8329v-260.3h-243.3h-243.3v-47.1c1-27,0-144.2-2-260.3l-2-213.3H5130h-976.2v260.3
		v260.3h-255.3h-255.3V8329v260.3h-230.3h-230.3v240.3v240.3h-325.4h-325.4V8829.6z M3182.6,7803.4V7548h240.3h240.3v-480.6v-480.6
		l-557.7,2l-558.7,3l-3,733.9l-2,732.9h320.4h320.4V7803.4z M7698.2,7322.8v-735.9h-550.7h-550.7l-2,480.6l-3,480.6h233.3h232.3
		v255.3v255.3h320.4h320.4V7322.8z M4148.8,5837.9v-242.3h238.3h237.3v-766v-766l510.6,2l510.6,3v764v763h230.3h231.3l-1,243.3
		l-1,242.3h473.6l473.6-1l3-242.3l2-242.3h-230.3h-230.3l2-242.3l3-243.3l228.3-3l228.3-2l-3-260.3l-3-260.3h558.7h557.7v-495.6
		v-495.6h-235.3h-235.3v-255.3v-255.3l-321.4-2l-320.4-3l-2-238.3l-2-238.3l-215.3-2l-215.3-2v-228.3v-227.3H5143H3663.2v231.3
		v230.3l-235.3-3l-235.3-3v243.3v242.3h-315.4h-316.4l3,255.3l3,255.3h-253.3h-252.3l2,493.6l3,492.6l563.7,3l562.7,2v260.3V5105
		h230.3h230.3v245.3v245.3h-230.3h-230.3v238.3c0,131.2,2,241.3,4,243.3c3,2,218.3,4,478.6,4h473.6V5837.9z"/>
	<path d="M3663.2,4589.3c0-278.3-1-508.6-2-512.6c-2-5,110.1-9,248.3-11l252.3-2l-5,512.6l-5,513.6l-244.3,3l-244.3,2V4589.3z"/>
	<path d="M6106.2,4579.3v-515.6h246.3h245.3l-3,483.6c-1,265.3-4,497.6-6,515.6l-4,32h-239.3h-239.3V4579.3z"/>
	<path d="M4624.4,3234.6v-358.4l510.6-1h510.6v359.4v358.4H5135h-510.6V3234.6z"/>
</g>
</svg>
