<?xml version="1.0" standalone="no"?>
<!DOCTYPE svg PUBLIC "-//W3C//DTD SVG 20010904//EN"
 "http://www.w3.org/TR/2001/REC-SVG-20010904/DTD/svg10.dtd">
<svg version="1.0" xmlns="http://www.w3.org/2000/svg"
 width="1024.000000pt" height="1024.000000pt" viewBox="0 0 1024.000000 1024.000000"
 preserveAspectRatio="xMidYMid meet">

<g transform="translate(0.000000,1024.000000) scale(0.100000,-0.100000)"
fill="#000000" stroke="none">
<path d="M2540 8580 l0 -240 -232 -2 -233 -3 -3 -1742 -2 -1743 -240 0 -240 0
0 -265 0 -265 -230 0 -230 0 0 -250 0 -250 230 0 230 0 0 -235 0 -235 -230 0
-230 0 0 -250 0 -250 470 0 470 0 2 -242 3 -243 355 -5 c274 -4 355 -8 356
-17 1 -7 2 -114 3 -238 l1 -225 210 0 210 0 0 -240 0 -240 230 0 230 0 0 -235
0 -235 1470 0 1470 0 0 235 0 235 220 0 220 0 0 240 0 240 220 0 220 0 0 240
0 240 348 0 347 0 -3 245 -3 245 470 0 471 0 0 250 0 250 -232 0 -233 0 0 235
0 235 233 0 232 0 0 250 0 250 -235 0 -235 0 0 265 0 265 -235 0 -235 0 0
1746 0 1745 -222 -1 c-123 -1 -230 -1 -238 -1 -13 1 -15 33 -12 241 l3 240
-325 0 -326 0 -2 -241 -3 -240 -227 1 -228 1 0 -261 0 -260 -243 0 -243 0 0
-47 c1 -27 0 -144 -2 -260 l-2 -213 -975 0 -975 0 0 260 0 260 -255 0 -255 0
0 260 0 260 -230 0 -230 0 0 240 0 240 -325 0 -325 0 0 -240z m5147 138 c-3
-8 -6 -5 -6 6 -1 11 2 17 5 13 3 -3 4 -12 1 -19z m0 -55 c-3 -10 -5 -4 -5 12
0 17 2 24 5 18 2 -7 2 -21 0 -30z m0 -255 c-2 -29 -3 -6 -3 52 0 58 1 81 3 53
2 -29 2 -77 0 -105z m480 -485 c-3 -10 -5 -4 -5 12 0 17 2 24 5 18 2 -7 2 -21
0 -30z m0 -70 c-3 -10 -5 -2 -5 17 0 19 2 27 5 18 2 -10 2 -26 0 -35z m-5479
-20 c-21 -2 -55 -2 -75 0 -21 2 -4 4 37 4 41 0 58 -2 38 -4z m85 0 c-7 -2 -21
-2 -30 0 -10 3 -4 5 12 5 17 0 24 -2 18 -5z m145 0 c-10 -2 -28 -2 -40 0 -13
2 -5 4 17 4 22 1 32 -1 23 -4z m90 0 c-10 -2 -28 -2 -40 0 -13 2 -5 4 17 4 22
1 32 -1 23 -4z m95 0 c-13 -2 -35 -2 -50 0 -16 2 -5 4 22 4 28 0 40 -2 28 -4z
m4055 0 c-10 -2 -26 -2 -35 0 -10 3 -2 5 17 5 19 0 27 -2 18 -5z m49 1 c-3 -3
-12 -4 -19 -1 -8 3 -5 6 6 6 11 1 17 -2 13 -5z m121 -1 c-10 -2 -28 -2 -40 0
-13 2 -5 4 17 4 22 1 32 -1 23 -4z m250 0 c-43 -2 -113 -2 -155 0 -43 1 -8 3
77 3 85 0 120 -2 78 -3z m-4388 -278 l0 -255 240 0 240 0 0 -480 0 -480 -557
2 -558 3 -3 733 -2 732 320 0 320 0 0 -255z m4510 -480 l0 -735 -550 0 -550 0
-2 480 -3 480 233 0 232 0 0 255 0 255 320 0 320 0 0 -735z m-3892 718 c-10
-2 -26 -2 -35 0 -10 3 -2 5 17 5 19 0 27 -2 18 -5z m4359 -15 c-3 -8 -6 -5 -6
6 -1 11 2 17 5 13 3 -3 4 -12 1 -19z m0 -80 c-3 -8 -6 -5 -6 6 -1 11 2 17 5
13 3 -3 4 -12 1 -19z m0 -90 c-3 -7 -5 -2 -5 12 0 14 2 19 5 13 2 -7 2 -19 0
-25z m0 -70 c-3 -8 -6 -5 -6 6 -1 11 2 17 5 13 3 -3 4 -12 1 -19z m-440 -130
c-3 -8 -6 -5 -6 6 -1 11 2 17 5 13 3 -3 4 -12 1 -19z m440 -30 c-3 -8 -6 -5
-6 6 -1 11 2 17 5 13 3 -3 4 -12 1 -19z m0 -85 c-3 -10 -5 -2 -5 17 0 19 2 27
5 18 2 -10 2 -26 0 -35z m0 -95 c-3 -8 -6 -5 -6 6 -1 11 2 17 5 13 3 -3 4 -12
1 -19z m-440 -20 c-3 -8 -6 -5 -6 6 -1 11 2 17 5 13 3 -3 4 -12 1 -19z m440
-50 c-3 -7 -5 -2 -5 12 0 14 2 19 5 13 2 -7 2 -19 0 -25z m-440 -30 c-3 -7 -5
-2 -5 12 0 14 2 19 5 13 2 -7 2 -19 0 -25z m440 -50 c-3 -7 -5 -2 -5 12 0 14
2 19 5 13 2 -7 2 -19 0 -25z m-440 -80 c-3 -8 -6 -5 -6 6 -1 11 2 17 5 13 3
-3 4 -12 1 -19z m440 -65 c-3 -10 -5 -4 -5 12 0 17 2 24 5 18 2 -7 2 -21 0
-30z m0 -85 c-3 -8 -6 -5 -6 6 -1 11 2 17 5 13 3 -3 4 -12 1 -19z m-440 -165
c-2 -16 -4 -3 -4 27 0 30 2 43 4 28 2 -16 2 -40 0 -55z m440 -80 c-3 -10 -5
-2 -5 17 0 19 2 27 5 18 2 -10 2 -26 0 -35z m-440 -130 c-3 -10 -5 -4 -5 12 0
17 2 24 5 18 2 -7 2 -21 0 -30z m0 -80 c-3 -10 -5 -2 -5 17 0 19 2 27 5 18 2
-10 2 -26 0 -35z m-3572 -771 l0 -242 238 0 237 0 0 -765 0 -765 510 2 510 3
0 763 0 762 230 0 231 0 -1 243 -1 242 473 0 473 -1 3 -242 2 -242 -230 0
-230 0 2 -242 3 -243 228 -3 228 -2 -3 -260 -3 -260 558 0 557 0 0 -495 0
-495 -235 0 -235 0 0 -255 0 -255 -321 -2 -320 -3 -2 -238 -2 -238 -215 -2
-215 -2 0 -228 0 -227 -1477 0 -1478 0 0 231 0 230 -235 -3 -235 -3 0 243 0
242 -315 0 -316 0 3 255 3 255 -253 0 -252 0 2 493 3 492 563 3 562 2 0 260 0
260 230 0 230 0 0 245 0 245 -230 0 -230 0 0 238 c0 131 2 241 4 243 3 2 218
4 478 4 l473 0 0 -243z m4012 96 c-3 -7 -5 -2 -5 12 0 14 2 19 5 13 2 -7 2
-19 0 -25z m0 -75 c-3 -10 -5 -2 -5 17 0 19 2 27 5 18 2 -10 2 -26 0 -35z m0
-155 c-3 -8 -6 -5 -6 6 -1 11 2 17 5 13 3 -3 4 -12 1 -19z m0 -75 c-3 -10 -5
-4 -5 12 0 17 2 24 5 18 2 -7 2 -21 0 -30z m0 -95 c-2 -13 -4 -5 -4 17 -1 22
1 32 4 23 2 -10 2 -28 0 -40z m0 -80 c-2 -13 -4 -5 -4 17 -1 22 1 32 4 23 2
-10 2 -28 0 -40z m0 -80 c-2 -13 -4 -5 -4 17 -1 22 1 32 4 23 2 -10 2 -28 0
-40z m0 -145 c-2 -21 -4 -6 -4 32 0 39 2 55 4 38 2 -18 2 -50 0 -70z m0 -80
c-3 -10 -5 -4 -5 12 0 17 2 24 5 18 2 -7 2 -21 0 -30z m-6777 -2033 c0 -5 -2
-10 -4 -10 -3 0 -8 5 -11 10 -3 6 -1 10 4 10 6 0 11 -4 11 -10z m111 -3 c-5
-5 -17 -5 -28 2 -16 9 -15 10 9 9 16 -2 24 -6 19 -11z m132 6 c-7 -2 -19 -2
-25 0 -7 3 -2 5 12 5 14 0 19 -2 13 -5z m164 1 c-3 -3 -12 -4 -19 -1 -8 3 -5
6 6 6 11 1 17 -2 13 -5z m40 0 c-3 -3 -12 -4 -19 -1 -8 3 -5 6 6 6 11 1 17 -2
13 -5z m6403 -4 c-20 -13 -43 -13 -35 0 3 6 16 10 28 10 18 0 19 -2 7 -10z
m153 3 c-13 -2 -33 -2 -45 0 -13 2 -3 4 22 4 25 0 35 -2 23 -4z m54 1 c-3 -3
-12 -4 -19 -1 -8 3 -5 6 6 6 11 1 17 -2 13 -5z m156 -1 c-24 -2 -62 -2 -85 0
-24 2 -5 4 42 4 47 0 66 -2 43 -4z m170 0 c-7 -2 -19 -2 -25 0 -7 3 -2 5 12 5
14 0 19 -2 13 -5z m-6146 -59 c-3 -3 -12 -4 -19 -1 -8 3 -5 6 6 6 11 1 17 -2
13 -5z m531 1 c-7 -7 -509 -7 -516 0 -3 3 113 5 258 5 145 0 261 -2 258 -5z
m3995 -2 c-7 -2 -19 -2 -25 0 -7 3 -2 5 12 5 14 0 19 -2 13 -5z m485 1 c-8 -7
-458 -7 -465 0 -4 3 101 6 232 6 131 0 236 -3 233 -6z m529 -136 c-2 -24 -4
-7 -4 37 0 44 2 63 4 43 2 -21 2 -57 0 -80z m0 -170 c-2 -24 -4 -7 -4 37 0 44
2 63 4 43 2 -21 2 -57 0 -80z m0 -85 c-3 -10 -5 -4 -5 12 0 17 2 24 5 18 2 -7
2 -21 0 -30z m-5820 -39 c-3 -3 -12 -4 -19 -1 -8 3 -5 6 6 6 11 1 17 -2 13 -5z
m131 -1 c-10 -2 -28 -2 -40 0 -13 2 -5 4 17 4 22 1 32 -1 23 -4z m5085 0 c-7
-2 -19 -2 -25 0 -7 3 -2 5 12 5 14 0 19 -2 13 -5z m320 0 c-7 -2 -19 -2 -25 0
-7 3 -2 5 12 5 14 0 19 -2 13 -5z m-4416 -49 c-7 -7 -199 -6 -206 1 -2 3 44 5
104 5 60 0 106 -3 102 -6z m76 -1 c-13 -2 -33 -2 -45 0 -13 2 -3 4 22 4 25 0
35 -2 23 -4z m3251 -1 c2 -4 -11 -6 -30 -4 -19 2 -34 6 -34 8 0 8 59 4 64 -4z
m59 1 c-7 -2 -21 -2 -30 0 -10 3 -4 5 12 5 17 0 24 -2 18 -5z m64 1 c-3 -3
-12 -4 -19 -1 -8 3 -5 6 6 6 11 1 17 -2 13 -5z m-4084 -431 c-7 -2 -19 -2 -25
0 -7 3 -2 5 12 5 14 0 19 -2 13 -5z m175 0 c-21 -2 -57 -2 -80 0 -24 2 -7 4
37 4 44 0 63 -2 43 -4z m4139 1 c-3 -3 -12 -4 -19 -1 -8 3 -5 6 6 6 11 1 17
-2 13 -5z m-3400 -30 c-3 -3 -12 -4 -19 -1 -8 3 -5 6 6 6 11 1 17 -2 13 -5z
m191 -1 c-32 -2 -86 -2 -120 0 -35 2 -9 3 57 3 66 0 94 -1 63 -3z m1215 0
c-210 -2 -556 -2 -770 0 -213 1 -41 2 382 2 424 0 598 -1 388 -2z m555 0 c-32
-2 -84 -2 -115 0 -32 2 -6 3 57 3 63 0 89 -1 58 -3z m130 0 c-10 -2 -26 -2
-35 0 -10 3 -2 5 17 5 19 0 27 -2 18 -5z m119 0 c-20 -2 -52 -2 -70 0 -17 2 0
4 38 4 39 0 53 -2 32 -4z m140 0 c-20 -2 -52 -2 -70 0 -17 2 0 4 38 4 39 0 53
-2 32 -4z m191 0 c-21 -2 -57 -2 -80 0 -24 2 -7 4 37 4 44 0 63 -2 43 -4z
m170 0 c-16 -2 -40 -2 -55 0 -16 2 -3 4 27 4 30 0 43 -2 28 -4z m85 0 c-7 -2
-21 -2 -30 0 -10 3 -4 5 12 5 17 0 24 -2 18 -5z m-2760 -920 c-7 -2 -19 -2
-25 0 -7 3 -2 5 12 5 14 0 19 -2 13 -5z m720 0 c-127 -2 -339 -2 -470 0 -131
1 -26 2 232 2 259 0 366 -1 238 -2z m340 0 c-13 -2 -33 -2 -45 0 -13 2 -3 4
22 4 25 0 35 -2 23 -4z m165 0 c-27 -2 -69 -2 -95 0 -27 2 -5 3 47 3 52 0 74
-1 48 -3z m110 0 c-10 -2 -26 -2 -35 0 -10 3 -2 5 17 5 19 0 27 -2 18 -5z
m260 0 c-43 -2 -113 -2 -155 0 -43 1 -8 3 77 3 85 0 120 -2 78 -3z m240 0
c-27 -2 -69 -2 -95 0 -27 2 -5 3 47 3 52 0 74 -1 48 -3z m650 0 c-104 -2 -272
-2 -375 0 -104 1 -19 2 187 2 206 0 291 -1 188 -2z"/>
<path d="M3670 4345 c0 -278 -1 -508 -2 -512 -2 -5 110 -9 248 -11 l252 -2 -5
512 -5 513 -244 3 -244 2 0 -505z m477 23 c-3 -8 -6 -5 -6 6 -1 11 2 17 5 13
3 -3 4 -12 1 -19z"/>
<path d="M6110 4335 l0 -515 246 0 245 0 -3 483 c-1 265 -4 497 -6 515 l-4 32
-239 0 -239 0 0 -515z m467 -177 c-3 -8 -6 -5 -6 6 -1 11 2 17 5 13 3 -3 4
-12 1 -19z m0 -120 c-3 -8 -6 -5 -6 6 -1 11 2 17 5 13 3 -3 4 -12 1 -19z
m-440 -25 c-3 -10 -5 -4 -5 12 0 17 2 24 5 18 2 -7 2 -21 0 -30z"/>
<path d="M4630 2992 l0 -358 510 -1 510 0 0 359 0 358 -510 0 -510 0 0 -358z"/>
</g>
</svg>
